<svg width="250" height="250" viewBox="0 0 250 250" fill="none" xmlns="http://www.w3.org/2000/svg">
<g clip-path="url(#clip0_31_1099)">
<path d="M127.366 26.7725C125.579 10.2862 118.144 2.55536 114.649 0.750727C112.072 -0.238916 106.435 -1.03063 104.51 3.71965C102.105 9.65751 108.807 11.9279 112.072 13.8489C114.684 15.3858 113.16 18.5643 112.072 19.9614C109.8 22.8782 115.915 25.7307 118.435 26.7204C121.013 27.7682 118.43 31.8004 118.263 32.3089C117.576 34.4046 117.09 36.7621 119.977 37.6004C122.864 38.4386 123.242 46.2161 123.07 50H126.85C126.892 48.7724 127.156 47.578 127.538 46.4721M127.366 26.7725C130.115 19.2047 137.883 4.31347 146.956 5.29147C158.298 6.51397 154.174 17.1672 146.956 17.6911C141.182 18.1103 142.138 21.788 143.176 24.3275C143.868 26.0218 142.454 28.3793 135.443 30.6147C134.245 30.9966 133.935 31.7151 134.76 35.6271C134.76 36.675 134.245 38.7707 130.803 40.9186C129.924 41.8519 128.417 43.9278 127.538 46.4721M127.366 26.7725C127.887 29.8639 127.996 41.1863 127.538 46.4721" stroke="#7ED957" stroke-width="4"/>
<path d="M182 250H67C67 190.906 92.7436 143 124.5 143C156.256 143 182 190.906 182 250Z" fill="#923A5F"/>
<ellipse cx="125" cy="96.5" rx="46" ry="46.5" fill="#923A5F"/>
</g>
<defs>
<clipPath id="clip0_31_1099">
<rect width="250" height="250" fill="white"/>
</clipPath>
</defs>
</svg>
