<svg width="477" height="417" viewBox="0 0 477 417" fill="none" xmlns="http://www.w3.org/2000/svg">
<rect x="424" y="291" width="44" height="6" transform="rotate(90 424 291)" fill="white"/>
<rect x="75" y="349" width="21" height="1" fill="white"/>
<rect x="87" y="350" width="14" height="3" transform="rotate(90 87 350)" fill="white"/>
<rect x="197" y="349" width="15" height="3" transform="rotate(90 197 349)" fill="white"/>
<rect width="22.3697" height="1.5846" transform="matrix(-0.783314 -0.621626 -0.862854 0.505454 214.287 363.01)" fill="white"/>
<rect x="211" y="364" width="15" height="3" transform="rotate(-90 211 364)" fill="white"/>
<rect width="22.3697" height="1.28929" transform="matrix(0.783314 0.621626 0.862854 -0.505454 193.8 349.99)" fill="white"/>
<rect x="163" y="356" width="21" height="1" fill="white"/>
<rect x="166" y="349" width="15" height="3" transform="rotate(90 166 349)" fill="white"/>
<rect x="184" y="349" width="15" height="3" transform="rotate(90 184 349)" fill="white"/>
<rect x="104" y="349" width="21" height="1" fill="white"/>
<rect x="104" y="356" width="21" height="1" fill="white"/>
<rect x="104" y="363" width="21" height="1" fill="white"/>
<rect x="107" y="349" width="15" height="3" transform="rotate(90 107 349)" fill="white"/>
<rect x="354" y="349" width="20" height="1" fill="white"/>
<rect x="354" y="356" width="20" height="1" fill="white"/>
<rect x="354" y="363" width="20" height="1" fill="white"/>
<rect x="357" y="349" width="15" height="3" transform="rotate(90 357 349)" fill="white"/>
<rect x="223" y="349" width="21" height="1" fill="white"/>
<rect x="223" y="363" width="21" height="1" fill="white"/>
<rect x="226" y="349" width="15" height="3" transform="rotate(90 226 349)" fill="white"/>
<rect x="223" y="363" width="21" height="1" fill="white"/>
<rect x="223" y="349" width="21" height="1" fill="white"/>
<rect x="223" y="363" width="21" height="1" fill="white"/>
<rect x="223" y="363" width="21" height="1" fill="white"/>
<rect x="226" y="349" width="15" height="3" transform="rotate(90 226 349)" fill="white"/>
<rect x="252" y="363" width="21" height="1" fill="white"/>
<rect x="255" y="349" width="15" height="3" transform="rotate(90 255 349)" fill="white"/>
<rect x="252" y="363" width="21" height="1" fill="white"/>
<rect x="252" y="363" width="21" height="1" fill="white"/>
<rect x="252" y="363" width="21" height="1" fill="white"/>
<rect x="255" y="349" width="15" height="3" transform="rotate(90 255 349)" fill="white"/>
<rect x="345" y="349" width="15" height="3" transform="rotate(90 345 349)" fill="white"/>
<rect x="345" y="349" width="15" height="3" transform="rotate(90 345 349)" fill="white"/>
<rect x="244" y="349" width="15" height="3" transform="rotate(90 244 349)" fill="white"/>
<rect x="282" y="349" width="20" height="1" fill="white"/>
<rect x="282" y="363" width="20" height="1" fill="white"/>
<rect x="285" y="349" width="15" height="3" transform="rotate(90 285 349)" fill="white"/>
<rect x="282" y="363" width="20" height="1" fill="white"/>
<rect x="282" y="349" width="20" height="1" fill="white"/>
<rect x="282" y="363" width="20" height="1" fill="white"/>
<rect x="282" y="363" width="20" height="1" fill="white"/>
<rect x="285" y="349" width="15" height="3" transform="rotate(90 285 349)" fill="white"/>
<rect x="313" y="349" width="20" height="1" fill="white"/>
<rect x="313" y="363" width="20" height="1" fill="white"/>
<rect x="316" y="349" width="15" height="3" transform="rotate(90 316 349)" fill="white"/>
<rect x="313" y="363" width="20" height="1" fill="white"/>
<rect x="313" y="349" width="20" height="1" fill="white"/>
<rect x="313" y="363" width="20" height="1" fill="white"/>
<rect x="313" y="363" width="20" height="1" fill="white"/>
<rect x="323" y="357" width="10" height="1" fill="white"/>
<rect x="316" y="349" width="15" height="3" transform="rotate(90 316 349)" fill="white"/>
<rect x="302" y="349" width="15" height="3" transform="rotate(90 302 349)" fill="white"/>
<rect x="333" y="357" width="7" height="3" transform="rotate(90 333 357)" fill="white"/>
<rect x="383" y="349" width="21" height="1" fill="white"/>
<rect x="383" y="363" width="21" height="1" fill="white"/>
<rect x="383" y="363" width="21" height="1" fill="white"/>
<rect x="383" y="349" width="21" height="1" fill="white"/>
<rect x="383" y="363" width="21" height="1" fill="white"/>
<rect x="383" y="363" width="21" height="1" fill="white"/>
<rect x="383" y="357" width="21" height="1" fill="white"/>
<rect x="386" y="349" width="8" height="3" transform="rotate(90 386 349)" fill="white"/>
<rect x="404" y="357" width="7" height="3" transform="rotate(90 404 357)" fill="white"/>
<rect x="134" y="349" width="20" height="1" fill="white"/>
<rect x="134" y="363" width="20" height="1" fill="white"/>
<rect x="137" y="349" width="15" height="3" transform="rotate(90 137 349)" fill="white"/>
<rect x="134" y="363" width="20" height="1" fill="white"/>
<rect x="134" y="349" width="20" height="1" fill="white"/>
<rect x="134" y="363" width="20" height="1" fill="white"/>
<rect x="134" y="363" width="20" height="1" fill="white"/>
<rect x="137" y="349" width="15" height="3" transform="rotate(90 137 349)" fill="white"/>
<rect x="331" y="291" width="40" height="3" fill="white"/>
<rect x="354" y="294" width="41" height="6" transform="rotate(90 354 294)" fill="white"/>
<rect x="387" y="291" width="44" height="7" transform="rotate(90 387 291)" fill="white"/>
<rect x="380" y="291" width="42" height="3" fill="white"/>
<rect x="380" y="312" width="42" height="2" fill="white"/>
<rect x="173" y="291" width="44" height="6" transform="rotate(90 173 291)" fill="white"/>
<rect width="53.6244" height="3.59501" transform="matrix(-0.651674 -0.758499 -0.758499 0.651674 207.934 331.979)" fill="white"/>
<rect x="202" y="335" width="44" height="6" transform="rotate(-90 202 335)" fill="white"/>
<rect width="53.6244" height="2.92502" transform="matrix(0.651674 0.758499 0.758499 -0.651674 167.076 293.896)" fill="white"/>
<rect x="158" y="291" width="44" height="5" transform="rotate(90 158 291)" fill="white"/>
<rect x="273" y="291" width="44" height="6" transform="rotate(90 273 291)" fill="white"/>
<rect x="53" y="291" width="41" height="3" fill="white"/>
<rect x="53" y="312" width="41" height="2" fill="white"/>
<rect x="94" y="291" width="21" height="3" transform="rotate(90 94 291)" fill="white"/>
<rect x="57.4695" y="311.475" width="41.7444" height="2.92502" transform="rotate(31.87 57.4695 311.475)" fill="white"/>
<rect x="58" y="291" width="44" height="5" transform="rotate(90 58 291)" fill="white"/>
<rect x="102" y="291" width="42" height="3" fill="white"/>
<rect x="102" y="312" width="42" height="2" fill="white"/>
<rect x="102" y="332" width="42" height="3" fill="white"/>
<rect x="109" y="291" width="44" height="7" transform="rotate(90 109 291)" fill="white"/>
<rect x="281" y="291" width="41" height="3" fill="white"/>
<rect x="281" y="332" width="41" height="3" fill="white"/>
<rect x="287" y="291" width="44" height="6" transform="rotate(90 287 291)" fill="white"/>
<rect x="281" y="332" width="41" height="3" fill="white"/>
<rect x="281" y="291" width="41" height="3" fill="white"/>
<rect x="281" y="332" width="41" height="3" fill="white"/>
<rect x="281" y="332" width="41" height="3" fill="white"/>
<rect x="287" y="291" width="44" height="6" transform="rotate(90 287 291)" fill="white"/>
<path d="M233.704 335L217 291H223.074L238.259 330.875L251.926 291H258L242.815 335H233.704Z" fill="white"/>
<path d="M170 275L184.753 255H290.247L305 275H170Z" stroke="white" stroke-width="8"/>
<path d="M170 66L184.753 86H290.247L305 66H170Z" stroke="white" stroke-width="8"/>
<rect x="210" y="89" width="56" height="163" stroke="white" stroke-width="8"/>
<rect x="221.5" y="85.5" width="9" height="168" stroke="white" stroke-width="3"/>
<rect x="245.5" y="85.5" width="9" height="168" stroke="white" stroke-width="3"/>
<path d="M277 97H351L296.828 151.172L277 171L296.5 243.773H277V171V97Z" fill="white"/>
<path d="M353 246L299 152L279 172L353 246Z" fill="white"/>
<path d="M199 97H125L179.172 151.172L199 171L179.5 243.773H199V171V97Z" fill="white"/>
<path d="M123 246L177 152L197 172L123 246Z" fill="white"/>
</svg>
