<svg width="250" height="250" viewBox="0 0 250 250" fill="none" xmlns="http://www.w3.org/2000/svg">
<path d="M132.611 72.6477C128.357 34.0697 110.662 15.9795 102.346 11.7567C96.2106 9.44094 82.7954 7.58833 78.2147 18.704C72.4888 32.5986 88.4395 37.9112 96.2108 42.4065C102.428 46.0028 98.8012 53.4404 96.2108 56.7098C90.8028 63.535 105.357 70.2099 111.355 72.5256C117.49 74.9776 111.343 84.413 110.946 85.6029C109.31 90.5068 108.153 96.0233 115.024 97.9848C121.895 99.9464 122.795 118.146 122.386 127H131.384C131.483 124.128 132.11 121.333 133.02 118.745M132.611 72.6477C139.155 54.9389 157.641 20.0935 179.236 22.382C206.23 25.2427 196.414 50.1712 179.236 51.3972C165.494 52.378 167.768 60.9839 170.238 66.9264C171.886 70.891 168.521 76.4074 151.834 81.6383C148.983 82.5321 148.246 84.2134 150.21 93.3675C150.21 95.8195 148.983 100.723 140.791 105.75C138.7 107.933 135.113 112.791 133.02 118.745M132.611 72.6477C133.85 79.8816 134.111 106.376 133.02 118.745" stroke="#7ED957" stroke-width="5"/>
<path d="M169.061 131.21C171.358 131.21 175.631 142.254 177.481 147.776L178.809 166.817C179.125 167.121 182.138 169.863 183.605 171.196L197 181.859L190.111 231.176C188.963 233.143 185.595 237.345 181.308 238.411C177.022 239.478 149.16 238.856 135.765 238.411C134.616 236.444 133.583 231.023 138.635 225.082C154.39 224.067 186.016 220.475 186.475 214.229C186.934 207.984 184.753 182.938 183.605 171.196C182.138 169.863 179.125 167.121 178.809 166.817L182.074 213.658C173.501 217.161 162.172 216.387 157.58 215.562L151.839 164.913L148.203 165.293L152.796 217.276C140.855 222.302 128.429 221.528 123.709 220.513L117.203 168.911L113.184 169.292L119.116 219.37C111.462 224.397 100.235 223.623 95.5789 222.607L87.3504 172.148L83.3318 172.339L90.0294 214.039C84.9775 219.065 75.8049 218.291 71.8502 217.276C68.4695 203.503 61.4402 174.852 60.3686 170.435C59.297 166.017 60.8151 157.677 61.7081 154.059C65.918 150.632 69.9366 150.251 71.4675 148.918C72.6922 147.852 76.3153 148.855 77.9738 149.489L80.2701 149.299C82.5664 150.251 88.8813 138.826 89.0727 138.065C89.264 137.303 102.851 134.828 103.233 135.399C103.54 135.856 106.805 137.113 108.4 137.684C109.166 137.874 110.964 138.141 112.036 137.684C113.375 137.113 117.968 130.639 118.351 129.306C118.734 127.973 133.851 126.83 135.191 127.021C136.53 127.211 143.228 135.78 145.907 136.161C148.05 136.465 152.03 133.495 153.753 131.971C156.049 131.019 166.191 131.21 169.061 131.21Z" fill="#923A5F"/>
</svg>
