<svg width="250" height="250" viewBox="0 0 250 250" fill="none" xmlns="http://www.w3.org/2000/svg">
<path d="M129.918 67.3006C127.094 41.2522 115.347 29.0375 109.826 26.1861C105.753 24.6225 96.8474 23.3716 93.8064 30.8771C90.0052 40.2589 100.594 43.846 105.753 46.8813C109.881 49.3096 107.473 54.3316 105.753 56.5391C102.163 61.1476 111.825 65.6545 115.807 67.2182C119.88 68.8738 115.799 75.2446 115.536 76.0481C114.45 79.3593 113.682 83.0841 118.243 84.4086C122.804 85.7331 123.402 98.0214 123.13 104H129.104C129.169 102.06 129.586 100.173 130.19 98.4259M129.918 67.3006C134.262 55.3434 146.535 31.8153 160.871 33.3605C178.791 35.2921 172.275 52.1242 160.871 52.952C151.748 53.6142 153.258 59.4251 154.898 63.4375C155.992 66.1144 153.757 69.8392 142.679 73.3712C140.787 73.9746 140.298 75.1099 141.601 81.2909C141.601 82.9465 140.787 86.2577 135.349 89.6514C133.961 91.1259 131.579 94.4059 130.19 98.4259M129.918 67.3006C130.741 72.185 130.914 90.0743 130.19 98.4259" stroke="#7ED957" stroke-width="6"/>
<path d="M87 137H163C163 120.431 145.987 107 125 107C104.013 107 87 120.431 87 137Z" fill="#D9D9D9"/>
<path d="M87 137H163C163 120.431 145.987 107 125 107C104.013 107 87 120.431 87 137Z" fill="#923A5F"/>
<path d="M110 203H140C140 209.627 133.284 215 125 215C116.716 215 110 209.627 110 203Z" fill="#923A5F"/>
<path d="M120 108H132C132 104.686 129.314 102 126 102C122.686 102 120 104.686 120 108Z" fill="#923A5F"/>
<path d="M162.859 137.5C161.871 146.313 161.665 159.674 164.198 171.848C166.59 183.339 171.459 193.933 180.582 198.5H69.0742C77.7241 193.346 90.7888 175.658 87.4219 137.5H162.859Z" fill="#923A5F" stroke="#923A5F" stroke-linecap="round"/>
</svg>
