<svg width="250" height="250" viewBox="0 0 250 250" fill="none" xmlns="http://www.w3.org/2000/svg">
<rect x="54" y="49.328" width="141.999" height="174.399" fill="#FFD7E8" stroke="#923A5F" stroke-width="20"/>
<rect x="89.3594" y="31.5519" width="71.28" height="32.4" rx="5" fill="#923A5F"/>
<circle cx="125" cy="31.5519" r="12.96" fill="#923A5F"/>
<circle cx="125" cy="31.552" r="6.48" fill="#FFD7E8"/>
<path d="M142.309 115.184C148.71 100.622 146.158 90.5881 144.082 87.391C142.387 85.3163 138.022 81.9194 134.124 84.9293C129.251 88.6918 133.804 93.8346 135.631 97.0171C137.093 99.563 134.286 101.462 132.7 102.094C129.389 103.412 133.169 108.753 134.816 110.8C136.483 112.923 132.375 115.017 131.991 115.358C130.408 116.765 128.868 118.486 130.896 120.586C132.924 122.685 129.513 129.328 127.554 132.387L130.736 134.225C131.36 133.226 132.155 132.362 133.007 131.629M142.309 115.184C148.252 110.235 161.931 101.642 169.1 106.864C178.061 113.391 169.481 120.235 163.154 117.162C158.093 114.704 157.133 118.223 156.789 120.837C156.56 122.58 154.239 123.851 147.265 122.3C146.073 122.035 145.468 122.482 144.287 126.132C143.784 127.002 142.346 128.492 138.418 128.603C137.231 128.951 134.967 129.943 133.007 131.629M142.309 115.184C141.264 118.004 135.927 127.461 133.007 131.629" stroke="#7ED957" stroke-width="4"/>
<rect x="145.254" y="160.564" width="2.592" height="16.2" rx="1.296" transform="rotate(120 145.254 160.564)" fill="#923A5F"/>
<rect x="106.51" y="143.432" width="1.944" height="11.664" rx="0.972" transform="rotate(120 106.51 143.432)" fill="#923A5F"/>
<path d="M99.5508 162.611C100.016 162.879 100.175 163.474 99.9066 163.938V163.938C99.6382 164.403 99.0437 164.563 98.5788 164.294L91.564 160.244C90.6342 159.707 90.3156 158.518 90.8524 157.589V157.589L99.5508 162.611Z" fill="#923A5F"/>
<rect x="133.851" y="176.427" width="1.944" height="16.2" rx="0.972" transform="rotate(120 133.851 176.427)" fill="#923A5F"/>
<rect x="137.24" y="173.147" width="2.592" height="9.72" rx="1.296" transform="rotate(120 137.24 173.147)" fill="#923A5F"/>
<path d="M111.412 180.621C104.828 179.792 98.2076 186.248 95.7203 189.58C96.9269 187.491 98.5729 176.18 97.1831 172.406C95.7933 168.631 84.6018 159.383 94.0931 141.642C103.584 123.902 121.375 130.829 128.057 133.572C134.738 136.315 152.371 151.326 140.585 168.485C128.8 185.644 119.643 181.658 111.412 180.621Z" stroke="#923A5F" stroke-width="4" stroke-linejoin="round"/>
</svg>
