<svg width="250" height="250" viewBox="0 0 250 250" fill="none" xmlns="http://www.w3.org/2000/svg">
<path d="M35.5371 212.224H201.849" stroke="#923A5F" stroke-width="15" stroke-linecap="round"/>
<path d="M73.751 187.201C73.3354 183.418 71.606 181.644 70.7933 181.23C70.1938 181.002 68.8828 180.821 68.4351 181.911C67.8755 183.274 69.4343 183.795 70.1938 184.235C70.8014 184.588 70.4469 185.318 70.1938 185.638C69.6653 186.307 71.0876 186.962 71.6738 187.189C72.2734 187.43 71.6726 188.355 71.6338 188.472C71.474 188.953 71.3609 189.494 72.0324 189.686C72.7038 189.878 72.7918 191.663 72.7518 192.532H73.6311C73.6408 192.25 73.7021 191.976 73.791 191.722M73.751 187.201C74.3906 185.464 76.1972 182.047 78.3075 182.272C80.9455 182.552 79.9862 184.997 78.3075 185.117C76.9646 185.213 77.1868 186.057 77.4282 186.64C77.5893 187.029 77.2603 187.57 75.6296 188.083C75.351 188.171 75.279 188.335 75.4709 189.233C75.4709 189.474 75.351 189.955 74.5504 190.448C74.3461 190.662 73.9955 191.138 73.791 191.722M73.751 187.201C73.8721 187.911 73.8976 190.509 73.791 191.722" stroke="#7ED957"/>
<path d="M77.2685 192.751C77.4909 192.751 77.905 193.824 78.0842 194.36L78.2128 196.21C78.2434 196.239 78.5353 196.506 78.6774 196.635L79.9751 197.671L79.3077 202.462C79.1964 202.653 78.8702 203.061 78.4549 203.164C78.0397 203.268 75.3405 203.208 74.0428 203.164C73.9316 202.973 73.8315 202.447 74.3209 201.87C75.8472 201.771 78.911 201.422 78.9555 200.815C78.9999 200.209 78.7886 197.776 78.6774 196.635C78.5353 196.506 78.2434 196.239 78.2128 196.21L78.5291 200.76C77.6986 201.1 76.6011 201.025 76.1562 200.945L75.6001 196.025L75.2478 196.062L75.6927 201.111C74.536 201.6 73.3322 201.524 72.8749 201.426L72.2447 196.413L71.8553 196.45L72.43 201.315C71.6885 201.803 70.6009 201.728 70.1498 201.629L69.3527 196.728L68.9634 196.746L69.6122 200.797C69.1228 201.285 68.2342 201.21 67.8511 201.111C67.5236 199.773 66.8426 196.99 66.7388 196.561C66.635 196.132 66.7821 195.322 66.8686 194.97C67.2764 194.637 67.6657 194.6 67.814 194.471C67.9327 194.367 68.2837 194.465 68.4443 194.526L68.6668 194.508C68.8893 194.6 69.501 193.491 69.5196 193.417C69.5381 193.343 70.8543 193.102 70.8914 193.158C70.921 193.202 71.2374 193.324 71.3919 193.38C71.4661 193.398 71.6403 193.424 71.7441 193.38C71.8739 193.324 72.3188 192.695 72.3559 192.566C72.393 192.436 73.8575 192.325 73.9872 192.344C74.117 192.362 74.7658 193.195 75.0254 193.232C75.233 193.261 75.6186 192.973 75.7854 192.825C76.0079 192.732 76.9904 192.751 77.2685 192.751Z" fill="#923A5F"/>
<path d="M97.394 170.287C96.8139 165.007 94.4005 162.531 93.2663 161.953C92.4296 161.636 90.6 161.382 89.9752 162.904C89.1943 164.805 91.3697 165.533 92.4296 166.148C93.2775 166.64 92.7829 167.658 92.4296 168.105C91.692 169.04 93.677 169.953 94.4951 170.27C95.3318 170.606 94.4934 171.897 94.4393 172.06C94.2162 172.731 94.0583 173.486 94.9954 173.755C95.9325 174.023 96.0553 176.514 95.9995 177.726H97.2266C97.2402 177.333 97.3257 176.95 97.4498 176.596M97.394 170.287C98.2864 167.863 100.808 163.094 103.753 163.407C107.434 163.799 106.096 167.211 103.753 167.378C101.879 167.513 102.189 168.69 102.526 169.504C102.75 170.046 102.291 170.801 100.016 171.517C99.6268 171.64 99.5264 171.87 99.7941 173.123C99.7941 173.458 99.6268 174.129 98.5096 174.817C98.2244 175.116 97.7352 175.781 97.4498 176.596M97.394 170.287C97.5629 171.277 97.5985 174.903 97.4498 176.596" stroke="#7ED957" stroke-width="2"/>
<path d="M101.916 177.868C102.227 177.868 102.807 179.37 103.057 180.121L103.238 182.711C103.28 182.752 103.689 183.125 103.888 183.306L105.705 184.757L104.77 191.464C104.615 191.731 104.158 192.303 103.577 192.448C102.995 192.593 99.2164 192.508 97.3996 192.448C97.2439 192.18 97.1038 191.443 97.7889 190.635C99.9258 190.497 104.215 190.008 104.277 189.159C104.34 188.309 104.044 184.903 103.888 183.306C103.689 183.125 103.28 182.752 103.238 182.711L103.68 189.081C102.518 189.558 100.981 189.452 100.358 189.34L99.5797 182.452L99.0866 182.504L99.7095 189.573C98.09 190.257 96.4048 190.151 95.7646 190.013L94.8822 182.996L94.3371 183.047L95.1417 189.858C94.1036 190.542 92.581 190.436 91.9494 190.298L90.8334 183.436L90.2884 183.462L91.1968 189.133C90.5116 189.817 89.2676 189.711 88.7312 189.573C88.2727 187.7 87.3194 183.804 87.174 183.203C87.0287 182.602 87.2346 181.468 87.3557 180.976C87.9267 180.51 88.4717 180.458 88.6793 180.277C88.8454 180.132 89.3368 180.268 89.5617 180.354L89.8732 180.328C90.1846 180.458 91.0411 178.904 91.067 178.801C91.093 178.697 92.9357 178.36 92.9876 178.438C93.0291 178.5 93.472 178.671 93.6883 178.749C93.7921 178.775 94.0361 178.811 94.1814 178.749C94.3631 178.671 94.986 177.791 95.0379 177.609C95.0898 177.428 97.1401 177.273 97.3218 177.299C97.5035 177.325 98.4118 178.49 98.7752 178.542C99.0659 178.583 99.6057 178.179 99.8393 177.972C100.151 177.842 101.526 177.868 101.916 177.868Z" fill="#923A5F"/>
<path d="M131.151 144.876C130.29 137.044 126.711 133.372 125.028 132.515C123.787 132.044 121.074 131.668 120.147 133.925C118.989 136.745 122.215 137.824 123.787 138.737C125.045 139.467 124.311 140.976 123.787 141.64C122.693 143.026 125.638 144.381 126.851 144.851C128.092 145.348 126.849 147.264 126.768 147.505C126.437 148.501 126.203 149.621 127.593 150.019C128.983 150.417 129.165 154.112 129.082 155.909H130.903C130.923 155.326 131.049 154.759 131.233 154.233M131.151 144.876C132.474 141.281 136.214 134.207 140.582 134.672C146.043 135.252 144.057 140.313 140.582 140.562C137.802 140.761 138.263 142.508 138.762 143.714C139.096 144.519 138.415 145.639 135.039 146.701C134.462 146.882 134.314 147.223 134.711 149.082C134.711 149.579 134.462 150.575 132.805 151.595C132.382 152.039 131.657 153.025 131.233 154.233M131.151 144.876C131.401 146.344 131.454 151.722 131.233 154.233" stroke="#7ED957" stroke-width="3"/>
<path d="M138.007 156.111C138.467 156.111 139.324 158.331 139.695 159.441L139.961 163.269C140.025 163.33 140.629 163.882 140.923 164.15L143.609 166.293L142.227 176.208C141.997 176.604 141.322 177.449 140.463 177.663C139.603 177.878 134.017 177.753 131.331 177.663C131.101 177.268 130.894 176.178 131.907 174.983C135.066 174.779 141.406 174.057 141.498 172.801C141.591 171.546 141.153 166.51 140.923 164.15C140.629 163.882 140.025 163.33 139.961 163.269L140.616 172.687C138.897 173.391 136.626 173.235 135.705 173.069L134.554 162.886L133.825 162.963L134.746 173.414C132.352 174.425 129.86 174.269 128.914 174.065L127.61 163.69L126.804 163.767L127.993 173.835C126.459 174.846 124.208 174.69 123.274 174.486L121.624 164.341L120.819 164.379L122.161 172.763C121.149 173.774 119.309 173.618 118.517 173.414C117.839 170.645 116.429 164.885 116.215 163.997C116 163.108 116.304 161.432 116.483 160.704C117.327 160.015 118.133 159.939 118.44 159.671C118.685 159.456 119.412 159.658 119.744 159.786L120.205 159.747C120.665 159.939 121.931 157.642 121.97 157.489C122.008 157.336 124.732 156.838 124.809 156.953C124.87 157.045 125.525 157.297 125.845 157.412C125.998 157.45 126.359 157.504 126.574 157.412C126.842 157.297 127.763 155.996 127.84 155.728C127.917 155.46 130.948 155.23 131.216 155.268C131.485 155.307 132.827 157.029 133.365 157.106C133.794 157.167 134.592 156.57 134.938 156.264C135.398 156.072 137.432 156.111 138.007 156.111Z" fill="#923A5F"/>
<path d="M169.903 114.738C168.791 104.618 164.166 99.8731 161.992 98.7654C160.389 98.1579 156.882 97.672 155.685 100.588C154.188 104.232 158.357 105.626 160.389 106.805C162.014 107.748 161.066 109.699 160.389 110.557C158.975 112.347 162.779 114.098 164.347 114.706C165.951 115.349 164.344 117.824 164.24 118.136C163.813 119.422 163.51 120.869 165.306 121.384C167.102 121.898 167.337 126.672 167.23 128.995H169.582C169.608 128.241 169.772 127.508 170.01 126.829M169.903 114.738C171.614 110.092 176.446 100.952 182.09 101.552C189.146 102.303 186.58 108.842 182.09 109.163C178.498 109.421 179.093 111.678 179.738 113.237C180.169 114.277 179.289 115.724 174.928 117.096C174.182 117.33 173.99 117.771 174.503 120.173C174.503 120.816 174.182 122.102 172.041 123.421C171.495 123.993 170.557 125.268 170.01 126.829M169.903 114.738C170.227 116.635 170.295 123.585 170.01 126.829" stroke="#7ED957" stroke-width="4"/>
<path d="M178.738 129.488C179.332 129.488 180.437 132.352 180.915 133.784L181.259 138.722C181.34 138.801 182.12 139.512 182.499 139.858L185.963 142.623L184.182 155.413C183.885 155.923 183.014 157.013 181.905 157.289C180.797 157.566 173.591 157.404 170.127 157.289C169.83 156.779 169.562 155.373 170.869 153.833C174.944 153.569 183.123 152.638 183.241 151.018C183.36 149.398 182.796 142.903 182.499 139.858C182.12 139.512 181.34 138.801 181.259 138.722L182.103 150.87C179.886 151.778 176.956 151.578 175.768 151.364L174.284 138.228L173.343 138.327L174.531 151.808C171.443 153.112 168.229 152.911 167.009 152.647L165.326 139.265L164.287 139.364L165.821 152.351C163.841 153.655 160.938 153.454 159.734 153.191L157.606 140.105L156.566 140.154L158.298 150.969C156.992 152.272 154.62 152.071 153.597 151.808C152.723 148.236 150.905 140.806 150.628 139.661C150.35 138.515 150.743 136.352 150.974 135.414C152.063 134.525 153.102 134.426 153.498 134.081C153.815 133.804 154.752 134.064 155.181 134.229L155.775 134.179C156.368 134.426 158.002 131.463 158.051 131.266C158.101 131.068 161.614 130.426 161.713 130.575C161.792 130.693 162.637 131.019 163.05 131.167C163.248 131.217 163.713 131.286 163.99 131.167C164.336 131.019 165.524 129.34 165.623 128.994C165.722 128.649 169.632 128.353 169.978 128.402C170.325 128.451 172.057 130.673 172.75 130.772C173.304 130.851 174.333 130.081 174.779 129.686C175.373 129.439 177.996 129.488 178.738 129.488Z" fill="#923A5F"/>
<path d="M50.6446 172.155C50.2289 168.372 48.4996 166.598 47.6869 166.184C47.0873 165.957 45.7763 165.775 45.3287 166.865C44.7691 168.228 46.3279 168.749 47.0874 169.19C47.6949 169.542 47.3405 170.272 47.0874 170.592C46.5589 171.262 47.9812 171.916 48.5674 172.143C49.1669 172.384 48.5662 173.309 48.5274 173.426C48.3675 173.907 48.2544 174.448 48.9259 174.64C49.5974 174.833 49.6853 176.617 49.6454 177.486H50.5247C50.5344 177.204 50.5957 176.93 50.6846 176.676M50.6446 172.155C51.2841 170.419 53.0907 167.001 55.2011 167.226C57.8391 167.506 56.8798 169.951 55.2011 170.071C53.8581 170.167 54.0804 171.011 54.3218 171.594C54.4828 171.983 54.1539 172.524 52.5232 173.037C52.2445 173.125 52.1726 173.29 52.3644 174.187C52.3644 174.428 52.2445 174.909 51.444 175.402C51.2397 175.616 50.8891 176.092 50.6846 176.676M50.6446 172.155C50.7657 172.865 50.7912 175.463 50.6846 176.676" stroke="#7ED957"/>
<path d="M54.163 177.705C54.3855 177.705 54.7995 178.778 54.9787 179.314L55.1073 181.164C55.1379 181.193 55.4298 181.46 55.5719 181.589L56.8696 182.625L56.2022 187.416C56.091 187.607 55.7647 188.015 55.3495 188.118C54.9342 188.222 52.235 188.162 50.9374 188.118C50.8262 187.927 50.726 187.401 51.2155 186.824C52.7418 186.725 55.8055 186.376 55.85 185.769C55.8945 185.163 55.6831 182.73 55.5719 181.589C55.4298 181.46 55.1379 181.193 55.1073 181.164L55.4236 185.714C54.5931 186.054 53.4956 185.979 53.0507 185.899L52.4946 180.979L52.1424 181.016L52.5873 186.065C51.4305 186.554 50.2268 186.478 49.7695 186.38L49.1392 181.367L48.7499 181.404L49.3246 186.269C48.583 186.757 47.4955 186.682 47.0444 186.583L46.2472 181.682L45.8579 181.7L46.5068 185.751C46.0174 186.239 45.1288 186.164 44.7456 186.065C44.4181 184.727 43.7372 181.944 43.6334 181.515C43.5295 181.086 43.6766 180.276 43.7631 179.924C44.171 179.591 44.5603 179.554 44.7086 179.425C44.8272 179.321 45.1782 179.419 45.3389 179.48L45.5613 179.462C45.7838 179.554 46.3955 178.445 46.4141 178.371C46.4326 178.297 47.7488 178.056 47.7859 178.112C47.8156 178.156 48.1319 178.278 48.2864 178.334C48.3606 178.352 48.5348 178.378 48.6387 178.334C48.7684 178.278 49.2133 177.649 49.2504 177.52C49.2875 177.39 50.752 177.279 50.8818 177.298C51.0115 177.316 51.6604 178.149 51.9199 178.186C52.1275 178.215 52.5131 177.927 52.68 177.779C52.9024 177.686 53.8849 177.705 54.163 177.705Z" fill="#923A5F"/>
<path d="M204.855 77.6944C203.705 67.223 198.918 62.3127 196.669 61.1665C195.01 60.5379 191.381 60.0351 190.142 63.0523C188.593 66.8237 192.908 68.2657 195.01 69.4859C196.691 70.4621 195.71 72.4809 195.01 73.3683C193.547 75.2209 197.483 77.0327 199.106 77.6613C200.765 78.3268 199.103 80.8879 198.995 81.2109C198.553 82.542 198.24 84.0393 200.098 84.5717C201.957 85.1042 202.2 90.044 202.089 92.4474H204.523C204.55 91.6677 204.72 90.9091 204.966 90.2067M204.855 77.6944C206.625 72.8876 211.625 63.4294 217.466 64.0506C224.767 64.8271 222.112 71.5935 217.466 71.9263C213.749 72.1925 214.364 74.5285 215.032 76.1414C215.478 77.2175 214.568 78.7149 210.054 80.1348C209.283 80.3773 209.084 80.8337 209.615 83.3184C209.615 83.984 209.283 85.3151 207.067 86.6793C206.502 87.2721 205.532 88.5906 204.966 90.2067M204.855 77.6944C205.19 79.6579 205.261 86.8494 204.966 90.2067" stroke="#7ED957" stroke-width="5"/>
<path d="M214.077 92.4473C214.691 92.4473 215.833 95.4078 216.328 96.888L216.683 101.992C216.767 102.074 217.573 102.809 217.965 103.166L221.546 106.025L219.704 119.245C219.397 119.772 218.497 120.898 217.351 121.184C216.205 121.47 208.757 121.303 205.176 121.184C204.869 120.657 204.593 119.204 205.943 117.611C210.155 117.339 218.61 116.376 218.732 114.702C218.855 113.028 218.272 106.314 217.965 103.166C217.573 102.809 216.767 102.074 216.683 101.992L217.556 114.549C215.264 115.488 212.235 115.28 211.008 115.059L209.473 101.482L208.501 101.584L209.729 115.519C206.537 116.866 203.215 116.658 201.953 116.386L200.214 102.554L199.139 102.656L200.725 116.08C198.679 117.427 195.678 117.22 194.433 116.948L192.233 103.421L191.159 103.473L192.95 114.651C191.599 115.998 189.147 115.791 188.09 115.519C187.186 111.826 185.307 104.146 185.02 102.962C184.734 101.778 185.14 99.5423 185.378 98.5724C186.504 97.6537 187.578 97.5516 187.987 97.1943C188.315 96.9085 189.283 97.1773 189.727 97.3474L190.341 97.2964C190.955 97.5516 192.643 94.4891 192.694 94.2849C192.745 94.0807 196.377 93.4172 196.479 93.5703C196.561 93.6928 197.434 94.0297 197.861 94.1828C198.065 94.2338 198.546 94.3053 198.833 94.1828C199.191 94.0297 200.418 92.2942 200.521 91.9369C200.623 91.5796 204.664 91.2734 205.022 91.3244C205.381 91.3755 207.171 93.6724 207.887 93.7745C208.46 93.8561 209.524 93.0599 209.985 92.6515C210.599 92.3963 213.31 92.4473 214.077 92.4473Z" fill="#923A5F"/>
<path d="M69.9897 142.344C69.4096 137.064 66.9962 134.588 65.862 134.01C65.0253 133.694 63.1957 133.44 62.5709 134.961C61.79 136.863 63.9654 137.59 65.0253 138.205C65.8732 138.698 65.3786 139.715 65.0253 140.163C64.2877 141.097 66.2727 142.011 67.0908 142.328C67.9275 142.663 67.0891 143.955 67.035 144.117C66.8119 144.789 66.654 145.544 67.5911 145.812C68.5282 146.081 68.651 148.571 68.5952 149.783H69.8223C69.8359 149.39 69.9214 149.008 70.0455 148.653M69.9897 142.344C70.8821 139.921 73.4034 135.151 76.3486 135.465C80.03 135.856 78.6913 139.268 76.3486 139.436C74.4744 139.57 74.7845 140.748 75.1214 141.561C75.3462 142.104 74.8871 142.859 72.6113 143.575C72.2225 143.697 72.1221 143.927 72.3898 145.18C72.3898 145.516 72.2225 146.187 71.1053 146.875C70.8201 147.174 70.3309 147.839 70.0455 148.653M69.9897 142.344C70.1586 143.334 70.1942 146.961 70.0455 148.653" stroke="#7ED957" stroke-width="2"/>
<path d="M74.5093 149.926C74.8207 149.926 75.4003 151.428 75.6512 152.179L75.8313 154.768C75.8741 154.81 76.2828 155.183 76.4817 155.364L78.2985 156.814L77.3641 163.521C77.2084 163.789 76.7516 164.36 76.1703 164.505C75.5889 164.65 71.8101 164.565 69.9934 164.505C69.8377 164.237 69.6975 163.5 70.3827 162.692C72.5195 162.554 76.8087 162.066 76.871 161.216C76.9333 160.367 76.6375 156.961 76.4817 155.364C76.2828 155.183 75.8741 154.81 75.8313 154.768L76.2741 161.139C75.1114 161.615 73.575 161.51 72.9521 161.398L72.1735 154.509L71.6804 154.561L72.3032 161.631C70.6837 162.314 68.9985 162.209 68.3583 162.071L67.4759 155.053L66.9309 155.105L67.7354 161.915C66.6973 162.599 65.1747 162.494 64.5432 162.356L63.4272 155.493L62.8822 155.519L63.7905 161.19C63.1054 161.874 61.8613 161.769 61.325 161.631C60.8664 159.758 59.9131 155.861 59.7678 155.26C59.6224 154.66 59.8283 153.525 59.9494 153.033C60.5204 152.567 61.0654 152.515 61.2731 152.334C61.4392 152.189 61.9305 152.325 62.1555 152.412L62.4669 152.386C62.7784 152.515 63.6348 150.962 63.6608 150.858C63.6867 150.754 65.5294 150.418 65.5813 150.496C65.6228 150.558 66.0658 150.729 66.2821 150.806C66.3859 150.832 66.6298 150.868 66.7752 150.806C66.9568 150.729 67.5797 149.848 67.6316 149.667C67.6835 149.486 69.7339 149.33 69.9155 149.356C70.0972 149.382 71.0056 150.547 71.3689 150.599C71.6596 150.641 72.1994 150.237 72.433 150.029C72.7445 149.9 74.12 149.926 74.5093 149.926Z" fill="#923A5F"/>
<path d="M84.4017 106.186C83.5413 98.3544 79.9617 94.6821 78.2794 93.8249C77.0384 93.3548 74.3247 92.9787 73.3981 95.2352C72.2398 98.0558 75.4664 99.1343 77.0384 100.047C78.296 100.777 77.5624 102.287 77.0384 102.95C75.9445 104.336 78.8886 105.691 80.102 106.161C81.343 106.659 80.0995 108.574 80.0192 108.816C79.6883 109.811 79.4542 110.931 80.8441 111.329C82.2341 111.727 82.4161 115.422 82.3333 117.219H84.1535C84.1735 116.636 84.3004 116.069 84.4844 115.544M84.4017 106.186C85.7254 102.591 89.465 95.5173 93.8333 95.9818C99.2937 96.5625 97.3081 101.623 93.8333 101.872C91.0535 102.071 91.5135 103.818 92.0132 105.024C92.3465 105.829 91.6657 106.949 88.2902 108.011C87.7135 108.192 87.5645 108.534 87.9617 110.392C87.9617 110.89 87.7135 111.885 86.0564 112.906C85.6335 113.349 84.9078 114.335 84.4844 115.544M84.4017 106.186C84.6523 107.654 84.705 113.033 84.4844 115.544" stroke="#7ED957" stroke-width="3"/>
<path d="M91.2571 117.421C91.7175 117.421 92.5743 119.641 92.9452 120.752L93.2113 124.58C93.2747 124.641 93.8788 125.192 94.1729 125.46L96.8586 127.604L95.4774 137.519C95.2472 137.915 94.572 138.759 93.7125 138.974C92.8531 139.188 87.2669 139.063 84.5812 138.974C84.351 138.578 84.1438 137.488 85.1567 136.294C88.3156 136.09 94.6564 135.368 94.7485 134.112C94.8405 132.856 94.4032 127.821 94.1729 125.46C93.8788 125.192 93.2747 124.641 93.2113 124.58L93.866 133.997C92.1472 134.701 89.8758 134.546 88.955 134.38L87.804 124.197L87.075 124.274L87.9958 134.724C85.6017 135.735 83.1104 135.579 82.164 135.375L80.8596 125.001L80.0538 125.077L81.2432 135.146C79.7085 136.156 77.4577 136.001 76.5241 135.796L74.8743 125.652L74.0686 125.69L75.4114 134.074C74.3985 135.084 72.5595 134.929 71.7665 134.724C71.0887 131.955 69.6794 126.195 69.4645 125.307C69.2497 124.419 69.554 122.742 69.7331 122.015C70.5772 121.326 71.3829 121.249 71.6898 120.981C71.9354 120.767 72.6618 120.969 72.9943 121.096L73.4547 121.058C73.9151 121.249 75.1812 118.952 75.2196 118.799C75.258 118.646 77.982 118.148 78.0588 118.263C78.1201 118.355 78.7749 118.608 79.0947 118.723C79.2481 118.761 79.6088 118.815 79.8237 118.723C80.0922 118.608 81.013 117.306 81.0898 117.038C81.1665 116.77 84.1975 116.541 84.4661 116.579C84.7346 116.617 86.0775 118.34 86.6146 118.416C87.0443 118.478 87.8424 117.88 88.1877 117.574C88.6481 117.383 90.6816 117.421 91.2571 117.421Z" fill="#923A5F"/>
<path d="M123.154 76.0479C122.042 65.9286 117.417 61.1834 115.243 60.0757C113.64 59.4682 110.133 58.9823 108.936 61.898C107.439 65.5427 111.608 66.9362 113.64 68.1154C115.265 69.0587 114.317 71.0097 113.64 71.8673C112.226 73.6576 116.03 75.4085 117.598 76.0159C119.202 76.6591 117.595 79.1341 117.491 79.4462C117.064 80.7326 116.761 82.1796 118.557 82.6941C120.353 83.2086 120.588 87.9825 120.481 90.305H122.833C122.859 89.5516 123.023 88.8184 123.261 88.1396M123.154 76.0479C124.865 71.4028 129.697 62.2625 135.341 62.8628C142.397 63.6132 139.831 70.1521 135.341 70.4737C131.749 70.731 132.344 72.9884 132.989 74.5472C133.42 75.5871 132.54 77.0342 128.179 78.4063C127.433 78.6407 127.241 79.0817 127.754 81.4829C127.754 82.1261 127.433 83.4125 125.292 84.7309C124.746 85.3037 123.808 86.5779 123.261 88.1396M123.154 76.0479C123.478 77.9454 123.546 84.8952 123.261 88.1396" stroke="#7ED957" stroke-width="4"/>
<path d="M131.988 90.7985C132.582 90.7985 133.687 93.6626 134.165 95.0946L134.509 100.033C134.59 100.112 135.37 100.823 135.749 101.168L139.213 103.934L137.432 116.723C137.135 117.233 136.264 118.323 135.155 118.599C134.047 118.876 126.841 118.715 123.377 118.599C123.08 118.089 122.812 116.683 124.119 115.143C128.194 114.879 136.373 113.948 136.491 112.328C136.61 110.709 136.046 104.213 135.749 101.168C135.37 100.823 134.59 100.112 134.509 100.033L135.353 112.18C133.136 113.089 130.206 112.888 129.018 112.674L127.534 99.5388L126.593 99.6375L127.781 113.118C124.693 114.422 121.479 114.221 120.259 113.958L118.576 100.576L117.537 100.675L119.071 113.661C117.091 114.965 114.188 114.764 112.984 114.501L110.856 101.415L109.816 101.465L111.548 112.279C110.242 113.582 107.87 113.382 106.847 113.118C105.973 109.546 104.155 102.116 103.878 100.971C103.6 99.8252 103.993 97.6624 104.224 96.7241C105.313 95.8353 106.352 95.7365 106.748 95.3909C107.065 95.1143 108.002 95.3744 108.431 95.539L109.025 95.4896C109.618 95.7365 111.252 92.7737 111.301 92.5762C111.351 92.3787 114.864 91.7368 114.963 91.8849C115.042 92.0034 115.887 92.3293 116.3 92.4775C116.498 92.5268 116.963 92.596 117.24 92.4775C117.586 92.3293 118.774 90.6504 118.873 90.3047C118.972 89.9591 122.882 89.6628 123.228 89.7122C123.575 89.7616 125.307 91.9837 126 92.0824C126.554 92.1614 127.583 91.3911 128.029 90.996C128.623 90.7491 131.246 90.7985 131.988 90.7985Z" fill="#923A5F"/>
<path d="M158.049 39.0047C156.899 28.5333 152.113 23.623 149.863 22.4768C148.204 21.8483 144.575 21.3454 143.336 24.3626C141.788 28.134 146.102 29.576 148.204 30.7962C149.885 31.7724 148.905 33.7912 148.204 34.6786C146.741 36.5312 150.678 38.343 152.3 38.9716C153.96 39.6371 152.297 42.1982 152.19 42.5212C151.747 43.8523 151.434 45.3496 153.293 45.882C155.151 46.4145 155.394 51.3544 155.284 53.7577H157.717C157.744 52.978 157.914 52.2194 158.16 51.517M158.049 39.0047C159.819 34.1979 164.82 24.7397 170.66 25.3609C177.962 26.1374 175.307 32.9038 170.66 33.2366C166.943 33.5028 167.559 35.8388 168.227 37.4517C168.672 38.5279 167.762 40.0252 163.249 41.4451C162.478 41.6876 162.278 42.144 162.809 44.6287C162.809 45.2943 162.478 46.6254 160.262 47.9896C159.696 48.5824 158.726 49.9009 158.16 51.517M158.049 39.0047C158.384 40.9682 158.455 48.1597 158.16 51.517" stroke="#7ED957" stroke-width="5"/>
<path d="M167.328 53.7578C167.942 53.7578 169.084 56.7182 169.579 58.1985L169.934 63.3027C170.018 63.3844 170.824 64.1194 171.216 64.4767L174.797 67.3351L172.955 80.555C172.648 81.0825 171.748 82.2088 170.602 82.4946C169.456 82.7805 162.008 82.6137 158.427 82.4946C158.12 81.9672 157.844 80.5142 159.194 78.9217C163.406 78.6494 171.861 77.6864 171.983 76.0123C172.106 74.3381 171.523 67.6243 171.216 64.4767C170.824 64.1194 170.018 63.3844 169.934 63.3027L170.807 75.8591C168.515 76.7983 165.486 76.5907 164.259 76.3696L162.724 62.7923L161.752 62.8944L162.98 76.8289C159.788 78.1765 156.466 77.9689 155.204 77.6967L153.465 63.8642L152.39 63.9663L153.976 77.3904C151.93 78.7379 148.929 78.5303 147.684 78.2581L145.484 64.7319L144.41 64.7829L146.201 75.9612C144.85 77.3087 142.398 77.1012 141.341 76.8289C140.437 73.1369 138.558 65.4567 138.271 64.2725C137.985 63.0883 138.391 60.8527 138.629 59.8829C139.755 58.9641 140.829 58.862 141.238 58.5047C141.566 58.2189 142.534 58.4877 142.978 58.6579L143.592 58.6068C144.206 58.862 145.894 55.7995 145.945 55.5953C145.996 55.3911 149.628 54.7276 149.73 54.8807C149.812 55.0032 150.685 55.3401 151.112 55.4932C151.316 55.5443 151.797 55.6157 152.084 55.4932C152.442 55.3401 153.669 53.6047 153.772 53.2474C153.874 52.8901 157.915 52.5838 158.273 52.6349C158.632 52.6859 160.422 54.9828 161.138 55.0849C161.711 55.1666 162.775 54.3703 163.236 53.9619C163.849 53.7067 166.561 53.7578 167.328 53.7578Z" fill="#923A5F"/>
<path d="M35 67.6752V211.955" stroke="#923A5F" stroke-width="15" stroke-linecap="round"/>
<path d="M39.5977 207.626L184.146 69.5258" stroke="#7ED957" stroke-opacity="0.7" stroke-width="10"/>
</svg>
