<svg width="250" height="250" viewBox="0 0 250 250" fill="none" xmlns="http://www.w3.org/2000/svg" xmlns:xlink="http://www.w3.org/1999/xlink">
<g clip-path="url(#clip0_86_151)">
<path d="M152.332 72.3477C157.615 50.4087 168.996 41.2697 174.026 39.4426C177.677 38.5558 185.422 38.4687 187.193 45.2149C189.406 53.6477 179.965 55.5448 175.224 57.5689C171.431 59.1883 172.934 63.7433 174.16 65.8185C176.719 70.1506 167.969 72.9356 164.395 73.8324C160.734 74.7978 163.517 80.6894 163.654 81.4047C164.217 84.3528 164.462 87.6191 160.42 88.2478C156.378 88.8765 154.513 99.3072 154.086 104.444L148.984 103.786C149.141 102.122 148.994 100.464 148.67 98.9047M152.332 72.3477C149.939 61.6553 142.049 40.2054 129.633 39.9454C114.113 39.6204 117.825 54.7163 127.474 56.6801C135.194 58.2512 133.264 63.0484 131.421 66.2951C130.192 68.4611 131.69 71.889 140.763 76.1268C142.313 76.8508 142.606 77.8744 140.811 83.0105C140.629 84.4247 140.96 87.3429 145.231 90.841C146.254 92.2535 147.927 95.3177 148.67 98.9047M152.332 72.3477C151.092 76.4293 148.972 91.691 148.67 98.9047" stroke="url(#pattern0_86_151)" stroke-width="6"/>
<path d="M211.948 174.394C183.311 155.466 168.554 126.378 167.501 119.36L156.687 108.418L144.476 105.103C102.7 163.81 98.4526 139.506 68.552 150.935C65.6041 154.343 62.0244 160.158 60.761 163.467C59.4976 166.777 55.2863 168.98 53.6017 172.79C52.2541 175.837 54.1632 177.401 55.2863 177.802H63.0772C68.2993 168.659 75.22 164.436 78.0275 163.467C62.1432 173.738 52.4818 196.525 43.7051 207.878C42.8628 217.181 52.4787 215.765 57.3919 213.893L77.1853 189.231C81.6798 184.017 83.4454 182.815 85.7633 182.414C73.7002 195.96 61.7488 214.349 58.0236 217.502C53.4754 221.352 51.2153 231.137 50.6538 235.548C49.8115 239.758 57.1814 240.159 60.1293 240.56C62.4877 240.881 66.306 237.352 67.9203 235.548C72.4686 222.555 100.699 196.85 114.245 185.622L120.983 181.612V188.83C120.983 190.274 106.524 225.522 99.2948 242.966C99.6317 251.949 109.402 250.452 114.245 248.58L140.777 195.447L147.936 183.216C163.097 166.855 186.54 178.003 196.366 185.622L200.367 195.447C205.084 200.74 213.282 201.796 216.791 201.662C217.634 200.994 219.192 199.016 218.686 196.449C218.181 193.883 215.388 190.3 214.054 188.83C214.728 187.226 212.931 178.537 211.948 174.394Z" fill="url(#pattern1_86_151)"/>
</g>
<defs>
<clipPath id="clip0_86_151">
<rect width="250" height="250" fill="white"/>
</clipPath>
<pattern id="pattern0_86_151" patternUnits="userSpaceOnUse" patternTransform="matrix(-26.7572 -3.45216 -12.2839 95.2108 191.606 39.9574)" preserveAspectRatio="none" viewBox="0.259766 2.6001 26.979 96" width="1" height="1">
<g id="pattern0_86_151_inner">
<path d="M4.73 8.85V10H0.38V8.95L3.22 4.35H0.48V3.2H4.63V4.25L1.79 8.85H4.73ZM9.60789 10H5.48789V9.05C5.48789 8.57 5.55122 8.17 5.67789 7.85C5.80456 7.52333 5.97456 7.25667 6.18789 7.05C6.40122 6.83667 6.63456 6.66667 6.88789 6.54L7.56789 6.2C7.82789 6.06667 8.03789 5.92667 8.19789 5.78C8.36456 5.62667 8.44789 5.43 8.44789 5.19V5.01C8.44789 4.76333 8.36122 4.57 8.18789 4.43C8.02122 4.28333 7.75122 4.21 7.37789 4.21C7.15122 4.21 6.92122 4.24333 6.68789 4.31C6.46122 4.37667 6.18456 4.47 5.85789 4.59L5.48789 3.56C5.86122 3.39333 6.20122 3.27667 6.50789 3.21C6.82122 3.13667 7.12456 3.1 7.41789 3.1C7.95789 3.1 8.38789 3.18667 8.70789 3.36C9.03456 3.53333 9.26789 3.76667 9.40789 4.06C9.55456 4.34667 9.62789 4.66333 9.62789 5.01V5.19C9.62789 5.55 9.55456 5.85667 9.40789 6.11C9.26789 6.36333 9.08122 6.57667 8.84789 6.75C8.61456 6.92333 8.36122 7.07667 8.08789 7.21L7.40789 7.55C7.16122 7.67 6.97789 7.83667 6.85789 8.05C6.74456 8.26333 6.68122 8.53667 6.66789 8.87H9.60789V10ZM13.8967 10V9.31C13.5901 9.61667 13.3234 9.82667 13.0967 9.94C12.8767 10.0467 12.6467 10.1 12.4067 10.1C11.8601 10.1 11.4334 9.89333 11.1267 9.48C10.8267 9.06667 10.6767 8.48667 10.6767 7.74V7.2C10.6767 6.47333 10.8601 5.89667 11.2267 5.47C11.5934 5.04333 12.1234 4.83 12.8167 4.83C12.9901 4.83 13.1601 4.84667 13.3267 4.88C13.5001 4.91333 13.6701 4.96 13.8367 5.02V2.6H14.9867V10H13.8967ZM11.8567 7.74C11.8567 8.18667 11.9301 8.51333 12.0767 8.72C12.2301 8.92667 12.4434 9.03 12.7167 9.03C12.8701 9.03 13.0334 8.98667 13.2067 8.9C13.3801 8.80667 13.5901 8.63333 13.8367 8.38V6.06C13.5101 5.92667 13.2101 5.86 12.9367 5.86C12.5501 5.86 12.2734 5.98 12.1067 6.22C11.9401 6.46 11.8567 6.78667 11.8567 7.2V7.74ZM19.7513 9V10H16.1313V9.1L18.2713 5.93H16.2313V4.93H19.6513V5.83L17.5113 9H19.7513ZM22.2377 10H21.0377V3.2H22.2377V10ZM5.44 21.56C5.27333 21.66 4.99667 21.7767 4.61 21.91C4.23 22.0367 3.78333 22.1 3.27 22.1C2.69 22.1 2.20333 21.98 1.81 21.74C1.42333 21.5 1.13 21.17 0.93 20.75C0.73 20.33 0.63 19.85 0.63 19.31V17.88C0.63 17.3267 0.73 16.8433 0.93 16.43C1.13 16.01 1.42667 15.6833 1.82 15.45C2.22 15.2167 2.72 15.1 3.32 15.1C3.61333 15.1 3.91667 15.1333 4.23 15.2C4.54333 15.26 4.88667 15.3733 5.26 15.54L4.89 16.59C4.56333 16.4633 4.28 16.3733 4.04 16.32C3.80667 16.26 3.57333 16.23 3.34 16.23C2.82 16.23 2.44333 16.38 2.21 16.68C1.97667 16.9733 1.86 17.3733 1.86 17.88V19.31C1.86 19.79 1.97667 20.1833 2.21 20.49C2.45 20.7967 2.82333 20.95 3.33 20.95C3.48333 20.95 3.65 20.9367 3.83 20.91C4.01 20.8833 4.18333 20.8467 4.35 20.8V19.31H3.25V18.26H5.44V21.56ZM6.12539 16.17L7.85539 15.2H8.85539V22H7.67539V16.52L6.65539 17.08L6.12539 16.17ZM13.0649 17.9C12.8983 17.9 12.7083 17.94 12.4949 18.02C12.2816 18.1 12.0283 18.2567 11.7349 18.49V22H10.5849V14.6H11.7349V17.56C12.0416 17.3 12.3283 17.1133 12.5949 17C12.8616 16.8867 13.1349 16.83 13.4149 16.83C13.9016 16.83 14.2716 16.9867 14.5249 17.3C14.7783 17.6067 14.9049 18.04 14.9049 18.6V22H13.7549V18.74C13.7549 18.18 13.5249 17.9 13.0649 17.9ZM20.6948 19.73C20.6948 20.4567 20.5148 21.0333 20.1548 21.46C19.7948 21.8867 19.2681 22.1 18.5748 22.1C17.8548 22.1 17.1248 21.9 16.3848 21.5V14.6H17.5348V17.6C17.8414 17.2933 18.1048 17.09 18.3248 16.99C18.5448 16.8833 18.7714 16.83 19.0048 16.83C19.5381 16.83 19.9514 17.0367 20.2448 17.45C20.5448 17.8633 20.6948 18.4433 20.6948 19.19V19.73ZM18.6948 17.9C18.5348 17.9 18.3648 17.9467 18.1848 18.04C18.0114 18.1333 17.7948 18.3167 17.5348 18.59V20.86C17.7148 20.9333 17.8781 20.9867 18.0248 21.02C18.1781 21.0533 18.3281 21.07 18.4748 21.07C18.8481 21.07 19.1148 20.95 19.2748 20.71C19.4348 20.47 19.5148 20.1433 19.5148 19.73V19.19C19.5148 18.7433 19.4414 18.4167 19.2948 18.21C19.1548 18.0033 18.9548 17.9 18.6948 17.9ZM23.2005 15.97H21.9905V14.78H23.2005V15.97ZM23.1705 22H22.0205V16.93H23.1705V22ZM7.1 28.93L5.8 34H4.55L3.71 30.19L2.82 34H1.57L0.27 28.93H1.45L1.94 30.94L2.28 32.77L3.14 28.93H4.3L5.19 32.81L5.51 30.95L5.99 28.93H7.1ZM12.373 34.51C12.373 35.05 12.1597 35.47 11.733 35.77C11.313 36.0767 10.7264 36.23 9.97305 36.23C9.61971 36.23 9.24638 36.19 8.85305 36.11C8.45971 36.03 8.09638 35.8967 7.76305 35.71L8.09305 34.8C8.41305 34.96 8.72971 35.0733 9.04305 35.14C9.35638 35.2133 9.66305 35.25 9.96305 35.25C10.383 35.25 10.703 35.1933 10.923 35.08C11.143 34.9667 11.253 34.8167 11.253 34.63C11.253 34.3433 11.083 34.2 10.743 34.2H9.54305C9.21638 34.2 8.95305 34.1467 8.75305 34.04C8.55305 33.9333 8.40638 33.7967 8.31305 33.63C8.21971 33.4567 8.17305 33.2767 8.17305 33.09C8.17305 32.8967 8.21305 32.7167 8.29305 32.55C8.37971 32.3767 8.49638 32.2167 8.64305 32.07C8.40305 31.9233 8.20971 31.7267 8.06305 31.48C7.92305 31.2333 7.85305 30.9367 7.85305 30.59C7.85305 30.1967 7.93638 29.87 8.10305 29.61C8.26971 29.35 8.49638 29.1567 8.78305 29.03C9.07638 28.8967 9.39971 28.83 9.75305 28.83H9.92305C10.0564 28.83 10.1864 28.84 10.313 28.86C10.4397 28.8733 10.5597 28.8967 10.673 28.93H12.483V29.91L11.483 29.75C11.583 29.8567 11.6597 29.99 11.713 30.15C11.773 30.3033 11.803 30.4933 11.803 30.72C11.803 31.06 11.7164 31.3533 11.543 31.6C11.3764 31.84 11.1497 32.0267 10.863 32.16C10.583 32.2867 10.2697 32.35 9.92305 32.35H9.75305C9.61971 32.35 9.49305 32.34 9.37305 32.32C9.29971 32.4 9.24638 32.4833 9.21305 32.57C9.17971 32.65 9.16305 32.7267 9.16305 32.8C9.16305 33.0333 9.31305 33.15 9.61305 33.15H10.833C11.293 33.15 11.663 33.27 11.943 33.51C12.2297 33.7433 12.373 34.0767 12.373 34.51ZM9.92305 31.41C10.1297 31.41 10.3097 31.34 10.463 31.2C10.623 31.06 10.703 30.8567 10.703 30.59C10.703 30.3233 10.623 30.12 10.463 29.98C10.3097 29.84 10.1297 29.77 9.92305 29.77H9.75305C9.53971 29.77 9.35305 29.84 9.19305 29.98C9.03971 30.12 8.96305 30.3233 8.96305 30.59C8.96305 30.8567 9.03971 31.06 9.19305 31.2C9.35305 31.34 9.53971 31.41 9.75305 31.41H9.92305ZM16.4455 34V33.31C16.1389 33.6167 15.8722 33.8267 15.6455 33.94C15.4255 34.0467 15.1955 34.1 14.9555 34.1C14.4089 34.1 13.9822 33.8933 13.6755 33.48C13.3755 33.0667 13.2255 32.4867 13.2255 31.74V31.2C13.2255 30.4733 13.4089 29.8967 13.7755 29.47C14.1422 29.0433 14.6722 28.83 15.3655 28.83C15.5389 28.83 15.7089 28.8467 15.8755 28.88C16.0489 28.9133 16.2189 28.96 16.3855 29.02V26.6H17.5355V34H16.4455ZM14.4055 31.74C14.4055 32.1867 14.4789 32.5133 14.6255 32.72C14.7789 32.9267 14.9922 33.03 15.2655 33.03C15.4189 33.03 15.5822 32.9867 15.7555 32.9C15.9289 32.8067 16.1389 32.6333 16.3855 32.38V30.06C16.0589 29.9267 15.7589 29.86 15.4855 29.86C15.0989 29.86 14.8222 29.98 14.6555 30.22C14.4889 30.46 14.4055 30.7867 14.4055 31.2V31.74ZM22.8501 34H18.7301V33.05C18.7301 32.57 18.7934 32.17 18.9201 31.85C19.0467 31.5233 19.2167 31.2567 19.4301 31.05C19.6434 30.8367 19.8767 30.6667 20.1301 30.54L20.8101 30.2C21.0701 30.0667 21.2801 29.9267 21.4401 29.78C21.6067 29.6267 21.6901 29.43 21.6901 29.19V29.01C21.6901 28.7633 21.6034 28.57 21.4301 28.43C21.2634 28.2833 20.9934 28.21 20.6201 28.21C20.3934 28.21 20.1634 28.2433 19.9301 28.31C19.7034 28.3767 19.4267 28.47 19.1001 28.59L18.7301 27.56C19.1034 27.3933 19.4434 27.2767 19.7501 27.21C20.0634 27.1367 20.3667 27.1 20.6601 27.1C21.2001 27.1 21.6301 27.1867 21.9501 27.36C22.2767 27.5333 22.5101 27.7667 22.6501 28.06C22.7967 28.3467 22.8701 28.6633 22.8701 29.01V29.19C22.8701 29.55 22.7967 29.8567 22.6501 30.11C22.5101 30.3633 22.3234 30.5767 22.0901 30.75C21.8567 30.9233 21.6034 31.0767 21.3301 31.21L20.6501 31.55C20.4034 31.67 20.2201 31.8367 20.1001 32.05C19.9867 32.2633 19.9234 32.5367 19.9101 32.87H22.8501V34ZM4.42 43.39H2.14V46H0.94V39.2H4.72V40.35H2.14V42.24H4.42V43.39ZM8.87234 45V46H5.25234V45.1L7.39234 41.93H5.35234V40.93H8.77234V41.83L6.63234 45H8.87234ZM12.9788 46V45.31C12.6721 45.6167 12.4054 45.8267 12.1788 45.94C11.9588 46.0467 11.7288 46.1 11.4888 46.1C10.9421 46.1 10.5154 45.8933 10.2088 45.48C9.90875 45.0667 9.75875 44.4867 9.75875 43.74V43.2C9.75875 42.4733 9.94208 41.8967 10.3088 41.47C10.6754 41.0433 11.2054 40.83 11.8988 40.83C12.0721 40.83 12.2421 40.8467 12.4088 40.88C12.5821 40.9133 12.7521 40.96 12.9188 41.02V38.6H14.0688V46H12.9788ZM10.9388 43.74C10.9388 44.1867 11.0121 44.5133 11.1588 44.72C11.3121 44.9267 11.5254 45.03 11.7988 45.03C11.9521 45.03 12.1154 44.9867 12.2888 44.9C12.4621 44.8067 12.6721 44.6333 12.9188 44.38V42.06C12.5921 41.9267 12.2921 41.86 12.0188 41.86C11.6321 41.86 11.3554 41.98 11.1888 42.22C11.0221 42.46 10.9388 42.7867 10.9388 43.2V43.74ZM20.3033 45.56C20.1366 45.66 19.8599 45.7767 19.4733 45.91C19.0933 46.0367 18.6466 46.1 18.1333 46.1C17.5533 46.1 17.0666 45.98 16.6733 45.74C16.2866 45.5 15.9933 45.17 15.7933 44.75C15.5933 44.33 15.4933 43.85 15.4933 43.31V41.88C15.4933 41.3267 15.5933 40.8433 15.7933 40.43C15.9933 40.01 16.2899 39.6833 16.6833 39.45C17.0833 39.2167 17.5833 39.1 18.1833 39.1C18.4766 39.1 18.7799 39.1333 19.0933 39.2C19.4066 39.26 19.7499 39.3733 20.1233 39.54L19.7533 40.59C19.4266 40.4633 19.1433 40.3733 18.9033 40.32C18.6699 40.26 18.4366 40.23 18.2033 40.23C17.6833 40.23 17.3066 40.38 17.0733 40.68C16.8399 40.9733 16.7233 41.3733 16.7233 41.88V43.31C16.7233 43.79 16.8399 44.1833 17.0733 44.49C17.3133 44.7967 17.6866 44.95 18.1933 44.95C18.3466 44.95 18.5133 44.9367 18.6933 44.91C18.8733 44.8833 19.0466 44.8467 19.2133 44.8V43.31H18.1133V42.26H20.3033V45.56ZM26.5887 39.2L24.4287 46H23.1987L21.0287 39.2H22.3487L23.3787 42.62L23.8487 44.38L24.3487 42.61L25.3687 39.2H26.5887ZM3.82 58L2.57 55.89C2.37 56.09 2.16 56.29 1.94 56.49V58H0.79V50.6H1.94V55.22C2.32 54.8333 2.64667 54.4633 2.92 54.11C3.2 53.75 3.45667 53.3567 3.69 52.93H5.01C4.79 53.33 4.55 53.71 4.29 54.07C4.03 54.43 3.74333 54.7933 3.43 55.16L5.21 58H3.82ZM7.46227 58H6.26227V51.2H7.46227V58ZM13.0784 58V55.13H10.5384V58H9.33844V51.2H10.5384V53.98H13.0784V51.2H14.2784V58H13.0784ZM15.9748 56.57V50.6H17.1248V56.57C17.1248 56.67 17.1482 56.7667 17.1948 56.86C17.2482 56.9467 17.3482 56.99 17.4948 56.99H17.6548V58.05H17.3748C16.9948 58.05 16.7048 57.9767 16.5048 57.83C16.3048 57.6833 16.1648 57.4967 16.0848 57.27C16.0115 57.0433 15.9748 56.81 15.9748 56.57ZM22.7985 52.93L20.9985 58H19.9485L18.1485 52.93H19.3085L20.1785 55.46L20.5085 56.51L20.8285 55.46L21.6585 52.93H22.7985ZM25.1088 58H23.9088V51.2H25.1088V58ZM4.68 70V67.13H2.14V70H0.94V63.2H2.14V65.98H4.68V63.2H5.88V70H4.68ZM8.95641 67.5V70H7.75641V63.2H10.0264C10.7131 63.2 11.2397 63.3767 11.6064 63.73C11.9797 64.0767 12.1664 64.5433 12.1664 65.13V65.56C12.1664 65.9467 12.0831 66.2867 11.9164 66.58C11.7497 66.8733 11.5097 67.0967 11.1964 67.25C11.7431 68.1833 12.2097 69.1 12.5964 70H11.2264C10.8931 69.1667 10.4964 68.3333 10.0364 67.5H8.95641ZM10.0264 64.3H8.95641V66.4H10.0264C10.3197 66.4 10.5431 66.3267 10.6964 66.18C10.8564 66.0267 10.9364 65.82 10.9364 65.56V65.13C10.9364 64.8767 10.8564 64.6767 10.6964 64.53C10.5431 64.3767 10.3197 64.3 10.0264 64.3ZM15.8702 70.1C15.7035 70.1 15.5335 70.0833 15.3602 70.05C15.1935 70.0167 15.0235 69.97 14.8502 69.91V72.13H13.7002V64.93H14.7902V65.62C15.1035 65.3067 15.3702 65.0967 15.5902 64.99C15.8102 64.8833 16.0402 64.83 16.2802 64.83C16.8335 64.83 17.2602 65.0367 17.5602 65.45C17.8602 65.8633 18.0102 66.4433 18.0102 67.19V67.73C18.0102 68.4567 17.8268 69.0333 17.4602 69.46C17.0935 69.8867 16.5635 70.1 15.8702 70.1ZM15.9702 65.9C15.8168 65.9 15.6535 65.9467 15.4802 66.04C15.3135 66.1267 15.1035 66.2967 14.8502 66.55V68.87C15.1768 69.0033 15.4768 69.07 15.7502 69.07C16.1368 69.07 16.4135 68.95 16.5802 68.71C16.7468 68.47 16.8302 68.1433 16.8302 67.73V67.19C16.8302 66.7433 16.7535 66.4167 16.6002 66.21C16.4535 66.0033 16.2435 65.9 15.9702 65.9ZM23.6147 67.73C23.6147 68.4567 23.4347 69.0333 23.0747 69.46C22.7147 69.8867 22.188 70.1 21.4947 70.1C20.7747 70.1 20.0447 69.9 19.3047 69.5V62.6H20.4547V65.6C20.7614 65.2933 21.0247 65.09 21.2447 64.99C21.4647 64.8833 21.6914 64.83 21.9247 64.83C22.458 64.83 22.8714 65.0367 23.1647 65.45C23.4647 65.8633 23.6147 66.4433 23.6147 67.19V67.73ZM21.6147 65.9C21.4547 65.9 21.2847 65.9467 21.1047 66.04C20.9314 66.1333 20.7147 66.3167 20.4547 66.59V68.86C20.6347 68.9333 20.798 68.9867 20.9447 69.02C21.098 69.0533 21.248 69.07 21.3947 69.07C21.768 69.07 22.0347 68.95 22.1947 68.71C22.3547 68.47 22.4347 68.1433 22.4347 67.73V67.19C22.4347 66.7433 22.3614 66.4167 22.2147 66.21C22.0747 66.0033 21.8747 65.9 21.6147 65.9ZM2.08 77.89L2.46 80.41L3.82 75.2H4.9L6.25 80.37L6.67 77.89L7.19 75.2H8.41L6.88 82H5.65L4.34 76.94L3.02 82H1.79L0.26 75.2H1.56L2.08 77.89ZM9.45188 75.2H10.6819V79.56C10.6819 80 10.7785 80.3467 10.9719 80.6C11.1652 80.8467 11.4752 80.97 11.9019 80.97C12.3285 80.97 12.6385 80.8467 12.8319 80.6C13.0252 80.3467 13.1219 80 13.1219 79.56V75.2H14.3519V79.56C14.3519 80.3267 14.1485 80.9433 13.7419 81.41C13.3352 81.87 12.7219 82.1 11.9019 82.1C11.0752 82.1 10.4585 81.87 10.0519 81.41C9.65188 80.9433 9.45188 80.3267 9.45188 79.56V75.2ZM20.1367 82.51C20.1367 83.05 19.9234 83.47 19.4967 83.77C19.0767 84.0767 18.4901 84.23 17.7367 84.23C17.3834 84.23 17.0101 84.19 16.6167 84.11C16.2234 84.03 15.8601 83.8967 15.5267 83.71L15.8567 82.8C16.1767 82.96 16.4934 83.0733 16.8067 83.14C17.1201 83.2133 17.4267 83.25 17.7267 83.25C18.1467 83.25 18.4667 83.1933 18.6867 83.08C18.9067 82.9667 19.0167 82.8167 19.0167 82.63C19.0167 82.3433 18.8467 82.2 18.5067 82.2H17.3067C16.9801 82.2 16.7167 82.1467 16.5167 82.04C16.3167 81.9333 16.1701 81.7967 16.0767 81.63C15.9834 81.4567 15.9367 81.2767 15.9367 81.09C15.9367 80.8967 15.9767 80.7167 16.0567 80.55C16.1434 80.3767 16.2601 80.2167 16.4067 80.07C16.1667 79.9233 15.9734 79.7267 15.8267 79.48C15.6867 79.2333 15.6167 78.9367 15.6167 78.59C15.6167 78.1967 15.7001 77.87 15.8667 77.61C16.0334 77.35 16.2601 77.1567 16.5467 77.03C16.8401 76.8967 17.1634 76.83 17.5167 76.83H17.6867C17.8201 76.83 17.9501 76.84 18.0767 76.86C18.2034 76.8733 18.3234 76.8967 18.4367 76.93H20.2467V77.91L19.2467 77.75C19.3467 77.8567 19.4234 77.99 19.4767 78.15C19.5367 78.3033 19.5667 78.4933 19.5667 78.72C19.5667 79.06 19.4801 79.3533 19.3067 79.6C19.1401 79.84 18.9134 80.0267 18.6267 80.16C18.3467 80.2867 18.0334 80.35 17.6867 80.35H17.5167C17.3834 80.35 17.2567 80.34 17.1367 80.32C17.0634 80.4 17.0101 80.4833 16.9767 80.57C16.9434 80.65 16.9267 80.7267 16.9267 80.8C16.9267 81.0333 17.0767 81.15 17.3767 81.15H18.5967C19.0567 81.15 19.4267 81.27 19.7067 81.51C19.9934 81.7433 20.1367 82.0767 20.1367 82.51ZM17.6867 79.41C17.8934 79.41 18.0734 79.34 18.2267 79.2C18.3867 79.06 18.4667 78.8567 18.4667 78.59C18.4667 78.3233 18.3867 78.12 18.2267 77.98C18.0734 77.84 17.8934 77.77 17.6867 77.77H17.5167C17.3034 77.77 17.1167 77.84 16.9567 77.98C16.8034 78.12 16.7267 78.3233 16.7267 78.59C16.7267 78.8567 16.8034 79.06 16.9567 79.2C17.1167 79.34 17.3034 79.41 17.5167 79.41H17.6867ZM24.2092 82V81.31C23.9026 81.6167 23.6359 81.8267 23.4092 81.94C23.1892 82.0467 22.9592 82.1 22.7192 82.1C22.1726 82.1 21.7459 81.8933 21.4392 81.48C21.1392 81.0667 20.9892 80.4867 20.9892 79.74V79.2C20.9892 78.4733 21.1726 77.8967 21.5392 77.47C21.9059 77.0433 22.4359 76.83 23.1292 76.83C23.3026 76.83 23.4726 76.8467 23.6392 76.88C23.8126 76.9133 23.9826 76.96 24.1492 77.02V74.6H25.2992V82H24.2092ZM22.1692 79.74C22.1692 80.1867 22.2426 80.5133 22.3892 80.72C22.5426 80.9267 22.7559 81.03 23.0292 81.03C23.1826 81.03 23.3459 80.9867 23.5192 80.9C23.6926 80.8067 23.9026 80.6333 24.1492 80.38V78.06C23.8226 77.9267 23.5226 77.86 23.2492 77.86C22.8626 77.86 22.5859 77.98 22.4192 78.22C22.2526 78.46 22.1692 78.7867 22.1692 79.2V79.74ZM5.44 93.56C5.27333 93.66 4.99667 93.7767 4.61 93.91C4.23 94.0367 3.78333 94.1 3.27 94.1C2.69 94.1 2.20333 93.98 1.81 93.74C1.42333 93.5 1.13 93.17 0.93 92.75C0.73 92.33 0.63 91.85 0.63 91.31V89.88C0.63 89.3267 0.73 88.8433 0.93 88.43C1.13 88.01 1.42667 87.6833 1.82 87.45C2.22 87.2167 2.72 87.1 3.32 87.1C3.61333 87.1 3.91667 87.1333 4.23 87.2C4.54333 87.26 4.88667 87.3733 5.26 87.54L4.89 88.59C4.56333 88.4633 4.28 88.3733 4.04 88.32C3.80667 88.26 3.57333 88.23 3.34 88.23C2.82 88.23 2.44333 88.38 2.21 88.68C1.97667 88.9733 1.86 89.3733 1.86 89.88V91.31C1.86 91.79 1.97667 92.1833 2.21 92.49C2.45 92.7967 2.82333 92.95 3.33 92.95C3.48333 92.95 3.65 92.9367 3.83 92.91C4.01 92.8833 4.18333 92.8467 4.35 92.8V91.31H3.25V90.26H5.44V93.56ZM9.29539 89.9C9.12872 89.9 8.93872 89.94 8.72539 90.02C8.51206 90.1 8.25872 90.2567 7.96539 90.49V94H6.81539V86.6H7.96539V89.56C8.27206 89.3 8.55872 89.1133 8.82539 89C9.09206 88.8867 9.36539 88.83 9.64539 88.83C10.1321 88.83 10.5021 88.9867 10.7554 89.3C11.0087 89.6067 11.1354 90.04 11.1354 90.6V94H9.98539V90.74C9.98539 90.18 9.75539 89.9 9.29539 89.9ZM16.5388 88.93L14.7388 94H13.6888L11.8888 88.93H13.0488L13.9188 91.46L14.2488 92.51L14.5688 91.46L15.3988 88.93H16.5388Z" fill="#7ED957"/>
</g>
</pattern><pattern id="pattern1_86_151" patternUnits="userSpaceOnUse" patternTransform="matrix(-128.332 0 0 24.4614 216.183 107.703)" preserveAspectRatio="none" viewBox="3.00928 2.6001 128.332 24.4614" width="1" height="1">
<g id="pattern1_86_151_inner">
<path d="M123.692 9.71C124.038 9.85 124.365 9.95 124.672 10.01C124.978 10.07 125.268 10.1 125.542 10.1C126.295 10.1 126.865 9.88667 127.252 9.46C127.638 9.03333 127.832 8.46667 127.832 7.76V7.16C127.832 6.68667 127.745 6.27667 127.572 5.93C127.398 5.58333 127.152 5.31333 126.832 5.12C126.512 4.92667 126.135 4.83 125.702 4.83C125.348 4.83 125.018 4.90333 124.712 5.05C124.398 5.19 124.145 5.41333 123.952 5.72C123.752 6.02 123.652 6.40667 123.652 6.88C123.652 7.02 123.662 7.17 123.682 7.33C123.702 7.48333 123.735 7.64667 123.782 7.82H126.722C126.708 8.23333 126.605 8.54333 126.412 8.75C126.218 8.95667 125.908 9.06 125.482 9.06C125.255 9.06 125.022 9.03333 124.782 8.98C124.535 8.92667 124.282 8.84667 124.022 8.74L123.692 9.71ZM125.702 5.8C126.008 5.8 126.248 5.9 126.422 6.1C126.588 6.29333 126.685 6.57333 126.712 6.94H124.792C124.785 6.90667 124.782 6.87667 124.782 6.85C124.782 6.81667 124.782 6.78667 124.782 6.76C124.782 6.44 124.872 6.2 125.052 6.04C125.232 5.88 125.448 5.8 125.702 5.8ZM121.037 5.89L120.657 8.41L119.297 3.2H118.217L116.867 8.37L116.447 5.89L115.927 3.2H114.707L116.237 10H117.467L118.777 4.94L120.097 10H121.327L122.857 3.2H121.557L121.037 5.89ZM109.405 7.32C109.405 8.25333 109.625 8.95 110.065 9.41C110.505 9.87 111.125 10.1 111.925 10.1C112.205 10.1 112.495 10.0667 112.795 10C113.095 9.93333 113.431 9.81333 113.805 9.64L113.375 8.61C113.075 8.75 112.811 8.85 112.585 8.91C112.351 8.96333 112.141 8.99 111.955 8.99C111.535 8.99 111.198 8.86333 110.945 8.61C110.685 8.35667 110.555 7.92667 110.555 7.32V6.96C110.781 7.16667 111.021 7.32 111.275 7.42C111.521 7.52 111.771 7.57 112.025 7.57C112.418 7.57 112.765 7.48 113.065 7.3C113.358 7.12 113.585 6.87 113.745 6.55C113.905 6.23 113.985 5.86 113.985 5.44V5.24C113.985 4.86667 113.895 4.51667 113.715 4.19C113.535 3.86333 113.278 3.6 112.945 3.4C112.611 3.2 112.215 3.1 111.755 3.1C111.015 3.1 110.438 3.35 110.025 3.85C109.611 4.35 109.405 5.03667 109.405 5.91V7.32ZM112.815 5.44C112.815 5.74667 112.731 6 112.565 6.2C112.391 6.39333 112.151 6.49 111.845 6.49C111.371 6.49 110.941 6.31 110.555 5.95V5.91C110.555 5.33667 110.661 4.91 110.875 4.63C111.081 4.35 111.381 4.21 111.775 4.21C112.101 4.21 112.358 4.31667 112.545 4.53C112.725 4.74333 112.815 4.98 112.815 5.24V5.44ZM108.651 4.17L106.921 3.2H105.921V10H107.101V4.52L108.121 5.08L108.651 4.17ZM102.842 10H104.042V3.2H102.842V10ZM96.4658 9.56C96.6324 9.66 96.9091 9.77667 97.2958 9.91C97.6758 10.0367 98.1224 10.1 98.6358 10.1C99.2158 10.1 99.7024 9.98 100.096 9.74C100.482 9.5 100.776 9.17 100.976 8.75C101.176 8.33 101.276 7.85 101.276 7.31V5.88C101.276 5.32667 101.176 4.84333 100.976 4.43C100.776 4.01 100.479 3.68333 100.086 3.45C99.6858 3.21667 99.1858 3.1 98.5858 3.1C98.2924 3.1 97.9891 3.13333 97.6758 3.2C97.3624 3.26 97.0191 3.37333 96.6458 3.54L97.0158 4.59C97.3424 4.46333 97.6258 4.37333 97.8658 4.32C98.0991 4.26 98.3324 4.23 98.5658 4.23C99.0858 4.23 99.4624 4.38 99.6958 4.68C99.9291 4.97333 100.046 5.37333 100.046 5.88V7.31C100.046 7.79 99.9291 8.18333 99.6958 8.49C99.4558 8.79667 99.0824 8.95 98.5758 8.95C98.4224 8.95 98.2558 8.93667 98.0758 8.91C97.8958 8.88333 97.7224 8.84667 97.5558 8.8V7.31H98.6558V6.26H96.4658V9.56ZM95.7804 4.17L94.0504 3.2H93.0504V10H94.2304V4.52L95.2504 5.08L95.7804 4.17ZM88.8408 5.9C89.0075 5.9 89.1975 5.94 89.4108 6.02C89.6242 6.1 89.8775 6.25667 90.1708 6.49V10H91.3208V2.6H90.1708V5.56C89.8642 5.3 89.5775 5.11333 89.3108 5C89.0442 4.88667 88.7708 4.83 88.4908 4.83C88.0042 4.83 87.6342 4.98667 87.3808 5.3C87.1275 5.60667 87.0008 6.04 87.0008 6.6V10H88.1508V6.74C88.1508 6.18 88.3808 5.9 88.8408 5.9ZM81.211 7.73C81.211 8.45667 81.391 9.03333 81.751 9.46C82.111 9.88667 82.6377 10.1 83.331 10.1C84.051 10.1 84.781 9.9 85.521 9.5V2.6H84.371V5.6C84.0643 5.29333 83.801 5.09 83.581 4.99C83.361 4.88333 83.1343 4.83 82.901 4.83C82.3677 4.83 81.9543 5.03667 81.661 5.45C81.361 5.86333 81.211 6.44333 81.211 7.19V7.73ZM83.211 5.9C83.371 5.9 83.541 5.94667 83.721 6.04C83.8943 6.13333 84.111 6.31667 84.371 6.59V8.86C84.191 8.93333 84.0277 8.98667 83.881 9.02C83.7277 9.05333 83.5777 9.07 83.431 9.07C83.0577 9.07 82.791 8.95 82.631 8.71C82.471 8.47 82.391 8.14333 82.391 7.73V7.19C82.391 6.74333 82.4643 6.41667 82.611 6.21C82.751 6.00333 82.951 5.9 83.211 5.9ZM78.7353 6.49V10H79.8853V4.93H78.7953V5.6C78.482 5.32667 78.192 5.13 77.9253 5.01C77.6586 4.89 77.3853 4.83 77.1053 4.83C76.4853 4.83 76.062 5.10333 75.8353 5.65C75.502 5.35667 75.192 5.14667 74.9053 5.02C74.6186 4.89333 74.3286 4.83 74.0353 4.83C73.5686 4.83 73.212 4.98667 72.9653 5.3C72.7186 5.60667 72.5953 6.04 72.5953 6.6V10H73.7453V6.74C73.7453 6.18 73.9586 5.9 74.3853 5.9C74.552 5.9 74.7353 5.94 74.9353 6.02C75.1353 6.1 75.3786 6.25667 75.6653 6.49V10H76.8153V6.74C76.8153 6.18 77.0286 5.9 77.4553 5.9C77.622 5.9 77.8053 5.94 78.0053 6.02C78.2053 6.1 78.4486 6.25667 78.7353 6.49ZM67.4467 7.39H69.7267V10H70.9267V3.2H67.1467V4.35H69.7267V6.24H67.4467V7.39ZM63.7432 5.9C63.9099 5.9 64.0999 5.94 64.3132 6.02C64.5265 6.1 64.7799 6.25667 65.0732 6.49V10H66.2232V4.93H65.1332V5.61C64.8199 5.33667 64.5232 5.14 64.2432 5.02C63.9632 4.89333 63.6799 4.83 63.3932 4.83C62.9065 4.83 62.5365 4.98667 62.2832 5.3C62.0298 5.60667 61.9032 6.04 61.9032 6.6V10H63.0532V6.74C63.0532 6.18 63.2832 5.9 63.7432 5.9ZM56.4433 8.85V10H60.7933V8.95L57.9533 4.35H60.6933V3.2H56.5433V4.25L59.3833 8.85H56.4433ZM54.0054 5.89L53.6254 8.41L52.2654 3.2H51.1854L49.8354 8.37L49.4154 5.89L48.8954 3.2H47.6754L49.2054 10H50.4354L51.7454 4.94L53.0654 10H54.2954L55.8254 3.2H54.5254L54.0054 5.89ZM41.8136 10.73V11.98C42.3336 11.98 42.7502 11.92 43.0636 11.8C43.3769 11.68 43.6236 11.5067 43.8036 11.28C43.9769 11.0533 44.1169 10.7767 44.2236 10.45L44.3436 10.1C45.1369 10.0733 45.7402 9.81333 46.1536 9.32C46.5602 8.82667 46.7636 8.15667 46.7636 7.31V5.88C46.7636 5.01333 46.5502 4.33333 46.1236 3.84C45.6902 3.34667 45.0536 3.1 44.2136 3.1C43.3802 3.1 42.7469 3.34667 42.3136 3.84C41.8802 4.33333 41.6636 5.01333 41.6636 5.88V7.31C41.6636 7.98333 41.7969 8.55 42.0636 9.01C42.3236 9.46333 42.7102 9.77667 43.2236 9.95C43.1636 10.1633 43.0802 10.3267 42.9736 10.44C42.8669 10.5533 42.7236 10.63 42.5436 10.67C42.3569 10.71 42.1136 10.73 41.8136 10.73ZM42.8936 5.88C42.8936 5.33333 43.0002 4.92333 43.2136 4.65C43.4269 4.37 43.7602 4.23 44.2136 4.23C44.6669 4.23 45.0002 4.37 45.2136 4.65C45.4269 4.92333 45.5336 5.33333 45.5336 5.88V7.31C45.5336 7.85667 45.4269 8.27 45.2136 8.55C45.0002 8.83 44.6669 8.97 44.2136 8.97C43.7602 8.97 43.4269 8.83 43.2136 8.55C43.0002 8.27 42.8936 7.85667 42.8936 7.31V5.88ZM36.0171 10.51C36.0171 11.05 36.2304 11.47 36.6571 11.77C37.0771 12.0767 37.6638 12.23 38.4171 12.23C38.7704 12.23 39.1438 12.19 39.5371 12.11C39.9304 12.03 40.2938 11.8967 40.6271 11.71L40.2971 10.8C39.9771 10.96 39.6604 11.0733 39.3471 11.14C39.0338 11.2133 38.7271 11.25 38.4271 11.25C38.0071 11.25 37.6871 11.1933 37.4671 11.08C37.2471 10.9667 37.1371 10.8167 37.1371 10.63C37.1371 10.3433 37.3071 10.2 37.6471 10.2H38.8471C39.1738 10.2 39.4371 10.1467 39.6371 10.04C39.8371 9.93333 39.9838 9.79667 40.0771 9.63C40.1704 9.45667 40.2171 9.27667 40.2171 9.09C40.2171 8.89667 40.1771 8.71667 40.0971 8.55C40.0104 8.37667 39.8938 8.21667 39.7471 8.07C39.9871 7.92333 40.1804 7.72667 40.3271 7.48C40.4671 7.23333 40.5371 6.93667 40.5371 6.59C40.5371 6.19667 40.4538 5.87 40.2871 5.61C40.1204 5.35 39.8938 5.15667 39.6071 5.03C39.3138 4.89667 38.9904 4.83 38.6371 4.83H38.4671C38.3338 4.83 38.2038 4.84 38.0771 4.86C37.9504 4.87333 37.8304 4.89667 37.7171 4.93H35.9071V5.91L36.9071 5.75C36.8071 5.85667 36.7304 5.99 36.6771 6.15C36.6171 6.30333 36.5871 6.49333 36.5871 6.72C36.5871 7.06 36.6738 7.35333 36.8471 7.6C37.0138 7.84 37.2404 8.02667 37.5271 8.16C37.8071 8.28667 38.1204 8.35 38.4671 8.35H38.6371C38.7704 8.35 38.8971 8.34 39.0171 8.32C39.0904 8.4 39.1438 8.48333 39.1771 8.57C39.2104 8.65 39.2271 8.72667 39.2271 8.8C39.2271 9.03333 39.0771 9.15 38.7771 9.15H37.5571C37.0971 9.15 36.7271 9.27 36.4471 9.51C36.1604 9.74333 36.0171 10.0767 36.0171 10.51ZM38.4671 7.41C38.2604 7.41 38.0804 7.34 37.9271 7.2C37.7671 7.06 37.6871 6.85667 37.6871 6.59C37.6871 6.32333 37.7671 6.12 37.9271 5.98C38.0804 5.84 38.2604 5.77 38.4671 5.77H38.6371C38.8504 5.77 39.0371 5.84 39.1971 5.98C39.3504 6.12 39.4271 6.32333 39.4271 6.59C39.4271 6.85667 39.3504 7.06 39.1971 7.2C39.0371 7.34 38.8504 7.41 38.6371 7.41H38.4671ZM31.9446 10V9.31C32.2513 9.61667 32.5179 9.82667 32.7446 9.94C32.9646 10.0467 33.1946 10.1 33.4346 10.1C33.9813 10.1 34.4079 9.89333 34.7146 9.48C35.0146 9.06667 35.1646 8.48667 35.1646 7.74V7.2C35.1646 6.47333 34.9813 5.89667 34.6146 5.47C34.2479 5.04333 33.7179 4.83 33.0246 4.83C32.8513 4.83 32.6813 4.84667 32.5146 4.88C32.3413 4.91333 32.1713 4.96 32.0046 5.02V2.6H30.8546V10H31.9446ZM33.9846 7.74C33.9846 8.18667 33.9113 8.51333 33.7646 8.72C33.6113 8.92667 33.3979 9.03 33.1246 9.03C32.9713 9.03 32.8079 8.98667 32.6346 8.9C32.4613 8.80667 32.2513 8.63333 32.0046 8.38V6.06C32.3313 5.92667 32.6313 5.86 32.9046 5.86C33.2913 5.86 33.5679 5.98 33.7346 6.22C33.9013 6.46 33.9846 6.78667 33.9846 7.2V7.74ZM24.6201 9.56C24.7867 9.66 25.0634 9.77667 25.4501 9.91C25.8301 10.0367 26.2767 10.1 26.7901 10.1C27.3701 10.1 27.8567 9.98 28.2501 9.74C28.6367 9.5 28.9301 9.17 29.1301 8.75C29.3301 8.33 29.4301 7.85 29.4301 7.31V5.88C29.4301 5.32667 29.3301 4.84333 29.1301 4.43C28.9301 4.01 28.6334 3.68333 28.2401 3.45C27.8401 3.21667 27.3401 3.1 26.7401 3.1C26.4467 3.1 26.1434 3.13333 25.8301 3.2C25.5167 3.26 25.1734 3.37333 24.8001 3.54L25.1701 4.59C25.4967 4.46333 25.7801 4.37333 26.0201 4.32C26.2534 4.26 26.4867 4.23 26.7201 4.23C27.2401 4.23 27.6167 4.38 27.8501 4.68C28.0834 4.97333 28.2001 5.37333 28.2001 5.88V7.31C28.2001 7.79 28.0834 8.18333 27.8501 8.49C27.6101 8.79667 27.2367 8.95 26.7301 8.95C26.5767 8.95 26.4101 8.93667 26.2301 8.91C26.0501 8.88333 25.8767 8.84667 25.7101 8.8V7.31H26.8101V6.26H24.6201V9.56ZM18.9447 8.15C18.9447 8.51667 19.0313 8.84667 19.2047 9.14C19.3713 9.43333 19.628 9.66667 19.9747 9.84C20.3213 10.0133 20.7613 10.1 21.2947 10.1C21.8213 10.1 22.248 10.02 22.5747 9.86C22.9013 9.69333 23.1413 9.47667 23.2947 9.21C23.448 8.94333 23.5247 8.64667 23.5247 8.32C23.5247 7.99333 23.448 7.69333 23.2947 7.42C23.1413 7.14 22.888 6.88333 22.5347 6.65C22.8147 6.46333 23.0313 6.23333 23.1847 5.96C23.3313 5.68667 23.4047 5.36667 23.4047 5C23.4047 4.64667 23.3213 4.32667 23.1547 4.04C22.988 3.75333 22.7447 3.52667 22.4247 3.36C22.1047 3.18667 21.7213 3.1 21.2747 3.1C20.7947 3.1 20.3913 3.18 20.0647 3.34C19.738 3.5 19.4947 3.71667 19.3347 3.99C19.168 4.25667 19.0847 4.55667 19.0847 4.89C19.0847 5.18333 19.1547 5.46 19.2947 5.72C19.428 5.97333 19.6547 6.21 19.9747 6.43C19.288 6.81667 18.9447 7.39 18.9447 8.15ZM21.3647 5.92L20.8747 6.07C20.648 5.87667 20.4913 5.7 20.4047 5.54C20.3113 5.37333 20.2647 5.20333 20.2647 5.03C20.2647 4.76333 20.3513 4.55333 20.5247 4.4C20.6913 4.24 20.9313 4.16 21.2447 4.16C21.558 4.16 21.8013 4.23667 21.9747 4.39C22.1413 4.54333 22.2247 4.75333 22.2247 5.02C22.2247 5.44 21.938 5.74 21.3647 5.92ZM22.3447 8.15C22.3447 8.41667 22.248 8.63333 22.0547 8.8C21.8613 8.96 21.588 9.04 21.2347 9.04C20.888 9.04 20.618 8.96 20.4247 8.8C20.2247 8.64 20.1247 8.42667 20.1247 8.16C20.1247 7.96 20.198 7.78 20.3447 7.62C20.4847 7.45333 20.728 7.31667 21.0747 7.21L21.6147 7.04C21.8613 7.24 22.0447 7.42667 22.1647 7.6C22.2847 7.77333 22.3447 7.95667 22.3447 8.15ZM13.439 10.51C13.439 11.05 13.6523 11.47 14.079 11.77C14.499 12.0767 15.0856 12.23 15.839 12.23C16.1923 12.23 16.5656 12.19 16.959 12.11C17.3523 12.03 17.7156 11.8967 18.049 11.71L17.719 10.8C17.399 10.96 17.0823 11.0733 16.769 11.14C16.4556 11.2133 16.149 11.25 15.849 11.25C15.429 11.25 15.109 11.1933 14.889 11.08C14.669 10.9667 14.559 10.8167 14.559 10.63C14.559 10.3433 14.729 10.2 15.069 10.2H16.269C16.5956 10.2 16.859 10.1467 17.059 10.04C17.259 9.93333 17.4056 9.79667 17.499 9.63C17.5923 9.45667 17.639 9.27667 17.639 9.09C17.639 8.89667 17.599 8.71667 17.519 8.55C17.4323 8.37667 17.3156 8.21667 17.169 8.07C17.409 7.92333 17.6023 7.72667 17.749 7.48C17.889 7.23333 17.959 6.93667 17.959 6.59C17.959 6.19667 17.8756 5.87 17.709 5.61C17.5423 5.35 17.3156 5.15667 17.029 5.03C16.7356 4.89667 16.4123 4.83 16.059 4.83H15.889C15.7556 4.83 15.6256 4.84 15.499 4.86C15.3723 4.87333 15.2523 4.89667 15.139 4.93H13.329V5.91L14.329 5.75C14.229 5.85667 14.1523 5.99 14.099 6.15C14.039 6.30333 14.009 6.49333 14.009 6.72C14.009 7.06 14.0956 7.35333 14.269 7.6C14.4356 7.84 14.6623 8.02667 14.949 8.16C15.229 8.28667 15.5423 8.35 15.889 8.35H16.059C16.1923 8.35 16.319 8.34 16.439 8.32C16.5123 8.4 16.5656 8.48333 16.599 8.57C16.6323 8.65 16.649 8.72667 16.649 8.8C16.649 9.03333 16.499 9.15 16.199 9.15H14.979C14.519 9.15 14.149 9.27 13.869 9.51C13.5823 9.74333 13.439 10.0767 13.439 10.51ZM15.889 7.41C15.6823 7.41 15.5023 7.34 15.349 7.2C15.189 7.06 15.109 6.85667 15.109 6.59C15.109 6.32333 15.189 6.12 15.349 5.98C15.5023 5.84 15.6823 5.77 15.889 5.77H16.059C16.2723 5.77 16.459 5.84 16.619 5.98C16.7723 6.12 16.849 6.32333 16.849 6.59C16.849 6.85667 16.7723 7.06 16.619 7.2C16.459 7.34 16.2723 7.41 16.059 7.41H15.889ZM9.36646 10V9.31C9.67313 9.61667 9.9398 9.82667 10.1665 9.94C10.3865 10.0467 10.6165 10.1 10.8565 10.1C11.4031 10.1 11.8298 9.89333 12.1365 9.48C12.4365 9.06667 12.5865 8.48667 12.5865 7.74V7.2C12.5865 6.47333 12.4031 5.89667 12.0365 5.47C11.6698 5.04333 11.1398 4.83 10.4465 4.83C10.2731 4.83 10.1031 4.84667 9.93646 4.88C9.76313 4.91333 9.59313 4.96 9.42646 5.02V2.6H8.27646V10H9.36646ZM11.4065 7.74C11.4065 8.18667 11.3331 8.51333 11.1865 8.72C11.0331 8.92667 10.8198 9.03 10.5465 9.03C10.3931 9.03 10.2298 8.98667 10.0565 8.9C9.88313 8.80667 9.67313 8.63333 9.42646 8.38V6.06C9.75313 5.92667 10.0531 5.86 10.3265 5.86C10.7131 5.86 10.9898 5.98 11.1565 6.22C11.3231 6.46 11.4065 6.78667 11.4065 7.2V7.74ZM126.252 17.89L125.872 20.41L124.512 15.2H123.432L122.082 20.37L121.662 17.89L121.142 15.2H119.922L121.452 22H122.682L123.992 16.94L125.312 22H126.542L128.072 15.2H126.772L126.252 17.89ZM118.99 18.49L118.79 15.2H115.31V16.33H117.73L117.82 17.83C117.586 17.77 117.336 17.74 117.07 17.74C116.41 17.74 115.893 17.9133 115.52 18.26C115.146 18.6 114.96 19.1033 114.96 19.77V20.04C114.96 20.4133 115.036 20.7567 115.19 21.07C115.343 21.3833 115.59 21.6333 115.93 21.82C116.263 22.0067 116.706 22.1 117.26 22.1C117.566 22.1 117.886 22.0633 118.22 21.99C118.546 21.9167 118.906 21.7933 119.3 21.62L118.93 20.59C118.576 20.73 118.28 20.8333 118.04 20.9C117.793 20.96 117.546 20.99 117.3 20.99C116.926 20.99 116.646 20.9133 116.46 20.76C116.266 20.6067 116.17 20.3667 116.17 20.04V19.77C116.17 19.4767 116.256 19.2433 116.43 19.07C116.596 18.8967 116.866 18.81 117.24 18.81C117.406 18.81 117.58 18.8333 117.76 18.88C117.94 18.92 118.133 18.98 118.34 19.06L118.99 18.49ZM112.504 15.97H113.714V14.78H112.504V15.97ZM114.724 24.23V23.15C114.391 23.15 114.134 23.07 113.954 22.91C113.774 22.75 113.684 22.46 113.684 22.04V16.93H112.534V22.04C112.534 22.42 112.597 22.7767 112.724 23.11C112.844 23.4433 113.064 23.7133 113.384 23.92C113.697 24.1267 114.144 24.23 114.724 24.23ZM106.68 19.73C106.68 20.4567 106.86 21.0333 107.22 21.46C107.58 21.8867 108.106 22.1 108.8 22.1C109.52 22.1 110.25 21.9 110.99 21.5V14.6H109.84V17.6C109.533 17.2933 109.27 17.09 109.05 16.99C108.83 16.8833 108.603 16.83 108.37 16.83C107.836 16.83 107.423 17.0367 107.13 17.45C106.83 17.8633 106.68 18.4433 106.68 19.19V19.73ZM108.68 17.9C108.84 17.9 109.01 17.9467 109.19 18.04C109.363 18.1333 109.58 18.3167 109.84 18.59V20.86C109.66 20.9333 109.496 20.9867 109.35 21.02C109.196 21.0533 109.046 21.07 108.9 21.07C108.526 21.07 108.26 20.95 108.1 20.71C107.94 20.47 107.86 20.1433 107.86 19.73V19.19C107.86 18.7433 107.933 18.4167 108.08 18.21C108.22 18.0033 108.42 17.9 108.68 17.9ZM101.624 22H105.744V21.05C105.744 20.57 105.681 20.17 105.554 19.85C105.427 19.5233 105.257 19.2567 105.044 19.05C104.831 18.8367 104.597 18.6667 104.344 18.54L103.664 18.2C103.404 18.0667 103.194 17.9267 103.034 17.78C102.867 17.6267 102.784 17.43 102.784 17.19V17.01C102.784 16.7633 102.871 16.57 103.044 16.43C103.211 16.2833 103.481 16.21 103.854 16.21C104.081 16.21 104.311 16.2433 104.544 16.31C104.771 16.3767 105.047 16.47 105.374 16.59L105.744 15.56C105.371 15.3933 105.031 15.2767 104.724 15.21C104.411 15.1367 104.107 15.1 103.814 15.1C103.274 15.1 102.844 15.1867 102.524 15.36C102.197 15.5333 101.964 15.7667 101.824 16.06C101.677 16.3467 101.604 16.6633 101.604 17.01V17.19C101.604 17.55 101.677 17.8567 101.824 18.11C101.964 18.3633 102.151 18.5767 102.384 18.75C102.617 18.9233 102.871 19.0767 103.144 19.21L103.824 19.55C104.071 19.67 104.254 19.8367 104.374 20.05C104.487 20.2633 104.551 20.5367 104.564 20.87H101.624V22ZM98.9552 19.5V22H100.155V15.2H97.8852C97.1985 15.2 96.6719 15.3767 96.3052 15.73C95.9319 16.0767 95.7452 16.5433 95.7452 17.13V17.56C95.7452 17.9467 95.8285 18.2867 95.9952 18.58C96.1619 18.8733 96.4019 19.0967 96.7152 19.25C96.1685 20.1833 95.7019 21.1 95.3152 22H96.6852C97.0185 21.1667 97.4152 20.3333 97.8752 19.5H98.9552ZM97.8852 16.3H98.9552V18.4H97.8852C97.5919 18.4 97.3685 18.3267 97.2152 18.18C97.0552 18.0267 96.9752 17.82 96.9752 17.56V17.13C96.9752 16.8767 97.0552 16.6767 97.2152 16.53C97.3685 16.3767 97.5919 16.3 97.8852 16.3ZM94.2415 20.57V14.6H93.0915V20.57C93.0915 20.67 93.0681 20.7667 93.0215 20.86C92.9681 20.9467 92.8681 20.99 92.7215 20.99H92.5615V22.05H92.8415C93.2215 22.05 93.5115 21.9767 93.7115 21.83C93.9115 21.6833 94.0515 21.4967 94.1315 21.27C94.2048 21.0433 94.2415 20.81 94.2415 20.57ZM90.0978 22H91.2978V15.2H90.0978V22ZM84.4816 22V19.13H87.0216V22H88.2216V15.2H87.0216V17.98H84.4816V15.2H83.2816V22H84.4816ZM80.2052 19.5V22H81.4052V15.2H79.1352C78.4485 15.2 77.9219 15.3767 77.5552 15.73C77.1819 16.0767 76.9952 16.5433 76.9952 17.13V17.56C76.9952 17.9467 77.0785 18.2867 77.2452 18.58C77.4119 18.8733 77.6519 19.0967 77.9652 19.25C77.4185 20.1833 76.9519 21.1 76.5652 22H77.9352C78.2685 21.1667 78.6652 20.3333 79.1252 19.5H80.2052ZM79.1352 16.3H80.2052V18.4H79.1352C78.8419 18.4 78.6185 18.3267 78.4652 18.18C78.3052 18.0267 78.2252 17.82 78.2252 17.56V17.13C78.2252 16.8767 78.3052 16.6767 78.4652 16.53C78.6185 16.3767 78.8419 16.3 79.1352 16.3ZM71.3115 19.16V19.76C71.3115 20.4667 71.5048 21.0333 71.8915 21.46C72.2781 21.8867 72.8248 22.1 73.5315 22.1C74.2381 22.1 74.7848 21.8867 75.1715 21.46C75.5581 21.0333 75.7515 20.4667 75.7515 19.76V19.16C75.7515 18.4533 75.5615 17.89 75.1815 17.47C74.7948 17.0433 74.2448 16.83 73.5315 16.83C72.8181 16.83 72.2715 17.0433 71.8915 17.47C71.5048 17.89 71.3115 18.4533 71.3115 19.16ZM72.4915 19.16C72.4915 18.7533 72.5815 18.4367 72.7615 18.21C72.9415 17.9767 73.1981 17.86 73.5315 17.86C73.8648 17.86 74.1215 17.9767 74.3015 18.21C74.4815 18.4367 74.5715 18.7533 74.5715 19.16V19.76C74.5715 20.1667 74.4815 20.4867 74.3015 20.72C74.1215 20.9533 73.8648 21.07 73.5315 21.07C73.1981 21.07 72.9415 20.9533 72.7615 20.72C72.5815 20.4867 72.4915 20.1667 72.4915 19.76V19.16ZM66.182 22.05C66.522 22.05 66.7953 21.98 67.002 21.84C67.202 21.7 67.3487 21.5267 67.442 21.32C67.7287 21.5867 68.0053 21.7833 68.272 21.91C68.5387 22.0367 68.8253 22.1 69.132 22.1C69.5787 22.1 69.9087 21.9567 70.122 21.67C70.3287 21.3833 70.432 21.02 70.432 20.58C70.432 20.2867 70.3787 20.03 70.272 19.81C70.1587 19.5833 69.9753 19.4067 69.722 19.28C69.4687 19.1533 69.122 19.09 68.682 19.09C68.5087 19.09 68.3287 19.1033 68.142 19.13C67.9553 19.15 67.7687 19.1767 67.582 19.21V18.62C67.582 18.34 67.6587 18.15 67.812 18.05C67.9653 17.9433 68.172 17.89 68.432 17.89C68.632 17.89 68.852 17.9167 69.092 17.97C69.3253 18.0233 69.5787 18.1067 69.852 18.22L70.182 17.24C69.5087 16.9667 68.8987 16.83 68.352 16.83C67.8587 16.83 67.4787 16.9133 67.212 17.08C66.9387 17.2467 66.7487 17.4667 66.642 17.74C66.5353 18.0133 66.482 18.3067 66.482 18.62V20.57C66.482 20.67 66.4553 20.7667 66.402 20.86C66.342 20.9467 66.2287 20.99 66.062 20.99H65.952V22.05H66.182ZM69.322 20.56C69.322 20.74 69.282 20.8833 69.202 20.99C69.122 21.09 69.0053 21.14 68.852 21.14C68.6987 21.14 68.5253 21.1 68.332 21.02C68.1387 20.94 67.8887 20.7533 67.582 20.46V20.03C67.9287 19.97 68.2687 19.94 68.602 19.94C68.862 19.94 69.0487 19.9933 69.162 20.1C69.2687 20.2067 69.322 20.36 69.322 20.56ZM61.5637 22L62.9837 19.51L64.3337 22H65.5937L63.6037 18.47L65.4837 15.2H64.1237L62.8137 17.48L61.5837 15.2H60.3237L62.1937 18.53L60.2037 22H61.5637ZM57.8003 15.2L55.9003 19.85L54.0103 15.2H52.7003V22H53.8503V19.4L53.7003 17.02L55.3903 21.2H56.4603L58.1103 17.01L57.9603 19.4V22H59.1103V15.2H57.8003ZM46.7593 22.51C46.7593 23.05 46.9726 23.47 47.3993 23.77C47.8193 24.0767 48.4059 24.23 49.1593 24.23C49.5126 24.23 49.8859 24.19 50.2793 24.11C50.6726 24.03 51.0359 23.8967 51.3693 23.71L51.0393 22.8C50.7193 22.96 50.4026 23.0733 50.0893 23.14C49.7759 23.2133 49.4693 23.25 49.1693 23.25C48.7493 23.25 48.4293 23.1933 48.2093 23.08C47.9893 22.9667 47.8793 22.8167 47.8793 22.63C47.8793 22.3433 48.0493 22.2 48.3893 22.2H49.5893C49.9159 22.2 50.1793 22.1467 50.3793 22.04C50.5793 21.9333 50.7259 21.7967 50.8193 21.63C50.9126 21.4567 50.9593 21.2767 50.9593 21.09C50.9593 20.8967 50.9193 20.7167 50.8393 20.55C50.7526 20.3767 50.6359 20.2167 50.4893 20.07C50.7293 19.9233 50.9226 19.7267 51.0693 19.48C51.2093 19.2333 51.2793 18.9367 51.2793 18.59C51.2793 18.1967 51.1959 17.87 51.0293 17.61C50.8626 17.35 50.6359 17.1567 50.3493 17.03C50.0559 16.8967 49.7326 16.83 49.3793 16.83H49.2093C49.0759 16.83 48.9459 16.84 48.8193 16.86C48.6926 16.8733 48.5726 16.8967 48.4593 16.93H46.6493V17.91L47.6493 17.75C47.5493 17.8567 47.4726 17.99 47.4193 18.15C47.3593 18.3033 47.3293 18.4933 47.3293 18.72C47.3293 19.06 47.4159 19.3533 47.5893 19.6C47.7559 19.84 47.9826 20.0267 48.2693 20.16C48.5493 20.2867 48.8626 20.35 49.2093 20.35H49.3793C49.5126 20.35 49.6393 20.34 49.7593 20.32C49.8326 20.4 49.8859 20.4833 49.9193 20.57C49.9526 20.65 49.9693 20.7267 49.9693 20.8C49.9693 21.0333 49.8193 21.15 49.5193 21.15H48.2993C47.8393 21.15 47.4693 21.27 47.1893 21.51C46.9026 21.7433 46.7593 22.0767 46.7593 22.51ZM49.2093 19.41C49.0026 19.41 48.8226 19.34 48.6693 19.2C48.5093 19.06 48.4293 18.8567 48.4293 18.59C48.4293 18.3233 48.5093 18.12 48.6693 17.98C48.8226 17.84 49.0026 17.77 49.2093 17.77H49.3793C49.5926 17.77 49.7793 17.84 49.9393 17.98C50.0926 18.12 50.1693 18.3233 50.1693 18.59C50.1693 18.8567 50.0926 19.06 49.9393 19.2C49.7793 19.34 49.5926 19.41 49.3793 19.41H49.2093ZM41.0368 15.2L43.1168 19.27V22H44.3168V19.29L46.4168 15.2H45.1368L43.6668 18.1L42.2768 15.2H41.0368ZM38.2354 17.9C38.402 17.9 38.592 17.94 38.8054 18.02C39.0187 18.1 39.272 18.2567 39.5654 18.49V22H40.7154V16.93H39.6254V17.61C39.312 17.3367 39.0154 17.14 38.7354 17.02C38.4554 16.8933 38.172 16.83 37.8854 16.83C37.3987 16.83 37.0287 16.9867 36.7754 17.3C36.522 17.6067 36.3954 18.04 36.3954 18.6V22H37.5454V18.74C37.5454 18.18 37.7754 17.9 38.2354 17.9ZM35.4055 22.1V20.95C34.8655 20.95 34.4755 20.85 34.2355 20.65C33.9889 20.4433 33.8655 20.08 33.8655 19.56V15.2H32.6655V19.56C32.6655 20.08 32.7455 20.53 32.9055 20.91C33.0655 21.29 33.3455 21.5833 33.7455 21.79C34.1389 21.9967 34.6922 22.1 35.4055 22.1ZM27.1834 16.93L28.9834 22H30.0334L31.8334 16.93H30.6734L29.8034 19.46L29.4734 20.51L29.1534 19.46L28.3234 16.93H27.1834ZM26.0732 22V15.2H23.8332C23.1199 15.2 22.5865 15.38 22.2332 15.74C21.8732 16.1 21.6932 16.58 21.6932 17.18V17.71C21.6932 18.31 21.8732 18.7933 22.2332 19.16C22.5865 19.52 23.1199 19.7 23.8332 19.7H24.8732V22H26.0732ZM23.8332 16.35H24.8732V18.55H23.8332C23.5399 18.55 23.3165 18.4767 23.1632 18.33C23.0032 18.1833 22.9232 17.9767 22.9232 17.71V17.18C22.9232 16.92 23.0032 16.7167 23.1632 16.57C23.3165 16.4233 23.5399 16.35 23.8332 16.35ZM14.171 16.93L15.471 22H16.721L17.561 18.19L18.451 22H19.701L21.001 16.93H19.821L19.331 18.94L18.991 20.77L18.131 16.93H16.971L16.081 20.81L15.761 18.95L15.281 16.93H14.171ZM13.0279 18.36V17.36H8.88795V18.36H13.0279ZM13.0279 20.35V19.35H8.88795V20.35H13.0279ZM7.14904 18.36V17.36H3.00904V18.36H7.14904ZM7.14904 20.35V19.35H3.00904V20.35H7.14904Z" fill="#923A5F"/>
</g>
</pattern></defs>
</svg>
