<svg width="250" height="250" viewBox="0 0 250 250" fill="none" xmlns="http://www.w3.org/2000/svg">
<path d="M132.398 69.0426C128.824 36.9951 113.953 21.9673 106.965 18.4593C101.809 16.5356 90.5361 14.9966 86.6868 24.2306C81.8751 35.773 95.2791 40.1863 101.81 43.9207C107.034 46.9081 103.986 53.0868 101.81 55.8026C97.265 61.4725 109.495 67.0174 114.536 68.9412C119.691 70.9781 114.526 78.8162 114.192 79.8047C112.818 83.8785 111.845 88.4611 117.619 90.0906C123.393 91.7201 124.149 106.839 123.806 114.194H131.367C131.45 111.808 131.977 109.486 132.742 107.336M132.398 69.0426C137.897 54.3316 153.432 25.3849 171.579 27.286C194.262 29.6624 186.014 50.371 171.579 51.3894C160.031 52.2042 161.942 59.3533 164.018 64.2898C165.402 67.5832 162.574 72.1659 148.551 76.5113C146.156 77.2537 145.537 78.6504 147.187 86.2549C147.187 88.2918 146.156 92.3656 139.272 96.5409C137.515 98.355 134.5 102.39 132.742 107.336M132.398 69.0426C133.439 75.0519 133.658 97.0612 132.742 107.336" stroke="#7ED957" stroke-width="8"/>
<circle cx="126.398" cy="177.193" r="63.3979" stroke="#923A5F" stroke-width="8"/>
<circle cx="127.602" cy="177.602" r="63.3979" stroke="#923A5F" stroke-width="8"/>
<rect x="122.999" y="145.06" width="10" height="49.2537" rx="5" fill="#923A5F"/>
<rect x="122.999" y="200.881" width="10" height="9.85075" rx="4.92537" fill="#923A5F"/>
</svg>
