<svg width="250" height="250" viewBox="0 0 250 250" fill="none" xmlns="http://www.w3.org/2000/svg">
<path d="M63.64 84.8564L91 69.0499M63.64 84.8564L91 104.05M63.64 84.8564L34 69.0499" stroke="#923A5F" stroke-width="5" stroke-linecap="round"/>
<path d="M179.551 126.664C182.455 125.323 202.775 135.521 204.441 133.581L211.193 145.277C209.758 145.687 210.781 170.912 204.447 175.576C196.528 181.405 188.213 188.72 181.466 195.13C176.068 200.258 165.282 201.121 160.564 200.911C164.352 190.678 157.193 184.697 153.14 182.985C153.945 179.168 149.725 174.898 147.514 173.241C146.39 166.523 139.383 159.362 135.16 155.885C134.761 155.59 134.397 155.3 134.069 155.02L144.693 174.87C145.562 177.581 146.036 183.566 140.981 185.814C135.927 188.062 131.946 184.883 130.588 183.013C125.617 175.127 115.358 158.949 114.091 157.334C112.507 155.314 120.508 132.254 124.929 127.606C128.466 123.888 133.089 122.196 134.959 121.815C148.613 123.991 176.648 128.005 179.551 126.664Z" fill="#923A5F"/>
<path d="M134.069 155.02L144.693 174.87C145.562 177.581 146.036 183.566 140.981 185.814C135.927 188.062 131.946 184.883 130.588 183.013C125.617 175.127 115.358 158.949 114.091 157.334C112.507 155.314 120.508 132.254 124.929 127.606C128.466 123.888 133.089 122.196 134.959 121.815C148.613 123.991 176.648 128.005 179.551 126.664C182.455 125.323 202.775 135.521 204.441 133.581L211.193 145.277C209.758 145.687 210.781 170.912 204.447 175.576C196.528 181.405 188.213 188.72 181.466 195.13C176.068 200.258 165.282 201.121 160.564 200.911C164.352 190.678 157.193 184.697 153.14 182.985C153.945 179.168 149.725 174.898 147.514 173.241C146.287 165.903 138.039 158.036 134.069 155.02ZM134.069 155.02C138.55 153.131 147.662 147.004 148.256 137.608M134.069 155.02C140.118 160.189 158.214 168.321 182.208 159.497" stroke="white" stroke-width="2"/>
<path d="M152.376 166.885C154.532 169.02 154.549 172.5 152.413 174.656V174.656C150.277 176.813 146.798 176.83 144.641 174.694L93.8817 124.42L101.616 116.611L152.376 166.885Z" fill="#7ED957"/>
<rect x="111.318" y="205.496" width="50.7574" height="19.9822" rx="9.99111" transform="rotate(-30 111.318 205.496)" fill="#923A5F" stroke="white" stroke-width="2"/>
<rect x="102.27" y="194.222" width="50.7574" height="19.9822" rx="9.99111" transform="rotate(-30 102.27 194.222)" fill="#923A5F" stroke="white" stroke-width="2"/>
<rect x="86.5887" y="162.663" width="47.46" height="21.0813" rx="10.5407" transform="rotate(-30 86.5887 162.663)" fill="#923A5F" stroke="white" stroke-width="2"/>
<path d="M191.777 75.1472C191.623 46.0911 202.904 31.1886 208.564 27.3694C212.806 25.1468 222.351 22.6767 226.595 30.5764C231.898 40.451 220.809 45.7024 215.566 49.6801C211.372 52.8622 214.617 58.1024 216.764 60.3247C221.246 64.9641 211.281 71.1157 207.137 73.3271C202.906 75.651 208.141 82.1727 208.528 83.026C210.121 86.5425 211.42 90.5537 206.616 92.5725C201.811 94.5913 210.63 138.447 211.667 145.003L205.896 135.009L197.215 115.497C196.903 113.367 196.215 111.338 195.341 109.486M191.777 75.1472C185.562 62.5006 169.277 38.0724 153.853 41.5324C134.574 45.8574 143.759 63.6108 156.283 63.1257C166.302 62.7376 165.378 69.3272 164.089 73.9506C163.23 77.0351 166.125 80.8667 178.63 83.402C180.766 83.8352 181.439 85.0266 180.786 91.9988C180.991 93.8236 182.289 97.3733 188.634 100.447C190.328 101.902 193.329 105.226 195.341 109.486M191.777 75.1472C191.487 80.6315 193.517 100.37 195.341 109.486" stroke="#7ED957" stroke-width="4"/>
<circle cx="63.4581" cy="83.2712" r="49.2078" transform="rotate(-0.275379 63.4581 83.2712)" stroke="#7ED957" stroke-width="6"/>
<rect x="92.6727" y="181.995" width="55.1538" height="21.0813" rx="10.5407" transform="rotate(-30 92.6727 181.995)" fill="#923A5F" stroke="white" stroke-width="2"/>
<path d="M126.649 127.066C129.874 123.695 145.486 138.077 147.185 137.726C146.608 146.21 137.647 153.452 133.572 155.176L143.497 175.297C144.274 177.742 144.544 183.219 139.948 185.269C135.351 187.319 131.714 184.49 130.489 182.807C126.01 175.707 115.197 158.724 114.054 157.271C112.625 155.454 122.617 131.281 126.649 127.066Z" fill="#923A5F" stroke="white" stroke-width="2"/>
<path d="M129.704 127.317C146.037 136.563 153.06 141.779 153.051 141.954" stroke="#923A5F" stroke-width="4" stroke-linecap="round"/>
<circle cx="91" cy="69.0499" r="9" fill="#7ED957"/>
<circle cx="34" cy="69.0499" r="9" fill="#7ED957"/>
<circle cx="91" cy="103.05" r="9" fill="#7ED957"/>
<circle cx="64" cy="85.0499" r="9" fill="#7ED957"/>
</svg>
