<svg width="250" height="250" viewBox="0 0 250 250" fill="none" xmlns="http://www.w3.org/2000/svg">
<rect x="48" y="14" width="153" height="222" rx="20" fill="#923A5F"/>
<rect x="56" y="26" width="137" height="172" rx="20" fill="#FFEEF5"/>
<path d="M127.18 83.4815C124.642 60.4007 114.084 49.5775 109.122 47.051C105.462 45.6655 97.4578 44.5571 94.7248 51.2075C91.3085 59.5205 100.825 62.699 105.462 65.3885C109.171 67.5401 107.007 71.99 105.462 73.946C102.235 78.0295 110.919 82.023 114.498 83.4085C118.158 84.8755 114.491 90.5206 114.254 91.2325C113.278 94.1665 112.587 97.4669 116.687 98.6405C120.786 99.8141 121.323 110.703 121.079 116H126.448C126.507 114.281 126.881 112.609 127.424 111.061M127.18 83.4815C131.084 72.8865 142.114 52.0389 154.998 53.4081C171.103 55.1196 165.247 70.0341 154.998 70.7676C146.799 71.3544 148.156 76.5032 149.63 80.0586C150.613 82.4305 148.605 85.731 138.649 88.8606C136.948 89.3952 136.508 90.4012 137.68 95.878C137.68 97.345 136.948 100.279 132.06 103.286C130.813 104.593 128.672 107.499 127.424 111.061M127.18 83.4815C127.919 87.8095 128.074 103.661 127.424 111.061" stroke="#7ED957" stroke-width="6"/>
<path d="M147.482 119.481C148.839 119.481 151.366 125.989 152.46 129.243L153.245 140.463C153.431 140.643 155.213 142.259 156.08 143.044L164 149.328L159.927 178.389C159.248 179.549 157.257 182.025 154.723 182.653C152.188 183.281 135.715 182.915 127.795 182.653C127.116 181.494 126.505 178.299 129.492 174.799C138.807 174.2 157.506 172.083 157.777 168.403C158.049 164.722 156.759 149.964 156.08 143.044C155.213 142.259 153.431 140.643 153.245 140.463L155.175 168.066C150.106 170.131 143.409 169.674 140.693 169.188L137.299 139.341L135.149 139.566L137.865 170.198C130.805 173.16 123.458 172.704 120.667 172.106L116.821 141.698L114.445 141.922L117.952 171.432C113.426 174.395 106.789 173.938 104.036 173.34L99.1707 143.605L96.7947 143.717L100.755 168.291C97.7677 171.253 92.3445 170.797 90.0063 170.198C88.0075 162.082 83.8515 145.199 83.2179 142.595C82.5843 139.992 83.4819 135.078 84.0099 132.946C86.499 130.926 88.8749 130.701 89.7801 129.916C90.5041 129.288 92.6463 129.879 93.6268 130.253L94.9845 130.14C96.3422 130.701 100.076 123.969 100.189 123.52C100.302 123.071 108.335 121.613 108.561 121.949C108.742 122.219 110.673 122.959 111.616 123.296C112.069 123.408 113.132 123.565 113.766 123.296C114.558 122.959 117.273 119.144 117.499 118.359C117.726 117.573 126.664 116.9 127.456 117.012C128.248 117.124 132.208 122.174 133.792 122.398C135.059 122.578 137.412 120.827 138.43 119.93C139.788 119.369 145.784 119.481 147.482 119.481Z" fill="#923A5F"/>
<ellipse cx="124.5" cy="217" rx="13.5" ry="14" fill="#FFD2E5"/>
</svg>
