<svg width="250" height="250" viewBox="0 0 250 250" fill="none" xmlns="http://www.w3.org/2000/svg">
<path d="M166.509 120.834C168.604 120.834 172.503 130.892 174.191 135.921L175.402 153.262C175.69 153.539 178.439 156.036 179.778 157.25L192 166.961L185.714 211.874C184.667 213.666 181.594 217.493 177.683 218.464C173.772 219.435 148.35 218.868 136.128 218.464C135.081 216.672 134.138 211.735 138.747 206.325C153.123 205.4 181.978 202.129 182.397 196.441C182.816 190.753 180.826 167.944 179.778 157.25C178.439 156.036 175.69 153.539 175.402 153.262L178.381 195.92C170.559 199.111 160.223 198.406 156.033 197.655L150.795 151.528L147.477 151.874L151.668 199.215C140.773 203.793 129.435 203.088 125.129 202.163L119.192 155.169L115.526 155.516L120.938 201.123C113.954 205.701 103.711 204.996 99.4625 204.071L91.9547 158.117L88.2881 158.291L94.3991 196.267C89.7897 200.845 81.4206 200.14 77.8122 199.215C74.7276 186.672 68.314 160.58 67.3363 156.556C66.3585 152.533 67.7437 144.938 68.5585 141.643C72.3997 138.522 76.0662 138.175 77.463 136.961C78.5805 135.99 81.8862 136.903 83.3994 137.481L85.4946 137.308C87.5898 138.175 93.3516 127.77 93.5262 127.077C93.7008 126.383 106.097 124.129 106.446 124.649C106.726 125.065 109.706 126.21 111.161 126.73C111.859 126.903 113.5 127.146 114.478 126.73C115.7 126.21 119.891 120.314 120.24 119.1C120.589 117.886 134.382 116.846 135.605 117.019C136.827 117.192 142.938 124.996 145.382 125.343C147.338 125.62 150.969 122.915 152.541 121.528C154.636 120.661 163.89 120.834 166.509 120.834Z" fill="#923A5F"/>
<path d="M61 75C81.3819 41.7966 136.717 -4.68824 195 75" stroke="#68D23A" stroke-width="10" stroke-linecap="round"/>
<path d="M83 89C96.6893 65.6067 133.854 32.856 173 89" stroke="#68D23A" stroke-width="8" stroke-linecap="round"/>
<path d="M99 99C107.974 83.9075 132.338 62.7781 158 99" stroke="#68D23A" stroke-width="6" stroke-linecap="round"/>
<path d="M128 99.5C132.173 99.5 135.5 102.664 135.5 106.5C135.5 110.336 132.173 113.5 128 113.5C123.827 113.5 120.5 110.336 120.5 106.5C120.5 102.664 123.827 99.5 128 99.5Z" fill="#68D23A" stroke="#68D23A"/>
</svg>
