<svg width="250" height="250" viewBox="0 0 250 250" fill="none" xmlns="http://www.w3.org/2000/svg">
<g clip-path="url(#clip0_2_21)">
<rect x="3.5" y="37.5" width="129" height="111" rx="37.5" stroke="#B91E1E" stroke-width="5"/>
<line y1="-2.5" x2="23.2539" y2="-2.5" transform="matrix(-0.706961 -0.707252 0.706961 -0.707252 98.4395 36.4463)" stroke="#B91E1E" stroke-width="5"/>
<path d="M27.384 22.732V25H16.968V5.96H19.404V22.732H27.384ZM41.7721 22.732V25H31.1321V5.96H41.4921V8.256H33.5681V14.22H40.6521V16.516H33.5681V22.732H41.7721ZM56.0871 25L54.6591 20.576H47.4351L46.0071 25H43.6271L49.9551 5.96H52.2511L58.6071 25H56.0871ZM49.1991 15.088L48.1351 18.364H53.9311L52.8671 15.088L51.0471 9.208L49.1991 15.088ZM71.5192 16.992H64.6032V25H62.1672V5.96H72.3592V8.256H64.6032V14.696H71.5192V16.992Z" fill="#B91E1E"/>
<path d="M14 27.8H73.3672V29.2H14V27.8Z" fill="#B91E1E"/>
<rect x="115.5" y="131.5" width="130" height="111" rx="37.5" stroke="#B91E1E" stroke-width="5"/>
<line y1="-2.5" x2="23.8363" y2="-2.5" transform="matrix(0.624537 -0.780995 0.451427 0.892308 150 133.616)" stroke="#B91E1E" stroke-width="5"/>
<path d="M183.32 107.992H176.404V116H173.968V96.96H184.16V99.256H176.404V105.696H183.32V107.992ZM190.568 116H188.132V96.96H190.568V116ZM200.419 114.096C201.595 114.096 202.5 113.844 203.135 113.34C203.769 112.817 204.087 112.061 204.087 111.072C204.087 110.251 203.863 109.56 203.415 109C202.985 108.44 202.276 108.011 201.287 107.712L199.019 107.04C197.6 106.611 196.555 105.967 195.883 105.108C195.211 104.231 194.875 103.157 194.875 101.888C194.875 100.917 195.061 100.04 195.435 99.256C195.827 98.472 196.443 97.8467 197.283 97.38C198.141 96.9133 199.261 96.68 200.643 96.68C201.483 96.68 202.351 96.7827 203.247 96.988C204.143 97.1747 205.048 97.4827 205.963 97.912L205.179 100.012C204.283 99.62 203.471 99.34 202.743 99.172C202.033 98.9853 201.352 98.892 200.699 98.892C199.635 98.892 198.804 99.116 198.207 99.564C197.628 99.9933 197.339 100.712 197.339 101.72C197.339 102.448 197.535 103.064 197.927 103.568C198.319 104.053 199.019 104.455 200.027 104.772L202.295 105.444C205.132 106.284 206.551 108.095 206.551 110.876C206.551 112.481 206.065 113.788 205.095 114.796C204.124 115.785 202.565 116.28 200.419 116.28C199.541 116.28 198.608 116.177 197.619 115.972C196.648 115.748 195.64 115.403 194.595 114.936L195.351 112.864C196.34 113.312 197.227 113.629 198.011 113.816C198.813 114.003 199.616 114.096 200.419 114.096ZM208.087 99.256V96.96H221.611V99.256H216.067V116H213.631V99.256H208.087Z" fill="#B91E1E"/>
<path d="M171 118.8H221.975V120.2H171V118.8Z" fill="#B91E1E"/>
<path d="M67.9934 97.1905C64.7049 67.5152 51.0242 53.5996 44.5949 50.3513C39.8519 48.57 29.4805 47.1449 25.9391 55.6954C21.5124 66.3835 33.844 70.4702 39.852 73.9281C44.6584 76.6944 41.8547 82.4157 39.852 84.9306C35.6711 90.1808 46.9229 95.3153 51.5604 97.0966C56.3034 98.9828 51.5511 106.241 51.2442 107.156C49.9795 110.928 49.0848 115.172 54.3969 116.681C59.709 118.19 60.4046 132.189 60.0884 139H67.0448C67.1214 136.79 67.6063 134.64 68.3096 132.65M67.9934 97.1905C73.0525 83.5684 87.3445 56.7643 104.04 58.5247C124.909 60.7252 117.32 79.9009 104.04 80.844C93.4155 81.5985 95.1737 88.2184 97.0834 92.7896C98.3574 95.8392 95.7553 100.083 82.8546 104.106C80.6505 104.794 80.0813 106.087 81.599 113.129C81.599 115.015 80.6505 118.787 74.3173 122.653C72.701 124.333 69.9275 128.07 68.3096 132.65M67.9934 97.1905C68.9512 102.755 69.1527 123.135 68.3096 132.65" stroke="#7ED957" stroke-width="8"/>
<path d="M211.383 148.27C213.16 148.27 216.467 156.849 217.898 161.138L218.925 175.929C219.169 176.166 221.501 178.296 222.636 179.331L233 187.614L227.67 225.922C226.781 227.451 224.176 230.714 220.859 231.543C217.543 232.371 195.985 231.888 185.621 231.543C184.732 230.014 183.933 225.804 187.842 221.189C200.032 220.4 224.501 217.61 224.857 212.758C225.212 207.907 223.524 188.452 222.636 179.331C221.501 178.296 219.169 176.166 218.925 175.929L221.451 212.315C214.818 215.036 206.053 214.435 202.5 213.794L198.058 174.45L195.245 174.746L198.798 215.125C189.559 219.03 179.945 218.428 176.293 217.639L171.259 177.556L168.15 177.852L172.74 216.752C166.817 220.657 158.131 220.055 154.528 219.266L148.162 180.07L145.052 180.218L150.234 212.61C146.326 216.515 139.229 215.914 136.169 215.125C133.553 204.426 128.114 182.171 127.285 178.739C126.456 175.308 127.631 168.829 128.322 166.019C131.579 163.357 134.688 163.061 135.873 162.026C136.82 161.197 139.624 161.976 140.907 162.469L142.683 162.321C144.46 163.061 149.346 154.187 149.494 153.595C149.642 153.003 160.155 151.08 160.451 151.524C160.688 151.879 163.214 152.855 164.448 153.299C165.04 153.447 166.432 153.654 167.261 153.299C168.298 152.855 171.851 147.826 172.147 146.791C172.443 145.756 184.14 144.868 185.177 145.016C186.213 145.164 191.395 151.82 193.468 152.116C195.126 152.352 198.206 150.045 199.538 148.862C201.315 148.122 209.162 148.27 211.383 148.27Z" fill="#923A5F"/>
</g>
<defs>
<clipPath id="clip0_2_21">
<rect width="250" height="250" fill="white"/>
</clipPath>
</defs>
</svg>
