<svg width="250" height="250" viewBox="0 0 250 250" fill="none" xmlns="http://www.w3.org/2000/svg">
<g clip-path="url(#clip0_31_1131)">
<rect x="-0.944187" y="1.05286" width="51.3363" height="21.2271" rx="10.6135" transform="matrix(-0.998523 0.0543354 0.0543354 0.998523 189.165 137.404)" fill="#923A5F" stroke="white" stroke-width="2"/>
<rect x="-0.944187" y="1.05286" width="51.3363" height="20.3668" rx="10.1834" transform="matrix(-0.998523 0.0543354 0.0543354 0.998523 190.089 122.708)" fill="#923A5F" stroke="white" stroke-width="2"/>
<rect x="-0.944187" y="1.05286" width="55.6376" height="21.2271" rx="10.6135" transform="matrix(-0.998523 0.0543354 0.0543354 0.998523 191.825 107.107)" fill="#923A5F" stroke="white" stroke-width="2"/>
<rect x="-0.944187" y="1.05286" width="108.974" height="21.2271" rx="10.6135" transform="matrix(-0.998523 0.0543354 0.0543354 0.998523 246.537 83.4518)" fill="#923A5F" stroke="white" stroke-width="2"/>
<path d="M88.3135 108.817C85.8064 110.36 73.3886 129.337 70.8809 128.608L71.6298 142.372C73.0862 141.921 84.5038 161.256 94.306 164.51C103.839 167.675 109.85 168.015 119.334 168.636C128.622 169.243 142.061 164.508 145.981 161.698C137.031 155.062 139.818 145.957 142.33 142.234C139.512 139.42 140.74 133.417 141.706 130.768C138.919 124.398 140.919 114.368 142.591 109.042C142.768 108.567 142.917 108.117 143.042 107.694L145.028 130.587C145.798 133.389 148.731 138.77 154.309 137.873C159.887 136.975 161.519 132.039 161.638 129.683C161.49 120.169 161.241 100.619 161.423 98.5315C161.651 95.9221 141.941 80.671 135.566 79.1629C130.466 77.9565 125.567 79.0888 123.755 79.8057C115.832 83.8693 91.0966 107.104 88.3135 108.817Z" fill="#923A5F"/>
<path d="M143.042 107.694L145.028 130.587C145.798 133.389 148.731 138.77 154.309 137.873C159.887 136.975 161.519 132.039 161.638 129.683C161.49 120.169 161.241 100.619 161.423 98.5315C161.651 95.9221 141.941 80.671 135.566 79.1629C130.466 77.9565 125.567 79.0888 123.755 79.8057C115.832 83.8693 91.0966 107.104 88.3135 108.817C85.8064 110.36 73.3886 129.337 70.8809 128.608L71.6298 142.372C73.0862 141.921 84.5038 161.256 94.306 164.51C103.839 167.675 109.85 168.015 119.334 168.636C128.622 169.243 142.061 164.508 145.981 161.698C137.031 155.062 139.818 145.957 142.33 142.234C139.512 139.42 140.74 133.417 141.706 130.768C138.662 123.81 141.328 112.486 143.042 107.694ZM143.042 107.694C138.154 108.578 126.941 108.421 121.191 100.721M143.042 107.694C140.751 115.485 129.808 132.528 104.359 138.365" stroke="white" stroke-width="2"/>
<path d="M39.1537 142.42C16.5628 139.676 5.17381 123.77 2.30317 116.159C0.649154 110.519 -1.10512 98.086 5.10989 93.4697C12.8787 87.6994 16.7682 102.385 19.7693 109.479C22.1701 115.155 26.3003 111.543 28.0652 109.028C31.7499 103.777 36.3587 117.118 38.0058 122.631C39.7389 128.266 44.8999 122.244 45.57 121.837C48.3314 120.159 51.4723 118.907 52.9582 125.244C54.4441 131.58 64.8477 132.44 69.9626 131.78L70.7144 141.371C69.0534 141.554 67.3657 140.417 65.9108 141.346M39.1537 142.42C29.2141 149.072 9.94042 167.386 12.362 187.422C15.389 212.468 29.3502 202.541 29.1909 186.506C29.0634 173.679 34.1701 175.525 37.7419 177.638C40.1249 179.047 43.1539 175.739 45.3423 160.036C45.7162 157.353 46.6541 156.614 52.063 158.153C53.4851 158.076 56.2673 156.778 58.7673 148.992C59.928 146.976 62.5637 143.482 65.9108 141.346M39.1537 142.42C43.4121 143.345 58.7921 142.752 65.9108 141.346" stroke="#7ED957" stroke-width="4"/>
</g>
<rect x="0.5" y="0.5" width="249" height="249" stroke="white"/>
<defs>
<clipPath id="clip0_31_1131">
<rect width="250" height="250" fill="white"/>
</clipPath>
</defs>
</svg>
