<svg width="250" height="250" viewBox="0 0 250 250" fill="none" xmlns="http://www.w3.org/2000/svg">
<rect x="226.64" y="38" width="148.602" height="202.64" rx="20" transform="rotate(90 226.64 38)" fill="#923A5F"/>
<rect x="217.453" y="48.8075" width="118.882" height="184.267" rx="20" transform="rotate(90 217.453 48.8075)" fill="#FFBCD8"/>
<path d="M106.547 190.385C100.818 207.677 89.8369 212 85.0625 212H166.118C161.453 211.91 150.688 207.461 144.959 190.385H106.547Z" fill="#923A5F"/>
<path d="M127.586 83.4171C125.573 65.0995 117.2 56.51 113.266 54.5049C110.363 53.4053 104.016 52.5257 101.848 57.8036C99.139 64.401 106.686 66.9236 110.363 69.058C113.305 70.7656 111.589 74.2972 110.363 75.8495C107.804 79.0903 114.69 82.2596 117.529 83.3592C120.431 84.5234 117.523 89.0035 117.335 89.5685C116.561 91.897 116.014 94.5163 119.265 95.4477C122.516 96.3791 122.941 105.02 122.748 109.225H127.005C127.052 107.861 127.349 106.534 127.779 105.305M127.586 83.4171C130.682 75.0087 139.429 58.4634 149.646 59.55C162.418 60.9083 157.774 72.7449 149.646 73.327C143.144 73.7927 144.22 77.879 145.389 80.7006C146.169 82.583 144.576 85.2023 136.681 87.6861C135.332 88.1104 134.984 88.9088 135.912 93.2553C135.912 94.4196 135.332 96.7481 131.456 99.1346C130.467 100.171 128.769 102.478 127.779 105.305M127.586 83.4171C128.172 86.8519 128.295 99.432 127.779 105.305" stroke="#7ED957" stroke-width="3"/>
<path d="M144.691 111.864C145.776 111.864 147.795 117.096 148.669 119.712L149.296 128.732C149.445 128.876 150.869 130.175 151.562 130.806L157.89 135.858L154.636 159.22C154.093 160.152 152.502 162.143 150.477 162.648C148.452 163.153 135.289 162.858 128.961 162.648C128.419 161.716 127.93 159.148 130.317 156.334C137.76 155.853 152.701 154.151 152.918 151.192C153.135 148.233 152.104 136.369 151.562 130.806C150.869 130.175 149.445 128.876 149.296 128.732L150.839 150.921C146.789 152.581 141.437 152.214 139.267 151.824L136.555 127.83L134.837 128.01L137.007 152.635C131.366 155.017 125.496 154.65 123.266 154.169L120.192 129.724L118.293 129.904L121.096 153.628C117.48 156.009 112.176 155.642 109.976 155.161L106.089 131.257L104.19 131.348L107.355 151.102C104.968 153.483 100.635 153.116 98.7663 152.635C97.1691 146.111 93.8484 132.538 93.3421 130.446C92.8358 128.353 93.553 124.402 93.9749 122.688C95.9638 121.065 97.8623 120.884 98.5855 120.253C99.1641 119.748 100.876 120.223 101.659 120.523L102.744 120.433C103.829 120.884 106.812 115.472 106.903 115.111C106.993 114.75 113.412 113.578 113.592 113.848C113.737 114.065 115.28 114.66 116.033 114.931C116.395 115.021 117.245 115.147 117.751 114.931C118.384 114.66 120.553 111.593 120.734 110.962C120.915 110.331 128.057 109.789 128.69 109.88C129.323 109.97 132.487 114.029 133.752 114.209C134.765 114.354 136.645 112.946 137.459 112.225C138.544 111.774 143.335 111.864 144.691 111.864Z" fill="#923A5F"/>
<path d="M144.691 111.864C145.776 111.864 147.795 117.096 148.669 119.712L149.296 128.732C149.445 128.876 150.869 130.175 151.562 130.806L157.89 135.858L154.636 159.22C154.093 160.152 152.502 162.143 150.477 162.648C148.452 163.153 135.289 162.858 128.961 162.648C128.419 161.716 127.93 159.148 130.317 156.334C137.76 155.853 152.701 154.151 152.918 151.192C153.135 148.233 152.104 136.369 151.562 130.806C150.869 130.175 149.445 128.876 149.296 128.732L150.839 150.921C146.789 152.581 141.437 152.214 139.267 151.824L136.555 127.83L134.837 128.01L137.007 152.635C131.366 155.017 125.496 154.65 123.266 154.169L120.192 129.724L118.293 129.904L121.096 153.628C117.48 156.009 112.176 155.642 109.976 155.161L106.089 131.257L104.19 131.348L107.355 151.102C104.968 153.483 100.635 153.116 98.7663 152.635C97.1691 146.111 93.8484 132.538 93.3421 130.446C92.8358 128.353 93.553 124.402 93.9749 122.688C95.9638 121.065 97.8623 120.884 98.5855 120.253C99.1641 119.748 100.876 120.223 101.659 120.523L102.744 120.433C103.829 120.884 106.812 115.472 106.903 115.111C106.993 114.75 113.412 113.578 113.592 113.848C113.737 114.065 115.28 114.66 116.033 114.931C116.395 115.021 117.245 115.147 117.751 114.931C118.384 114.66 120.553 111.593 120.734 110.962C120.915 110.331 128.057 109.789 128.69 109.88C129.323 109.97 132.487 114.029 133.752 114.209C134.765 114.354 136.645 112.946 137.459 112.225C138.544 111.774 143.335 111.864 144.691 111.864Z" fill="#923A5F"/>
</svg>
