<svg width="250" height="250" viewBox="0 0 250 250" fill="none" xmlns="http://www.w3.org/2000/svg">
<g clip-path="url(#clip0_2_19)">
<rect x="-0.5" y="0.5" width="38" height="16" rx="8" transform="matrix(-1 0 0 1 165 199)" fill="#923A5F" stroke="white"/>
<rect x="-0.5" y="0.5" width="39" height="15" rx="7.5" transform="matrix(-1 0 0 1 167 189)" fill="#923A5F" stroke="white"/>
<rect x="-0.5" y="0.5" width="41" height="16" rx="8" transform="matrix(-1 0 0 1 168 177)" fill="#923A5F" stroke="white"/>
<rect x="-0.5" y="0.5" width="36" height="17" rx="8.5" transform="matrix(-1 0 0 1 165 162)" fill="#923A5F" stroke="white"/>
<path d="M91.4529 174.489C89.0851 174.707 79.7937 188.962 78 188.327V198.464C79.0763 198.191 87.7938 214.973 93.6056 215.627C100.87 216.444 108.942 218.079 115.669 219.714C121.05 221.021 128.315 217.534 131.274 215.627C125.032 210.396 127.418 203.822 129.391 201.188C127.454 199.009 128.584 194.65 129.391 192.743C127.617 187.954 129.467 180.668 130.893 176.824C131.04 176.482 131.167 176.157 131.274 175.852L131.812 192.743C132.261 194.831 134.18 198.9 138.27 198.464C142.36 198.028 143.741 194.468 143.92 192.743C144.189 185.75 144.781 171.384 144.996 169.858C145.265 167.951 131.543 155.964 126.969 154.602C123.31 153.512 119.704 154.148 118.359 154.602C110.377 161.14 93.8206 174.271 91.4529 174.489Z" fill="#923A5F"/>
<path d="M131.274 175.852L131.812 192.743C132.261 194.831 134.18 198.9 138.27 198.464C142.36 198.028 143.741 194.468 143.92 192.743C144.189 185.75 144.781 171.384 144.996 169.858C145.265 167.951 131.543 155.964 126.969 154.602C123.31 153.512 119.704 154.148 118.359 154.602C110.377 161.14 93.8206 174.271 91.4529 174.489C89.0851 174.707 79.7937 188.962 78 188.327V198.464C79.0763 198.191 87.7938 214.973 93.6056 215.627C100.87 216.444 108.942 218.079 115.669 219.714C121.05 221.021 128.315 217.534 131.274 215.627C125.032 210.396 127.418 203.822 129.391 201.188C127.454 199.009 128.584 194.65 129.391 192.743C127.454 187.512 129.839 179.303 131.274 175.852ZM131.274 175.852C127.687 176.306 119.543 175.743 115.669 169.858M131.274 175.852C129.301 181.482 120.673 193.56 101.946 196.829" stroke="white"/>
<path d="M64.8411 145.808C54.0834 126.945 41.2131 121.515 36.1227 121.158C32.5464 121.305 25.4453 123.273 25.651 129.971C25.9081 138.344 35.0477 137.599 39.9275 138.215C43.8314 138.707 43.6891 143.311 43.13 145.552C41.9628 150.229 50.7113 150.487 54.2196 150.37C57.8263 150.293 56.8752 156.47 56.9437 157.167C57.2263 160.038 57.8847 163.12 61.7486 162.631C65.6124 162.143 76.4731 194.369 78.2517 199L78.3142 188.557L76.3991 173.956C75.8053 172.461 75.4922 170.891 75.3661 169.365M64.8411 145.808C64.1376 135.301 65.5497 113.404 76.8253 109.88C90.9198 105.475 91.609 120.398 83.3218 124.764C76.6921 128.257 79.7525 132.177 82.3142 134.687C84.0232 136.363 83.5808 139.925 76.435 146.238C75.2141 147.317 75.2237 148.339 78.2517 152.608C78.8007 153.866 79.2872 156.648 76.3296 161.009C75.7766 162.584 75.0761 165.856 75.3661 169.365M64.8411 145.808C67.0783 149.249 73.1403 162.783 75.3661 169.365" stroke="#7ED957" stroke-width="4"/>
<path d="M161.647 145.793L155.569 144.165C160.145 130.733 155.136 124.506 152.199 123.312L154.513 116.196C169.844 112.161 167.892 92.0949 164.073 86.5931L166.767 79.5791C183.167 75.5049 185.698 52.4871 184.747 42.8679L190.281 54.1223C191.658 72.0799 179.059 82.3297 172.105 85.488C179.256 104.993 167.734 118.517 160.434 121.447C165.877 129.094 163.476 140.991 161.647 145.793Z" fill="#7ED957"/>
<path d="M184.748 42.8677C166.294 69.1919 147.742 136.91 140.773 167.478L143.276 171.814L135.438 201.064L131.103 203.567L120.087 200.615L117.584 196.28L125.421 167.03L129.757 164.527C141.891 101.006 168.092 46.2761 179.675 26.8513C183.832 24.708 187.232 27.519 188.412 29.1923L220.676 101.759L214.896 105.096L184.748 42.8677Z" fill="#7ED957"/>
<path d="M155.277 155.893L157.86 178.164L166.003 178.164" stroke="#7ED957" stroke-width="7" stroke-linecap="round"/>
<circle cx="155.352" cy="157.135" r="8.97799" transform="rotate(15 155.352 157.135)" stroke="#7ED957" stroke-width="8"/>
<circle cx="221.299" cy="110.069" r="5.65199" transform="rotate(15 221.299 110.069)" stroke="#7ED957" stroke-width="6"/>
<path d="M232.815 140.026L221.441 118.657L227.221 115.32L238.872 137.171C240.885 157.522 220.928 157.264 214.245 150.588L207.912 138.811L209.567 136.136L220.219 139.338C222.35 139.978 222.597 142.376 222.454 143.494L218.991 145.357L220.108 147.435C229.375 151.382 232.405 143.968 232.815 140.026Z" fill="#7ED957"/>
<path d="M126.066 155.046C122.806 154.062 118.198 169.306 117 169.716C120.452 175.027 128.736 176.375 131.932 175.965L132.998 192.809C133.398 194.694 135.221 198.364 138.864 197.971C142.508 197.577 143.771 194.366 143.931 192.809C144.17 186.498 144.805 171.365 144.997 169.988C145.237 168.267 130.141 156.275 126.066 155.046Z" fill="#923A5F"/>
<path d="M25.2761 159.782L16.8937 128.567C16.8937 128.567 33.6246 116.074 45.1801 109.402C56.7355 102.731 75.9208 94.488 75.9208 94.488L98.762 117.355L126.289 124.763C126.289 124.763 109.726 130.641 99.918 136.053C88.2073 142.514 72.1088 156.044 72.1088 156.044C72.1088 156.044 52.3419 163.221 40.8909 170.132C31.3002 175.92 17.9288 187.325 17.9288 187.325L25.2761 159.782Z" fill="#7ED957"/>
<rect x="51.9297" y="142.316" width="5.44015" height="5.44015" rx="2.72008" transform="rotate(-30 51.9297 142.316)" fill="#213A17"/>
<rect x="65.5303" y="134.699" width="5.44015" height="5.44015" rx="2.72008" transform="rotate(-30 65.5303 134.699)" fill="#213A17"/>
</g>
<defs>
<clipPath id="clip0_2_19">
<rect width="250" height="250" fill="white"/>
</clipPath>
</defs>
</svg>
