<svg width="250" height="250" viewBox="0 0 250 250" fill="none" xmlns="http://www.w3.org/2000/svg">
<path d="M128.674 65.3592C125.278 33.7326 111.147 18.9021 104.506 15.4402C99.607 13.5417 88.8945 12.0229 85.2366 21.1356C80.6642 32.5266 93.4015 36.8819 99.6072 40.5672C104.572 43.5155 101.676 49.613 99.6072 52.2932C95.2887 57.8886 106.911 63.3607 111.701 65.2592C116.6 67.2693 111.691 75.0046 111.374 75.9801C110.068 80.0004 109.144 84.5228 114.631 86.1309C120.117 87.7391 120.836 102.659 120.509 109.918H127.694C127.774 107.563 128.275 105.272 129.001 103.15M128.674 65.3592C133.9 50.8414 148.662 22.2748 165.906 24.1509C187.462 26.4961 179.623 46.9328 165.906 47.9379C154.933 48.7419 156.749 55.7972 158.721 60.6689C160.037 63.9191 157.35 68.4416 144.024 72.7299C141.748 73.4626 141.16 74.841 142.728 82.3456C142.728 84.3557 141.748 88.3761 135.206 92.4965C133.537 94.2868 130.672 98.2692 129.001 103.15M128.674 65.3592C129.664 71.2897 129.872 93.01 129.001 103.15" stroke="#7ED957" stroke-width="8"/>
<circle cx="124.811" cy="172.783" r="62.6684" stroke="#923A5F" stroke-width="10"/>
<path d="M139.312 153.603C140.151 153.603 141.712 157.693 142.388 159.738L142.873 166.79C142.988 166.902 144.089 167.918 144.625 168.412L149.518 172.36L147.001 190.624C146.582 191.353 145.352 192.909 143.786 193.304C142.22 193.699 132.042 193.468 127.148 193.304C126.729 192.575 126.351 190.568 128.197 188.368C133.952 187.992 145.505 186.661 145.673 184.348C145.841 182.035 145.044 172.76 144.625 168.412C144.089 167.918 142.988 166.902 142.873 166.79L144.065 184.137C140.934 185.434 136.795 185.147 135.117 184.842L133.02 166.084L131.692 166.226L133.37 185.477C129.008 187.338 124.468 187.051 122.744 186.675L120.367 167.565L118.899 167.706L121.066 186.252C118.27 188.114 114.169 187.827 112.468 187.451L109.462 168.764L107.994 168.835L110.441 184.278C108.595 186.139 105.244 185.853 103.8 185.477C102.565 180.376 99.9968 169.765 99.6053 168.129C99.2139 166.493 99.7685 163.405 100.095 162.065C101.633 160.796 103.101 160.655 103.66 160.161C104.107 159.766 105.431 160.138 106.037 160.373L106.876 160.302C107.714 160.655 110.021 156.424 110.091 156.142C110.161 155.86 115.124 154.943 115.264 155.154C115.376 155.324 116.569 155.789 117.152 156.001C117.431 156.071 118.088 156.17 118.48 156.001C118.969 155.789 120.647 153.391 120.787 152.898C120.927 152.404 126.449 151.981 126.938 152.052C127.428 152.122 129.875 155.295 130.853 155.436C131.636 155.549 133.09 154.449 133.719 153.885C134.558 153.532 138.263 153.603 139.312 153.603Z" fill="#923A5F"/>
<rect x="119.743" y="109.918" width="9.50265" height="32.4047" rx="4.75132" fill="#923A5F"/>
<rect x="119.743" y="202.595" width="9.50265" height="32.4047" rx="4.75132" fill="#923A5F"/>
<rect x="184.995" y="167.598" width="9.72141" height="31.6755" rx="4.8607" transform="rotate(90 184.995 167.598)" fill="#923A5F"/>
<rect x="95.6699" y="167.598" width="9.72141" height="31.6755" rx="4.8607" transform="rotate(90 95.6699 167.598)" fill="#923A5F"/>
</svg>
