<svg width="250" height="250" viewBox="0 0 250 250" fill="none" xmlns="http://www.w3.org/2000/svg">
<rect x="30.5" y="30.5" width="189" height="189" rx="19.5" fill="#FFD2E5" stroke="#923A5F"/>
<path d="M30 50C30 38.9543 38.9543 30 50 30H200C211.046 30 220 38.9543 220 50V53H30V50Z" fill="#923A5F"/>
<rect x="201" y="35" width="11" height="13" rx="5" fill="#FF0000"/>
<rect x="186" y="35" width="13" height="13" rx="5" fill="#692C46"/>
<rect x="173" y="35" width="11" height="13" rx="5" fill="#692C46"/>
<path d="M40.321 49V38.0909H41.642V42.9489H47.4588V38.0909H48.7798V49H47.4588V44.1207H41.642V49H40.321ZM50.8279 39.2628V38.0909H59.0098V39.2628H55.5794V49H54.2583V39.2628H50.8279ZM60.452 39.2628V38.0909H68.6338V39.2628H65.2034V49H63.8824V39.2628H60.452ZM70.6726 49V38.0909H74.3587C75.2145 38.0909 75.9141 38.2454 76.4574 38.5543C77.0043 38.8597 77.4091 39.2734 77.6719 39.7955C77.9347 40.3175 78.0661 40.8999 78.0661 41.5426C78.0661 42.1854 77.9347 42.7695 77.6719 43.2951C77.4126 43.8207 77.0114 44.2397 76.468 44.5522C75.9247 44.8612 75.2287 45.0156 74.38 45.0156H71.7379V43.8438H74.3374C74.9233 43.8438 75.3938 43.7425 75.7489 43.5401C76.104 43.3377 76.3615 43.0643 76.5213 42.7198C76.6847 42.3718 76.7663 41.9794 76.7663 41.5426C76.7663 41.1058 76.6847 40.7152 76.5213 40.3707C76.3615 40.0263 76.1023 39.7564 75.7436 39.5611C75.3849 39.3622 74.9091 39.2628 74.3161 39.2628H71.9936V49H70.6726Z" fill="white"/>
<path d="M126.497 97.0953C124.852 82.2576 118.012 75.2998 114.797 73.6757C112.426 72.785 107.24 72.0724 105.47 76.3477C103.256 81.6918 109.422 83.7351 112.426 85.464C114.829 86.8472 113.427 89.7079 112.426 90.9653C110.336 93.5904 115.961 96.1576 118.28 97.0483C120.652 97.9914 118.276 101.62 118.122 102.078C117.49 103.964 117.042 106.086 119.698 106.84C122.354 107.595 122.702 114.594 122.544 118H126.022C126.061 116.895 126.303 115.82 126.655 114.825M126.497 97.0953C129.026 90.2842 136.172 76.8821 144.52 77.7623C154.954 78.8626 151.16 88.4505 144.52 88.922C139.208 89.2992 140.087 92.6092 141.042 94.8948C141.679 96.4196 140.378 98.5413 133.927 100.553C132.825 100.897 132.541 101.544 133.3 105.064C133.3 106.007 132.825 107.894 129.659 109.827C128.851 110.667 127.464 112.535 126.655 114.825M126.497 97.0953C126.976 99.8775 127.076 110.068 126.655 114.825" stroke="#7ED957" stroke-width="4"/>
<ellipse cx="125" cy="153.5" rx="35" ry="35.5" fill="#923A5F"/>
<path d="M130.736 172.48C130.608 172.48 130.48 172.432 130.352 172.336C130.224 172.24 130.128 172.032 130.064 171.712L126.368 156.832C126.336 156.576 126.24 156.464 126.08 156.496C125.92 156.496 125.808 156.608 125.744 156.832L121.616 171.712C121.52 172.032 121.408 172.24 121.28 172.336C121.184 172.432 121.072 172.48 120.944 172.48C120.816 172.48 120.672 172.432 120.512 172.336C120.384 172.24 120.288 172.032 120.224 171.712L112.64 141.28C112.416 140.384 112.16 139.76 111.872 139.408C111.616 139.056 111.168 138.816 110.528 138.688L109.808 138.544C109.36 138.448 109.136 138.24 109.136 137.92C109.136 137.6 109.376 137.44 109.856 137.44H117.584C118.032 137.44 118.256 137.616 118.256 137.968C118.256 138.256 118.016 138.448 117.536 138.544L117.008 138.64C116.464 138.736 116.112 138.928 115.952 139.216C115.824 139.472 115.84 139.952 116 140.656L121.664 164.08C121.728 164.304 121.824 164.416 121.952 164.416C122.112 164.416 122.224 164.304 122.288 164.08L124.448 156.256C124.8 155.04 124.976 153.92 124.976 152.896C124.976 151.872 124.816 150.736 124.496 149.488L122.48 141.28C122.256 140.384 122.032 139.744 121.808 139.36C121.616 138.976 121.344 138.752 120.992 138.688L120.272 138.544C119.824 138.448 119.6 138.24 119.6 137.92C119.6 137.6 119.84 137.44 120.32 137.44H126.896C127.344 137.44 127.568 137.616 127.568 137.968C127.568 138.256 127.328 138.448 126.848 138.544L126.32 138.64C125.904 138.704 125.648 138.88 125.552 139.168C125.488 139.456 125.536 139.952 125.696 140.656L127.328 147.52C127.392 147.744 127.488 147.856 127.616 147.856C127.776 147.856 127.888 147.744 127.952 147.52L129.68 141.664C130.032 140.448 130.16 139.648 130.064 139.264C130 138.88 129.824 138.672 129.536 138.64L129.008 138.544C128.528 138.448 128.288 138.256 128.288 137.968C128.288 137.616 128.512 137.44 128.96 137.44H133.52C134.064 137.44 134.336 137.616 134.336 137.968C134.336 138.288 134.064 138.48 133.52 138.544L132.992 138.592C132.576 138.624 132.224 138.88 131.936 139.36C131.68 139.84 131.392 140.624 131.072 141.712L129.248 148C128.896 149.184 128.704 150.304 128.672 151.36C128.672 152.384 128.816 153.52 129.104 154.768L131.264 163.792C131.328 164.016 131.424 164.128 131.552 164.128C131.712 164.128 131.808 164.016 131.84 163.792L137.36 141.664C137.808 139.808 137.52 138.8 136.496 138.64L135.968 138.544C135.488 138.448 135.248 138.24 135.248 137.92C135.248 137.6 135.472 137.44 135.92 137.44H141.296C141.84 137.44 142.112 137.616 142.112 137.968C142.112 138.288 141.84 138.48 141.296 138.544L140.768 138.592C140.352 138.624 139.984 138.88 139.664 139.36C139.376 139.808 139.104 140.592 138.848 141.712L131.408 171.712C131.344 172.032 131.248 172.24 131.12 172.336C130.992 172.432 130.864 172.48 130.736 172.48Z" fill="white"/>
</svg>
