<svg width="250" height="250" viewBox="0 0 250 250" fill="none" xmlns="http://www.w3.org/2000/svg">
<g clip-path="url(#clip0_89_54)">
<path d="M95.3342 37.6436C100.989 14.1584 113.172 4.37532 118.557 2.41942C122.465 1.47013 130.756 1.37696 132.651 8.59859C135.02 17.6256 124.915 19.6565 119.839 21.8233C115.779 23.5567 117.388 28.4328 118.7 30.6542C121.439 35.2917 112.072 38.2729 108.247 39.2329C104.327 40.2663 107.307 46.5732 107.453 47.3389C108.056 50.4948 108.319 53.9913 103.992 54.6643C99.6644 55.3372 97.6685 66.5031 97.2115 72.0019L91.7495 71.2972C91.9182 69.5159 91.76 67.7412 91.414 66.0722M95.3342 37.6436C92.7725 26.1976 84.3263 3.236 71.0353 2.95769C54.4216 2.60981 58.3944 18.7696 68.7241 20.8718C76.9879 22.5536 74.9219 27.6889 72.9491 31.1644C71.6329 33.483 73.2366 37.1525 82.9493 41.689C84.6088 42.4641 84.9217 43.5598 83.0008 49.0579C82.8055 50.5717 83.1597 53.6956 87.732 57.4403C88.8271 58.9523 90.6179 62.2324 91.414 66.0722M95.3342 37.6436C94.0059 42.0128 91.7372 58.3502 91.414 66.0722" stroke="#7ED957" stroke-width="4"/>
<path d="M233.703 237.998C237.181 240.786 237.74 245.865 234.953 249.343V249.343C232.165 252.821 227.086 253.381 223.608 250.593L152.096 193.277L162.191 180.682L233.703 237.998Z" fill="#923A5F"/>
<path d="M130.5 100.357C136.555 100.357 141.5 105.485 141.5 111.857C141.5 118.228 136.555 123.357 130.5 123.357C124.445 123.357 119.5 118.228 119.5 111.857C119.5 105.485 124.445 100.357 130.5 100.357Z" fill="#B25A7F" stroke="#923A5F"/>
<path d="M41 167.337L77.2023 123.857L101.216 163.27L130.798 134.574L166.5 173L156.9 191.965L127 209L90.105 213.857L45.88 191.965L41 167.337Z" fill="#B25A7F"/>
<path d="M127 209L101.216 163.27M127 209L156.9 191.965L166.5 173L130.798 134.574L101.216 163.27M127 209L90.105 213.857L45.88 191.965L41 167.337L77.2023 123.857L101.216 163.27" stroke="#923A5F"/>
<circle cx="103.696" cy="144.099" r="70.6858" transform="rotate(13.7306 103.696 144.099)" stroke="#923A5F" stroke-width="12"/>
</g>
<defs>
<clipPath id="clip0_89_54">
<rect width="250" height="250" fill="white"/>
</clipPath>
</defs>
</svg>
