<svg width="250" height="250" viewBox="0 0 250 250" fill="none" xmlns="http://www.w3.org/2000/svg">
<g clip-path="url(#clip0_88_649)">
<rect x="35" y="62" width="180" height="180" rx="10" fill="#923A5F" stroke="#B25A7F" stroke-width="20"/>
<circle cx="173.662" cy="110.931" r="19.0686" fill="#FFD7E8" stroke="#B25A7F" stroke-width="3"/>
<path d="M123.366 26.7725C121.579 10.2862 114.144 2.55536 110.649 0.750727C108.072 -0.238916 102.435 -1.03063 100.51 3.71965C98.1046 9.65751 104.807 11.9279 108.072 13.8489C110.684 15.3858 109.16 18.5643 108.072 19.9614C105.8 22.8782 111.915 25.7307 114.435 26.7204C117.013 27.7682 114.43 31.8004 114.263 32.3089C113.576 34.4046 113.09 36.7621 115.977 37.6004C118.864 38.4386 119.242 46.2161 119.07 50H122.85C122.892 48.7724 123.156 47.578 123.538 46.4721M123.366 26.7725C126.115 19.2047 133.883 4.31347 142.956 5.29147C154.298 6.51397 150.174 17.1672 142.956 17.6911C137.182 18.1103 138.138 21.788 139.176 24.3275C139.868 26.0218 138.454 28.3793 131.443 30.6147C130.245 30.9966 129.935 31.7151 130.76 35.6271C130.76 36.675 130.245 38.7707 126.803 40.9186C125.924 41.8519 124.417 43.9278 123.538 46.4721M123.366 26.7725C123.887 29.8639 123.996 41.1863 123.538 46.4721" stroke="#7ED957" stroke-width="4"/>
<path d="M192.674 225.855L56.7575 225.968L122.44 140.679L192.674 225.855Z" fill="#FFD7E8" stroke="#FFC5DE" stroke-width="11.4"/>
<path d="M146.942 158.365C148.753 156.843 151.227 157.091 152.797 158.951L184.063 195.994C186.014 198.306 185.796 202.126 183.599 204.105L174.254 212.527C172.418 214.181 169.828 213.948 168.224 211.985L137.272 174.106C135.331 171.729 135.633 167.862 137.911 165.95L146.942 158.365Z" fill="#FFC5DE"/>
<circle cx="169.218" cy="177.851" r="10.5468" transform="rotate(45 169.218 177.851)" fill="#FFC5DE"/>
<circle cx="169.218" cy="177.851" r="5.27342" transform="rotate(45 169.218 177.851)" fill="#923A5F"/>
<path d="M122.488 219.705H67.2106L122.325 146.99L122.488 219.705Z" fill="#FF7EB4"/>
<path d="M122.488 219.705H67.2106L122.325 146.99L122.488 219.705Z" stroke="#923A5F"/>
</g>
<defs>
<clipPath id="clip0_88_649">
<rect width="250" height="250" fill="white"/>
</clipPath>
</defs>
</svg>
