<svg width="250" height="250" viewBox="0 0 250 250" fill="none" xmlns="http://www.w3.org/2000/svg">
<g clip-path="url(#clip0_88_661)">
<rect x="72.5" y="123.5" width="10" height="19" rx="5" stroke="#7ED957" stroke-width="5"/>
<rect x="72.5" y="138.5" width="10" height="18" rx="5" stroke="#7ED957" stroke-width="5"/>
<rect x="72" y="123" width="11" height="20" rx="5.5" stroke="#7ED957" stroke-width="4"/>
<rect x="82.2276" y="110.598" width="10.8242" height="18.7364" rx="5.41212" transform="rotate(30 82.2276 110.598)" stroke="#7ED957" stroke-width="5"/>
<rect x="82.0446" y="109.915" width="11.8242" height="19.7364" rx="5.91212" transform="rotate(30 82.0446 109.915)" stroke="#5DA33F" stroke-width="4"/>
<rect x="94.1406" y="99.641" width="10.8242" height="18.7364" rx="5.41212" transform="rotate(45 94.1406 99.641)" stroke="#7ED957" stroke-width="5"/>
<rect x="94.1406" y="99.641" width="10.8242" height="18.7364" rx="5.41212" transform="rotate(45 94.1406 99.641)" stroke="#7ED957" stroke-width="5"/>
<rect x="110.384" y="96.0024" width="10.8242" height="18.7364" rx="5.41212" transform="rotate(75 110.384 96.0024)" stroke="#7ED957" stroke-width="5"/>
<rect x="110.384" y="96.0024" width="10.8242" height="18.7364" rx="5.41212" transform="rotate(75 110.384 96.0024)" stroke="#7ED957" stroke-width="5"/>
<rect x="125.5" y="96.5" width="11" height="18" rx="5.5" transform="rotate(90 125.5 96.5)" stroke="#7ED957" stroke-width="5"/>
<rect x="125.5" y="96.5" width="11" height="18" rx="5.5" transform="rotate(90 125.5 96.5)" stroke="#7ED957" stroke-width="5"/>
<rect x="72" y="138" width="11" height="19" rx="5.5" stroke="#5DA33F" stroke-width="4"/>
<rect x="72.5" y="153.5" width="10" height="18" rx="5" stroke="#7ED957" stroke-width="5"/>
<rect x="72.5" y="167.5" width="10" height="18" rx="5" stroke="#7ED957" stroke-width="5"/>
<rect x="72" y="153" width="11" height="19" rx="5.5" stroke="#7ED957" stroke-width="4"/>
<rect x="72" y="167" width="11" height="19" rx="5.5" stroke="#5DA33F" stroke-width="4"/>
<rect x="-2.5" y="2.5" width="10" height="19" rx="5" transform="matrix(-1 0 0 1 169 121)" stroke="#7ED957" stroke-width="5"/>
<rect x="-2.5" y="2.5" width="10" height="18" rx="5" transform="matrix(-1 0 0 1 169 136)" stroke="#7ED957" stroke-width="5"/>
<rect x="-2" y="2" width="11" height="20" rx="5.5" transform="matrix(-1 0 0 1 170 121)" stroke="#5DA33F" stroke-width="4"/>
<rect x="-0.915063" y="3.41506" width="10.8242" height="18.7364" rx="5.41212" transform="matrix(-0.866025 0.5 0.5 0.866025 159.392 108.098)" stroke="#7ED957" stroke-width="5"/>
<rect x="-0.732051" y="2.73205" width="11.8242" height="19.7364" rx="5.91212" transform="matrix(-0.866025 0.5 0.5 0.866025 160.075 107.915)" stroke="#7ED957" stroke-width="4"/>
<rect y="3.53553" width="10.8242" height="18.7364" rx="5.41212" transform="matrix(-0.707107 0.707107 0.707107 0.707107 147.48 97.141)" stroke="#7ED957" stroke-width="5"/>
<rect y="2.82843" width="11.8242" height="19.7364" rx="5.91212" transform="matrix(-0.707107 0.707107 0.707107 0.707107 147.98 96.9339)" stroke="#5DA33F" stroke-width="4"/>
<rect x="1.76777" y="3.06186" width="10.8242" height="18.7364" rx="5.41212" transform="matrix(-0.258819 0.965926 0.965926 0.258819 131.236 93.5024)" stroke="#7ED957" stroke-width="5"/>
<rect x="1.76777" y="3.06186" width="10.8242" height="18.7364" rx="5.41212" transform="matrix(-0.258819 0.965926 0.965926 0.258819 131.236 93.5024)" stroke="#7ED957" stroke-width="5"/>
<rect x="2.5" y="2.5" width="11" height="18" rx="5.5" transform="matrix(3.39767e-08 1 1 -3.39767e-08 116 94)" stroke="#7ED957" stroke-width="5"/>
<rect x="2.5" y="2.5" width="11" height="18" rx="5.5" transform="matrix(3.39767e-08 1 1 -3.39767e-08 116 94)" stroke="#7ED957" stroke-width="5"/>
<rect x="-2" y="2" width="11" height="19" rx="5.5" transform="matrix(-1 0 0 1 170 136)" stroke="#7ED957" stroke-width="4"/>
<rect x="-2.5" y="2.5" width="10" height="18" rx="5" transform="matrix(-1 0 0 1 169 151)" stroke="#7ED957" stroke-width="5"/>
<rect x="-2" y="2" width="11" height="19" rx="5.5" transform="matrix(-1 0 0 1 170 165)" stroke="#7ED957" stroke-width="4"/>
<rect x="-2" y="2" width="11" height="19" rx="5.5" transform="matrix(-1 0 0 1 170 151)" stroke="#5DA33F" stroke-width="4"/>
<rect x="-2" y="2" width="11" height="19" rx="5.5" transform="matrix(-1 0 0 1 81 179)" stroke="#7ED957" stroke-width="4"/>
<rect x="72.5" y="197.5" width="10" height="18" rx="5" stroke="#7ED957" stroke-width="5"/>
<rect x="72" y="197" width="11" height="19" rx="5.5" stroke="#5DA33F" stroke-width="4"/>
<rect x="-2" y="2" width="11" height="20" rx="5.5" transform="matrix(-1 0 0 1 81 208)" stroke="#7ED957" stroke-width="4"/>
<path d="M124.451 42.6942C121.663 17.635 110.064 5.88415 104.613 3.1411C100.592 1.63685 91.7987 0.433442 88.7962 7.65387C85.0431 16.6794 95.4982 20.1304 100.592 23.0504C104.667 25.3864 102.29 30.2177 100.592 32.3414C97.0472 36.7749 106.587 41.1107 110.519 42.6149C114.54 44.2077 110.511 50.3366 110.251 51.1096C109.178 54.295 108.42 57.8784 112.923 59.1525C117.427 60.4267 118.017 72.2484 117.749 78H123.647C123.712 76.1341 124.123 74.3186 124.719 72.6376M124.451 42.6942C128.74 31.1911 140.857 8.55648 155.012 10.043C172.705 11.9012 166.271 28.0941 155.012 28.8905C146.004 29.5276 147.495 35.1178 149.114 38.9779C150.194 41.5531 147.988 45.1365 137.051 48.5343C135.182 49.1148 134.699 50.207 135.986 56.1532C135.986 57.746 135.182 60.9315 129.812 64.1963C128.442 65.6148 126.091 68.7702 124.719 72.6376M124.451 42.6942C125.263 47.3932 125.434 64.6031 124.719 72.6376" stroke="#7ED957" stroke-width="5"/>
<path d="M148.646 80.7439C150.155 80.7439 152.962 87.9421 154.177 91.5412L155.049 103.952C155.257 104.151 157.236 105.938 158.2 106.806L167 113.756L162.474 145.9C161.72 147.183 159.508 149.921 156.692 150.616C153.876 151.311 135.572 150.906 126.772 150.616C126.018 149.334 125.339 145.801 128.658 141.929C139.008 141.267 159.784 138.925 160.086 134.855C160.388 130.784 158.954 114.46 158.2 106.806C157.236 105.938 155.257 104.151 155.049 103.952L157.195 134.482C151.563 136.766 144.121 136.261 141.103 135.723L137.332 102.711L134.944 102.959L137.961 136.84C130.116 140.117 121.953 139.612 118.853 138.95L114.578 105.317L111.938 105.565L115.835 138.206C110.807 141.482 103.432 140.977 100.373 140.315L94.9674 107.427L92.3275 107.551L96.7274 134.731C93.4086 138.007 87.3828 137.502 84.7848 136.84C82.5639 127.863 77.9461 109.189 77.2421 106.31C76.5381 103.431 77.5355 97.9948 78.1221 95.6368C80.8878 93.4029 83.5277 93.1546 84.5334 92.2859C85.3379 91.5909 87.7181 92.2445 88.8076 92.6582L90.3161 92.5341C91.8246 93.1546 95.9731 85.7082 96.0988 85.2118C96.2245 84.7154 105.15 83.102 105.401 83.4743C105.603 83.7721 107.748 84.5913 108.796 84.9636C109.299 85.0877 110.48 85.2614 111.184 84.9636C112.064 84.5913 115.081 80.3716 115.333 79.5029C115.584 78.6341 125.515 77.8895 126.395 78.0136C127.275 78.1377 131.675 83.7225 133.435 83.9707C134.843 84.1693 137.458 82.2332 138.589 81.2403C140.098 80.6198 146.761 80.7439 148.646 80.7439Z" fill="#923A5F"/>
<path d="M67.5258 222.015C66.9894 222.015 65.9912 224.677 65.5591 226.008L65.2491 230.599C65.1753 230.672 64.4715 231.333 64.1288 231.654L61 234.225L62.6091 246.114C62.8773 246.588 63.664 247.601 64.6652 247.858C65.6664 248.115 72.1743 247.965 75.3032 247.858C75.5713 247.384 75.8127 246.077 74.6327 244.645C70.9526 244.4 63.5656 243.534 63.4584 242.028C63.3511 240.523 63.8606 234.485 64.1288 231.654C64.4715 231.333 65.1753 230.672 65.2491 230.599L64.4864 241.891C66.4888 242.735 69.1349 242.549 70.2077 242.35L71.5486 230.14L72.3978 230.231L71.3251 242.763C74.1142 243.975 77.0166 243.788 78.1191 243.543L79.6388 231.104L80.5774 231.195L79.1918 243.268C80.9797 244.48 83.602 244.293 84.6896 244.048L86.6116 231.884L87.5502 231.93L85.9858 241.983C87.1658 243.194 89.3083 243.008 90.2321 242.763C91.0217 239.443 92.6636 232.536 92.9139 231.471C93.1642 230.406 92.8096 228.395 92.601 227.523C91.6177 226.697 90.679 226.605 90.3215 226.284C90.0354 226.027 89.1891 226.269 88.8018 226.422L88.2654 226.376C87.729 226.605 86.254 223.851 86.2093 223.667C86.1646 223.484 82.9911 222.887 82.9017 223.025C82.8302 223.135 82.0673 223.438 81.6949 223.576C81.5161 223.621 81.0959 223.686 80.8456 223.576C80.5327 223.438 79.46 221.877 79.3706 221.556C79.2812 221.235 75.7501 220.959 75.4372 221.005C75.1244 221.051 73.5599 223.117 72.9342 223.208C72.4336 223.282 71.5039 222.566 71.1016 222.198C70.5652 221.969 68.1963 222.015 67.5258 222.015Z" fill="#923A5F"/>
<path d="M179.476 186.196C179.974 186.417 179.834 189.228 179.703 190.606L178.153 194.871C178.192 194.968 178.58 195.854 178.77 196.284L180.644 199.89L174.392 209.944C173.954 210.261 172.819 210.85 171.787 210.669C170.755 210.488 164.777 207.672 161.917 206.287C161.858 205.749 162.157 204.472 163.825 203.667C167.338 204.962 174.538 207.225 175.24 205.912C175.942 204.599 177.886 198.946 178.77 196.284C178.58 195.854 178.192 194.968 178.153 194.871L174.341 205.364C172.145 205.3 169.765 204.042 168.849 203.421L172.492 191.862L171.668 191.595L167.647 203.333C164.575 203.276 161.957 201.912 161.032 201.237L164.601 189.399L163.693 189.095L160.147 200.547C158.003 200.903 155.645 199.655 154.734 198.986L157.819 187.229L156.93 186.884L154.358 196.59C152.778 197.196 150.865 196.145 150.106 195.544C150.702 192.226 151.944 185.324 152.138 184.261C152.332 183.198 153.465 181.532 154.008 180.831C155.251 180.492 156.158 180.796 156.619 180.653C156.987 180.539 157.675 181.106 157.974 181.403L158.49 181.583C158.895 182.011 161.366 180.136 161.481 179.989C161.596 179.842 164.779 180.611 164.807 180.772C164.829 180.901 165.416 181.488 165.706 181.766C165.854 181.881 166.218 182.112 166.494 182.116C166.839 182.12 168.459 181.156 168.671 180.903C168.882 180.65 172.269 181.856 172.541 182.027C172.812 182.197 173.437 184.703 173.981 185.044C174.416 185.316 175.565 185.054 176.085 184.888C176.675 184.903 178.854 185.92 179.476 186.196Z" fill="#923A5F"/>
</g>
<defs>
<clipPath id="clip0_88_661">
<rect width="250" height="250" fill="white"/>
</clipPath>
</defs>
</svg>
