<svg width="250" height="250" viewBox="0 0 250 250" fill="none" xmlns="http://www.w3.org/2000/svg">
<mask id="path-1-inside-1_31_1125" fill="white">
<rect x="11" y="12" width="225" height="200" rx="5"/>
</mask>
<rect x="11" y="12" width="225" height="200" rx="5" fill="#FFD7E8" stroke="#923A5F" stroke-width="40" mask="url(#path-1-inside-1_31_1125)"/>
<path d="M105.378 65.8018C105.409 65.8696 105.441 65.9404 105.473 66.0139" stroke="#7ED957" stroke-width="3"/>
<path d="M108.025 34.2803C114.646 45.8005 124.526 59.2017 136.84 70.6465C152.552 85.2492 172.906 97.2597 196.077 97.4541C186.303 106.714 177.071 118.6 171.993 130.462C168.215 139.287 166.427 148.829 169.311 157.465C170.861 162.107 173.645 166.148 177.67 169.501C169.581 171.165 160.801 173.71 152.771 177.519C142.095 182.581 132.085 190.227 127.386 201.535C125.892 200.493 124.275 199.583 122.612 198.784C117.211 196.191 110.386 194.318 102.972 192.947C91.7118 190.866 78.4905 189.841 65.5488 189.465C66.7524 185.683 67.0098 181.089 66.5371 176.001C65.4685 164.5 60.4885 148.612 50.5146 128.866C51.2339 128.573 51.9422 128.247 52.6328 127.896C55.9334 126.215 59.396 123.714 62.8711 120.637C69.8324 114.473 77.3044 105.583 84.166 94.9365C94.87 78.3279 104.38 56.9802 108.025 34.2803Z" fill="white" stroke="#FF0F74" stroke-width="10"/>
<path d="M110 46.9997C111.794 49.3385 129.791 56.9337 119.687 63.3612C117.961 64.4594 117.773 65.7055 120.699 71.432C121.135 73.059 121.196 76.5306 116.673 81.3171C115.679 83.1366 114.17 86.9956 113.845 91.3171M113.845 91.3171C112.854 85.6861 107.188 61.6852 104.999 54.4986M113.845 91.3171C113.703 93.1954 113.786 95.1612 114.231 97.0848L108.281 98.679C107.283 94.125 101.303 78.0624 98 74.5002" stroke="#7ED957" stroke-width="3"/>
<path d="M108.025 34.2803C114.646 45.8005 124.526 59.2017 136.84 70.6465C152.552 85.2492 172.906 97.2597 196.077 97.4541C186.303 106.714 177.071 118.6 171.993 130.462C168.215 139.287 166.427 148.829 169.311 157.465C170.861 162.107 173.645 166.148 177.67 169.501C169.581 171.165 160.801 173.71 152.771 177.519C142.095 182.581 132.085 190.227 127.386 201.535C125.892 200.493 124.275 199.583 122.612 198.784C117.211 196.191 110.386 194.318 102.972 192.947C91.7118 190.866 78.4905 189.841 65.5488 189.465C66.7524 185.683 67.0098 181.089 66.5371 176.001C65.4685 164.5 60.4885 148.612 50.5146 128.866C51.2339 128.573 51.9422 128.247 52.6328 127.896C55.9334 126.215 59.396 123.714 62.8711 120.637C69.8324 114.473 77.3044 105.583 84.166 94.9365C94.87 78.3279 104.38 56.9802 108.025 34.2803Z" stroke="#FF0F74" stroke-width="10"/>
<path d="M138.391 87.7987C140.138 87.3307 145.646 94.8831 148.182 98.7179L153.083 112.971C153.385 113.139 156.238 114.616 157.626 115.334L169.994 120.737L174.833 159.756C174.362 161.491 172.659 165.382 169.616 167.069C166.574 168.756 145.253 173.96 134.974 176.351C133.698 175.085 131.804 171.161 134.433 165.6C146.21 161.614 169.531 152.429 168.604 147.571C167.677 142.714 160.899 124.056 157.626 115.334C156.238 114.616 153.385 113.139 153.083 112.971L165.14 148.033C159.335 152.452 150.559 154.17 146.897 154.477L132.179 117.015L129.491 118.047L143.609 156.759C135.553 163.027 125.943 164.969 122.146 165.157L106.651 127.124L103.672 128.234L118.419 165.221C113.624 170.615 104.926 172.313 101.177 172.487L84.6052 135.678L81.5874 136.642L95.2044 167.083C92.389 171.947 85.2537 173.226 82.038 173.257C76.6516 163.441 65.4494 143.021 63.7315 139.87C62.0135 136.719 61.4638 130.048 61.4037 127.107C63.9055 123.635 66.8843 122.525 67.7764 121.196C68.49 120.133 71.4509 120.16 72.8421 120.306L74.5498 119.693C76.4911 119.951 78.9596 109.95 78.9495 109.33C78.9394 108.71 88.768 104.053 89.1759 104.411C89.5022 104.697 92.2432 104.99 93.5729 105.1C94.1941 105.089 95.6168 104.926 96.3385 104.359C97.2407 103.651 99.4109 97.7765 99.4296 96.6819C99.4483 95.5873 110.714 91.6347 111.772 91.5069C112.829 91.3792 119.675 96.5496 121.791 96.294C123.483 96.0896 125.904 93.0127 126.902 91.4998C128.455 90.3056 136.208 88.3837 138.391 87.7987Z" fill="#923A5F"/>
<path d="M97.8313 217C90.4096 239.4 76.1847 245 70 245H175C168.956 244.883 155.012 239.12 147.59 217H97.8313Z" fill="#923A5F"/>
</svg>
