<svg width="250" height="250" viewBox="0 0 250 250" fill="none" xmlns="http://www.w3.org/2000/svg">
<g clip-path="url(#clip0_88_935)">
<rect x="108.993" y="28.6224" width="127.208" height="155.85" fill="#FFD7E8" stroke="#8D2550" stroke-width="16"/>
<rect x="141.092" y="13.748" width="63.0121" height="28.6419" rx="5" fill="#8D2550"/>
<circle cx="172.597" cy="13.748" r="11.4567" fill="#8D2550"/>
<circle cx="172.598" cy="13.7481" r="5.72837" fill="#FFD7E8"/>
<rect x="130" y="65" width="84" height="10" fill="#D28FAB"/>
<rect x="130" y="81" width="84" height="10" fill="#D28FAB"/>
<rect x="130" y="98" width="84" height="10" fill="#D28FAB"/>
<rect x="130" y="114" width="84" height="10" fill="#D28FAB"/>
<rect x="-0.121075" y="0.696664" width="44.5946" height="18.8557" rx="9.42785" transform="matrix(-0.817739 0.57559 0.57559 0.817739 142.165 130.408)" fill="#923A5F" stroke="white"/>
<rect x="-0.121075" y="0.696664" width="44.5946" height="18.1203" rx="9.06015" transform="matrix(-0.817739 0.57559 0.57559 0.817739 136.173 119.339)" fill="#923A5F" stroke="white"/>
<rect x="-0.121075" y="0.696664" width="48.2715" height="18.8557" rx="9.42785" transform="matrix(-0.817739 0.57559 0.57559 0.817739 130.359 107.244)" fill="#923A5F" stroke="white"/>
<rect x="-0.121075" y="0.696664" width="93.8661" height="18.8557" rx="9.42785" transform="matrix(-0.817739 0.57559 0.57559 0.817739 159.288 65.2977)" fill="#923A5F" stroke="white"/>
<path d="M55.3501 156.131C54.2326 158.386 53.8361 177.77 51.6881 178.378L58.4704 188.014C59.3218 187.027 76.3616 195.864 84.9409 193.778C93.2848 191.75 97.7954 189.272 104.95 185.422C111.957 181.652 119.551 172.128 121.117 168.315C111.623 167.562 109.515 159.7 109.648 155.863C106.329 155.101 104.498 150.194 103.997 147.836C99.0902 144.483 95.9924 136.307 94.7898 131.689C94.7025 131.265 94.607 130.87 94.5053 130.507L106.323 146.199C108.151 147.881 112.716 150.45 116.352 147.271C119.989 144.093 118.933 139.775 117.951 138.014C113.531 131.185 104.488 117.13 103.674 115.534C102.656 113.54 81.4575 111.422 76.1532 113.219C71.9099 114.657 68.8726 117.698 67.8844 119.039C63.9844 125.576 56.5907 153.628 55.3501 156.131Z" fill="#923A5F"/>
<path d="M94.5053 130.507L106.323 146.199C108.151 147.881 112.716 150.45 116.352 147.271C119.989 144.093 118.933 139.775 117.951 138.014C113.531 131.185 104.488 117.13 103.674 115.534C102.656 113.54 81.4575 111.422 76.1532 113.219C71.9099 114.657 68.8726 117.698 67.8844 119.039C63.9844 125.576 56.5907 153.628 55.3501 156.131C54.2326 158.386 53.8361 177.77 51.6881 178.378L58.4704 188.014C59.3218 187.027 76.3616 195.864 84.9409 193.778C93.2848 191.75 97.7954 189.272 104.95 185.422C111.957 181.652 119.551 172.128 121.117 168.315C111.623 167.562 109.515 159.7 109.648 155.863C106.329 155.101 104.498 150.194 103.997 147.836C98.6373 144.173 95.436 134.757 94.5053 130.507ZM94.5053 130.507C91.3637 133.364 83.1661 138.334 75.508 135.359M94.5053 130.507C96.3773 137.193 96.172 154.506 80.3745 170.272" stroke="white"/>
<path d="M28.4218 207.371C6.1681 218.888 -11.4718 214.053 -17.51 210.196C-21.5438 207.054 -28.6743 198.995 -24.9265 191.892C-20.2418 183.012 -10.1269 191.442 -4.19533 194.843C0.549919 197.564 2.79998 192.445 3.33185 189.545C4.44223 183.491 14.6331 190.507 18.6043 193.559C22.7097 196.65 24.8545 189.148 25.2986 188.449C27.1287 185.566 29.5007 182.768 33.6858 186.52C37.871 190.273 47.9411 184.673 52.4131 181.127L57.3534 187.704C55.8873 188.832 53.8128 189.01 52.8683 190.562M28.4218 207.371C22.1051 218.196 12.2501 243.155 23.3634 256.385C37.255 272.922 45.8697 257.289 38.6328 245.637C32.8433 236.315 38.4157 234.61 42.6765 234.019C45.519 233.625 46.8777 229.387 41.9736 216.571C41.1357 214.382 41.6828 213.279 47.401 211.168C48.6913 210.26 50.7091 207.643 49.5952 200.441C49.7852 198.27 50.6954 194.131 52.8683 190.562M28.4218 207.371C32.7972 205.499 46.8596 195.854 52.8683 190.562" stroke="#7ED957" stroke-width="4"/>
</g>
<defs>
<clipPath id="clip0_88_935">
<rect width="250" height="250" fill="white"/>
</clipPath>
</defs>
</svg>
