<svg width="250" height="250" viewBox="0 0 250 250" fill="none" xmlns="http://www.w3.org/2000/svg">
<g clip-path="url(#clip0_89_53)">
<rect x="44" y="35.2503" width="162.292" height="198.75" fill="#FFD7E8" stroke="#923A5F" stroke-width="20"/>
<rect x="85.0415" y="16.5001" width="80.2088" height="36.4585" rx="5" fill="#923A5F"/>
<circle cx="125.146" cy="16.5002" r="14.5834" fill="#923A5F"/>
<circle cx="125.146" cy="16.5001" r="7.29171" fill="#FFD7E8"/>
<path d="M162.423 103.093C168.627 89.0839 166.319 79.5026 164.389 76.4631C162.808 74.4942 158.716 71.2871 154.999 74.2096C150.353 77.8628 154.604 82.7396 156.299 85.7678C157.655 88.1903 154.981 90.0381 153.475 90.6592C150.33 91.9558 153.849 97.0306 155.384 98.9733C156.939 100.989 153.033 103.036 152.667 103.367C151.155 104.73 149.681 106.395 151.577 108.384C153.473 110.373 149.1 111.58 147.216 114.53L145.662 125.764L151.284 121.445C151.884 120.481 152.644 119.646 153.458 118.935M162.423 103.093C168.094 98.2921 181.117 89.9223 187.84 94.8477C196.245 101.004 188.062 107.646 182.112 104.77C177.352 102.469 176.408 105.849 176.056 108.355C175.821 110.027 173.613 111.268 167.035 109.855C165.912 109.614 165.335 110.048 164.18 113.555C163.696 114.393 162.32 115.835 158.606 115.982C157.48 116.328 155.329 117.301 153.458 118.935M162.423 103.093C161.407 105.804 156.262 114.915 153.458 118.935" stroke="#7ED957" stroke-width="3"/>
<path d="M106.865 180.562C106.865 180.562 111.671 195.05 108.911 199.221C108.744 199.472 102.653 205.57 101.23 197.805L97.3654 179.981L95.4609 163.098C87.8124 173.122 73.6396 193.122 69.9608 193.278C67.4061 193.387 62.2249 191.073 64.3076 187.269C66.3904 183.465 88.0643 161.116 89.5293 145.231C90.9972 129.314 132.067 103.375 148.067 111.627L145.193 130.289L134.297 132.261C134.234 136.298 131.669 144.228 128.645 153.351C128.645 153.351 127.804 164.607 124.68 168.151C121.556 171.695 109.504 177.066 107.89 176.739C107.107 176.581 106.558 175.848 106.46 174.778L106.865 180.562Z" fill="#923A5F"/>
<path d="M95.4609 163.098C87.8124 173.122 73.6396 193.122 69.9608 193.278C67.4061 193.387 62.2249 191.073 64.3076 187.269C66.3904 183.465 88.0643 161.116 89.5293 145.231C90.9972 129.314 132.067 103.375 148.067 111.627L145.193 130.289L134.297 132.261C134.234 136.298 131.669 144.228 128.645 153.351C128.645 153.351 127.804 164.607 124.68 168.151C121.556 171.695 109.504 177.066 107.89 176.739C107.068 176.573 106.504 175.774 106.448 174.616M95.4609 163.098C102.914 154.835 109.109 155.5 112.549 157.861M95.4609 163.098L97.3654 179.981L101.23 197.805C102.653 205.57 108.744 199.472 108.911 199.221C111.671 195.05 106.865 180.562 106.865 180.562L106.448 174.616M112.549 157.861C113.691 158.623 114.58 159.564 115.179 160.45C115.716 161.104 114.039 164.903 110.203 168.106C107.361 170.479 106.366 172.929 106.448 174.616M112.549 157.861C111.538 156.676 107.851 148.289 111.306 144.324" stroke="white"/>
</g>
<defs>
<clipPath id="clip0_89_53">
<rect width="250" height="250" fill="white"/>
</clipPath>
</defs>
</svg>
