<svg width="250" height="250" viewBox="0 0 250 250" fill="none" xmlns="http://www.w3.org/2000/svg">
<g clip-path="url(#clip0_57_927)">
<path d="M149.701 135.412C147.84 121.159 141.174 114.594 138.074 113.093C135.793 112.282 130.829 111.697 129.222 115.847C127.215 121.035 133.14 122.882 136.042 124.488C138.363 125.773 137.081 128.555 136.15 129.785C134.206 132.353 139.626 134.715 141.857 135.527C144.139 136.389 141.943 139.929 141.805 140.372C141.238 142.201 140.853 144.252 143.403 144.926C145.953 145.601 146.423 152.333 146.339 155.615L149.659 155.547C149.674 154.483 149.884 153.443 150.2 152.478M149.701 135.412C151.982 128.806 158.54 115.764 166.525 116.449C176.507 117.305 173.073 126.609 166.744 127.193C161.681 127.659 162.585 130.829 163.542 133.011C164.18 134.466 162.979 136.534 156.862 138.597C155.816 138.949 155.558 139.577 156.351 142.952C156.37 143.86 155.954 145.685 152.969 147.608C152.214 148.432 150.927 150.258 150.2 152.478M149.701 135.412C150.213 138.081 150.509 147.89 150.2 152.478" stroke="#7ED957" stroke-width="2"/>
<path d="M199.112 87.5832C197.166 72.6786 190.195 65.813 186.953 64.2433C184.567 63.3949 179.376 62.7831 177.697 67.1234C175.597 72.5487 181.794 74.4803 184.828 76.1598C187.255 77.5034 185.914 80.4119 184.941 81.6983C182.908 84.3837 188.576 86.8538 190.909 87.7033C193.296 88.6044 190.998 92.3064 190.855 92.7703C190.262 94.682 189.859 96.8272 192.526 97.5327C195.193 98.2382 195.684 105.278 195.596 108.71L199.068 108.639C199.083 107.526 199.303 106.439 199.634 105.43M199.112 87.5832C201.497 80.6746 208.355 67.0363 216.705 67.7525C227.144 68.6478 223.553 78.3778 216.935 78.9877C211.64 79.4757 212.585 82.7901 213.585 85.0717C214.252 86.5939 212.997 88.7565 206.6 90.9133C205.507 91.2818 205.236 91.9387 206.066 95.4678C206.085 96.4173 205.651 98.3259 202.529 100.337C201.74 101.199 200.394 103.108 199.634 105.43M199.112 87.5832C199.647 90.3746 199.957 100.632 199.634 105.43" stroke="#7ED957" stroke-width="2"/>
<path d="M61.2322 50.2447C58.7297 31.0765 49.7647 22.247 45.5951 20.2283C42.5272 19.1371 35.8514 18.3504 33.6912 23.9321C30.991 30.9094 38.9602 33.3935 42.8621 35.5535C45.9837 37.2814 44.2597 41.022 43.0074 42.6763C40.3932 46.1299 47.6831 49.3065 50.6833 50.399C53.7525 51.558 50.7981 56.3189 50.6132 56.9154C49.8512 59.3741 49.333 62.1329 52.7625 63.0402C56.1921 63.9475 56.8234 73.0013 56.7104 77.4148L61.1755 77.3237C61.1955 75.8922 61.4783 74.494 61.9034 73.1961M61.2322 50.2447C64.2996 41.3597 73.1193 23.8202 83.8585 24.7412C97.2826 25.8926 92.6649 38.4059 84.1532 39.1903C77.3439 39.8179 78.5598 44.0805 79.846 47.0147C80.704 48.9723 79.0899 51.7535 70.8624 54.5273C69.4568 55.0012 69.1085 55.846 70.1757 60.3847C70.2006 61.6057 69.6416 64.0602 65.6276 66.6461C64.6123 67.7547 62.8814 70.2101 61.9034 73.1961M61.2322 50.2447C61.9205 53.8345 62.319 67.0256 61.9034 73.1961" stroke="#7ED957" stroke-width="2"/>
<path d="M106.369 105.989C104.423 91.0841 97.4518 84.2186 94.2096 82.6488C91.8241 81.8004 86.6332 81.1886 84.9535 85.5289C82.8538 90.9542 89.0505 92.8858 92.0845 94.5653C94.5118 95.9089 93.1712 98.8175 92.1975 100.104C90.1647 102.789 95.8332 105.259 98.1661 106.109C100.553 107.01 98.2553 110.712 98.1115 111.176C97.519 113.088 97.1161 115.233 99.7828 115.938C102.45 116.644 102.94 123.684 102.853 127.115L106.324 127.045C106.34 125.932 106.56 124.844 106.891 123.835M106.369 105.989C108.754 99.0801 115.612 85.4418 123.962 86.158C134.4 87.0533 130.81 96.7833 124.191 97.3932C118.897 97.8812 119.842 101.196 120.842 103.477C121.509 104.999 120.254 107.162 113.857 109.319C112.764 109.687 112.493 110.344 113.323 113.873C113.342 114.823 112.907 116.731 109.786 118.742C108.997 119.604 107.651 121.513 106.891 123.835M106.369 105.989C106.904 108.78 107.214 119.037 106.891 123.835" stroke="#7ED957" stroke-width="2"/>
<path d="M74.368 94.44V103.976C74.368 109.779 73.0667 114.173 70.464 117.16C67.8613 120.147 64.2347 121.64 59.584 121.64C54.9333 121.64 51.3067 120.147 48.704 117.16C46.144 114.173 44.864 109.779 44.864 103.976V94.44C44.864 88.68 46.1653 84.3067 48.768 81.32C51.3707 78.3333 54.976 76.84 59.584 76.84C64.2347 76.84 67.8613 78.3333 70.464 81.32C73.0667 84.3067 74.368 88.68 74.368 94.44ZM68.736 94.44C68.736 90.0027 67.9253 86.8027 66.304 84.84C64.7253 82.8773 62.4853 81.896 59.584 81.896C56.7253 81.896 54.4853 82.8773 52.864 84.84C51.2853 86.8027 50.496 90.0027 50.496 94.44V103.976C50.496 108.371 51.2853 111.592 52.864 113.64C54.4853 115.645 56.7253 116.648 59.584 116.648C62.4853 116.648 64.7253 115.645 66.304 113.64C67.9253 111.592 68.736 108.371 68.736 103.976V94.44Z" fill="#923A5F"/>
<path d="M95.912 131.872L103.688 127.36H107.48V160H103.4V131.776L97.736 135.04L95.912 131.872Z" fill="#923A5F"/>
<path d="M58.9583 153.818C57.0975 139.565 50.4315 133 47.3311 131.499C45.0499 130.687 40.086 130.102 38.4798 134.253C36.472 139.441 42.3976 141.288 45.299 142.894C47.6201 144.179 46.3381 146.96 45.407 148.19C43.4631 150.758 48.8837 153.12 51.1145 153.933C53.3967 154.794 51.1998 158.335 51.0624 158.778C50.4958 160.606 50.1104 162.658 52.6605 163.332C55.2106 164.007 55.6801 170.739 55.5961 174.021L58.9161 173.953C58.931 172.889 59.1413 171.849 59.4574 170.884M58.9583 153.818C61.2391 147.211 67.7971 134.17 75.7824 134.854C85.7641 135.711 82.3306 145.015 76.0016 145.598C70.9384 146.065 71.8425 149.234 72.7989 151.416C73.4369 152.872 72.2366 154.94 66.119 157.002C65.0738 157.355 64.8149 157.983 65.6084 161.358C65.6269 162.266 65.2112 164.091 62.2265 166.013C61.4717 166.838 60.1846 168.664 59.4574 170.884M58.9583 153.818C59.4701 156.487 59.7664 166.296 59.4574 170.884" stroke="#7ED957" stroke-width="2"/>
<path d="M96.5634 199.555C95.1165 188.472 89.9332 183.367 87.5224 182.2C85.7486 181.569 81.8888 181.114 80.6399 184.341C79.0787 188.375 83.6863 189.812 85.9423 191.06C87.7471 192.059 86.7503 194.222 86.0263 195.179C84.5148 197.175 88.7297 199.012 90.4643 199.644C92.2388 200.314 90.5306 203.066 90.4237 203.411C89.9832 204.833 89.6836 206.428 91.6664 206.953C93.6493 207.477 94.0144 212.712 93.949 215.264L96.5306 215.211C96.5422 214.383 96.7057 213.575 96.9515 212.825M96.5634 199.555C98.3369 194.417 103.436 184.277 109.645 184.809C117.407 185.475 114.737 192.71 109.816 193.163C105.879 193.526 106.582 195.991 107.325 197.687C107.822 198.819 106.888 200.427 102.131 202.031C101.319 202.305 101.117 202.793 101.734 205.417C101.749 206.123 101.425 207.542 99.1047 209.037C98.5177 209.678 97.517 211.098 96.9515 212.825M96.5634 199.555C96.9614 201.63 97.1918 209.257 96.9515 212.825" stroke="#7ED957" stroke-width="2"/>
<path d="M66.48 184.4V190.36C66.48 193.987 65.6667 196.733 64.04 198.6C62.4133 200.467 60.1467 201.4 57.24 201.4C54.3333 201.4 52.0667 200.467 50.44 198.6C48.84 196.733 48.04 193.987 48.04 190.36V184.4C48.04 180.8 48.8533 178.067 50.48 176.2C52.1067 174.333 54.36 173.4 57.24 173.4C60.1467 173.4 62.4133 174.333 64.04 176.2C65.6667 178.067 66.48 180.8 66.48 184.4ZM62.96 184.4C62.96 181.627 62.4533 179.627 61.44 178.4C60.4533 177.173 59.0533 176.56 57.24 176.56C55.4533 176.56 54.0533 177.173 53.04 178.4C52.0533 179.627 51.56 181.627 51.56 184.4V190.36C51.56 193.107 52.0533 195.12 53.04 196.4C54.0533 197.653 55.4533 198.28 57.24 198.28C59.0533 198.28 60.4533 197.653 61.44 196.4C62.4533 195.12 62.96 193.107 62.96 190.36V184.4Z" fill="#923A5F"/>
<path d="M87.76 219.56L94.24 215.8H97.4V243H94V219.48L89.28 222.2L87.76 219.56Z" fill="#923A5F"/>
<path d="M151.975 31.8391C149.472 12.671 140.507 3.84147 136.338 1.82274C133.27 0.73162 126.594 -0.0551675 124.434 5.52662C121.734 12.5039 129.703 14.988 133.605 17.148C136.726 18.8759 135.002 22.6165 133.75 24.2707C131.136 27.7243 138.426 30.901 141.426 31.9935C144.495 33.1525 141.541 37.9133 141.356 38.5099C140.594 40.9686 140.076 43.7274 143.505 44.6347C146.935 45.542 147.566 54.5958 147.453 59.0092L151.918 58.9182C151.938 57.4867 152.221 56.0885 152.646 54.7906M151.975 31.8391C155.042 22.9542 163.862 5.41466 174.601 6.33573C188.025 7.48707 183.408 20.0004 174.896 20.7848C168.087 21.4123 169.303 25.6749 170.589 28.6092C171.447 30.5668 169.833 33.348 161.605 36.1218C160.199 36.5957 159.851 37.4404 160.918 41.9792C160.943 43.2002 160.384 45.6547 156.37 48.2406C155.355 49.3492 153.624 51.8046 152.646 54.7906M151.975 31.8391C152.663 35.429 153.062 48.6201 152.646 54.7906" stroke="#7ED957" stroke-width="2"/>
<path d="M165.368 75.44V84.976C165.368 90.7787 164.067 95.1733 161.464 98.16C158.861 101.147 155.235 102.64 150.584 102.64C145.933 102.64 142.307 101.147 139.704 98.16C137.144 95.1733 135.864 90.7787 135.864 84.976V75.44C135.864 69.68 137.165 65.3067 139.768 62.32C142.371 59.3333 145.976 57.84 150.584 57.84C155.235 57.84 158.861 59.3333 161.464 62.32C164.067 65.3067 165.368 69.68 165.368 75.44ZM159.736 75.44C159.736 71.0027 158.925 67.8027 157.304 65.84C155.725 63.8773 153.485 62.896 150.584 62.896C147.725 62.896 145.485 63.8773 143.864 65.84C142.285 67.8027 141.496 71.0027 141.496 75.44V84.976C141.496 89.3707 142.285 92.592 143.864 94.64C145.485 96.6453 147.725 97.648 150.584 97.648C153.485 97.648 155.725 96.6453 157.304 94.64C158.925 92.592 159.736 89.3707 159.736 84.976V75.44Z" fill="#923A5F"/>
<path d="M187.912 113.872L195.688 109.36H199.48V142H195.4V113.776L189.736 117.04L187.912 113.872Z" fill="#923A5F"/>
<path d="M186.307 181.149C184.86 170.067 179.676 164.962 177.266 163.794C175.492 163.164 171.632 162.709 170.383 165.936C168.822 169.97 173.429 171.406 175.685 172.655C177.49 173.654 176.493 175.817 175.769 176.773C174.258 178.77 178.473 180.607 180.207 181.238C181.982 181.909 180.274 184.661 180.167 185.006C179.726 186.428 179.427 188.023 181.41 188.547C183.393 189.072 183.758 194.307 183.692 196.858L186.274 196.806C186.285 195.978 186.449 195.17 186.695 194.419M186.307 181.149C188.08 176.012 193.179 165.871 199.389 166.404C207.15 167.069 204.48 174.304 199.559 174.758C195.622 175.121 196.325 177.585 197.069 179.282C197.565 180.414 196.631 182.022 191.875 183.625C191.062 183.899 190.86 184.388 191.477 187.012C191.492 187.718 191.169 189.137 188.848 190.632C188.261 191.273 187.26 192.693 186.695 194.419M186.307 181.149C186.705 183.225 186.935 190.852 186.695 194.419" stroke="#7ED957" stroke-width="2"/>
<path d="M157.48 166.4V172.36C157.48 175.987 156.667 178.733 155.04 180.6C153.413 182.467 151.147 183.4 148.24 183.4C145.333 183.4 143.067 182.467 141.44 180.6C139.84 178.733 139.04 175.987 139.04 172.36V166.4C139.04 162.8 139.853 160.067 141.48 158.2C143.107 156.333 145.36 155.4 148.24 155.4C151.147 155.4 153.413 156.333 155.04 158.2C156.667 160.067 157.48 162.8 157.48 166.4ZM153.96 166.4C153.96 163.627 153.453 161.627 152.44 160.4C151.453 159.173 150.053 158.56 148.24 158.56C146.453 158.56 145.053 159.173 144.04 160.4C143.053 161.627 142.56 163.627 142.56 166.4V172.36C142.56 175.107 143.053 177.12 144.04 178.4C145.053 179.653 146.453 180.28 148.24 180.28C150.053 180.28 151.453 179.653 152.44 178.4C153.453 177.12 153.96 175.107 153.96 172.36V166.4Z" fill="#923A5F"/>
<path d="M177.76 200.56L184.24 196.8H187.4V224H184V200.48L179.28 203.2L177.76 200.56Z" fill="#923A5F"/>
<path d="M244.822 222.883C247.802 225.272 248.281 229.624 245.893 232.604V232.604C243.504 235.584 239.152 236.064 236.172 233.675L174.898 184.564L183.547 173.772L244.822 222.883Z" fill="#923A5F"/>
<circle cx="133.426" cy="142.426" r="58.7078" transform="rotate(13.7306 133.426 142.426)" stroke="#923A5F" stroke-width="14"/>
</g>
<defs>
<clipPath id="clip0_57_927">
<rect width="250" height="250" fill="white"/>
</clipPath>
</defs>
</svg>
