<svg width="250" height="250" viewBox="0 0 250 250" fill="none" xmlns="http://www.w3.org/2000/svg">
<rect width="250" height="250" stroke="white"/>
<rect x="3" y="40" width="244" height="170" fill="#923A5F" stroke="#692C46" stroke-width="6"/>
<path d="M40.2773 70.8008C40.2773 70.7773 40.2695 70.7422 40.2539 70.6953C40.2461 70.6484 40.2344 70.6016 40.2188 70.5547C40.2109 70.5 40.1992 70.4531 40.1836 70.4141C40.1758 70.3672 40.1719 70.332 40.1719 70.3086C40.1562 70.2539 40.1484 70.2109 40.1484 70.1797C40.1484 70.1484 40.1484 70.1172 40.1484 70.0859C40.1484 70.0234 40.1562 69.9727 40.1719 69.9336C40.1875 69.8945 40.2148 69.8359 40.2539 69.7578L40.1133 67.4141L40.1719 66.7578C40.1875 66.7344 40.2031 66.707 40.2188 66.6758C40.2344 66.6523 40.2461 66.6328 40.2539 66.6172C40.2617 66.5938 40.2695 66.5742 40.2773 66.5586C40.3477 66.3945 40.4023 66.2383 40.4414 66.0898C40.4805 65.9414 40.5273 65.7852 40.582 65.6211C40.6211 65.4648 40.6406 65.3164 40.6406 65.1758C40.6406 65.0039 40.6719 64.8633 40.7344 64.7539C40.8359 64.5195 40.9492 64.2969 41.0742 64.0859C41.207 63.8672 41.3672 63.6133 41.5547 63.3242C41.5703 63.3008 41.5859 63.2773 41.6016 63.2539C41.6172 63.2227 41.6328 63.1953 41.6484 63.1719C41.7188 63.0703 41.793 62.957 41.8711 62.832C41.957 62.707 42.0039 62.6367 42.0117 62.6211C42.1055 62.4805 42.1953 62.375 42.2812 62.3047C42.375 62.2344 42.4844 62.1406 42.6094 62.0234C42.875 61.8203 43.1094 61.6328 43.3125 61.4609C43.5156 61.2891 43.7578 61.1172 44.0391 60.9453L44.332 60.8164C44.4023 60.793 44.4805 60.7617 44.5664 60.7227C44.6523 60.6758 44.7422 60.6289 44.8359 60.582C44.9297 60.5352 45.0195 60.4922 45.1055 60.4531C45.1914 60.4141 45.2695 60.3828 45.3398 60.3594L46.5352 60.1953C46.5664 60.1953 46.6172 60.1836 46.6875 60.1602C46.7578 60.1367 46.8086 60.1055 46.8398 60.0664C47.1758 60.0586 47.4453 60.0508 47.6484 60.043C47.8516 60.0352 48.043 60.0312 48.2227 60.0312C48.4648 60.0312 48.7031 60.0352 48.9375 60.043C49.1719 60.0508 49.4062 60.0586 49.6406 60.0664C49.7891 60.1055 49.9102 60.1367 50.0039 60.1602C50.0977 60.1758 50.1719 60.1914 50.2266 60.207C50.2812 60.2148 50.3203 60.2188 50.3438 60.2188C50.3672 60.2188 50.3906 60.2188 50.4141 60.2188C50.5078 60.2109 50.582 60.207 50.6367 60.207C50.6992 60.1992 50.7539 60.1953 50.8008 60.1953C50.8555 60.1953 50.9141 60.1953 50.9766 60.1953C51.0391 60.1953 51.1211 60.1953 51.2227 60.1953C51.3086 60.2422 51.4023 60.3086 51.5039 60.3945C51.6055 60.4805 51.6992 60.5234 51.7852 60.5234C51.8164 60.5234 51.8477 60.5117 51.8789 60.4883C51.9102 60.4648 51.9336 60.4531 51.9492 60.4531H52.6406C52.7422 60.4375 52.8359 60.4062 52.9219 60.3594C53.0156 60.3047 53.1055 60.25 53.1914 60.1953C53.2852 60.1328 53.375 60.082 53.4609 60.043C53.5469 59.9961 53.6445 59.9727 53.7539 59.9727C53.8867 59.9727 54 60.0156 54.0938 60.1016C54.1953 60.1797 54.2461 60.2969 54.2461 60.4531V62.3984C54.2539 62.4375 54.2656 62.5 54.2812 62.5859C54.2969 62.6719 54.3047 62.7344 54.3047 62.7734C54.375 63.1484 54.457 63.5352 54.5508 63.9336C54.6445 64.3242 54.6914 64.707 54.6914 65.082C54.6836 65.1289 54.6641 65.1797 54.6328 65.2344C54.6016 65.2891 54.5625 65.3398 54.5156 65.3867C54.4766 65.4336 54.4375 65.4766 54.3984 65.5156C54.3594 65.5469 54.3281 65.5625 54.3047 65.5625C54.3047 65.5781 54.2773 65.5859 54.2227 65.5859C54.0664 65.5859 53.9297 65.5508 53.8125 65.4805C53.7031 65.4102 53.6094 65.3203 53.5312 65.2109C53.4531 65.1016 53.3945 64.9844 53.3555 64.8594C53.3164 64.7344 53.2891 64.6172 53.2734 64.5078V64.1211C53.2578 64.0117 53.2344 63.9258 53.2031 63.8633C53.1797 63.793 53.1484 63.7344 53.1094 63.6875C53.0703 63.6328 53.0234 63.5781 52.9688 63.5234C52.9219 63.4688 52.8672 63.3984 52.8047 63.3125C52.7188 63.2266 52.668 63.1328 52.6523 63.0312C52.6367 62.9219 52.5938 62.8125 52.5234 62.7031C52.5078 62.6719 52.4727 62.6406 52.418 62.6094C52.3633 62.5781 52.3281 62.5625 52.3125 62.5625L51.5625 62.0234C51.5625 62.0156 51.543 61.9961 51.5039 61.9648C51.4727 61.9258 51.4375 61.8867 51.3984 61.8477C51.3594 61.8008 51.3203 61.7578 51.2812 61.7188C51.25 61.6797 51.2305 61.6523 51.2227 61.6367C51.1367 61.5898 51.0898 61.5664 51.082 61.5664C51.0664 61.582 51.0117 61.5898 50.918 61.5898C50.8633 61.5898 50.8359 61.582 50.8359 61.5664C50.6719 61.5352 50.5117 61.4844 50.3555 61.4141C50.207 61.3438 50.0703 61.2734 49.9453 61.2031L48.5273 61.1445C48.4727 61.082 48.418 61.043 48.3633 61.0273C48.3086 61.0117 48.2422 61.0039 48.1641 61.0039C47.8984 61.0039 47.6719 61.0273 47.4844 61.0742C47.2969 61.1211 47.125 61.1875 46.9688 61.2734C46.9609 61.2891 46.9531 61.3008 46.9453 61.3086C46.9297 61.3242 46.9141 61.332 46.8984 61.332C46.7891 61.418 46.668 61.4844 46.5352 61.5312C46.4102 61.5781 46.2812 61.625 46.1484 61.6719C46.0156 61.7109 45.8828 61.7578 45.75 61.8125C45.625 61.8594 45.5078 61.9297 45.3984 62.0234L44.9531 62.3984C44.9453 62.4141 44.9062 62.4492 44.8359 62.5039C44.7656 62.5508 44.7266 62.5898 44.7188 62.6211C44.6797 62.707 44.6133 62.7891 44.5195 62.8672C44.4258 62.9375 44.3633 62.9805 44.332 62.9961C44.2695 63.082 44.2227 63.1758 44.1914 63.2773C44.168 63.3711 44.1406 63.4258 44.1094 63.4414L43.8398 63.8281L43.5117 64.5781L43.3594 65.2578C43.3516 65.2734 43.332 65.3008 43.3008 65.3398C43.2773 65.3789 43.2461 65.4219 43.207 65.4688C43.1758 65.5078 43.1406 65.543 43.1016 65.5742C43.0703 65.6055 43.0469 65.6211 43.0312 65.6211C43.0312 65.6289 43.0273 65.6602 43.0195 65.7148C43.0117 65.7695 43.0039 65.8359 42.9961 65.9141C42.9961 65.9844 42.9922 66.0586 42.9844 66.1367C42.9766 66.207 42.9727 66.2617 42.9727 66.3008V66.6172L43.0312 67.8125L43.1719 68.3867L43.0312 69.0312C43.0312 69.4062 43.082 69.7812 43.1836 70.1562C43.2852 70.5312 43.3945 70.8945 43.5117 71.2461C43.5273 71.2539 43.5977 71.3477 43.7227 71.5273L43.8398 71.8555C43.8633 71.918 43.8984 71.9805 43.9453 72.043C43.9922 72.0977 44.043 72.1523 44.0977 72.207C44.1602 72.2617 44.2188 72.3125 44.2734 72.3594C44.3281 72.4062 44.375 72.4531 44.4141 72.5C44.4531 72.6406 44.4805 72.7383 44.4961 72.793C44.5117 72.8477 44.5273 72.8867 44.543 72.9102C44.5586 72.9258 44.5781 72.9414 44.6016 72.957C44.625 72.9648 44.6641 72.9961 44.7188 73.0508C44.7734 73.0742 44.8164 73.1133 44.8477 73.168C44.8867 73.2148 44.9219 73.2695 44.9531 73.332C44.9844 73.3945 45.0156 73.457 45.0469 73.5195C45.0781 73.582 45.1211 73.6328 45.1758 73.6719C45.3242 73.6953 45.4492 73.7109 45.5508 73.7188C45.6602 73.7188 45.7578 73.7656 45.8438 73.8594C46.0312 74.0156 46.207 74.1523 46.3711 74.2695C46.5352 74.3789 46.6992 74.4766 46.8633 74.5625C47.0352 74.6406 47.2148 74.7109 47.4023 74.7734C47.5898 74.8281 47.8008 74.875 48.0352 74.9141L48.6445 75.0898C48.8477 75.0898 49.0117 75.0625 49.1367 75.0078C49.2695 74.9453 49.3984 74.9141 49.5234 74.9141C49.6406 74.9141 49.75 74.957 49.8516 75.043C49.9531 75.1211 50.0664 75.1602 50.1914 75.1602C50.293 75.1602 50.375 75.1289 50.4375 75.0664C50.5078 74.9961 50.5938 74.9453 50.6953 74.9141C50.7109 74.9141 50.7578 74.9062 50.8359 74.8906C50.9219 74.875 50.9766 74.8633 51 74.8555C51.0312 74.8555 51.082 74.8359 51.1523 74.7969C51.2227 74.7578 51.2734 74.7227 51.3047 74.6914C51.5703 74.6523 51.7383 74.6211 51.8086 74.5977C51.8867 74.5664 51.9336 74.5508 51.9492 74.5508C51.957 74.543 51.9766 74.5273 52.0078 74.5039C52.0391 74.4727 52.0703 74.4414 52.1016 74.4102C52.1406 74.3711 52.1758 74.3359 52.207 74.3047C52.2383 74.2656 52.2617 74.2383 52.2773 74.2227C52.3086 74.2227 52.3594 74.2031 52.4297 74.1641C52.5 74.125 52.5742 74.0781 52.6523 74.0234C52.7383 73.9688 52.8203 73.9141 52.8984 73.8594C52.9844 73.8047 53.0547 73.7617 53.1094 73.7305C53.1484 73.707 53.1758 73.6797 53.1914 73.6484C53.207 73.6094 53.2344 73.5703 53.2734 73.5312C53.3906 73.3672 53.5078 73.2461 53.625 73.168C53.7422 73.0898 53.8672 72.9688 54 72.8047C54.0312 72.7734 54.0742 72.7266 54.1289 72.6641C54.1914 72.5938 54.2305 72.5391 54.2461 72.5C54.2539 72.4844 54.2695 72.4375 54.293 72.3594C54.3242 72.2734 54.3555 72.2266 54.3867 72.2188C54.4883 72.1328 54.5859 72.0742 54.6797 72.043C54.7734 72.0117 54.8711 71.9961 54.9727 71.9961C55.0273 71.9961 55.0742 72.0195 55.1133 72.0664C55.1602 72.1133 55.1953 72.168 55.2188 72.2305C55.25 72.293 55.2734 72.3633 55.2891 72.4414C55.3047 72.5117 55.3125 72.5703 55.3125 72.6172C55.3125 72.7734 55.2773 72.9141 55.207 73.0391C55.1367 73.1562 55.0586 73.2695 54.9727 73.3789C54.8867 73.4883 54.8008 73.6016 54.7148 73.7188C54.6367 73.8281 54.582 73.957 54.5508 74.1055C54.5195 74.1289 54.4688 74.1719 54.3984 74.2344C54.3281 74.2891 54.2578 74.3516 54.1875 74.4219C54.1172 74.4922 54.0508 74.5625 53.9883 74.6328C53.9258 74.6953 53.8867 74.7422 53.8711 74.7734C53.6992 75 53.543 75.1602 53.4023 75.2539C53.2617 75.3398 53.1289 75.4297 53.0039 75.5234C52.9492 75.5938 52.9062 75.668 52.875 75.7461C52.8516 75.8164 52.793 75.8711 52.6992 75.9102C52.5898 75.9727 52.4648 76.0312 52.3242 76.0859C52.1914 76.1328 52.0469 76.1758 51.8906 76.2148C51.6406 76.3711 51.418 76.4766 51.2227 76.5312C51.0273 76.5859 50.8242 76.6484 50.6133 76.7188L50.1445 76.9766C49.7305 77 49.4453 77.0312 49.2891 77.0703C49.1328 77.1172 49.0391 77.1406 49.0078 77.1406C48.7578 77.1328 48.5859 77.1094 48.4922 77.0703C48.4062 77.0391 48.3477 77.0234 48.3164 77.0234L47.5898 77.2578C47.5039 77.25 47.4102 77.2422 47.3086 77.2344C47.2148 77.2266 47.1211 77.2148 47.0273 77.1992C46.9336 77.1914 46.8477 77.1758 46.7695 77.1523C46.6914 77.1367 46.6328 77.1133 46.5938 77.082C46.3828 77.0273 46.1641 76.9883 45.9375 76.9648C45.7109 76.9414 45.4922 76.8789 45.2812 76.7773L44.4141 76.4375C44.3984 76.4219 44.3516 76.4062 44.2734 76.3906C44.1953 76.3672 44.1406 76.3555 44.1094 76.3555C43.8828 76.0586 43.7539 75.9102 43.7227 75.9102H43.4414C43.3789 75.8711 43.3047 75.7969 43.2188 75.6875C43.1406 75.5703 43.0586 75.4414 42.9727 75.3008C42.9727 75.207 42.918 75.1484 42.8086 75.125C42.707 75.1016 42.6172 75.0898 42.5391 75.0898C42.4922 75.0664 42.4609 75.0352 42.4453 74.9961C42.4297 74.9492 42.4141 74.9023 42.3984 74.8555C42.3906 74.8008 42.3789 74.7461 42.3633 74.6914C42.3477 74.6367 42.3203 74.5898 42.2812 74.5508C42.2656 74.5117 42.2266 74.457 42.1641 74.3867C42.1016 74.3086 42.0508 74.2539 42.0117 74.2227C41.957 74.1914 41.9141 74.168 41.8828 74.1523C41.8516 74.1367 41.8242 74.125 41.8008 74.1172C41.7773 74.1016 41.7539 74.082 41.7305 74.0586C41.707 74.0273 41.6758 73.9805 41.6367 73.918L41.3438 73.4727L41.0859 73.1914C41.0859 72.918 41.0664 72.7266 41.0273 72.6172C40.9883 72.5078 40.9609 72.4492 40.9453 72.4414C40.9453 72.4102 40.9336 72.3438 40.9102 72.2422C40.8945 72.1328 40.8789 72.0703 40.8633 72.0547C40.707 71.9844 40.6094 71.9336 40.5703 71.9023C40.5391 71.8789 40.5156 71.8633 40.5 71.8555L40.2773 70.8008ZM56.7773 76.3086C56.7773 76.1602 56.832 76.0391 56.9414 75.9453C57.0586 75.8516 57.1953 75.7773 57.3516 75.7227C57.5156 75.6602 57.6797 75.6172 57.8438 75.5938C58.0078 75.5703 58.1445 75.5586 58.2539 75.5586H59.2031C59.2734 75.543 59.3633 75.5 59.4727 75.4297C59.582 75.3594 59.6875 75.2773 59.7891 75.1836C59.8984 75.082 59.9922 74.9727 60.0703 74.8555C60.1562 74.7305 60.207 74.6133 60.2227 74.5039C60.2461 74.3398 60.2578 74.1641 60.2578 73.9766C60.2578 73.8281 60.2461 73.6719 60.2227 73.5078L60.3867 73.25C60.2773 72.8516 60.2031 72.4531 60.1641 72.0547C60.125 71.6562 60.1055 71.2656 60.1055 70.8828C60.1055 70.8047 60.1094 70.707 60.1172 70.5898C60.1328 70.4727 60.1484 70.3555 60.1641 70.2383C60.1875 70.1133 60.2109 69.9961 60.2344 69.8867C60.2578 69.7695 60.2812 69.668 60.3047 69.582C60.3125 69.5586 60.3242 69.5312 60.3398 69.5C60.3711 69.4375 60.3867 69.3984 60.3867 69.3828C60.4102 69.3281 60.4375 69.2773 60.4688 69.2305C60.4844 69.1914 60.5 69.1523 60.5156 69.1133C60.5391 69.0664 60.5508 69.0312 60.5508 69.0078C60.5508 68.9453 60.5195 68.8906 60.457 68.8438C60.3945 68.7969 60.3438 68.7734 60.3047 68.7734C60.3203 68.5156 60.332 68.2578 60.3398 68C60.3555 67.7344 60.3633 67.4766 60.3633 67.2266C60.3633 66.9609 60.3555 66.7031 60.3398 66.4531C60.332 66.1953 60.3203 65.9336 60.3047 65.668C60.2656 65.5586 60.2422 65.4805 60.2344 65.4336C60.2266 65.3789 60.2227 65.3086 60.2227 65.2227L60.3047 64.5312L60.2227 63.2773C60.2227 63.1836 60.1797 63.0781 60.0938 62.9609C60.0156 62.8438 59.9219 62.7344 59.8125 62.6328C59.7031 62.5234 59.5898 62.4336 59.4727 62.3633C59.3633 62.2852 59.2734 62.2383 59.2031 62.2227H58.3594L58.2656 62.1758C58.2422 62.1602 58.2188 62.1484 58.1953 62.1406C58.1719 62.125 58.1523 62.1172 58.1367 62.1172C58.0273 62.0859 57.9023 62.0625 57.7617 62.0469C57.6289 62.0234 57.5039 61.9883 57.3867 61.9414C57.2695 61.8945 57.1719 61.8281 57.0938 61.7422C57.0156 61.6484 56.9766 61.5156 56.9766 61.3438C56.9766 61.2031 56.9961 61.0977 57.0352 61.0273C57.0742 60.9492 57.1289 60.8945 57.1992 60.8633C57.2773 60.8242 57.3672 60.8008 57.4688 60.793C57.5781 60.7852 57.6992 60.7812 57.832 60.7812C58.043 60.7812 58.2461 60.7891 58.4414 60.8047C58.6367 60.8203 58.8047 60.8789 58.9453 60.9805C58.9844 60.9727 59.0234 60.9648 59.0625 60.957C59.1016 60.9492 59.1367 60.9453 59.168 60.9453H59.3906C59.7656 60.9453 60.1523 60.9766 60.5508 61.0391C60.957 61.0938 61.3281 61.1367 61.6641 61.168L62.332 61.2852C62.4336 61.2852 62.5352 61.2695 62.6367 61.2383C62.7461 61.1992 62.8555 61.1602 62.9648 61.1211C63.082 61.0742 63.1953 61.0352 63.3047 61.0039C63.4141 60.9648 63.5234 60.9453 63.6328 60.9453C63.7109 60.9453 63.7773 60.9648 63.832 61.0039C63.8867 61.043 63.9727 61.0625 64.0898 61.0625C64.1289 61.0625 64.1641 61.043 64.1953 61.0039C64.2344 60.9648 64.2969 60.9453 64.3828 60.9453C64.4609 60.9453 64.5195 60.9492 64.5586 60.957C64.6055 60.9648 64.6484 61 64.6875 61.0625H65.1445C65.3086 61.0625 65.4805 61.0352 65.6602 60.9805C65.8398 60.918 66.0195 60.8867 66.1992 60.8867C66.3086 60.8867 66.3945 60.8945 66.457 60.9102C66.5195 60.9258 66.6094 60.9766 66.7266 61.0625L68.8359 61.168C68.9375 61.1758 69.0312 61.1875 69.1172 61.2031C69.1953 61.2188 69.2773 61.2344 69.3633 61.25C69.4492 61.2578 69.5234 61.2695 69.5859 61.2852C69.625 61.2852 69.6719 61.2891 69.7266 61.2969C69.7812 61.3047 69.832 61.3203 69.8789 61.3438C69.9258 61.3672 69.9648 61.3984 69.9961 61.4375C70.0352 61.4766 70.0547 61.5273 70.0547 61.5898C70.0781 61.6602 70.1016 61.7773 70.125 61.9414C70.1484 62.0977 70.168 62.2656 70.1836 62.4453C70.207 62.625 70.2227 62.793 70.2305 62.9492C70.2461 63.1055 70.2539 63.2148 70.2539 63.2773C70.293 63.543 70.3242 63.8125 70.3477 64.0859C70.3711 64.3594 70.3828 64.6289 70.3828 64.8945H70.1953C70.0234 64.8945 69.8828 64.7617 69.7734 64.4961C69.7031 64.4023 69.6523 64.3398 69.6211 64.3086C69.5898 64.2695 69.5664 64.2305 69.5508 64.1914C69.4414 64.043 69.3281 63.8828 69.2109 63.7109C69.1016 63.5312 69 63.3633 68.9062 63.207C68.8125 63.0508 68.7305 62.9102 68.6602 62.7852C68.5898 62.6523 68.543 62.5586 68.5195 62.5039C68.4258 62.4648 68.3281 62.4375 68.2266 62.4219C68.125 62.3984 68.0273 62.3789 67.9336 62.3633C67.8398 62.3398 67.7539 62.3125 67.6758 62.2812C67.5977 62.2422 67.5312 62.1797 67.4766 62.0938C67.4141 61.9766 67.293 61.918 67.1133 61.918C67.043 61.918 67.0039 61.9258 66.9961 61.9414C66.957 61.9492 66.9062 61.957 66.8438 61.9648C66.7891 61.9727 66.7305 61.9766 66.668 61.9766C66.5352 61.9766 66.4023 61.9727 66.2695 61.9648C66.1367 61.9492 66.0273 61.9414 65.9414 61.9414C65.8867 61.9414 65.8516 61.9336 65.8359 61.918C65.8203 61.9023 65.793 61.8945 65.7539 61.8945C65.7383 61.8945 65.7227 61.8906 65.707 61.8828C65.6992 61.875 65.6875 61.8672 65.6719 61.8594C65.5 61.8359 65.3281 61.8203 65.1562 61.8125C64.9844 61.8047 64.8125 61.8008 64.6406 61.8008C64.4688 61.8008 64.3008 61.8047 64.1367 61.8125C63.9727 61.8203 63.8047 61.8359 63.6328 61.8594C63.5781 61.875 63.5156 61.9062 63.4453 61.9531C63.375 62 63.3047 62.0586 63.2344 62.1289C63.1719 62.1914 63.1133 62.2578 63.0586 62.3281C63.0039 62.3984 62.9688 62.4648 62.9531 62.5273C62.8906 62.793 62.8516 63.0938 62.8359 63.4297C62.8203 63.7578 62.8125 64.0977 62.8125 64.4492V65.668C62.7422 65.7539 62.6992 65.8438 62.6836 65.9375C62.668 66.0234 62.6602 66.1289 62.6602 66.2539V66.6641C62.6602 66.8516 62.6641 67.0352 62.6719 67.2148C62.6875 67.3945 62.7188 67.5703 62.7656 67.7422C62.8125 67.9141 62.8789 68.082 62.9648 68.2461C63.0586 68.4023 63.1836 68.5547 63.3398 68.7031L65.2266 68.7734C65.375 68.7734 65.5195 68.7461 65.6602 68.6914C65.6992 68.6758 65.7461 68.6641 65.8008 68.6562C65.8555 68.6406 65.9102 68.6328 65.9648 68.6328L66.4219 68.6445C66.5547 68.6445 66.6758 68.6055 66.7852 68.5273C66.8477 68.5117 66.918 68.4844 66.9961 68.4453C67.082 68.3984 67.1641 68.3477 67.2422 68.293C67.3281 68.2305 67.4062 68.1719 67.4766 68.1172C67.5469 68.0547 67.6016 68 67.6406 67.9531C67.6875 67.8594 67.7383 67.707 67.793 67.4961C67.8555 67.2852 67.9219 67.0742 67.9922 66.8633C68.0703 66.6523 68.1523 66.4648 68.2383 66.3008C68.332 66.1367 68.4375 66.0547 68.5547 66.0547C68.6562 66.0547 68.75 66.1289 68.8359 66.2773V67.3555C68.8359 67.457 68.8242 67.5469 68.8008 67.625C68.7852 67.7031 68.75 67.8125 68.6953 67.9531L68.5547 68.1406L68.6133 68.5273C68.6133 68.5586 68.6211 68.6523 68.6367 68.8086C68.6523 68.957 68.668 69.1328 68.6836 69.3359C68.6992 69.5312 68.7148 69.7344 68.7305 69.9453C68.7461 70.1484 68.7539 70.3164 68.7539 70.4492L68.6953 70.8828C68.6953 71.0156 68.7188 71.1289 68.7656 71.2227C68.8125 71.3164 68.8359 71.4023 68.8359 71.4805C68.8359 71.6836 68.7969 71.8594 68.7188 72.0078C68.6484 72.1562 68.5117 72.2305 68.3086 72.2305C68.207 72.2305 68.1289 72.2148 68.0742 72.1836C68.0195 72.1445 67.9766 72.1016 67.9453 72.0547C67.9219 72 67.9062 71.9414 67.8984 71.8789C67.8906 71.8086 67.8867 71.7383 67.8867 71.668C67.8867 71.6133 67.8867 71.5664 67.8867 71.5273C67.8867 71.4805 67.8789 71.4336 67.8633 71.3867L67.5352 70.8125V70.4492C67.5273 70.3477 67.4375 70.25 67.2656 70.1562C67.0938 70.0625 66.8789 69.9766 66.6211 69.8984C66.3633 69.8203 66.0781 69.75 65.7656 69.6875C65.4609 69.625 65.1602 69.5703 64.8633 69.5234C64.5742 69.4766 64.3086 69.4414 64.0664 69.418C63.832 69.3945 63.6602 69.3828 63.5508 69.3828C63.4102 69.3828 63.2852 69.4297 63.1758 69.5234C63.0742 69.6094 62.9844 69.7188 62.9062 69.8516C62.8359 69.9766 62.7812 70.1133 62.7422 70.2617C62.7031 70.4023 62.6758 70.5273 62.6602 70.6367V71.5625L62.8125 73.3672V74.3867C62.8281 74.5664 62.8984 74.7461 63.0234 74.9258C63.1562 75.1055 63.3125 75.2695 63.4922 75.418C63.6719 75.5664 63.8633 75.6875 64.0664 75.7812C64.2695 75.875 64.4531 75.9297 64.6172 75.9453L65.4492 76.0039L65.6719 76.0859H66.4219C66.6094 76.0859 66.7812 76.0859 66.9375 76.0859C67.0938 76.0859 67.25 76.082 67.4062 76.0742C67.5625 76.0664 67.7227 76.0586 67.8867 76.0508C68.0508 76.043 68.2383 76.0273 68.4492 76.0039L69.3867 75.6406C69.5117 75.5547 69.6641 75.4297 69.8438 75.2656C70.0234 75.1016 70.1992 74.9297 70.3711 74.75C70.5508 74.5625 70.7148 74.3789 70.8633 74.1992C71.0117 74.0195 71.1211 73.8711 71.1914 73.7539C71.2305 73.7305 71.2695 73.6719 71.3086 73.5781C71.3477 73.4766 71.3906 73.3711 71.4375 73.2617C71.4922 73.1445 71.5508 73.043 71.6133 72.957C71.6836 72.8711 71.7656 72.8281 71.8594 72.8281C71.9453 72.8281 72.0078 72.8633 72.0469 72.9336C72.0859 73.0039 72.1055 73.0742 72.1055 73.1445L71.8945 73.8828C71.7773 74.2891 71.6641 74.7031 71.5547 75.125C71.4453 75.5391 71.3711 75.9609 71.332 76.3906C71.168 76.6406 70.9609 76.793 70.7109 76.8477C70.4609 76.8945 70.2031 76.918 69.9375 76.918C69.8516 76.918 69.7656 76.918 69.6797 76.918C69.5938 76.918 69.5156 76.9258 69.4453 76.9414L69.1992 77C69.1211 77 69.0586 76.9922 69.0117 76.9766C68.9648 76.9609 68.9219 76.9453 68.8828 76.9297C68.8438 76.9141 68.8047 76.8984 68.7656 76.8828C68.7266 76.8672 68.6758 76.8594 68.6133 76.8594L67.8633 76.9414L67.4766 76.8594L65.6719 77C65.1016 77 64.5312 76.9766 63.9609 76.9297C63.3906 76.8828 62.8008 76.8594 62.1914 76.8594L60.6914 77L59.6367 76.9414C59.4961 76.9414 59.3594 76.957 59.2266 76.9883C59.0938 77.0195 58.9648 77.0547 58.8398 77.0938C58.7148 77.1328 58.5938 77.168 58.4766 77.1992C58.3594 77.2305 58.2461 77.2461 58.1367 77.2461C58.0039 77.2461 57.8594 77.2266 57.7031 77.1875C57.5469 77.1484 57.3984 77.0898 57.2578 77.0117C57.125 76.9336 57.0117 76.8359 56.918 76.7188C56.8242 76.6016 56.7773 76.4648 56.7773 76.3086ZM86.5312 76.5781C86.0547 76.1875 85.6367 75.7461 85.2773 75.2539C84.918 74.7617 84.6133 74.2422 84.3633 73.6953L84.1992 73.2734C84.1602 73.1953 84.1055 73.1172 84.0352 73.0391C83.9648 72.9531 83.8906 72.8711 83.8125 72.793C83.7422 72.707 83.6719 72.6289 83.6016 72.5586C83.5312 72.4805 83.4805 72.4062 83.4492 72.3359L83.1914 71.9141L82.3125 70.9531C82.2969 70.7266 82.1875 70.5078 81.9844 70.2969C81.7891 70.0781 81.5547 69.8828 81.2812 69.7109C81.0156 69.5391 80.7383 69.4023 80.4492 69.3008C80.168 69.1992 79.9336 69.1484 79.7461 69.1484C79.668 69.1484 79.5703 69.1602 79.4531 69.1836C79.3359 69.207 79.2188 69.2461 79.1016 69.3008C78.9922 69.3477 78.8945 69.4102 78.8086 69.4883C78.7305 69.5664 78.6914 69.6562 78.6914 69.7578L78.7734 70.2031C78.7734 70.3125 78.7578 70.3906 78.7266 70.4375C78.7031 70.4844 78.6914 70.543 78.6914 70.6133C78.6914 70.7383 78.6953 70.8398 78.7031 70.918C78.7109 70.9883 78.7344 71.0898 78.7734 71.2227L78.668 73.0859L78.6914 73.332C78.6992 73.4648 78.7031 73.5938 78.7031 73.7188C78.7031 73.8438 78.7031 73.9727 78.7031 74.1055C78.7031 74.2383 78.7031 74.3633 78.7031 74.4805C78.7031 74.5898 78.6992 74.707 78.6914 74.832C78.6914 74.9023 78.7227 74.9844 78.7852 75.0781C78.8477 75.1719 78.9219 75.2383 79.0078 75.2773L79.5586 75.6406C79.668 75.7188 79.8086 75.7734 79.9805 75.8047C80.1523 75.8359 80.332 75.8594 80.5195 75.875C80.7148 75.8906 80.9062 75.9062 81.0938 75.9219C81.2891 75.9297 81.4609 75.957 81.6094 76.0039C81.7656 76.043 81.8906 76.1055 81.9844 76.1914C82.0859 76.2695 82.1367 76.3828 82.1367 76.5312C82.1367 76.6484 82.0898 76.7578 81.9961 76.8594C81.9102 76.9531 81.8047 77.0352 81.6797 77.1055C81.5625 77.1758 81.4375 77.2305 81.3047 77.2695C81.1719 77.3086 81.0586 77.3281 80.9648 77.3281C80.8398 77.3281 80.7227 77.3125 80.6133 77.2812C80.5117 77.2578 80.4062 77.2266 80.2969 77.1875C80.1953 77.1562 80.0859 77.1211 79.9688 77.082C79.8594 77.0508 79.7422 77.0234 79.6172 77C79.3359 76.9453 79.0547 76.8984 78.7734 76.8594C78.5 76.8125 78.1875 76.7383 77.8359 76.6367C77.75 76.6367 77.6562 76.6523 77.5547 76.6836C77.4609 76.707 77.3516 76.7188 77.2266 76.7188L76.3945 76.6367C76.3086 76.6367 76.2148 76.6797 76.1133 76.7656C76.0195 76.8438 75.918 76.8828 75.8086 76.8828L73.8984 76.8125C73.8203 76.7344 73.7812 76.6562 73.7812 76.5781C73.7812 76.3906 73.8711 76.2422 74.0508 76.1328C74.2383 76.0234 74.4492 75.9336 74.6836 75.8633C74.9258 75.793 75.1562 75.7344 75.375 75.6875C75.6016 75.6406 75.7539 75.5859 75.832 75.5234C75.918 75.3984 75.9609 75.2578 75.9609 75.1016C75.9609 74.9375 75.9766 74.8008 76.0078 74.6914C76.0469 74.6758 76.0859 74.6445 76.125 74.5977C76.1719 74.5508 76.2031 74.5273 76.2188 74.5273C76.2891 74.3555 76.332 74.1523 76.3477 73.918C76.3711 73.6836 76.3828 73.4531 76.3828 73.2266V72.7227C76.3828 72.5586 76.3633 72.418 76.3242 72.3008C76.293 72.1758 76.2773 72.0469 76.2773 71.9141L76.5234 69.8047L76.3359 68.668L76.2773 68.3984V68.3398C76.2773 68.3164 76.2773 68.2773 76.2773 68.2227C76.2852 68.1602 76.2891 68.0977 76.2891 68.0352C76.2969 67.9648 76.3047 67.9023 76.3125 67.8477C76.3203 67.7852 76.3281 67.7422 76.3359 67.7188C76.4297 67.6797 76.4844 67.6484 76.5 67.625C76.5156 67.6016 76.5234 67.5625 76.5234 67.5078L76.3828 66.7812L76.5234 66.1484C76.5234 66.1406 76.5312 66.0977 76.5469 66.0195C76.5703 65.9414 76.582 65.8867 76.582 65.8555L76.5234 65.5508V65.1992L76.582 64.4492L76.3828 62.668V62.4219C76.2109 62.2109 76.043 62.0312 75.8789 61.8828C75.7148 61.7344 75.5391 61.6094 75.3516 61.5078C75.1641 61.3984 74.9609 61.3047 74.7422 61.2266C74.5312 61.1484 74.2852 61.0742 74.0039 61.0039C73.8945 60.9805 73.8398 60.9141 73.8398 60.8047C73.8398 60.6953 73.9102 60.6016 74.0508 60.5234C74.1992 60.4453 74.3672 60.3828 74.5547 60.3359C74.7422 60.2891 74.9258 60.2539 75.1055 60.2305C75.2852 60.207 75.4102 60.1953 75.4805 60.1953L76.1719 60.2539L76.9102 60.1953L77.9414 60.418C78.1523 60.418 78.3594 60.3906 78.5625 60.3359C78.7656 60.2812 78.9883 60.2539 79.2305 60.2539L80.2031 60.3594L81.1992 60.2539C81.5898 60.2539 81.9688 60.293 82.3359 60.3711C82.7031 60.4414 83.0742 60.5312 83.4492 60.6406C83.6289 60.7031 83.8242 60.7539 84.0352 60.793C84.2539 60.8242 84.4453 60.8945 84.6094 61.0039L84.8672 61.1914C85.1797 61.3789 85.4609 61.5586 85.7109 61.7305C85.9688 61.8945 86.1836 62.082 86.3555 62.293C86.5352 62.4961 86.6758 62.7383 86.7773 63.0195C86.8867 63.293 86.9531 63.6367 86.9766 64.0508C86.9922 64.2539 87.0195 64.4414 87.0586 64.6133C87.0977 64.7773 87.1172 64.9609 87.1172 65.1641C87.1172 65.25 87.1055 65.3164 87.082 65.3633C87.0664 65.4102 87.043 65.4531 87.0117 65.4922C86.9805 65.5312 86.9453 65.5703 86.9062 65.6094C86.875 65.6484 86.8438 65.7031 86.8125 65.7734C86.7734 65.8516 86.7461 65.9453 86.7305 66.0547C86.7148 66.1562 86.6992 66.2617 86.6836 66.3711C86.668 66.4727 86.6484 66.5742 86.625 66.6758C86.6016 66.7695 86.5703 66.8438 86.5312 66.8984C86.3984 67.0859 86.2383 67.2383 86.0508 67.3555C85.8711 67.4727 85.6992 67.6133 85.5352 67.7773C85.4648 67.8945 85.3555 67.9922 85.207 68.0703C85.0586 68.1406 84.9102 68.2109 84.7617 68.2812C84.6133 68.3516 84.4805 68.4375 84.3633 68.5391C84.2539 68.6406 84.1992 68.7773 84.1992 68.9492C84.1992 69.0352 84.2148 69.0977 84.2461 69.1367C84.2773 69.1758 84.3125 69.2109 84.3516 69.2422C84.3906 69.2734 84.4336 69.3047 84.4805 69.3359C84.5273 69.3672 84.5703 69.4141 84.6094 69.4766C84.6172 69.5 84.6523 69.5586 84.7148 69.6523C84.7773 69.7461 84.8438 69.8477 84.9141 69.957C84.9922 70.0586 85.0625 70.1562 85.125 70.25C85.1875 70.3359 85.2266 70.3828 85.2422 70.3906C85.5312 70.7656 85.7891 71.1484 86.0156 71.5391C86.25 71.9297 86.5156 72.2969 86.8125 72.6406C86.9922 72.8438 87.168 73.0469 87.3398 73.25C87.5195 73.4531 87.7227 73.6211 87.9492 73.7539C88.0117 73.7852 88.0664 73.8438 88.1133 73.9297C88.1602 74.0156 88.2031 74.1133 88.2422 74.2227C88.2891 74.3242 88.332 74.4258 88.3711 74.5273C88.418 74.6289 88.4688 74.7109 88.5234 74.7734C88.8203 74.9844 89.0938 75.1719 89.3438 75.3359C89.6016 75.5 89.8672 75.6836 90.1406 75.8867C90.2656 75.9727 90.4102 76.0469 90.5742 76.1094C90.7461 76.1719 90.9062 76.2422 91.0547 76.3203C91.2109 76.3984 91.3398 76.4961 91.4414 76.6133C91.5508 76.7227 91.6055 76.8633 91.6055 77.0352C91.6055 77.1992 91.5352 77.3047 91.3945 77.3516C91.2617 77.3984 91.1133 77.4219 90.9492 77.4219H89.2266C88.9844 77.3125 88.7461 77.2539 88.5117 77.2461C88.2773 77.2461 88.0117 77.2305 87.7148 77.1992C87.6523 77.1914 87.5703 77.1641 87.4688 77.1172C87.375 77.0781 87.2734 77.0312 87.1641 76.9766C87.0625 76.9141 86.9609 76.8516 86.8594 76.7891C86.7578 76.7188 86.668 76.6602 86.5898 76.6133L86.5312 76.5781ZM78.5273 67.5078C78.5273 67.6875 78.5586 67.8438 78.6211 67.9766C78.6914 68.1094 78.7852 68.2227 78.9023 68.3164C79.0195 68.4023 79.1523 68.4688 79.3008 68.5156C79.457 68.5625 79.6172 68.5859 79.7812 68.5859H80.2031C80.2266 68.4609 80.3398 68.3555 80.543 68.2695C80.7539 68.1758 80.9844 68.0977 81.2344 68.0352C81.4922 67.9648 81.7422 67.9062 81.9844 67.8594C82.2344 67.8125 82.4141 67.7656 82.5234 67.7188C82.6797 67.6484 82.8359 67.543 82.9922 67.4023C83.1484 67.2539 83.2891 67.1094 83.4141 66.9688L83.8008 66.2305C83.918 66.0273 84.0117 65.8164 84.082 65.5977C84.1602 65.3789 84.1992 65.1445 84.1992 64.8945C84.1992 64.832 84.1836 64.7734 84.1523 64.7188C84.1289 64.6562 84.1016 64.5977 84.0703 64.543C84.0391 64.4805 84.0078 64.418 83.9766 64.3555C83.9531 64.2852 83.9414 64.207 83.9414 64.1211C83.9883 63.9102 84.0156 63.7812 84.0234 63.7344C84.0312 63.6875 84.0352 63.6484 84.0352 63.6172V63.5C84.0352 63.4688 83.9961 63.4219 83.918 63.3594C83.8477 63.2969 83.8086 63.25 83.8008 63.2188C83.6133 62.875 83.3984 62.5898 83.1562 62.3633C82.9141 62.1289 82.6445 61.9453 82.3477 61.8125C82.0586 61.6719 81.7422 61.5742 81.3984 61.5195C81.0625 61.457 80.6992 61.4258 80.3086 61.4258C80.2773 61.4258 80.2109 61.4336 80.1094 61.4492C80.0078 61.4648 79.8984 61.4844 79.7812 61.5078C79.6641 61.5234 79.5547 61.543 79.4531 61.5664C79.3594 61.582 79.3008 61.5977 79.2773 61.6133C79.2617 61.6289 79.2383 61.6602 79.207 61.707C79.1836 61.7461 79.1562 61.7891 79.125 61.8359C79.1016 61.8828 79.0781 61.9297 79.0547 61.9766C79.0312 62.0156 79.0156 62.043 79.0078 62.0586V62.3867C79.0078 62.8086 78.9688 63.2227 78.8906 63.6289C78.8125 64.0273 78.7188 64.4375 78.6094 64.8594L78.4453 65.0938L78.6914 65.3984C78.6992 65.4375 78.7109 65.5195 78.7266 65.6445C78.7422 65.7617 78.7578 65.8555 78.7734 65.9258V66.0898C78.7578 66.0898 78.7383 66.1055 78.7148 66.1367C78.6992 66.168 78.6914 66.1992 78.6914 66.2305C78.6914 66.2461 78.6992 66.2852 78.7148 66.3477C78.7383 66.4102 78.7578 66.4453 78.7734 66.4531L78.5273 67.5078ZM94.7344 76.4961C94.7344 76.2773 94.8008 76.1133 94.9336 76.0039C95.0664 75.8867 95.2344 75.8281 95.4375 75.8281L96.2109 75.9219C96.4062 75.9219 96.6016 75.8828 96.7969 75.8047C97 75.7266 97.1875 75.625 97.3594 75.5C97.5391 75.3672 97.6914 75.2148 97.8164 75.043C97.9414 74.8711 98.0273 74.6914 98.0742 74.5039V73.8828C98.1133 73.5391 98.168 73.2148 98.2383 72.9102C98.3086 72.5977 98.3438 72.2773 98.3438 71.9492L98.1797 71.4453V68.75C98.1641 68.6562 98.1523 68.5664 98.1445 68.4805C98.1445 68.3867 98.1445 68.2812 98.1445 68.1641V66.0312C98.1758 65.9453 98.1953 65.8438 98.2031 65.7266C98.2109 65.6016 98.2148 65.4688 98.2148 65.3281C98.2148 65.1797 98.207 65.0547 98.1914 64.9531C98.1836 64.8438 98.1797 64.7422 98.1797 64.6484L98.2617 64.5312V63.1719C98.1992 63.0391 98.1562 62.9219 98.1328 62.8203C98.1094 62.7109 98.0781 62.6211 98.0391 62.5508C98 62.4727 97.9414 62.4141 97.8633 62.375C97.793 62.3359 97.6758 62.3164 97.5117 62.3164L96.8672 62.4805C96.6641 62.4805 96.4609 62.4492 96.2578 62.3867C96.0625 62.3164 95.8516 62.2422 95.625 62.1641C95.2422 62.1875 94.9219 62.2148 94.6641 62.2461C94.4062 62.2695 94.1719 62.3086 93.9609 62.3633C93.75 62.418 93.543 62.4883 93.3398 62.5742C93.1367 62.6602 92.8984 62.7773 92.625 62.9258C92.5234 63.0586 92.4297 63.2188 92.3438 63.4062C92.2578 63.5938 92.1641 63.7773 92.0625 63.957C91.9688 64.1289 91.8594 64.2773 91.7344 64.4023C91.6094 64.5273 91.4609 64.5898 91.2891 64.5898C91.2422 64.5898 91.1875 64.5898 91.125 64.5898C91.0625 64.5898 91.0039 64.5859 90.9492 64.5781C90.9023 64.5625 90.8594 64.543 90.8203 64.5195C90.7812 64.4961 90.7617 64.4648 90.7617 64.4258C90.7617 64.293 90.7695 64.1797 90.7852 64.0859C90.8086 63.9844 90.8359 63.8906 90.8672 63.8047C90.8984 63.7188 90.9258 63.6328 90.9492 63.5469C90.9805 63.4531 91.0039 63.3477 91.0195 63.2305V62.4805L91.207 62.0352C91.2305 61.9805 91.25 61.8984 91.2656 61.7891C91.2891 61.6719 91.3086 61.5508 91.3242 61.4258C91.3477 61.3008 91.3711 61.1758 91.3945 61.0508C91.418 60.9258 91.4414 60.8242 91.4648 60.7461C91.4883 60.6289 91.5156 60.5078 91.5469 60.3828C91.5781 60.2578 91.6211 60.1445 91.6758 60.043C91.7305 59.9336 91.7969 59.8438 91.875 59.7734C91.9609 59.7031 92.0703 59.668 92.2031 59.668C92.3516 59.668 92.5117 59.7266 92.6836 59.8438C92.8555 59.9609 93.0273 60.0977 93.1992 60.2539C93.3789 60.4023 93.5508 60.5469 93.7148 60.6875C93.8867 60.8281 94.043 60.9219 94.1836 60.9688C94.2539 60.9844 94.375 61.0078 94.5469 61.0391C94.7266 61.0625 94.9141 61.0898 95.1094 61.1211C95.3125 61.1523 95.5 61.1797 95.6719 61.2031C95.8438 61.2188 95.9648 61.2266 96.0352 61.2266C96.1523 61.2266 96.2578 61.2188 96.3516 61.2031C96.4453 61.1797 96.5352 61.1562 96.6211 61.1328C96.707 61.1016 96.7969 61.0781 96.8906 61.0625C96.9922 61.0391 97.1094 61.0273 97.2422 61.0273H97.5352C97.707 61.0273 97.8086 61.0312 97.8398 61.0391C97.8711 61.0547 97.9297 61.0859 98.0156 61.1328C98.1094 61.1797 98.1641 61.2109 98.1797 61.2266H98.2383C98.3711 61.2266 98.4961 61.2148 98.6133 61.1914C98.7383 61.1602 98.8633 61.1289 98.9883 61.0977C99.1133 61.0664 99.2383 61.0391 99.3633 61.0156C99.4883 60.9844 99.6211 60.9688 99.7617 60.9688C99.9258 60.9688 100.078 60.9922 100.219 61.0391C100.359 61.0859 100.492 61.1094 100.617 61.1094H100.98C101.301 61.1094 101.613 61.1016 101.918 61.0859C102.23 61.0625 102.547 61.0391 102.867 61.0156C103.195 60.9922 103.527 60.9688 103.863 60.9453C104.207 60.9219 104.57 60.9062 104.953 60.8984C105.062 60.8984 105.156 60.9141 105.234 60.9453C105.312 60.9688 105.395 60.9805 105.48 60.9805C105.582 60.9805 105.664 60.957 105.727 60.9102C105.797 60.8555 105.859 60.7969 105.914 60.7344C105.969 60.6641 106.02 60.5977 106.066 60.5352C106.121 60.4648 106.184 60.4102 106.254 60.3711C106.355 60.332 106.449 60.2852 106.535 60.2305C106.629 60.168 106.715 60.1094 106.793 60.0547C106.879 59.9922 106.961 59.9414 107.039 59.9023C107.125 59.8633 107.219 59.8438 107.32 59.8438C107.406 59.8438 107.48 59.8945 107.543 59.9961C107.613 60.0898 107.676 60.168 107.73 60.2305C107.73 60.2461 107.734 60.2578 107.742 60.2656C107.742 60.2734 107.746 60.2773 107.754 60.2773C107.738 60.3242 107.73 60.3867 107.73 60.4648C107.73 60.5352 107.73 60.6133 107.73 60.6992V61.8594C107.73 61.9609 107.73 62.043 107.73 62.1055C107.73 62.168 107.738 62.2188 107.754 62.2578L107.848 63.5234C107.848 63.5469 107.844 63.5898 107.836 63.6523C107.836 63.7148 107.832 63.7812 107.824 63.8516C107.824 63.9141 107.82 63.9766 107.812 64.0391C107.812 64.0938 107.812 64.1289 107.812 64.1445C107.758 64.2383 107.656 64.2852 107.508 64.2852C107.367 64.2852 107.242 64.2344 107.133 64.1328C107.023 64.0234 106.918 63.8984 106.816 63.7578C106.723 63.6172 106.629 63.4805 106.535 63.3477C106.449 63.207 106.355 63.1016 106.254 63.0312C106.098 62.9062 105.945 62.8008 105.797 62.7148C105.656 62.6289 105.523 62.5039 105.398 62.3398L104.977 62.3867L102.211 62.1641L101.812 62.2578L101.227 62.1641H101.016L100.84 62.3398C100.84 62.332 100.836 62.3711 100.828 62.457C100.82 62.543 100.809 62.6484 100.793 62.7734C100.785 62.8984 100.777 63.0234 100.77 63.1484C100.762 63.2734 100.758 63.375 100.758 63.4531L100.84 64.6719V67.0039L100.676 67.8828L100.84 69.3125C100.84 69.3984 100.836 69.4648 100.828 69.5117C100.82 69.5586 100.797 69.6289 100.758 69.7227C100.758 69.8164 100.758 69.9688 100.758 70.1797C100.766 70.3906 100.77 70.6289 100.77 70.8945C100.77 71.1445 100.766 71.3672 100.758 71.5625C100.758 71.7578 100.758 71.9023 100.758 71.9961L100.676 72.582C100.676 72.6758 100.68 72.8086 100.688 72.9805C100.695 73.1445 100.707 73.3281 100.723 73.5312C100.738 73.7344 100.762 73.9453 100.793 74.1641C100.824 74.375 100.867 74.5703 100.922 74.75C100.977 74.9297 101.039 75.0859 101.109 75.2188C101.188 75.3438 101.277 75.418 101.379 75.4414L102.902 75.8281H103.172L103.488 75.7578C103.582 75.7578 103.66 75.7852 103.723 75.8398C103.793 75.8867 103.848 75.9492 103.887 76.0273C103.934 76.1055 103.965 76.1875 103.98 76.2734C104.004 76.3516 104.016 76.4258 104.016 76.4961C104.016 76.6289 103.988 76.7344 103.934 76.8125C103.879 76.8828 103.809 76.9375 103.723 76.9766C103.637 77.0156 103.539 77.0391 103.43 77.0469C103.328 77.0547 103.227 77.0586 103.125 77.0586C103.039 77.0586 102.961 77.0469 102.891 77.0234C102.82 77 102.742 76.957 102.656 76.8945C102.586 76.8555 102.504 76.8203 102.41 76.7891C102.316 76.7578 102.223 76.7422 102.129 76.7422L101.543 76.8945C101.387 76.8945 101.199 76.8672 100.98 76.8125C100.762 76.7578 100.539 76.7109 100.312 76.6719C100.305 76.6719 100.27 76.6797 100.207 76.6953C100.145 76.7031 100.074 76.7188 99.9961 76.7422C99.918 76.7578 99.8438 76.7734 99.7734 76.7891C99.7109 76.7969 99.6719 76.8008 99.6562 76.8008H98.6016C98.4219 76.8086 98.2617 76.8438 98.1211 76.9062C97.9805 76.9688 97.8242 77 97.6523 77C97.5977 76.9844 97.5195 76.9648 97.418 76.9414C97.3164 76.9102 97.2578 76.8945 97.2422 76.8945C97.1328 76.8945 97.0312 76.9102 96.9375 76.9414C96.8516 76.9648 96.7539 76.9922 96.6445 77.0234C96.4961 77.0547 96.3516 77.0859 96.2109 77.1172C96.0781 77.1484 95.9297 77.1641 95.7656 77.1641H95.5898C95.4805 77.1641 95.3789 77.1562 95.2852 77.1406C95.1914 77.125 95.0742 77.0977 94.9336 77.0586C94.9336 77.043 94.9141 76.9688 94.875 76.8359C94.8359 76.6953 94.7891 76.582 94.7344 76.4961ZM113.098 76.6953C112.988 76.6953 112.875 76.7109 112.758 76.7422C112.648 76.7656 112.535 76.7969 112.418 76.8359C112.301 76.8672 112.18 76.8984 112.055 76.9297C111.938 76.9531 111.812 76.9648 111.68 76.9648L111.152 76.8945C111.035 76.8945 110.926 76.9062 110.824 76.9297C110.73 76.9531 110.633 76.9648 110.531 76.9648H109.676C109.605 76.9648 109.543 76.9609 109.488 76.9531C109.434 76.9453 109.383 76.9336 109.336 76.918C109.039 76.8555 108.891 76.668 108.891 76.3555C108.891 76.2617 108.898 76.1836 108.914 76.1211C108.938 76.0586 109.016 75.9922 109.148 75.9219C109.281 75.8672 109.445 75.8281 109.641 75.8047C109.844 75.7812 110.051 75.7617 110.262 75.7461C110.473 75.7227 110.672 75.6992 110.859 75.6758C111.055 75.6445 111.207 75.5938 111.316 75.5234C111.363 75.5 111.418 75.4375 111.48 75.3359C111.551 75.2344 111.613 75.125 111.668 75.0078C111.73 74.8828 111.781 74.7656 111.82 74.6562C111.867 74.5469 111.891 74.4688 111.891 74.4219L111.75 73.4727L112.008 72.9102L111.75 72.418L112.008 69.7227L111.926 68.5039C111.887 68.4648 111.867 68.3789 111.867 68.2461C111.867 68.1211 111.875 68.0156 111.891 67.9297C111.914 67.8438 111.938 67.7734 111.961 67.7188C111.992 67.6562 112.016 67.5977 112.031 67.543C112.055 67.4883 112.066 67.4258 112.066 67.3555C112.066 67.1523 112.031 66.9609 111.961 66.7812C111.898 66.5938 111.867 66.3906 111.867 66.1719L112.008 65.3398C112.008 65.2617 112.004 65.168 111.996 65.0586C111.996 64.9492 111.988 64.8359 111.973 64.7188C111.957 64.6016 111.93 64.4922 111.891 64.3906C111.859 64.2812 111.812 64.1914 111.75 64.1211C111.75 64.0898 111.758 64.043 111.773 63.9805C111.797 63.918 111.809 63.8242 111.809 63.6992C111.809 63.5977 111.797 63.5078 111.773 63.4297C111.758 63.3438 111.75 63.2852 111.75 63.2539C111.75 63.2148 111.742 63.168 111.727 63.1133C111.711 63.0586 111.695 63.0312 111.68 63.0312L110.93 62.3398C110.836 62.3398 110.676 62.3164 110.449 62.2695C110.23 62.2227 110.004 62.1602 109.77 62.082C109.543 62.0039 109.34 61.9141 109.16 61.8125C108.98 61.7031 108.891 61.5898 108.891 61.4727C108.891 61.2539 108.961 61.1094 109.102 61.0391C109.242 60.9609 109.395 60.9219 109.559 60.9219C109.621 60.9219 109.68 60.9258 109.734 60.9336C109.797 60.9414 109.852 60.9531 109.898 60.9688C110.227 60.9844 110.551 61.0117 110.871 61.0508C111.191 61.0898 111.516 61.1094 111.844 61.1094C112.094 61.1094 112.344 61.0898 112.594 61.0508C112.844 61.0117 113.094 60.9844 113.344 60.9688C113.453 60.9297 113.605 60.8984 113.801 60.875C113.996 60.8516 114.199 60.8359 114.41 60.8281C114.629 60.8125 114.84 60.8008 115.043 60.793C115.246 60.7852 115.41 60.7734 115.535 60.7578C115.785 60.7188 116.035 60.6719 116.285 60.6172C116.535 60.5547 116.785 60.5234 117.035 60.5234C117.199 60.5234 117.355 60.5586 117.504 60.6289C117.652 60.6992 117.727 60.8516 117.727 61.0859C117.727 61.1328 117.699 61.1758 117.645 61.2148C117.598 61.2539 117.539 61.293 117.469 61.332C117.406 61.3633 117.348 61.3945 117.293 61.4258C117.238 61.4492 117.207 61.4766 117.199 61.5078C117.176 61.5312 117.129 61.5742 117.059 61.6367C116.996 61.6914 116.926 61.75 116.848 61.8125C116.777 61.875 116.707 61.9336 116.637 61.9883C116.566 62.043 116.512 62.0781 116.473 62.0938C116.355 62.0938 116.184 62.1133 115.957 62.1523C115.738 62.1914 115.52 62.2539 115.301 62.3398C115.082 62.418 114.891 62.5156 114.727 62.6328C114.562 62.75 114.48 62.8828 114.48 63.0312V64.7539C114.48 64.7617 114.484 64.7891 114.492 64.8359C114.508 64.8828 114.523 64.9375 114.539 65C114.555 65.0625 114.566 65.1289 114.574 65.1992C114.59 65.2617 114.602 65.3086 114.609 65.3398C114.688 65.3945 114.727 65.4688 114.727 65.5625C114.602 65.7891 114.508 66.0234 114.445 66.2656C114.391 66.5 114.363 66.7344 114.363 66.9688L114.48 67.8359L114.422 68.5508C114.422 68.6602 114.434 68.7695 114.457 68.8789C114.488 68.9883 114.52 69.1016 114.551 69.2188C114.582 69.3281 114.609 69.4414 114.633 69.5586C114.664 69.668 114.68 69.7852 114.68 69.9102C114.68 70.0195 114.664 70.1289 114.633 70.2383C114.609 70.3398 114.582 70.4414 114.551 70.543C114.52 70.6367 114.488 70.7344 114.457 70.8359C114.434 70.9375 114.422 71.0391 114.422 71.1406C114.422 71.25 114.43 71.3438 114.445 71.4219C114.461 71.5 114.492 71.6016 114.539 71.7266V73.168C114.508 73.2539 114.488 73.3203 114.48 73.3672C114.48 73.4062 114.48 73.4609 114.48 73.5312C114.48 73.8281 114.512 74.0938 114.574 74.3281C114.637 74.5625 114.727 74.8125 114.844 75.0781C114.844 75.1016 114.883 75.1445 114.961 75.207C115.039 75.2617 115.125 75.3203 115.219 75.3828C115.32 75.4375 115.414 75.4883 115.5 75.5352C115.586 75.582 115.637 75.6055 115.652 75.6055C115.816 75.6055 115.949 75.5898 116.051 75.5586C116.152 75.5195 116.258 75.5 116.367 75.5C116.461 75.5 116.594 75.5117 116.766 75.5352C116.938 75.5586 117.094 75.6094 117.234 75.6875C117.312 75.75 117.383 75.8203 117.445 75.8984C117.508 75.9688 117.539 76.0469 117.539 76.1328C117.539 76.25 117.523 76.3672 117.492 76.4844C117.461 76.6016 117.41 76.6797 117.34 76.7188C117.246 76.8125 117.125 76.8594 116.977 76.8594C116.906 76.8594 116.828 76.8633 116.742 76.8711C116.656 76.8789 116.578 76.8867 116.508 76.8945L116.039 77C115.875 77 115.695 77 115.5 77C115.312 76.9922 115.121 76.9844 114.926 76.9766C114.738 76.9688 114.551 76.957 114.363 76.9414C114.184 76.9258 114.02 76.9102 113.871 76.8945C113.848 76.8945 113.805 76.8867 113.742 76.8711C113.68 76.8477 113.609 76.8242 113.531 76.8008C113.453 76.7773 113.379 76.7578 113.309 76.7422C113.246 76.7266 113.199 76.7188 113.168 76.7188C113.16 76.7188 113.152 76.7148 113.145 76.707C113.137 76.707 113.129 76.707 113.121 76.707C113.113 76.6992 113.105 76.6953 113.098 76.6953ZM131.648 62.8438L131.074 62.2461C130.879 62.0742 130.695 61.9336 130.523 61.8242C130.359 61.7148 130.195 61.6289 130.031 61.5664C129.867 61.4961 129.699 61.4492 129.527 61.4258C129.363 61.4023 129.18 61.3906 128.977 61.3906C128.906 61.3906 128.863 61.3984 128.848 61.4141C128.637 61.4141 128.469 61.4141 128.344 61.4141C128.227 61.4141 128.137 61.4141 128.074 61.4141C128.012 61.4141 127.969 61.418 127.945 61.4258C127.93 61.4258 127.922 61.4258 127.922 61.4258H127.02C126.887 61.4648 126.75 61.4883 126.609 61.4961C126.469 61.5039 126.332 61.5078 126.199 61.5078C125.902 61.5078 125.676 61.5117 125.52 61.5195C125.371 61.5273 125.25 61.5586 125.156 61.6133C125.07 61.6445 125.02 61.6875 125.004 61.7422C124.988 61.7891 124.98 61.832 124.98 61.8711C124.98 62.0352 124.957 62.1562 124.91 62.2344C124.871 62.3047 124.785 62.3828 124.652 62.4688C124.629 62.4844 124.609 62.5234 124.594 62.5859C124.586 62.6484 124.574 62.7188 124.559 62.7969C124.551 62.875 124.543 62.9531 124.535 63.0312C124.535 63.1094 124.535 63.1719 124.535 63.2188C124.535 63.3984 124.562 63.5703 124.617 63.7344C124.672 63.8984 124.699 64.082 124.699 64.2852L124.594 65.0234C124.594 65.2031 124.633 65.3828 124.711 65.5625C124.797 65.7422 124.84 65.9375 124.84 66.1484L124.652 67.8945C124.652 67.9648 124.684 68.0469 124.746 68.1406C124.809 68.2266 124.859 68.293 124.898 68.3398C125.141 68.3711 125.387 68.418 125.637 68.4805C125.887 68.5352 126.133 68.5625 126.375 68.5625C126.43 68.5625 126.477 68.5586 126.516 68.5508C126.562 68.5352 126.605 68.4844 126.645 68.3984C126.73 68.3906 126.832 68.3828 126.949 68.375C127.074 68.3672 127.215 68.3633 127.371 68.3633C127.582 68.3633 127.809 68.3633 128.051 68.3633C128.293 68.3555 128.531 68.3438 128.766 68.3281C129 68.3047 129.215 68.2734 129.41 68.2344C129.605 68.1875 129.758 68.1211 129.867 68.0352C129.977 67.9648 130.059 67.8633 130.113 67.7305C130.176 67.5977 130.223 67.457 130.254 67.3086C130.285 67.1523 130.312 66.9961 130.336 66.8398C130.359 66.6836 130.391 66.543 130.43 66.418C130.477 66.2852 130.539 66.1797 130.617 66.1016C130.703 66.0156 130.824 65.9727 130.98 65.9727C131.027 65.9727 131.07 65.9805 131.109 65.9961C131.156 66.0117 131.199 66.0625 131.238 66.1484V66.6406C131.238 67.0156 131.199 67.375 131.121 67.7188C131.082 67.9922 131.043 68.2422 131.004 68.4688C130.973 68.6875 130.957 68.9102 130.957 69.1367C130.957 69.332 130.984 69.5234 131.039 69.7109C131.102 69.8906 131.164 70.0703 131.227 70.25C131.297 70.4219 131.359 70.5977 131.414 70.7773C131.477 70.957 131.508 71.1406 131.508 71.3281C131.508 71.4453 131.504 71.5352 131.496 71.5977C131.496 71.6523 131.48 71.6875 131.449 71.7031C131.41 71.7656 131.383 71.8125 131.367 71.8438C131.352 71.875 131.309 71.8906 131.238 71.8906C131.121 71.8906 131.031 71.8477 130.969 71.7617C130.914 71.6758 130.844 71.5898 130.758 71.5039L130.594 71.1406C130.508 70.9531 130.426 70.7734 130.348 70.6016C130.27 70.4297 130.176 70.2695 130.066 70.1211C129.965 69.9648 129.844 69.8203 129.703 69.6875C129.57 69.5469 129.406 69.4219 129.211 69.3125H128.684C128.41 69.3125 128.129 69.3086 127.84 69.3008C127.551 69.2852 127.301 69.2578 127.09 69.2188L126.375 69.0898C126.172 69.0898 125.949 69.125 125.707 69.1953C125.473 69.2656 125.25 69.3047 125.039 69.3125C124.969 69.3984 124.887 69.5078 124.793 69.6406C124.699 69.7656 124.652 69.9023 124.652 70.0508C124.777 70.6289 124.883 71.1992 124.969 71.7617C125.055 72.3164 125.098 72.875 125.098 73.4375C125.098 73.7031 125.09 73.8828 125.074 73.9766C125.066 74.0625 125.055 74.1328 125.039 74.1875C125.102 74.375 125.188 74.543 125.297 74.6914C125.414 74.832 125.547 74.9609 125.695 75.0781C125.844 75.1875 126 75.2891 126.164 75.3828C126.328 75.4766 126.488 75.5625 126.645 75.6406C126.652 75.6406 126.676 75.6641 126.715 75.7109C126.762 75.7578 126.785 75.7891 126.785 75.8047C126.816 75.8203 126.887 75.8359 126.996 75.8516C127.105 75.8594 127.176 75.8633 127.207 75.8633C127.27 75.8633 127.32 75.8633 127.359 75.8633C127.406 75.8633 127.457 75.8555 127.512 75.8398C127.574 75.832 127.625 75.8281 127.664 75.8281C127.711 75.8281 127.762 75.8281 127.816 75.8281C127.871 75.8281 127.93 75.8281 127.992 75.8281C128.055 75.8281 128.109 75.832 128.156 75.8398C128.211 75.8555 128.262 75.8633 128.309 75.8633C128.363 75.8633 128.414 75.8633 128.461 75.8633C128.5 75.9023 128.547 75.9414 128.602 75.9805C128.664 76.0195 128.719 76.0664 128.766 76.1211C128.82 76.1758 128.863 76.2344 128.895 76.2969C128.934 76.3594 128.953 76.4297 128.953 76.5078C128.953 76.5938 128.934 76.6836 128.895 76.7773C128.855 76.8633 128.801 76.9453 128.73 77.0234C128.668 77.1094 128.598 77.1758 128.52 77.2227C128.441 77.2773 128.363 77.3047 128.285 77.3047H128.262C128.176 77.3203 128.078 77.3281 127.969 77.3281C127.867 77.3359 127.777 77.3398 127.699 77.3398C127.59 77.3398 127.484 77.3359 127.383 77.3281C127.289 77.3281 127.164 77.3203 127.008 77.3047L126.785 77.2461C126.652 77.1758 126.504 77.1133 126.34 77.0586C126.176 77.0039 126.004 76.957 125.824 76.918C125.652 76.8789 125.477 76.8516 125.297 76.8359C125.125 76.8125 124.965 76.8008 124.816 76.8008C124.652 76.8008 124.512 76.8086 124.395 76.8242C124.277 76.832 124.121 76.8633 123.926 76.918C123.746 76.9492 123.559 76.9727 123.363 76.9883C123.176 76.9961 122.992 77 122.812 77C122.609 77 122.418 76.9961 122.238 76.9883C122.066 76.9727 121.879 76.9492 121.676 76.918C121.582 76.9492 121.492 77 121.406 77.0703C121.328 77.1406 121.223 77.1914 121.09 77.2227C121.035 77.207 120.984 77.1914 120.938 77.1758C120.898 77.168 120.852 77.1641 120.797 77.1641C120.758 77.1797 120.699 77.1875 120.621 77.1875H120.176C119.996 77.125 119.848 77.0625 119.73 77C119.621 76.9375 119.539 76.8164 119.484 76.6367C119.484 76.3867 119.613 76.1758 119.871 76.0039C120.059 75.9883 120.301 75.9375 120.598 75.8516C120.902 75.7656 121.195 75.6523 121.477 75.5117C121.758 75.3711 122 75.2031 122.203 75.0078C122.414 74.8125 122.52 74.5977 122.52 74.3633C122.52 73.9492 122.508 73.5938 122.484 73.2969C122.469 72.9922 122.445 72.6992 122.414 72.418C122.391 72.1367 122.367 71.8438 122.344 71.5391C122.328 71.2266 122.32 70.8516 122.32 70.4141C122.32 70.2812 122.332 70.1523 122.355 70.0273C122.387 69.8945 122.414 69.7656 122.438 69.6406C122.469 69.5078 122.496 69.3789 122.52 69.2539C122.551 69.1211 122.566 68.9883 122.566 68.8555C122.566 68.832 122.562 68.8008 122.555 68.7617C122.555 68.7227 122.555 68.6836 122.555 68.6445C122.555 68.5977 122.551 68.5586 122.543 68.5273C122.543 68.4883 122.543 68.4688 122.543 68.4688L122.402 67.9531V67.0508C122.402 66.918 122.387 66.7852 122.355 66.6523C122.324 66.5195 122.289 66.3867 122.25 66.2539C122.219 66.1211 122.188 65.9922 122.156 65.8672C122.133 65.7344 122.121 65.6055 122.121 65.4805C122.121 65.4492 122.125 65.3984 122.133 65.3281C122.148 65.25 122.164 65.1953 122.18 65.1641C122.211 65.0078 122.234 64.8516 122.25 64.6953C122.273 64.5312 122.285 64.3672 122.285 64.2031C122.285 64.0469 122.277 63.8945 122.262 63.7461C122.246 63.5898 122.219 63.4336 122.18 63.2773C122.18 63.1367 122.145 63 122.074 62.8672C122.012 62.7266 121.926 62.5938 121.816 62.4688C121.715 62.3438 121.602 62.2344 121.477 62.1406C121.352 62.0391 121.234 61.9648 121.125 61.918C120.984 61.8633 120.793 61.8281 120.551 61.8125C120.309 61.7969 120.066 61.7695 119.824 61.7305C119.582 61.6836 119.371 61.6094 119.191 61.5078C119.02 61.3984 118.934 61.2227 118.934 60.9805V60.8047C119.059 60.7344 119.211 60.6641 119.391 60.5938C119.578 60.5156 119.738 60.4766 119.871 60.4766H120.152C120.262 60.4766 120.367 60.4883 120.469 60.5117C120.578 60.5352 120.668 60.5898 120.738 60.6758C120.871 60.6992 121.004 60.7188 121.137 60.7344C121.27 60.75 121.402 60.7578 121.535 60.7578C121.652 60.7578 121.781 60.75 121.922 60.7344C122.062 60.7188 122.203 60.6992 122.344 60.6758C122.383 60.6133 122.41 60.5781 122.426 60.5703C122.449 60.5625 122.488 60.5586 122.543 60.5586C122.707 60.5586 122.867 60.5898 123.023 60.6523C123.18 60.7148 123.359 60.7461 123.562 60.7461H123.82C123.906 60.7461 123.996 60.7461 124.09 60.7461C124.184 60.7383 124.285 60.7148 124.395 60.6758C124.676 60.7227 124.984 60.7461 125.32 60.7461C125.633 60.7461 125.949 60.7227 126.27 60.6758C126.559 60.5742 126.863 60.5234 127.184 60.5234C127.512 60.5234 127.852 60.5078 128.203 60.4766C128.383 60.4609 128.551 60.4492 128.707 60.4414C128.871 60.4258 129.035 60.418 129.199 60.418C129.316 60.418 129.438 60.4258 129.562 60.4414C129.688 60.4492 129.816 60.4609 129.949 60.4766C129.98 60.4922 130.02 60.5195 130.066 60.5586C130.121 60.5898 130.172 60.625 130.219 60.6641C130.273 60.7031 130.324 60.7383 130.371 60.7695C130.418 60.793 130.453 60.8047 130.477 60.8047C130.547 60.8047 130.605 60.793 130.652 60.7695C130.707 60.7461 130.773 60.7148 130.852 60.6758C130.977 60.6445 131.105 60.625 131.238 60.6172C131.371 60.6016 131.508 60.5938 131.648 60.5938C131.891 60.5938 132.133 60.6211 132.375 60.6758C132.391 60.6758 132.426 60.7031 132.48 60.7578C132.543 60.8047 132.605 60.8594 132.668 60.9219C132.738 60.9766 132.801 61.0312 132.855 61.0859C132.91 61.1328 132.941 61.1602 132.949 61.168V62.8438C133.105 63.2266 133.184 63.6133 133.184 64.0039C133.184 64.0977 133.18 64.1953 133.172 64.2969C133.172 64.3906 133.156 64.4805 133.125 64.5664C133.102 64.6523 133.059 64.7227 132.996 64.7773C132.934 64.832 132.848 64.8594 132.738 64.8594C132.691 64.8047 132.637 64.7383 132.574 64.6602C132.512 64.582 132.445 64.5039 132.375 64.4258C132.312 64.3398 132.25 64.2578 132.188 64.1797C132.133 64.1016 132.086 64.0312 132.047 63.9688C132.047 63.9531 132.031 63.9102 132 63.8398C131.969 63.7617 131.934 63.6836 131.895 63.6055C131.855 63.5195 131.816 63.4414 131.777 63.3711C131.746 63.293 131.723 63.2422 131.707 63.2188C131.691 63.2031 131.676 63.1406 131.66 63.0312C131.652 62.9219 131.648 62.8594 131.648 62.8438ZM138.668 76.6953C138.559 76.6953 138.445 76.7109 138.328 76.7422C138.219 76.7656 138.105 76.7969 137.988 76.8359C137.871 76.8672 137.75 76.8984 137.625 76.9297C137.508 76.9531 137.383 76.9648 137.25 76.9648L136.723 76.8945C136.605 76.8945 136.496 76.9062 136.395 76.9297C136.301 76.9531 136.203 76.9648 136.102 76.9648H135.246C135.176 76.9648 135.113 76.9609 135.059 76.9531C135.004 76.9453 134.953 76.9336 134.906 76.918C134.609 76.8555 134.461 76.668 134.461 76.3555C134.461 76.2617 134.469 76.1836 134.484 76.1211C134.508 76.0586 134.586 75.9922 134.719 75.9219C134.852 75.8672 135.016 75.8281 135.211 75.8047C135.414 75.7812 135.621 75.7617 135.832 75.7461C136.043 75.7227 136.242 75.6992 136.43 75.6758C136.625 75.6445 136.777 75.5938 136.887 75.5234C136.934 75.5 136.988 75.4375 137.051 75.3359C137.121 75.2344 137.184 75.125 137.238 75.0078C137.301 74.8828 137.352 74.7656 137.391 74.6562C137.438 74.5469 137.461 74.4688 137.461 74.4219L137.32 73.4727L137.578 72.9102L137.32 72.418L137.578 69.7227L137.496 68.5039C137.457 68.4648 137.438 68.3789 137.438 68.2461C137.438 68.1211 137.445 68.0156 137.461 67.9297C137.484 67.8438 137.508 67.7734 137.531 67.7188C137.562 67.6562 137.586 67.5977 137.602 67.543C137.625 67.4883 137.637 67.4258 137.637 67.3555C137.637 67.1523 137.602 66.9609 137.531 66.7812C137.469 66.5938 137.438 66.3906 137.438 66.1719L137.578 65.3398C137.578 65.2617 137.574 65.168 137.566 65.0586C137.566 64.9492 137.559 64.8359 137.543 64.7188C137.527 64.6016 137.5 64.4922 137.461 64.3906C137.43 64.2812 137.383 64.1914 137.32 64.1211C137.32 64.0898 137.328 64.043 137.344 63.9805C137.367 63.918 137.379 63.8242 137.379 63.6992C137.379 63.5977 137.367 63.5078 137.344 63.4297C137.328 63.3438 137.32 63.2852 137.32 63.2539C137.32 63.2148 137.312 63.168 137.297 63.1133C137.281 63.0586 137.266 63.0312 137.25 63.0312L136.5 62.3398C136.406 62.3398 136.246 62.3164 136.02 62.2695C135.801 62.2227 135.574 62.1602 135.34 62.082C135.113 62.0039 134.91 61.9141 134.73 61.8125C134.551 61.7031 134.461 61.5898 134.461 61.4727C134.461 61.2539 134.531 61.1094 134.672 61.0391C134.812 60.9609 134.965 60.9219 135.129 60.9219C135.191 60.9219 135.25 60.9258 135.305 60.9336C135.367 60.9414 135.422 60.9531 135.469 60.9688C135.797 60.9844 136.121 61.0117 136.441 61.0508C136.762 61.0898 137.086 61.1094 137.414 61.1094C137.664 61.1094 137.914 61.0898 138.164 61.0508C138.414 61.0117 138.664 60.9844 138.914 60.9688C139.023 60.9297 139.176 60.8984 139.371 60.875C139.566 60.8516 139.77 60.8359 139.98 60.8281C140.199 60.8125 140.41 60.8008 140.613 60.793C140.816 60.7852 140.98 60.7734 141.105 60.7578C141.355 60.7188 141.605 60.6719 141.855 60.6172C142.105 60.5547 142.355 60.5234 142.605 60.5234C142.77 60.5234 142.926 60.5586 143.074 60.6289C143.223 60.6992 143.297 60.8516 143.297 61.0859C143.297 61.1328 143.27 61.1758 143.215 61.2148C143.168 61.2539 143.109 61.293 143.039 61.332C142.977 61.3633 142.918 61.3945 142.863 61.4258C142.809 61.4492 142.777 61.4766 142.77 61.5078C142.746 61.5312 142.699 61.5742 142.629 61.6367C142.566 61.6914 142.496 61.75 142.418 61.8125C142.348 61.875 142.277 61.9336 142.207 61.9883C142.137 62.043 142.082 62.0781 142.043 62.0938C141.926 62.0938 141.754 62.1133 141.527 62.1523C141.309 62.1914 141.09 62.2539 140.871 62.3398C140.652 62.418 140.461 62.5156 140.297 62.6328C140.133 62.75 140.051 62.8828 140.051 63.0312V64.7539C140.051 64.7617 140.055 64.7891 140.062 64.8359C140.078 64.8828 140.094 64.9375 140.109 65C140.125 65.0625 140.137 65.1289 140.145 65.1992C140.16 65.2617 140.172 65.3086 140.18 65.3398C140.258 65.3945 140.297 65.4688 140.297 65.5625C140.172 65.7891 140.078 66.0234 140.016 66.2656C139.961 66.5 139.934 66.7344 139.934 66.9688L140.051 67.8359L139.992 68.5508C139.992 68.6602 140.004 68.7695 140.027 68.8789C140.059 68.9883 140.09 69.1016 140.121 69.2188C140.152 69.3281 140.18 69.4414 140.203 69.5586C140.234 69.668 140.25 69.7852 140.25 69.9102C140.25 70.0195 140.234 70.1289 140.203 70.2383C140.18 70.3398 140.152 70.4414 140.121 70.543C140.09 70.6367 140.059 70.7344 140.027 70.8359C140.004 70.9375 139.992 71.0391 139.992 71.1406C139.992 71.25 140 71.3438 140.016 71.4219C140.031 71.5 140.062 71.6016 140.109 71.7266V73.168C140.078 73.2539 140.059 73.3203 140.051 73.3672C140.051 73.4062 140.051 73.4609 140.051 73.5312C140.051 73.8281 140.082 74.0938 140.145 74.3281C140.207 74.5625 140.297 74.8125 140.414 75.0781C140.414 75.1016 140.453 75.1445 140.531 75.207C140.609 75.2617 140.695 75.3203 140.789 75.3828C140.891 75.4375 140.984 75.4883 141.07 75.5352C141.156 75.582 141.207 75.6055 141.223 75.6055C141.387 75.6055 141.52 75.5898 141.621 75.5586C141.723 75.5195 141.828 75.5 141.938 75.5C142.031 75.5 142.164 75.5117 142.336 75.5352C142.508 75.5586 142.664 75.6094 142.805 75.6875C142.883 75.75 142.953 75.8203 143.016 75.8984C143.078 75.9688 143.109 76.0469 143.109 76.1328C143.109 76.25 143.094 76.3672 143.062 76.4844C143.031 76.6016 142.98 76.6797 142.91 76.7188C142.816 76.8125 142.695 76.8594 142.547 76.8594C142.477 76.8594 142.398 76.8633 142.312 76.8711C142.227 76.8789 142.148 76.8867 142.078 76.8945L141.609 77C141.445 77 141.266 77 141.07 77C140.883 76.9922 140.691 76.9844 140.496 76.9766C140.309 76.9688 140.121 76.957 139.934 76.9414C139.754 76.9258 139.59 76.9102 139.441 76.8945C139.418 76.8945 139.375 76.8867 139.312 76.8711C139.25 76.8477 139.18 76.8242 139.102 76.8008C139.023 76.7773 138.949 76.7578 138.879 76.7422C138.816 76.7266 138.77 76.7188 138.738 76.7188C138.73 76.7188 138.723 76.7148 138.715 76.707C138.707 76.707 138.699 76.707 138.691 76.707C138.684 76.6992 138.676 76.6953 138.668 76.6953ZM145.043 70.8008C145.043 70.7773 145.035 70.7422 145.02 70.6953C145.012 70.6484 145 70.6016 144.984 70.5547C144.977 70.5 144.965 70.4531 144.949 70.4141C144.941 70.3672 144.938 70.332 144.938 70.3086C144.922 70.2539 144.914 70.2109 144.914 70.1797C144.914 70.1484 144.914 70.1172 144.914 70.0859C144.914 70.0234 144.922 69.9727 144.938 69.9336C144.953 69.8945 144.98 69.8359 145.02 69.7578L144.879 67.4141L144.938 66.7578C144.953 66.7344 144.969 66.707 144.984 66.6758C145 66.6523 145.012 66.6328 145.02 66.6172C145.027 66.5938 145.035 66.5742 145.043 66.5586C145.113 66.3945 145.168 66.2383 145.207 66.0898C145.246 65.9414 145.293 65.7852 145.348 65.6211C145.387 65.4648 145.406 65.3164 145.406 65.1758C145.406 65.0039 145.438 64.8633 145.5 64.7539C145.602 64.5195 145.715 64.2969 145.84 64.0859C145.973 63.8672 146.133 63.6133 146.32 63.3242C146.336 63.3008 146.352 63.2773 146.367 63.2539C146.383 63.2227 146.398 63.1953 146.414 63.1719C146.484 63.0703 146.559 62.957 146.637 62.832C146.723 62.707 146.77 62.6367 146.777 62.6211C146.871 62.4805 146.961 62.375 147.047 62.3047C147.141 62.2344 147.25 62.1406 147.375 62.0234C147.641 61.8203 147.875 61.6328 148.078 61.4609C148.281 61.2891 148.523 61.1172 148.805 60.9453L149.098 60.8164C149.168 60.793 149.246 60.7617 149.332 60.7227C149.418 60.6758 149.508 60.6289 149.602 60.582C149.695 60.5352 149.785 60.4922 149.871 60.4531C149.957 60.4141 150.035 60.3828 150.105 60.3594L151.301 60.1953C151.332 60.1953 151.383 60.1836 151.453 60.1602C151.523 60.1367 151.574 60.1055 151.605 60.0664C151.941 60.0586 152.211 60.0508 152.414 60.043C152.617 60.0352 152.809 60.0312 152.988 60.0312C153.23 60.0312 153.469 60.0352 153.703 60.043C153.938 60.0508 154.172 60.0586 154.406 60.0664C154.555 60.1055 154.676 60.1367 154.77 60.1602C154.863 60.1758 154.938 60.1914 154.992 60.207C155.047 60.2148 155.086 60.2188 155.109 60.2188C155.133 60.2188 155.156 60.2188 155.18 60.2188C155.273 60.2109 155.348 60.207 155.402 60.207C155.465 60.1992 155.52 60.1953 155.566 60.1953C155.621 60.1953 155.68 60.1953 155.742 60.1953C155.805 60.1953 155.887 60.1953 155.988 60.1953C156.074 60.2422 156.168 60.3086 156.27 60.3945C156.371 60.4805 156.465 60.5234 156.551 60.5234C156.582 60.5234 156.613 60.5117 156.645 60.4883C156.676 60.4648 156.699 60.4531 156.715 60.4531H157.406C157.508 60.4375 157.602 60.4062 157.688 60.3594C157.781 60.3047 157.871 60.25 157.957 60.1953C158.051 60.1328 158.141 60.082 158.227 60.043C158.312 59.9961 158.41 59.9727 158.52 59.9727C158.652 59.9727 158.766 60.0156 158.859 60.1016C158.961 60.1797 159.012 60.2969 159.012 60.4531V62.3984C159.02 62.4375 159.031 62.5 159.047 62.5859C159.062 62.6719 159.07 62.7344 159.07 62.7734C159.141 63.1484 159.223 63.5352 159.316 63.9336C159.41 64.3242 159.457 64.707 159.457 65.082C159.449 65.1289 159.43 65.1797 159.398 65.2344C159.367 65.2891 159.328 65.3398 159.281 65.3867C159.242 65.4336 159.203 65.4766 159.164 65.5156C159.125 65.5469 159.094 65.5625 159.07 65.5625C159.07 65.5781 159.043 65.5859 158.988 65.5859C158.832 65.5859 158.695 65.5508 158.578 65.4805C158.469 65.4102 158.375 65.3203 158.297 65.2109C158.219 65.1016 158.16 64.9844 158.121 64.8594C158.082 64.7344 158.055 64.6172 158.039 64.5078V64.1211C158.023 64.0117 158 63.9258 157.969 63.8633C157.945 63.793 157.914 63.7344 157.875 63.6875C157.836 63.6328 157.789 63.5781 157.734 63.5234C157.688 63.4688 157.633 63.3984 157.57 63.3125C157.484 63.2266 157.434 63.1328 157.418 63.0312C157.402 62.9219 157.359 62.8125 157.289 62.7031C157.273 62.6719 157.238 62.6406 157.184 62.6094C157.129 62.5781 157.094 62.5625 157.078 62.5625L156.328 62.0234C156.328 62.0156 156.309 61.9961 156.27 61.9648C156.238 61.9258 156.203 61.8867 156.164 61.8477C156.125 61.8008 156.086 61.7578 156.047 61.7188C156.016 61.6797 155.996 61.6523 155.988 61.6367C155.902 61.5898 155.855 61.5664 155.848 61.5664C155.832 61.582 155.777 61.5898 155.684 61.5898C155.629 61.5898 155.602 61.582 155.602 61.5664C155.438 61.5352 155.277 61.4844 155.121 61.4141C154.973 61.3438 154.836 61.2734 154.711 61.2031L153.293 61.1445C153.238 61.082 153.184 61.043 153.129 61.0273C153.074 61.0117 153.008 61.0039 152.93 61.0039C152.664 61.0039 152.438 61.0273 152.25 61.0742C152.062 61.1211 151.891 61.1875 151.734 61.2734C151.727 61.2891 151.719 61.3008 151.711 61.3086C151.695 61.3242 151.68 61.332 151.664 61.332C151.555 61.418 151.434 61.4844 151.301 61.5312C151.176 61.5781 151.047 61.625 150.914 61.6719C150.781 61.7109 150.648 61.7578 150.516 61.8125C150.391 61.8594 150.273 61.9297 150.164 62.0234L149.719 62.3984C149.711 62.4141 149.672 62.4492 149.602 62.5039C149.531 62.5508 149.492 62.5898 149.484 62.6211C149.445 62.707 149.379 62.7891 149.285 62.8672C149.191 62.9375 149.129 62.9805 149.098 62.9961C149.035 63.082 148.988 63.1758 148.957 63.2773C148.934 63.3711 148.906 63.4258 148.875 63.4414L148.605 63.8281L148.277 64.5781L148.125 65.2578C148.117 65.2734 148.098 65.3008 148.066 65.3398C148.043 65.3789 148.012 65.4219 147.973 65.4688C147.941 65.5078 147.906 65.543 147.867 65.5742C147.836 65.6055 147.812 65.6211 147.797 65.6211C147.797 65.6289 147.793 65.6602 147.785 65.7148C147.777 65.7695 147.77 65.8359 147.762 65.9141C147.762 65.9844 147.758 66.0586 147.75 66.1367C147.742 66.207 147.738 66.2617 147.738 66.3008V66.6172L147.797 67.8125L147.938 68.3867L147.797 69.0312C147.797 69.4062 147.848 69.7812 147.949 70.1562C148.051 70.5312 148.16 70.8945 148.277 71.2461C148.293 71.2539 148.363 71.3477 148.488 71.5273L148.605 71.8555C148.629 71.918 148.664 71.9805 148.711 72.043C148.758 72.0977 148.809 72.1523 148.863 72.207C148.926 72.2617 148.984 72.3125 149.039 72.3594C149.094 72.4062 149.141 72.4531 149.18 72.5C149.219 72.6406 149.246 72.7383 149.262 72.793C149.277 72.8477 149.293 72.8867 149.309 72.9102C149.324 72.9258 149.344 72.9414 149.367 72.957C149.391 72.9648 149.43 72.9961 149.484 73.0508C149.539 73.0742 149.582 73.1133 149.613 73.168C149.652 73.2148 149.688 73.2695 149.719 73.332C149.75 73.3945 149.781 73.457 149.812 73.5195C149.844 73.582 149.887 73.6328 149.941 73.6719C150.09 73.6953 150.215 73.7109 150.316 73.7188C150.426 73.7188 150.523 73.7656 150.609 73.8594C150.797 74.0156 150.973 74.1523 151.137 74.2695C151.301 74.3789 151.465 74.4766 151.629 74.5625C151.801 74.6406 151.98 74.7109 152.168 74.7734C152.355 74.8281 152.566 74.875 152.801 74.9141L153.41 75.0898C153.613 75.0898 153.777 75.0625 153.902 75.0078C154.035 74.9453 154.164 74.9141 154.289 74.9141C154.406 74.9141 154.516 74.957 154.617 75.043C154.719 75.1211 154.832 75.1602 154.957 75.1602C155.059 75.1602 155.141 75.1289 155.203 75.0664C155.273 74.9961 155.359 74.9453 155.461 74.9141C155.477 74.9141 155.523 74.9062 155.602 74.8906C155.688 74.875 155.742 74.8633 155.766 74.8555C155.797 74.8555 155.848 74.8359 155.918 74.7969C155.988 74.7578 156.039 74.7227 156.07 74.6914C156.336 74.6523 156.504 74.6211 156.574 74.5977C156.652 74.5664 156.699 74.5508 156.715 74.5508C156.723 74.543 156.742 74.5273 156.773 74.5039C156.805 74.4727 156.836 74.4414 156.867 74.4102C156.906 74.3711 156.941 74.3359 156.973 74.3047C157.004 74.2656 157.027 74.2383 157.043 74.2227C157.074 74.2227 157.125 74.2031 157.195 74.1641C157.266 74.125 157.34 74.0781 157.418 74.0234C157.504 73.9688 157.586 73.9141 157.664 73.8594C157.75 73.8047 157.82 73.7617 157.875 73.7305C157.914 73.707 157.941 73.6797 157.957 73.6484C157.973 73.6094 158 73.5703 158.039 73.5312C158.156 73.3672 158.273 73.2461 158.391 73.168C158.508 73.0898 158.633 72.9688 158.766 72.8047C158.797 72.7734 158.84 72.7266 158.895 72.6641C158.957 72.5938 158.996 72.5391 159.012 72.5C159.02 72.4844 159.035 72.4375 159.059 72.3594C159.09 72.2734 159.121 72.2266 159.152 72.2188C159.254 72.1328 159.352 72.0742 159.445 72.043C159.539 72.0117 159.637 71.9961 159.738 71.9961C159.793 71.9961 159.84 72.0195 159.879 72.0664C159.926 72.1133 159.961 72.168 159.984 72.2305C160.016 72.293 160.039 72.3633 160.055 72.4414C160.07 72.5117 160.078 72.5703 160.078 72.6172C160.078 72.7734 160.043 72.9141 159.973 73.0391C159.902 73.1562 159.824 73.2695 159.738 73.3789C159.652 73.4883 159.566 73.6016 159.48 73.7188C159.402 73.8281 159.348 73.957 159.316 74.1055C159.285 74.1289 159.234 74.1719 159.164 74.2344C159.094 74.2891 159.023 74.3516 158.953 74.4219C158.883 74.4922 158.816 74.5625 158.754 74.6328C158.691 74.6953 158.652 74.7422 158.637 74.7734C158.465 75 158.309 75.1602 158.168 75.2539C158.027 75.3398 157.895 75.4297 157.77 75.5234C157.715 75.5938 157.672 75.668 157.641 75.7461C157.617 75.8164 157.559 75.8711 157.465 75.9102C157.355 75.9727 157.23 76.0312 157.09 76.0859C156.957 76.1328 156.812 76.1758 156.656 76.2148C156.406 76.3711 156.184 76.4766 155.988 76.5312C155.793 76.5859 155.59 76.6484 155.379 76.7188L154.91 76.9766C154.496 77 154.211 77.0312 154.055 77.0703C153.898 77.1172 153.805 77.1406 153.773 77.1406C153.523 77.1328 153.352 77.1094 153.258 77.0703C153.172 77.0391 153.113 77.0234 153.082 77.0234L152.355 77.2578C152.27 77.25 152.176 77.2422 152.074 77.2344C151.98 77.2266 151.887 77.2148 151.793 77.1992C151.699 77.1914 151.613 77.1758 151.535 77.1523C151.457 77.1367 151.398 77.1133 151.359 77.082C151.148 77.0273 150.93 76.9883 150.703 76.9648C150.477 76.9414 150.258 76.8789 150.047 76.7773L149.18 76.4375C149.164 76.4219 149.117 76.4062 149.039 76.3906C148.961 76.3672 148.906 76.3555 148.875 76.3555C148.648 76.0586 148.52 75.9102 148.488 75.9102H148.207C148.145 75.8711 148.07 75.7969 147.984 75.6875C147.906 75.5703 147.824 75.4414 147.738 75.3008C147.738 75.207 147.684 75.1484 147.574 75.125C147.473 75.1016 147.383 75.0898 147.305 75.0898C147.258 75.0664 147.227 75.0352 147.211 74.9961C147.195 74.9492 147.18 74.9023 147.164 74.8555C147.156 74.8008 147.145 74.7461 147.129 74.6914C147.113 74.6367 147.086 74.5898 147.047 74.5508C147.031 74.5117 146.992 74.457 146.93 74.3867C146.867 74.3086 146.816 74.2539 146.777 74.2227C146.723 74.1914 146.68 74.168 146.648 74.1523C146.617 74.1367 146.59 74.125 146.566 74.1172C146.543 74.1016 146.52 74.082 146.496 74.0586C146.473 74.0273 146.441 73.9805 146.402 73.918L146.109 73.4727L145.852 73.1914C145.852 72.918 145.832 72.7266 145.793 72.6172C145.754 72.5078 145.727 72.4492 145.711 72.4414C145.711 72.4102 145.699 72.3438 145.676 72.2422C145.66 72.1328 145.645 72.0703 145.629 72.0547C145.473 71.9844 145.375 71.9336 145.336 71.9023C145.305 71.8789 145.281 71.8633 145.266 71.8555L145.043 70.8008ZM160.441 76.5547C160.441 76.4062 160.492 76.293 160.594 76.2148C160.688 76.1367 160.801 76.0781 160.934 76.0391C161.066 75.9922 161.199 75.957 161.332 75.9336C161.473 75.9023 161.586 75.8594 161.672 75.8047C161.695 75.7891 161.727 75.7656 161.766 75.7344C161.805 75.6953 161.848 75.6562 161.895 75.6172C161.941 75.5703 161.988 75.5312 162.035 75.5C162.082 75.4609 162.117 75.4336 162.141 75.418L162.703 75.1367C162.773 75.1055 162.859 75.0156 162.961 74.8672C163.07 74.7188 163.176 74.5547 163.277 74.375C163.387 74.1875 163.488 74.0078 163.582 73.8359C163.676 73.6562 163.742 73.5234 163.781 73.4375C163.797 73.4219 163.809 73.3789 163.816 73.3086C163.824 73.2383 163.828 73.1836 163.828 73.1445C163.836 73.1133 163.852 73.0742 163.875 73.0273C163.898 72.9727 163.91 72.9375 163.91 72.9219C163.926 72.9062 163.953 72.8711 163.992 72.8164C164.031 72.7539 164.074 72.6914 164.121 72.6289C164.168 72.5664 164.207 72.5078 164.238 72.4531C164.277 72.3906 164.301 72.3516 164.309 72.3359C164.316 72.3281 164.324 72.3008 164.332 72.2539C164.34 72.1992 164.348 72.1445 164.355 72.0898C164.363 72.0273 164.371 71.9688 164.379 71.9141C164.387 71.8594 164.391 71.8242 164.391 71.8086C164.438 71.5586 164.504 71.3086 164.59 71.0586C164.684 70.8008 164.773 70.5469 164.859 70.2969C164.953 70.0469 165.035 69.793 165.105 69.5352C165.176 69.2773 165.223 69.0156 165.246 68.75L166.055 66.5234C166.164 66.2109 166.227 65.8828 166.242 65.5391C166.266 65.1875 166.324 64.8438 166.418 64.5078C166.551 64.2031 166.711 63.9062 166.898 63.6172C167.086 63.3203 167.258 63.0039 167.414 62.668C167.469 62.4961 167.5 62.3164 167.508 62.1289C167.523 61.9336 167.586 61.7539 167.695 61.5898C167.734 61.5352 167.832 61.4297 167.988 61.2734C168.145 61.1172 168.312 60.957 168.492 60.793C168.672 60.6289 168.848 60.4844 169.02 60.3594C169.191 60.2344 169.316 60.1719 169.395 60.1719C169.543 60.1719 169.645 60.2266 169.699 60.3359C169.738 60.3672 169.777 60.418 169.816 60.4883C169.863 60.5586 169.887 60.6016 169.887 60.6172C169.926 60.7578 169.98 60.8984 170.051 61.0391C170.121 61.1797 170.18 61.332 170.227 61.4961L170.215 61.7539C170.215 61.8633 170.238 61.9805 170.285 62.1055C170.34 62.2227 170.383 62.3203 170.414 62.3984C170.5 62.6719 170.574 62.9375 170.637 63.1953C170.707 63.4531 170.762 63.7109 170.801 63.9688C170.832 64.125 170.883 64.2695 170.953 64.4023C171.023 64.5273 171.059 64.6719 171.059 64.8359L171.047 65.0234C171.188 65.1484 171.293 65.2617 171.363 65.3633C171.434 65.4648 171.488 65.5703 171.527 65.6797C171.574 65.7812 171.617 65.8945 171.656 66.0195C171.703 66.1367 171.773 66.2812 171.867 66.4531C171.945 66.6094 172.004 66.7578 172.043 66.8984C172.082 67.0312 172.113 67.168 172.137 67.3086C172.168 67.4492 172.199 67.5977 172.23 67.7539C172.262 67.9102 172.312 68.0781 172.383 68.2578C172.391 68.2969 172.414 68.3633 172.453 68.457C172.5 68.5508 172.523 68.6133 172.523 68.6445V69.0898C172.523 69.1055 172.539 69.1406 172.57 69.1953C172.602 69.25 172.637 69.3125 172.676 69.3828C172.715 69.4453 172.75 69.5078 172.781 69.5703C172.812 69.6328 172.828 69.6758 172.828 69.6992C172.828 69.707 172.828 69.7305 172.828 69.7695C172.836 69.8008 172.84 69.8398 172.84 69.8867C172.848 69.9258 172.855 69.9648 172.863 70.0039C172.871 70.043 172.879 70.0625 172.887 70.0625L173.215 70.3906C173.27 70.4375 173.305 70.4922 173.32 70.5547C173.336 70.6172 173.348 70.6875 173.355 70.7656C173.363 70.8359 173.371 70.9102 173.379 70.9883C173.387 71.0586 173.41 71.1289 173.449 71.1992C173.543 71.418 173.625 71.6445 173.695 71.8789C173.766 72.1055 173.859 72.332 173.977 72.5586C174.047 72.7227 174.105 72.8984 174.152 73.0859C174.199 73.2656 174.223 73.4414 174.223 73.6133V73.7539C174.324 73.9336 174.438 74.0938 174.562 74.2344C174.688 74.375 174.789 74.5117 174.867 74.6445C174.938 74.8164 175.012 74.9531 175.09 75.0547C175.168 75.1562 175.242 75.2383 175.312 75.3008C175.391 75.3633 175.465 75.4141 175.535 75.4531C175.605 75.4844 175.676 75.5195 175.746 75.5586C175.918 75.6602 176.094 75.7344 176.273 75.7812C176.461 75.8281 176.695 75.875 176.977 75.9219L177.305 76.0039C177.406 76.0664 177.469 76.1602 177.492 76.2852C177.516 76.4023 177.527 76.5039 177.527 76.5898C177.527 76.7539 177.461 76.875 177.328 76.9531C177.203 77.0234 177.074 77.0586 176.941 77.0586L175.945 77H175.699C175.66 76.9688 175.605 76.9453 175.535 76.9297C175.473 76.9062 175.406 76.8906 175.336 76.8828C175.266 76.875 175.199 76.8711 175.137 76.8711C175.082 76.8711 175.047 76.8672 175.031 76.8594H173.637C173.574 76.7734 173.516 76.7266 173.461 76.7188C173.414 76.7031 173.344 76.6953 173.25 76.6953C172.93 76.6953 172.594 76.7383 172.242 76.8242C171.898 76.9023 171.531 76.9414 171.141 76.9414H170.883C170.758 76.9414 170.637 76.9375 170.52 76.9297C170.41 76.9219 170.312 76.8906 170.227 76.8359C170.188 76.8125 170.168 76.7461 170.168 76.6367L170.191 76.4492C170.207 76.4102 170.215 76.375 170.215 76.3438C170.215 76.3125 170.215 76.2891 170.215 76.2734C170.215 76.2188 170.238 76.1836 170.285 76.168C170.426 76.1055 170.586 76.0586 170.766 76.0273C170.945 75.9961 171.117 75.9609 171.281 75.9219C171.445 75.8828 171.582 75.8281 171.691 75.7578C171.809 75.6875 171.867 75.582 171.867 75.4414V75.418C171.859 75.2383 171.844 75.0352 171.82 74.8086C171.805 74.5742 171.797 74.3438 171.797 74.1172C171.797 74.0391 171.77 73.957 171.715 73.8711C171.668 73.7852 171.641 73.707 171.633 73.6367V72.9219C171.617 72.8203 171.566 72.6602 171.48 72.4414C171.402 72.2148 171.301 71.9922 171.176 71.7734C171.059 71.5547 170.93 71.3633 170.789 71.1992C170.648 71.0273 170.508 70.9414 170.367 70.9414C170.164 70.9414 169.953 70.9844 169.734 71.0703C169.523 71.1562 169.309 71.1992 169.09 71.1992C168.902 71.1992 168.723 71.1641 168.551 71.0938C168.387 71.0156 168.191 70.9766 167.965 70.9766H167.215C167.051 70.9766 166.883 70.9883 166.711 71.0117C166.547 71.0273 166.395 71.0781 166.254 71.1641C166.012 71.3047 165.789 71.4961 165.586 71.7383C165.383 71.9727 165.234 72.2656 165.141 72.6172L165.059 73.4375C165.059 73.4531 165.051 73.4922 165.035 73.5547C165.02 73.6172 165.004 73.6836 164.988 73.7539C164.973 73.8242 164.957 73.8906 164.941 73.9531C164.926 74.0078 164.918 74.043 164.918 74.0586C164.918 74.0742 164.914 74.0977 164.906 74.1289C164.898 74.1602 164.895 74.1914 164.895 74.2227C164.895 74.3633 164.918 74.4648 164.965 74.5273C165.012 74.5898 165.07 74.6836 165.141 74.8086C165.18 74.8789 165.23 74.9727 165.293 75.0898C165.363 75.207 165.434 75.3086 165.504 75.3945C165.613 75.4883 165.758 75.5625 165.938 75.6172C166.125 75.6719 166.309 75.7305 166.488 75.793C166.668 75.8555 166.82 75.9336 166.945 76.0273C167.078 76.1211 167.145 76.25 167.145 76.4141V76.4961C167.105 76.8008 166.992 77 166.805 77.0938C166.617 77.1953 166.375 77.2461 166.078 77.2461L165.059 76.9766H164.637C164.496 76.9766 164.352 76.9805 164.203 76.9883C164.055 76.9961 163.91 77.0078 163.77 77.0234C163.637 77.0391 163.516 77.0586 163.406 77.082C163.305 77.1133 163.227 77.1484 163.172 77.1875C162.977 77.1875 162.781 77.1914 162.586 77.1992C162.398 77.207 162.227 77.2148 162.07 77.2227C161.922 77.2305 161.797 77.2344 161.695 77.2344C161.602 77.2422 161.547 77.2461 161.531 77.2461C161.43 77.2461 161.316 77.2305 161.191 77.1992C161.066 77.168 160.945 77.1211 160.828 77.0586C160.719 76.9961 160.629 76.9258 160.559 76.8477C160.48 76.7617 160.441 76.6641 160.441 76.5547ZM166.477 68.6094C166.469 68.6953 166.461 68.7812 166.453 68.8672C166.445 68.9453 166.441 69.0195 166.441 69.0898C166.441 69.3086 166.492 69.457 166.594 69.5352C166.695 69.6055 166.852 69.6406 167.062 69.6406C167.086 69.6406 167.105 69.6328 167.121 69.6172C167.129 69.6094 167.137 69.5977 167.145 69.582C167.16 69.582 167.211 69.5742 167.297 69.5586C167.391 69.543 167.457 69.5312 167.496 69.5234C167.566 69.5312 167.633 69.543 167.695 69.5586C167.766 69.5742 167.82 69.582 167.859 69.582H169.699C170.23 69.582 170.496 69.3398 170.496 68.8555C170.496 68.7852 170.469 68.6953 170.414 68.5859C170.367 68.4766 170.309 68.3594 170.238 68.2344C170.168 68.1016 170.098 67.9648 170.027 67.8242C169.965 67.6836 169.918 67.5469 169.887 67.4141C169.887 67.3594 169.867 67.3125 169.828 67.2734L169.277 66.4531C169.277 66.4141 169.262 66.375 169.23 66.3359C169.207 66.2969 169.188 66.2578 169.172 66.2188L169.113 65.9727C169.074 65.8086 169.027 65.6094 168.973 65.375C168.918 65.1406 168.852 64.918 168.773 64.707C168.695 64.4961 168.605 64.3164 168.504 64.168C168.41 64.0195 168.305 63.9453 168.188 63.9453C168.117 63.9453 168.027 64.0469 167.918 64.25C167.809 64.4531 167.688 64.7109 167.555 65.0234C167.43 65.3359 167.301 65.6836 167.168 66.0664C167.043 66.4414 166.93 66.8008 166.828 67.1445C166.727 67.4883 166.641 67.7969 166.57 68.0703C166.508 68.3359 166.477 68.5156 166.477 68.6094ZM180.516 76.4961C180.516 76.2773 180.582 76.1133 180.715 76.0039C180.848 75.8867 181.016 75.8281 181.219 75.8281L181.992 75.9219C182.188 75.9219 182.383 75.8828 182.578 75.8047C182.781 75.7266 182.969 75.625 183.141 75.5C183.32 75.3672 183.473 75.2148 183.598 75.043C183.723 74.8711 183.809 74.6914 183.855 74.5039V73.8828C183.895 73.5391 183.949 73.2148 184.02 72.9102C184.09 72.5977 184.125 72.2773 184.125 71.9492L183.961 71.4453V68.75C183.945 68.6562 183.934 68.5664 183.926 68.4805C183.926 68.3867 183.926 68.2812 183.926 68.1641V66.0312C183.957 65.9453 183.977 65.8438 183.984 65.7266C183.992 65.6016 183.996 65.4688 183.996 65.3281C183.996 65.1797 183.988 65.0547 183.973 64.9531C183.965 64.8438 183.961 64.7422 183.961 64.6484L184.043 64.5312V63.1719C183.98 63.0391 183.938 62.9219 183.914 62.8203C183.891 62.7109 183.859 62.6211 183.82 62.5508C183.781 62.4727 183.723 62.4141 183.645 62.375C183.574 62.3359 183.457 62.3164 183.293 62.3164L182.648 62.4805C182.445 62.4805 182.242 62.4492 182.039 62.3867C181.844 62.3164 181.633 62.2422 181.406 62.1641C181.023 62.1875 180.703 62.2148 180.445 62.2461C180.188 62.2695 179.953 62.3086 179.742 62.3633C179.531 62.418 179.324 62.4883 179.121 62.5742C178.918 62.6602 178.68 62.7773 178.406 62.9258C178.305 63.0586 178.211 63.2188 178.125 63.4062C178.039 63.5938 177.945 63.7773 177.844 63.957C177.75 64.1289 177.641 64.2773 177.516 64.4023C177.391 64.5273 177.242 64.5898 177.07 64.5898C177.023 64.5898 176.969 64.5898 176.906 64.5898C176.844 64.5898 176.785 64.5859 176.73 64.5781C176.684 64.5625 176.641 64.543 176.602 64.5195C176.562 64.4961 176.543 64.4648 176.543 64.4258C176.543 64.293 176.551 64.1797 176.566 64.0859C176.59 63.9844 176.617 63.8906 176.648 63.8047C176.68 63.7188 176.707 63.6328 176.73 63.5469C176.762 63.4531 176.785 63.3477 176.801 63.2305V62.4805L176.988 62.0352C177.012 61.9805 177.031 61.8984 177.047 61.7891C177.07 61.6719 177.09 61.5508 177.105 61.4258C177.129 61.3008 177.152 61.1758 177.176 61.0508C177.199 60.9258 177.223 60.8242 177.246 60.7461C177.27 60.6289 177.297 60.5078 177.328 60.3828C177.359 60.2578 177.402 60.1445 177.457 60.043C177.512 59.9336 177.578 59.8438 177.656 59.7734C177.742 59.7031 177.852 59.668 177.984 59.668C178.133 59.668 178.293 59.7266 178.465 59.8438C178.637 59.9609 178.809 60.0977 178.98 60.2539C179.16 60.4023 179.332 60.5469 179.496 60.6875C179.668 60.8281 179.824 60.9219 179.965 60.9688C180.035 60.9844 180.156 61.0078 180.328 61.0391C180.508 61.0625 180.695 61.0898 180.891 61.1211C181.094 61.1523 181.281 61.1797 181.453 61.2031C181.625 61.2188 181.746 61.2266 181.816 61.2266C181.934 61.2266 182.039 61.2188 182.133 61.2031C182.227 61.1797 182.316 61.1562 182.402 61.1328C182.488 61.1016 182.578 61.0781 182.672 61.0625C182.773 61.0391 182.891 61.0273 183.023 61.0273H183.316C183.488 61.0273 183.59 61.0312 183.621 61.0391C183.652 61.0547 183.711 61.0859 183.797 61.1328C183.891 61.1797 183.945 61.2109 183.961 61.2266H184.02C184.152 61.2266 184.277 61.2148 184.395 61.1914C184.52 61.1602 184.645 61.1289 184.77 61.0977C184.895 61.0664 185.02 61.0391 185.145 61.0156C185.27 60.9844 185.402 60.9688 185.543 60.9688C185.707 60.9688 185.859 60.9922 186 61.0391C186.141 61.0859 186.273 61.1094 186.398 61.1094H186.762C187.082 61.1094 187.395 61.1016 187.699 61.0859C188.012 61.0625 188.328 61.0391 188.648 61.0156C188.977 60.9922 189.309 60.9688 189.645 60.9453C189.988 60.9219 190.352 60.9062 190.734 60.8984C190.844 60.8984 190.938 60.9141 191.016 60.9453C191.094 60.9688 191.176 60.9805 191.262 60.9805C191.363 60.9805 191.445 60.957 191.508 60.9102C191.578 60.8555 191.641 60.7969 191.695 60.7344C191.75 60.6641 191.801 60.5977 191.848 60.5352C191.902 60.4648 191.965 60.4102 192.035 60.3711C192.137 60.332 192.23 60.2852 192.316 60.2305C192.41 60.168 192.496 60.1094 192.574 60.0547C192.66 59.9922 192.742 59.9414 192.82 59.9023C192.906 59.8633 193 59.8438 193.102 59.8438C193.188 59.8438 193.262 59.8945 193.324 59.9961C193.395 60.0898 193.457 60.168 193.512 60.2305C193.512 60.2461 193.516 60.2578 193.523 60.2656C193.523 60.2734 193.527 60.2773 193.535 60.2773C193.52 60.3242 193.512 60.3867 193.512 60.4648C193.512 60.5352 193.512 60.6133 193.512 60.6992V61.8594C193.512 61.9609 193.512 62.043 193.512 62.1055C193.512 62.168 193.52 62.2188 193.535 62.2578L193.629 63.5234C193.629 63.5469 193.625 63.5898 193.617 63.6523C193.617 63.7148 193.613 63.7812 193.605 63.8516C193.605 63.9141 193.602 63.9766 193.594 64.0391C193.594 64.0938 193.594 64.1289 193.594 64.1445C193.539 64.2383 193.438 64.2852 193.289 64.2852C193.148 64.2852 193.023 64.2344 192.914 64.1328C192.805 64.0234 192.699 63.8984 192.598 63.7578C192.504 63.6172 192.41 63.4805 192.316 63.3477C192.23 63.207 192.137 63.1016 192.035 63.0312C191.879 62.9062 191.727 62.8008 191.578 62.7148C191.438 62.6289 191.305 62.5039 191.18 62.3398L190.758 62.3867L187.992 62.1641L187.594 62.2578L187.008 62.1641H186.797L186.621 62.3398C186.621 62.332 186.617 62.3711 186.609 62.457C186.602 62.543 186.59 62.6484 186.574 62.7734C186.566 62.8984 186.559 63.0234 186.551 63.1484C186.543 63.2734 186.539 63.375 186.539 63.4531L186.621 64.6719V67.0039L186.457 67.8828L186.621 69.3125C186.621 69.3984 186.617 69.4648 186.609 69.5117C186.602 69.5586 186.578 69.6289 186.539 69.7227C186.539 69.8164 186.539 69.9688 186.539 70.1797C186.547 70.3906 186.551 70.6289 186.551 70.8945C186.551 71.1445 186.547 71.3672 186.539 71.5625C186.539 71.7578 186.539 71.9023 186.539 71.9961L186.457 72.582C186.457 72.6758 186.461 72.8086 186.469 72.9805C186.477 73.1445 186.488 73.3281 186.504 73.5312C186.52 73.7344 186.543 73.9453 186.574 74.1641C186.605 74.375 186.648 74.5703 186.703 74.75C186.758 74.9297 186.82 75.0859 186.891 75.2188C186.969 75.3438 187.059 75.418 187.16 75.4414L188.684 75.8281H188.953L189.27 75.7578C189.363 75.7578 189.441 75.7852 189.504 75.8398C189.574 75.8867 189.629 75.9492 189.668 76.0273C189.715 76.1055 189.746 76.1875 189.762 76.2734C189.785 76.3516 189.797 76.4258 189.797 76.4961C189.797 76.6289 189.77 76.7344 189.715 76.8125C189.66 76.8828 189.59 76.9375 189.504 76.9766C189.418 77.0156 189.32 77.0391 189.211 77.0469C189.109 77.0547 189.008 77.0586 188.906 77.0586C188.82 77.0586 188.742 77.0469 188.672 77.0234C188.602 77 188.523 76.957 188.438 76.8945C188.367 76.8555 188.285 76.8203 188.191 76.7891C188.098 76.7578 188.004 76.7422 187.91 76.7422L187.324 76.8945C187.168 76.8945 186.98 76.8672 186.762 76.8125C186.543 76.7578 186.32 76.7109 186.094 76.6719C186.086 76.6719 186.051 76.6797 185.988 76.6953C185.926 76.7031 185.855 76.7188 185.777 76.7422C185.699 76.7578 185.625 76.7734 185.555 76.7891C185.492 76.7969 185.453 76.8008 185.438 76.8008H184.383C184.203 76.8086 184.043 76.8438 183.902 76.9062C183.762 76.9688 183.605 77 183.434 77C183.379 76.9844 183.301 76.9648 183.199 76.9414C183.098 76.9102 183.039 76.8945 183.023 76.8945C182.914 76.8945 182.812 76.9102 182.719 76.9414C182.633 76.9648 182.535 76.9922 182.426 77.0234C182.277 77.0547 182.133 77.0859 181.992 77.1172C181.859 77.1484 181.711 77.1641 181.547 77.1641H181.371C181.262 77.1641 181.16 77.1562 181.066 77.1406C180.973 77.125 180.855 77.0977 180.715 77.0586C180.715 77.043 180.695 76.9688 180.656 76.8359C180.617 76.6953 180.57 76.582 180.516 76.4961ZM194.496 76.3086C194.496 76.1602 194.551 76.0391 194.66 75.9453C194.777 75.8516 194.914 75.7773 195.07 75.7227C195.234 75.6602 195.398 75.6172 195.562 75.5938C195.727 75.5703 195.863 75.5586 195.973 75.5586H196.922C196.992 75.543 197.082 75.5 197.191 75.4297C197.301 75.3594 197.406 75.2773 197.508 75.1836C197.617 75.082 197.711 74.9727 197.789 74.8555C197.875 74.7305 197.926 74.6133 197.941 74.5039C197.965 74.3398 197.977 74.1641 197.977 73.9766C197.977 73.8281 197.965 73.6719 197.941 73.5078L198.105 73.25C197.996 72.8516 197.922 72.4531 197.883 72.0547C197.844 71.6562 197.824 71.2656 197.824 70.8828C197.824 70.8047 197.828 70.707 197.836 70.5898C197.852 70.4727 197.867 70.3555 197.883 70.2383C197.906 70.1133 197.93 69.9961 197.953 69.8867C197.977 69.7695 198 69.668 198.023 69.582C198.031 69.5586 198.043 69.5312 198.059 69.5C198.09 69.4375 198.105 69.3984 198.105 69.3828C198.129 69.3281 198.156 69.2773 198.188 69.2305C198.203 69.1914 198.219 69.1523 198.234 69.1133C198.258 69.0664 198.27 69.0312 198.27 69.0078C198.27 68.9453 198.238 68.8906 198.176 68.8438C198.113 68.7969 198.062 68.7734 198.023 68.7734C198.039 68.5156 198.051 68.2578 198.059 68C198.074 67.7344 198.082 67.4766 198.082 67.2266C198.082 66.9609 198.074 66.7031 198.059 66.4531C198.051 66.1953 198.039 65.9336 198.023 65.668C197.984 65.5586 197.961 65.4805 197.953 65.4336C197.945 65.3789 197.941 65.3086 197.941 65.2227L198.023 64.5312L197.941 63.2773C197.941 63.1836 197.898 63.0781 197.812 62.9609C197.734 62.8438 197.641 62.7344 197.531 62.6328C197.422 62.5234 197.309 62.4336 197.191 62.3633C197.082 62.2852 196.992 62.2383 196.922 62.2227H196.078L195.984 62.1758C195.961 62.1602 195.938 62.1484 195.914 62.1406C195.891 62.125 195.871 62.1172 195.855 62.1172C195.746 62.0859 195.621 62.0625 195.48 62.0469C195.348 62.0234 195.223 61.9883 195.105 61.9414C194.988 61.8945 194.891 61.8281 194.812 61.7422C194.734 61.6484 194.695 61.5156 194.695 61.3438C194.695 61.2031 194.715 61.0977 194.754 61.0273C194.793 60.9492 194.848 60.8945 194.918 60.8633C194.996 60.8242 195.086 60.8008 195.188 60.793C195.297 60.7852 195.418 60.7812 195.551 60.7812C195.762 60.7812 195.965 60.7891 196.16 60.8047C196.355 60.8203 196.523 60.8789 196.664 60.9805C196.703 60.9727 196.742 60.9648 196.781 60.957C196.82 60.9492 196.855 60.9453 196.887 60.9453H197.109C197.484 60.9453 197.871 60.9766 198.27 61.0391C198.676 61.0938 199.047 61.1367 199.383 61.168L200.051 61.2852C200.152 61.2852 200.254 61.2695 200.355 61.2383C200.465 61.1992 200.574 61.1602 200.684 61.1211C200.801 61.0742 200.914 61.0352 201.023 61.0039C201.133 60.9648 201.242 60.9453 201.352 60.9453C201.43 60.9453 201.496 60.9648 201.551 61.0039C201.605 61.043 201.691 61.0625 201.809 61.0625C201.848 61.0625 201.883 61.043 201.914 61.0039C201.953 60.9648 202.016 60.9453 202.102 60.9453C202.18 60.9453 202.238 60.9492 202.277 60.957C202.324 60.9648 202.367 61 202.406 61.0625H202.863C203.027 61.0625 203.199 61.0352 203.379 60.9805C203.559 60.918 203.738 60.8867 203.918 60.8867C204.027 60.8867 204.113 60.8945 204.176 60.9102C204.238 60.9258 204.328 60.9766 204.445 61.0625L206.555 61.168C206.656 61.1758 206.75 61.1875 206.836 61.2031C206.914 61.2188 206.996 61.2344 207.082 61.25C207.168 61.2578 207.242 61.2695 207.305 61.2852C207.344 61.2852 207.391 61.2891 207.445 61.2969C207.5 61.3047 207.551 61.3203 207.598 61.3438C207.645 61.3672 207.684 61.3984 207.715 61.4375C207.754 61.4766 207.773 61.5273 207.773 61.5898C207.797 61.6602 207.82 61.7773 207.844 61.9414C207.867 62.0977 207.887 62.2656 207.902 62.4453C207.926 62.625 207.941 62.793 207.949 62.9492C207.965 63.1055 207.973 63.2148 207.973 63.2773C208.012 63.543 208.043 63.8125 208.066 64.0859C208.09 64.3594 208.102 64.6289 208.102 64.8945H207.914C207.742 64.8945 207.602 64.7617 207.492 64.4961C207.422 64.4023 207.371 64.3398 207.34 64.3086C207.309 64.2695 207.285 64.2305 207.27 64.1914C207.16 64.043 207.047 63.8828 206.93 63.7109C206.82 63.5312 206.719 63.3633 206.625 63.207C206.531 63.0508 206.449 62.9102 206.379 62.7852C206.309 62.6523 206.262 62.5586 206.238 62.5039C206.145 62.4648 206.047 62.4375 205.945 62.4219C205.844 62.3984 205.746 62.3789 205.652 62.3633C205.559 62.3398 205.473 62.3125 205.395 62.2812C205.316 62.2422 205.25 62.1797 205.195 62.0938C205.133 61.9766 205.012 61.918 204.832 61.918C204.762 61.918 204.723 61.9258 204.715 61.9414C204.676 61.9492 204.625 61.957 204.562 61.9648C204.508 61.9727 204.449 61.9766 204.387 61.9766C204.254 61.9766 204.121 61.9727 203.988 61.9648C203.855 61.9492 203.746 61.9414 203.66 61.9414C203.605 61.9414 203.57 61.9336 203.555 61.918C203.539 61.9023 203.512 61.8945 203.473 61.8945C203.457 61.8945 203.441 61.8906 203.426 61.8828C203.418 61.875 203.406 61.8672 203.391 61.8594C203.219 61.8359 203.047 61.8203 202.875 61.8125C202.703 61.8047 202.531 61.8008 202.359 61.8008C202.188 61.8008 202.02 61.8047 201.855 61.8125C201.691 61.8203 201.523 61.8359 201.352 61.8594C201.297 61.875 201.234 61.9062 201.164 61.9531C201.094 62 201.023 62.0586 200.953 62.1289C200.891 62.1914 200.832 62.2578 200.777 62.3281C200.723 62.3984 200.688 62.4648 200.672 62.5273C200.609 62.793 200.57 63.0938 200.555 63.4297C200.539 63.7578 200.531 64.0977 200.531 64.4492V65.668C200.461 65.7539 200.418 65.8438 200.402 65.9375C200.387 66.0234 200.379 66.1289 200.379 66.2539V66.6641C200.379 66.8516 200.383 67.0352 200.391 67.2148C200.406 67.3945 200.438 67.5703 200.484 67.7422C200.531 67.9141 200.598 68.082 200.684 68.2461C200.777 68.4023 200.902 68.5547 201.059 68.7031L202.945 68.7734C203.094 68.7734 203.238 68.7461 203.379 68.6914C203.418 68.6758 203.465 68.6641 203.52 68.6562C203.574 68.6406 203.629 68.6328 203.684 68.6328L204.141 68.6445C204.273 68.6445 204.395 68.6055 204.504 68.5273C204.566 68.5117 204.637 68.4844 204.715 68.4453C204.801 68.3984 204.883 68.3477 204.961 68.293C205.047 68.2305 205.125 68.1719 205.195 68.1172C205.266 68.0547 205.32 68 205.359 67.9531C205.406 67.8594 205.457 67.707 205.512 67.4961C205.574 67.2852 205.641 67.0742 205.711 66.8633C205.789 66.6523 205.871 66.4648 205.957 66.3008C206.051 66.1367 206.156 66.0547 206.273 66.0547C206.375 66.0547 206.469 66.1289 206.555 66.2773V67.3555C206.555 67.457 206.543 67.5469 206.52 67.625C206.504 67.7031 206.469 67.8125 206.414 67.9531L206.273 68.1406L206.332 68.5273C206.332 68.5586 206.34 68.6523 206.355 68.8086C206.371 68.957 206.387 69.1328 206.402 69.3359C206.418 69.5312 206.434 69.7344 206.449 69.9453C206.465 70.1484 206.473 70.3164 206.473 70.4492L206.414 70.8828C206.414 71.0156 206.438 71.1289 206.484 71.2227C206.531 71.3164 206.555 71.4023 206.555 71.4805C206.555 71.6836 206.516 71.8594 206.438 72.0078C206.367 72.1562 206.23 72.2305 206.027 72.2305C205.926 72.2305 205.848 72.2148 205.793 72.1836C205.738 72.1445 205.695 72.1016 205.664 72.0547C205.641 72 205.625 71.9414 205.617 71.8789C205.609 71.8086 205.605 71.7383 205.605 71.668C205.605 71.6133 205.605 71.5664 205.605 71.5273C205.605 71.4805 205.598 71.4336 205.582 71.3867L205.254 70.8125V70.4492C205.246 70.3477 205.156 70.25 204.984 70.1562C204.812 70.0625 204.598 69.9766 204.34 69.8984C204.082 69.8203 203.797 69.75 203.484 69.6875C203.18 69.625 202.879 69.5703 202.582 69.5234C202.293 69.4766 202.027 69.4414 201.785 69.418C201.551 69.3945 201.379 69.3828 201.27 69.3828C201.129 69.3828 201.004 69.4297 200.895 69.5234C200.793 69.6094 200.703 69.7188 200.625 69.8516C200.555 69.9766 200.5 70.1133 200.461 70.2617C200.422 70.4023 200.395 70.5273 200.379 70.6367V71.5625L200.531 73.3672V74.3867C200.547 74.5664 200.617 74.7461 200.742 74.9258C200.875 75.1055 201.031 75.2695 201.211 75.418C201.391 75.5664 201.582 75.6875 201.785 75.7812C201.988 75.875 202.172 75.9297 202.336 75.9453L203.168 76.0039L203.391 76.0859H204.141C204.328 76.0859 204.5 76.0859 204.656 76.0859C204.812 76.0859 204.969 76.082 205.125 76.0742C205.281 76.0664 205.441 76.0586 205.605 76.0508C205.77 76.043 205.957 76.0273 206.168 76.0039L207.105 75.6406C207.23 75.5547 207.383 75.4297 207.562 75.2656C207.742 75.1016 207.918 74.9297 208.09 74.75C208.27 74.5625 208.434 74.3789 208.582 74.1992C208.73 74.0195 208.84 73.8711 208.91 73.7539C208.949 73.7305 208.988 73.6719 209.027 73.5781C209.066 73.4766 209.109 73.3711 209.156 73.2617C209.211 73.1445 209.27 73.043 209.332 72.957C209.402 72.8711 209.484 72.8281 209.578 72.8281C209.664 72.8281 209.727 72.8633 209.766 72.9336C209.805 73.0039 209.824 73.0742 209.824 73.1445L209.613 73.8828C209.496 74.2891 209.383 74.7031 209.273 75.125C209.164 75.5391 209.09 75.9609 209.051 76.3906C208.887 76.6406 208.68 76.793 208.43 76.8477C208.18 76.8945 207.922 76.918 207.656 76.918C207.57 76.918 207.484 76.918 207.398 76.918C207.312 76.918 207.234 76.9258 207.164 76.9414L206.918 77C206.84 77 206.777 76.9922 206.73 76.9766C206.684 76.9609 206.641 76.9453 206.602 76.9297C206.562 76.9141 206.523 76.8984 206.484 76.8828C206.445 76.8672 206.395 76.8594 206.332 76.8594L205.582 76.9414L205.195 76.8594L203.391 77C202.82 77 202.25 76.9766 201.68 76.9297C201.109 76.8828 200.52 76.8594 199.91 76.8594L198.41 77L197.355 76.9414C197.215 76.9414 197.078 76.957 196.945 76.9883C196.812 77.0195 196.684 77.0547 196.559 77.0938C196.434 77.1328 196.312 77.168 196.195 77.1992C196.078 77.2305 195.965 77.2461 195.855 77.2461C195.723 77.2461 195.578 77.2266 195.422 77.1875C195.266 77.1484 195.117 77.0898 194.977 77.0117C194.844 76.9336 194.73 76.8359 194.637 76.7188C194.543 76.6016 194.496 76.4648 194.496 76.3086Z" fill="white"/>
<path d="M39 79.3438H210.504V80.3281H39V79.3438Z" fill="white"/>
<path d="M211.932 140.323C212.149 143.762 208.932 147.335 211.985 147.751C215.038 148.167 214.784 150.354 214.296 152.329C214.178 152.808 211.944 156.757 214.701 157.399C217.394 157.995 223.973 159.848 221.942 162.753C220.969 164.144 219.735 167.196 222.578 168.276C226.133 169.625 233.255 170.883 231.401 176.533C229.918 181.053 224.044 181.004 221.293 180.415C217.515 179.198 209.072 173.093 205.52 158.409C203.483 165.572 197.052 179.945 187.628 180.136C175.848 180.373 178.977 170.26 186.338 168.932C192.226 167.87 190.862 164.66 189.531 162.489C188.643 161.04 189.851 158.742 196.822 155.893C198.013 155.406 198.256 154.72 197.001 151.283C196.892 150.336 197.204 148.382 200.517 146.034C201.322 145.087 202.655 143.033 203.293 140.63C203.571 139.585 203.717 138.475 203.632 137.361L205.942 130.603L211.932 140.323Z" fill="#7ED957"/>
<circle cx="206" cy="129" r="23.5" fill="#7ED957" stroke="#3D8020"/>
<rect x="28" y="133" width="139" height="11" rx="5" fill="#692C46"/>
<rect x="28" y="105" width="139" height="11" rx="5" fill="#692C46"/>
<rect x="28" y="176" width="41" height="11" rx="5" fill="#692C46"/>
<rect x="124" y="176" width="43" height="11" rx="5" fill="#692C46"/>
<rect x="28" y="148" width="139" height="11" rx="5" fill="#692C46"/>
</svg>
