<svg width="250" height="250" viewBox="0 0 250 250" fill="none" xmlns="http://www.w3.org/2000/svg">
<g clip-path="url(#clip0_89_46)">
<rect x="167.898" y="49.3244" width="121.872" height="148.847" transform="rotate(45 167.898 49.3244)" fill="#FFD7E8" stroke="#923A5F" stroke-width="13"/>
<rect x="199.179" y="62.2574" width="59.3441" height="26.9746" rx="5" transform="rotate(45 199.179 62.2574)" fill="#923A5F"/>
<circle cx="220.161" cy="83.2389" r="10.7898" transform="rotate(45 220.161 83.2389)" fill="#923A5F"/>
<circle cx="220.161" cy="83.2388" r="5.39492" transform="rotate(45 220.161 83.2388)" fill="#FFD7E8"/>
<rect x="105.986" y="47.4807" width="17.1287" height="59.9505" transform="rotate(-24.2106 105.986 47.4807)" fill="#5DA33F"/>
<rect x="-0.287743" y="0.65023" width="35.6947" height="16.3687" rx="8.18434" transform="matrix(-0.930737 0.36569 0.355251 0.934771 141.595 55.5176)" fill="#923A5F" stroke="white"/>
<rect x="-0.287743" y="0.65023" width="35.6947" height="15.7254" rx="7.8627" transform="matrix(-0.930737 0.36569 0.355251 0.934771 138.813 44.8617)" fill="#923A5F" stroke="white"/>
<rect x="-0.287743" y="0.65023" width="38.654" height="16.3687" rx="8.18434" transform="matrix(-0.930737 0.36569 0.355251 0.934771 136.352 33.389)" fill="#923A5F" stroke="white"/>
<rect x="-0.287743" y="0.65023" width="38.654" height="16.3687" rx="8.18434" transform="matrix(-0.930737 0.36569 0.355251 0.934771 133.086 24.1269)" fill="#923A5F" stroke="white"/>
<path d="M68.5955 56.9829C67.3119 58.6156 63.5666 74.7689 61.7589 74.7847L65.4206 84.4196C66.269 83.7886 78.19 95.1133 85.3489 95.3387C92.3114 95.5581 96.3197 94.5185 102.663 92.9377C108.876 91.3895 116.572 85.1543 118.487 82.3187C111.106 79.5047 110.83 72.431 111.614 69.2459C109.123 67.844 108.543 63.3104 108.564 61.2188C105.274 57.2802 104.269 49.7164 104.135 45.569C104.141 45.1937 104.136 44.8412 104.119 44.5136L110.694 60.3818C111.843 62.212 115.001 65.4154 118.442 63.5875C121.882 61.7596 121.811 57.8987 121.346 56.1968C119.057 49.4577 114.388 35.5984 114.026 34.0739C113.574 32.1684 97.1722 25.518 92.6562 25.8043C89.0435 26.0333 86.1013 27.8837 85.0818 28.7803C80.8382 33.3616 70.0204 55.1705 68.5955 56.9829Z" fill="#923A5F"/>
<path d="M104.119 44.5135L110.694 60.3818C111.843 62.212 115.001 65.4154 118.442 63.5875C121.882 61.7596 121.811 57.8987 121.346 56.1968C119.057 49.4577 114.388 35.5984 114.026 34.0739C113.574 32.1684 97.1722 25.518 92.6562 25.8043C89.0435 26.0333 86.1013 27.8837 85.0818 28.7803C80.8382 33.3616 70.0204 55.1705 68.5955 56.9829C67.3119 58.6156 63.5666 74.7689 61.7589 74.7847L65.4206 84.4196C66.269 83.7886 78.19 95.1133 85.3489 95.3388C92.3114 95.5581 96.3197 94.5185 102.663 92.9377C108.876 91.3895 116.572 85.1543 118.487 82.3187C111.106 79.5047 110.83 72.431 111.614 69.2459C109.123 67.844 108.543 63.3104 108.564 61.2188C104.97 56.9168 104.104 48.2894 104.119 44.5135ZM104.119 44.5135C101.127 46.1851 93.76 48.4648 88.2259 44.2109M104.119 44.5135C104.417 50.547 101.19 65.0088 85.8965 74.5889" stroke="white"/>
<path d="M41.5347 92.5237C23.3877 96.467 10.9885 88.0813 7.05726 83.3955C4.51136 79.7995 0.367145 71.3773 4.15751 66.4562C8.89547 60.3049 15.2009 69.7776 19.1179 74.0607C22.2514 77.4872 24.6485 73.8284 25.4554 71.5707C27.1398 66.8573 33.7028 75.1824 36.2149 78.6894C38.8212 82.2616 41.479 76.6121 41.9079 76.1462C43.6755 74.226 45.833 72.5114 48.4044 76.6488C50.9757 80.7863 59.2426 78.6822 63.0645 76.8741L65.7946 83.5281C64.5464 84.0928 62.9821 83.7219 62.0608 84.7653M41.5347 92.5237C35.3094 99.8723 24.4497 117.989 30.8134 131.667C38.768 148.765 47.3817 138.027 43.6695 126.616C40.6997 117.487 45.0762 117.472 48.3212 118.047C50.4861 118.431 52.0965 115.277 50.2804 103.489C49.9701 101.475 50.5327 100.702 55.075 100.388C56.1615 99.9615 58.0304 98.308 58.228 92.0931C58.6777 90.3502 59.9412 87.166 62.0608 84.7653M41.5347 92.5237C45.0468 92.072 56.8506 87.6296 62.0608 84.7653" stroke="#7ED957" stroke-width="5"/>
<path d="M144 109.803C143.749 111.315 142.554 117.775 142 119.803" stroke="#7ED957" stroke-width="6" stroke-linecap="round"/>
<path d="M208.957 148.748C209.342 148.53 209.666 148.315 210 148.094M208.96 149.016C208.468 149.07 204.268 149.446 197.895 147.43C192.074 145.587 188.904 144.931 188.608 144.619C188.502 144.507 188.61 144.185 188.831 143.913C189.052 143.641 189.448 143.314 189.594 143.485C189.92 143.866 190.776 144.452 190.514 144.953C190.342 145.282 189.694 145.711 189.592 145.815C189.491 145.919 189.923 145.705 190.083 145.431C190.244 145.158 190.136 144.836 189.581 144.453C189.026 144.071 188.063 143.593 187.066 143.426C183.8 142.88 177.668 142.607 180.045 143.322C180.758 143.537 183.199 143.39 182.715 143.864C182.494 144.081 178.964 144.706 180.046 145.382C180.218 145.49 181.012 145.575 180.801 145.766C179.557 146.896 170.592 148.998 174.317 149.397C175.304 149.503 178.327 148.564 177.476 148.364C177.255 148.312 167.597 150.605 171.646 150.209C173.346 150.043 179.906 147.592 178.131 148.256C177.687 148.422 174.498 149.852 175.407 149.721C176.175 149.61 177.874 149.039 179.285 148.142C179.884 147.762 180.208 147.439 178.979 147.334C177.75 147.228 174.975 147.096 171.137 148.385C162.256 151.368 157.75 153.242 158.881 152.808C159.598 152.533 160.807 151.976 160.667 151.999C160.007 152.11 156.669 153.045 153.899 155.042C153.154 155.579 153.91 155.579 154.456 155.524C155.001 155.469 155.323 155.35 155.264 155.363C154.771 155.472 152.245 155.814 152.871 156.284C152.938 156.334 153.802 156.12 153.622 156.178C153.442 156.237 151.712 156.666 151.993 156.665C152.381 156.663 154.244 156.439 155.819 155.574C156.415 155.247 156.542 154.817 155.909 154.764C153.999 154.603 137.846 156.556 142.009 156.556C142.448 156.556 145.112 155.847 144.242 155.469C143.747 155.254 137.692 157.761 139.227 156.391C139.291 156.334 140.216 156.149 140.097 155.957C139.93 155.687 137.589 157.369 136.603 156.009C136.443 155.788 136.626 155.227 136.327 155.143C135.562 154.928 133.471 155.147 133.822 154.546C134.043 154.167 134.92 153.352 134.468 153.137C134.131 152.976 132.951 153.146 133.002 152.865C133.061 152.539 136.711 150.859 135.341 150.207C135.002 150.046 133.573 150.178 133.766 149.991C133.935 149.828 135.7 149.321 135.294 148.523C135.018 147.983 135.326 147.257 135.018 146.681C134.904 146.466 134.344 146.448 134.423 146.356C134.698 146.03 135.378 145.423 135.128 144.945C135.015 144.728 134.584 144.645 134.585 144.401C134.586 143.859 137.101 142.442 136.438 140.224C136.325 139.846 135.884 139.735 135.95 139.519C136.115 138.977 138.252 138.344 140.318 134.469C140.693 133.766 140.473 133.323 140.146 133.394C139.383 133.558 137.775 134.049 138.024 133.607C138.299 133.119 140.511 132.693 140.477 130.404C140.47 129.971 139.872 129.736 139.989 129.483C140.264 128.888 141.11 128.014 140.968 127.096C140.909 126.717 140.386 126.464 140.534 126.229C141.249 125.089 141.393 124.177 141.791 123.734C142.228 123.247 143.402 122.644 143.094 122.217C142.978 122.056 142.438 122.056 142.168 121.835C141.897 121.613 141.824 121.166 141.953 120.803" stroke="#7ED957" stroke-width="13" stroke-linecap="round"/>
<path d="M143.518 108.596C144.147 108.917 144.901 108.502 144.968 107.8L146.074 96.1213C146.146 95.3578 145.368 94.8004 144.668 95.1149L131.904 100.854C131.139 101.198 131.112 102.276 131.861 102.657L143.518 108.596Z" fill="#72C84D"/>
</g>
<defs>
<clipPath id="clip0_89_46">
<rect width="250" height="250" fill="white"/>
</clipPath>
</defs>
</svg>
