<svg width="250" height="250" viewBox="0 0 250 250" fill="none" xmlns="http://www.w3.org/2000/svg">
<g clip-path="url(#clip0_89_41)">
<path d="M124.214 16.0647C125.179 7.38687 128.362 3.34506 130.249 2.39516C131.641 1.87424 134.685 1.45751 135.724 3.95791C137.024 7.0834 133.404 8.27844 131.641 9.28963C130.231 10.0986 131.054 11.7716 131.641 12.5071C132.868 14.0423 129.566 15.5438 128.205 16.0647C126.813 16.6163 128.208 18.7387 128.298 19.0064C128.669 20.1095 128.932 21.3504 127.373 21.7916C125.814 22.2329 126.907 26.794 127 28.7857L120.786 29C120.763 28.3539 122.278 26.7964 122.071 26.2143M124.214 16.0647C122.73 12.0813 117.703 4.27047 112.804 4.78526C106.679 5.42874 108.906 11.0362 112.804 11.312C115.922 11.5326 115.406 13.4685 114.845 14.8052C114.471 15.697 115.235 16.9379 119.021 18.1146C119.668 18.3156 119.835 18.6938 119.389 20.753C119.389 21.3045 119.141 22.298 121 23.4286C121.474 23.9198 121.597 24.875 122.071 26.2143M124.214 16.0647C123.933 17.6919 121.824 23.432 122.071 26.2143" stroke="#7ED957" stroke-width="3"/>
<path d="M46.7569 47.2067C41.3629 40.4628 40.7624 35.41 41.4177 33.4261C42.0268 32.0883 43.8641 29.6681 46.3396 30.69C49.434 31.9672 47.7388 35.334 47.2128 37.2743C46.7921 38.8266 48.5376 39.4212 49.463 39.5245C51.3948 39.7401 50.1355 43.0995 49.5479 44.4157C48.9602 45.7749 51.4199 46.2838 51.6701 46.408C52.7012 46.9199 53.7526 47.6041 52.9709 49.003C52.1892 50.4019 57.4926 51.1785 58.9504 52.5065L53.4055 58.6509C52.9379 58.2147 52.9079 56.0662 52.3565 55.8035M46.7569 47.2067C42.9327 45.4592 33.955 43.5118 30.8884 47.2984C27.0551 52.0318 32.5343 54.3959 35.4529 51.863C37.7878 49.8367 38.7808 51.5514 39.3237 52.8782C39.6859 53.7634 41.0878 54.0972 44.5585 52.2722C45.1515 51.9605 45.5328 52.1081 46.6614 53.8597C47.0471 54.2455 47.5684 55.1137 49.659 54.6046C50.3342 54.6164 51.0878 55.1989 52.3565 55.8035M46.7569 47.2067C47.6983 48.5413 50.2376 54.0307 52.3565 55.8035" stroke="#7ED957" stroke-width="3"/>
<path d="M233.456 125.651C241.813 126.58 245.705 129.645 246.619 131.462C247.121 132.803 247.522 135.734 245.115 136.735C242.105 137.986 240.954 134.501 239.98 132.803C239.201 131.444 237.59 132.237 236.882 132.803C235.404 133.984 233.958 130.804 233.456 129.494C232.925 128.153 230.881 129.496 230.624 129.583C229.561 129.941 228.366 130.193 227.941 128.692C227.517 127.191 223.124 128.244 221.206 128.333L221 122.349C221.622 122.328 223.122 123.786 223.683 123.587M233.456 125.651C237.292 124.221 244.814 119.381 244.318 114.663C243.698 108.765 238.298 110.91 238.033 114.663C237.82 117.665 235.956 117.168 234.669 116.629C233.81 116.269 232.615 117.004 231.482 120.65C231.289 121.273 230.924 121.434 228.942 121.005C228.41 121.005 227.454 120.766 226.365 122.556C225.892 123.012 224.972 123.13 223.683 123.587M233.456 125.651C231.889 125.38 226.362 123.349 223.683 123.587" stroke="#7ED957" stroke-width="3"/>
<path d="M200.945 48.4039C208.185 43.6959 213.272 43.5927 215.182 44.439C216.454 45.1762 218.683 47.2415 217.424 49.6052C215.85 52.5597 212.665 50.5431 210.785 49.8298C209.282 49.2591 208.519 50.938 208.326 51.8489C207.922 53.7503 204.702 52.1682 203.45 51.4547C202.155 50.7368 201.407 53.1349 201.259 53.3717C200.649 54.3477 199.865 55.3271 198.549 54.4123C197.234 53.4974 195.942 58.6993 194.478 60.0202L188.905 53.9005C189.385 53.4779 191.526 53.6583 191.842 53.1352M200.945 48.4039C203.059 44.7691 205.875 36.025 202.407 32.6026C198.072 28.3245 195.183 33.546 197.418 36.6985C199.206 39.2204 197.402 40.0408 196.028 40.4513C195.112 40.7251 194.643 42.0876 196.119 45.7203C196.371 46.3409 196.187 46.706 194.334 47.6577C193.912 48.0038 192.997 48.4376 193.299 50.568C193.221 51.2389 192.568 51.9318 191.842 53.1352M200.945 48.4039C199.525 49.2102 193.813 51.2 191.842 53.1352" stroke="#7ED957" stroke-width="3"/>
<path d="M124.786 232.935C123.821 241.613 120.638 245.655 118.751 246.605C117.359 247.126 114.315 247.542 113.276 245.042C111.976 241.917 115.596 240.722 117.359 239.71C118.769 238.901 117.946 237.228 117.359 236.493C116.132 234.958 119.434 233.456 120.795 232.935C122.187 232.384 120.792 230.261 120.702 229.994C120.331 228.891 120.068 227.65 121.627 227.208C123.186 226.767 122.093 222.206 122 220.214L128.214 220C128.237 220.646 126.722 222.204 126.929 222.786M124.786 232.935C126.27 236.919 131.297 244.73 136.196 244.215C142.321 243.571 140.094 237.964 136.196 237.688C133.078 237.467 133.594 235.532 134.155 234.195C134.529 233.303 133.765 232.062 129.979 230.885C129.332 230.684 129.165 230.306 129.611 228.247C129.611 227.695 129.859 226.702 128 225.571C127.526 225.08 127.403 224.125 126.929 222.786M124.786 232.935C125.067 231.308 127.176 225.568 126.929 222.786" stroke="#7ED957" stroke-width="3"/>
<path d="M201.251 201.793C206.645 208.537 207.245 213.59 206.59 215.574C205.981 216.912 204.144 219.332 201.668 218.31C198.574 217.033 200.269 213.666 200.795 211.726C201.216 210.173 199.47 209.579 198.545 209.476C196.613 209.26 197.872 205.9 198.46 204.584C199.048 203.225 196.588 202.716 196.338 202.592C195.307 202.08 194.255 201.396 195.037 199.997C195.819 198.598 190.515 197.822 189.057 196.494L194.602 190.349C195.07 190.785 195.1 192.934 195.651 193.197M201.251 201.793C205.075 203.541 214.053 205.488 217.119 201.702C220.953 196.968 215.473 194.604 212.555 197.137C210.22 199.163 209.227 197.449 208.684 196.122C208.322 195.237 206.92 194.903 203.449 196.728C202.856 197.04 202.475 196.892 201.346 195.14C200.961 194.755 200.439 193.886 198.349 194.395C197.674 194.384 196.92 193.801 195.651 193.197M201.251 201.793C200.309 200.459 197.77 194.969 195.651 193.197" stroke="#7ED957" stroke-width="3"/>
<path d="M13.5438 123.349C5.18735 122.42 1.29524 119.355 0.380522 117.538C-0.1211 116.197 -0.522398 113.266 1.88539 112.265C4.89512 111.014 6.04591 114.499 7.01964 116.197C7.79863 117.556 9.40973 116.763 10.1179 116.197C11.5963 115.016 13.0422 118.196 13.5438 119.506C14.0749 120.847 16.1187 119.504 16.3765 119.417C17.4388 119.059 18.6337 118.807 19.0586 120.308C19.4835 121.809 23.8757 120.756 25.7936 120.667L26 126.651C25.3778 126.672 23.878 125.214 23.3175 125.413M13.5438 123.349C9.70788 124.779 2.18638 129.619 2.6821 134.337C3.30175 140.235 8.70157 138.09 8.96713 134.337C9.17958 131.335 11.0437 131.832 12.331 132.371C13.1897 132.731 14.3847 131.996 15.5177 128.35C15.7113 127.727 16.0755 127.566 18.0584 127.995C18.5895 127.995 19.5462 128.234 20.6349 126.444C21.108 125.988 22.0278 125.87 23.3175 125.413M13.5438 123.349C15.1108 123.62 20.6382 125.651 23.3175 125.413" stroke="#7ED957" stroke-width="3"/>
<path d="M47.062 200.596C39.8226 205.304 34.7352 205.407 32.825 204.561C31.5532 203.824 29.3245 201.758 30.5837 199.395C32.1577 196.44 35.3424 198.457 37.222 199.17C38.7256 199.741 39.4882 198.062 39.6815 197.151C40.0852 195.25 43.3052 196.832 44.5576 197.545C45.8527 198.263 46.6 195.865 46.7481 195.628C47.3584 194.652 48.1422 193.673 49.4579 194.588C50.7735 195.503 52.0654 190.301 53.5298 188.98L59.102 195.099C58.6221 195.522 56.4811 195.342 56.1656 195.865M47.062 200.596C44.9486 204.231 42.1319 212.975 45.6002 216.397C49.9356 220.676 52.8247 215.454 50.5896 212.302C48.8016 209.78 50.6053 208.959 51.9788 208.549C52.8952 208.275 53.3646 206.912 51.8881 203.28C51.6358 202.659 51.8201 202.294 53.6738 201.342C54.0954 200.996 55.0105 200.562 54.7084 198.432C54.7863 197.761 55.4398 197.068 56.1656 195.865M47.062 200.596C48.4823 199.79 54.1939 197.8 56.1656 195.865" stroke="#7ED957" stroke-width="3"/>
<path d="M104.121 224V200.649L86.7134 193.856L70.1552 209.989L39.7985 179.845L56.1444 163.287L49.139 145.879H26V105.121H49.3513L56.1444 87.9256L40.0108 71.1552L70.1552 41.0108L86.7134 57.1444L104.121 49.9267V27H144.879V50.3513L162.287 57.1444L178.845 41.0108L208.989 71.1552L192.856 87.7134L199.649 105.121H223V145.879H200.073L192.643 163.287L208.989 179.845L178.845 209.989L162.287 193.856L144.879 200.649V224H104.121Z" fill="#B74374"/>
<path d="M154.791 89.1949C156.534 89.1949 159.779 97.5764 161.183 101.767L162.191 116.218C162.43 116.449 164.718 118.53 165.831 119.542L176 127.634L170.77 165.062C169.899 166.555 167.342 169.744 164.088 170.553C160.834 171.362 139.683 170.89 129.515 170.553C128.643 169.06 127.859 164.946 131.694 160.438C143.654 159.667 167.662 156.94 168.01 152.201C168.359 147.461 166.703 128.453 165.831 119.542C164.718 118.53 162.43 116.449 162.191 116.218L164.669 151.767C158.161 154.426 149.562 153.838 146.075 153.212L141.717 114.773L138.957 115.062L142.443 154.513C133.379 158.328 123.946 157.74 120.363 156.969L115.424 117.808L112.373 118.097L116.877 156.102C111.066 159.917 102.544 159.33 99.0088 158.559L92.7623 120.264L89.7117 120.409L94.7961 152.056C90.961 155.871 83.9979 155.283 80.9957 154.513C78.4294 144.06 73.0933 122.316 72.2798 118.964C71.4663 115.611 72.6188 109.282 73.2967 106.536C76.4925 103.935 79.5431 103.646 80.7053 102.634C81.635 101.825 84.3853 102.586 85.6443 103.068L87.3875 102.923C89.1307 103.646 93.9245 94.9753 94.0698 94.3973C94.215 93.8193 104.529 91.9406 104.819 92.3742C105.052 92.721 107.531 93.6747 108.742 94.1083C109.323 94.2528 110.688 94.4551 111.502 94.1083C112.519 93.6747 116.005 88.7615 116.296 87.7499C116.586 86.7384 128.062 85.8713 129.079 86.0158C130.096 86.1603 135.18 92.6632 137.214 92.9522C138.841 93.1834 141.862 90.9291 143.17 89.773C144.913 89.0504 152.612 89.1949 154.791 89.1949Z" fill="#923A5F"/>
</g>
<defs>
<clipPath id="clip0_89_41">
<rect width="250" height="250" fill="white"/>
</clipPath>
</defs>
</svg>
