<svg width="250" height="250" viewBox="0 0 250 250" fill="none" xmlns="http://www.w3.org/2000/svg">
<g clip-path="url(#clip0_89_57)">
<path d="M158.353 233.474C165.148 218.639 163.562 203.368 162.148 200.329L163.716 193.231L167.865 188.781C200.495 201.187 195.845 190.508 211.15 187.322C213.259 187.907 216.261 189.28 217.652 190.26C219.042 191.24 221.354 191.026 223.049 192.095C224.406 192.95 224.032 194.059 223.676 194.506L220.472 196.511C215.918 194.248 211.961 194.363 210.551 194.703C219.786 194.667 229.756 201.169 236.354 203.389C239.148 206.842 234.821 208.757 232.308 209.283L217.678 204.649C214.457 203.749 213.415 203.729 212.356 204.167C220.882 206.406 230.636 210.584 232.998 210.87C235.882 211.218 239.386 214.496 240.778 216.091C242.232 217.535 239.307 219.59 238.2 220.506C237.315 221.24 234.816 220.83 233.677 220.534C228.387 216.58 210.013 213.705 201.487 212.762L197.661 212.914L199.561 215.761C199.941 216.331 215.163 226.514 222.727 231.534C224.953 235.164 220.541 237.087 218.056 237.595L193.162 223.464L186.999 220.482C176.459 217.93 169.752 228.36 167.716 233.894L168.656 238.799C168.11 242.1 165.016 244.626 163.538 245.477C163.015 245.43 161.854 245.05 161.386 243.908C160.919 242.766 161.125 240.634 161.286 239.711C160.587 239.251 159.039 235.362 158.353 233.474Z" fill="#923A5F"/>
<path d="M201.174 203.093C203.723 202.348 207.87 202.989 212.356 204.167M212.356 204.167C220.882 206.406 230.636 210.584 232.998 210.87C235.882 211.218 239.386 214.496 240.778 216.091C242.232 217.535 239.307 219.59 238.2 220.506C237.315 221.24 234.816 220.83 233.677 220.534C228.387 216.58 210.013 213.705 201.487 212.762L197.661 212.914C198.136 213.626 199.181 215.192 199.561 215.761C199.941 216.331 215.163 226.514 222.727 231.534C224.953 235.164 220.541 237.087 218.056 237.595L193.162 223.464L186.999 220.482C176.459 217.93 169.752 228.36 167.716 233.894L168.656 238.799C168.11 242.1 165.016 244.626 163.538 245.477C163.015 245.43 161.854 245.05 161.386 243.908C160.919 242.766 161.125 240.634 161.286 239.711C160.587 239.251 159.039 235.362 158.353 233.474C165.148 218.639 163.562 203.368 162.148 200.329L163.716 193.231L167.865 188.781C200.495 201.187 195.845 190.508 211.15 187.322C213.259 187.907 216.261 189.28 217.652 190.26C219.042 191.24 221.354 191.026 223.049 192.095C224.406 192.95 224.032 194.059 223.676 194.506L220.472 196.511C215.918 194.248 211.961 194.363 210.551 194.703M212.356 204.167C213.415 203.729 214.457 203.749 217.678 204.649L232.308 209.283C234.821 208.757 239.148 206.842 236.354 203.389C229.756 201.169 219.786 194.667 210.551 194.703M203.87 195.912C205.903 194.952 208.166 194.613 210.551 194.703" stroke="white"/>
<path d="M53.8357 41.5623C38.1652 27.1138 24.2441 25.7213 19.2425 26.8311C15.8405 27.9794 9.55772 31.8145 11.6424 37.9682C14.2482 45.6602 22.8381 42.3825 27.7098 41.5719C31.6071 40.9234 32.7669 45.2334 32.8597 47.4695C33.0533 52.1376 41.5491 49.9004 44.8939 48.7989C48.3449 47.7067 49.1689 53.7044 49.4311 54.3312C50.512 56.914 52.0137 59.5853 55.5963 58.0386C59.1789 56.4918 66.1082 63.6874 69.125 67.4785L72.8916 64.3938C71.8989 63.1754 71.1551 61.808 70.6041 60.4291M53.8357 41.5623C50.199 32.0172 45.3916 11.312 55.2555 4.85245C67.5853 -3.22197 72.4517 10.4218 65.7024 16.8161C60.3029 21.9316 64.3534 24.7005 67.527 26.3039C69.6443 27.3736 70.2216 30.802 65.1196 38.6795C64.248 40.0253 64.5452 40.971 68.6629 44.0724C69.5457 45.0834 70.7978 47.5261 69.1782 52.4068C69.0893 54.024 69.3365 57.2568 70.6041 60.4291M53.8357 41.5623C56.9589 44.1203 66.6073 54.9552 70.6041 60.4291" stroke="#7ED957" stroke-width="4"/>
<path d="M73.351 154.548C93.1689 184.41 138.571 242.907 161.636 237.992" stroke="#1D4D09" stroke-width="5" stroke-linecap="round"/>
<path d="M156.405 145.145C166.074 170.705 188.791 222.713 202.306 226.274" stroke="#1D4D09" stroke-width="5" stroke-linecap="round"/>
<path d="M190.892 113.954C205.357 139.141 230.277 193.728 214.235 210.571" stroke="#1D4D09" stroke-width="5" stroke-linecap="round"/>
<path d="M192.554 90.9432C206.875 121.091 232.451 192.324 212.994 200.21" stroke="#1D4D09" stroke-width="5" stroke-linecap="round"/>
<path d="M164.808 68.4839C163.428 100.877 228.872 180.873 209.551 188.674" stroke="#1D4D09" stroke-width="5" stroke-linecap="round"/>
<path d="M56.71 149.788C69.8947 120.551 66.5984 90.3619 63.7839 84.3421L66.7832 70.3333L74.8863 61.5865C139.17 86.4555 129.906 65.3043 159.951 59.1761C164.104 60.3568 170.021 63.1011 172.766 65.053C175.51 67.005 180.052 66.6063 183.396 68.7373C186.072 70.4421 185.351 72.6275 184.656 73.5071L178.381 77.4332C169.404 72.913 161.627 73.0971 158.86 73.7542C177.013 73.7835 196.685 86.7385 209.679 91.1963C215.212 98.049 206.729 101.786 201.795 102.799L172.984 93.4822C166.643 91.6687 164.594 91.6182 162.518 92.4726C179.303 96.9896 198.525 105.351 203.17 105.94C208.842 106.659 215.769 113.174 218.523 116.341C221.399 119.21 215.673 123.238 213.508 125.037C211.776 126.477 206.859 125.64 204.618 125.042C194.174 117.171 158.024 111.291 141.255 109.335L133.735 109.594L137.502 115.24C138.256 116.369 168.296 136.654 183.222 146.656C187.639 153.852 178.989 157.604 174.112 158.581L125.015 130.39L112.866 124.431C92.118 119.273 79.0562 139.807 75.1188 150.718L77.0242 160.419C75.9881 166.937 69.9369 171.894 67.0408 173.558C66.0137 173.459 63.7264 172.697 62.794 170.435C61.8616 168.173 62.2417 163.963 62.5483 162.141C61.1685 161.226 58.0812 153.524 56.71 149.788Z" fill="#923A5F"/>
<path d="M140.525 90.2277C145.529 88.7832 153.686 90.0957 162.518 92.4726M162.518 92.4726C179.303 96.9896 198.525 105.351 203.17 105.94C208.842 106.659 215.769 113.174 218.523 116.341C221.399 119.21 215.673 123.238 213.508 125.037C211.776 126.477 206.859 125.64 204.618 125.042C194.174 117.171 158.024 111.291 141.255 109.335L133.735 109.594C134.677 111.005 136.749 114.11 137.502 115.24C138.256 116.369 168.296 136.654 183.222 146.656C187.639 153.852 178.989 157.604 174.112 158.581L125.015 130.39L112.866 124.431C92.118 119.273 79.0562 139.807 75.1188 150.718L77.0242 160.419C75.9881 166.937 69.9369 171.894 67.0408 173.558C66.0137 173.459 63.7264 172.697 62.794 170.435C61.8616 168.173 62.2417 163.963 62.5483 162.141C61.1685 161.226 58.0812 153.524 56.71 149.788C69.8947 120.551 66.5984 90.3619 63.7839 84.3421L66.7832 70.3333L74.8863 61.5865C139.17 86.4555 129.906 65.3043 159.951 59.1761C164.104 60.3568 170.021 63.1011 172.766 65.053C175.51 67.005 180.052 66.6063 183.396 68.7373C186.072 70.4421 185.351 72.6275 184.656 73.5071L178.381 77.4332C169.404 72.913 161.627 73.0971 158.86 73.7542M162.518 92.4726C164.594 91.6182 166.643 91.6687 172.984 93.4822L201.795 102.799C206.729 101.786 215.212 98.049 209.679 91.1963C196.685 86.7385 177.013 73.7835 158.86 73.7542M145.742 76.07C149.727 74.194 154.172 73.5506 158.86 73.7542" stroke="white"/>
<path d="M170.055 137.977C169.691 139.82 166.379 145.77 159.636 149.989" stroke="#1D4D09" stroke-width="5" stroke-linecap="round"/>
<path d="M200.391 105.965C200.414 107.777 198.468 113.979 192.935 119.106" stroke="#1D4D09" stroke-width="5" stroke-linecap="round"/>
<path d="M202.728 88.737C202.737 90.2806 201.041 95.5776 196.293 99.9772" stroke="#1D4D09" stroke-width="5" stroke-linecap="round"/>
<path d="M171.791 64.5795C172.213 65.9893 172.125 70.3927 169.084 73.2107" stroke="#1D4D09" stroke-width="5" stroke-linecap="round"/>
<path d="M76.3167 159.638C73.5315 161.869 65.3399 166.142 61.1757 163.151" stroke="#1D4D09" stroke-width="5" stroke-linecap="round"/>
</g>
<defs>
<clipPath id="clip0_89_57">
<rect width="250" height="250" fill="white"/>
</clipPath>
</defs>
</svg>
