<svg width="250" height="250" viewBox="0 0 250 250" fill="none" xmlns="http://www.w3.org/2000/svg">
<g clip-path="url(#clip0_88_651)">
<mask id="path-2-inside-1_88_651" fill="white">
<path d="M0 5C0 2.23857 2.23858 0 5 0H245C247.761 0 250 2.23858 250 5V245C250 247.761 247.761 250 245 250H5C2.23857 250 0 247.761 0 245V5Z"/>
</mask>
<path d="M0 5C0 2.23857 2.23858 0 5 0H245C247.761 0 250 2.23858 250 5V245C250 247.761 247.761 250 245 250H5C2.23857 250 0 247.761 0 245V5Z" fill="#FFBCD8"/>
<path d="M0 0H250H0M0 0M250 250H0H250M5 250C-8.80712 250 -20 238.807 -20 225V25C-20 11.1929 -8.80712 0 5 0H20C20 0 20 2.23858 20 5V245C20 247.761 20 250 20 250H5ZM245 0C258.807 0 270 11.1929 270 25V225C270 238.807 258.807 250 245 250H230C230 250 230 247.761 230 245V5C230 2.23858 230 0 230 0H245Z" fill="#D38EAB" mask="url(#path-2-inside-1_88_651)"/>
<rect x="110" width="30" height="250" fill="#D38EAB"/>
<path d="M42.5859 67.9421C39.8219 49.4748 31.0038 41.1096 26.9402 39.2353C23.9575 38.2371 17.4957 37.598 15.5104 43.028C13.0289 49.8155 20.7705 52.0705 24.5781 54.0859C27.6242 55.6982 26.0268 59.3421 24.8474 60.9625C22.385 64.3453 29.4832 67.2813 32.4005 68.2822C35.3858 69.3459 32.6185 73.9974 32.4508 74.577C31.7593 76.9653 31.3088 79.6392 34.6375 80.4533C37.9662 81.2675 38.7398 90.0002 38.7106 94.2648L43.0212 94.096C43.0147 92.7132 43.2625 91.3577 43.6496 90.0965M42.5859 67.9421C45.3875 59.3055 53.588 42.2062 63.9767 42.9013C76.9625 43.7703 72.7292 55.9393 64.5229 56.8509C57.9578 57.5802 59.2093 61.6751 60.5046 64.4857C61.3687 66.3608 59.8601 69.0761 51.9643 71.904C50.6152 72.3871 50.2942 73.2093 51.407 77.5734C51.4532 78.7523 50.9577 81.133 47.1278 83.703C46.1674 84.7922 44.5401 87.1948 43.6496 90.0965M42.5859 67.9421C43.3156 71.3967 43.9393 84.1295 43.6496 90.0965" stroke="#7ED957" stroke-width="3"/>
<path d="M202.304 66.0122C199.23 45.4697 189.42 36.1644 184.9 34.0796C181.582 32.9691 174.394 32.2583 172.186 38.2985C169.426 45.8487 178.037 48.357 182.273 50.5989C185.661 52.3925 183.884 56.4458 182.572 58.2482C179.833 62.0112 187.729 65.2772 190.974 66.3905C194.295 67.5738 191.217 72.748 191.03 73.3927C190.261 76.0494 189.76 79.0237 193.462 79.9294C197.165 80.8351 198.026 90.5491 197.993 95.293L202.788 95.1052C202.781 93.5669 203.057 92.0591 203.487 90.6562M202.304 66.0122C205.421 56.4051 214.543 37.3842 226.099 38.1575C240.544 39.1241 235.835 52.6606 226.706 53.6747C219.403 54.486 220.796 59.0409 222.236 62.1674C223.198 64.2532 221.519 67.2736 212.736 70.4193C211.236 70.9567 210.879 71.8713 212.116 76.7259C212.168 78.0372 211.617 80.6854 207.356 83.5443C206.288 84.7558 204.478 87.4285 203.487 90.6562M202.304 66.0122C203.116 69.855 203.81 84.0186 203.487 90.6562" stroke="#7ED957" stroke-width="3"/>
<rect x="50" width="30" height="250" fill="#D38EAB"/>
<rect x="170" width="30" height="250" fill="#D38EAB"/>
<path d="M226.513 99.9134C226.513 98.164 218.182 94.9081 214.016 93.4988L199.652 92.4876L164.316 90C161.673 96.5311 162.257 105.162 162.879 108.661L201.088 113.034L200.801 115.804L161.587 112.305C157.794 121.402 158.378 130.868 159.145 134.464L198.072 139.421L197.785 142.483L160.006 137.963C156.214 143.795 156.798 152.347 157.565 155.895L195.63 162.164L195.486 165.225L164.028 160.123C160.236 163.971 160.82 170.959 161.587 173.972C171.977 176.548 193.59 181.903 196.923 182.719C200.255 183.536 206.547 182.379 209.276 181.699C211.862 178.491 212.149 175.43 213.154 174.264C213.959 173.331 213.202 170.57 212.723 169.307L212.867 167.558C212.149 165.808 220.767 160.997 221.342 160.851C221.917 160.706 223.784 150.355 223.353 150.063C223.008 149.83 222.06 147.342 221.629 146.127C221.486 145.544 221.285 144.174 221.629 143.357C222.06 142.337 226.944 138.838 227.95 138.546C228.955 138.255 229.817 126.738 229.673 125.717C229.53 124.697 223.066 119.594 222.778 117.553C222.549 115.921 224.789 112.888 225.939 111.576C226.657 109.827 226.513 102.1 226.513 99.9134Z" fill="#923A5F"/>
<path d="M23.1758 99.9134C23.1758 98.164 31.5071 94.9081 35.6727 93.4988L50.0371 92.4876L85.3732 90C88.0162 96.5311 87.4321 105.162 86.8097 108.661L48.6006 113.034L48.8879 115.804L88.1024 112.305C91.8946 121.402 91.3105 130.868 90.5444 134.464L51.6171 139.421L51.9044 142.483L89.6825 137.963C93.4747 143.795 92.8905 152.347 92.1244 155.895L54.0591 162.164L54.2027 165.225L85.6605 160.123C89.4527 163.971 88.8685 170.959 88.1024 173.972C77.7123 176.548 56.0988 181.903 52.7663 182.719C49.4338 183.536 43.1422 182.379 40.413 181.699C37.8274 178.491 37.5401 175.43 36.5346 174.264C35.7302 173.331 36.4868 170.57 36.9656 169.307L36.8219 167.558C37.5401 165.808 28.9216 160.997 28.347 160.851C27.7724 160.706 25.9051 150.355 26.336 150.063C26.6807 149.83 27.6288 147.342 28.0597 146.127C28.2034 145.544 28.4045 144.174 28.0597 143.357C27.6288 142.337 22.7449 138.838 21.7394 138.546C20.7339 138.255 19.8721 126.738 20.0157 125.717C20.1594 124.697 26.6233 119.594 26.9106 117.553C27.1404 115.921 24.8995 112.888 23.7504 111.576C23.0322 109.827 23.1758 102.1 23.1758 99.9134Z" fill="#923A5F"/>
</g>
<defs>
<clipPath id="clip0_88_651">
<rect width="250" height="250" fill="white"/>
</clipPath>
</defs>
</svg>
