<svg width="250" height="250" viewBox="0 0 250 250" fill="none" xmlns="http://www.w3.org/2000/svg">
<g clip-path="url(#clip0_88_931)">
<circle cx="77.3253" cy="117.547" r="43.5" transform="rotate(31.5219 77.3253 117.547)" stroke="#2B6314" stroke-width="8"/>
<path d="M104.74 -6.1634C120.023 -18.7994 123.034 -30.9521 122.629 -35.449C121.99 -38.5394 119.228 -44.3859 113.288 -43.0479C105.863 -41.3754 107.825 -33.5413 107.969 -29.1832C108.085 -25.6968 103.962 -25.0242 101.886 -25.1238C97.5514 -25.3315 98.5642 -17.6647 99.1667 -14.6284C99.7475 -11.4993 94.1075 -11.2593 93.4963 -11.0791C90.9776 -10.3361 88.325 -9.22942 89.3091 -5.94751C90.2933 -2.6656 63.5784 12.1202 59.7041 14.4709L67.3903 12.9789L81.2978 8.77598C82.5458 8.00004 83.9006 7.45556 85.242 7.08186M104.74 -6.1634C114.004 -8.59401 133.718 -11.1516 138.459 -1.93727C144.387 9.58069 131.186 12.7627 126.118 6.29767C122.064 1.12568 119.006 4.47015 117.132 7.13642C115.882 8.91522 112.645 9.14598 106.004 4.0123C104.869 3.13521 103.959 3.32043 100.585 6.69712C99.5421 7.39303 97.1316 8.29821 92.8258 6.47568C91.3437 6.26632 88.3281 6.22211 85.242 7.08186M104.74 -6.1634C101.991 -3.61892 90.7915 4.00396 85.242 7.08186" stroke="#7ED957" stroke-width="4"/>
<rect x="-0.580174" y="-0.404226" width="37.6181" height="15.0909" rx="7.54543" transform="matrix(-0.175948 -0.9844 -0.9844 0.175948 72.7685 98.9459)" fill="#923A5F" stroke="white"/>
<rect x="-0.580174" y="-0.404226" width="37.6181" height="15.0909" rx="7.54543" transform="matrix(-0.175948 -0.9844 -0.9844 0.175948 83.348 98.69)" fill="#923A5F" stroke="white"/>
<path d="M151.391 207.599C150.283 197.377 145.673 192.584 143.506 191.465C141.908 190.852 138.414 190.361 137.22 193.306C135.729 196.988 139.884 198.395 141.908 199.586C143.528 200.539 142.583 202.51 141.908 203.376C140.5 205.184 144.291 206.953 145.854 207.567C147.452 208.216 145.85 210.716 145.747 211.032C145.321 212.331 145.019 213.792 146.809 214.312C148.599 214.832 148.834 219.654 148.727 222H151.071C151.097 221.239 151.26 220.498 151.497 219.813M151.391 207.599C153.095 202.907 157.911 193.674 163.537 194.281C170.569 195.039 168.012 201.644 163.537 201.968C159.957 202.228 160.549 204.509 161.193 206.083C161.622 207.134 160.745 208.595 156.398 209.981C155.656 210.218 155.464 210.663 155.975 213.089C155.975 213.738 155.656 215.038 153.522 216.37C152.977 216.948 152.042 218.235 151.497 219.813M151.391 207.599C151.713 209.516 151.781 216.535 151.497 219.813" stroke="#7ED957" stroke-width="2"/>
<path d="M159.766 222.09C160.353 222.09 161.445 224.95 161.917 226.379L162.256 231.31C162.337 231.389 163.107 232.099 163.482 232.444L166.904 235.205L165.144 247.974C164.851 248.484 163.99 249.571 162.895 249.848C161.8 250.124 154.682 249.963 151.26 249.848C150.966 249.338 150.702 247.935 151.993 246.396C156.018 246.133 164.098 245.203 164.215 243.586C164.332 241.969 163.775 235.484 163.482 232.444C163.107 232.099 162.337 231.389 162.256 231.31L163.091 243.438C160.9 244.345 158.006 244.145 156.833 243.931L155.366 230.817L154.437 230.915L155.611 244.375C152.56 245.677 149.386 245.476 148.18 245.213L146.518 231.852L145.491 231.951L147.006 244.917C145.051 246.219 142.183 246.018 140.993 245.755L138.891 232.69L137.864 232.739L139.576 243.537C138.285 244.838 135.942 244.638 134.931 244.375C134.068 240.809 132.272 233.39 131.998 232.246C131.724 231.103 132.112 228.943 132.34 228.006C133.416 227.119 134.442 227.02 134.833 226.675C135.146 226.399 136.072 226.659 136.496 226.823L137.082 226.774C137.669 227.02 139.282 224.062 139.331 223.865C139.38 223.668 142.851 223.027 142.949 223.175C143.027 223.293 143.861 223.618 144.269 223.766C144.464 223.816 144.924 223.885 145.198 223.766C145.54 223.618 146.713 221.942 146.811 221.597C146.909 221.252 150.771 220.956 151.113 221.005C151.455 221.055 153.166 223.273 153.851 223.372C154.398 223.451 155.415 222.682 155.855 222.287C156.442 222.041 159.033 222.09 159.766 222.09Z" fill="#BCAF23"/>
<path d="M187.391 207.599C186.283 197.377 181.673 192.584 179.506 191.465C177.908 190.852 174.414 190.361 173.22 193.306C171.729 196.988 175.884 198.395 177.908 199.586C179.528 200.539 178.583 202.51 177.908 203.376C176.5 205.184 180.291 206.953 181.854 207.567C183.452 208.216 181.85 210.716 181.747 211.032C181.321 212.331 181.019 213.792 182.809 214.312C184.599 214.832 184.834 219.654 184.727 222H187.071C187.097 221.239 187.26 220.498 187.497 219.813M187.391 207.599C189.095 202.907 193.911 193.674 199.537 194.281C206.569 195.039 204.012 201.644 199.537 201.968C195.957 202.228 196.549 204.509 197.193 206.083C197.622 207.134 196.745 208.595 192.398 209.981C191.656 210.218 191.464 210.663 191.975 213.089C191.975 213.738 191.656 215.038 189.522 216.37C188.977 216.948 188.042 218.235 187.497 219.813M187.391 207.599C187.713 209.516 187.781 216.535 187.497 219.813" stroke="#7ED957" stroke-width="2"/>
<path d="M195.766 222.09C196.353 222.09 197.445 224.95 197.917 226.379L198.256 231.31C198.337 231.389 199.107 232.099 199.482 232.444L202.904 235.205L201.144 247.974C200.851 248.484 199.99 249.571 198.895 249.848C197.8 250.124 190.682 249.963 187.26 249.848C186.966 249.338 186.702 247.935 187.993 246.396C192.018 246.133 200.098 245.203 200.215 243.586C200.332 241.969 199.775 235.484 199.482 232.444C199.107 232.099 198.337 231.389 198.256 231.31L199.091 243.438C196.9 244.345 194.006 244.145 192.833 243.931L191.366 230.817L190.437 230.915L191.611 244.375C188.56 245.677 185.386 245.476 184.18 245.213L182.518 231.852L181.491 231.951L183.006 244.917C181.051 246.219 178.183 246.018 176.993 245.755L174.891 232.69L173.864 232.739L175.576 243.537C174.285 244.838 171.942 244.638 170.931 244.375C170.068 240.809 168.272 233.39 167.998 232.246C167.724 231.103 168.112 228.943 168.34 228.006C169.416 227.119 170.442 227.02 170.833 226.675C171.146 226.399 172.072 226.659 172.496 226.823L173.082 226.774C173.669 227.02 175.282 224.062 175.331 223.865C175.38 223.668 178.851 223.027 178.949 223.175C179.027 223.293 179.861 223.618 180.269 223.766C180.464 223.816 180.924 223.885 181.198 223.766C181.54 223.618 182.713 221.942 182.811 221.597C182.909 221.252 186.771 220.956 187.113 221.005C187.455 221.055 189.166 223.273 189.851 223.372C190.398 223.451 191.415 222.682 191.855 222.287C192.442 222.041 195.033 222.09 195.766 222.09Z" fill="#BCAF23"/>
<path d="M222.391 207.599C221.283 197.377 216.673 192.584 214.506 191.465C212.908 190.852 209.414 190.361 208.22 193.306C206.729 196.988 210.884 198.395 212.908 199.586C214.528 200.539 213.583 202.51 212.908 203.376C211.5 205.184 215.291 206.953 216.854 207.567C218.452 208.216 216.85 210.716 216.747 211.032C216.321 212.331 216.019 213.792 217.809 214.312C219.599 214.832 219.834 219.654 219.727 222H222.071C222.097 221.239 222.26 220.498 222.497 219.813M222.391 207.599C224.095 202.907 228.911 193.674 234.537 194.281C241.569 195.039 239.012 201.644 234.537 201.968C230.957 202.228 231.549 204.509 232.193 206.083C232.622 207.134 231.745 208.595 227.398 209.981C226.656 210.218 226.464 210.663 226.975 213.089C226.975 213.738 226.656 215.038 224.522 216.37C223.977 216.948 223.042 218.235 222.497 219.813M222.391 207.599C222.713 209.516 222.781 216.535 222.497 219.813" stroke="#7ED957" stroke-width="2"/>
<path d="M230.766 222.09C231.353 222.09 232.445 224.95 232.917 226.379L233.256 231.31C233.337 231.389 234.107 232.099 234.482 232.444L237.904 235.205L236.144 247.974C235.851 248.484 234.99 249.571 233.895 249.848C232.8 250.124 225.682 249.963 222.26 249.848C221.966 249.338 221.702 247.935 222.993 246.396C227.018 246.133 235.098 245.203 235.215 243.586C235.332 241.969 234.775 235.484 234.482 232.444C234.107 232.099 233.337 231.389 233.256 231.31L234.091 243.438C231.9 244.345 229.006 244.145 227.833 243.931L226.366 230.817L225.437 230.915L226.611 244.375C223.56 245.677 220.386 245.476 219.18 245.213L217.518 231.852L216.491 231.951L218.006 244.917C216.051 246.219 213.183 246.018 211.993 245.755L209.891 232.69L208.864 232.739L210.576 243.537C209.285 244.838 206.942 244.638 205.931 244.375C205.068 240.809 203.272 233.39 202.998 232.246C202.724 231.103 203.112 228.943 203.34 228.006C204.416 227.119 205.442 227.02 205.833 226.675C206.146 226.399 207.072 226.659 207.496 226.823L208.082 226.774C208.669 227.02 210.282 224.062 210.331 223.865C210.38 223.668 213.851 223.027 213.949 223.175C214.027 223.293 214.861 223.618 215.269 223.766C215.464 223.816 215.924 223.885 216.198 223.766C216.54 223.618 217.713 221.942 217.811 221.597C217.909 221.252 221.771 220.956 222.113 221.005C222.455 221.055 224.166 223.273 224.851 223.372C225.398 223.451 226.415 222.682 226.855 222.287C227.442 222.041 230.033 222.09 230.766 222.09Z" fill="#BCAF23"/>
<rect x="57.2522" y="100.545" width="72" height="79" rx="8.5" transform="rotate(31.5219 57.2522 100.545)" fill="#3FB40D" stroke="#68D23A" stroke-width="3"/>
<path d="M125.351 187.476L84.0935 197.364L96.1184 177.758L121.561 171.66L130.062 161.624C131.864 161.556 135.651 161.885 136.388 163.744C137.124 165.603 140.65 181.022 142.32 188.499C142.127 190.727 140.803 194.607 137.052 192.307L125.351 187.476Z" fill="#3FB40D"/>
<path d="M125.351 187.476L84.0935 197.364L96.1184 177.758L121.561 171.66M125.351 187.476L121.561 171.66M125.351 187.476L137.052 192.307C140.803 194.607 142.127 190.727 142.32 188.499C140.65 181.022 137.124 165.603 136.388 163.744C135.651 161.885 131.864 161.556 130.062 161.624L121.561 171.66" stroke="#68D23A" stroke-width="3"/>
<path d="M150.67 182.167C148.004 181.459 141.927 177.733 142.573 175.301C143.22 172.869 150.344 172.651 153.01 173.359C155.675 174.067 157.312 176.613 156.666 179.045C156.02 181.477 153.335 182.875 150.67 182.167Z" fill="#64BBC2"/>
<path d="M167.896 187.345C165.231 186.636 159.154 182.911 159.8 180.479C160.446 178.047 167.571 177.829 170.236 178.537C172.902 179.245 174.539 181.791 173.893 184.223C173.246 186.655 170.562 188.053 167.896 187.345Z" fill="#64BBC2"/>
<path d="M183.592 198.41C181.2 197.036 176.295 191.865 177.548 189.683C178.802 187.501 185.74 189.134 188.131 190.508C190.523 191.882 191.445 194.765 190.192 196.947C188.938 199.129 185.983 199.784 183.592 198.41Z" fill="#64BBC2"/>
<path d="M189.804 214.33C189.084 211.667 189.272 204.542 191.701 203.885C194.131 203.229 197.882 209.29 198.602 211.952C199.321 214.615 197.935 217.305 195.505 217.962C193.076 218.618 190.523 216.992 189.804 214.33Z" fill="#64BBC2"/>
<rect x="-0.580174" y="-0.404226" width="40.8362" height="15.8954" rx="7.9477" transform="matrix(-0.175948 -0.9844 -0.9844 0.175948 94.7187 98.2916)" fill="#923A5F" stroke="white"/>
<rect x="-0.580174" y="-0.404226" width="35.2044" height="15.8954" rx="7.9477" transform="matrix(-0.175948 -0.9844 -0.9844 0.175948 108.41 92.5762)" fill="#923A5F" stroke="white"/>
<path d="M84.924 23.8754C84.3045 21.6178 69.0101 15.0576 69.3096 13.2098L59.5781 14.9492C60.0262 15.9457 45.4259 27.2751 45.8051 33.0207C46.2791 40.2026 46.1084 48.3071 45.7045 55.1076C45.3815 60.5481 49.9877 66.9914 52.3312 69.533C56.2712 62.5848 62.9962 63.7692 65.8662 65.2298C67.6229 62.9781 72.0032 63.3255 73.9738 63.7807C78.2637 61.2399 85.578 61.7828 89.5162 62.5057C89.8693 62.5896 90.2031 62.6567 90.5152 62.7081L74.3933 66.1279C72.4659 66.921 68.8928 69.4795 70.0198 73.3689C71.1468 77.2583 74.8035 77.9862 76.491 77.864C83.2503 76.925 97.1444 75.0335 98.6463 74.9804C100.524 74.914 109.654 59.5563 110.169 54.8889C110.581 51.155 109.346 47.7693 108.677 46.5432C101.018 39.928 85.5434 26.1331 84.924 23.8754Z" fill="#923A5F"/>
<path d="M90.5152 62.7081L74.3933 66.128C72.4659 66.921 68.8928 69.4795 70.0198 73.3689C71.1468 77.2583 74.8035 77.9862 76.491 77.864C83.2503 76.925 97.1444 75.0335 98.6463 74.9804C100.524 74.914 109.654 59.5563 110.169 54.8889C110.581 51.155 109.346 47.7693 108.677 46.5432C101.018 39.928 85.5434 26.1331 84.924 23.8754C84.3045 21.6178 69.0101 15.0576 69.3096 13.2098L59.5781 14.9492C60.0262 15.9457 45.4259 27.2751 45.8051 33.0207C46.2791 40.2026 46.1084 48.3071 45.7045 55.1076C45.3815 60.5481 49.9877 66.9914 52.3312 69.533C56.2712 62.5848 62.9962 63.7692 65.8662 65.2298C67.6229 62.9781 72.0032 63.3255 73.9738 63.7807C78.6596 61.0054 86.9538 61.9093 90.5152 62.7081ZM90.5152 62.7081C89.4578 59.3087 88.5874 51.3184 93.5653 46.5532M90.5152 62.7081C84.7683 61.7616 71.6789 55.471 65.2961 37.8801" stroke="white"/>
</g>
<defs>
<clipPath id="clip0_88_931">
<rect width="250" height="250" fill="white"/>
</clipPath>
</defs>
</svg>
