<svg width="250" height="250" viewBox="0 0 250 250" fill="none" xmlns="http://www.w3.org/2000/svg">
<g clip-path="url(#clip0_89_347)">
<path d="M18 238H216" stroke="#923A5F" stroke-width="15" stroke-linecap="round"/>
<path d="M63.5425 208.496C63.0421 203.88 60.9602 201.716 59.9818 201.21C59.2601 200.933 57.6818 200.711 57.1429 202.042C56.4693 203.704 58.3458 204.34 59.2601 204.878C59.9915 205.308 59.5648 206.198 59.2601 206.589C58.6239 207.406 60.3361 208.205 61.0418 208.482C61.7636 208.775 61.0404 209.904 60.9937 210.046C60.8012 210.633 60.6651 211.293 61.4734 211.528C62.2818 211.763 62.3877 213.941 62.3395 215H63.3981C63.4098 214.656 63.4836 214.322 63.5906 214.012M63.5425 208.496C64.3123 206.377 66.4872 202.208 69.0278 202.482C72.2035 202.824 71.0487 205.807 69.0278 205.954C67.4111 206.071 67.6786 207.101 67.9692 207.812C68.1631 208.286 67.7671 208.946 65.804 209.572C65.4685 209.679 65.3819 209.88 65.6129 210.976C65.6129 211.269 65.4685 211.856 64.5048 212.457C64.2589 212.719 63.8368 213.3 63.5906 214.012M63.5425 208.496C63.6882 209.362 63.7189 212.532 63.5906 214.012" stroke="#7ED957"/>
<path d="M67.7371 215.489C68.0053 215.489 68.5044 216.771 68.7204 217.411L68.8755 219.622C68.9123 219.657 69.2643 219.975 69.4356 220.13L71 221.368L70.1954 227.092C70.0614 227.32 69.668 227.808 69.1674 227.932C68.6668 228.055 65.4128 227.983 63.8484 227.932C63.7143 227.703 63.5936 227.074 64.1837 226.385C66.0237 226.267 69.7172 225.85 69.7708 225.125C69.8245 224.4 69.5697 221.493 69.4356 220.13C69.2643 219.975 68.9123 219.657 68.8755 219.622L69.2568 225.058C68.2556 225.465 66.9325 225.375 66.3962 225.28L65.7257 219.401L65.3011 219.445L65.8375 225.478C64.4429 226.062 62.9917 225.972 62.4405 225.854L61.6806 219.865L61.2113 219.909L61.9041 225.722C61.0101 226.305 59.699 226.215 59.1552 226.097L58.1942 220.24L57.7249 220.263L58.5071 225.103C57.9171 225.686 56.8458 225.596 56.384 225.478C55.9891 223.88 55.1682 220.554 55.043 220.042C54.9179 219.529 55.0952 218.561 55.1995 218.141C55.6912 217.743 56.1605 217.699 56.3393 217.544C56.4823 217.42 56.9054 217.537 57.0991 217.61L57.3673 217.588C57.6355 217.699 58.373 216.373 58.3953 216.284C58.4177 216.196 60.0045 215.909 60.0492 215.975C60.0849 216.028 60.4663 216.174 60.6526 216.24C60.742 216.262 60.952 216.293 61.0772 216.24C61.2336 216.174 61.77 215.422 61.8147 215.268C61.8594 215.113 63.6249 214.98 63.7814 215.002C63.9378 215.025 64.72 216.019 65.0329 216.063C65.2832 216.099 65.7481 215.754 65.9492 215.577C66.2174 215.467 67.4019 215.489 67.7371 215.489Z" fill="#923A5F"/>
<path d="M178.075 165.496C177.61 160.88 175.677 158.716 174.769 158.21C174.099 157.933 172.633 157.711 172.133 159.042C171.507 160.704 173.25 161.34 174.099 161.878C174.778 162.308 174.382 163.198 174.099 163.589C173.508 164.406 175.098 165.205 175.753 165.482C176.423 165.775 175.752 166.904 175.708 167.046C175.53 167.633 175.403 168.293 176.154 168.528C176.905 168.763 177.003 170.941 176.958 172H177.941C177.952 171.656 178.02 171.322 178.12 171.012M178.075 165.496C178.79 163.377 180.81 159.208 183.169 159.482C186.118 159.824 185.045 162.807 183.169 162.954C181.667 163.071 181.916 164.101 182.186 164.812C182.366 165.286 181.998 165.946 180.175 166.572C179.864 166.679 179.783 166.88 179.998 167.976C179.998 168.269 179.864 168.856 178.969 169.457C178.74 169.719 178.348 170.3 178.12 171.012M178.075 165.496C178.21 166.362 178.239 169.532 178.12 171.012" stroke="#7ED957"/>
<path d="M182.737 172.489C183.005 172.489 183.504 173.771 183.72 174.411L183.875 176.622C183.912 176.657 184.264 176.975 184.436 177.13L186 178.368L185.195 184.092C185.061 184.32 184.668 184.808 184.167 184.932C183.667 185.055 180.413 184.983 178.848 184.932C178.714 184.703 178.594 184.074 179.184 183.385C181.024 183.267 184.717 182.85 184.771 182.125C184.824 181.4 184.57 178.493 184.436 177.13C184.264 176.975 183.912 176.657 183.875 176.622L184.257 182.058C183.256 182.465 181.933 182.375 181.396 182.28L180.726 176.401L180.301 176.445L180.837 182.478C179.443 183.062 177.992 182.972 177.44 182.854L176.681 176.865L176.211 176.909L176.904 182.722C176.01 183.305 174.699 183.215 174.155 183.097L173.194 177.24L172.725 177.263L173.507 182.103C172.917 182.686 171.846 182.596 171.384 182.478C170.989 180.88 170.168 177.554 170.043 177.042C169.918 176.529 170.095 175.561 170.199 175.141C170.691 174.743 171.16 174.699 171.339 174.544C171.482 174.42 171.905 174.537 172.099 174.61L172.367 174.588C172.635 174.699 173.373 173.373 173.395 173.284C173.418 173.196 175.004 172.909 175.049 172.975C175.085 173.028 175.466 173.174 175.653 173.24C175.742 173.262 175.952 173.293 176.077 173.24C176.234 173.174 176.77 172.422 176.815 172.268C176.859 172.113 178.625 171.98 178.781 172.002C178.938 172.025 179.72 173.019 180.033 173.063C180.283 173.099 180.748 172.754 180.949 172.577C181.217 172.467 182.402 172.489 182.737 172.489Z" fill="#923A5F"/>
<path d="M91.3464 188.174C90.6315 181.909 87.6574 178.971 86.2598 178.285C85.2287 177.909 82.974 177.608 82.2042 179.413C81.2418 181.67 83.9226 182.533 85.2287 183.263C86.2736 183.847 85.6641 185.054 85.2287 185.585C84.3198 186.694 86.7659 187.778 87.774 188.154C88.8051 188.552 87.772 190.084 87.7053 190.277C87.4303 191.074 87.2358 191.97 88.3906 192.288C89.5454 192.607 89.6967 195.562 89.6279 197H91.1402C91.1568 196.534 91.2622 196.08 91.4151 195.659M91.3464 188.174C92.4462 185.298 95.5532 179.639 99.1825 180.011C103.719 180.475 102.07 184.524 99.1825 184.723C96.8729 184.882 97.2551 186.279 97.6703 187.244C97.9473 187.888 97.3816 188.784 94.5771 189.634C94.0979 189.779 93.9742 190.052 94.3041 191.538C94.3041 191.936 94.0979 192.733 92.7211 193.549C92.3698 193.904 91.7668 194.693 91.4151 195.659M91.3464 188.174C91.5546 189.348 91.5984 193.651 91.4151 195.659" stroke="#7ED957"/>
<path d="M96.5135 197.677C96.8823 197.677 97.5686 199.451 97.8656 200.339L98.0788 203.399C98.1295 203.448 98.6133 203.889 98.8489 204.103L101 205.817L99.8937 213.743C99.7094 214.059 99.1685 214.734 98.4802 214.905C97.7918 215.077 93.3176 214.977 91.1666 214.905C90.9822 214.589 90.8163 213.718 91.6275 212.763C94.1576 212.6 99.2361 212.023 99.3099 211.019C99.3836 210.015 99.0333 205.99 98.8489 204.103C98.6133 203.889 98.1295 203.448 98.0788 203.399L98.6031 210.927C97.2264 211.49 95.4072 211.366 94.6697 211.233L93.7479 203.093L93.164 203.154L93.9015 211.509C91.984 212.316 89.9886 212.192 89.2306 212.029L88.1858 203.736L87.5405 203.797L88.4931 211.845C87.2639 212.653 85.4611 212.529 84.7134 212.365L83.392 204.256L82.7467 204.287L83.8222 210.988C83.011 211.796 81.538 211.672 80.9029 211.509C80.3601 209.295 79.2313 204.691 79.0592 203.981C78.8871 203.271 79.1309 201.93 79.2743 201.349C79.9503 200.798 80.5957 200.737 80.8415 200.523C81.0382 200.351 81.62 200.512 81.8863 200.614L82.255 200.584C82.6238 200.737 83.6379 198.901 83.6686 198.778C83.6993 198.656 85.8811 198.258 85.9426 198.35C85.9917 198.423 86.5162 198.625 86.7723 198.717C86.8952 198.748 87.1841 198.79 87.3561 198.717C87.5712 198.625 88.3088 197.585 88.3702 197.371C88.4317 197.156 90.8593 196.973 91.0744 197.003C91.2895 197.034 92.365 198.411 92.7952 198.472C93.1394 198.521 93.7786 198.044 94.0552 197.799C94.4239 197.646 96.0526 197.677 96.5135 197.677Z" fill="#923A5F"/>
<path d="M147.085 98.9926C146.084 89.7603 141.92 85.431 139.964 84.4204C138.52 83.8662 135.364 83.4228 134.286 86.083C132.939 89.4082 136.692 90.6796 138.52 91.7554C139.983 92.616 139.13 94.396 138.52 95.1784C137.248 96.8118 140.672 98.4092 142.084 98.9634C143.527 99.5502 142.081 101.808 141.987 102.093C141.602 103.267 141.33 104.587 142.947 105.056C144.564 105.526 144.775 109.881 144.679 112H146.796C146.82 111.313 146.967 110.644 147.181 110.024M147.085 98.9926C148.625 94.7546 152.974 86.4155 158.056 86.9632C164.407 87.6478 162.097 93.6136 158.056 93.907C154.822 94.1417 155.357 96.2013 155.938 97.6234C156.326 98.5722 155.534 99.8924 151.608 101.144C150.937 101.358 150.764 101.76 151.226 103.951C151.226 104.538 150.937 105.712 149.01 106.914C148.518 107.437 147.674 108.6 147.181 110.024M147.085 98.9926C147.376 100.724 147.438 107.064 147.181 110.024" stroke="#7ED957"/>
<path d="M155.27 113.015C155.823 113.015 156.853 115.677 157.298 117.008L157.618 121.599C157.694 121.672 158.42 122.333 158.773 122.654L162 125.225L160.341 137.114C160.064 137.588 159.253 138.601 158.22 138.858C157.188 139.115 150.476 138.965 147.25 138.858C146.973 138.384 146.724 137.077 147.941 135.645C151.736 135.4 159.354 134.534 159.465 133.028C159.575 131.523 159.05 125.485 158.773 122.654C158.42 122.333 157.694 121.672 157.618 121.599L158.405 132.891C156.34 133.735 153.611 133.549 152.505 133.35L151.122 121.14L150.246 121.231L151.352 133.763C148.476 134.975 145.483 134.788 144.346 134.543L142.779 122.104L141.811 122.195L143.24 134.268C141.396 135.48 138.692 135.293 137.57 135.048L135.588 122.884L134.62 122.93L136.233 132.983C135.016 134.194 132.807 134.008 131.854 133.763C131.04 130.443 129.347 123.536 129.089 122.471C128.831 121.406 129.196 119.395 129.411 118.523C130.426 117.697 131.393 117.605 131.762 117.284C132.057 117.027 132.93 117.269 133.329 117.422L133.883 117.376C134.436 117.605 135.957 114.851 136.003 114.667C136.049 114.484 139.322 113.887 139.414 114.025C139.488 114.135 140.274 114.438 140.658 114.576C140.843 114.621 141.276 114.686 141.534 114.576C141.857 114.438 142.963 112.877 143.055 112.556C143.148 112.235 146.789 111.959 147.112 112.005C147.434 112.051 149.048 114.117 149.693 114.208C150.209 114.282 151.168 113.566 151.583 113.198C152.136 112.969 154.579 113.015 155.27 113.015Z" fill="#923A5F"/>
<path d="M207.552 183.993C206.516 174.76 202.203 170.431 200.177 169.42C198.682 168.866 195.412 168.423 194.296 171.083C192.901 174.408 196.788 175.68 198.682 176.755C200.197 177.616 199.313 179.396 198.682 180.178C197.364 181.812 200.91 183.409 202.372 183.963C203.867 184.55 202.369 186.808 202.273 187.093C201.874 188.267 201.592 189.587 203.266 190.056C204.941 190.526 205.16 194.881 205.06 197H207.253C207.277 196.313 207.43 195.644 207.652 195.024M207.552 183.993C209.147 179.755 213.652 171.416 218.915 171.963C225.493 172.648 223.101 178.614 218.915 178.907C215.566 179.142 216.12 181.201 216.722 182.623C217.124 183.572 216.303 184.892 212.237 186.144C211.542 186.358 211.363 186.76 211.841 188.951C211.841 189.538 211.542 190.712 209.546 191.914C209.036 192.437 208.162 193.6 207.652 195.024M207.552 183.993C207.854 185.724 207.918 192.064 207.652 195.024" stroke="#7ED957"/>
<path d="M216.27 197.015C216.823 197.015 217.853 199.677 218.298 201.008L218.618 205.599C218.694 205.672 219.42 206.333 219.773 206.654L223 209.225L221.341 221.114C221.064 221.588 220.253 222.601 219.22 222.858C218.188 223.115 211.476 222.965 208.25 222.858C207.973 222.384 207.724 221.077 208.941 219.645C212.736 219.4 220.354 218.534 220.465 217.028C220.575 215.523 220.05 209.485 219.773 206.654C219.42 206.333 218.694 205.672 218.618 205.599L219.405 216.891C217.34 217.735 214.611 217.549 213.505 217.35L212.122 205.14L211.246 205.231L212.352 217.763C209.476 218.975 206.483 218.788 205.346 218.543L203.779 206.104L202.811 206.195L204.24 218.268C202.396 219.48 199.692 219.293 198.57 219.048L196.588 206.884L195.62 206.93L197.233 216.983C196.016 218.194 193.807 218.008 192.854 217.763C192.04 214.443 190.347 207.536 190.089 206.471C189.831 205.406 190.196 203.395 190.411 202.523C191.426 201.697 192.393 201.605 192.762 201.284C193.057 201.027 193.93 201.269 194.329 201.422L194.883 201.376C195.436 201.605 196.957 198.851 197.003 198.667C197.049 198.484 200.322 197.887 200.414 198.025C200.488 198.135 201.274 198.438 201.658 198.576C201.843 198.621 202.276 198.686 202.534 198.576C202.857 198.438 203.963 196.877 204.055 196.556C204.148 196.235 207.789 195.959 208.112 196.005C208.434 196.051 210.048 198.117 210.693 198.208C211.209 198.282 212.168 197.566 212.583 197.198C213.136 196.969 215.579 197.015 216.27 197.015Z" fill="#923A5F"/>
<path d="M52.2908 54.8117C50.9683 42.6118 45.4662 36.891 42.8805 35.5555C40.973 34.8232 36.8019 34.2373 35.3777 37.7525C33.5974 42.1466 38.5568 43.8266 40.9731 45.2482C42.9061 46.3855 41.7785 48.7376 40.9731 49.7715C39.2916 51.9299 43.8168 54.0407 45.6819 54.7731C47.5894 55.5485 45.6782 58.5323 45.5548 58.9086C45.0461 60.4594 44.6863 62.2039 46.8227 62.8243C48.9591 63.4446 49.2388 69.1999 49.1116 72H51.9093C51.9401 71.0916 52.1351 70.2077 52.418 69.3894M52.2908 54.8117C54.3255 49.2115 60.0733 38.192 66.7877 38.9157C75.1806 39.8203 72.1287 47.7037 66.7877 48.0914C62.5149 48.4016 63.222 51.1231 63.9901 53.0024C64.5024 54.2561 63.456 56.0006 58.2676 57.6549C57.3812 57.9375 57.1523 58.4692 57.7627 61.3641C57.7627 62.1395 57.3812 63.6903 54.8341 65.2798C54.1841 65.9704 53.0687 67.5066 52.418 69.3894M52.2908 54.8117C52.676 57.0993 52.7571 65.4778 52.418 69.3894" stroke="#7ED957" stroke-width="2"/>
<path d="M62.4349 72.3156C63.1389 72.3156 64.4491 75.7668 65.0162 77.4924L65.4231 83.4427C65.5199 83.5379 66.4437 84.3948 66.8934 84.8113L71 88.1435L68.8881 103.555C68.5361 104.17 67.5035 105.483 66.1894 105.816C64.8753 106.149 56.3337 105.955 52.2271 105.816C51.8751 105.201 51.5583 103.507 53.1071 101.651C57.9372 101.333 67.6326 100.211 67.7734 98.2591C67.9142 96.3074 67.2454 88.4807 66.8934 84.8113C66.4437 84.3948 65.5199 83.5379 65.4231 83.4427L66.4241 98.0805C63.7959 99.1754 60.3229 98.9334 58.9149 98.6756L57.155 82.8477L56.0403 82.9667L57.4483 99.2111C53.7876 100.782 49.9783 100.54 48.5312 100.223L46.5366 84.0973L45.3046 84.2163L47.1232 99.8657C44.7766 101.437 41.3349 101.195 39.9074 100.877L37.3848 85.1088L36.1528 85.1683L38.2061 98.1996C36.6573 99.7705 33.8453 99.5285 32.6329 99.2111C31.5965 94.9071 29.4415 85.9538 29.113 84.5733C28.7845 83.1928 29.2499 80.5866 29.5237 79.456C30.8143 78.3849 32.0463 78.2659 32.5156 77.8494C32.891 77.5162 34.0018 77.8296 34.5102 78.0279L35.2142 77.9684C35.9182 78.2659 37.8541 74.6957 37.9128 74.4577C37.9715 74.2197 42.1367 73.4461 42.254 73.6247C42.3479 73.7675 43.3491 74.1602 43.838 74.3387C44.0726 74.3982 44.6241 74.4815 44.9526 74.3387C45.3633 74.1602 46.7712 72.1371 46.8886 71.7206C47.0059 71.304 51.6405 70.947 52.0511 71.0065C52.4618 71.066 54.5151 73.7437 55.3364 73.8627C55.9934 73.9579 57.2137 73.0296 57.7417 72.5536C58.4456 72.2561 61.5549 72.3156 62.4349 72.3156Z" fill="#923A5F"/>
<path d="M35.5425 190.496C35.0421 185.88 32.9602 183.716 31.9818 183.21C31.2601 182.933 29.6818 182.711 29.1429 184.042C28.4693 185.704 30.3458 186.34 31.2601 186.878C31.9915 187.308 31.5648 188.198 31.2601 188.589C30.6239 189.406 32.3361 190.205 33.0418 190.482C33.7636 190.775 33.0404 191.904 32.9937 192.046C32.8012 192.633 32.6651 193.293 33.4734 193.528C34.2818 193.763 34.3877 195.941 34.3395 197H35.3981C35.4098 196.656 35.4836 196.322 35.5906 196.012M35.5425 190.496C36.3123 188.377 38.4872 184.208 41.0278 184.482C44.2035 184.824 43.0487 187.807 41.0278 187.954C39.4111 188.071 39.6786 189.101 39.9692 189.812C40.1631 190.286 39.7671 190.946 37.804 191.572C37.4685 191.679 37.3819 191.88 37.6129 192.976C37.6129 193.269 37.4685 193.856 36.5048 194.457C36.2589 194.719 35.8368 195.3 35.5906 196.012M35.5425 190.496C35.6882 191.362 35.7189 194.532 35.5906 196.012" stroke="#7ED957"/>
<path d="M39.7371 197.489C40.0053 197.489 40.5044 198.771 40.7204 199.411L40.8755 201.622C40.9123 201.657 41.2643 201.975 41.4356 202.13L43 203.368L42.1954 209.092C42.0614 209.32 41.668 209.808 41.1674 209.932C40.6668 210.055 37.4128 209.983 35.8484 209.932C35.7143 209.703 35.5936 209.074 36.1837 208.385C38.0237 208.267 41.7172 207.85 41.7708 207.125C41.8245 206.4 41.5697 203.493 41.4356 202.13C41.2643 201.975 40.9123 201.657 40.8755 201.622L41.2568 207.058C40.2556 207.465 38.9325 207.375 38.3962 207.28L37.7257 201.401L37.3011 201.445L37.8375 207.478C36.4429 208.062 34.9917 207.972 34.4405 207.854L33.6806 201.865L33.2113 201.909L33.9041 207.722C33.0101 208.305 31.699 208.215 31.1552 208.097L30.1942 202.24L29.7249 202.263L30.5071 207.103C29.9171 207.686 28.8458 207.596 28.384 207.478C27.9891 205.88 27.1682 202.554 27.043 202.042C26.9179 201.529 27.0952 200.561 27.1995 200.141C27.6912 199.743 28.1605 199.699 28.3393 199.544C28.4823 199.42 28.9054 199.537 29.0991 199.61L29.3673 199.588C29.6355 199.699 30.373 198.373 30.3953 198.284C30.4177 198.196 32.0045 197.909 32.0492 197.975C32.0849 198.028 32.4663 198.174 32.6526 198.24C32.742 198.262 32.952 198.293 33.0772 198.24C33.2336 198.174 33.77 197.422 33.8147 197.268C33.8594 197.113 35.6249 196.98 35.7814 197.002C35.9378 197.025 36.72 198.019 37.0329 198.063C37.2832 198.099 37.7481 197.754 37.9492 197.577C38.2174 197.467 39.4019 197.489 39.7371 197.489Z" fill="#923A5F"/>
<path d="M212.758 75.3471C211.4 62.8175 205.749 56.9421 203.094 55.5706C201.134 54.8184 196.851 54.2167 195.388 57.8269C193.559 62.3397 198.653 64.0652 201.135 65.5252C203.12 66.6932 201.962 69.1089 201.135 70.1707C199.408 72.3874 204.055 74.5553 205.971 75.3075C207.93 76.1038 205.967 79.1683 205.84 79.5548C205.318 81.1475 204.948 82.9392 207.142 83.5763C209.336 84.2134 209.624 90.1242 209.493 93H212.366C212.398 92.0671 212.598 91.1593 212.889 90.3188M212.758 75.3471C214.848 69.5955 220.751 58.2782 227.647 59.0215C236.267 59.9506 233.132 68.0471 227.647 68.4452C223.259 68.7638 223.985 71.5589 224.774 73.4889C225.3 74.7766 224.225 76.5682 218.896 78.2672C217.986 78.5574 217.751 79.1035 218.378 82.0766C218.378 82.873 217.986 84.4657 215.37 86.0981C214.703 86.8074 213.557 88.3851 212.889 90.3188M212.758 75.3471C213.154 77.6966 213.237 86.3016 212.889 90.3188" stroke="#7ED957" stroke-width="2"/>
<path d="M223.231 93.3532C223.952 93.3532 225.293 96.903 225.874 98.6779L226.29 104.798C226.389 104.896 227.335 105.777 227.796 106.206L232 109.633L229.838 125.485C229.477 126.117 228.42 127.468 227.075 127.811C225.73 128.153 216.984 127.954 212.78 127.811C212.42 127.178 212.095 125.436 213.681 123.527C218.626 123.2 228.552 122.045 228.697 120.038C228.841 118.03 228.156 109.98 227.796 106.206C227.335 105.777 226.389 104.896 226.29 104.798L227.315 119.854C224.624 120.98 221.069 120.732 219.627 120.466L217.825 104.186L216.684 104.309L218.126 121.017C214.378 122.633 210.478 122.384 208.996 122.058L206.954 105.471L205.693 105.594L207.555 121.69C205.152 123.306 201.629 123.057 200.167 122.731L197.584 106.512L196.323 106.573L198.425 119.977C196.84 121.592 193.961 121.344 192.719 121.017C191.658 116.59 189.452 107.381 189.116 105.961C188.779 104.541 189.256 101.86 189.536 100.698C190.857 99.5959 192.119 99.4735 192.599 99.0451C192.984 98.7024 194.121 99.0247 194.641 99.2287L195.362 99.1675C196.083 99.4735 198.065 95.8013 198.125 95.5565C198.185 95.3117 202.449 94.516 202.57 94.6996C202.666 94.8465 203.691 95.2505 204.191 95.4341C204.432 95.4953 204.996 95.581 205.332 95.4341C205.753 95.2505 207.194 93.1696 207.314 92.7411C207.435 92.3127 212.18 91.9455 212.6 92.0067C213.02 92.0679 215.123 94.8221 215.963 94.9445C216.636 95.0424 217.885 94.0876 218.426 93.598C219.147 93.2919 222.33 93.3532 223.231 93.3532Z" fill="#923A5F"/>
<path d="M58.8791 155.174C58.1999 148.909 55.3746 145.971 54.0468 145.285C53.0672 144.909 50.9253 144.608 50.1939 146.413C49.2797 148.67 51.8265 149.533 53.0673 150.263C54.0599 150.847 53.4809 152.054 53.0673 152.585C52.2038 153.694 54.5276 154.778 55.4853 155.154C56.4648 155.552 55.4834 157.084 55.42 157.277C55.1588 158.074 54.974 158.97 56.0711 159.288C57.1682 159.607 57.3118 162.562 57.2465 164H58.6832C58.699 163.534 58.7991 163.08 58.9444 162.659M58.8791 155.174C59.9239 152.298 62.8755 146.639 66.3234 147.011C70.6333 147.475 69.0661 151.524 66.3234 151.723C64.1293 151.882 64.4924 153.279 64.8868 154.244C65.1499 154.888 64.6125 155.784 61.9482 156.634C61.493 156.779 61.3755 157.052 61.6889 158.538C61.6889 158.936 61.493 159.733 60.1851 160.549C59.8513 160.904 59.2785 161.693 58.9444 162.659M58.8791 155.174C59.0769 156.348 59.1185 160.651 58.9444 162.659" stroke="#7ED957"/>
<path d="M64.3096 163.677C64.6951 163.677 65.4126 165.451 65.7231 166.339L65.946 169.399C65.999 169.448 66.5049 169.889 66.7512 170.103L69 171.817L67.8435 179.743C67.6507 180.059 67.0853 180.734 66.3657 180.905C65.646 181.077 60.9684 180.977 58.7196 180.905C58.5268 180.589 58.3534 179.718 59.2015 178.763C61.8466 178.6 67.156 178.023 67.2331 177.019C67.3102 176.015 66.9439 171.99 66.7512 170.103C66.5049 169.889 65.999 169.448 65.946 169.399L66.4942 176.927C65.0549 177.49 63.153 177.366 62.382 177.233L61.4182 169.093L60.8078 169.154L61.5788 177.509C59.5742 178.316 57.4881 178.192 56.6957 178.029L55.6034 169.736L54.9287 169.797L55.9246 177.845C54.6396 178.653 52.7548 178.529 51.9731 178.365L50.5917 170.256L49.917 170.287L51.0414 176.988C50.1933 177.796 48.6534 177.672 47.9894 177.509C47.4219 175.295 46.2418 170.691 46.0619 169.981C45.882 169.271 46.1368 167.93 46.2868 167.349C46.9935 166.798 47.6682 166.737 47.9252 166.523C48.1308 166.351 48.7391 166.512 49.0175 166.614L49.403 166.584C49.7885 166.737 50.8487 164.901 50.8808 164.778C50.9129 164.656 53.1939 164.258 53.2582 164.35C53.3096 164.423 53.8578 164.625 54.1256 164.717C54.2541 164.748 54.5561 164.79 54.736 164.717C54.9608 164.625 55.7319 163.585 55.7961 163.371C55.8604 163.156 58.3984 162.973 58.6232 163.003C58.8481 163.034 59.9725 164.411 60.4223 164.472C60.7821 164.521 61.4503 164.044 61.7395 163.799C62.125 163.646 63.8277 163.677 64.3096 163.677Z" fill="#923A5F"/>
<path d="M100.552 101.993C99.5157 92.7603 95.2033 88.431 93.1766 87.4204C91.6816 86.8662 88.4123 86.4228 87.296 89.083C85.9006 92.4082 89.7878 93.6796 91.6816 94.7554C93.1967 95.616 92.3129 97.396 91.6816 98.1784C90.3637 99.8118 93.9105 101.409 95.3723 101.963C96.8674 102.55 95.3694 104.808 95.2726 105.093C94.874 106.267 94.592 107.587 96.2664 108.056C97.9409 108.526 98.1602 112.881 98.0605 115H100.253C100.277 114.313 100.43 113.644 100.652 113.024M100.552 101.993C102.147 97.7546 106.652 89.4155 111.915 89.9632C118.493 90.6478 116.101 96.6136 111.915 96.907C108.566 97.1417 109.12 99.2013 109.722 100.623C110.124 101.572 109.303 102.892 105.237 104.144C104.542 104.358 104.363 104.76 104.841 106.951C104.841 107.538 104.542 108.712 102.546 109.914C102.036 110.437 101.162 111.6 100.652 113.024M100.552 101.993C100.854 103.724 100.918 110.064 100.652 113.024" stroke="#7ED957"/>
<path d="M108.474 115.015C109.011 115.015 110.009 117.677 110.441 119.008L110.751 123.599C110.825 123.672 111.529 124.333 111.871 124.654L115 127.225L113.391 139.114C113.123 139.588 112.336 140.601 111.335 140.858C110.334 141.115 103.826 140.965 100.697 140.858C100.429 140.384 100.187 139.077 101.367 137.645C105.047 137.4 112.434 136.534 112.542 135.028C112.649 133.523 112.139 127.485 111.871 124.654C111.529 124.333 110.825 123.672 110.751 123.599L111.514 134.891C109.511 135.735 106.865 135.549 105.792 135.35L104.451 123.14L103.602 123.231L104.675 135.763C101.886 136.975 98.9834 136.788 97.8809 136.543L96.3612 124.104L95.4226 124.195L96.8082 136.268C95.0203 137.48 92.398 137.293 91.3104 137.048L89.3884 124.884L88.4498 124.93L90.0142 134.983C88.8342 136.194 86.6917 136.008 85.7679 135.763C84.9783 132.443 83.3364 125.536 83.0861 124.471C82.8358 123.406 83.1904 121.395 83.399 120.523C84.3823 119.697 85.321 119.605 85.6785 119.284C85.9646 119.027 86.8109 119.269 87.1982 119.422L87.7346 119.376C88.271 119.605 89.746 116.851 89.7907 116.667C89.8354 116.484 93.0089 115.887 93.0983 116.025C93.1698 116.135 93.9327 116.438 94.3051 116.576C94.4839 116.621 94.9041 116.686 95.1544 116.576C95.4673 116.438 96.54 114.877 96.6294 114.556C96.7188 114.235 100.25 113.959 100.563 114.005C100.876 114.051 102.44 116.117 103.066 116.208C103.566 116.282 104.496 115.566 104.898 115.198C105.435 114.969 107.804 115.015 108.474 115.015Z" fill="#923A5F"/>
<path d="M133.291 173.812C131.968 161.612 126.466 155.891 123.881 154.556C121.973 153.823 117.802 153.237 116.378 156.753C114.597 161.147 119.557 162.827 121.973 164.248C123.906 165.385 122.779 167.738 121.973 168.771C120.292 170.93 124.817 173.041 126.682 173.773C128.589 174.548 126.678 177.532 126.555 177.909C126.046 179.459 125.686 181.204 127.823 181.824C129.959 182.445 130.239 188.2 130.112 191H132.909C132.94 190.092 133.135 189.208 133.418 188.389M133.291 173.812C135.325 168.211 141.073 157.192 147.788 157.916C156.181 158.82 153.129 166.704 147.788 167.091C143.515 167.402 144.222 170.123 144.99 172.002C145.502 173.256 144.456 175.001 139.268 176.655C138.381 176.937 138.152 177.469 138.763 180.364C138.763 181.139 138.381 182.69 135.834 184.28C135.184 184.97 134.069 186.507 133.418 188.389M133.291 173.812C133.676 176.099 133.757 184.478 133.418 188.389" stroke="#7ED957" stroke-width="2"/>
<path d="M143.435 191.316C144.139 191.316 145.449 194.767 146.016 196.492L146.423 202.443C146.52 202.538 147.444 203.395 147.893 203.811L152 207.143L149.888 222.555C149.536 223.17 148.504 224.483 147.189 224.816C145.875 225.149 137.334 224.955 133.227 224.816C132.875 224.201 132.558 222.507 134.107 220.651C138.937 220.333 148.633 219.211 148.773 217.259C148.914 215.307 148.245 207.481 147.893 203.811C147.444 203.395 146.52 202.538 146.423 202.443L147.424 217.081C144.796 218.175 141.323 217.933 139.915 217.676L138.155 201.848L137.04 201.967L138.448 218.211C134.788 219.782 130.978 219.54 129.531 219.223L127.537 203.097L126.305 203.216L128.123 218.866C125.777 220.437 122.335 220.195 120.907 219.877L118.385 204.109L117.153 204.168L119.206 217.2C117.657 218.77 114.845 218.528 113.633 218.211C112.596 213.907 110.442 204.954 110.113 203.573C109.784 202.193 110.25 199.587 110.524 198.456C111.814 197.385 113.046 197.266 113.516 196.849C113.891 196.516 115.002 196.83 115.51 197.028L116.214 196.968C116.918 197.266 118.854 193.696 118.913 193.458C118.971 193.22 123.137 192.446 123.254 192.625C123.348 192.767 124.349 193.16 124.838 193.339C125.073 193.398 125.624 193.482 125.953 193.339C126.363 193.16 127.771 191.137 127.889 190.721C128.006 190.304 132.64 189.947 133.051 190.007C133.462 190.066 135.515 192.744 136.336 192.863C136.993 192.958 138.214 192.03 138.742 191.554C139.446 191.256 142.555 191.316 143.435 191.316Z" fill="#923A5F"/>
<path d="M163.758 31.3471C162.4 18.8175 156.749 12.9421 154.094 11.5706C152.134 10.8184 147.851 10.2167 146.388 13.8269C144.559 18.3397 149.653 20.0652 152.135 21.5252C154.12 22.6932 152.962 25.1089 152.135 26.1707C150.408 28.3874 155.055 30.5553 156.971 31.3075C158.93 32.1038 156.967 35.1683 156.84 35.5548C156.318 37.1475 155.948 38.9392 158.142 39.5763C160.336 40.2134 160.624 46.1242 160.493 49H163.366C163.398 48.0671 163.598 47.1593 163.889 46.3188M163.758 31.3471C165.848 25.5955 171.751 14.2782 178.647 15.0215C187.267 15.9506 184.132 24.0471 178.647 24.4452C174.259 24.7638 174.985 27.5589 175.774 29.4889C176.3 30.7766 175.225 32.5682 169.896 34.2672C168.986 34.5574 168.751 35.1035 169.378 38.0766C169.378 38.873 168.986 40.4657 166.37 42.0981C165.703 42.8074 164.557 44.3851 163.889 46.3188M163.758 31.3471C164.154 33.6966 164.237 42.3016 163.889 46.3188" stroke="#7ED957" stroke-width="2"/>
<path d="M175.027 49.3532C175.765 49.3532 177.137 52.903 177.731 54.6779L178.158 60.7982C178.259 60.8962 179.227 61.7775 179.698 62.2059L184 65.6333L181.787 81.485C181.419 82.1175 180.337 83.468 178.96 83.8108C177.584 84.1535 168.635 83.9536 164.333 83.8108C163.964 83.1783 163.633 81.4361 165.255 79.5265C170.315 79.2001 180.472 78.0454 180.62 76.0379C180.767 74.0304 180.067 65.9801 179.698 62.2059C179.227 61.7775 178.259 60.8962 178.158 60.7982L179.206 75.8543C176.453 76.9804 172.814 76.7315 171.339 76.4663L169.496 60.1862L168.328 60.3086L169.803 77.0172C165.968 78.6329 161.977 78.384 160.461 78.0576L158.372 61.4715L157.081 61.5939L158.986 77.6904C156.528 79.3062 152.922 79.0573 151.427 78.7309L148.784 62.5119L147.493 62.5731L149.644 75.9767C148.022 77.5925 145.076 77.3436 143.806 77.0172C142.72 72.5901 140.463 63.381 140.118 61.9611C139.774 60.5412 140.262 57.8605 140.549 56.6976C141.901 55.5959 143.191 55.4735 143.683 55.0451C144.076 54.7024 145.24 55.0247 145.773 55.2287L146.51 55.1675C147.248 55.4735 149.276 51.8013 149.337 51.5565C149.399 51.3117 153.762 50.516 153.885 50.6996C153.983 50.8465 155.032 51.2505 155.545 51.4341C155.79 51.4953 156.368 51.581 156.712 51.4341C157.142 51.2505 158.618 49.1696 158.74 48.7411C158.863 48.3127 163.719 47.9455 164.149 48.0067C164.579 48.0679 166.73 50.8221 167.59 50.9445C168.279 51.0424 169.557 50.0876 170.11 49.598C170.848 49.2919 174.105 49.3532 175.027 49.3532Z" fill="#923A5F"/>
<path d="M17 66V238" stroke="#923A5F" stroke-width="15" stroke-linecap="round"/>
<path d="M21.771 152.657L230.52 152.107" stroke="#7ED957" stroke-opacity="0.7" stroke-width="10"/>
</g>
<defs>
<clipPath id="clip0_89_347">
<rect width="250" height="250" fill="white"/>
</clipPath>
</defs>
</svg>
