<svg width="250" height="250" viewBox="0 0 250 250" fill="none" xmlns="http://www.w3.org/2000/svg">
<g clip-path="url(#clip0_89_45)">
<path d="M108.287 173.216C113.478 155.975 109.862 137.198 113.91 135.964C116.827 135.419 120.697 138.473 121.774 143.924C123.121 150.738 120.608 153.513 116.778 154.916C113.715 156.039 124.917 167.271 125.785 168.978C127.597 172.541 120.575 174.374 117.718 174.93C114.789 175.538 116.704 180.353 116.778 180.929C117.083 183.302 117.123 185.915 113.91 186.237C110.697 186.56 107.948 214.144 107.37 218.217L105.769 211.247L104.173 198.109C104.375 196.791 104.337 195.464 104.156 194.207M108.287 173.216C106.905 164.594 108.764 136.719 98.9978 135.964C86.7898 135.021 91.2047 145.974 98.7124 147.963C104.719 149.555 93.706 164.969 92.1021 167.474C91.032 169.145 92.0509 171.941 98.9978 175.716C100.185 176.361 100.367 177.189 98.7124 181.201C98.5022 182.32 98.6258 184.659 101.825 187.633C102.565 188.803 103.738 191.318 104.156 194.207M108.287 173.216C107.118 176.412 104.732 188.475 104.156 194.207" stroke="#7ED957"/>
<rect x="-0.599265" y="0.375342" width="25.7126" height="9.78779" rx="4.8939" transform="matrix(-0.974607 -0.223923 -0.223923 0.974607 155.698 226.499)" fill="#923A5F" stroke="white"/>
<rect x="-0.599265" y="0.375342" width="23.6578" height="9.27409" rx="4.63704" transform="matrix(-0.974607 -0.223923 -0.223923 0.974607 150.589 239.556)" fill="#923A5F" stroke="white"/>
<rect x="-0.599265" y="0.375342" width="23.6578" height="9.27409" rx="4.63704" transform="matrix(-0.974607 -0.223923 -0.223923 0.974607 153.086 233.278)" fill="#923A5F" stroke="white"/>
<rect x="-0.599265" y="0.375342" width="22.1167" height="9.78779" rx="4.8939" transform="matrix(-0.974607 -0.223923 -0.223923 0.974607 155.766 217.027)" fill="#923A5F" stroke="white"/>
<path d="M109.831 214.165C108.35 213.964 100.669 221.307 99.6587 220.668L98.2453 226.82C98.9428 226.806 101.945 238.218 105.415 239.433C109.752 240.952 114.47 243.08 118.364 245.019C121.479 246.57 126.416 245.477 128.496 244.736C125.4 240.683 127.779 237.029 129.355 235.708C128.472 234.113 129.772 231.627 130.533 230.583C130.114 227.427 132.263 223.267 133.673 221.134C133.81 220.948 133.933 220.768 134.042 220.598L132.016 230.924C132 232.255 132.609 234.994 135.175 235.305C137.742 235.616 139.085 233.65 139.435 232.629C140.575 228.423 142.941 219.788 143.286 218.892C143.716 217.773 136.979 208.567 134.367 207.096C132.276 205.919 129.979 205.798 129.091 205.884C123.288 208.728 111.312 214.366 109.831 214.165Z" fill="#923A5F"/>
<path d="M134.042 220.598L132.016 230.924C132 232.255 132.609 234.994 135.175 235.305C137.742 235.616 139.085 233.65 139.435 232.629C140.575 228.423 142.941 219.788 143.286 218.892C143.716 217.773 136.979 208.567 134.367 207.096C132.276 205.919 129.979 205.798 129.091 205.884C123.288 208.728 111.312 214.366 109.831 214.165C108.35 213.964 100.669 221.307 99.6587 220.668L98.2453 226.82C98.9428 226.806 101.945 238.218 105.415 239.433C109.752 240.952 114.47 243.08 118.364 245.019C121.479 246.57 126.416 245.477 128.496 244.736C125.4 240.683 127.779 237.029 129.355 235.708C128.472 234.113 129.772 231.627 130.533 230.583C130.075 227.136 132.681 222.49 134.042 220.598ZM134.042 220.598C131.78 220.368 126.869 218.88 125.315 214.764M134.042 220.598C132.048 223.737 125.077 229.852 113.146 229.199" stroke="white"/>
<path d="M81.0345 37.282C73.9374 13.7098 61.0961 4.44369 55.5626 2.75714C51.5741 2.01149 43.2289 2.38343 41.7558 9.83639C39.9144 19.1526 50.2013 20.6496 55.4366 22.5681C59.6248 24.1029 58.2989 29.1537 57.1124 31.4873C54.6354 36.359 64.2357 38.8644 68.1415 39.6256C72.1459 40.4562 69.527 47.0397 69.4259 47.8269C69.0092 51.0711 68.9544 54.6428 73.3473 55.0838C77.7403 55.5248 81.4986 93.2372 82.2882 98.8051L84.4776 89.2759L86.6592 71.3146C86.3827 69.5121 86.4352 67.6978 86.6832 65.9806M81.0345 37.282C82.9246 25.4942 90.0429 1.66089 103.395 0.629595C120.086 -0.659526 117.059 16.0028 106.795 18.7228C98.5834 20.8988 100.97 26.0064 103.162 29.4308C104.625 31.7154 103.232 35.5385 93.7348 40.7001C92.1121 41.5819 91.8631 42.7142 94.1251 48.199C94.4124 49.728 94.2435 52.9257 89.869 56.9924C88.8582 58.5922 87.2536 62.0297 86.6832 65.9806M81.0345 37.282C82.6327 41.6518 85.8948 58.1434 86.6832 65.9806" stroke="#7ED957" stroke-width="4"/>
<path d="M147.053 96.3419C139.956 72.7698 144.9 47.0991 139.366 45.4125C135.378 44.6669 130.087 48.842 128.614 56.295C126.773 65.6112 130.209 69.4045 135.444 71.323C139.632 72.8578 124.317 88.2137 123.131 90.5472C120.654 95.4189 130.254 97.9244 134.16 98.6856C138.164 99.5162 135.545 106.1 135.444 106.887C135.027 110.131 134.972 113.703 139.365 114.144C143.758 114.585 147.517 152.297 148.306 157.865L150.496 148.336L152.677 130.375C152.401 128.572 152.453 126.758 152.701 125.041M147.053 96.3419C148.943 84.5542 146.401 46.4438 159.753 45.4125C176.443 44.1234 170.407 59.0971 160.143 61.8171C151.932 63.9931 166.988 85.0664 169.181 88.4908C170.644 90.7754 169.251 94.5985 159.753 99.76C158.13 100.642 157.881 101.774 160.143 107.259C160.43 108.788 160.262 111.986 155.887 116.052C154.876 117.652 153.272 121.09 152.701 125.041M147.053 96.3419C148.651 100.712 151.913 117.203 152.701 125.041" stroke="#7ED957" stroke-width="4"/>
<rect x="-1.19853" y="0.750684" width="46.4221" height="17.5551" rx="8.77754" transform="matrix(-0.974607 -0.223923 -0.223923 0.974607 186.678 98.3039)" fill="#923A5F" stroke="white" stroke-width="2"/>
<rect x="-1.19853" y="0.750684" width="42.6973" height="16.6239" rx="8.31195" transform="matrix(-0.974607 -0.223923 -0.223923 0.974607 177.417 121.973)" fill="#923A5F" stroke="white" stroke-width="2"/>
<rect x="-1.19853" y="0.750684" width="42.6973" height="16.6239" rx="8.31195" transform="matrix(-0.974607 -0.223923 -0.223923 0.974607 181.944 110.592)" fill="#923A5F" stroke="white" stroke-width="2"/>
<rect x="-1.19853" y="0.750684" width="39.9038" height="17.5551" rx="8.77754" transform="matrix(-0.974607 -0.223923 -0.223923 0.974607 186.801 81.1336)" fill="#923A5F" stroke="white" stroke-width="2"/>
<path d="M103.74 75.9692C101.055 75.6047 87.1323 88.9149 85.3006 87.7579L82.7385 98.9092C84.0028 98.8842 89.4441 119.57 95.7341 121.772C103.597 124.525 112.149 128.384 119.207 131.898C124.854 134.71 133.804 132.728 137.574 131.385C131.962 124.038 136.274 117.414 139.131 115.021C137.53 112.129 139.887 107.622 141.266 105.73C140.506 100.01 144.402 92.4677 146.958 88.6021C147.208 88.2641 147.431 87.9391 147.627 87.6301L143.955 106.348C143.926 108.761 145.029 113.726 149.682 114.29C154.335 114.854 156.769 111.291 157.404 109.438C159.47 101.815 163.758 86.162 164.383 84.5386C165.164 82.5094 152.952 65.8209 148.216 63.1551C144.427 61.0225 140.261 60.8017 138.652 60.9579C128.134 66.1135 106.425 76.3336 103.74 75.9692Z" fill="#923A5F"/>
<path d="M147.627 87.6301L143.955 106.348C143.926 108.761 145.029 113.726 149.682 114.29C154.335 114.854 156.769 111.291 157.404 109.438C159.47 101.815 163.758 86.162 164.383 84.5386C165.164 82.5094 152.952 65.8209 148.216 63.1551C144.427 61.0225 140.261 60.8017 138.652 60.9579C128.134 66.1135 106.425 76.3336 103.74 75.9692C101.055 75.6047 87.1323 88.9149 85.3006 87.7579L82.7385 98.9092C84.0028 98.8842 89.4441 119.57 95.7341 121.772C103.597 124.525 112.149 128.384 119.207 131.898C124.854 134.71 133.804 132.728 137.574 131.385C131.962 124.038 136.274 117.414 139.131 115.021C137.53 112.129 139.887 107.622 141.266 105.73C140.436 99.4819 145.161 91.06 147.627 87.6301ZM147.627 87.6301C143.527 87.214 134.624 84.5164 131.808 77.0543M147.627 87.6301C144.012 93.3202 131.376 104.405 109.75 103.222" stroke="white" stroke-width="2"/>
<rect x="81.93" y="170.11" width="34.5206" height="12.7487" rx="6.37435" transform="rotate(-12.9395 81.93 170.11)" fill="#923A5F" stroke="white" stroke-width="2"/>
<rect x="88.9144" y="187.961" width="31.7113" height="12.0464" rx="6.02319" transform="rotate(-12.9395 88.9144 187.961)" fill="#923A5F" stroke="white" stroke-width="2"/>
<rect x="85.5008" y="179.378" width="31.7113" height="12.0464" rx="6.02319" transform="rotate(-12.9395 85.5008 179.378)" fill="#923A5F" stroke="white" stroke-width="2"/>
<rect x="81.8362" y="157.159" width="29.6044" height="12.7487" rx="6.37435" transform="rotate(-12.9395 81.8362 157.159)" fill="#923A5F" stroke="white" stroke-width="2"/>
<path d="M144.941 152.326C146.967 152.051 157.468 162.09 158.849 161.217L160.781 169.627C159.828 169.609 155.724 185.21 150.98 186.871C145.05 188.948 138.6 191.857 133.276 194.508C129.017 196.629 122.267 195.134 119.424 194.121C123.656 188.58 120.404 183.584 118.249 181.779C119.457 179.598 117.679 176.199 116.639 174.772C117.212 170.458 114.274 164.769 112.346 161.854C112.158 161.599 111.99 161.354 111.842 161.121L114.611 175.238C114.633 177.057 113.801 180.802 110.292 181.228C106.783 181.653 104.947 178.966 104.468 177.569C102.909 171.819 99.6751 160.013 99.204 158.789C98.615 157.259 107.825 144.672 111.398 142.661C114.255 141.053 117.397 140.886 118.61 141.004C126.544 144.893 142.916 152.601 144.941 152.326Z" fill="#923A5F"/>
<path d="M111.842 161.121L114.611 175.238C114.633 177.057 113.801 180.802 110.292 181.228C106.783 181.653 104.947 178.966 104.468 177.569C102.909 171.819 99.6751 160.013 99.204 158.789C98.615 157.259 107.825 144.672 111.398 142.661C114.255 141.053 117.397 140.886 118.61 141.004C126.544 144.893 142.916 152.601 144.941 152.326C146.967 152.051 157.468 162.09 158.849 161.217L160.781 169.627C159.828 169.609 155.724 185.21 150.98 186.871C145.05 188.948 138.6 191.857 133.276 194.508C129.017 196.629 122.267 195.134 119.424 194.121C123.656 188.58 120.404 183.584 118.249 181.779C119.457 179.598 117.679 176.199 116.639 174.772C117.265 170.059 113.702 163.707 111.842 161.121ZM111.842 161.121C114.934 160.807 121.648 158.772 123.772 153.144M111.842 161.121C114.568 165.412 124.098 173.772 140.409 172.88" stroke="white" stroke-width="2"/>
</g>
<defs>
<clipPath id="clip0_89_45">
<rect width="250" height="250" fill="white"/>
</clipPath>
</defs>
</svg>
