<svg width="250" height="250" viewBox="0 0 250 250" fill="none" xmlns="http://www.w3.org/2000/svg">
<g clip-path="url(#clip0_31_1117)">
<path d="M98.8628 150.441L91.5843 148.491C97.0642 132.407 91.0665 124.949 87.5491 123.519L90.32 114.998C108.679 110.166 106.342 86.1368 101.769 79.5483L104.995 71.1489C124.634 66.2701 127.665 38.7059 126.526 27.1868L133.153 40.6641C134.802 62.1686 119.714 74.4429 111.387 78.225C119.951 101.582 106.152 117.778 97.4112 121.286C103.929 130.443 101.054 144.69 98.8628 150.441Z" fill="#7ED957"/>
<path d="M126.527 27.1867C104.428 58.7102 82.2118 139.803 73.8659 176.41L76.8632 181.601L67.4777 216.629L62.2861 219.626L49.0942 216.091L46.0969 210.9L55.4825 175.872L60.674 172.875C75.2053 96.808 106.581 31.2684 120.452 8.00688C125.431 5.4403 129.501 8.80641 130.915 10.8103L169.551 97.71L162.629 101.706L126.527 27.1867Z" fill="#7ED957"/>
<path d="M91.2354 162.537L94.3281 189.206L104.079 189.206" stroke="#7ED957" stroke-width="7" stroke-linecap="round"/>
<circle cx="91.3243" cy="164.024" r="11.5413" transform="rotate(15 91.3243 164.024)" stroke="#7ED957" stroke-width="8"/>
<circle cx="170.296" cy="107.661" r="7.36087" transform="rotate(15 170.296 107.661)" stroke="#7ED957" stroke-width="6"/>
<path d="M184.088 143.536L170.467 117.946L177.388 113.949L191.341 140.116C193.752 164.486 169.853 164.178 161.85 156.183L154.266 142.081L156.248 138.876L169.004 142.711C171.555 143.478 171.851 146.349 171.681 147.688L167.533 149.919L168.871 152.408C179.968 157.134 183.596 148.256 184.088 143.536Z" fill="#7ED957"/>
<path d="M150.412 196.923L150.412 185.621L150.412 176L171.412 176L171.412 185.621L171.412 238.004L160.912 249L150.412 238.004L155.37 232.812L155.37 225.944L151.578 219.067L155.37 215.096L155.37 205.916L150.412 196.923Z" fill="#FFD7E8" stroke="#923A5F" stroke-width="5"/>
<ellipse cx="161.412" cy="160.5" rx="22.5" ry="22" transform="rotate(90 161.412 160.5)" fill="#923A5F"/>
<ellipse cx="161.412" cy="148.5" rx="5.5" ry="5" transform="rotate(90 161.412 148.5)" fill="#FFD7E8"/>
<path d="M154.847 147.067L162.078 153.109L163.46 153.109L165.765 151.726L164.843 150.343L166.296 149.147L168.65 146.481C168.421 145.488 167.459 143.532 165.452 143.656L155.412 144.279L154.847 147.067Z" fill="#7ED957"/>
</g>
<defs>
<clipPath id="clip0_31_1117">
<rect width="250" height="250" fill="white"/>
</clipPath>
</defs>
</svg>
