<svg width="250" height="250" viewBox="0 0 250 250" fill="none" xmlns="http://www.w3.org/2000/svg">
<g clip-path="url(#clip0_31_1127)">
<path d="M51.8235 21.6699C50.5367 10.7889 45.1834 5.68654 42.6676 4.49548C40.8116 3.84232 36.7532 3.31978 35.3675 6.45497C33.6353 10.374 38.4607 11.8724 40.8117 13.1403C42.6924 14.1546 41.5953 16.2524 40.8117 17.1745C39.1756 19.0996 43.5785 20.9823 45.3932 21.6354C47.2491 22.327 45.3896 24.9883 45.2695 25.3239C44.7746 26.7071 44.4245 28.263 46.5031 28.8162C48.5818 29.3695 48.854 34.5026 48.7303 37H51.4523C51.4823 36.1898 51.672 35.4015 51.9472 34.6716M51.8235 21.6699C53.8031 16.6751 59.3957 6.84689 65.9286 7.49237C74.0947 8.29922 71.1252 15.3303 65.9286 15.6761C61.7713 15.9528 62.4593 18.3801 63.2065 20.0562C63.7051 21.1744 62.6869 22.7303 57.6387 24.2057C56.7763 24.4578 56.5536 24.932 57.1475 27.5139C57.1475 28.2055 56.7763 29.5887 54.2981 31.0063C53.6656 31.6222 52.5803 32.9923 51.9472 34.6716M51.8235 21.6699C52.1983 23.7102 52.2772 31.1829 51.9472 34.6716" stroke="#7ED957" stroke-width="4"/>
<path d="M133.004 110H107.615H86V63H107.615H225.297L250 86.5L225.297 110L213.632 98.9028H198.204L182.753 107.389L173.833 98.9028H153.209L133.004 110Z" fill="#FFD7E8" stroke="#923A5F" stroke-width="5"/>
<circle cx="50" cy="86" r="50" fill="#923A5F"/>
<circle cx="22" cy="85" r="12" fill="#FFD7E8"/>
<rect y="144" width="250" height="65" rx="20" fill="#923A5F"/>
<path d="M23.72 183.56L21.32 185.32L20.56 184.28L18.08 179.64L15.6 184.32L14.84 185.32L12.44 183.56L13.2 182.56L16.84 178.8L11.68 177.84L10.44 177.44L11.36 174.6L12.56 175.04L17.28 177.28L16.6 172.08V170.8H19.56V172.08L18.84 177.28L23.56 175L24.8 174.6L25.68 177.4L24.48 177.84L19.32 178.76L22.96 182.52L23.72 183.56ZM41.8919 183.56L39.4919 185.32L38.7319 184.28L36.2519 179.64L33.7719 184.32L33.0119 185.32L30.6119 183.56L31.3719 182.56L35.0119 178.8L29.8519 177.84L28.6119 177.44L29.5319 174.6L30.7319 175.04L35.4519 177.28L34.7719 172.08V170.8H37.7319V172.08L37.0119 177.28L41.7319 175L42.9719 174.6L43.8519 177.4L42.6519 177.84L37.4919 178.76L41.1319 182.52L41.8919 183.56ZM60.0638 183.56L57.6638 185.32L56.9037 184.28L54.4238 179.64L51.9438 184.32L51.1838 185.32L48.7838 183.56L49.5438 182.56L53.1838 178.8L48.0238 177.84L46.7838 177.44L47.7038 174.6L48.9038 175.04L53.6238 177.28L52.9438 172.08V170.8H55.9038V172.08L55.1838 177.28L59.9038 175L61.1438 174.6L62.0238 177.4L60.8238 177.84L55.6638 178.76L59.3038 182.52L60.0638 183.56ZM78.2356 183.56L75.8356 185.32L75.0756 184.28L72.5956 179.64L70.1156 184.32L69.3556 185.32L66.9556 183.56L67.7156 182.56L71.3556 178.8L66.1956 177.84L64.9556 177.44L65.8756 174.6L67.0756 175.04L71.7956 177.28L71.1156 172.08V170.8H74.0756V172.08L73.3556 177.28L78.0756 175L79.3156 174.6L80.1956 177.4L78.9956 177.84L73.8356 178.76L77.4756 182.52L78.2356 183.56ZM96.4075 183.56L94.0075 185.32L93.2475 184.28L90.7675 179.64L88.2875 184.32L87.5275 185.32L85.1275 183.56L85.8875 182.56L89.5275 178.8L84.3675 177.84L83.1275 177.44L84.0475 174.6L85.2475 175.04L89.9675 177.28L89.2875 172.08V170.8H92.2475V172.08L91.5275 177.28L96.2475 175L97.4875 174.6L98.3675 177.4L97.1675 177.84L92.0075 178.76L95.6475 182.52L96.4075 183.56ZM114.579 183.56L112.179 185.32L111.419 184.28L108.939 179.64L106.459 184.32L105.699 185.32L103.299 183.56L104.059 182.56L107.699 178.8L102.539 177.84L101.299 177.44L102.219 174.6L103.419 175.04L108.139 177.28L107.459 172.08V170.8H110.419V172.08L109.699 177.28L114.419 175L115.659 174.6L116.539 177.4L115.339 177.84L110.179 178.76L113.819 182.52L114.579 183.56ZM132.751 183.56L130.351 185.32L129.591 184.28L127.111 179.64L124.631 184.32L123.871 185.32L121.471 183.56L122.231 182.56L125.871 178.8L120.711 177.84L119.471 177.44L120.391 174.6L121.591 175.04L126.311 177.28L125.631 172.08V170.8H128.591V172.08L127.871 177.28L132.591 175L133.831 174.6L134.711 177.4L133.511 177.84L128.351 178.76L131.991 182.52L132.751 183.56ZM150.923 183.56L148.523 185.32L147.763 184.28L145.283 179.64L142.803 184.32L142.043 185.32L139.643 183.56L140.403 182.56L144.043 178.8L138.883 177.84L137.643 177.44L138.563 174.6L139.763 175.04L144.483 177.28L143.803 172.08V170.8H146.763V172.08L146.043 177.28L150.763 175L152.003 174.6L152.883 177.4L151.683 177.84L146.523 178.76L150.163 182.52L150.923 183.56ZM169.095 183.56L166.695 185.32L165.935 184.28L163.455 179.64L160.975 184.32L160.215 185.32L157.815 183.56L158.575 182.56L162.215 178.8L157.055 177.84L155.815 177.44L156.735 174.6L157.935 175.04L162.655 177.28L161.975 172.08V170.8H164.935V172.08L164.215 177.28L168.935 175L170.175 174.6L171.055 177.4L169.855 177.84L164.695 178.76L168.335 182.52L169.095 183.56ZM187.267 183.56L184.867 185.32L184.107 184.28L181.627 179.64L179.147 184.32L178.387 185.32L175.987 183.56L176.747 182.56L180.387 178.8L175.227 177.84L173.987 177.44L174.907 174.6L176.107 175.04L180.827 177.28L180.147 172.08V170.8H183.107V172.08L182.387 177.28L187.107 175L188.347 174.6L189.227 177.4L188.027 177.84L182.867 178.76L186.507 182.52L187.267 183.56ZM205.439 183.56L203.039 185.32L202.279 184.28L199.799 179.64L197.319 184.32L196.559 185.32L194.159 183.56L194.919 182.56L198.559 178.8L193.399 177.84L192.159 177.44L193.079 174.6L194.279 175.04L198.999 177.28L198.319 172.08V170.8H201.279V172.08L200.559 177.28L205.279 175L206.519 174.6L207.399 177.4L206.199 177.84L201.039 178.76L204.679 182.52L205.439 183.56ZM223.611 183.56L221.211 185.32L220.451 184.28L217.971 179.64L215.491 184.32L214.731 185.32L212.331 183.56L213.091 182.56L216.731 178.8L211.571 177.84L210.331 177.44L211.251 174.6L212.451 175.04L217.171 177.28L216.491 172.08V170.8H219.451V172.08L218.731 177.28L223.451 175L224.691 174.6L225.571 177.4L224.371 177.84L219.211 178.76L222.851 182.52L223.611 183.56ZM241.783 183.56L239.383 185.32L238.622 184.28L236.143 179.64L233.663 184.32L232.903 185.32L230.503 183.56L231.263 182.56L234.903 178.8L229.743 177.84L228.503 177.44L229.423 174.6L230.623 175.04L235.343 177.28L234.663 172.08V170.8H237.623V172.08L236.903 177.28L241.623 175L242.863 174.6L243.743 177.4L242.543 177.84L237.383 178.76L241.023 182.52L241.783 183.56Z" fill="white"/>
</g>
<defs>
<clipPath id="clip0_31_1127">
<rect width="250" height="250" fill="white"/>
</clipPath>
</defs>
</svg>
