<svg width="250" height="250" viewBox="0 0 250 250" fill="none" xmlns="http://www.w3.org/2000/svg" xmlns:xlink="http://www.w3.org/1999/xlink">
<g clip-path="url(#clip0_89_49)">
<path d="M58.3522 120.34V121.52C58.3522 122.373 58.5055 123.013 58.8122 123.44C59.1189 123.867 59.6122 124.08 60.2922 124.08C60.6255 124.08 60.9989 124.04 61.4122 123.96C61.8389 123.867 62.2989 123.727 62.7922 123.54L63.4522 125.48C62.8522 125.72 62.2855 125.9 61.7522 126.02C61.2189 126.14 60.6922 126.2 60.1722 126.2C58.8389 126.2 57.8189 125.773 57.1122 124.92C56.4055 124.067 56.0522 122.933 56.0522 121.52V120.34C56.0522 118.913 56.4055 117.78 57.1122 116.94C57.8189 116.087 58.8389 115.66 60.1722 115.66C60.6789 115.66 61.1922 115.72 61.7122 115.84C62.2322 115.96 62.7789 116.133 63.3522 116.36L62.6922 118.34C61.7322 117.967 60.9322 117.78 60.2922 117.78C59.6122 117.78 59.1189 117.993 58.8122 118.42C58.5055 118.833 58.3522 119.473 58.3522 120.34ZM73.0171 126H64.7771V124.1C64.7771 123.14 64.9037 122.34 65.1571 121.7C65.4104 121.047 65.7504 120.513 66.1771 120.1C66.6037 119.673 67.0704 119.333 67.5771 119.08L68.9371 118.4C69.4571 118.133 69.8771 117.853 70.1971 117.56C70.5304 117.253 70.6971 116.86 70.6971 116.38V116.02C70.6971 115.527 70.5237 115.14 70.1771 114.86C69.8437 114.567 69.3037 114.42 68.5571 114.42C68.1037 114.42 67.6437 114.487 67.1771 114.62C66.7237 114.753 66.1704 114.94 65.5171 115.18L64.7771 113.12C65.5237 112.787 66.2037 112.553 66.8171 112.42C67.4437 112.273 68.0504 112.2 68.6371 112.2C69.7171 112.2 70.5771 112.373 71.2171 112.72C71.8704 113.067 72.3371 113.533 72.6171 114.12C72.9104 114.693 73.0571 115.327 73.0571 116.02V116.38C73.0571 117.1 72.9104 117.713 72.6171 118.22C72.3371 118.727 71.9637 119.153 71.4971 119.5C71.0304 119.847 70.5237 120.153 69.9771 120.42L68.6171 121.1C68.1237 121.34 67.7571 121.673 67.5171 122.1C67.2904 122.527 67.1637 123.073 67.1371 123.74H73.0171V126ZM84.1547 120.64C84.1547 122.507 83.7147 123.9 82.8347 124.82C81.9547 125.74 80.7147 126.2 79.1147 126.2C78.5547 126.2 77.9747 126.133 77.3747 126C76.7747 125.867 76.1014 125.627 75.3547 125.28L76.2147 123.22C76.8147 123.5 77.3414 123.7 77.7947 123.82C78.2614 123.927 78.6814 123.98 79.0547 123.98C79.8947 123.98 80.568 123.727 81.0747 123.22C81.5947 122.713 81.8547 121.853 81.8547 120.64V119.92C81.4014 120.333 80.9214 120.64 80.4147 120.84C79.9214 121.04 79.4214 121.14 78.9147 121.14C78.128 121.14 77.4347 120.96 76.8347 120.6C76.248 120.24 75.7947 119.74 75.4747 119.1C75.1547 118.46 74.9947 117.72 74.9947 116.88V116.48C74.9947 115.733 75.1747 115.033 75.5347 114.38C75.8947 113.727 76.408 113.2 77.0747 112.8C77.7414 112.4 78.5347 112.2 79.4547 112.2C80.9347 112.2 82.088 112.7 82.9147 113.7C83.7414 114.7 84.1547 116.073 84.1547 117.82V120.64ZM77.3347 116.88C77.3347 117.493 77.5014 118 77.8347 118.4C78.1814 118.787 78.6614 118.98 79.2747 118.98C80.2214 118.98 81.0814 118.62 81.8547 117.9V117.82C81.8547 116.673 81.6414 115.82 81.2147 115.26C80.8014 114.7 80.2014 114.42 79.4147 114.42C78.7614 114.42 78.248 114.633 77.8747 115.06C77.5147 115.487 77.3347 115.96 77.3347 116.48V116.88ZM93.1414 125.66C92.7948 125.82 92.3948 125.947 91.9414 126.04C91.4881 126.147 91.0281 126.2 90.5614 126.2C89.7881 126.2 89.1681 126.04 88.7014 125.72C88.2348 125.4 87.8948 124.953 87.6814 124.38C87.4814 123.807 87.3814 123.153 87.3814 122.42V117.86H85.7414V115.86H87.3814V113.22H89.6814V115.86H92.8414V117.86H89.6814V122.42C89.6814 123.033 89.7948 123.46 90.0214 123.7C90.2614 123.927 90.6014 124.04 91.0414 124.04C91.2548 124.04 91.4814 124.02 91.7214 123.98C91.9748 123.927 92.2548 123.84 92.5614 123.72L93.1414 125.66ZM102.871 123.7V126H94.1706V123.9L99.8506 114.7H94.3706V112.4H102.671V114.5L96.9906 123.7H102.871ZM108.426 123.98C109.973 123.98 110.746 123.407 110.746 122.26C110.746 121.793 110.626 121.427 110.386 121.16C110.16 120.893 109.733 120.66 109.106 120.46L107.466 119.92C105.506 119.28 104.526 117.993 104.526 116.06C104.526 114.94 104.873 114.02 105.566 113.3C106.273 112.567 107.373 112.2 108.866 112.2C109.493 112.2 110.113 112.273 110.726 112.42C111.34 112.553 111.993 112.773 112.686 113.08L111.946 115.14C111.306 114.887 110.76 114.707 110.306 114.6C109.866 114.48 109.413 114.42 108.946 114.42C108.333 114.42 107.846 114.533 107.486 114.76C107.14 114.973 106.966 115.367 106.966 115.94C106.966 116.367 107.086 116.72 107.326 117C107.58 117.267 107.993 117.493 108.566 117.68L110.206 118.22C111.193 118.553 111.933 119.04 112.426 119.68C112.933 120.307 113.186 121.14 113.186 122.18C113.186 123.38 112.806 124.353 112.046 125.1C111.286 125.833 110.093 126.2 108.466 126.2C107.826 126.2 107.16 126.127 106.466 125.98C105.786 125.82 105.04 125.553 104.226 125.18L104.966 123.12C105.713 123.44 106.346 123.667 106.866 123.8C107.4 123.92 107.92 123.98 108.426 123.98ZM115.818 126V112.4H119.958C120.971 112.4 121.771 112.547 122.358 112.84C122.958 113.133 123.385 113.547 123.638 114.08C123.905 114.613 124.038 115.24 124.038 115.96V116.52C124.038 117.573 123.585 118.38 122.678 118.94C123.318 119.193 123.805 119.56 124.138 120.04C124.471 120.52 124.638 121.093 124.638 121.76V122.32C124.638 123.053 124.505 123.7 124.238 124.26C123.971 124.807 123.531 125.233 122.918 125.54C122.305 125.847 121.485 126 120.458 126H115.818ZM119.958 114.6H118.218V118H119.958C120.491 118 120.891 117.88 121.158 117.64C121.438 117.387 121.578 117.047 121.578 116.62V115.96C121.578 115.533 121.438 115.2 121.158 114.96C120.891 114.72 120.491 114.6 119.958 114.6ZM120.458 120.2H118.218V123.8H120.458C121.018 123.8 121.445 123.667 121.738 123.4C122.031 123.133 122.178 122.773 122.178 122.32V121.66C122.178 121.207 122.031 120.853 121.738 120.6C121.445 120.333 121.018 120.2 120.458 120.2ZM131.122 127C130.682 128.227 130.122 129.107 129.442 129.64C128.762 130.187 127.829 130.46 126.642 130.46V128.16C127.349 128.133 127.902 127.973 128.302 127.68C128.715 127.4 129.022 127.007 129.222 126.5L129.402 126.04L125.782 115.86H128.062L129.802 120.92L130.482 123.06L131.142 120.92L132.802 115.86H135.082L131.122 127ZM146.242 112.4L142.082 120.54V126H139.682V120.58L135.482 112.4H138.042L140.982 118.2L143.762 112.4H146.242ZM150.461 117.78L151.221 122.82L153.941 112.4H156.101L158.801 122.74L159.641 117.78L160.681 112.4H163.121L160.061 126H157.601L154.981 115.88L152.341 126H149.881L146.821 112.4H149.421L150.461 117.78ZM164.985 118.98L165.385 112.4H172.345V114.66H167.505L167.325 117.66C167.792 117.54 168.292 117.48 168.825 117.48C170.145 117.48 171.178 117.827 171.925 118.52C172.672 119.2 173.045 120.207 173.045 121.54V122.08C173.045 122.827 172.892 123.513 172.585 124.14C172.278 124.767 171.785 125.267 171.105 125.64C170.438 126.013 169.552 126.2 168.445 126.2C167.832 126.2 167.192 126.127 166.525 125.98C165.872 125.833 165.152 125.587 164.365 125.24L165.105 123.18C165.812 123.46 166.405 123.667 166.885 123.8C167.378 123.92 167.872 123.98 168.365 123.98C169.112 123.98 169.672 123.827 170.045 123.52C170.432 123.213 170.625 122.733 170.625 122.08V121.54C170.625 120.953 170.452 120.487 170.105 120.14C169.772 119.793 169.232 119.62 168.485 119.62C168.152 119.62 167.805 119.667 167.445 119.76C167.085 119.84 166.698 119.96 166.285 120.12L164.985 118.98ZM181.656 126L179.156 121.78C178.756 122.18 178.336 122.58 177.896 122.98V126H175.596V111.2H177.896V120.44C178.656 119.667 179.309 118.927 179.856 118.22C180.416 117.5 180.929 116.713 181.396 115.86H184.036C183.596 116.66 183.116 117.42 182.596 118.14C182.076 118.86 181.503 119.587 180.876 120.32L184.436 126H181.656ZM194.781 121.46C194.781 122.913 194.421 124.067 193.701 124.92C192.981 125.773 191.927 126.2 190.541 126.2C189.101 126.2 187.641 125.8 186.161 125V111.2H188.461V117.2C189.074 116.587 189.601 116.18 190.041 115.98C190.481 115.767 190.934 115.66 191.401 115.66C192.467 115.66 193.294 116.073 193.881 116.9C194.481 117.727 194.781 118.887 194.781 120.38V121.46ZM190.781 117.8C190.461 117.8 190.121 117.893 189.761 118.08C189.414 118.267 188.981 118.633 188.461 119.18V123.72C188.821 123.867 189.147 123.973 189.441 124.04C189.747 124.107 190.047 124.14 190.341 124.14C191.087 124.14 191.621 123.9 191.941 123.42C192.261 122.94 192.421 122.287 192.421 121.46V120.38C192.421 119.487 192.274 118.833 191.981 118.42C191.701 118.007 191.301 117.8 190.781 117.8ZM66.9526 150H58.7126V148.1C58.7126 147.14 58.8393 146.34 59.0926 145.7C59.3459 145.047 59.6859 144.513 60.1126 144.1C60.5393 143.673 61.0059 143.333 61.5126 143.08L62.8726 142.4C63.3926 142.133 63.8126 141.853 64.1326 141.56C64.4659 141.253 64.6326 140.86 64.6326 140.38V140.02C64.6326 139.527 64.4593 139.14 64.1126 138.86C63.7793 138.567 63.2393 138.42 62.4926 138.42C62.0393 138.42 61.5793 138.487 61.1126 138.62C60.6593 138.753 60.1059 138.94 59.4526 139.18L58.7126 137.12C59.4593 136.787 60.1393 136.553 60.7526 136.42C61.3793 136.273 61.9859 136.2 62.5726 136.2C63.6526 136.2 64.5126 136.373 65.1526 136.72C65.8059 137.067 66.2726 137.533 66.5526 138.12C66.8459 138.693 66.9926 139.327 66.9926 140.02V140.38C66.9926 141.1 66.8459 141.713 66.5526 142.22C66.2726 142.727 65.8993 143.153 65.4326 143.5C64.9659 143.847 64.4593 144.153 63.9126 144.42L62.5526 145.1C62.0593 145.34 61.6926 145.673 61.4526 146.1C61.2259 146.527 61.0993 147.073 61.0726 147.74H66.9526V150ZM78.9103 141.76V144.62C78.9103 146.353 78.5036 147.72 77.6903 148.72C76.8769 149.707 75.6836 150.2 74.1103 150.2C72.5369 150.2 71.3436 149.707 70.5303 148.72C69.7169 147.72 69.3103 146.353 69.3103 144.62V141.76C69.3103 140.027 69.7169 138.667 70.5303 137.68C71.3436 136.693 72.5369 136.2 74.1103 136.2C75.6836 136.2 76.8769 136.693 77.6903 137.68C78.5036 138.667 78.9103 140.027 78.9103 141.76ZM76.4903 141.76C76.4903 139.533 75.6969 138.42 74.1103 138.42C73.2969 138.42 72.6969 138.7 72.3103 139.26C71.9236 139.82 71.7303 140.653 71.7303 141.76V144.62C71.7303 145.727 71.9236 146.567 72.3103 147.14C72.6969 147.7 73.2969 147.98 74.1103 147.98C75.6969 147.98 76.4903 146.86 76.4903 144.62V141.76ZM90.2173 151.02C90.2173 152.1 89.7906 152.94 88.9373 153.54C88.0973 154.153 86.924 154.46 85.4173 154.46C84.7106 154.46 83.964 154.38 83.1773 154.22C82.3906 154.06 81.664 153.793 80.9973 153.42L81.6573 151.6C82.2973 151.92 82.9306 152.147 83.5573 152.28C84.184 152.427 84.7973 152.5 85.3973 152.5C86.2373 152.5 86.8773 152.387 87.3173 152.16C87.7573 151.933 87.9773 151.633 87.9773 151.26C87.9773 150.687 87.6373 150.4 86.9573 150.4H84.5573C83.904 150.4 83.3773 150.293 82.9773 150.08C82.5773 149.867 82.284 149.593 82.0973 149.26C81.9106 148.913 81.8173 148.553 81.8173 148.18C81.8173 147.793 81.8973 147.433 82.0573 147.1C82.2306 146.753 82.464 146.433 82.7573 146.14C82.2773 145.847 81.8906 145.453 81.5973 144.96C81.3173 144.467 81.1773 143.873 81.1773 143.18C81.1773 142.393 81.344 141.74 81.6773 141.22C82.0106 140.7 82.464 140.313 83.0373 140.06C83.624 139.793 84.2706 139.66 84.9773 139.66H85.3173C85.584 139.66 85.844 139.68 86.0973 139.72C86.3506 139.747 86.5906 139.793 86.8173 139.86H90.4373V141.82L88.4373 141.5C88.6373 141.713 88.7906 141.98 88.8973 142.3C89.0173 142.607 89.0773 142.987 89.0773 143.44C89.0773 144.12 88.904 144.707 88.5573 145.2C88.224 145.68 87.7706 146.053 87.1973 146.32C86.6373 146.573 86.0106 146.7 85.3173 146.7H84.9773C84.7106 146.7 84.4573 146.68 84.2173 146.64C84.0706 146.8 83.964 146.967 83.8973 147.14C83.8306 147.3 83.7973 147.453 83.7973 147.6C83.7973 148.067 84.0973 148.3 84.6973 148.3H87.1373C88.0573 148.3 88.7973 148.54 89.3573 149.02C89.9306 149.487 90.2173 150.153 90.2173 151.02ZM85.3173 144.82C85.7306 144.82 86.0906 144.68 86.3973 144.4C86.7173 144.12 86.8773 143.713 86.8773 143.18C86.8773 142.647 86.7173 142.24 86.3973 141.96C86.0906 141.68 85.7306 141.54 85.3173 141.54H84.9773C84.5506 141.54 84.1773 141.68 83.8573 141.96C83.5506 142.24 83.3973 142.647 83.3973 143.18C83.3973 143.713 83.5506 144.12 83.8573 144.4C84.1773 144.68 84.5506 144.82 84.9773 144.82H85.3173ZM98.3623 150V148.62C97.749 149.233 97.2156 149.653 96.7623 149.88C96.3223 150.093 95.8623 150.2 95.3823 150.2C94.289 150.2 93.4356 149.787 92.8223 148.96C92.2223 148.133 91.9223 146.973 91.9223 145.48V144.4C91.9223 142.947 92.289 141.793 93.0223 140.94C93.7556 140.087 94.8156 139.66 96.2023 139.66C96.549 139.66 96.889 139.693 97.2223 139.76C97.569 139.827 97.909 139.92 98.2423 140.04V135.2H100.542V150H98.3623ZM94.2823 145.48C94.2823 146.373 94.429 147.027 94.7223 147.44C95.029 147.853 95.4556 148.06 96.0023 148.06C96.309 148.06 96.6356 147.973 96.9823 147.8C97.329 147.613 97.749 147.267 98.2423 146.76V142.12C97.589 141.853 96.989 141.72 96.4423 141.72C95.669 141.72 95.1156 141.96 94.7823 142.44C94.449 142.92 94.2823 143.573 94.2823 144.4V145.48ZM113.011 149.12C112.678 149.32 112.125 149.553 111.351 149.82C110.591 150.073 109.698 150.2 108.671 150.2C107.511 150.2 106.538 149.96 105.751 149.48C104.978 149 104.391 148.34 103.991 147.5C103.591 146.66 103.391 145.7 103.391 144.62V141.76C103.391 140.653 103.591 139.687 103.991 138.86C104.391 138.02 104.985 137.367 105.771 136.9C106.571 136.433 107.571 136.2 108.771 136.2C109.358 136.2 109.965 136.267 110.591 136.4C111.218 136.52 111.905 136.747 112.651 137.08L111.911 139.18C111.258 138.927 110.691 138.747 110.211 138.64C109.745 138.52 109.278 138.46 108.811 138.46C107.771 138.46 107.018 138.76 106.551 139.36C106.085 139.947 105.851 140.747 105.851 141.76V144.62C105.851 145.58 106.085 146.367 106.551 146.98C107.031 147.593 107.778 147.9 108.791 147.9C109.098 147.9 109.431 147.873 109.791 147.82C110.151 147.767 110.498 147.693 110.831 147.6V144.62H108.631V142.52H113.011V149.12ZM125.582 136.4L121.262 150H118.802L114.462 136.4H117.102L119.162 143.24L120.102 146.76L121.102 143.22L123.142 136.4H125.582ZM135.962 146.92H134.542V150H132.222V146.92H126.382V144.98C126.982 144.047 127.575 143.1 128.162 142.14C128.762 141.167 129.322 140.2 129.842 139.24C130.362 138.267 130.788 137.32 131.122 136.4H133.742C133.248 137.76 132.582 139.16 131.742 140.6C130.902 142.027 130.035 143.42 129.142 144.78H132.222V142.72H134.542V144.78H135.962V146.92ZM143.929 150V148.62C143.315 149.233 142.782 149.653 142.329 149.88C141.889 150.093 141.429 150.2 140.949 150.2C139.855 150.2 139.002 149.787 138.389 148.96C137.789 148.133 137.489 146.973 137.489 145.48V144.4C137.489 142.947 137.855 141.793 138.589 140.94C139.322 140.087 140.382 139.66 141.769 139.66C142.115 139.66 142.455 139.693 142.789 139.76C143.135 139.827 143.475 139.92 143.809 140.04V135.2H146.109V150H143.929ZM139.849 145.48C139.849 146.373 139.995 147.027 140.289 147.44C140.595 147.853 141.022 148.06 141.569 148.06C141.875 148.06 142.202 147.973 142.549 147.8C142.895 147.613 143.315 147.267 143.809 146.76V142.12C143.155 141.853 142.555 141.72 142.009 141.72C141.235 141.72 140.682 141.96 140.349 142.44C140.015 142.92 139.849 143.573 139.849 144.4V145.48ZM151.418 144.62C151.418 145.593 151.631 146.393 152.058 147.02C152.484 147.633 153.184 147.94 154.158 147.94C154.558 147.94 154.971 147.887 155.398 147.78C155.838 147.673 156.378 147.493 157.018 147.24L157.758 149.32C157.038 149.64 156.371 149.867 155.758 150C155.158 150.133 154.578 150.2 154.018 150.2C152.898 150.2 151.958 149.96 151.198 149.48C150.451 149 149.891 148.34 149.518 147.5C149.144 146.66 148.958 145.7 148.958 144.62V141.76C148.958 140.68 149.144 139.72 149.518 138.88C149.891 138.04 150.451 137.387 151.198 136.92C151.958 136.44 152.898 136.2 154.018 136.2C154.564 136.2 155.131 136.267 155.718 136.4C156.304 136.52 156.944 136.733 157.638 137.04L156.898 139.16C156.284 138.907 155.771 138.727 155.358 138.62C154.944 138.513 154.544 138.46 154.158 138.46C153.184 138.46 152.484 138.767 152.058 139.38C151.631 139.993 151.418 140.787 151.418 141.76V144.62ZM160.261 150V136.4H164.401C165.415 136.4 166.215 136.547 166.801 136.84C167.401 137.133 167.828 137.547 168.081 138.08C168.348 138.613 168.481 139.24 168.481 139.96V140.52C168.481 141.573 168.028 142.38 167.121 142.94C167.761 143.193 168.248 143.56 168.581 144.04C168.915 144.52 169.081 145.093 169.081 145.76V146.32C169.081 147.053 168.948 147.7 168.681 148.26C168.415 148.807 167.975 149.233 167.361 149.54C166.748 149.847 165.928 150 164.901 150H160.261ZM164.401 138.6H162.661V142H164.401C164.935 142 165.335 141.88 165.601 141.64C165.881 141.387 166.021 141.047 166.021 140.62V139.96C166.021 139.533 165.881 139.2 165.601 138.96C165.335 138.72 164.935 138.6 164.401 138.6ZM164.901 144.2H162.661V147.8H164.901C165.461 147.8 165.888 147.667 166.181 147.4C166.475 147.133 166.621 146.773 166.621 146.32V145.66C166.621 145.207 166.475 144.853 166.181 144.6C165.888 144.333 165.461 144.2 164.901 144.2ZM176.621 141.8C176.287 141.8 175.907 141.88 175.481 142.04C175.054 142.2 174.547 142.513 173.961 142.98V150H171.661V135.2H173.961V141.12C174.574 140.6 175.147 140.227 175.681 140C176.214 139.773 176.761 139.66 177.321 139.66C178.294 139.66 179.034 139.973 179.541 140.6C180.047 141.213 180.301 142.08 180.301 143.2V150H178.001V143.48C178.001 142.36 177.541 141.8 176.621 141.8ZM191.88 145.46C191.88 146.913 191.52 148.067 190.8 148.92C190.08 149.773 189.027 150.2 187.64 150.2C186.2 150.2 184.74 149.8 183.26 149V135.2H185.56V141.2C186.174 140.587 186.7 140.18 187.14 139.98C187.58 139.767 188.034 139.66 188.5 139.66C189.567 139.66 190.394 140.073 190.98 140.9C191.58 141.727 191.88 142.887 191.88 144.38V145.46ZM187.88 141.8C187.56 141.8 187.22 141.893 186.86 142.08C186.514 142.267 186.08 142.633 185.56 143.18V147.72C185.92 147.867 186.247 147.973 186.54 148.04C186.847 148.107 187.147 148.14 187.44 148.14C188.187 148.14 188.72 147.9 189.04 147.42C189.36 146.94 189.52 146.287 189.52 145.46V144.38C189.52 143.487 189.374 142.833 189.08 142.42C188.8 142.007 188.4 141.8 187.88 141.8ZM59.7906 166.98V174H57.4906V163.86H59.6706V165.2C60.2973 164.653 60.8773 164.26 61.4106 164.02C61.944 163.78 62.4906 163.66 63.0506 163.66C64.2906 163.66 65.1373 164.207 65.5906 165.3C66.2573 164.713 66.8773 164.293 67.4506 164.04C68.024 163.787 68.604 163.66 69.1906 163.66C70.124 163.66 70.8373 163.973 71.3306 164.6C71.824 165.213 72.0706 166.08 72.0706 167.2V174H69.7706V167.48C69.7706 166.36 69.344 165.8 68.4906 165.8C68.1573 165.8 67.7906 165.88 67.3906 166.04C66.9906 166.2 66.504 166.513 65.9306 166.98V174H63.6306V167.48C63.6306 166.36 63.204 165.8 62.3506 165.8C62.0173 165.8 61.6506 165.88 61.2506 166.04C60.8506 166.2 60.364 166.513 59.7906 166.98ZM84.7278 175.46V177.96C83.6878 177.96 82.8545 177.84 82.2278 177.6C81.6012 177.36 81.1078 177.013 80.7478 176.56C80.4012 176.107 80.1212 175.553 79.9078 174.9L79.6678 174.2C78.0812 174.147 76.8745 173.627 76.0478 172.64C75.2345 171.653 74.8278 170.313 74.8278 168.62V165.76C74.8278 164.027 75.2545 162.667 76.1078 161.68C76.9745 160.693 78.2478 160.2 79.9278 160.2C81.5945 160.2 82.8612 160.693 83.7278 161.68C84.5945 162.667 85.0278 164.027 85.0278 165.76V168.62C85.0278 169.967 84.7612 171.1 84.2278 172.02C83.7078 172.927 82.9345 173.553 81.9078 173.9C82.0278 174.327 82.1945 174.653 82.4078 174.88C82.6212 175.107 82.9078 175.26 83.2678 175.34C83.6412 175.42 84.1278 175.46 84.7278 175.46ZM82.5678 165.76C82.5678 164.667 82.3545 163.847 81.9278 163.3C81.5012 162.74 80.8345 162.46 79.9278 162.46C79.0212 162.46 78.3545 162.74 77.9278 163.3C77.5012 163.847 77.2878 164.667 77.2878 165.76V168.62C77.2878 169.713 77.5012 170.54 77.9278 171.1C78.3545 171.66 79.0212 171.94 79.9278 171.94C80.8345 171.94 81.5012 171.66 81.9278 171.1C82.3545 170.54 82.5678 169.713 82.5678 168.62V165.76ZM96.3208 175.02C96.3208 176.1 95.8941 176.94 95.0408 177.54C94.2008 178.153 93.0275 178.46 91.5208 178.46C90.8141 178.46 90.0675 178.38 89.2808 178.22C88.4941 178.06 87.7675 177.793 87.1008 177.42L87.7608 175.6C88.4008 175.92 89.0341 176.147 89.6608 176.28C90.2875 176.427 90.9008 176.5 91.5008 176.5C92.3408 176.5 92.9808 176.387 93.4208 176.16C93.8608 175.933 94.0808 175.633 94.0808 175.26C94.0808 174.687 93.7408 174.4 93.0608 174.4H90.6608C90.0075 174.4 89.4808 174.293 89.0808 174.08C88.6808 173.867 88.3875 173.593 88.2008 173.26C88.0141 172.913 87.9208 172.553 87.9208 172.18C87.9208 171.793 88.0008 171.433 88.1608 171.1C88.3341 170.753 88.5675 170.433 88.8608 170.14C88.3808 169.847 87.9941 169.453 87.7008 168.96C87.4208 168.467 87.2808 167.873 87.2808 167.18C87.2808 166.393 87.4475 165.74 87.7808 165.22C88.1141 164.7 88.5675 164.313 89.1408 164.06C89.7275 163.793 90.3741 163.66 91.0808 163.66H91.4208C91.6875 163.66 91.9475 163.68 92.2008 163.72C92.4541 163.747 92.6941 163.793 92.9208 163.86H96.5408V165.82L94.5408 165.5C94.7408 165.713 94.8941 165.98 95.0008 166.3C95.1208 166.607 95.1808 166.987 95.1808 167.44C95.1808 168.12 95.0075 168.707 94.6608 169.2C94.3275 169.68 93.8741 170.053 93.3008 170.32C92.7408 170.573 92.1141 170.7 91.4208 170.7H91.0808C90.8141 170.7 90.5608 170.68 90.3208 170.64C90.1741 170.8 90.0675 170.967 90.0008 171.14C89.9341 171.3 89.9008 171.453 89.9008 171.6C89.9008 172.067 90.2008 172.3 90.8008 172.3H93.2408C94.1608 172.3 94.9008 172.54 95.4608 173.02C96.0341 173.487 96.3208 174.153 96.3208 175.02ZM91.4208 168.82C91.8341 168.82 92.1941 168.68 92.5008 168.4C92.8208 168.12 92.9808 167.713 92.9808 167.18C92.9808 166.647 92.8208 166.24 92.5008 165.96C92.1941 165.68 91.8341 165.54 91.4208 165.54H91.0808C90.6541 165.54 90.2808 165.68 89.9608 165.96C89.6541 166.24 89.5008 166.647 89.5008 167.18C89.5008 167.713 89.6541 168.12 89.9608 168.4C90.2808 168.68 90.6541 168.82 91.0808 168.82H91.4208ZM100.286 168.34V169.52C100.286 170.373 100.439 171.013 100.746 171.44C101.052 171.867 101.546 172.08 102.226 172.08C102.559 172.08 102.932 172.04 103.346 171.96C103.772 171.867 104.232 171.727 104.726 171.54L105.386 173.48C104.786 173.72 104.219 173.9 103.686 174.02C103.152 174.14 102.626 174.2 102.106 174.2C100.772 174.2 99.7525 173.773 99.0458 172.92C98.3391 172.067 97.9858 170.933 97.9858 169.52V168.34C97.9858 166.913 98.3391 165.78 99.0458 164.94C99.7525 164.087 100.772 163.66 102.106 163.66C102.612 163.66 103.126 163.72 103.646 163.84C104.166 163.96 104.712 164.133 105.286 164.36L104.626 166.34C103.666 165.967 102.866 165.78 102.226 165.78C101.546 165.78 101.052 165.993 100.746 166.42C100.439 166.833 100.286 167.473 100.286 168.34ZM114.831 170.3C114.831 171.007 114.684 171.66 114.391 172.26C114.097 172.847 113.624 173.32 112.971 173.68C112.331 174.027 111.471 174.2 110.391 174.2C109.777 174.2 109.137 174.127 108.471 173.98C107.817 173.833 107.097 173.587 106.311 173.24L107.051 171.18C107.757 171.433 108.351 171.633 108.831 171.78C109.324 171.913 109.817 171.98 110.311 171.98C111.017 171.98 111.551 171.84 111.911 171.56C112.284 171.267 112.471 170.813 112.471 170.2V169.92C112.471 169.413 112.311 169.007 111.991 168.7C111.684 168.38 111.204 168.22 110.551 168.22H108.431V166.06H110.551C111.177 166.06 111.637 165.913 111.931 165.62C112.224 165.313 112.371 164.92 112.371 164.44V164.16C112.371 163.547 112.197 163.107 111.851 162.84C111.517 162.56 111.024 162.42 110.371 162.42C109.904 162.42 109.431 162.487 108.951 162.62C108.484 162.74 107.917 162.927 107.251 163.18L106.511 161.12C107.257 160.773 107.951 160.533 108.591 160.4C109.231 160.267 109.851 160.2 110.451 160.2C111.477 160.2 112.304 160.373 112.931 160.72C113.557 161.067 114.011 161.533 114.291 162.12C114.584 162.707 114.731 163.353 114.731 164.06V164.34C114.731 164.967 114.571 165.52 114.251 166C113.944 166.467 113.537 166.84 113.031 167.12C113.577 167.413 114.011 167.807 114.331 168.3C114.664 168.78 114.831 169.353 114.831 170.02V170.3ZM120.21 169V174H117.81V160.4H122.35C123.724 160.4 124.777 160.753 125.51 161.46C126.257 162.153 126.63 163.087 126.63 164.26V165.12C126.63 165.893 126.464 166.573 126.13 167.16C125.797 167.747 125.317 168.193 124.69 168.5C125.784 170.367 126.717 172.2 127.49 174H124.75C124.084 172.333 123.29 170.667 122.37 169H120.21ZM122.35 162.6H120.21V166.8H122.35C122.937 166.8 123.384 166.653 123.69 166.36C124.01 166.053 124.17 165.64 124.17 165.12V164.26C124.17 163.753 124.01 163.353 123.69 163.06C123.384 162.753 122.937 162.6 122.35 162.6ZM128.318 162.34L131.778 160.4H133.778V174H131.418V163.04L129.378 164.16L128.318 162.34ZM145.117 171.7V174H136.417V171.9L142.097 162.7H136.617V160.4H144.917V162.5L139.237 171.7H145.117ZM149.517 166.98V174H147.217V163.86H149.397V165.2C150.024 164.653 150.604 164.26 151.137 164.02C151.671 163.78 152.217 163.66 152.777 163.66C154.017 163.66 154.864 164.207 155.317 165.3C155.984 164.713 156.604 164.293 157.177 164.04C157.751 163.787 158.331 163.66 158.917 163.66C159.851 163.66 160.564 163.973 161.057 164.6C161.551 165.213 161.797 166.08 161.797 167.2V174H159.497V167.48C159.497 166.36 159.071 165.8 158.217 165.8C157.884 165.8 157.517 165.88 157.117 166.04C156.717 166.2 156.231 166.513 155.657 166.98V174H153.357V167.48C153.357 166.36 152.931 165.8 152.077 165.8C151.744 165.8 151.377 165.88 150.977 166.04C150.577 166.2 150.091 166.513 149.517 166.98ZM174.074 160.4L169.914 168.54V174H167.514V168.58L163.314 160.4H165.874L168.814 166.2L171.594 160.4H174.074ZM183.04 175.02C183.04 176.1 182.613 176.94 181.76 177.54C180.92 178.153 179.746 178.46 178.24 178.46C177.533 178.46 176.786 178.38 176 178.22C175.213 178.06 174.486 177.793 173.82 177.42L174.48 175.6C175.12 175.92 175.753 176.147 176.38 176.28C177.006 176.427 177.62 176.5 178.22 176.5C179.06 176.5 179.7 176.387 180.14 176.16C180.58 175.933 180.8 175.633 180.8 175.26C180.8 174.687 180.46 174.4 179.78 174.4H177.38C176.726 174.4 176.2 174.293 175.8 174.08C175.4 173.867 175.106 173.593 174.92 173.26C174.733 172.913 174.64 172.553 174.64 172.18C174.64 171.793 174.72 171.433 174.88 171.1C175.053 170.753 175.286 170.433 175.58 170.14C175.1 169.847 174.713 169.453 174.42 168.96C174.14 168.467 174 167.873 174 167.18C174 166.393 174.166 165.74 174.5 165.22C174.833 164.7 175.286 164.313 175.86 164.06C176.446 163.793 177.093 163.66 177.8 163.66H178.14C178.406 163.66 178.666 163.68 178.92 163.72C179.173 163.747 179.413 163.793 179.64 163.86H183.26V165.82L181.26 165.5C181.46 165.713 181.613 165.98 181.72 166.3C181.84 166.607 181.9 166.987 181.9 167.44C181.9 168.12 181.726 168.707 181.38 169.2C181.046 169.68 180.593 170.053 180.02 170.32C179.46 170.573 178.833 170.7 178.14 170.7H177.8C177.533 170.7 177.28 170.68 177.04 170.64C176.893 170.8 176.786 170.967 176.72 171.14C176.653 171.3 176.62 171.453 176.62 171.6C176.62 172.067 176.92 172.3 177.52 172.3H179.96C180.88 172.3 181.62 172.54 182.18 173.02C182.753 173.487 183.04 174.153 183.04 175.02ZM178.14 168.82C178.553 168.82 178.913 168.68 179.22 168.4C179.54 168.12 179.7 167.713 179.7 167.18C179.7 166.647 179.54 166.24 179.22 165.96C178.913 165.68 178.553 165.54 178.14 165.54H177.8C177.373 165.54 177 165.68 176.68 165.96C176.373 166.24 176.22 166.647 176.22 167.18C176.22 167.713 176.373 168.12 176.68 168.4C177 168.68 177.373 168.82 177.8 168.82H178.14ZM191.185 174V172.62C190.571 173.233 190.038 173.653 189.585 173.88C189.145 174.093 188.685 174.2 188.205 174.2C187.111 174.2 186.258 173.787 185.645 172.96C185.045 172.133 184.745 170.973 184.745 169.48V168.4C184.745 166.947 185.111 165.793 185.845 164.94C186.578 164.087 187.638 163.66 189.025 163.66C189.371 163.66 189.711 163.693 190.045 163.76C190.391 163.827 190.731 163.92 191.065 164.04V159.2H193.365V174H191.185ZM187.105 169.48C187.105 170.373 187.251 171.027 187.545 171.44C187.851 171.853 188.278 172.06 188.825 172.06C189.131 172.06 189.458 171.973 189.805 171.8C190.151 171.613 190.571 171.267 191.065 170.76V166.12C190.411 165.853 189.811 165.72 189.265 165.72C188.491 165.72 187.938 165.96 187.605 166.44C187.271 166.92 187.105 167.573 187.105 168.4V169.48ZM65.3356 197.12C65.0022 197.32 64.4489 197.553 63.6756 197.82C62.9156 198.073 62.0222 198.2 60.9956 198.2C59.8356 198.2 58.8622 197.96 58.0756 197.48C57.3022 197 56.7156 196.34 56.3156 195.5C55.9156 194.66 55.7156 193.7 55.7156 192.62V189.76C55.7156 188.653 55.9156 187.687 56.3156 186.86C56.7156 186.02 57.3089 185.367 58.0956 184.9C58.8956 184.433 59.8956 184.2 61.0956 184.2C61.6822 184.2 62.2889 184.267 62.9156 184.4C63.5422 184.52 64.2289 184.747 64.9756 185.08L64.2356 187.18C63.5822 186.927 63.0156 186.747 62.5356 186.64C62.0689 186.52 61.6022 186.46 61.1356 186.46C60.0956 186.46 59.3422 186.76 58.8756 187.36C58.4089 187.947 58.1756 188.747 58.1756 189.76V192.62C58.1756 193.58 58.4089 194.367 58.8756 194.98C59.3556 195.593 60.1022 195.9 61.1156 195.9C61.4222 195.9 61.7556 195.873 62.1156 195.82C62.4756 195.767 62.8222 195.693 63.1556 195.6V192.62H60.9556V190.52H65.3356V197.12ZM76.6863 194.3C76.6863 195.033 76.513 195.693 76.1663 196.28C75.833 196.867 75.3197 197.333 74.6263 197.68C73.933 198.027 73.053 198.2 71.9863 198.2C70.933 198.2 70.0797 198.04 69.4263 197.72C68.773 197.387 68.293 196.953 67.9863 196.42C67.6797 195.887 67.5263 195.293 67.5263 194.64C67.5263 193.987 67.6797 193.387 67.9863 192.84C68.293 192.28 68.7997 191.767 69.5063 191.3C68.9463 190.927 68.513 190.467 68.2063 189.92C67.913 189.373 67.7663 188.733 67.7663 188C67.7663 187.293 67.933 186.653 68.2663 186.08C68.5997 185.507 69.0863 185.053 69.7263 184.72C70.3663 184.373 71.133 184.2 72.0263 184.2C72.9863 184.2 73.793 184.36 74.4463 184.68C75.0997 185 75.5863 185.433 75.9063 185.98C76.2397 186.513 76.4063 187.113 76.4063 187.78C76.4063 188.367 76.2663 188.92 75.9863 189.44C75.7197 189.947 75.2663 190.42 74.6263 190.86C75.9997 191.633 76.6863 192.78 76.6863 194.3ZM71.8463 189.84L72.8263 190.14C73.2797 189.753 73.593 189.4 73.7663 189.08C73.953 188.747 74.0463 188.407 74.0463 188.06C74.0463 187.527 73.873 187.107 73.5263 186.8C73.193 186.48 72.713 186.32 72.0863 186.32C71.4597 186.32 70.973 186.473 70.6263 186.78C70.293 187.087 70.1263 187.507 70.1263 188.04C70.1263 188.88 70.6997 189.48 71.8463 189.84ZM69.8863 194.3C69.8863 194.833 70.0797 195.267 70.4663 195.6C70.853 195.92 71.3997 196.08 72.1063 196.08C72.7997 196.08 73.3397 195.92 73.7263 195.6C74.1263 195.28 74.3263 194.853 74.3263 194.32C74.3263 193.92 74.1797 193.56 73.8863 193.24C73.6063 192.907 73.1197 192.633 72.4263 192.42L71.3463 192.08C70.853 192.48 70.4863 192.853 70.2463 193.2C70.0063 193.547 69.8863 193.913 69.8863 194.3ZM87.6978 199.02C87.6978 200.1 87.2711 200.94 86.4178 201.54C85.5778 202.153 84.4044 202.46 82.8978 202.46C82.1911 202.46 81.4444 202.38 80.6578 202.22C79.8711 202.06 79.1444 201.793 78.4778 201.42L79.1378 199.6C79.7778 199.92 80.4111 200.147 81.0378 200.28C81.6644 200.427 82.2778 200.5 82.8778 200.5C83.7178 200.5 84.3578 200.387 84.7978 200.16C85.2378 199.933 85.4578 199.633 85.4578 199.26C85.4578 198.687 85.1178 198.4 84.4378 198.4H82.0378C81.3844 198.4 80.8578 198.293 80.4578 198.08C80.0578 197.867 79.7644 197.593 79.5778 197.26C79.3911 196.913 79.2978 196.553 79.2978 196.18C79.2978 195.793 79.3778 195.433 79.5378 195.1C79.7111 194.753 79.9444 194.433 80.2378 194.14C79.7578 193.847 79.3711 193.453 79.0778 192.96C78.7978 192.467 78.6578 191.873 78.6578 191.18C78.6578 190.393 78.8244 189.74 79.1578 189.22C79.4911 188.7 79.9444 188.313 80.5178 188.06C81.1044 187.793 81.7511 187.66 82.4578 187.66H82.7978C83.0644 187.66 83.3244 187.68 83.5778 187.72C83.8311 187.747 84.0711 187.793 84.2978 187.86H87.9178V189.82L85.9178 189.5C86.1178 189.713 86.2711 189.98 86.3778 190.3C86.4978 190.607 86.5578 190.987 86.5578 191.44C86.5578 192.12 86.3844 192.707 86.0378 193.2C85.7044 193.68 85.2511 194.053 84.6778 194.32C84.1178 194.573 83.4911 194.7 82.7978 194.7H82.4578C82.1911 194.7 81.9378 194.68 81.6978 194.64C81.5511 194.8 81.4444 194.967 81.3778 195.14C81.3111 195.3 81.2778 195.453 81.2778 195.6C81.2778 196.067 81.5778 196.3 82.1778 196.3H84.6178C85.5378 196.3 86.2778 196.54 86.8378 197.02C87.4111 197.487 87.6978 198.153 87.6978 199.02ZM82.7978 192.82C83.2111 192.82 83.5711 192.68 83.8778 192.4C84.1978 192.12 84.3578 191.713 84.3578 191.18C84.3578 190.647 84.1978 190.24 83.8778 189.96C83.5711 189.68 83.2111 189.54 82.7978 189.54H82.4578C82.0311 189.54 81.6578 189.68 81.3378 189.96C81.0311 190.24 80.8778 190.647 80.8778 191.18C80.8778 191.713 81.0311 192.12 81.3378 192.4C81.6578 192.68 82.0311 192.82 82.4578 192.82H82.7978ZM98.4428 193.46C98.4428 194.913 98.0828 196.067 97.3628 196.92C96.6428 197.773 95.5894 198.2 94.2028 198.2C92.7628 198.2 91.3028 197.8 89.8228 197V183.2H92.1228V189.2C92.7361 188.587 93.2628 188.18 93.7028 187.98C94.1428 187.767 94.5961 187.66 95.0628 187.66C96.1294 187.66 96.9561 188.073 97.5428 188.9C98.1428 189.727 98.4428 190.887 98.4428 192.38V193.46ZM94.4428 189.8C94.1228 189.8 93.7828 189.893 93.4228 190.08C93.0761 190.267 92.6428 190.633 92.1228 191.18V195.72C92.4828 195.867 92.8094 195.973 93.1028 196.04C93.4094 196.107 93.7094 196.14 94.0028 196.14C94.7494 196.14 95.2828 195.9 95.6028 195.42C95.9228 194.94 96.0828 194.287 96.0828 193.46V192.38C96.0828 191.487 95.9361 190.833 95.6428 190.42C95.3628 190.007 94.9628 189.8 94.4428 189.8ZM103.674 189.78L104.434 194.82L107.154 184.4H109.314L112.014 194.74L112.854 189.78L113.894 184.4H116.334L113.274 198H110.814L108.194 187.88L105.554 198H103.094L100.034 184.4H102.634L103.674 189.78ZM125.698 192.78H121.138V198H118.738V184.4H126.298V186.7H121.138V190.48H125.698V192.78ZM133.865 189.96C133.238 189.96 132.638 190.06 132.065 190.26C131.505 190.447 130.965 190.753 130.445 191.18V198H128.145V187.86H130.325V189.42C131.005 188.78 131.612 188.327 132.145 188.06C132.678 187.793 133.252 187.66 133.865 187.66V189.96ZM143.759 195.7V198H135.059V195.9L140.739 186.7H135.259V184.4H143.559V186.5L137.879 195.7H143.759ZM149.315 195.98C150.862 195.98 151.635 195.407 151.635 194.26C151.635 193.793 151.515 193.427 151.275 193.16C151.048 192.893 150.622 192.66 149.995 192.46L148.355 191.92C146.395 191.28 145.415 189.993 145.415 188.06C145.415 186.94 145.762 186.02 146.455 185.3C147.162 184.567 148.262 184.2 149.755 184.2C150.382 184.2 151.002 184.273 151.615 184.42C152.228 184.553 152.882 184.773 153.575 185.08L152.835 187.14C152.195 186.887 151.648 186.707 151.195 186.6C150.755 186.48 150.302 186.42 149.835 186.42C149.222 186.42 148.735 186.533 148.375 186.76C148.028 186.973 147.855 187.367 147.855 187.94C147.855 188.367 147.975 188.72 148.215 189C148.468 189.267 148.882 189.493 149.455 189.68L151.095 190.22C152.082 190.553 152.822 191.04 153.315 191.68C153.822 192.307 154.075 193.14 154.075 194.18C154.075 195.38 153.695 196.353 152.935 197.1C152.175 197.833 150.982 198.2 149.355 198.2C148.715 198.2 148.048 198.127 147.355 197.98C146.675 197.82 145.928 197.553 145.115 197.18L145.855 195.12C146.602 195.44 147.235 195.667 147.755 195.8C148.288 195.92 148.808 195.98 149.315 195.98ZM156.707 198V184.4H160.847C161.86 184.4 162.66 184.547 163.247 184.84C163.847 185.133 164.273 185.547 164.527 186.08C164.793 186.613 164.927 187.24 164.927 187.96V188.52C164.927 189.573 164.473 190.38 163.567 190.94C164.207 191.193 164.693 191.56 165.027 192.04C165.36 192.52 165.527 193.093 165.527 193.76V194.32C165.527 195.053 165.393 195.7 165.127 196.26C164.86 196.807 164.42 197.233 163.807 197.54C163.193 197.847 162.373 198 161.347 198H156.707ZM160.847 186.6H159.107V190H160.847C161.38 190 161.78 189.88 162.047 189.64C162.327 189.387 162.467 189.047 162.467 188.62V187.96C162.467 187.533 162.327 187.2 162.047 186.96C161.78 186.72 161.38 186.6 160.847 186.6ZM161.347 192.2H159.107V195.8H161.347C161.907 195.8 162.333 195.667 162.627 195.4C162.92 195.133 163.067 194.773 163.067 194.32V193.66C163.067 193.207 162.92 192.853 162.627 192.6C162.333 192.333 161.907 192.2 161.347 192.2ZM173.066 189.8C172.733 189.8 172.353 189.88 171.926 190.04C171.499 190.2 170.993 190.513 170.406 190.98V198H168.106V183.2H170.406V189.12C171.019 188.6 171.593 188.227 172.126 188C172.659 187.773 173.206 187.66 173.766 187.66C174.739 187.66 175.479 187.973 175.986 188.6C176.493 189.213 176.746 190.08 176.746 191.2V198H174.446V191.48C174.446 190.36 173.986 189.8 173.066 189.8ZM182.486 198H180.086V184.4H182.486V198ZM195.238 197.12C194.905 197.32 194.351 197.553 193.578 197.82C192.818 198.073 191.925 198.2 190.898 198.2C189.738 198.2 188.765 197.96 187.978 197.48C187.205 197 186.618 196.34 186.218 195.5C185.818 194.66 185.618 193.7 185.618 192.62V189.76C185.618 188.653 185.818 187.687 186.218 186.86C186.618 186.02 187.211 185.367 187.998 184.9C188.798 184.433 189.798 184.2 190.998 184.2C191.585 184.2 192.191 184.267 192.818 184.4C193.445 184.52 194.131 184.747 194.878 185.08L194.138 187.18C193.485 186.927 192.918 186.747 192.438 186.64C191.971 186.52 191.505 186.46 191.038 186.46C189.998 186.46 189.245 186.76 188.778 187.36C188.311 187.947 188.078 188.747 188.078 189.76V192.62C188.078 193.58 188.311 194.367 188.778 194.98C189.258 195.593 190.005 195.9 191.018 195.9C191.325 195.9 191.658 195.873 192.018 195.82C192.378 195.767 192.725 195.693 193.058 195.6V192.62H190.858V190.52H195.238V197.12ZM55.2194 214.98L55.6194 208.4H62.5794V210.66H57.7394L57.5594 213.66C58.0261 213.54 58.5261 213.48 59.0594 213.48C60.3794 213.48 61.4127 213.827 62.1594 214.52C62.9061 215.2 63.2794 216.207 63.2794 217.54V218.08C63.2794 218.827 63.1261 219.513 62.8194 220.14C62.5127 220.767 62.0194 221.267 61.3394 221.64C60.6727 222.013 59.7861 222.2 58.6794 222.2C58.0661 222.2 57.4261 222.127 56.7594 221.98C56.1061 221.833 55.3861 221.587 54.5994 221.24L55.3394 219.18C56.0461 219.46 56.6394 219.667 57.1194 219.8C57.6127 219.92 58.1061 219.98 58.5994 219.98C59.3461 219.98 59.9061 219.827 60.2794 219.52C60.6661 219.213 60.8594 218.733 60.8594 218.08V217.54C60.8594 216.953 60.6861 216.487 60.3394 216.14C60.0061 215.793 59.4661 215.62 58.7194 215.62C58.3861 215.62 58.0394 215.667 57.6794 215.76C57.3194 215.84 56.9327 215.96 56.5194 216.12L55.2194 214.98ZM73.8905 211.86L70.2905 222H68.1905L64.5905 211.86H66.9105L68.6505 216.92L69.3105 219.02L69.9505 216.92L71.6105 211.86H73.8905ZM83.691 219.7V222H74.991V219.9L80.671 210.7H75.191V208.4H83.491V210.5L77.811 219.7H83.691ZM95.2867 221.12C94.9534 221.32 94.4001 221.553 93.6267 221.82C92.8667 222.073 91.9734 222.2 90.9467 222.2C89.7867 222.2 88.8134 221.96 88.0267 221.48C87.2534 221 86.6667 220.34 86.2667 219.5C85.8667 218.66 85.6667 217.7 85.6667 216.62V213.76C85.6667 212.653 85.8667 211.687 86.2667 210.86C86.6667 210.02 87.2601 209.367 88.0467 208.9C88.8467 208.433 89.8467 208.2 91.0467 208.2C91.6334 208.2 92.2401 208.267 92.8667 208.4C93.4934 208.52 94.1801 208.747 94.9267 209.08L94.1867 211.18C93.5334 210.927 92.9667 210.747 92.4867 210.64C92.0201 210.52 91.5534 210.46 91.0867 210.46C90.0467 210.46 89.2934 210.76 88.8267 211.36C88.3601 211.947 88.1267 212.747 88.1267 213.76V216.62C88.1267 217.58 88.3601 218.367 88.8267 218.98C89.3067 219.593 90.0534 219.9 91.0667 219.9C91.3734 219.9 91.7067 219.873 92.0667 219.82C92.4267 219.767 92.7734 219.693 93.1067 219.6V216.62H90.9067V214.52H95.2867V221.12ZM98.0175 208.4H100.478V217.12C100.478 218 100.671 218.693 101.058 219.2C101.444 219.693 102.064 219.94 102.918 219.94C103.771 219.94 104.391 219.693 104.778 219.2C105.164 218.693 105.358 218 105.358 217.12V208.4H107.818V217.12C107.818 218.653 107.411 219.887 106.598 220.82C105.784 221.74 104.558 222.2 102.918 222.2C101.264 222.2 100.031 221.74 99.2175 220.82C98.4175 219.887 98.0175 218.653 98.0175 217.12V208.4ZM119.387 223.02C119.387 224.1 118.961 224.94 118.107 225.54C117.267 226.153 116.094 226.46 114.587 226.46C113.881 226.46 113.134 226.38 112.347 226.22C111.561 226.06 110.834 225.793 110.167 225.42L110.827 223.6C111.467 223.92 112.101 224.147 112.727 224.28C113.354 224.427 113.967 224.5 114.567 224.5C115.407 224.5 116.047 224.387 116.487 224.16C116.927 223.933 117.147 223.633 117.147 223.26C117.147 222.687 116.807 222.4 116.127 222.4H113.727C113.074 222.4 112.547 222.293 112.147 222.08C111.747 221.867 111.454 221.593 111.267 221.26C111.081 220.913 110.987 220.553 110.987 220.18C110.987 219.793 111.067 219.433 111.227 219.1C111.401 218.753 111.634 218.433 111.927 218.14C111.447 217.847 111.061 217.453 110.767 216.96C110.487 216.467 110.347 215.873 110.347 215.18C110.347 214.393 110.514 213.74 110.847 213.22C111.181 212.7 111.634 212.313 112.207 212.06C112.794 211.793 113.441 211.66 114.147 211.66H114.487C114.754 211.66 115.014 211.68 115.267 211.72C115.521 211.747 115.761 211.793 115.987 211.86H119.607V213.82L117.607 213.5C117.807 213.713 117.961 213.98 118.067 214.3C118.187 214.607 118.247 214.987 118.247 215.44C118.247 216.12 118.074 216.707 117.727 217.2C117.394 217.68 116.941 218.053 116.367 218.32C115.807 218.573 115.181 218.7 114.487 218.7H114.147C113.881 218.7 113.627 218.68 113.387 218.64C113.241 218.8 113.134 218.967 113.067 219.14C113.001 219.3 112.967 219.453 112.967 219.6C112.967 220.067 113.267 220.3 113.867 220.3H116.307C117.227 220.3 117.967 220.54 118.527 221.02C119.101 221.487 119.387 222.153 119.387 223.02ZM114.487 216.82C114.901 216.82 115.261 216.68 115.567 216.4C115.887 216.12 116.047 215.713 116.047 215.18C116.047 214.647 115.887 214.24 115.567 213.96C115.261 213.68 114.901 213.54 114.487 213.54H114.147C113.721 213.54 113.347 213.68 113.027 213.96C112.721 214.24 112.567 214.647 112.567 215.18C112.567 215.713 112.721 216.12 113.027 216.4C113.347 216.68 113.721 216.82 114.147 216.82H114.487ZM129.472 219.7V222H120.772V219.9L126.452 210.7H120.972V208.4H129.272V210.5L123.592 219.7H129.472ZM133.873 214.98V222H131.573V211.86H133.753V213.2C134.379 212.653 134.959 212.26 135.493 212.02C136.026 211.78 136.573 211.66 137.133 211.66C138.373 211.66 139.219 212.207 139.673 213.3C140.339 212.713 140.959 212.293 141.533 212.04C142.106 211.787 142.686 211.66 143.273 211.66C144.206 211.66 144.919 211.973 145.413 212.6C145.906 213.213 146.153 214.08 146.153 215.2V222H143.853V215.48C143.853 214.36 143.426 213.8 142.573 213.8C142.239 213.8 141.873 213.88 141.473 214.04C141.073 214.2 140.586 214.513 140.013 214.98V222H137.713V215.48C137.713 214.36 137.286 213.8 136.433 213.8C136.099 213.8 135.733 213.88 135.333 214.04C134.933 214.2 134.446 214.513 133.873 214.98ZM157.69 216.64C157.69 218.507 157.25 219.9 156.37 220.82C155.49 221.74 154.25 222.2 152.65 222.2C152.09 222.2 151.51 222.133 150.91 222C150.31 221.867 149.637 221.627 148.89 221.28L149.75 219.22C150.35 219.5 150.877 219.7 151.33 219.82C151.797 219.927 152.217 219.98 152.59 219.98C153.43 219.98 154.103 219.727 154.61 219.22C155.13 218.713 155.39 217.853 155.39 216.64V215.92C154.937 216.333 154.457 216.64 153.95 216.84C153.457 217.04 152.957 217.14 152.45 217.14C151.663 217.14 150.97 216.96 150.37 216.6C149.783 216.24 149.33 215.74 149.01 215.1C148.69 214.46 148.53 213.72 148.53 212.88V212.48C148.53 211.733 148.71 211.033 149.07 210.38C149.43 209.727 149.943 209.2 150.61 208.8C151.277 208.4 152.07 208.2 152.99 208.2C154.47 208.2 155.623 208.7 156.45 209.7C157.277 210.7 157.69 212.073 157.69 213.82V216.64ZM150.87 212.88C150.87 213.493 151.037 214 151.37 214.4C151.717 214.787 152.197 214.98 152.81 214.98C153.757 214.98 154.617 214.62 155.39 213.9V213.82C155.39 212.673 155.177 211.82 154.75 211.26C154.337 210.7 153.737 210.42 152.95 210.42C152.297 210.42 151.783 210.633 151.41 211.06C151.05 211.487 150.87 211.96 150.87 212.48V212.88ZM164.677 223C164.237 224.227 163.677 225.107 162.997 225.64C162.317 226.187 161.383 226.46 160.197 226.46V224.16C160.903 224.133 161.457 223.973 161.857 223.68C162.27 223.4 162.577 223.007 162.777 222.5L162.957 222.04L159.337 211.86H161.617L163.357 216.92L164.037 219.06L164.697 216.92L166.357 211.86H168.637L164.677 223ZM173.257 222H170.857V208.4H173.257V222ZM186.009 221.12C185.676 221.32 185.123 221.553 184.349 221.82C183.589 222.073 182.696 222.2 181.669 222.2C180.509 222.2 179.536 221.96 178.749 221.48C177.976 221 177.389 220.34 176.989 219.5C176.589 218.66 176.389 217.7 176.389 216.62V213.76C176.389 212.653 176.589 211.687 176.989 210.86C177.389 210.02 177.983 209.367 178.769 208.9C179.569 208.433 180.569 208.2 181.769 208.2C182.356 208.2 182.963 208.267 183.589 208.4C184.216 208.52 184.903 208.747 185.649 209.08L184.909 211.18C184.256 210.927 183.689 210.747 183.209 210.64C182.743 210.52 182.276 210.46 181.809 210.46C180.769 210.46 180.016 210.76 179.549 211.36C179.083 211.947 178.849 212.747 178.849 213.76V216.62C178.849 217.58 179.083 218.367 179.549 218.98C180.029 219.593 180.776 219.9 181.789 219.9C182.096 219.9 182.429 219.873 182.789 219.82C183.149 219.767 183.496 219.693 183.829 219.6V216.62H181.629V214.52H186.009V221.12ZM196.02 216.78H191.46V222H189.06V208.4H196.62V210.7H191.46V214.48H196.02V216.78ZM83.9678 244V246H76.7278V244.2L81.0078 237.86H76.9278V235.86H83.7678V237.66L79.4878 244H83.9678ZM88.0006 240.34V241.52C88.0006 242.373 88.154 243.013 88.4606 243.44C88.7673 243.867 89.2606 244.08 89.9406 244.08C90.274 244.08 90.6473 244.04 91.0606 243.96C91.4873 243.867 91.9473 243.727 92.4406 243.54L93.1006 245.48C92.5006 245.72 91.934 245.9 91.4006 246.02C90.8673 246.14 90.3406 246.2 89.8206 246.2C88.4873 246.2 87.4673 245.773 86.7606 244.92C86.054 244.067 85.7006 242.933 85.7006 241.52V240.34C85.7006 238.913 86.054 237.78 86.7606 236.94C87.4673 236.087 88.4873 235.66 89.8206 235.66C90.3273 235.66 90.8406 235.72 91.3606 235.84C91.8806 235.96 92.4273 236.133 93.0006 236.36L92.3406 238.34C91.3806 237.967 90.5806 237.78 89.9406 237.78C89.2606 237.78 88.7673 237.993 88.4606 238.42C88.154 238.833 88.0006 239.473 88.0006 240.34ZM102.665 246H94.4255V244.1C94.4255 243.14 94.5522 242.34 94.8055 241.7C95.0588 241.047 95.3988 240.513 95.8255 240.1C96.2522 239.673 96.7188 239.333 97.2255 239.08L98.5855 238.4C99.1055 238.133 99.5255 237.853 99.8455 237.56C100.179 237.253 100.345 236.86 100.345 236.38V236.02C100.345 235.527 100.172 235.14 99.8255 234.86C99.4922 234.567 98.9522 234.42 98.2055 234.42C97.7522 234.42 97.2922 234.487 96.8255 234.62C96.3722 234.753 95.8188 234.94 95.1655 235.18L94.4255 233.12C95.1722 232.787 95.8522 232.553 96.4655 232.42C97.0922 232.273 97.6988 232.2 98.2855 232.2C99.3655 232.2 100.225 232.373 100.865 232.72C101.519 233.067 101.985 233.533 102.265 234.12C102.559 234.693 102.705 235.327 102.705 236.02V236.38C102.705 237.1 102.559 237.713 102.265 238.22C101.985 238.727 101.612 239.153 101.145 239.5C100.679 239.847 100.172 240.153 99.6255 240.42L98.2655 241.1C97.7722 241.34 97.4055 241.673 97.1655 242.1C96.9388 242.527 96.8122 243.073 96.7855 243.74H102.665V246ZM115.123 232.4L110.803 246H108.343L104.003 232.4H106.643L108.703 239.24L109.643 242.76L110.643 239.22L112.683 232.4H115.123ZM126.303 237.76V240.62C126.303 242.353 125.896 243.72 125.083 244.72C124.269 245.707 123.076 246.2 121.503 246.2C119.929 246.2 118.736 245.707 117.923 244.72C117.109 243.72 116.703 242.353 116.703 240.62V237.76C116.703 236.027 117.109 234.667 117.923 233.68C118.736 232.693 119.929 232.2 121.503 232.2C123.076 232.2 124.269 232.693 125.083 233.68C125.896 234.667 126.303 236.027 126.303 237.76ZM123.883 237.76C123.883 235.533 123.089 234.42 121.503 234.42C120.689 234.42 120.089 234.7 119.703 235.26C119.316 235.82 119.123 236.653 119.123 237.76V240.62C119.123 241.727 119.316 242.567 119.703 243.14C120.089 243.7 120.689 243.98 121.503 243.98C123.089 243.98 123.883 242.86 123.883 240.62V237.76ZM130.95 240.34V241.52C130.95 242.373 131.103 243.013 131.41 243.44C131.717 243.867 132.21 244.08 132.89 244.08C133.223 244.08 133.597 244.04 134.01 243.96C134.437 243.867 134.897 243.727 135.39 243.54L136.05 245.48C135.45 245.72 134.883 245.9 134.35 246.02C133.817 246.14 133.29 246.2 132.77 246.2C131.437 246.2 130.417 245.773 129.71 244.92C129.003 244.067 128.65 242.933 128.65 241.52V240.34C128.65 238.913 129.003 237.78 129.71 236.94C130.417 236.087 131.437 235.66 132.77 235.66C133.277 235.66 133.79 235.72 134.31 235.84C134.83 235.96 135.377 236.133 135.95 236.36L135.29 238.34C134.33 237.967 133.53 237.78 132.89 237.78C132.21 237.78 131.717 237.993 131.41 238.42C131.103 238.833 130.95 239.473 130.95 240.34ZM150.775 235.86L148.175 246H145.675L143.995 238.38L142.215 246H139.715L137.115 235.86H139.475L140.455 239.88L141.135 243.54L142.855 235.86H145.175L146.955 243.62L147.595 239.9L148.555 235.86H150.775ZM153.061 238.72V236.72H161.341V238.72H153.061ZM153.061 242.7V240.7H161.341V242.7H153.061ZM164.819 238.72V236.72H173.099V238.72H164.819ZM164.819 242.7V240.7H173.099V242.7H164.819Z" fill="#923A5F"/>
<path d="M55.0122 128H125.641V129H55.0122V128ZM131.695 128H195.861V129H131.695V128ZM57.9126 152H80.1484V153H57.9126V152ZM91.0781 152H192.96V153H91.0781V152ZM55.9106 176H79.3828V177H55.9106V176ZM85.7266 176H86.25V177H85.7266V176ZM97.1797 176H172.969V177H97.1797V176ZM183.898 176H194.945V177H183.898V176ZM54.4556 200H77.6328V201H54.4556V200ZM88.5547 200H196.418V201H88.5547V200ZM53.8794 224H109.32V225H53.8794V224ZM120.25 224H159.195V225H120.25V224ZM165.25 224H197.28V225H165.25V224ZM76.0278 248H174.839V249H76.0278V248Z" fill="#923A5F"/>
<path d="M128.101 54.4687C137.361 16.0105 157.312 -0.00990245 166.129 -3.2128C172.529 -4.76732 186.106 -4.9199 189.21 6.90592C193.089 21.6882 176.541 25.0138 168.229 28.5621C161.58 31.4007 164.215 39.3856 166.363 43.0232C170.849 50.6173 155.511 55.4993 149.246 57.0713C142.828 58.7636 147.707 69.0914 147.947 70.3453C148.933 75.5132 149.364 81.239 142.278 82.341C135.192 83.443 131.924 101.728 131.175 110.732L122.231 109.578C122.507 106.661 122.248 103.755 121.682 101.022M128.101 54.4687C123.906 35.7252 110.075 -1.87561 88.3104 -2.33135C61.1045 -2.90103 67.6101 23.5615 84.5256 27.004C98.0579 29.7581 94.6747 38.1673 91.4442 43.8586C89.2889 47.6556 91.915 53.6646 107.82 61.0933C110.538 62.3625 111.05 64.1568 107.905 73.1602C107.585 75.6392 108.165 80.7547 115.652 86.8868C117.445 89.3629 120.378 94.7342 121.682 101.022M128.101 54.4687C125.926 61.6235 122.211 88.3768 121.682 101.022" stroke="url(#pattern0_89_49)" stroke-width="7"/>
</g>
<defs>
<clipPath id="clip0_89_49">
<rect width="250" height="250" fill="white"/>
</clipPath>
<pattern id="pattern0_89_49" patternUnits="userSpaceOnUse" patternTransform="matrix(-26.7572 -3.45216 -12.2839 95.2108 195.357 -2.68059)" preserveAspectRatio="none" viewBox="0.259766 2.6001 26.979 96" width="1" height="1">
<g id="pattern0_89_49_inner">
<path d="M4.73 8.85V10H0.38V8.95L3.22 4.35H0.48V3.2H4.63V4.25L1.79 8.85H4.73ZM9.60789 10H5.48789V9.05C5.48789 8.57 5.55122 8.17 5.67789 7.85C5.80456 7.52333 5.97456 7.25667 6.18789 7.05C6.40122 6.83667 6.63456 6.66667 6.88789 6.54L7.56789 6.2C7.82789 6.06667 8.03789 5.92667 8.19789 5.78C8.36456 5.62667 8.44789 5.43 8.44789 5.19V5.01C8.44789 4.76333 8.36122 4.57 8.18789 4.43C8.02122 4.28333 7.75122 4.21 7.37789 4.21C7.15122 4.21 6.92122 4.24333 6.68789 4.31C6.46122 4.37667 6.18456 4.47 5.85789 4.59L5.48789 3.56C5.86122 3.39333 6.20122 3.27667 6.50789 3.21C6.82122 3.13667 7.12456 3.1 7.41789 3.1C7.95789 3.1 8.38789 3.18667 8.70789 3.36C9.03456 3.53333 9.26789 3.76667 9.40789 4.06C9.55456 4.34667 9.62789 4.66333 9.62789 5.01V5.19C9.62789 5.55 9.55456 5.85667 9.40789 6.11C9.26789 6.36333 9.08122 6.57667 8.84789 6.75C8.61456 6.92333 8.36122 7.07667 8.08789 7.21L7.40789 7.55C7.16122 7.67 6.97789 7.83667 6.85789 8.05C6.74456 8.26333 6.68122 8.53667 6.66789 8.87H9.60789V10ZM13.8967 10V9.31C13.5901 9.61667 13.3234 9.82667 13.0967 9.94C12.8767 10.0467 12.6467 10.1 12.4067 10.1C11.8601 10.1 11.4334 9.89333 11.1267 9.48C10.8267 9.06667 10.6767 8.48667 10.6767 7.74V7.2C10.6767 6.47333 10.8601 5.89667 11.2267 5.47C11.5934 5.04333 12.1234 4.83 12.8167 4.83C12.9901 4.83 13.1601 4.84667 13.3267 4.88C13.5001 4.91333 13.6701 4.96 13.8367 5.02V2.6H14.9867V10H13.8967ZM11.8567 7.74C11.8567 8.18667 11.9301 8.51333 12.0767 8.72C12.2301 8.92667 12.4434 9.03 12.7167 9.03C12.8701 9.03 13.0334 8.98667 13.2067 8.9C13.3801 8.80667 13.5901 8.63333 13.8367 8.38V6.06C13.5101 5.92667 13.2101 5.86 12.9367 5.86C12.5501 5.86 12.2734 5.98 12.1067 6.22C11.9401 6.46 11.8567 6.78667 11.8567 7.2V7.74ZM19.7513 9V10H16.1313V9.1L18.2713 5.93H16.2313V4.93H19.6513V5.83L17.5113 9H19.7513ZM22.2377 10H21.0377V3.2H22.2377V10ZM5.44 21.56C5.27333 21.66 4.99667 21.7767 4.61 21.91C4.23 22.0367 3.78333 22.1 3.27 22.1C2.69 22.1 2.20333 21.98 1.81 21.74C1.42333 21.5 1.13 21.17 0.93 20.75C0.73 20.33 0.63 19.85 0.63 19.31V17.88C0.63 17.3267 0.73 16.8433 0.93 16.43C1.13 16.01 1.42667 15.6833 1.82 15.45C2.22 15.2167 2.72 15.1 3.32 15.1C3.61333 15.1 3.91667 15.1333 4.23 15.2C4.54333 15.26 4.88667 15.3733 5.26 15.54L4.89 16.59C4.56333 16.4633 4.28 16.3733 4.04 16.32C3.80667 16.26 3.57333 16.23 3.34 16.23C2.82 16.23 2.44333 16.38 2.21 16.68C1.97667 16.9733 1.86 17.3733 1.86 17.88V19.31C1.86 19.79 1.97667 20.1833 2.21 20.49C2.45 20.7967 2.82333 20.95 3.33 20.95C3.48333 20.95 3.65 20.9367 3.83 20.91C4.01 20.8833 4.18333 20.8467 4.35 20.8V19.31H3.25V18.26H5.44V21.56ZM6.12539 16.17L7.85539 15.2H8.85539V22H7.67539V16.52L6.65539 17.08L6.12539 16.17ZM13.0649 17.9C12.8983 17.9 12.7083 17.94 12.4949 18.02C12.2816 18.1 12.0283 18.2567 11.7349 18.49V22H10.5849V14.6H11.7349V17.56C12.0416 17.3 12.3283 17.1133 12.5949 17C12.8616 16.8867 13.1349 16.83 13.4149 16.83C13.9016 16.83 14.2716 16.9867 14.5249 17.3C14.7783 17.6067 14.9049 18.04 14.9049 18.6V22H13.7549V18.74C13.7549 18.18 13.5249 17.9 13.0649 17.9ZM20.6948 19.73C20.6948 20.4567 20.5148 21.0333 20.1548 21.46C19.7948 21.8867 19.2681 22.1 18.5748 22.1C17.8548 22.1 17.1248 21.9 16.3848 21.5V14.6H17.5348V17.6C17.8414 17.2933 18.1048 17.09 18.3248 16.99C18.5448 16.8833 18.7714 16.83 19.0048 16.83C19.5381 16.83 19.9514 17.0367 20.2448 17.45C20.5448 17.8633 20.6948 18.4433 20.6948 19.19V19.73ZM18.6948 17.9C18.5348 17.9 18.3648 17.9467 18.1848 18.04C18.0114 18.1333 17.7948 18.3167 17.5348 18.59V20.86C17.7148 20.9333 17.8781 20.9867 18.0248 21.02C18.1781 21.0533 18.3281 21.07 18.4748 21.07C18.8481 21.07 19.1148 20.95 19.2748 20.71C19.4348 20.47 19.5148 20.1433 19.5148 19.73V19.19C19.5148 18.7433 19.4414 18.4167 19.2948 18.21C19.1548 18.0033 18.9548 17.9 18.6948 17.9ZM23.2005 15.97H21.9905V14.78H23.2005V15.97ZM23.1705 22H22.0205V16.93H23.1705V22ZM7.1 28.93L5.8 34H4.55L3.71 30.19L2.82 34H1.57L0.27 28.93H1.45L1.94 30.94L2.28 32.77L3.14 28.93H4.3L5.19 32.81L5.51 30.95L5.99 28.93H7.1ZM12.373 34.51C12.373 35.05 12.1597 35.47 11.733 35.77C11.313 36.0767 10.7264 36.23 9.97305 36.23C9.61971 36.23 9.24638 36.19 8.85305 36.11C8.45971 36.03 8.09638 35.8967 7.76305 35.71L8.09305 34.8C8.41305 34.96 8.72971 35.0733 9.04305 35.14C9.35638 35.2133 9.66305 35.25 9.96305 35.25C10.383 35.25 10.703 35.1933 10.923 35.08C11.143 34.9667 11.253 34.8167 11.253 34.63C11.253 34.3433 11.083 34.2 10.743 34.2H9.54305C9.21638 34.2 8.95305 34.1467 8.75305 34.04C8.55305 33.9333 8.40638 33.7967 8.31305 33.63C8.21971 33.4567 8.17305 33.2767 8.17305 33.09C8.17305 32.8967 8.21305 32.7167 8.29305 32.55C8.37971 32.3767 8.49638 32.2167 8.64305 32.07C8.40305 31.9233 8.20971 31.7267 8.06305 31.48C7.92305 31.2333 7.85305 30.9367 7.85305 30.59C7.85305 30.1967 7.93638 29.87 8.10305 29.61C8.26971 29.35 8.49638 29.1567 8.78305 29.03C9.07638 28.8967 9.39971 28.83 9.75305 28.83H9.92305C10.0564 28.83 10.1864 28.84 10.313 28.86C10.4397 28.8733 10.5597 28.8967 10.673 28.93H12.483V29.91L11.483 29.75C11.583 29.8567 11.6597 29.99 11.713 30.15C11.773 30.3033 11.803 30.4933 11.803 30.72C11.803 31.06 11.7164 31.3533 11.543 31.6C11.3764 31.84 11.1497 32.0267 10.863 32.16C10.583 32.2867 10.2697 32.35 9.92305 32.35H9.75305C9.61971 32.35 9.49305 32.34 9.37305 32.32C9.29971 32.4 9.24638 32.4833 9.21305 32.57C9.17971 32.65 9.16305 32.7267 9.16305 32.8C9.16305 33.0333 9.31305 33.15 9.61305 33.15H10.833C11.293 33.15 11.663 33.27 11.943 33.51C12.2297 33.7433 12.373 34.0767 12.373 34.51ZM9.92305 31.41C10.1297 31.41 10.3097 31.34 10.463 31.2C10.623 31.06 10.703 30.8567 10.703 30.59C10.703 30.3233 10.623 30.12 10.463 29.98C10.3097 29.84 10.1297 29.77 9.92305 29.77H9.75305C9.53971 29.77 9.35305 29.84 9.19305 29.98C9.03971 30.12 8.96305 30.3233 8.96305 30.59C8.96305 30.8567 9.03971 31.06 9.19305 31.2C9.35305 31.34 9.53971 31.41 9.75305 31.41H9.92305ZM16.4455 34V33.31C16.1389 33.6167 15.8722 33.8267 15.6455 33.94C15.4255 34.0467 15.1955 34.1 14.9555 34.1C14.4089 34.1 13.9822 33.8933 13.6755 33.48C13.3755 33.0667 13.2255 32.4867 13.2255 31.74V31.2C13.2255 30.4733 13.4089 29.8967 13.7755 29.47C14.1422 29.0433 14.6722 28.83 15.3655 28.83C15.5389 28.83 15.7089 28.8467 15.8755 28.88C16.0489 28.9133 16.2189 28.96 16.3855 29.02V26.6H17.5355V34H16.4455ZM14.4055 31.74C14.4055 32.1867 14.4789 32.5133 14.6255 32.72C14.7789 32.9267 14.9922 33.03 15.2655 33.03C15.4189 33.03 15.5822 32.9867 15.7555 32.9C15.9289 32.8067 16.1389 32.6333 16.3855 32.38V30.06C16.0589 29.9267 15.7589 29.86 15.4855 29.86C15.0989 29.86 14.8222 29.98 14.6555 30.22C14.4889 30.46 14.4055 30.7867 14.4055 31.2V31.74ZM22.8501 34H18.7301V33.05C18.7301 32.57 18.7934 32.17 18.9201 31.85C19.0467 31.5233 19.2167 31.2567 19.4301 31.05C19.6434 30.8367 19.8767 30.6667 20.1301 30.54L20.8101 30.2C21.0701 30.0667 21.2801 29.9267 21.4401 29.78C21.6067 29.6267 21.6901 29.43 21.6901 29.19V29.01C21.6901 28.7633 21.6034 28.57 21.4301 28.43C21.2634 28.2833 20.9934 28.21 20.6201 28.21C20.3934 28.21 20.1634 28.2433 19.9301 28.31C19.7034 28.3767 19.4267 28.47 19.1001 28.59L18.7301 27.56C19.1034 27.3933 19.4434 27.2767 19.7501 27.21C20.0634 27.1367 20.3667 27.1 20.6601 27.1C21.2001 27.1 21.6301 27.1867 21.9501 27.36C22.2767 27.5333 22.5101 27.7667 22.6501 28.06C22.7967 28.3467 22.8701 28.6633 22.8701 29.01V29.19C22.8701 29.55 22.7967 29.8567 22.6501 30.11C22.5101 30.3633 22.3234 30.5767 22.0901 30.75C21.8567 30.9233 21.6034 31.0767 21.3301 31.21L20.6501 31.55C20.4034 31.67 20.2201 31.8367 20.1001 32.05C19.9867 32.2633 19.9234 32.5367 19.9101 32.87H22.8501V34ZM4.42 43.39H2.14V46H0.94V39.2H4.72V40.35H2.14V42.24H4.42V43.39ZM8.87234 45V46H5.25234V45.1L7.39234 41.93H5.35234V40.93H8.77234V41.83L6.63234 45H8.87234ZM12.9788 46V45.31C12.6721 45.6167 12.4054 45.8267 12.1788 45.94C11.9588 46.0467 11.7288 46.1 11.4888 46.1C10.9421 46.1 10.5154 45.8933 10.2088 45.48C9.90875 45.0667 9.75875 44.4867 9.75875 43.74V43.2C9.75875 42.4733 9.94208 41.8967 10.3088 41.47C10.6754 41.0433 11.2054 40.83 11.8988 40.83C12.0721 40.83 12.2421 40.8467 12.4088 40.88C12.5821 40.9133 12.7521 40.96 12.9188 41.02V38.6H14.0688V46H12.9788ZM10.9388 43.74C10.9388 44.1867 11.0121 44.5133 11.1588 44.72C11.3121 44.9267 11.5254 45.03 11.7988 45.03C11.9521 45.03 12.1154 44.9867 12.2888 44.9C12.4621 44.8067 12.6721 44.6333 12.9188 44.38V42.06C12.5921 41.9267 12.2921 41.86 12.0188 41.86C11.6321 41.86 11.3554 41.98 11.1888 42.22C11.0221 42.46 10.9388 42.7867 10.9388 43.2V43.74ZM20.3033 45.56C20.1366 45.66 19.8599 45.7767 19.4733 45.91C19.0933 46.0367 18.6466 46.1 18.1333 46.1C17.5533 46.1 17.0666 45.98 16.6733 45.74C16.2866 45.5 15.9933 45.17 15.7933 44.75C15.5933 44.33 15.4933 43.85 15.4933 43.31V41.88C15.4933 41.3267 15.5933 40.8433 15.7933 40.43C15.9933 40.01 16.2899 39.6833 16.6833 39.45C17.0833 39.2167 17.5833 39.1 18.1833 39.1C18.4766 39.1 18.7799 39.1333 19.0933 39.2C19.4066 39.26 19.7499 39.3733 20.1233 39.54L19.7533 40.59C19.4266 40.4633 19.1433 40.3733 18.9033 40.32C18.6699 40.26 18.4366 40.23 18.2033 40.23C17.6833 40.23 17.3066 40.38 17.0733 40.68C16.8399 40.9733 16.7233 41.3733 16.7233 41.88V43.31C16.7233 43.79 16.8399 44.1833 17.0733 44.49C17.3133 44.7967 17.6866 44.95 18.1933 44.95C18.3466 44.95 18.5133 44.9367 18.6933 44.91C18.8733 44.8833 19.0466 44.8467 19.2133 44.8V43.31H18.1133V42.26H20.3033V45.56ZM26.5887 39.2L24.4287 46H23.1987L21.0287 39.2H22.3487L23.3787 42.62L23.8487 44.38L24.3487 42.61L25.3687 39.2H26.5887ZM3.82 58L2.57 55.89C2.37 56.09 2.16 56.29 1.94 56.49V58H0.79V50.6H1.94V55.22C2.32 54.8333 2.64667 54.4633 2.92 54.11C3.2 53.75 3.45667 53.3567 3.69 52.93H5.01C4.79 53.33 4.55 53.71 4.29 54.07C4.03 54.43 3.74333 54.7933 3.43 55.16L5.21 58H3.82ZM7.46227 58H6.26227V51.2H7.46227V58ZM13.0784 58V55.13H10.5384V58H9.33844V51.2H10.5384V53.98H13.0784V51.2H14.2784V58H13.0784ZM15.9748 56.57V50.6H17.1248V56.57C17.1248 56.67 17.1482 56.7667 17.1948 56.86C17.2482 56.9467 17.3482 56.99 17.4948 56.99H17.6548V58.05H17.3748C16.9948 58.05 16.7048 57.9767 16.5048 57.83C16.3048 57.6833 16.1648 57.4967 16.0848 57.27C16.0115 57.0433 15.9748 56.81 15.9748 56.57ZM22.7985 52.93L20.9985 58H19.9485L18.1485 52.93H19.3085L20.1785 55.46L20.5085 56.51L20.8285 55.46L21.6585 52.93H22.7985ZM25.1088 58H23.9088V51.2H25.1088V58ZM4.68 70V67.13H2.14V70H0.94V63.2H2.14V65.98H4.68V63.2H5.88V70H4.68ZM8.95641 67.5V70H7.75641V63.2H10.0264C10.7131 63.2 11.2397 63.3767 11.6064 63.73C11.9797 64.0767 12.1664 64.5433 12.1664 65.13V65.56C12.1664 65.9467 12.0831 66.2867 11.9164 66.58C11.7497 66.8733 11.5097 67.0967 11.1964 67.25C11.7431 68.1833 12.2097 69.1 12.5964 70H11.2264C10.8931 69.1667 10.4964 68.3333 10.0364 67.5H8.95641ZM10.0264 64.3H8.95641V66.4H10.0264C10.3197 66.4 10.5431 66.3267 10.6964 66.18C10.8564 66.0267 10.9364 65.82 10.9364 65.56V65.13C10.9364 64.8767 10.8564 64.6767 10.6964 64.53C10.5431 64.3767 10.3197 64.3 10.0264 64.3ZM15.8702 70.1C15.7035 70.1 15.5335 70.0833 15.3602 70.05C15.1935 70.0167 15.0235 69.97 14.8502 69.91V72.13H13.7002V64.93H14.7902V65.62C15.1035 65.3067 15.3702 65.0967 15.5902 64.99C15.8102 64.8833 16.0402 64.83 16.2802 64.83C16.8335 64.83 17.2602 65.0367 17.5602 65.45C17.8602 65.8633 18.0102 66.4433 18.0102 67.19V67.73C18.0102 68.4567 17.8268 69.0333 17.4602 69.46C17.0935 69.8867 16.5635 70.1 15.8702 70.1ZM15.9702 65.9C15.8168 65.9 15.6535 65.9467 15.4802 66.04C15.3135 66.1267 15.1035 66.2967 14.8502 66.55V68.87C15.1768 69.0033 15.4768 69.07 15.7502 69.07C16.1368 69.07 16.4135 68.95 16.5802 68.71C16.7468 68.47 16.8302 68.1433 16.8302 67.73V67.19C16.8302 66.7433 16.7535 66.4167 16.6002 66.21C16.4535 66.0033 16.2435 65.9 15.9702 65.9ZM23.6147 67.73C23.6147 68.4567 23.4347 69.0333 23.0747 69.46C22.7147 69.8867 22.188 70.1 21.4947 70.1C20.7747 70.1 20.0447 69.9 19.3047 69.5V62.6H20.4547V65.6C20.7614 65.2933 21.0247 65.09 21.2447 64.99C21.4647 64.8833 21.6914 64.83 21.9247 64.83C22.458 64.83 22.8714 65.0367 23.1647 65.45C23.4647 65.8633 23.6147 66.4433 23.6147 67.19V67.73ZM21.6147 65.9C21.4547 65.9 21.2847 65.9467 21.1047 66.04C20.9314 66.1333 20.7147 66.3167 20.4547 66.59V68.86C20.6347 68.9333 20.798 68.9867 20.9447 69.02C21.098 69.0533 21.248 69.07 21.3947 69.07C21.768 69.07 22.0347 68.95 22.1947 68.71C22.3547 68.47 22.4347 68.1433 22.4347 67.73V67.19C22.4347 66.7433 22.3614 66.4167 22.2147 66.21C22.0747 66.0033 21.8747 65.9 21.6147 65.9ZM2.08 77.89L2.46 80.41L3.82 75.2H4.9L6.25 80.37L6.67 77.89L7.19 75.2H8.41L6.88 82H5.65L4.34 76.94L3.02 82H1.79L0.26 75.2H1.56L2.08 77.89ZM9.45188 75.2H10.6819V79.56C10.6819 80 10.7785 80.3467 10.9719 80.6C11.1652 80.8467 11.4752 80.97 11.9019 80.97C12.3285 80.97 12.6385 80.8467 12.8319 80.6C13.0252 80.3467 13.1219 80 13.1219 79.56V75.2H14.3519V79.56C14.3519 80.3267 14.1485 80.9433 13.7419 81.41C13.3352 81.87 12.7219 82.1 11.9019 82.1C11.0752 82.1 10.4585 81.87 10.0519 81.41C9.65188 80.9433 9.45188 80.3267 9.45188 79.56V75.2ZM20.1367 82.51C20.1367 83.05 19.9234 83.47 19.4967 83.77C19.0767 84.0767 18.4901 84.23 17.7367 84.23C17.3834 84.23 17.0101 84.19 16.6167 84.11C16.2234 84.03 15.8601 83.8967 15.5267 83.71L15.8567 82.8C16.1767 82.96 16.4934 83.0733 16.8067 83.14C17.1201 83.2133 17.4267 83.25 17.7267 83.25C18.1467 83.25 18.4667 83.1933 18.6867 83.08C18.9067 82.9667 19.0167 82.8167 19.0167 82.63C19.0167 82.3433 18.8467 82.2 18.5067 82.2H17.3067C16.9801 82.2 16.7167 82.1467 16.5167 82.04C16.3167 81.9333 16.1701 81.7967 16.0767 81.63C15.9834 81.4567 15.9367 81.2767 15.9367 81.09C15.9367 80.8967 15.9767 80.7167 16.0567 80.55C16.1434 80.3767 16.2601 80.2167 16.4067 80.07C16.1667 79.9233 15.9734 79.7267 15.8267 79.48C15.6867 79.2333 15.6167 78.9367 15.6167 78.59C15.6167 78.1967 15.7001 77.87 15.8667 77.61C16.0334 77.35 16.2601 77.1567 16.5467 77.03C16.8401 76.8967 17.1634 76.83 17.5167 76.83H17.6867C17.8201 76.83 17.9501 76.84 18.0767 76.86C18.2034 76.8733 18.3234 76.8967 18.4367 76.93H20.2467V77.91L19.2467 77.75C19.3467 77.8567 19.4234 77.99 19.4767 78.15C19.5367 78.3033 19.5667 78.4933 19.5667 78.72C19.5667 79.06 19.4801 79.3533 19.3067 79.6C19.1401 79.84 18.9134 80.0267 18.6267 80.16C18.3467 80.2867 18.0334 80.35 17.6867 80.35H17.5167C17.3834 80.35 17.2567 80.34 17.1367 80.32C17.0634 80.4 17.0101 80.4833 16.9767 80.57C16.9434 80.65 16.9267 80.7267 16.9267 80.8C16.9267 81.0333 17.0767 81.15 17.3767 81.15H18.5967C19.0567 81.15 19.4267 81.27 19.7067 81.51C19.9934 81.7433 20.1367 82.0767 20.1367 82.51ZM17.6867 79.41C17.8934 79.41 18.0734 79.34 18.2267 79.2C18.3867 79.06 18.4667 78.8567 18.4667 78.59C18.4667 78.3233 18.3867 78.12 18.2267 77.98C18.0734 77.84 17.8934 77.77 17.6867 77.77H17.5167C17.3034 77.77 17.1167 77.84 16.9567 77.98C16.8034 78.12 16.7267 78.3233 16.7267 78.59C16.7267 78.8567 16.8034 79.06 16.9567 79.2C17.1167 79.34 17.3034 79.41 17.5167 79.41H17.6867ZM24.2092 82V81.31C23.9026 81.6167 23.6359 81.8267 23.4092 81.94C23.1892 82.0467 22.9592 82.1 22.7192 82.1C22.1726 82.1 21.7459 81.8933 21.4392 81.48C21.1392 81.0667 20.9892 80.4867 20.9892 79.74V79.2C20.9892 78.4733 21.1726 77.8967 21.5392 77.47C21.9059 77.0433 22.4359 76.83 23.1292 76.83C23.3026 76.83 23.4726 76.8467 23.6392 76.88C23.8126 76.9133 23.9826 76.96 24.1492 77.02V74.6H25.2992V82H24.2092ZM22.1692 79.74C22.1692 80.1867 22.2426 80.5133 22.3892 80.72C22.5426 80.9267 22.7559 81.03 23.0292 81.03C23.1826 81.03 23.3459 80.9867 23.5192 80.9C23.6926 80.8067 23.9026 80.6333 24.1492 80.38V78.06C23.8226 77.9267 23.5226 77.86 23.2492 77.86C22.8626 77.86 22.5859 77.98 22.4192 78.22C22.2526 78.46 22.1692 78.7867 22.1692 79.2V79.74ZM5.44 93.56C5.27333 93.66 4.99667 93.7767 4.61 93.91C4.23 94.0367 3.78333 94.1 3.27 94.1C2.69 94.1 2.20333 93.98 1.81 93.74C1.42333 93.5 1.13 93.17 0.93 92.75C0.73 92.33 0.63 91.85 0.63 91.31V89.88C0.63 89.3267 0.73 88.8433 0.93 88.43C1.13 88.01 1.42667 87.6833 1.82 87.45C2.22 87.2167 2.72 87.1 3.32 87.1C3.61333 87.1 3.91667 87.1333 4.23 87.2C4.54333 87.26 4.88667 87.3733 5.26 87.54L4.89 88.59C4.56333 88.4633 4.28 88.3733 4.04 88.32C3.80667 88.26 3.57333 88.23 3.34 88.23C2.82 88.23 2.44333 88.38 2.21 88.68C1.97667 88.9733 1.86 89.3733 1.86 89.88V91.31C1.86 91.79 1.97667 92.1833 2.21 92.49C2.45 92.7967 2.82333 92.95 3.33 92.95C3.48333 92.95 3.65 92.9367 3.83 92.91C4.01 92.8833 4.18333 92.8467 4.35 92.8V91.31H3.25V90.26H5.44V93.56ZM9.29539 89.9C9.12872 89.9 8.93872 89.94 8.72539 90.02C8.51206 90.1 8.25872 90.2567 7.96539 90.49V94H6.81539V86.6H7.96539V89.56C8.27206 89.3 8.55872 89.1133 8.82539 89C9.09206 88.8867 9.36539 88.83 9.64539 88.83C10.1321 88.83 10.5021 88.9867 10.7554 89.3C11.0087 89.6067 11.1354 90.04 11.1354 90.6V94H9.98539V90.74C9.98539 90.18 9.75539 89.9 9.29539 89.9ZM16.5388 88.93L14.7388 94H13.6888L11.8888 88.93H13.0488L13.9188 91.46L14.2488 92.51L14.5688 91.46L15.3988 88.93H16.5388Z" fill="#7ED957"/>
</g>
</pattern></defs>
</svg>
