<svg width="250" height="250" viewBox="0 0 250 250" fill="none" xmlns="http://www.w3.org/2000/svg">
<g clip-path="url(#clip0_89_55)">
<path d="M64.872 121.384C66.1093 121.384 66.728 120.925 66.728 120.008C66.728 119.635 66.632 119.341 66.44 119.128C66.2587 118.915 65.9173 118.728 65.416 118.568L64.104 118.136C62.536 117.624 61.752 116.595 61.752 115.048C61.752 114.152 62.0293 113.416 62.584 112.84C63.1493 112.253 64.0293 111.96 65.224 111.96C65.7253 111.96 66.2213 112.019 66.712 112.136C67.2027 112.243 67.7253 112.419 68.28 112.664L67.688 114.312C67.176 114.109 66.7387 113.965 66.376 113.88C66.024 113.784 65.6613 113.736 65.288 113.736C64.7973 113.736 64.408 113.827 64.12 114.008C63.8427 114.179 63.704 114.493 63.704 114.952C63.704 115.293 63.8 115.576 63.992 115.8C64.1947 116.013 64.5253 116.195 64.984 116.344L66.296 116.776C67.0853 117.043 67.6773 117.432 68.072 117.944C68.4773 118.445 68.68 119.112 68.68 119.944C68.68 120.904 68.376 121.683 67.768 122.28C67.16 122.867 66.2053 123.16 64.904 123.16C64.392 123.16 63.8587 123.101 63.304 122.984C62.76 122.856 62.1627 122.643 61.512 122.344L62.104 120.696C62.7013 120.952 63.208 121.133 63.624 121.24C64.0507 121.336 64.4667 121.384 64.872 121.384ZM77.9853 122.296C77.7186 122.456 77.2759 122.643 76.6573 122.856C76.0493 123.059 75.3346 123.16 74.5133 123.16C73.5853 123.16 72.8066 122.968 72.1773 122.584C71.5586 122.2 71.0893 121.672 70.7693 121C70.4493 120.328 70.2893 119.56 70.2893 118.696V116.408C70.2893 115.523 70.4493 114.749 70.7693 114.088C71.0893 113.416 71.5639 112.893 72.1933 112.52C72.8333 112.147 73.6333 111.96 74.5933 111.96C75.0626 111.96 75.5479 112.013 76.0493 112.12C76.5506 112.216 77.0999 112.397 77.6973 112.664L77.1053 114.344C76.5826 114.141 76.1293 113.997 75.7453 113.912C75.3719 113.816 74.9986 113.768 74.6253 113.768C73.7933 113.768 73.1906 114.008 72.8173 114.488C72.4439 114.957 72.2573 115.597 72.2573 116.408V118.696C72.2573 119.464 72.4439 120.093 72.8173 120.584C73.2013 121.075 73.7986 121.32 74.6093 121.32C74.8546 121.32 75.1213 121.299 75.4093 121.256C75.6973 121.213 75.9746 121.155 76.2413 121.08V118.696H74.4813V117.016H77.9853V122.296ZM88.0419 112.12L84.5859 123H82.6179L79.1459 112.12H81.2579L82.9059 117.592L83.6579 120.408L84.4579 117.576L86.0899 112.12H88.0419ZM91.3173 121.56C91.7119 121.56 92.0373 121.496 92.2933 121.368C92.5493 121.229 92.6773 121.027 92.6773 120.76C92.6773 120.525 92.5919 120.344 92.4213 120.216C92.2613 120.077 91.9679 119.955 91.5413 119.848L90.6293 119.608C89.9253 119.427 89.4026 119.123 89.0613 118.696C88.7306 118.269 88.5653 117.763 88.5653 117.176C88.5653 116.483 88.8053 115.901 89.2853 115.432C89.7653 114.963 90.5066 114.728 91.5093 114.728C91.9146 114.728 92.3413 114.776 92.7893 114.872C93.2373 114.968 93.7066 115.123 94.1973 115.336L93.6693 116.904C93.2213 116.691 92.8159 116.541 92.4533 116.456C92.0906 116.371 91.7706 116.328 91.4933 116.328C90.7359 116.328 90.3573 116.584 90.3573 117.096C90.3573 117.299 90.4213 117.459 90.5493 117.576C90.6879 117.693 90.9386 117.8 91.3013 117.896L92.2133 118.136C92.9919 118.339 93.5573 118.648 93.9093 119.064C94.2719 119.48 94.4533 120.003 94.4533 120.632C94.4533 121.379 94.1973 121.987 93.6853 122.456C93.1839 122.925 92.3893 123.16 91.3013 123.16C90.3733 123.16 89.3973 122.947 88.3733 122.52L88.8693 121C89.3706 121.203 89.8239 121.347 90.2293 121.432C90.6346 121.517 90.9973 121.56 91.3173 121.56ZM103.174 119.368C103.174 120.531 102.886 121.453 102.31 122.136C101.734 122.819 100.891 123.16 99.7821 123.16C98.6301 123.16 97.4621 122.84 96.2781 122.2V111.16H98.1181V115.96C98.6088 115.469 99.0301 115.144 99.3821 114.984C99.7341 114.813 100.097 114.728 100.47 114.728C101.323 114.728 101.985 115.059 102.454 115.72C102.934 116.381 103.174 117.309 103.174 118.504V119.368ZM99.9741 116.44C99.7181 116.44 99.4461 116.515 99.1581 116.664C98.8808 116.813 98.5341 117.107 98.1181 117.544V121.176C98.4061 121.293 98.6675 121.379 98.9021 121.432C99.1475 121.485 99.3875 121.512 99.6221 121.512C100.219 121.512 100.646 121.32 100.902 120.936C101.158 120.552 101.286 120.029 101.286 119.368V118.504C101.286 117.789 101.169 117.267 100.934 116.936C100.71 116.605 100.39 116.44 99.9741 116.44ZM112.735 122.296C112.469 122.456 112.026 122.643 111.407 122.856C110.799 123.059 110.085 123.16 109.263 123.16C108.335 123.16 107.557 122.968 106.927 122.584C106.309 122.2 105.839 121.672 105.519 121C105.199 120.328 105.039 119.56 105.039 118.696V116.408C105.039 115.523 105.199 114.749 105.519 114.088C105.839 113.416 106.314 112.893 106.943 112.52C107.583 112.147 108.383 111.96 109.343 111.96C109.813 111.96 110.298 112.013 110.799 112.12C111.301 112.216 111.85 112.397 112.447 112.664L111.855 114.344C111.333 114.141 110.879 113.997 110.495 113.912C110.122 113.816 109.749 113.768 109.375 113.768C108.543 113.768 107.941 114.008 107.567 114.488C107.194 114.957 107.007 115.597 107.007 116.408V118.696C107.007 119.464 107.194 120.093 107.567 120.584C107.951 121.075 108.549 121.32 109.359 121.32C109.605 121.32 109.871 121.299 110.159 121.256C110.447 121.213 110.725 121.155 110.991 121.08V118.696H109.231V117.016H112.735V122.296ZM121.816 120.04C121.816 120.627 121.677 121.155 121.4 121.624C121.133 122.093 120.723 122.467 120.168 122.744C119.613 123.021 118.909 123.16 118.056 123.16C117.213 123.16 116.531 123.032 116.008 122.776C115.485 122.509 115.101 122.163 114.856 121.736C114.611 121.309 114.488 120.835 114.488 120.312C114.488 119.789 114.611 119.309 114.856 118.872C115.101 118.424 115.507 118.013 116.072 117.64C115.624 117.341 115.277 116.973 115.032 116.536C114.797 116.099 114.68 115.587 114.68 115C114.68 114.435 114.813 113.923 115.08 113.464C115.347 113.005 115.736 112.643 116.248 112.376C116.76 112.099 117.373 111.96 118.088 111.96C118.856 111.96 119.501 112.088 120.024 112.344C120.547 112.6 120.936 112.947 121.192 113.384C121.459 113.811 121.592 114.291 121.592 114.824C121.592 115.293 121.48 115.736 121.256 116.152C121.043 116.557 120.68 116.936 120.168 117.288C121.267 117.907 121.816 118.824 121.816 120.04ZM117.944 116.472L118.728 116.712C119.091 116.403 119.341 116.12 119.48 115.864C119.629 115.597 119.704 115.325 119.704 115.048C119.704 114.621 119.565 114.285 119.288 114.04C119.021 113.784 118.637 113.656 118.136 113.656C117.635 113.656 117.245 113.779 116.968 114.024C116.701 114.269 116.568 114.605 116.568 115.032C116.568 115.704 117.027 116.184 117.944 116.472ZM116.376 120.04C116.376 120.467 116.531 120.813 116.84 121.08C117.149 121.336 117.587 121.464 118.152 121.464C118.707 121.464 119.139 121.336 119.448 121.08C119.768 120.824 119.928 120.483 119.928 120.056C119.928 119.736 119.811 119.448 119.576 119.192C119.352 118.925 118.963 118.707 118.408 118.536L117.544 118.264C117.149 118.584 116.856 118.883 116.664 119.16C116.472 119.437 116.376 119.731 116.376 120.04ZM130.625 123.816C130.625 124.68 130.284 125.352 129.601 125.832C128.929 126.323 127.99 126.568 126.785 126.568C126.22 126.568 125.622 126.504 124.993 126.376C124.364 126.248 123.782 126.035 123.249 125.736L123.777 124.28C124.289 124.536 124.796 124.717 125.297 124.824C125.798 124.941 126.289 125 126.769 125C127.441 125 127.953 124.909 128.305 124.728C128.657 124.547 128.833 124.307 128.833 124.008C128.833 123.549 128.561 123.32 128.017 123.32H126.097C125.574 123.32 125.153 123.235 124.833 123.064C124.513 122.893 124.278 122.675 124.129 122.408C123.98 122.131 123.905 121.843 123.905 121.544C123.905 121.235 123.969 120.947 124.097 120.68C124.236 120.403 124.422 120.147 124.657 119.912C124.273 119.677 123.964 119.363 123.729 118.968C123.505 118.573 123.393 118.099 123.393 117.544C123.393 116.915 123.526 116.392 123.793 115.976C124.06 115.56 124.422 115.251 124.881 115.048C125.35 114.835 125.868 114.728 126.433 114.728H126.705C126.918 114.728 127.126 114.744 127.329 114.776C127.532 114.797 127.724 114.835 127.905 114.888H130.801V116.456L129.201 116.2C129.361 116.371 129.484 116.584 129.569 116.84C129.665 117.085 129.713 117.389 129.713 117.752C129.713 118.296 129.574 118.765 129.297 119.16C129.03 119.544 128.668 119.843 128.209 120.056C127.761 120.259 127.26 120.36 126.705 120.36H126.433C126.22 120.36 126.017 120.344 125.825 120.312C125.708 120.44 125.622 120.573 125.569 120.712C125.516 120.84 125.489 120.963 125.489 121.08C125.489 121.453 125.729 121.64 126.209 121.64H128.161C128.897 121.64 129.489 121.832 129.937 122.216C130.396 122.589 130.625 123.123 130.625 123.816ZM126.705 118.856C127.036 118.856 127.324 118.744 127.569 118.52C127.825 118.296 127.953 117.971 127.953 117.544C127.953 117.117 127.825 116.792 127.569 116.568C127.324 116.344 127.036 116.232 126.705 116.232H126.433C126.092 116.232 125.793 116.344 125.537 116.568C125.292 116.792 125.169 117.117 125.169 117.544C125.169 117.971 125.292 118.296 125.537 118.52C125.793 118.744 126.092 118.856 126.433 118.856H126.705ZM137.141 123V121.896C136.65 122.387 136.224 122.723 135.861 122.904C135.509 123.075 135.141 123.16 134.757 123.16C133.882 123.16 133.2 122.829 132.709 122.168C132.229 121.507 131.989 120.579 131.989 119.384V118.52C131.989 117.357 132.282 116.435 132.869 115.752C133.456 115.069 134.304 114.728 135.413 114.728C135.69 114.728 135.962 114.755 136.229 114.808C136.506 114.861 136.778 114.936 137.045 115.032V111.16H138.885V123H137.141ZM133.877 119.384C133.877 120.099 133.994 120.621 134.229 120.952C134.474 121.283 134.816 121.448 135.253 121.448C135.498 121.448 135.76 121.379 136.037 121.24C136.314 121.091 136.65 120.813 137.045 120.408V116.696C136.522 116.483 136.042 116.376 135.605 116.376C134.986 116.376 134.544 116.568 134.277 116.952C134.01 117.336 133.877 117.859 133.877 118.52V119.384ZM145.388 116.44C145.122 116.44 144.818 116.504 144.476 116.632C144.135 116.76 143.73 117.011 143.26 117.384V123H141.42V114.888H143.164V115.976C143.666 115.539 144.14 115.224 144.588 115.032C145.036 114.829 145.49 114.728 145.948 114.728C146.727 114.728 147.319 114.979 147.724 115.48C148.13 115.971 148.332 116.664 148.332 117.56V123H146.492V117.784C146.492 116.888 146.124 116.44 145.388 116.44ZM61.416 142.16V140.32C62.28 140.32 62.904 140.16 63.288 139.84C63.6827 139.509 63.88 138.928 63.88 138.096V131.12H65.8V138.096C65.8 138.928 65.672 139.648 65.416 140.256C65.16 140.864 64.712 141.333 64.072 141.664C63.4427 141.995 62.5573 142.16 61.416 142.16ZM74.5714 133.888L71.6914 142H70.0114L67.1314 133.888H68.9874L70.3794 137.936L70.9074 139.616L71.4194 137.936L72.7474 133.888H74.5714ZM82.6198 140.16V142H76.3478V131.12H78.2678V140.16H82.6198ZM86.1051 132.352H84.1691V130.448H86.1051V132.352ZM86.0571 142H84.2171V133.888H86.0571V142ZM95.4081 139.536H94.2721V142H92.4161V139.536H87.7441V137.984C88.2241 137.237 88.6988 136.48 89.1681 135.712C89.6481 134.933 90.0961 134.16 90.5121 133.392C90.9281 132.613 91.2695 131.856 91.5361 131.12H93.6321C93.2375 132.208 92.7041 133.328 92.0321 134.48C91.3601 135.621 90.6668 136.736 89.9521 137.824H92.4161V136.176H94.2721V137.824H95.4081V139.536ZM101.862 142V140.928C101.371 141.355 100.912 141.669 100.486 141.872C100.059 142.064 99.627 142.16 99.1896 142.16C98.4643 142.16 97.9043 141.915 97.5096 141.424C97.115 140.923 96.9176 140.224 96.9176 139.328V133.888H98.7576V139.104C98.7576 140 99.0883 140.448 99.7496 140.448C100.016 140.448 100.304 140.384 100.614 140.256C100.934 140.128 101.318 139.883 101.766 139.52V133.888H103.606V142H101.862ZM108.299 142H106.379V131.12H108.299V142ZM117.605 140.16V142H111.301V131.12H117.445V132.96H113.221V135.568H116.965V137.408H113.221V140.16H117.605ZM123.607 135.44C123.34 135.44 123.036 135.504 122.695 135.632C122.354 135.76 121.948 136.011 121.479 136.384V142H119.639V130.16H121.479V134.896C121.97 134.48 122.428 134.181 122.855 134C123.282 133.819 123.719 133.728 124.167 133.728C124.946 133.728 125.538 133.979 125.943 134.48C126.348 134.971 126.551 135.664 126.551 136.56V142H124.711V136.784C124.711 135.888 124.343 135.44 123.607 135.44ZM135.196 133.888L132.316 142H130.636L127.756 133.888H129.612L131.004 137.936L131.532 139.616L132.044 137.936L133.372 133.888H135.196ZM141.329 142V140.896C140.838 141.387 140.411 141.723 140.049 141.904C139.697 142.075 139.329 142.16 138.945 142.16C138.07 142.16 137.387 141.829 136.897 141.168C136.417 140.507 136.177 139.579 136.177 138.384V137.52C136.177 136.357 136.47 135.435 137.057 134.752C137.643 134.069 138.491 133.728 139.601 133.728C139.878 133.728 140.15 133.755 140.417 133.808C140.694 133.861 140.966 133.936 141.233 134.032V130.16H143.073V142H141.329ZM138.065 138.384C138.065 139.099 138.182 139.621 138.417 139.952C138.662 140.283 139.003 140.448 139.441 140.448C139.686 140.448 139.947 140.379 140.225 140.24C140.502 140.091 140.838 139.813 141.233 139.408V135.696C140.71 135.483 140.23 135.376 139.793 135.376C139.174 135.376 138.731 135.568 138.465 135.952C138.198 136.336 138.065 136.859 138.065 137.52V138.384ZM65.544 161.8C65.192 162.781 64.744 163.485 64.2 163.912C63.656 164.349 62.9093 164.568 61.96 164.568V162.728C62.5253 162.707 62.968 162.579 63.288 162.344C63.6187 162.12 63.864 161.805 64.024 161.4L64.168 161.032L61.272 152.888H63.096L64.488 156.936L65.032 158.648L65.56 156.936L66.888 152.888H68.712L65.544 161.8ZM70.4884 161V150.12H73.8004C74.611 150.12 75.251 150.237 75.7204 150.472C76.2004 150.707 76.5417 151.037 76.7444 151.464C76.9577 151.891 77.0644 152.392 77.0644 152.968V153.416C77.0644 154.259 76.7017 154.904 75.9764 155.352C76.4884 155.555 76.8777 155.848 77.1444 156.232C77.411 156.616 77.5444 157.075 77.5444 157.608V158.056C77.5444 158.643 77.4377 159.16 77.2244 159.608C77.011 160.045 76.659 160.387 76.1684 160.632C75.6777 160.877 75.0217 161 74.2004 161H70.4884ZM73.8004 151.88H72.4084V154.6H73.8004C74.227 154.6 74.547 154.504 74.7604 154.312C74.9844 154.109 75.0964 153.837 75.0964 153.496V152.968C75.0964 152.627 74.9844 152.36 74.7604 152.168C74.547 151.976 74.227 151.88 73.8004 151.88ZM74.2004 156.36H72.4084V159.24H74.2004C74.6484 159.24 74.9897 159.133 75.2244 158.92C75.459 158.707 75.5764 158.419 75.5764 158.056V157.528C75.5764 157.165 75.459 156.883 75.2244 156.68C74.9897 156.467 74.6484 156.36 74.2004 156.36ZM83.5758 154.44C83.3091 154.44 83.0051 154.504 82.6638 154.632C82.3224 154.76 81.9171 155.011 81.4478 155.384V161H79.6078V149.16H81.4478V153.896C81.9384 153.48 82.3971 153.181 82.8238 153C83.2504 152.819 83.6878 152.728 84.1358 152.728C84.9144 152.728 85.5064 152.979 85.9118 153.48C86.3171 153.971 86.5198 154.664 86.5198 155.56V161H84.6798V155.784C84.6798 154.888 84.3118 154.44 83.5758 154.44ZM90.3595 156.472V157.416C90.3595 158.099 90.4822 158.611 90.7275 158.952C90.9728 159.293 91.3675 159.464 91.9115 159.464C92.1782 159.464 92.4768 159.432 92.8075 159.368C93.1488 159.293 93.5168 159.181 93.9115 159.032L94.4395 160.584C93.9595 160.776 93.5062 160.92 93.0795 161.016C92.6528 161.112 92.2315 161.16 91.8155 161.16C90.7488 161.16 89.9328 160.819 89.3675 160.136C88.8022 159.453 88.5195 158.547 88.5195 157.416V156.472C88.5195 155.331 88.8022 154.424 89.3675 153.752C89.9328 153.069 90.7488 152.728 91.8155 152.728C92.2208 152.728 92.6315 152.776 93.0475 152.872C93.4635 152.968 93.9008 153.107 94.3595 153.288L93.8315 154.872C93.0635 154.573 92.4235 154.424 91.9115 154.424C91.3675 154.424 90.9728 154.595 90.7275 154.936C90.4822 155.267 90.3595 155.779 90.3595 156.472ZM97.9634 155.384V161H96.1234V152.888H97.8674V153.96C98.3687 153.523 98.8327 153.208 99.2594 153.016C99.686 152.824 100.123 152.728 100.571 152.728C101.563 152.728 102.241 153.165 102.603 154.04C103.137 153.571 103.633 153.235 104.091 153.032C104.55 152.829 105.014 152.728 105.483 152.728C106.23 152.728 106.801 152.979 107.195 153.48C107.59 153.971 107.787 154.664 107.787 155.56V161H105.947V155.784C105.947 154.888 105.606 154.44 104.923 154.44C104.657 154.44 104.363 154.504 104.043 154.632C103.723 154.76 103.334 155.011 102.875 155.384V161H101.035V155.784C101.035 154.888 100.694 154.44 100.011 154.44C99.7447 154.44 99.4514 154.504 99.1314 154.632C98.8114 154.76 98.422 155.011 97.9634 155.384ZM110.201 150.12H112.169V157.096C112.169 157.8 112.324 158.355 112.633 158.76C112.942 159.155 113.438 159.352 114.121 159.352C114.804 159.352 115.3 159.155 115.609 158.76C115.918 158.355 116.073 157.8 116.073 157.096V150.12H118.041V157.096C118.041 158.323 117.716 159.309 117.065 160.056C116.414 160.792 115.433 161.16 114.121 161.16C112.798 161.16 111.812 160.792 111.161 160.056C110.521 159.309 110.201 158.323 110.201 157.096V150.12ZM127.297 161.816C127.297 162.68 126.956 163.352 126.273 163.832C125.601 164.323 124.662 164.568 123.457 164.568C122.892 164.568 122.294 164.504 121.665 164.376C121.036 164.248 120.454 164.035 119.921 163.736L120.449 162.28C120.961 162.536 121.468 162.717 121.969 162.824C122.47 162.941 122.961 163 123.441 163C124.113 163 124.625 162.909 124.977 162.728C125.329 162.547 125.505 162.307 125.505 162.008C125.505 161.549 125.233 161.32 124.689 161.32H122.769C122.246 161.32 121.825 161.235 121.505 161.064C121.185 160.893 120.95 160.675 120.801 160.408C120.652 160.131 120.577 159.843 120.577 159.544C120.577 159.235 120.641 158.947 120.769 158.68C120.908 158.403 121.094 158.147 121.329 157.912C120.945 157.677 120.636 157.363 120.401 156.968C120.177 156.573 120.065 156.099 120.065 155.544C120.065 154.915 120.198 154.392 120.465 153.976C120.732 153.56 121.094 153.251 121.553 153.048C122.022 152.835 122.54 152.728 123.105 152.728H123.377C123.59 152.728 123.798 152.744 124.001 152.776C124.204 152.797 124.396 152.835 124.577 152.888H127.473V154.456L125.873 154.2C126.033 154.371 126.156 154.584 126.241 154.84C126.337 155.085 126.385 155.389 126.385 155.752C126.385 156.296 126.246 156.765 125.969 157.16C125.702 157.544 125.34 157.843 124.881 158.056C124.433 158.259 123.932 158.36 123.377 158.36H123.105C122.892 158.36 122.689 158.344 122.497 158.312C122.38 158.44 122.294 158.573 122.241 158.712C122.188 158.84 122.161 158.963 122.161 159.08C122.161 159.453 122.401 159.64 122.881 159.64H124.833C125.569 159.64 126.161 159.832 126.609 160.216C127.068 160.589 127.297 161.123 127.297 161.816ZM123.377 156.856C123.708 156.856 123.996 156.744 124.241 156.52C124.497 156.296 124.625 155.971 124.625 155.544C124.625 155.117 124.497 154.792 124.241 154.568C123.996 154.344 123.708 154.232 123.377 154.232H123.105C122.764 154.232 122.465 154.344 122.209 154.568C121.964 154.792 121.841 155.117 121.841 155.544C121.841 155.971 121.964 156.296 122.209 156.52C122.465 156.744 122.764 156.856 123.105 156.856H123.377ZM135.221 160.536C134.666 160.76 134.144 160.92 133.653 161.016C133.162 161.112 132.698 161.16 132.261 161.16C131.056 161.16 130.144 160.819 129.525 160.136C128.906 159.453 128.597 158.547 128.597 157.416V156.456C128.597 155.699 128.736 155.043 129.013 154.488C129.29 153.933 129.685 153.501 130.197 153.192C130.709 152.883 131.312 152.728 132.005 152.728C132.57 152.728 133.098 152.845 133.589 153.08C134.09 153.304 134.496 153.661 134.805 154.152C135.125 154.632 135.285 155.251 135.285 156.008C135.285 156.232 135.269 156.472 135.237 156.728C135.205 156.973 135.152 157.235 135.077 157.512H130.373C130.394 158.173 130.56 158.669 130.869 159C131.178 159.331 131.674 159.496 132.357 159.496C132.72 159.496 133.093 159.453 133.477 159.368C133.872 159.283 134.277 159.155 134.693 158.984L135.221 160.536ZM132.005 154.28C131.514 154.28 131.13 154.44 130.853 154.76C130.586 155.069 130.432 155.517 130.389 156.104H133.461C133.472 156.051 133.477 156.003 133.477 155.96C133.477 155.907 133.477 155.859 133.477 155.816C133.477 155.304 133.333 154.92 133.045 154.664C132.757 154.408 132.41 154.28 132.005 154.28ZM139.469 154.424L140.077 158.456L142.253 150.12H143.981L146.141 158.392L146.813 154.424L147.645 150.12H149.597L147.149 161H145.181L143.085 152.904L140.973 161H139.005L136.557 150.12H138.637L139.469 154.424ZM69.064 175.712C69.064 177.205 68.712 178.32 68.008 179.056C67.304 179.792 66.312 180.16 65.032 180.16C64.584 180.16 64.12 180.107 63.64 180C63.16 179.893 62.6213 179.701 62.024 179.424L62.712 177.776C63.192 178 63.6133 178.16 63.976 178.256C64.3493 178.341 64.6853 178.384 64.984 178.384C65.656 178.384 66.1947 178.181 66.6 177.776C67.016 177.371 67.224 176.683 67.224 175.712V175.136C66.8613 175.467 66.4773 175.712 66.072 175.872C65.6773 176.032 65.2773 176.112 64.872 176.112C64.2427 176.112 63.688 175.968 63.208 175.68C62.7387 175.392 62.376 174.992 62.12 174.48C61.864 173.968 61.736 173.376 61.736 172.704V172.384C61.736 171.787 61.88 171.227 62.168 170.704C62.456 170.181 62.8667 169.76 63.4 169.44C63.9333 169.12 64.568 168.96 65.304 168.96C66.488 168.96 67.4107 169.36 68.072 170.16C68.7333 170.96 69.064 172.059 69.064 173.456V175.712ZM63.608 172.704C63.608 173.195 63.7413 173.6 64.008 173.92C64.2853 174.229 64.6693 174.384 65.16 174.384C65.9173 174.384 66.6053 174.096 67.224 173.52V173.456C67.224 172.539 67.0533 171.856 66.712 171.408C66.3813 170.96 65.9013 170.736 65.272 170.736C64.7493 170.736 64.3387 170.907 64.04 171.248C63.752 171.589 63.608 171.968 63.608 172.384V172.704ZM70.2694 170.672L73.0374 169.12H74.6374V180H72.7494V171.232L71.1174 172.128L70.2694 170.672ZM83.9166 178.16V180H77.6446V169.12H79.5646V178.16H83.9166ZM87.402 170.352H85.466V168.448H87.402V170.352ZM87.354 180H85.514V171.888H87.354V180ZM96.705 177.536H95.569V180H93.713V177.536H89.041V175.984C89.521 175.237 89.9957 174.48 90.465 173.712C90.945 172.933 91.393 172.16 91.809 171.392C92.225 170.613 92.5663 169.856 92.833 169.12H94.929C94.5343 170.208 94.001 171.328 93.329 172.48C92.657 173.621 91.9637 174.736 91.249 175.824H93.713V174.176H95.569V175.824H96.705V177.536ZM103.159 180V178.928C102.668 179.355 102.209 179.669 101.783 179.872C101.356 180.064 100.924 180.16 100.487 180.16C99.7612 180.16 99.2012 179.915 98.8065 179.424C98.4118 178.923 98.2145 178.224 98.2145 177.328V171.888H100.055V177.104C100.055 178 100.385 178.448 101.047 178.448C101.313 178.448 101.601 178.384 101.911 178.256C102.231 178.128 102.615 177.883 103.063 177.52V171.888H104.903V180H103.159ZM109.596 180H107.676V169.12H109.596V180ZM118.39 180L117.718 177.872H113.99L113.318 180H111.414L115.046 169.12H116.742L120.39 180H118.39ZM115.03 174.544L114.534 176.112H117.158L116.662 174.544L115.862 171.792L115.03 174.544ZM122.095 174.176V172.576H128.719V174.176H122.095ZM122.095 177.36V175.76H128.719V177.36H122.095ZM131.501 174.176V172.576H138.125V174.176H131.501ZM131.501 177.36V175.76H138.125V177.36H131.501Z" fill="#923A5F"/>
<path d="M100.627 42.3764C106.118 19.5731 117.947 10.074 123.175 8.17493C126.97 7.25321 135.021 7.16274 136.861 14.1747C139.161 22.9396 129.349 24.9115 124.421 27.0154C120.478 28.6985 122.04 33.433 123.314 35.5899C125.974 40.0927 116.879 42.9874 113.165 43.9195C109.359 44.9229 112.253 51.0467 112.394 51.7902C112.979 54.8544 113.235 58.2494 109.033 58.9028C104.832 59.5563 102.894 70.3979 102.45 75.737L97.1466 75.0528C97.3104 73.3233 97.1568 71.6001 96.8209 69.9795M100.627 42.3764C98.1399 31.2627 89.939 8.9678 77.0339 8.69758C60.9025 8.35979 64.76 24.0504 74.7898 26.0916C82.8136 27.7246 80.8076 32.7107 78.892 36.0853C77.6141 38.3366 79.1712 41.8996 88.602 46.3043C90.2132 47.0569 90.5171 48.1208 88.652 53.4592C88.4623 54.9291 88.8062 57.9623 93.2458 61.5982C94.3091 63.0664 96.0479 66.2512 96.8209 69.9795M100.627 42.3764C99.3375 46.6187 97.1347 62.4817 96.8209 69.9795" stroke="#7ED957" stroke-width="4"/>
<circle cx="104.005" cy="145.741" r="64.4592" transform="rotate(13.7306 104.005 145.741)" stroke="#923A5F" stroke-width="20"/>
<path d="M230.235 236.914C233.612 239.62 234.155 244.552 231.449 247.929V247.929C228.742 251.306 223.81 251.849 220.433 249.143L150.998 193.491L160.8 181.262L230.235 236.914Z" fill="#923A5F"/>
</g>
<defs>
<clipPath id="clip0_89_55">
<rect width="250" height="250" fill="white"/>
</clipPath>
</defs>
</svg>
