<svg width="250" height="250" viewBox="0 0 250 250" fill="none" xmlns="http://www.w3.org/2000/svg">
<g clip-path="url(#clip0_31_1135)">
<path d="M127.366 26.7725C125.579 10.2862 118.144 2.55536 114.649 0.750727C112.072 -0.238916 106.435 -1.03063 104.51 3.71965C102.105 9.65751 108.807 11.9279 112.072 13.8489C114.684 15.3858 113.16 18.5643 112.072 19.9614C109.8 22.8782 115.915 25.7307 118.435 26.7204C121.013 27.7682 118.43 31.8004 118.263 32.3089C117.576 34.4046 117.09 36.7621 119.977 37.6004C122.864 38.4386 123.242 46.2161 123.07 50H126.85C126.892 48.7724 127.156 47.578 127.538 46.4721M127.366 26.7725C130.115 19.2047 137.883 4.31347 146.956 5.29147C158.298 6.51397 154.174 17.1672 146.956 17.6911C141.182 18.1103 142.138 21.788 143.176 24.3275C143.868 26.0218 142.454 28.3793 135.443 30.6147C134.245 30.9966 133.935 31.7151 134.76 35.6271C134.76 36.675 134.245 38.7707 130.803 40.9186C129.924 41.8519 128.417 43.9278 127.538 46.4721M127.366 26.7725C127.887 29.8639 127.996 41.1863 127.538 46.4721" stroke="#7ED957" stroke-width="4"/>
<path d="M125 52.5C178.848 52.5 222.5 96.1522 222.5 150C222.5 203.848 178.848 247.5 125 247.5C71.1522 247.5 27.5 203.848 27.5 150C27.5 96.1522 71.1522 52.5 125 52.5Z" stroke="#923A5F" stroke-width="5"/>
<path d="M125 52.5C135.83 52.5 146.467 62.3755 154.54 80.3154C162.507 98.0207 167.5 122.656 167.5 150C167.5 177.344 162.507 201.979 154.54 219.685C146.467 237.625 135.83 247.5 125 247.5C114.17 247.5 103.533 237.625 95.46 219.685C87.4926 201.979 82.5 177.344 82.5 150C82.5 122.656 87.4926 98.0207 95.46 80.3154C103.533 62.3755 114.17 52.5 125 52.5Z" stroke="#923A5F" stroke-width="5"/>
<path d="M203 211.725C184.66 198.908 154.363 189.725 124 189.725C94.1327 189.725 67.3236 197.581 49 210.038" stroke="#923A5F" stroke-width="5"/>
<path d="M203 89C184.66 101.817 154.363 111 124 111C94.1327 111 67.3236 103.144 49 90.6873" stroke="#923A5F" stroke-width="5"/>
<path d="M28 150H221" stroke="#923A5F" stroke-width="5"/>
<path d="M125 52L125 250" stroke="#923A5F" stroke-width="5"/>
<rect x="32" y="117" width="187" height="65" rx="20" fill="#923A5F"/>
<path d="M71.9827 149.184L74.2867 162.384L81.8227 135.36H85.7107L93.2467 162.24L95.6467 149.184L98.4787 135.36H102.607L95.4067 168H91.1827L83.6947 141.312L76.2067 168H71.9347L64.7827 135.36H69.1507L71.9827 149.184ZM113.28 149.184L115.584 162.384L123.12 135.36H127.008L134.544 162.24L136.944 149.184L139.776 135.36H143.904L136.704 168H132.48L124.992 141.312L117.504 168H113.232L106.08 135.36H110.448L113.28 149.184ZM154.576 149.184L156.88 162.384L164.416 135.36H168.304L175.84 162.24L178.24 149.184L181.072 135.36H185.2L178 168H173.776L166.288 141.312L158.8 168H154.528L147.376 135.36H151.744L154.576 149.184Z" fill="white"/>
</g>
<defs>
<clipPath id="clip0_31_1135">
<rect width="250" height="250" fill="white"/>
</clipPath>
</defs>
</svg>
