<svg width="250" height="250" viewBox="0 0 250 250" fill="none" xmlns="http://www.w3.org/2000/svg">
<g clip-path="url(#clip0_46_169)">
<ellipse cx="146" cy="249" rx="10" ry="3" fill="#D47CA1"/>
<ellipse cx="82" cy="245.5" rx="10" ry="3.5" fill="#D47CA1"/>
<ellipse cx="37" cy="248" rx="10" ry="3" fill="#9D4067"/>
<path d="M37.4031 74.5034C33.7341 51.0338 41.0359 37.6107 45.1454 33.833C48.3037 31.5188 55.7188 28.3577 60.1124 34.2261C65.6044 41.5616 57.2806 47.1594 53.5274 51.0144C50.5249 54.0985 53.7874 57.9387 55.794 59.4733C59.983 62.677 52.6777 68.8654 49.5977 71.1585C46.461 73.5531 51.4884 78.1867 51.905 78.8293C53.6222 81.4776 55.1613 84.5617 51.5239 86.7798C47.8864 88.9978 53.9506 92.5611 55.5887 97.7346L53.4076 115.184L46.721 106.458C46.2089 104.775 45.4055 103.218 44.4728 101.828M37.4031 74.5034C30.8367 65.0381 14.6922 47.2772 2.64595 51.9555C-12.4118 57.8035 -2.82119 71.0347 7.24378 69.1149C15.2958 67.579 15.3527 73.0187 14.875 76.9134C14.5562 79.5117 17.3644 82.2559 27.782 82.7801C29.5619 82.8697 30.2513 83.7507 30.5738 89.4666C30.9624 90.9167 32.4445 93.6279 37.9482 95.339C39.4956 96.3086 42.3268 98.629 44.4728 101.828M37.4031 74.5034C37.8375 78.9722 41.8861 94.6809 44.4728 101.828" stroke="#7ED957" stroke-width="5"/>
<path d="M90.0514 212.642C90.0514 212.642 77.1016 232.481 79.5502 239.86C79.6978 240.305 86.3421 251.923 91.5651 240.825L104.444 215.594L114.026 190.986C121.423 209.132 134.561 244.898 139.982 246.615C143.746 247.807 152.393 246.416 150.808 239.86C149.223 233.304 125.843 190.986 130.003 166.522C134.172 142.01 83.3148 86.4843 56.1702 92.4445L53 121.649L68.4546 129C66.9355 135.093 67.5906 148.045 68.4546 162.973C68.4546 162.973 65.213 180.23 68.4546 186.814C71.6962 193.398 87.5152 206.324 90.0514 206.483C91.2811 206.56 92.3916 205.68 92.9665 204.111L90.0514 212.642Z" fill="#923A5F"/>
<path d="M114.026 190.986C121.423 209.132 134.561 244.898 139.982 246.615C143.746 247.807 152.393 246.416 150.808 239.86C149.223 233.304 125.843 190.986 130.003 166.522C134.172 142.01 83.3148 86.4843 56.1702 92.4445L53 121.649L68.4546 129C66.9355 135.093 67.5906 148.045 68.4546 162.973C68.4546 162.973 65.213 180.23 68.4546 186.814C71.6962 193.398 87.5152 206.324 90.0514 206.483C91.3422 206.564 92.5016 205.59 93.0481 203.872M114.026 190.986C106.217 175.567 96.7166 174.071 90.6458 176.234M114.026 190.986L104.444 215.594L91.5651 240.825C86.3421 251.923 79.6978 240.305 79.5502 239.86C77.1016 232.481 90.0514 212.642 90.0514 212.642L93.0481 203.872M90.6458 176.234C88.6393 176.92 86.9394 177.976 85.6924 179.066C84.6303 179.832 85.6131 186.218 90.0514 192.576C93.3403 197.287 93.8438 201.369 93.0481 203.872M90.6458 176.234C92.6271 174.86 101.472 163.74 97.9054 156.389" stroke="white" stroke-width="2"/>
<path d="M181.084 7C195.008 7 210.278 12.5105 222.062 21.4414C233.852 30.3778 242 42.6147 242 56C242 69.3759 233.643 81.6131 221.736 90.5557C209.838 99.4917 194.566 105 181.084 105C165.685 105 150.125 99.4797 138.43 90.5605C126.729 81.6377 119 69.4032 119 56C119 42.5769 126.311 30.3448 137.779 21.4346C149.246 12.5256 164.8 7.00003 181.084 7Z" fill="#DDDDDD" stroke="#89244E" stroke-width="2"/>
<ellipse cx="21.3763" cy="22.6307" rx="21.3763" ry="22.6307" transform="matrix(0.949803 0.31285 -0.329554 0.944137 150.916 48)" fill="#E671A2"/>
<ellipse cx="17.8136" cy="19.1491" rx="17.8136" ry="19.1491" transform="matrix(0.949803 0.31285 -0.329554 0.944137 153.153 52.4039)" fill="black"/>
<ellipse cx="5.34407" cy="5.22248" rx="5.34407" ry="5.22248" transform="matrix(0.949803 0.31285 -0.329554 0.944137 167.052 61.1163)" fill="white"/>
</g>
<defs>
<clipPath id="clip0_46_169">
<rect width="250" height="250" fill="white"/>
</clipPath>
</defs>
</svg>
