<svg width="250" height="250" viewBox="0 0 250 250" fill="none" xmlns="http://www.w3.org/2000/svg">
<g clip-path="url(#clip0_88_657)">
<path d="M180.145 73.3642L177.487 79.4133L169.949 83.0041L161.532 79.3068L159.726 72.0584L163.291 63.9429L169.158 61.9486L177.574 65.6459L180.145 73.3642Z" fill="#7ED957" stroke="#7ED957"/>
<path d="M205.366 91.661L231.973 106.801C233.723 106.817 233.241 105.581 232.782 104.96L208.023 85.6119L180.145 73.3646L177.487 79.4137L205.366 91.661Z" fill="#7ED957"/>
<path d="M159.775 71.946L163.291 63.9432L150.716 53.2196L111.951 39.3272C105.336 36.6722 102.583 38.0354 102.033 39.0489C100.892 42.8359 98.34 51.1693 97.2563 54.2073C96.1726 57.2454 98.6858 58.8097 100.078 59.212L144.919 68.5573L159.775 71.946Z" fill="#7ED957"/>
<path d="M161.532 79.3072L169.948 83.0045L122.115 191.888L113.698 188.19L161.532 79.3072Z" fill="#7ED957"/>
<path d="M205.366 91.661L231.973 106.801C233.723 106.817 233.241 105.581 232.782 104.96L208.023 85.6119L180.145 73.3646L177.487 79.4137L205.366 91.661Z" stroke="#7ED957"/>
<path d="M159.775 71.946L163.291 63.9432L150.716 53.2196L111.951 39.3272C105.336 36.6722 102.583 38.0354 102.033 39.0489C100.892 42.8359 98.34 51.1693 97.2563 54.2073C96.1726 57.2454 98.6858 58.8097 100.078 59.212L144.919 68.5573L159.775 71.946Z" stroke="#7ED957"/>
<path d="M161.532 79.3072L169.948 83.0045L122.115 191.888L113.698 188.19L161.532 79.3072Z" stroke="#7ED957"/>
<path d="M48.8901 106.63C41.1261 80.8432 27.0783 70.7064 21.0249 68.8614C16.6616 68.0457 7.53226 68.4525 5.92076 76.6058C3.90637 86.7973 15.1598 88.435 20.887 90.5337C25.4687 92.2127 24.0182 97.7381 22.7202 100.291C20.0105 105.62 30.5128 108.361 34.7856 109.194C39.1663 110.103 36.3013 117.305 36.1907 118.166C35.7348 121.715 35.6749 125.622 40.4806 126.105C45.2864 126.587 49.3978 167.843 50.2616 173.934L52.6567 163.509L55.0432 143.86C54.7407 141.889 54.7982 139.904 55.0695 138.025M48.8901 106.63C50.9578 93.7348 58.7449 67.6621 73.3518 66.5339C91.6105 65.1237 88.2994 83.3516 77.0707 86.3271C68.0878 88.7076 70.6982 94.2951 73.0971 98.0413C74.6976 100.541 73.1737 104.723 62.7837 110.369C61.0085 111.334 60.7361 112.573 63.2106 118.573C63.5249 120.246 63.3401 123.744 58.5546 128.192C57.4488 129.943 55.6935 133.703 55.0695 138.025M48.8901 106.63C50.6384 111.411 54.207 129.452 55.0695 138.025" stroke="#7ED957" stroke-width="4"/>
<rect x="-1.19853" y="0.750684" width="50.9718" height="19.3925" rx="9.69623" transform="matrix(-0.974607 -0.223923 -0.223923 0.974607 164.666 173.409)" fill="#923A5F" stroke="white" stroke-width="2"/>
<rect x="-1.19853" y="0.750684" width="46.897" height="18.3738" rx="9.18688" transform="matrix(-0.974607 -0.223923 -0.223923 0.974607 154.535 199.303)" fill="#923A5F" stroke="white" stroke-width="2"/>
<rect x="-1.19853" y="0.750684" width="46.897" height="18.3738" rx="9.18688" transform="matrix(-0.974607 -0.223923 -0.223923 0.974607 159.487 186.852)" fill="#923A5F" stroke="white" stroke-width="2"/>
<rect x="-1.19853" y="0.750684" width="43.841" height="19.3925" rx="9.69623" transform="matrix(-0.974607 -0.223923 -0.223923 0.974607 164.801 154.626)" fill="#923A5F" stroke="white" stroke-width="2"/>
<path d="M73.73 148.953C70.7927 148.554 55.5613 163.115 53.5575 161.849L50.7547 174.048C52.1379 174.021 58.0904 196.65 64.9714 199.059C73.5726 202.071 82.9287 206.292 90.6501 210.137C96.8273 213.213 106.619 211.044 110.742 209.576C104.604 201.538 109.32 194.292 112.446 191.674C110.695 188.51 113.273 183.58 114.781 181.51C113.95 175.252 118.212 167.001 121.008 162.772C121.281 162.403 121.525 162.047 121.74 161.709L117.724 182.186C117.691 184.825 118.898 190.257 123.988 190.874C129.078 191.491 131.741 187.593 132.436 185.566C134.696 177.227 139.387 160.103 140.071 158.327C140.925 156.107 127.565 137.851 122.384 134.935C118.239 132.602 113.683 132.36 111.922 132.531C100.415 138.171 76.6672 149.351 73.73 148.953Z" fill="#923A5F"/>
<path d="M121.74 161.709L117.724 182.186C117.691 184.825 118.898 190.257 123.988 190.874C129.078 191.491 131.741 187.593 132.436 185.566C134.696 177.227 139.387 160.103 140.071 158.327C140.925 156.107 127.565 137.851 122.384 134.935C118.239 132.602 113.683 132.36 111.922 132.531C100.415 138.171 76.6672 149.351 73.7299 148.953C70.7927 148.554 55.5613 163.115 53.5575 161.849L50.7547 174.048C52.1379 174.021 58.0904 196.65 64.9714 199.059C73.5726 202.071 82.9287 206.292 90.6501 210.137C96.8273 213.213 106.619 211.044 110.742 209.576C104.604 201.538 109.32 194.292 112.446 191.674C110.695 188.51 113.273 183.58 114.781 181.51C113.873 174.675 119.042 165.461 121.74 161.709ZM121.74 161.709C117.255 161.254 107.516 158.303 104.435 150.14M121.74 161.709C117.786 167.934 103.962 180.06 80.3039 178.766" stroke="white" stroke-width="2"/>
<path d="M156 215C124.4 238.2 93.9998 243.667 94.9998 251.5C129.167 252.03 231.8 261.573 247 257.5C266 252.409 255.5 34.5 252 10C249.2 -9.6 228 -33.5 213 58.5002C174 119 187.6 191.8 156 215Z" fill="#923A5F" stroke="#4CFF00" stroke-width="3"/>
</g>
<defs>
<clipPath id="clip0_88_657">
<rect width="250" height="250" fill="white"/>
</clipPath>
</defs>
</svg>
