<svg width="250" height="250" viewBox="0 0 250 250" fill="none" xmlns="http://www.w3.org/2000/svg">
<g clip-path="url(#clip0_88_665)">
<rect x="117.621" y="149.664" width="50.0327" height="20.6594" rx="10.3297" transform="rotate(41.589 117.621 149.664)" fill="#923A5F" stroke="white" stroke-width="2"/>
<rect x="125.836" y="137.879" width="50.0327" height="19.8202" rx="9.91008" transform="rotate(41.589 125.836 137.879)" fill="#923A5F" stroke="white" stroke-width="2"/>
<rect x="133.979" y="124.909" width="54.2288" height="20.6594" rx="10.3297" transform="rotate(41.589 133.979 124.909)" fill="#923A5F" stroke="white" stroke-width="2"/>
<path d="M117.749 61.5941L141.253 82.4534C153.828 93.614 154.43 113.053 142.569 124.971C131.63 135.962 114.014 136.508 102.415 126.214L78.9115 105.355C66.8274 94.6305 65.7254 76.1399 76.4499 64.0557C87.1746 51.9716 105.665 50.8695 117.749 61.5941Z" fill="#923A5F" stroke="white" stroke-width="2"/>
<path d="M186.025 144.17L172.312 159.621L132.915 124.657L148.028 110.447L186.025 144.17Z" fill="#923A5F" stroke="white" stroke-width="2"/>
<path d="M213.368 188.851C214.346 191.551 212.311 213.583 214.669 214.548L205.743 224.605C204.904 223.377 184.449 231.214 174.987 227.75C165.785 224.381 160.988 220.993 153.368 215.71C145.906 210.537 138.515 198.763 137.227 194.238C148.09 194.602 151.488 185.957 151.829 181.588C155.69 181.15 158.395 175.82 159.265 173.209C165.26 170.036 169.821 161.163 171.776 156.079C171.93 155.609 172.088 155.174 172.25 154.776L156.838 171.055C154.549 172.728 149.043 175.057 145.327 170.986C141.612 166.915 143.361 162.155 144.701 160.283C150.588 153.107 162.645 138.327 163.772 136.622C165.182 134.49 189.492 134.805 195.277 137.523C199.905 139.697 202.959 143.536 203.908 145.183C207.492 153.095 212.282 185.854 213.368 188.851Z" fill="#923A5F"/>
<path d="M172.25 154.776L156.838 171.055C154.549 172.728 149.043 175.057 145.327 170.986C141.612 166.915 143.361 162.155 144.701 160.283C150.588 153.107 162.645 138.327 163.772 136.622C165.182 134.49 189.492 134.805 195.277 137.523C199.905 139.697 202.959 143.536 203.908 145.183C207.492 153.095 212.282 185.854 213.368 188.851C214.346 191.551 212.311 213.583 214.669 214.548L205.743 224.605C204.904 223.377 184.449 231.214 174.987 227.75C165.785 224.381 160.988 220.993 153.368 215.71C145.906 210.537 138.515 198.763 137.227 194.238C148.09 194.602 151.488 185.957 151.829 181.588C155.69 181.15 158.395 175.82 159.265 173.209C165.813 169.743 170.65 159.476 172.25 154.776ZM172.25 154.776C175.447 158.418 184.106 165.104 193.171 162.713M172.25 154.776C169.271 162.117 167.285 181.776 183.178 201.68" stroke="white" stroke-width="2"/>
<path d="M230.518 244.354C249.437 255.97 267.79 250.734 274.602 246.664C279.288 243.36 288.174 234.929 286.229 227.631C283.798 218.509 271.914 227.364 265.316 230.961C260.038 233.838 259.075 228.573 259.254 225.581C259.627 219.334 248.009 226.726 243.405 229.937C238.661 233.189 238.375 225.457 238.11 224.739C237.02 221.782 235.38 218.919 230.4 222.857C225.419 226.794 216.951 221.136 213.445 217.528L207.05 224.396C208.207 225.544 210.186 225.701 210.734 227.293M230.518 244.354C234.071 255.467 237.676 281.153 223.665 294.986C206.152 312.277 201.514 296.222 211.368 284.072C219.251 274.353 214.23 272.663 210.22 272.108C207.545 271.739 207.239 267.373 215.099 254.052C216.442 251.776 216.174 250.642 211.109 248.535C210.07 247.612 208.732 244.933 211.549 237.468C211.886 235.225 211.993 230.956 210.734 227.293M230.518 244.354C226.704 242.476 215.317 232.687 210.734 227.293" stroke="#7ED957" stroke-width="8"/>
<path d="M-32.0563 120.36C-35.4514 121.132 -38.8296 119.005 -39.6018 115.61C-40.374 112.215 -38.2477 108.837 -34.8527 108.065L45.0622 89.8886L47.8586 102.183L-32.0563 120.36Z" fill="#7ED957"/>
<path d="M101.153 87.5771C100.626 87.4113 100.065 87.7038 99.8989 88.2306C99.733 88.7574 100.026 89.3189 100.552 89.4848L100.853 88.531L101.153 87.5771ZM97.1746 93.4964L96.7341 94.3941L96.7781 94.4157L96.824 94.4329L97.1746 93.4964ZM101.623 83.2538L101.65 82.2542L101.623 83.2538ZM131.978 118.27L132.942 118.003C131.871 114.139 128.575 108.013 123.265 102.137C117.94 96.2439 110.524 90.5279 101.153 87.5771L100.853 88.531L100.552 89.4848C109.506 92.3042 116.633 97.7813 121.781 103.477C126.942 109.189 130.047 115.048 131.015 118.537L131.978 118.27ZM125.026 123.244L125.986 122.965C123.582 114.681 121.332 108.834 117.19 104.176C113.043 99.5137 107.095 96.1423 97.5252 92.5599L97.1746 93.4964L96.824 94.4329C106.3 97.9802 111.877 101.212 115.695 105.505C119.517 109.803 121.669 115.265 124.066 123.522L125.026 123.244ZM97.1746 93.4964L97.6151 92.5986C97.0813 92.3367 96.5772 91.7335 96.2668 90.8394C95.961 89.9583 95.884 88.8983 96.1095 87.8912C96.3332 86.8921 96.8459 85.9763 97.6916 85.3187C98.5329 84.6645 99.7835 84.2039 101.595 84.2534L101.623 83.2538L101.65 82.2542C99.4609 82.1943 97.7336 82.7525 96.4639 83.7399C95.1987 84.7237 94.4673 86.0721 94.1579 87.4542C93.8502 88.8283 93.9509 90.2666 94.3774 91.4953C94.7994 92.7109 95.5824 93.829 96.7341 94.3941L97.1746 93.4964ZM101.623 83.2538L101.595 84.2534C103.497 84.3054 106.506 85.4394 110.103 87.4091C113.65 89.3516 117.619 92.0215 121.388 94.9677C125.157 97.9144 128.7 101.118 131.406 104.119C134.151 107.165 135.902 109.86 136.305 111.797L137.284 111.594L138.263 111.39C137.742 108.885 135.654 105.845 132.891 102.78C130.089 99.6716 126.454 96.39 122.619 93.3921C118.784 90.3937 114.725 87.6597 111.064 85.6549C107.452 83.6772 104.073 82.3204 101.65 82.2542L101.623 83.2538Z" fill="#692C46"/>
<path d="M119.169 126.839C117.312 110.529 109.623 105.33 94.7498 97.7653C85.7905 93.2087 89.4608 75.7776 103.368 77.9203C112.193 79.2801 137.216 94.7668 142.206 105.398" stroke="#692C46" stroke-width="2"/>
<path d="M113.678 129.973C117.202 114.193 99.3789 109.005 92.691 103.818C75.805 90.7209 86.9335 68.4548 105.465 72.6518C115.077 74.8287 134.236 87.9157 144.56 96.7745" stroke="#692C46" stroke-width="2"/>
<path d="M110.013 130.811C113.21 123.449 94.3516 112.263 89.6018 108.086C68.988 89.959 79.0723 61.2272 107.602 65.9028C116.533 67.3665 130.571 80.4067 144.549 93.0144" stroke="#692C46" stroke-width="2"/>
<circle cx="99.9194" cy="84.0469" r="53.9031" transform="rotate(142.205 99.9194 84.0469)" stroke="#7ED957" stroke-width="12"/>
</g>
<defs>
<clipPath id="clip0_88_665">
<rect width="250" height="250" fill="white"/>
</clipPath>
</defs>
</svg>
