<svg width="250" height="250" viewBox="0 0 250 250" fill="none" xmlns="http://www.w3.org/2000/svg">
<g clip-path="url(#clip0_89_56)">
<path d="M70.4524 7.81373C70.9885 2.9927 72.7569 0.747254 73.8052 0.219532C74.5785 -0.0698654 76.2695 -0.301384 76.8469 1.08773C77.5686 2.82411 75.558 3.48802 74.5785 4.04979C73.7948 4.49921 74.252 5.42869 74.5785 5.83725C75.2601 6.69019 73.4256 7.52434 72.6695 7.81373C71.8962 8.12016 72.671 9.29928 72.721 9.44798C72.9273 10.0608 73.0731 10.7502 72.207 10.9953C71.3409 11.2405 71.9484 13.7744 72 14.881L68.5476 15C68.5351 14.641 69.3766 13.7758 69.2619 13.4524M70.4524 7.81373C69.6275 5.6007 66.8351 1.26137 64.1131 1.54737C60.7106 1.90486 61.9478 5.02014 64.1131 5.17335C65.8453 5.29591 65.5586 6.37139 65.2473 7.11401C65.0396 7.60945 65.4638 8.29884 67.5672 8.95254C67.9266 9.06422 68.0194 9.27434 67.7719 10.4183C67.7719 10.7247 67.6341 11.2767 68.6667 11.9048C68.9302 12.1777 68.9981 12.7083 69.2619 13.4524M70.4524 7.81373C70.2962 8.71775 69.1244 11.9067 69.2619 13.4524" stroke="#7ED957" stroke-width="3"/>
<path d="M26.3949 25.5199C23.3499 21.7129 23.0109 18.8605 23.3808 17.7406C23.7247 16.9854 24.7618 15.6192 26.1593 16.196C27.9061 16.917 26.9491 18.8176 26.6522 19.913C26.4147 20.7892 27.4001 21.1249 27.9225 21.1832C29.013 21.3049 28.3021 23.2014 27.9704 23.9444C27.6386 24.7117 29.0272 24.999 29.1684 25.0691C29.7505 25.3581 30.344 25.7443 29.9028 26.534C29.4615 27.3237 32.4553 27.7621 33.2783 28.5118L30.1481 31.9804C29.8841 31.7342 29.8672 30.5213 29.5559 30.373M26.3949 25.5199C24.236 24.5335 19.1679 23.4341 17.4368 25.5718C15.2729 28.2438 18.366 29.5784 20.0136 28.1485C21.3316 27.0047 21.8922 27.9726 22.1987 28.7216C22.4031 29.2213 23.1945 29.4098 25.1538 28.3796C25.4886 28.2035 25.7038 28.2869 26.3409 29.2757C26.5587 29.4935 26.853 29.9836 28.0331 29.6962C28.4143 29.7029 28.8397 30.0317 29.5559 30.373M26.3949 25.5199C26.9263 26.2734 28.3598 29.3722 29.5559 30.373" stroke="#7ED957" stroke-width="3"/>
<path d="M131.707 69.8889C136.207 70.3893 138.303 72.0398 138.795 73.0182C139.065 73.7399 139.281 75.3182 137.985 75.8571C136.364 76.5307 135.745 74.6542 135.22 73.7399C134.801 73.0085 133.933 73.4352 133.552 73.7399C132.756 74.3761 131.977 72.6639 131.707 71.9582C131.421 71.2364 130.321 71.9596 130.182 72.0063C129.61 72.1988 128.966 72.3349 128.738 71.5266C128.509 70.7182 126.144 71.2852 125.111 71.3333L125 68.1111C125.335 68.0994 126.143 68.8848 126.444 68.7778M131.707 69.8889C133.773 69.119 137.823 66.5128 137.556 63.9722C137.222 60.7965 134.315 61.9513 134.172 63.9722C134.057 65.5889 133.053 65.3214 132.36 65.0308C131.898 64.8369 131.254 65.2329 130.644 67.196C130.54 67.5315 130.344 67.6181 129.276 67.3871C128.99 67.3871 128.475 67.2585 127.889 68.2222C127.634 68.4682 127.139 68.5316 126.444 68.7778M131.707 69.8889C130.863 69.7431 127.887 68.6495 126.444 68.7778" stroke="#7ED957" stroke-width="3"/>
<path d="M113.437 26.1959C117.524 23.5381 120.395 23.4799 121.474 23.9576C122.192 24.3738 123.45 25.5397 122.739 26.874C121.851 28.5419 120.053 27.4035 118.992 27.0008C118.143 26.6786 117.712 27.6264 117.603 28.1406C117.375 29.214 115.558 28.3209 114.851 27.9181C114.12 27.5128 113.698 28.8666 113.614 29.0003C113.27 29.5512 112.827 30.1041 112.084 29.5877C111.342 29.0712 110.612 32.0078 109.786 32.7535L106.64 29.2988C106.911 29.0602 108.12 29.1621 108.298 28.8668M113.437 26.1959C114.63 24.144 116.22 19.2078 114.262 17.2758C111.815 14.8607 110.184 17.8083 111.445 19.588C112.455 21.0117 111.437 21.4748 110.661 21.7065C110.144 21.861 109.879 22.6302 110.712 24.6809C110.855 25.0313 110.751 25.2374 109.704 25.7746C109.466 25.97 108.95 26.2149 109.12 27.4175C109.076 27.7962 108.707 28.1874 108.298 28.8668M113.437 26.1959C112.635 26.651 109.411 27.7743 108.298 28.8668" stroke="#7ED957" stroke-width="3"/>
<path d="M70.5476 130.186C70.0115 135.007 68.2431 137.253 67.1948 137.78C66.4215 138.07 64.7305 138.301 64.1531 136.912C63.4314 135.176 65.442 134.512 66.4215 133.95C67.2052 133.501 66.748 132.571 66.4215 132.163C65.7399 131.31 67.5744 130.476 68.3305 130.186C69.1038 129.88 68.329 128.701 68.279 128.552C68.0727 127.939 67.9269 127.25 68.793 127.005C69.6591 126.76 69.0516 124.226 69 123.119L72.4524 123C72.4649 123.359 71.6234 124.224 71.7381 124.548M70.5476 130.186C71.3725 132.399 74.1649 136.739 76.8869 136.453C80.2894 136.095 79.0522 132.98 76.8869 132.827C75.1547 132.704 75.4414 131.629 75.7527 130.886C75.9604 130.391 75.5362 129.701 73.4328 129.047C73.0734 128.936 72.9806 128.726 73.2281 127.582C73.2281 127.275 73.3659 126.723 72.3333 126.095C72.0698 125.822 72.0019 125.292 71.7381 124.548M70.5476 130.186C70.7038 129.282 71.8756 126.093 71.7381 124.548" stroke="#7ED957" stroke-width="3"/>
<path d="M113.61 112.786C116.655 116.593 116.994 119.446 116.624 120.566C116.28 121.321 115.243 122.687 113.845 122.11C112.098 121.389 113.055 119.489 113.352 118.393C113.59 117.517 112.604 117.181 112.082 117.123C110.991 117.001 111.702 115.105 112.034 114.362C112.366 113.595 110.977 113.307 110.836 113.237C110.254 112.948 109.66 112.562 110.102 111.772C110.543 110.983 107.549 110.544 106.726 109.795L109.856 106.326C110.12 106.572 110.137 107.785 110.448 107.933M113.61 112.786C115.768 113.773 120.836 114.872 122.568 112.735C124.732 110.063 121.638 108.728 119.991 110.158C118.673 111.302 118.112 110.334 117.806 109.585C117.601 109.085 116.81 108.897 114.851 109.927C114.516 110.103 114.301 110.019 113.663 109.031C113.446 108.813 113.151 108.323 111.971 108.61C111.59 108.604 111.165 108.275 110.448 107.933M113.61 112.786C113.078 112.033 111.645 108.934 110.448 107.933" stroke="#7ED957" stroke-width="3"/>
<path d="M7.81373 68.5476C2.9927 68.0115 0.747254 66.2431 0.219532 65.1948C-0.0698654 64.4215 -0.301384 62.7305 1.08773 62.1531C2.82411 61.4314 3.48802 63.442 4.04979 64.4215C4.49921 65.2052 5.42869 64.748 5.83725 64.4215C6.69019 63.7399 7.52434 65.5744 7.81373 66.3305C8.12016 67.1038 9.29928 66.329 9.44798 66.279C10.0608 66.0727 10.7502 65.9269 10.9953 66.793C11.2405 67.6591 13.7744 67.0516 14.881 67L15 70.4524C14.641 70.4649 13.7758 69.6234 13.4524 69.7381M7.81373 68.5476C5.6007 69.3725 1.26137 72.1649 1.54736 74.8869C1.90486 78.2894 5.02014 77.0522 5.17335 74.8869C5.29591 73.1547 6.37139 73.4414 7.11401 73.7527C7.60945 73.9604 8.29884 73.5362 8.95254 71.4328C9.06422 71.0734 9.27434 70.9806 10.4183 71.2281C10.7247 71.2281 11.2767 71.3659 11.9048 70.3333C12.1777 70.0698 12.7083 70.0019 13.4524 69.7381M7.81373 68.5476C8.71775 68.7038 11.9067 69.8756 13.4524 69.7381" stroke="#7ED957" stroke-width="3"/>
<path d="M26.5671 112.111C22.4803 114.769 19.6084 114.827 18.53 114.349C17.8121 113.933 16.554 112.767 17.2648 111.433C18.1534 109.765 19.9512 110.903 21.0122 111.306C21.861 111.628 22.2915 110.68 22.4007 110.166C22.6285 109.093 24.4463 109.986 25.1533 110.389C25.8844 110.794 26.3062 109.44 26.3898 109.306C26.7344 108.755 27.1769 108.203 27.9196 108.719C28.6623 109.235 29.3916 106.299 30.2182 105.553L33.3638 109.008C33.093 109.246 31.8843 109.145 31.7062 109.44M26.5671 112.111C25.374 114.163 23.784 119.099 25.7419 121.031C28.1893 123.446 29.8202 120.498 28.5585 118.719C27.5491 117.295 28.5673 116.832 29.3427 116.6C29.86 116.446 30.125 115.676 29.2915 113.626C29.1491 113.275 29.2531 113.069 30.2995 112.532C30.5375 112.337 31.0541 112.092 30.8836 110.889C30.9275 110.51 31.2964 110.119 31.7062 109.44M26.5671 112.111C27.3689 111.656 30.5932 110.532 31.7062 109.44" stroke="#7ED957" stroke-width="3"/>
<path d="M59.0172 125V111.843L49.2091 108.015L39.8793 117.106L22.7748 100.121L31.9849 90.7909L28.0377 80.9828H15V58.0172H28.1573L31.9849 48.3287L22.8944 38.8793L39.8793 21.8944L49.2091 30.9849L59.0172 26.9181V14H81.9828V27.1573L91.7909 30.9849L101.121 21.8944L118.106 38.8793L109.015 48.2091L112.843 58.0172H126V80.9828H113.082L108.895 90.7909L118.106 100.121L101.121 117.106L91.7909 108.015L81.9828 111.843V125H59.0172Z" fill="#B74374"/>
<path d="M178.132 77.0388C183.36 55.3286 194.622 46.2848 199.6 44.4767C203.213 43.5992 210.877 43.513 212.629 50.1889C214.819 58.5337 205.477 60.4111 200.785 62.4142C197.032 64.0166 198.519 68.5242 199.732 70.5777C202.264 74.8647 193.605 77.6206 190.069 78.5081C186.446 79.4634 189.2 85.2936 189.335 86.0015C189.892 88.9188 190.135 92.1511 186.135 92.7732C182.135 93.3953 180.29 103.717 179.868 108.801L174.818 108.149C174.974 106.502 174.828 104.862 174.508 103.319M178.132 77.0388C175.764 66.4579 167.956 45.2316 155.67 44.9743C140.312 44.6527 143.984 59.5912 153.533 61.5346C161.172 63.0893 159.262 67.8365 157.439 71.0493C156.222 73.1927 157.705 76.5849 166.683 80.7786C168.217 81.495 168.507 82.508 166.731 87.5905C166.55 88.99 166.878 91.8777 171.105 95.3394C172.117 96.7372 173.772 99.7694 174.508 103.319M178.132 77.0388C176.904 81.0779 174.807 96.1805 174.508 103.319" stroke="#7ED957" stroke-width="4"/>
<path d="M238.246 175.384C209.958 156.704 195.381 127.997 194.341 121.071L183.657 110.272L171.596 107C130.328 164.939 126.132 140.953 96.5957 152.232C93.6837 155.596 90.1476 161.334 88.8996 164.6C87.6516 167.866 83.4915 170.041 81.8275 173.801C80.4962 176.809 82.3821 178.352 83.4915 178.748H91.1876C96.3461 169.724 103.183 165.556 105.956 164.6C90.265 174.737 80.7211 197.225 72.0513 208.43C71.2193 217.611 80.7181 216.213 85.5715 214.366L105.124 190.027C109.564 184.881 111.308 183.695 113.598 183.299C101.681 196.668 89.8753 214.816 86.1955 217.928C81.7027 221.727 79.4701 231.384 78.9154 235.737C78.0834 239.892 85.3635 240.288 88.2756 240.684C90.6052 241 94.377 237.518 95.9717 235.737C100.465 222.914 128.351 197.546 141.733 186.465L148.389 182.507V189.631C148.389 191.056 134.106 225.843 126.964 243.058C127.297 251.923 136.949 250.446 141.733 248.599L167.941 196.161L175.013 184.09C189.989 167.944 213.147 178.946 222.854 186.465L226.806 196.161C231.465 201.385 239.564 202.427 243.03 202.295C243.862 201.636 245.402 199.683 244.903 197.15C244.403 194.618 241.644 191.082 240.327 189.631C240.992 188.048 239.217 179.473 238.246 175.384Z" fill="#923A5F"/>
<path d="M131.332 169.052C126.169 170.553 119.868 176.264 113.598 183.299M113.598 183.299C101.681 196.668 89.8753 214.816 86.1955 217.928C81.7027 221.727 79.4701 231.384 78.9154 235.737C78.0834 239.892 85.3635 240.288 88.2756 240.684C90.6052 241 94.377 237.518 95.9717 235.737C100.465 222.914 128.351 197.546 141.733 186.465L148.389 182.507C148.389 184.288 148.389 188.206 148.389 189.631C148.389 191.056 134.106 225.843 126.964 243.058C127.297 251.923 136.948 250.446 141.733 248.599L167.941 196.161L175.013 184.09C189.989 167.944 213.147 178.946 222.854 186.465L226.806 196.161C231.465 201.385 239.564 202.427 243.03 202.295C243.862 201.636 245.402 199.683 244.903 197.15C244.403 194.618 241.644 191.082 240.327 189.631C240.992 188.048 239.217 179.473 238.246 175.384C209.958 156.704 195.381 127.997 194.341 121.071L183.657 110.272L171.596 107C130.328 164.939 126.132 140.953 96.5957 152.232C93.6837 155.596 90.1476 161.334 88.8996 164.6C87.6516 167.866 83.4915 170.041 81.8275 173.801C80.4963 176.809 82.3821 178.352 83.4915 178.748H91.1876C96.3461 169.724 103.183 165.556 105.956 164.6M113.598 183.299C111.308 183.695 109.564 184.881 105.124 190.027L85.5715 214.366C80.7181 216.213 71.2193 217.611 72.0513 208.43C80.7211 197.225 90.265 174.737 105.956 164.6M118.644 159.356C114.113 159.905 109.895 161.808 105.956 164.6" stroke="white"/>
<path d="M70.608 55.704C69.1573 55.704 67.6 55.896 65.936 56.28C64.272 56.664 62.4373 57.304 60.432 58.2L58.64 53.592C60.7733 52.6107 62.864 51.9067 64.912 51.48C67.0027 51.0533 68.9653 50.84 70.8 50.84C75.2373 50.84 78.48 51.8853 80.528 53.976C82.576 56.024 83.6 58.584 83.6 61.656V62.808C83.6 65.1547 83.216 67.16 82.448 68.824C81.68 70.488 80.5067 72.024 78.928 73.432L76.752 75.416C75.344 76.696 74.448 77.8053 74.064 78.744C73.68 79.64 73.488 80.7493 73.488 82.072V83.352H68.112V81.88C68.112 80.4293 68.2613 79.192 68.56 78.168C68.8587 77.1013 69.3707 76.0987 70.096 75.16C70.8213 74.1787 71.8027 73.112 73.04 71.96L75.216 69.976C76.24 69.0373 76.9867 68.056 77.456 67.032C77.9253 65.9653 78.16 64.6427 78.16 63.064V61.912C78.16 60.0347 77.52 58.5413 76.24 57.432C75.0027 56.28 73.1253 55.704 70.608 55.704ZM73.808 95H67.92V89.176H73.808V95Z" fill="white"/>
</g>
<defs>
<clipPath id="clip0_89_56">
<rect width="250" height="250" fill="white"/>
</clipPath>
</defs>
</svg>
