<svg width="250" height="250" viewBox="0 0 250 250" fill="none" xmlns="http://www.w3.org/2000/svg">
<g clip-path="url(#clip0_46_151)">
<path d="M102.549 107.662C83.5957 106.788 45.5227 99.3227 36.1465 90.6246C37.6023 85.3555 37.6918 85.0313 38.9461 80.4918C40.5139 74.8174 47.7351 54.9997 51.2864 51.6183C54.8509 48.2244 64.0422 30.7124 68.2817 20.1049C72.5212 9.49739 83.118 5.8814 85.9552 6.66529C88.7924 7.44919 101.341 15.7151 101.928 16.7497C102.299 17.4051 101.492 21.0618 97.0929 22.3939M91.2626 19.038C90.7737 18.1758 86.7774 14.745 86.9151 17.4006C87.0267 19.5517 85.503 20.9367 84.8737 21.6353C89.2905 24.6007 94.5487 23.1644 97.0929 22.3939M97.0929 22.3939C98.9036 23.4759 102.058 26.3833 100.189 29.357C97.8536 33.0742 84.9637 38.6742 79.5826 37.6237C78.5107 38.3455 76.0224 41.3516 74.6445 47.6019C73.0945 55.3171 69.4464 71.4685 67.2535 74.3527M67.2535 74.3527C64.5124 77.9579 59.5475 84.8749 56.6677 85.8243M67.2535 74.3527C78.5931 65.416 106.901 56.3397 123.136 89.7924" stroke="#7ED957" stroke-width="4"/>
<path d="M102.218 107.663C111.117 108.412 108.542 113.617 119.728 119.293C121.639 120.263 121.965 121.568 119.521 128.004C119.237 129.787 124.427 131.827 129.635 136.401C130.476 135.56 130.055 125.889 130.055 121.263C130.713 112.147 125.031 94.3701 122.805 89.7935C112.493 85.6704 91.8057 79.7188 91.5562 88.8974C91.3067 98.0759 67.4956 98.8945 55.6212 98.1565C51.0258 84.5302 46.3021 54.4184 64.1699 42.9817C82.0377 31.545 80.9181 33.8765 78.1248 36.4719" stroke="#7ED957" stroke-width="4"/>
<path d="M165.451 107.662C184.404 106.788 222.477 99.3227 231.854 90.6246C230.398 85.3555 230.308 85.0313 229.054 80.4918C227.486 74.8174 220.265 54.9997 216.714 51.6183C213.149 48.2244 203.958 30.7124 199.718 20.1049C195.479 9.49738 184.882 5.8814 182.045 6.66529C179.208 7.44918 166.659 15.715 166.072 16.7496C165.701 17.4051 166.508 21.0618 170.907 22.3939M176.737 19.038C177.226 18.1758 181.223 14.745 181.085 17.4006C180.973 19.5517 182.497 20.9367 183.126 21.6353C178.709 24.6007 173.451 23.1644 170.907 22.3939M170.907 22.3939C169.096 23.4759 165.942 26.3833 167.811 29.357C170.146 33.0742 183.036 38.6742 188.417 37.6237C189.489 38.3455 191.978 41.3516 193.356 47.6019C194.905 55.3171 198.554 71.4685 200.747 74.3527M200.747 74.3527C203.488 77.9579 208.453 84.8749 211.332 85.8243M200.747 74.3527C189.407 65.416 161.099 56.3397 144.864 89.7924" stroke="#7ED957" stroke-width="4"/>
<path d="M165.449 107.663C156.549 108.412 159.124 113.617 147.938 119.293C146.027 120.263 145.701 121.568 148.146 128.004C148.429 129.787 143.239 131.827 138.032 136.401C137.19 135.56 137.611 125.889 137.612 121.263C136.954 112.147 142.636 94.3701 144.861 89.7935C155.174 85.6704 175.861 79.7188 176.11 88.8974C176.36 98.0759 200.171 98.8945 212.045 98.1565C216.641 84.5302 221.364 54.4184 203.497 42.9817C185.629 31.5449 186.748 33.8765 189.542 36.4719" stroke="#7ED957" stroke-width="4"/>
<rect x="142" y="246" width="50" height="20" rx="10" transform="rotate(-90 142 246)" fill="#923A5F" stroke="white" stroke-width="2"/>
<rect x="127" y="246" width="49" height="19" rx="9.5" transform="rotate(-90 127 246)" fill="#923A5F" stroke="white" stroke-width="2"/>
<rect x="93" y="246" width="46" height="21" rx="10.5" transform="rotate(-90 93 246)" fill="#923A5F" stroke="white" stroke-width="2"/>
<rect x="111" y="250" width="54" height="21" rx="10.5" transform="rotate(-90 111 250)" fill="#923A5F" stroke="white" stroke-width="2"/>
<path d="M108.698 149.67C108.982 146.56 127.557 134.356 126.729 132L139.938 132C139.583 133.414 161.45 144.864 162.302 152.497C163.367 162.039 165.497 172.641 167.627 181.475C169.331 188.543 164.787 198.085 162.302 201.972C155.486 193.774 146.919 196.907 143.488 199.499C140.648 196.954 134.968 198.438 132.483 199.499C126.243 197.169 116.75 199.599 111.74 201.472C111.295 201.665 110.872 201.832 110.473 201.972L132.483 202.679C135.204 203.268 140.506 205.789 139.938 211.161C139.37 216.532 134.731 218.346 132.483 218.582C123.371 218.935 104.652 219.712 102.664 219.995C100.179 220.349 84.559 202.325 82.784 196.318C81.3641 191.512 82.1924 186.776 82.784 185.009C91.3038 174.525 108.414 152.78 108.698 149.67Z" fill="#923A5F"/>
<path d="M110.473 201.972L132.483 202.679C135.204 203.268 140.506 205.789 139.938 211.161C139.37 216.532 134.731 218.346 132.483 218.582C123.371 218.935 104.652 219.712 102.664 219.995C100.179 220.349 84.559 202.325 82.784 196.318C81.3641 191.512 82.1924 186.776 82.784 185.009C91.3038 174.525 108.414 152.78 108.698 149.67C108.982 146.56 127.557 134.356 126.729 132L139.938 132C139.583 133.414 161.45 144.864 162.302 152.497C163.367 162.039 165.497 172.641 167.627 181.475C169.331 188.543 164.787 198.085 162.302 201.972C155.486 193.774 146.919 196.907 143.488 199.499C140.648 196.954 134.968 198.438 132.483 199.499C125.667 196.954 114.97 200.088 110.473 201.972ZM110.473 201.972C111.065 197.26 110.331 186.564 102.664 181.475M110.473 201.972C117.81 199.381 133.548 188.049 137.808 163.452" stroke="white" stroke-width="2"/>
</g>
<defs>
<clipPath id="clip0_46_151">
<rect width="250" height="250" fill="white"/>
</clipPath>
</defs>
</svg>
