<svg width="250" height="250" viewBox="0 0 250 250" fill="none" xmlns="http://www.w3.org/2000/svg">
<g clip-path="url(#clip0_31_1133)">
<rect x="123" y="45" width="8" height="160" fill="#712545"/>
<path d="M129.823 17.6699C128.537 6.78889 123.183 1.68654 120.668 0.49548C118.812 -0.157684 114.753 -0.680216 113.367 2.45497C111.635 6.37396 116.461 7.87239 118.812 9.1403C120.692 10.1546 119.595 12.2524 118.812 13.1745C117.176 15.0996 121.579 16.9823 123.393 17.6354C125.249 18.327 123.39 20.9883 123.269 21.3239C122.775 22.7071 122.424 24.263 124.503 24.8162C126.582 25.3695 126.854 30.5026 126.73 33H129.452C129.482 32.1898 129.672 31.4015 129.947 30.6716M129.823 17.6699C131.803 12.6751 137.396 2.84689 143.929 3.49237C152.095 4.29922 149.125 11.3303 143.929 11.6761C139.771 11.9528 140.459 14.3801 141.207 16.0562C141.705 17.1744 140.687 18.7303 135.639 20.2057C134.776 20.4578 134.554 20.932 135.147 23.5139C135.147 24.2055 134.776 25.5887 132.298 27.0063C131.666 27.6222 130.58 28.9923 129.947 30.6716M129.823 17.6699C130.198 19.7102 130.277 27.1829 129.947 30.6716" stroke="#7ED957" stroke-width="4"/>
<rect x="14" y="33" width="225" height="69" rx="20" fill="#923A5F"/>
<rect x="202" y="58" width="20" height="19" rx="9.5" fill="#FFC5DE"/>
<rect x="14" y="107" width="225" height="69" rx="20" fill="#923A5F"/>
<rect x="14" y="181" width="225" height="69" rx="20" fill="#923A5F"/>
<rect x="202" y="131" width="20" height="20" rx="10" fill="#FFC5DE"/>
<rect x="202" y="205" width="20" height="20" rx="10" fill="#FFC5DE"/>
<rect x="183" y="60" width="15" height="14" rx="7" fill="#FFC5DE"/>
<rect x="183" y="133" width="15" height="15" rx="7.5" fill="#FFC5DE"/>
<rect x="183" y="207" width="15" height="15" rx="7.5" fill="#FFC5DE"/>
</g>
<defs>
<clipPath id="clip0_31_1133">
<rect width="250" height="250" fill="white"/>
</clipPath>
</defs>
</svg>
