<svg width="250" height="250" viewBox="0 0 250 250" fill="none" xmlns="http://www.w3.org/2000/svg">
<g clip-path="url(#clip0_46_155)">
<path d="M72.4002 38.6944C65.2399 14.9122 52.2841 5.56344 46.7013 3.86186C42.6773 3.10956 34.2577 3.48482 32.7714 11.0042C30.9136 20.4034 41.2923 21.9138 46.5742 23.8494C50.7997 25.3978 49.462 30.4937 48.2649 32.8481C45.7659 37.7632 55.4517 40.291 59.3923 41.0589C63.4324 41.8969 60.7901 48.5391 60.6881 49.3333C60.2677 52.6064 60.2124 56.2099 64.6445 56.6549C69.0767 57.0998 72.8685 95.1483 73.6651 100.766L75.874 91.1517L78.075 73.0303C77.7961 71.2118 77.8491 69.3813 78.0992 67.6487M72.4002 38.6944C74.3072 26.8016 81.4889 2.75584 94.9603 1.71535C111.799 0.414738 108.746 17.2256 98.3901 19.9698C90.1055 22.1652 92.513 27.3184 94.7254 30.7733C96.2014 33.0782 94.7961 36.9354 85.2137 42.1429C83.5766 43.0326 83.3253 44.175 85.6075 49.7087C85.8973 51.2513 85.7269 54.4775 81.3134 58.5805C80.2936 60.1945 78.6747 63.6627 78.0992 67.6487M72.4002 38.6944C74.0127 43.1032 77.3039 59.7418 78.0992 67.6487" stroke="#7ED957" stroke-width="4"/>
<path d="M139.007 98.2807C131.847 74.4985 136.835 48.599 131.252 46.8974C127.228 46.1451 121.89 50.3575 120.404 57.8768C118.546 67.2761 122.013 71.1032 127.295 73.0388C131.52 74.5873 116.069 90.08 114.872 92.4344C112.373 97.3495 122.058 99.8773 125.999 100.645C130.039 101.483 127.397 108.125 127.295 108.92C126.874 112.193 126.819 115.796 131.251 116.241C135.683 116.686 139.475 154.735 140.272 160.352L142.481 150.738L144.682 132.617C144.403 130.798 144.456 128.968 144.706 127.235M139.007 98.2807C140.914 86.3879 138.349 47.9379 151.82 46.8974C168.66 45.5968 162.57 60.7039 152.214 63.4482C143.93 65.6436 159.12 86.9047 161.332 90.3596C162.808 92.6645 161.403 96.5217 151.82 101.729C150.183 102.619 149.932 103.761 152.214 109.295C152.504 110.838 152.334 114.064 147.92 118.167C146.9 119.781 145.281 123.249 144.706 127.235M139.007 98.2807C140.619 102.69 143.911 119.328 144.706 127.235" stroke="#7ED957" stroke-width="4"/>
<rect x="-1.19853" y="0.750684" width="46.8537" height="17.7294" rx="8.86469" transform="matrix(-0.974607 -0.223923 -0.223923 0.974607 179.005 100.262)" fill="#923A5F" stroke="white" stroke-width="2"/>
<path d="M185.799 171.65C166.639 170.028 151.156 159.476 148.617 156.239L140.281 153.72L133.491 155.418C130.586 196.435 121.507 185.39 110.553 199.373C110.135 201.899 110.113 205.808 110.471 207.819C110.828 209.83 109.457 212.098 109.759 214.477C110 216.38 111.365 216.64 112.017 216.532L115.736 214.385C115.575 208.351 117.653 204.321 118.712 203.061C114.111 212.6 116.111 226.714 115.216 234.838C117.514 239.746 121.692 236.384 123.494 234.09L125.785 216.241C126.417 212.382 126.911 211.292 127.901 210.451C126.074 220.583 125.706 233.118 124.843 235.73C123.789 238.918 125.55 244.458 126.562 246.829C127.381 249.178 131.015 247.348 132.538 246.738C133.757 246.249 134.556 243.423 134.802 242.072C133.203 234.288 139.218 213.591 142.426 204.215L144.478 200.343L146.572 203.971C146.991 204.696 150.318 226.396 151.929 237.155C154.696 241.576 158.925 238.131 160.694 235.856L157.939 201.842L157.807 193.722C160.296 181.322 174.719 180.465 181.62 181.586L186.38 185.422C190.167 186.782 194.386 185.054 196.023 184.02C196.231 183.452 196.4 182.028 195.415 180.877C194.429 179.727 192.056 178.696 190.993 178.325C190.849 177.333 187.47 173.461 185.799 171.65Z" fill="#923A5F"/>
<path d="M132.281 198.249C130.228 200.454 128.862 205.12 127.901 210.451M127.901 210.451C126.074 220.583 125.706 233.118 124.843 235.73C123.789 238.918 125.55 244.458 126.562 246.829C127.381 249.178 131.015 247.348 132.538 246.738C133.757 246.249 134.556 243.423 134.802 242.072C133.203 234.288 139.218 213.591 142.426 204.215L144.478 200.343C145.002 201.25 146.154 203.245 146.572 203.971C146.991 204.696 150.318 226.396 151.929 237.155C154.696 241.576 158.925 238.131 160.694 235.856L157.939 201.842L157.807 193.722C160.296 181.322 174.719 180.465 181.62 181.586L186.38 185.422C190.167 186.782 194.386 185.054 196.023 184.02C196.231 183.452 196.4 182.028 195.415 180.877C194.429 179.727 192.056 178.696 190.993 178.325C190.849 177.333 187.47 173.461 185.799 171.65C166.639 170.028 151.156 159.476 148.617 156.239L140.281 153.72L133.491 155.418C130.586 196.435 121.507 185.39 110.553 199.373C110.135 201.899 110.113 205.808 110.471 207.819C110.828 209.83 109.457 212.098 109.759 214.477C110 216.38 111.365 216.64 112.017 216.532L115.736 214.385C115.575 208.351 117.653 204.321 118.712 203.061M127.901 210.451C126.911 211.292 126.417 212.382 125.785 216.241L123.494 234.09C121.692 236.384 117.514 239.746 115.216 234.838C116.111 226.714 114.111 212.6 118.712 203.061M123.3 196.851C121.272 198.394 119.794 200.54 118.712 203.061" stroke="white"/>
<rect x="-1.19853" y="0.750684" width="43.0957" height="16.7899" rx="8.39494" transform="matrix(-0.974607 -0.223923 -0.223923 0.974607 169.661 124.143)" fill="#923A5F" stroke="white" stroke-width="2"/>
<rect x="-1.19853" y="0.750684" width="43.0957" height="16.7899" rx="8.39494" transform="matrix(-0.974607 -0.223923 -0.223923 0.974607 174.228 112.661)" fill="#923A5F" stroke="white" stroke-width="2"/>
<rect x="-1.19853" y="0.750684" width="40.2772" height="17.7294" rx="8.86469" transform="matrix(-0.974607 -0.223923 -0.223923 0.974607 179.13 82.9393)" fill="#923A5F" stroke="white" stroke-width="2"/>
<path d="M95.3089 77.7265C92.6 77.3587 78.5528 90.7876 76.7048 89.6203L74.1198 100.871C75.3955 100.846 80.8852 121.716 87.2313 123.938C95.1638 126.716 103.793 130.608 110.914 134.154C116.611 136.991 125.641 134.991 129.444 133.637C123.782 126.224 128.132 119.541 131.015 117.126C129.4 114.209 131.778 109.662 133.169 107.753C132.402 101.981 136.333 94.372 138.912 90.472C139.164 90.1309 139.388 89.8031 139.587 89.4913L135.882 108.376C135.852 110.81 136.966 115.82 141.66 116.389C146.354 116.958 148.81 113.363 149.451 111.494C151.535 103.802 155.862 88.0101 156.492 86.3723C157.28 84.325 144.959 67.4878 140.181 64.7983C136.358 62.6466 132.156 62.4239 130.532 62.5814C119.92 67.783 98.0179 78.0942 95.3089 77.7265Z" fill="#923A5F"/>
<path d="M139.587 89.4913L135.882 108.377C135.852 110.81 136.966 115.82 141.66 116.389C146.354 116.958 148.81 113.363 149.451 111.494C151.535 103.802 155.862 88.0101 156.492 86.3723C157.28 84.325 144.959 67.4878 140.181 64.7983C136.358 62.6466 132.156 62.4239 130.532 62.5814C119.92 67.783 98.0179 78.0942 95.3089 77.7265C92.6 77.3587 78.5528 90.7876 76.7048 89.6203L74.1198 100.871C75.3955 100.846 80.8852 121.716 87.2313 123.938C95.1639 126.716 103.793 130.608 110.914 134.154C116.611 136.991 125.641 134.991 129.444 133.637C123.782 126.224 128.132 119.541 131.015 117.126C129.4 114.209 131.778 109.662 133.169 107.753C132.332 101.449 137.098 92.9518 139.587 89.4913ZM139.587 89.4913C135.451 89.0716 126.468 86.3499 123.627 78.8213M139.587 89.4913C135.94 95.2322 123.191 106.416 101.372 105.222" stroke="white" stroke-width="2"/>
</g>
<defs>
<clipPath id="clip0_46_155">
<rect width="250" height="250" fill="white"/>
</clipPath>
</defs>
</svg>
