<svg width="250" height="250" viewBox="0 0 250 250" fill="none" xmlns="http://www.w3.org/2000/svg">
<rect x="94" y="88" width="50" height="20" rx="10" transform="rotate(90 94 88)" fill="#923A5F" stroke="white" stroke-width="2"/>
<rect x="109" y="88" width="49" height="19" rx="9.5" transform="rotate(90 109 88)" fill="#923A5F" stroke="white" stroke-width="2"/>
<rect x="169.7" y="53.5383" width="86" height="21" rx="10.5" transform="rotate(110.209 169.7 53.5383)" fill="#923A5F" stroke="white" stroke-width="2"/>
<rect x="125" y="48" width="90" height="21" rx="10.5" transform="rotate(90 125 48)" fill="#923A5F" stroke="white" stroke-width="2"/>
<path d="M127.302 184.331C127.018 187.44 108.443 199.644 109.271 202L96.0624 202C96.4174 200.586 74.55 189.136 73.698 181.503C72.633 171.961 70.5031 161.36 68.3731 152.525C66.6692 145.457 71.2131 135.915 73.698 132.028C80.5138 140.227 89.0809 137.093 92.5125 134.502C95.3524 137.046 101.032 135.562 103.517 134.502C109.757 136.831 119.25 134.402 124.26 132.528C124.705 132.335 125.128 132.169 125.527 132.028L103.517 131.321C100.796 130.732 95.4944 128.211 96.0624 122.84C96.6304 117.468 101.269 115.654 103.517 115.418C112.629 115.065 131.348 114.288 133.336 114.005C135.821 113.652 151.441 131.675 153.216 137.683C154.636 142.489 153.808 147.224 153.216 148.991C144.696 159.475 127.586 181.221 127.302 184.331Z" fill="#923A5F"/>
<path d="M125.527 132.028L103.517 131.321C100.796 130.732 95.4944 128.211 96.0624 122.84C96.6304 117.468 101.269 115.654 103.517 115.418C112.629 115.065 131.348 114.288 133.336 114.005C135.821 113.652 151.441 131.675 153.216 137.683C154.636 142.489 153.808 147.224 153.216 148.991C144.696 159.475 127.586 181.221 127.302 184.331C127.018 187.44 108.443 199.644 109.271 202L96.0624 202C96.4174 200.586 74.55 189.136 73.698 181.503C72.633 171.961 70.5031 161.36 68.3731 152.525C66.6692 145.457 71.213 135.915 73.698 132.028C80.5138 140.227 89.0809 137.093 92.5125 134.502C95.3524 137.046 101.032 135.562 103.517 134.502C110.333 137.046 121.03 133.913 125.527 132.028ZM125.527 132.028C124.935 136.74 125.669 147.436 133.336 152.525M125.527 132.028C118.19 134.619 102.452 145.952 98.1923 170.548" stroke="white" stroke-width="2"/>
<path d="M99.036 223.604C100.716 238.627 107.705 245.671 110.99 247.316C113.413 248.218 118.711 248.939 120.52 244.611C122.782 239.2 116.482 237.131 113.413 235.38C110.957 233.98 112.389 231.084 113.413 229.81C115.548 227.153 109.8 224.553 107.431 223.651C105.008 222.697 107.436 219.022 107.593 218.559C108.239 216.649 108.696 214.501 105.982 213.737C103.268 212.973 106.65 205.448 106.811 202L97.5 202.438C97.4608 203.557 99.2337 204.645 98.8745 205.653M99.036 223.604C96.4514 230.5 89.1501 244.069 80.621 243.178C69.9597 242.064 73.8366 232.357 80.621 231.879C86.0486 231.497 85.1504 228.146 84.1748 225.832C83.5239 224.288 84.8532 222.14 91.4439 220.103C92.5699 219.755 92.8606 219.1 92.0853 215.535C92.0853 214.58 92.5699 212.671 95.8053 210.713C96.631 209.863 98.0479 207.971 98.8745 205.653M99.036 223.604C98.5467 220.787 98.4437 210.469 98.8745 205.653" stroke="#7ED957" stroke-width="3"/>
<circle cx="117" cy="24" r="18.5" fill="#40D400" stroke="#2F9D00" stroke-width="3"/>
<circle cx="166" cy="28" r="18.5" fill="#FF0000" stroke="#BD0E0E" stroke-width="3"/>
<path d="M106 27.4182L113.427 35L127 11" stroke="#399E0E" stroke-width="4"/>
<path d="M154 16L178 40" stroke="#B91E1E" stroke-width="4"/>
<path d="M178 16L154 40" stroke="#B91E1E" stroke-width="4"/>
</svg>
