<svg width="250" height="250" viewBox="0 0 250 250" fill="none" xmlns="http://www.w3.org/2000/svg">
<rect width="250" height="250" stroke="white"/>
<path d="M41.6389 166.617C40.0737 152.637 33.5617 146.081 30.5014 144.551C28.2437 143.711 23.307 143.04 21.6213 147.068C19.5142 152.104 25.384 154.029 28.2438 155.658C30.5316 156.961 29.1971 159.657 28.2438 160.841C26.2537 163.315 31.6095 165.734 33.817 166.573C36.0746 167.462 33.8125 170.881 33.6665 171.312C33.0644 173.089 32.6386 175.088 35.1671 175.799C37.6956 176.51 38.0267 183.105 37.8762 186.314H41.1874C41.2239 185.273 41.4547 184.26 41.7895 183.323M41.6389 166.617C44.0471 160.2 50.85 147.572 58.7968 148.401C68.7303 149.438 65.1181 158.472 58.7968 158.916C53.7398 159.272 54.5766 162.39 55.4857 164.544C56.0921 165.981 54.8535 167.98 48.7128 169.875C47.6637 170.199 47.3928 170.809 48.1152 174.126C48.1152 175.015 47.6637 176.792 44.6491 178.613C43.8798 179.405 42.5596 181.165 41.7895 183.323M41.6389 166.617C42.0949 169.239 42.1908 178.84 41.7895 183.323" stroke="#7ED957" stroke-width="5"/>
<circle cx="38.9615" cy="215.027" r="29.9615" stroke="#923A5F" stroke-width="8"/>
<circle cx="39.588" cy="215.156" r="29.9615" stroke="#923A5F" stroke-width="8"/>
<rect x="37.5229" y="201.01" width="4.37915" height="21.4866" rx="2.18958" fill="#923A5F"/>
<rect x="37.5229" y="225.361" width="4.37915" height="4.29731" rx="2.14866" fill="#923A5F"/>
<path d="M125.629 167.232C124.063 153.252 117.551 146.696 114.491 145.166C112.233 144.327 107.297 143.655 105.611 147.683C103.504 152.719 109.374 154.644 112.234 156.273C114.521 157.576 113.187 160.272 112.234 161.457C110.243 163.93 115.599 166.349 117.807 167.188C120.064 168.077 117.802 171.496 117.656 171.927C117.054 173.704 116.628 175.704 119.157 176.414C121.685 177.125 122.016 183.721 121.866 186.929H125.177C125.214 185.888 125.444 184.875 125.779 183.938M125.629 167.232C128.037 160.815 134.84 148.187 142.787 149.016C152.72 150.053 149.108 159.087 142.787 159.531C137.73 159.887 138.566 163.005 139.475 165.159C140.082 166.596 138.843 168.595 132.703 170.491C131.653 170.814 131.382 171.424 132.105 174.741C132.105 175.63 131.653 177.407 128.639 179.228C127.87 180.02 126.549 181.78 125.779 183.938M125.629 167.232C126.085 169.854 126.181 179.455 125.779 183.938" stroke="#7ED957" stroke-width="5"/>
<circle cx="122.952" cy="215.642" r="29.9615" stroke="#923A5F" stroke-width="8"/>
<circle cx="123.578" cy="215.771" r="29.9615" stroke="#923A5F" stroke-width="8"/>
<rect x="121.513" y="201.625" width="4.37915" height="21.4866" rx="2.18958" fill="#923A5F"/>
<rect x="121.513" y="225.976" width="4.37915" height="4.29731" rx="2.14866" fill="#923A5F"/>
<path d="M130.324 33.7639C128.211 14.8197 119.421 5.93633 115.29 3.86265C112.243 2.72547 105.579 1.81572 103.303 7.2742C100.459 14.0973 108.382 16.7062 112.243 18.9136C115.331 20.6796 113.529 24.332 112.243 25.9374C109.556 29.289 116.786 32.5668 119.766 33.704C122.813 34.9081 119.76 39.5414 119.562 40.1257C118.75 42.5339 118.175 45.2428 121.588 46.2061C125.001 47.1693 125.448 56.1063 125.245 60.4543H129.715C129.764 59.0438 130.076 57.6713 130.528 56.4005M130.324 33.7639C133.575 25.0678 142.758 7.95655 153.485 9.08036C166.894 10.4851 162.018 22.7266 153.485 23.3286C146.659 23.8102 147.789 28.0363 149.016 30.9544C149.834 32.9013 148.162 35.6102 139.873 38.1789C138.457 38.6178 138.091 39.4434 139.066 43.9387C139.066 45.1427 138.457 47.5509 134.388 50.019C133.349 51.0914 131.567 53.4768 130.528 56.4005M130.324 33.7639C130.94 37.3162 131.069 50.3266 130.528 56.4005" stroke="#7ED957" stroke-width="5"/>
<circle cx="126.777" cy="99.362" r="39.1119" stroke="#923A5F" stroke-width="8"/>
<circle cx="127.489" cy="99.604" r="39.1119" stroke="#923A5F" stroke-width="8"/>
<rect x="123.816" y="75.5092" width="6.15644" height="31.4662" rx="3.07822" fill="#923A5F"/>
<rect x="145.021" y="100.819" width="6.15644" height="21.2055" rx="3.07822" transform="rotate(90 145.021 100.819)" fill="#923A5F"/>
<path d="M212.089 167.232C210.524 153.252 204.012 146.696 200.952 145.166C198.694 144.327 193.757 143.655 192.072 147.683C189.964 152.719 195.834 154.644 198.694 156.273C200.982 157.576 199.647 160.272 198.694 161.457C196.704 163.93 202.06 166.349 204.267 167.188C206.525 168.077 204.263 171.496 204.117 171.927C203.515 173.704 203.089 175.704 205.617 176.414C208.146 177.125 208.477 183.721 208.326 186.929H211.638C211.674 185.888 211.905 184.875 212.24 183.938M212.089 167.232C214.497 160.815 221.3 148.187 229.247 149.016C239.181 150.053 235.568 159.087 229.247 159.531C224.19 159.887 225.027 163.005 225.936 165.159C226.542 166.596 225.304 168.595 219.163 170.491C218.114 170.814 217.843 171.424 218.565 174.741C218.565 175.63 218.114 177.407 215.099 179.228C214.33 180.02 213.01 181.78 212.24 183.938M212.089 167.232C212.545 169.854 212.641 179.455 212.24 183.938" stroke="#7ED957" stroke-width="5"/>
<circle cx="209.412" cy="215.642" r="29.9615" stroke="#923A5F" stroke-width="8"/>
<circle cx="210.039" cy="215.771" r="29.9615" stroke="#923A5F" stroke-width="8"/>
<rect x="207.973" y="201.625" width="4.37915" height="21.4866" rx="2.18958" fill="#923A5F"/>
<rect x="207.973" y="225.976" width="4.37915" height="4.29731" rx="2.14866" fill="#923A5F"/>
<rect x="66" y="211.733" width="28" height="6" fill="#923A5F"/>
<rect x="153" y="211.733" width="27" height="6" fill="#923A5F"/>
</svg>
