<svg width="250" height="250" viewBox="0 0 250 250" fill="none" xmlns="http://www.w3.org/2000/svg">
<g clip-path="url(#clip0_88_667)">
<path d="M130.572 52.9926C128.463 43.7603 119.689 39.431 115.566 38.4204C112.525 37.8662 105.873 37.4228 103.602 40.083C100.763 43.4082 108.672 44.6796 112.525 45.7554C115.607 46.616 113.809 48.396 112.525 49.1784C109.843 50.8118 117.059 52.4092 120.033 52.9634C123.075 53.5502 120.027 55.8082 119.831 56.093C119.019 57.2666 118.446 58.5868 121.852 59.0562C125.259 59.5256 125.705 63.881 125.502 66H129.963C130.013 65.3126 130.324 64.6437 130.775 64.0244M130.572 52.9926C133.816 48.7546 142.982 40.4155 153.688 40.9632C167.072 41.6478 162.205 47.6136 153.688 47.907C146.875 48.1417 148.003 50.2013 149.227 51.6234C150.044 52.5722 148.376 53.8924 140.102 55.1442C138.689 55.3581 138.324 55.7605 139.297 57.9512C139.297 58.538 138.689 59.7116 134.627 60.9144C133.591 61.437 131.812 62.5996 130.775 64.0244M130.572 52.9926C131.186 54.7238 131.315 61.0643 130.775 64.0244" stroke="#6B562B" stroke-width="6"/>
<path d="M65 161.919L92.6072 183.204V204H109.492H126.377H143.262H160.146V183.204L188 161.919V120.817C183.563 49.5435 65 53.9472 65 120.817V141.368V161.919Z" fill="#6B5B3C"/>
<path d="M126.377 204V176.031M126.377 204H109.492M126.377 204H143.262M109.492 204H92.6072V183.204L65 161.919V141.368V120.817C65 53.9472 183.563 49.5435 188 120.817V161.919L160.146 183.204V204H143.262M109.492 204V176.031M109.492 204H143.262M143.262 204V176.031" stroke="#533F15" stroke-width="10" stroke-linecap="round"/>
<path d="M119.671 152.597C122.531 147.808 129.469 147.808 132.329 152.597C135.264 157.511 131.724 163.75 126 163.75C120.276 163.75 116.736 157.511 119.671 152.597Z" fill="white"/>
<ellipse cx="100" cy="134.5" rx="16" ry="15.5" fill="white"/>
<ellipse cx="153" cy="134.5" rx="16" ry="15.5" fill="white"/>
<path d="M125 10.5C188.237 10.5 239.5 61.7634 239.5 125C239.5 188.237 188.237 239.5 125 239.5C61.7634 239.5 10.5 188.237 10.5 125C10.5 61.7634 61.7634 10.5 125 10.5Z" stroke="#923A5F" stroke-width="21"/>
</g>
<defs>
<clipPath id="clip0_88_667">
<rect width="250" height="250" fill="white"/>
</clipPath>
</defs>
</svg>
