<svg width="250" height="250" viewBox="0 0 250 250" fill="none" xmlns="http://www.w3.org/2000/svg">
<path d="M187 119.123C187 156.194 159.018 248 124.5 248C89.9822 248 62 156.194 62 119.123C62 82.0521 89.9822 52 124.5 52C159.018 52 187 82.0521 187 119.123Z" fill="#923A5F"/>
<ellipse cx="125" cy="118.5" rx="44" ry="41.5" fill="white"/>
<path d="M112.352 140H106.784V96.48H112.352V140ZM125.972 140V96.48H139.54C143.721 96.48 146.9 97.5893 149.076 99.808C151.294 101.984 152.404 104.907 152.404 108.576V111.968C152.404 115.637 151.294 118.581 149.076 120.8C146.9 123.019 143.721 124.128 139.54 124.128H131.54V140H125.972ZM139.54 101.728H131.54V118.944H139.54C141.844 118.944 143.593 118.325 144.788 117.088C146.025 115.851 146.644 114.144 146.644 111.968V108.576C146.644 106.443 146.025 104.779 144.788 103.584C143.593 102.347 141.844 101.728 139.54 101.728Z" fill="#923A5F"/>
<path d="M127.366 29.2371C125.579 13.0805 118.144 5.50425 114.649 3.73571C112.072 2.76586 106.435 1.98998 104.51 6.64526C102.105 12.4644 108.807 14.6893 112.072 16.572C114.684 18.0781 113.16 21.193 112.072 22.5622C109.8 25.4206 115.915 28.2161 118.435 29.1859C121.013 30.2128 118.43 34.1644 118.263 34.6627C117.576 36.7165 117.09 39.0268 119.977 39.8484C122.864 40.6699 123.242 48.2918 123.07 52H126.85C126.892 50.797 127.156 49.6265 127.538 48.5427M127.366 29.2371C130.115 21.8206 137.883 7.2272 146.956 8.18564C158.298 9.38369 154.174 19.8238 146.956 20.3373C141.182 20.748 142.138 24.3523 143.176 26.841C143.868 28.5013 142.454 30.8117 135.443 33.0024C134.245 33.3767 133.935 34.0808 134.76 37.9146C134.76 38.9415 134.245 40.9953 130.803 43.1002C129.924 44.0148 128.417 46.0492 127.538 48.5427M127.366 29.2371C127.887 32.2666 127.996 43.3626 127.538 48.5427" stroke="#7ED957" stroke-width="4"/>
</svg>
