<svg width="250" height="250" viewBox="0 0 250 250" fill="none" xmlns="http://www.w3.org/2000/svg">
<g clip-path="url(#clip0_88_653)">
<path d="M163.863 52.099C168.054 25.2914 159.714 9.95925 155.02 5.64415C151.412 3.00089 142.943 -0.609859 137.924 6.09322C131.651 14.4721 141.159 20.866 145.446 25.2693C148.875 28.792 145.149 33.1784 142.857 34.9312C138.072 38.5906 146.416 45.6591 149.934 48.2784C153.517 51.0136 147.775 56.3062 147.299 57.0402C145.338 60.0651 143.58 63.588 147.734 66.1214C151.889 68.6549 144.962 72.7251 143.091 78.6343L145.446 100.5L153.22 88.5985C153.805 86.6755 154.723 84.8979 155.788 83.3097M163.863 52.099C171.364 41.2875 189.804 21.0005 203.564 26.3443C220.763 33.024 209.809 48.137 198.312 45.9441C189.115 44.1898 189.05 50.4032 189.596 54.8518C189.96 57.8196 186.752 60.9541 174.853 61.5529C172.82 61.6552 172.032 62.6615 171.664 69.1904C171.22 70.8467 169.527 73.9436 163.241 75.8981C161.473 77.0056 158.239 79.656 155.788 83.3097M163.863 52.099C163.367 57.2035 158.743 75.1463 155.788 83.3097" stroke="#7ED957" stroke-width="6"/>
<path d="M102.656 210.765C102.656 210.765 117.455 233.42 114.657 241.846C114.488 242.354 106.895 255.621 100.926 242.949L86.207 214.136L75.2562 186.036C66.8025 206.757 51.788 247.6 45.5925 249.56C41.2901 250.921 31.4078 249.333 33.2193 241.846C35.0308 234.36 61.7514 186.036 56.9961 158.099C52.2317 130.108 110.355 66.7014 141.377 73.5076L145 106.858L127.338 115.252C129.074 122.209 128.325 137 127.338 154.047C127.338 154.047 131.042 173.753 127.338 181.272C123.633 188.79 105.554 203.55 102.656 203.732C101.25 203.82 99.9811 202.815 99.3241 201.023L102.656 210.765Z" fill="#923A5F"/>
<path d="M75.2562 186.036C66.8025 206.757 51.788 247.6 45.5925 249.56C41.2901 250.921 31.4078 249.333 33.2193 241.846C35.0308 234.36 61.7514 186.036 56.9961 158.099C52.2317 130.108 110.355 66.7014 141.377 73.5076L145 106.858L127.338 115.252C129.074 122.209 128.325 137 127.338 154.047C127.338 154.047 131.042 173.753 127.338 181.272C123.633 188.79 105.554 203.55 102.656 203.732C101.18 203.824 99.8553 202.713 99.2308 200.75M75.2562 186.036C84.1808 168.428 95.0382 166.72 101.976 169.19M75.2562 186.036L86.207 214.136L100.926 242.949C106.895 255.621 114.488 242.354 114.657 241.846C117.455 233.42 102.656 210.765 102.656 210.765L99.2308 200.75M101.976 169.19C104.269 169.973 106.212 171.179 107.637 172.424C108.851 173.299 107.728 180.591 102.656 187.851C98.8968 193.231 98.3214 197.893 99.2308 200.75M101.976 169.19C99.7118 167.621 89.6036 154.922 93.6795 146.528" stroke="white" stroke-width="2"/>
</g>
<defs>
<clipPath id="clip0_88_653">
<rect width="250" height="250" fill="white"/>
</clipPath>
</defs>
</svg>
