<svg width="250" height="250" viewBox="0 0 250 250" fill="none" xmlns="http://www.w3.org/2000/svg">
<g clip-path="url(#clip0_31_1129)">
<rect x="59.8348" y="138.009" width="51.3363" height="21.2271" rx="10.6135" transform="rotate(3.11472 59.8348 138.009)" fill="#923A5F" stroke="white" stroke-width="2"/>
<rect x="58.911" y="123.314" width="51.3363" height="20.3668" rx="10.1834" transform="rotate(3.11472 58.911 123.314)" fill="#923A5F" stroke="white" stroke-width="2"/>
<rect x="57.1747" y="107.712" width="55.6376" height="21.2271" rx="10.6135" transform="rotate(3.11472 57.1747 107.712)" fill="#923A5F" stroke="white" stroke-width="2"/>
<rect x="2.46274" y="84.0573" width="108.974" height="21.2271" rx="10.6135" transform="rotate(3.11472 2.46274 84.0573)" fill="#923A5F" stroke="white" stroke-width="2"/>
<path d="M161.687 108.422C164.194 109.965 176.611 128.943 179.119 128.214L178.37 141.977C176.914 141.527 165.496 160.862 155.694 164.116C146.161 167.28 140.15 167.621 130.666 168.241C121.378 168.849 107.939 164.114 104.019 161.304C112.969 154.668 110.182 145.563 107.67 141.84C110.488 139.025 109.26 133.023 108.294 130.373C111.081 124.004 109.081 113.974 107.409 108.647C107.232 108.173 107.083 107.722 106.958 107.299L104.972 130.192C104.202 132.995 101.269 138.375 95.6907 137.478C90.1125 136.581 88.4808 131.645 88.3622 129.288C88.5098 119.774 88.7594 100.224 88.5769 98.137C88.3487 95.5276 108.059 80.2764 114.434 78.7684C119.534 77.562 124.433 78.6942 126.245 79.4111C134.168 83.4748 158.903 106.709 161.687 108.422Z" fill="#923A5F"/>
<path d="M106.958 107.299L104.972 130.192C104.202 132.995 101.269 138.375 95.6907 137.478C90.1126 136.581 88.4808 131.645 88.3622 129.288C88.5098 119.774 88.7594 100.224 88.5769 98.137C88.3487 95.5276 108.059 80.2764 114.434 78.7684C119.534 77.562 124.433 78.6942 126.245 79.4111C134.168 83.4748 158.903 106.709 161.687 108.422C164.194 109.965 176.611 128.943 179.119 128.214L178.37 141.977C176.914 141.527 165.496 160.862 155.694 164.116C146.161 167.28 140.15 167.621 130.666 168.241C121.378 168.849 107.939 164.114 104.019 161.304C112.969 154.668 110.182 145.563 107.67 141.84C110.488 139.025 109.26 133.023 108.294 130.373C111.338 123.416 108.672 112.091 106.958 107.299ZM106.958 107.299C111.846 108.183 123.059 108.027 128.809 100.326M106.958 107.299C109.249 115.091 120.192 132.134 145.641 137.97" stroke="white" stroke-width="2"/>
<path d="M210.846 142.025C233.437 139.282 244.826 123.375 247.697 115.764C249.351 110.125 251.105 97.6914 244.89 93.0752C237.121 87.3048 233.232 101.99 230.231 109.085C227.83 114.76 223.7 111.148 221.935 108.633C218.25 103.382 213.641 116.724 211.994 122.236C210.261 127.871 205.1 121.85 204.43 121.443C201.669 119.765 198.528 118.513 197.042 124.849C195.556 131.185 185.152 132.045 180.037 131.385L179.286 140.976C180.947 141.159 182.634 140.022 184.089 140.951M210.846 142.025C220.786 148.678 240.06 166.991 237.638 187.028C234.611 212.073 220.65 202.146 220.809 186.112C220.937 173.285 215.83 175.131 212.258 177.243C209.875 178.653 206.846 175.345 204.658 159.641C204.284 156.958 203.346 156.219 197.937 157.759C196.515 157.681 193.733 156.384 191.233 148.597C190.072 146.582 187.436 143.088 184.089 140.951M210.846 142.025C206.588 142.95 191.208 142.357 184.089 140.951" stroke="#7ED957" stroke-width="4"/>
</g>
<defs>
<clipPath id="clip0_31_1129">
<rect width="250" height="250" fill="white"/>
</clipPath>
</defs>
</svg>
