<svg width="250" height="250" viewBox="0 0 250 250" fill="none" xmlns="http://www.w3.org/2000/svg">
<g clip-path="url(#clip0_88_929)">
<path d="M106.993 48.726C103.705 18.7209 90.0242 4.65075 83.5949 1.36632C78.8519 -0.434827 68.4805 -1.87575 64.9391 6.76977C60.5124 17.5767 72.844 21.7087 78.852 25.2051C83.6584 28.0021 80.8547 33.787 78.852 36.3298C74.6711 41.6383 85.9229 46.8299 90.5604 48.631C95.3034 50.5381 90.5511 57.8767 90.2442 58.8022C88.9795 62.6164 88.0848 66.907 93.3969 68.4327C98.709 69.9583 99.4046 84.1132 99.0884 91H106.045C106.121 88.7658 106.606 86.592 107.31 84.5792M106.993 48.726C112.052 34.9525 126.345 7.85052 143.04 9.63048C163.909 11.8554 156.32 31.2443 143.04 32.1978C132.415 32.9607 134.174 39.6542 136.083 44.2761C137.357 47.3596 134.755 51.6502 121.855 55.7187C119.65 56.4138 119.081 57.7215 120.599 64.8414C120.599 66.7485 119.65 70.5627 113.317 74.4719C111.701 76.1704 108.927 79.9485 107.31 84.5792M106.993 48.726C107.951 54.3523 108.153 74.959 107.31 84.5792" stroke="#7ED957" stroke-width="6"/>
<path d="M60 250V91H140.528L190 139.407V250H60Z" fill="#923A5F"/>
<path d="M140 91L190 138H140V91Z" fill="#D47CA1"/>
<path d="M94.592 211.816V217H70.784V173.48H76.352V211.816H94.592ZM131.729 190.44V199.976C131.729 205.395 130.363 209.704 127.632 212.904C124.945 216.061 121.062 217.64 115.985 217.64C110.907 217.64 107.003 216.061 104.273 212.904C101.585 209.704 100.241 205.395 100.241 199.976V190.44C100.241 185.064 101.585 180.797 104.273 177.64C107.003 174.44 110.907 172.84 115.985 172.84C121.062 172.84 124.945 174.44 127.632 177.64C130.363 180.797 131.729 185.064 131.729 190.44ZM125.969 190.44C125.969 186.472 125.115 183.421 123.409 181.288C121.745 179.112 119.27 178.024 115.985 178.024C112.742 178.024 110.267 179.112 108.561 181.288C106.854 183.421 106.001 186.472 106.001 190.44V199.976C106.001 203.987 106.854 207.08 108.561 209.256C110.267 211.432 112.742 212.52 115.985 212.52C119.27 212.52 121.745 211.432 123.409 209.256C125.115 207.08 125.969 203.987 125.969 199.976V190.44ZM171.054 213.992C169.817 214.803 168.046 215.613 165.742 216.424C163.481 217.235 160.75 217.64 157.55 217.64C154.094 217.64 151.171 216.915 148.782 215.464C146.435 213.971 144.643 211.901 143.406 209.256C142.211 206.568 141.614 203.475 141.614 199.976V190.44C141.614 184.979 142.979 180.691 145.71 177.576C148.483 174.419 152.494 172.84 157.742 172.84C159.662 172.84 161.667 173.053 163.758 173.48C165.891 173.907 168.003 174.611 170.094 175.592L168.302 180.392C164.462 178.813 160.963 178.024 157.806 178.024C154.307 178.024 151.683 179.091 149.934 181.224C148.227 183.315 147.374 186.387 147.374 190.44V199.976C147.374 203.816 148.249 206.867 149.998 209.128C151.747 211.389 154.393 212.52 157.934 212.52C159.299 212.52 160.686 212.371 162.094 212.072C163.545 211.773 164.825 211.368 165.934 210.856V199.144H157.806V194.216H171.054V213.992Z" fill="white"/>
</g>
<defs>
<clipPath id="clip0_88_929">
<rect width="250" height="250" fill="white"/>
</clipPath>
</defs>
</svg>
