<svg width="250" height="250" viewBox="0 0 250 250" fill="none" xmlns="http://www.w3.org/2000/svg">
<rect x="48" y="13" width="153" height="222" rx="20" fill="#923A5F"/>
<rect x="56" y="25" width="137" height="172" rx="20" fill="#FFEEF5"/>
<path d="M87.0196 49.0635C85.9473 39.1717 81.4861 34.5332 79.3896 33.4504C77.843 32.8567 74.461 32.3816 73.3062 35.2318C71.8627 38.7945 75.8839 40.1567 77.843 41.3094C79.4104 42.2315 78.4961 44.1386 77.843 44.9769C76.4797 46.7269 80.1488 48.4384 81.661 49.0322C83.2076 49.6609 81.658 52.0802 81.5579 52.3854C81.1455 53.6428 80.8537 55.0572 82.5859 55.5602C84.3181 56.0632 84.545 60.7296 84.4419 63H86.7103C86.7352 62.2635 86.8934 61.5468 87.1227 60.8833M87.0196 49.0635C88.6693 44.5228 93.3297 35.5881 98.7738 36.1749C105.579 36.9084 103.104 43.3003 98.7738 43.6147C95.3094 43.8662 95.8827 46.0728 96.5054 47.5965C96.9209 48.6131 96.0724 50.0276 91.8656 51.3688C91.1469 51.598 90.9613 52.0291 91.4562 54.3763C91.4562 55.005 91.1469 56.2624 89.0817 57.5512C88.5547 58.1111 87.6503 59.3567 87.1227 60.8833M87.0196 49.0635C87.3319 50.9184 87.3976 57.7118 87.1227 60.8833" stroke="#7ED957" stroke-width="6"/>
<path d="M95.8624 64.09C96.4491 64.09 97.5409 66.9496 98.0135 68.3794L98.3526 73.3097C98.4333 73.3886 99.2031 74.0985 99.5779 74.4437L103 77.2046L101.24 89.974C100.947 90.4835 100.086 91.5715 98.9912 91.8476C97.8961 92.1236 90.7781 91.9626 87.3559 91.8476C87.0626 91.3381 86.7986 89.9346 88.0892 88.3964C92.1143 88.1334 100.194 87.2032 100.311 85.5861C100.429 83.969 99.8712 77.484 99.5779 74.4437C99.2031 74.0985 98.4333 73.3886 98.3526 73.3097L99.1868 85.4382C96.9966 86.3453 94.1024 86.1448 92.9291 85.9312L91.4625 72.8167L90.5336 72.9153L91.7069 86.3749C88.6563 87.6765 85.4819 87.476 84.276 87.2131L82.6138 73.852L81.5872 73.9506L83.1027 86.9173C81.1472 88.2189 78.2791 88.0184 77.0895 87.7554L74.9873 74.6902L73.9607 74.7395L75.6717 85.5368C74.3811 86.8384 72.0378 86.6379 71.0274 86.3749C70.1637 82.8087 68.3679 75.3903 68.0942 74.2464C67.8204 73.1026 68.2082 70.9431 68.4364 70.0064C69.5119 69.1189 70.5385 69.0203 70.9297 68.6752C71.2425 68.3991 72.1681 68.6588 72.5918 68.8231L73.1785 68.7738C73.7651 69.0203 75.3784 66.0622 75.4273 65.865C75.4762 65.6677 78.9472 65.0268 79.045 65.1747C79.1232 65.293 79.9576 65.6184 80.365 65.7664C80.5605 65.8157 81.0201 65.8847 81.2939 65.7664C81.6361 65.6184 82.8094 63.9421 82.9071 63.597C83.0049 63.2519 86.8671 62.9561 87.2093 63.0054C87.5515 63.0547 89.2626 65.2733 89.947 65.3719C90.4945 65.4508 91.5114 64.6817 91.9514 64.2872C92.538 64.0407 95.1291 64.09 95.8624 64.09Z" fill="#923A5F"/>
<path d="M157.02 49.0635C155.947 39.1717 151.486 34.5332 149.39 33.4504C147.843 32.8567 144.461 32.3816 143.306 35.2318C141.863 38.7945 145.884 40.1567 147.843 41.3094C149.41 42.2315 148.496 44.1386 147.843 44.9769C146.48 46.7269 150.149 48.4384 151.661 49.0322C153.208 49.6609 151.658 52.0802 151.558 52.3854C151.145 53.6428 150.854 55.0572 152.586 55.5602C154.318 56.0632 154.545 60.7296 154.442 63H156.71C156.735 62.2635 156.893 61.5468 157.123 60.8833M157.02 49.0635C158.669 44.5228 163.33 35.5881 168.774 36.1749C175.579 36.9084 173.104 43.3003 168.774 43.6147C165.309 43.8662 165.883 46.0728 166.505 47.5965C166.921 48.6131 166.072 50.0276 161.866 51.3688C161.147 51.598 160.961 52.0291 161.456 54.3763C161.456 55.005 161.147 56.2624 159.082 57.5512C158.555 58.1111 157.65 59.3567 157.123 60.8833M157.02 49.0635C157.332 50.9184 157.398 57.7118 157.123 60.8833" stroke="#7ED957" stroke-width="6"/>
<path d="M165.862 64.09C166.449 64.09 167.541 66.9496 168.013 68.3794L168.353 73.3097C168.433 73.3886 169.203 74.0985 169.578 74.4437L173 77.2046L171.24 89.974C170.947 90.4835 170.086 91.5715 168.991 91.8476C167.896 92.1236 160.778 91.9626 157.356 91.8476C157.063 91.3381 156.799 89.9346 158.089 88.3964C162.114 88.1334 170.194 87.2032 170.311 85.5861C170.429 83.969 169.871 77.484 169.578 74.4437C169.203 74.0985 168.433 73.3886 168.353 73.3097L169.187 85.4382C166.997 86.3453 164.102 86.1448 162.929 85.9312L161.462 72.8167L160.534 72.9153L161.707 86.3749C158.656 87.6765 155.482 87.476 154.276 87.2131L152.614 73.852L151.587 73.9506L153.103 86.9173C151.147 88.2189 148.279 88.0184 147.089 87.7554L144.987 74.6902L143.961 74.7395L145.672 85.5368C144.381 86.8384 142.038 86.6379 141.027 86.3749C140.164 82.8087 138.368 75.3903 138.094 74.2464C137.82 73.1026 138.208 70.9431 138.436 70.0064C139.512 69.1189 140.539 69.0203 140.93 68.6752C141.243 68.3991 142.168 68.6588 142.592 68.8231L143.178 68.7738C143.765 69.0203 145.378 66.0622 145.427 65.865C145.476 65.6677 148.947 65.0268 149.045 65.1747C149.123 65.293 149.958 65.6184 150.365 65.7664C150.561 65.8157 151.02 65.8847 151.294 65.7664C151.636 65.6184 152.809 63.9421 152.907 63.597C153.005 63.2519 156.867 62.9561 157.209 63.0054C157.551 63.0547 159.263 65.2733 159.947 65.3719C160.495 65.4508 161.511 64.6817 161.951 64.2872C162.538 64.0407 165.129 64.09 165.862 64.09Z" fill="#923A5F"/>
<path d="M87.0196 130.064C85.9473 120.172 81.4861 115.533 79.3896 114.45C77.843 113.857 74.461 113.382 73.3062 116.232C71.8627 119.795 75.8839 121.157 77.843 122.309C79.4104 123.231 78.4961 125.139 77.843 125.977C76.4797 127.727 80.1488 129.438 81.661 130.032C83.2076 130.661 81.658 133.08 81.5579 133.385C81.1455 134.643 80.8537 136.057 82.5859 136.56C84.3181 137.063 84.545 141.73 84.4419 144H86.7103C86.7352 143.263 86.8934 142.547 87.1227 141.883M87.0196 130.064C88.6693 125.523 93.3297 116.588 98.7738 117.175C105.579 117.908 103.104 124.3 98.7738 124.615C95.3094 124.866 95.8827 127.073 96.5054 128.597C96.9209 129.613 96.0724 131.028 91.8656 132.369C91.1469 132.598 90.9613 133.029 91.4562 135.376C91.4562 136.005 91.1469 137.262 89.0817 138.551C88.5547 139.111 87.6503 140.357 87.1227 141.883M87.0196 130.064C87.3319 131.918 87.3976 138.712 87.1227 141.883" stroke="#7ED957" stroke-width="6"/>
<path d="M95.8624 145.09C96.4491 145.09 97.5409 147.95 98.0135 149.379L98.3526 154.31C98.4333 154.389 99.2031 155.099 99.5779 155.444L103 158.205L101.24 170.974C100.947 171.484 100.086 172.571 98.9912 172.848C97.8961 173.124 90.7781 172.963 87.3559 172.848C87.0626 172.338 86.7986 170.935 88.0892 169.396C92.1143 169.133 100.194 168.203 100.311 166.586C100.429 164.969 99.8712 158.484 99.5779 155.444C99.2031 155.099 98.4333 154.389 98.3526 154.31L99.1868 166.438C96.9966 167.345 94.1024 167.145 92.9291 166.931L91.4625 153.817L90.5336 153.915L91.7069 167.375C88.6563 168.677 85.4819 168.476 84.276 168.213L82.6138 154.852L81.5872 154.951L83.1027 167.917C81.1472 169.219 78.2791 169.018 77.0895 168.755L74.9873 155.69L73.9607 155.739L75.6717 166.537C74.3811 167.838 72.0378 167.638 71.0274 167.375C70.1637 163.809 68.3679 156.39 68.0942 155.246C67.8204 154.103 68.2082 151.943 68.4364 151.006C69.5119 150.119 70.5385 150.02 70.9297 149.675C71.2425 149.399 72.1681 149.659 72.5918 149.823L73.1785 149.774C73.7651 150.02 75.3784 147.062 75.4273 146.865C75.4762 146.668 78.9472 146.027 79.045 146.175C79.1232 146.293 79.9576 146.618 80.365 146.766C80.5605 146.816 81.0201 146.885 81.2939 146.766C81.6361 146.618 82.8094 144.942 82.9071 144.597C83.0049 144.252 86.8671 143.956 87.2093 144.005C87.5515 144.055 89.2626 146.273 89.947 146.372C90.4945 146.451 91.5114 145.682 91.9514 145.287C92.538 145.041 95.1291 145.09 95.8624 145.09Z" fill="#923A5F"/>
<path d="M159.02 133.064C157.947 123.172 153.486 118.533 151.39 117.45C149.843 116.857 146.461 116.382 145.306 119.232C143.863 122.795 147.884 124.157 149.843 125.309C151.41 126.231 150.496 128.139 149.843 128.977C148.48 130.727 152.149 132.438 153.661 133.032C155.208 133.661 153.658 136.08 153.558 136.385C153.145 137.643 152.854 139.057 154.586 139.56C156.318 140.063 156.545 144.73 156.442 147H158.71C158.735 146.263 158.893 145.547 159.123 144.883M159.02 133.064C160.669 128.523 165.33 119.588 170.774 120.175C177.579 120.908 175.104 127.3 170.774 127.615C167.309 127.866 167.883 130.073 168.505 131.597C168.921 132.613 168.072 134.028 163.866 135.369C163.147 135.598 162.961 136.029 163.456 138.376C163.456 139.005 163.147 140.262 161.082 141.551C160.555 142.111 159.65 143.357 159.123 144.883M159.02 133.064C159.332 134.918 159.398 141.712 159.123 144.883" stroke="#7ED957" stroke-width="6"/>
<path d="M167.862 148.09C168.449 148.09 169.541 150.95 170.013 152.379L170.353 157.31C170.433 157.389 171.203 158.099 171.578 158.444L175 161.205L173.24 173.974C172.947 174.484 172.086 175.571 170.991 175.848C169.896 176.124 162.778 175.963 159.356 175.848C159.063 175.338 158.799 173.935 160.089 172.396C164.114 172.133 172.194 171.203 172.311 169.586C172.429 167.969 171.871 161.484 171.578 158.444C171.203 158.099 170.433 157.389 170.353 157.31L171.187 169.438C168.997 170.345 166.102 170.145 164.929 169.931L163.462 156.817L162.534 156.915L163.707 170.375C160.656 171.677 157.482 171.476 156.276 171.213L154.614 157.852L153.587 157.951L155.103 170.917C153.147 172.219 150.279 172.018 149.089 171.755L146.987 158.69L145.961 158.739L147.672 169.537C146.381 170.838 144.038 170.638 143.027 170.375C142.164 166.809 140.368 159.39 140.094 158.246C139.82 157.103 140.208 154.943 140.436 154.006C141.512 153.119 142.539 153.02 142.93 152.675C143.243 152.399 144.168 152.659 144.592 152.823L145.178 152.774C145.765 153.02 147.378 150.062 147.427 149.865C147.476 149.668 150.947 149.027 151.045 149.175C151.123 149.293 151.958 149.618 152.365 149.766C152.561 149.816 153.02 149.885 153.294 149.766C153.636 149.618 154.809 147.942 154.907 147.597C155.005 147.252 158.867 146.956 159.209 147.005C159.551 147.055 161.263 149.273 161.947 149.372C162.495 149.451 163.511 148.682 163.951 148.287C164.538 148.041 167.129 148.09 167.862 148.09Z" fill="#923A5F"/>
<ellipse cx="124.5" cy="216" rx="13.5" ry="14" fill="#FFD2E5"/>
</svg>
