<svg width="250" height="250" viewBox="0 0 250 250" fill="none" xmlns="http://www.w3.org/2000/svg">
<path d="M151.846 168.62C154.04 170.797 154.057 174.343 151.884 176.541C149.71 178.739 146.17 178.756 143.976 176.579L92.3298 125.343L100.199 117.384L151.846 168.62Z" fill="#7ED957"/>
<rect width="47.0848" height="68.3867" rx="10" transform="matrix(0.865668 -0.500619 0.499382 0.866382 24.5366 66.6229)" fill="#923A5F"/>
<rect width="42.4911" height="53.4451" rx="10" transform="matrix(0.865668 -0.500619 0.499382 0.866382 28.2471 68.4602)" fill="#FFEEF5"/>
<ellipse cx="4.01943" cy="4.31009" rx="4.01943" ry="4.31009" transform="matrix(0.865668 -0.500619 0.499382 0.866382 70.4229 107.229)" fill="#FFD2E5"/>
<rect x="1.36505" y="0.365764" width="51.7011" height="20.3939" rx="10.197" transform="matrix(0.865668 -0.500619 0.499382 0.866382 108.682 208.331)" fill="#923A5F" stroke="white" stroke-width="2"/>
<rect x="1.36505" y="0.365764" width="51.7011" height="20.3939" rx="10.197" transform="matrix(0.865668 -0.500619 0.499382 0.866382 99.4748 196.84)" fill="#923A5F" stroke="white" stroke-width="2"/>
<rect x="1.36505" y="0.365764" width="48.3448" height="21.5136" rx="10.7568" transform="matrix(0.865668 -0.500619 0.499382 0.866382 83.5198 164.677)" fill="#923A5F" stroke="white" stroke-width="2"/>
<path d="M191.935 75.1265C191.778 45.5141 203.256 30.3263 209.015 26.4339C213.332 24.1688 223.044 21.6514 227.361 29.7023C232.757 39.766 221.475 45.118 216.14 49.1718C211.872 52.4149 215.174 57.7554 217.358 60.0202C221.919 64.7485 211.779 71.0178 207.563 73.2716C203.259 75.64 208.585 82.2866 208.978 83.1562C210.6 86.74 211.921 90.828 207.033 92.8855C202.145 94.943 211.117 139.638 212.172 146.32L206.301 136.134L197.468 116.249C197.151 114.078 196.451 112.01 195.561 110.123M191.935 75.1265C185.612 62.2378 169.042 37.3418 153.349 40.8681C133.733 45.2759 143.078 63.3692 155.821 62.8748C166.015 62.4793 165.075 69.1951 163.764 73.9071C162.889 77.0506 165.836 80.9556 178.558 83.5394C180.732 83.9809 181.417 85.1951 180.752 92.3008C180.961 94.1605 182.282 97.7783 188.737 100.911C190.461 102.394 193.515 105.781 195.561 110.123M191.935 75.1265C191.64 80.7159 193.705 100.832 195.561 110.123" stroke="#7ED957" stroke-width="4"/>
<path d="M61.1339 33.1996C88.809 33.0668 111.36 55.4323 111.494 83.1652C111.627 110.898 89.2918 133.48 61.6165 133.613C33.9411 133.747 11.389 111.38 11.2557 83.647C11.1226 55.914 33.4586 33.3326 61.1339 33.1996Z" stroke="#7ED957" stroke-width="6"/>
<rect x="1.36505" y="0.365764" width="56.1762" height="21.5136" rx="10.7568" transform="matrix(0.865668 -0.500619 0.499382 0.866382 89.7097 184.38)" fill="#923A5F" stroke="white" stroke-width="2"/>
<path d="M179.496 127.63C182.45 126.263 203.125 136.656 204.82 134.679L211.691 146.599C210.231 147.017 211.272 172.725 204.826 177.478C196.769 183.419 188.309 190.874 181.444 197.407C175.952 202.633 164.978 203.512 160.177 203.299C164.031 192.869 156.747 186.774 152.623 185.029C153.442 181.139 149.149 176.788 146.899 175.099C145.756 168.252 138.626 160.953 134.329 157.41C133.924 157.109 133.553 156.814 133.219 156.528L144.029 176.759C144.913 179.522 145.396 185.621 140.253 187.912C135.109 190.203 131.06 186.964 129.678 185.058C124.619 177.02 114.181 160.533 112.892 158.887C111.28 156.829 119.421 133.327 123.919 128.59C127.518 124.801 132.222 123.077 134.125 122.688C148.018 124.905 176.542 128.997 179.496 127.63Z" fill="#923A5F"/>
<path d="M133.219 156.528L144.029 176.759C144.913 179.522 145.396 185.621 140.253 187.912C135.109 190.203 131.06 186.964 129.678 185.058C124.619 177.02 114.181 160.533 112.892 158.887C111.28 156.829 119.421 133.327 123.919 128.59C127.518 124.801 132.222 123.077 134.125 122.688C148.018 124.905 176.542 128.997 179.496 127.63C182.45 126.263 203.125 136.656 204.82 134.679L211.691 146.599C210.231 147.017 211.272 172.725 204.826 177.478C196.769 183.419 188.309 190.874 181.444 197.407C175.952 202.633 164.978 203.512 160.177 203.299C164.031 192.869 156.747 186.774 152.623 185.029C153.442 181.139 149.149 176.788 146.899 175.099C145.65 167.62 137.259 159.602 133.219 156.528ZM133.219 156.528C137.779 154.603 147.05 148.359 147.654 138.784M133.219 156.528C139.374 161.796 157.786 170.084 182.199 161.092" stroke="white" stroke-width="2"/>
</svg>
