<svg width="250" height="250" viewBox="0 0 250 250" fill="none" xmlns="http://www.w3.org/2000/svg">
<g clip-path="url(#clip0_93_2)">
<path d="M168 25H26M26 25L51.2377 50M26 25L51.2377 0" stroke="#7ED957" stroke-width="5"/>
<path d="M79 25H221M221 25L195.762 50M221 25L195.762 0" stroke="#7ED957" stroke-width="5"/>
<path d="M155.995 163.157C157.722 163.157 160.935 171.44 162.325 175.582L163.323 189.863C163.561 190.091 165.826 192.147 166.929 193.147L177 201.144L171.821 238.132C170.957 239.607 168.425 242.759 165.203 243.558C161.98 244.358 141.033 243.892 130.962 243.558C130.098 242.083 129.322 238.017 133.12 233.562C144.965 232.8 168.742 230.106 169.087 225.422C169.432 220.738 167.792 201.954 166.929 193.147C165.826 192.147 163.561 190.091 163.323 189.863L165.778 224.993C159.333 227.621 150.816 227.04 147.363 226.421L143.047 188.434L140.313 188.72L143.766 227.707C134.789 231.477 125.447 230.896 121.898 230.134L117.006 191.433L113.985 191.719L118.445 229.278C112.69 233.048 104.25 232.467 100.749 231.705L94.5627 193.861L91.5414 194.004L96.5769 225.279C92.7787 229.049 85.8825 228.468 82.9092 227.707C80.3676 217.377 75.0828 195.889 74.2771 192.576C73.4714 189.263 74.6128 183.008 75.2842 180.294C78.4493 177.724 81.4706 177.438 82.6215 176.439C83.5423 175.639 86.2662 176.391 87.5131 176.867L89.2396 176.724C90.966 177.438 95.7137 168.87 95.8576 168.298C96.0014 167.727 106.216 165.871 106.504 166.299C106.734 166.642 109.189 167.584 110.388 168.013C110.964 168.156 112.316 168.356 113.122 168.013C114.129 167.584 117.582 162.729 117.87 161.729C118.157 160.73 129.523 159.873 130.53 160.016C131.537 160.158 136.573 166.585 138.587 166.87C140.198 167.099 143.191 164.871 144.486 163.729C146.212 163.015 153.837 163.157 155.995 163.157Z" fill="#923A5F"/>
<path d="M39 107C64.8576 64.7411 135.058 5.5786 209 107" stroke="#68D23A" stroke-width="10" stroke-linecap="round"/>
<path d="M67 124C84.3398 95.3243 131.416 55.1783 181 124" stroke="#68D23A" stroke-width="8" stroke-linecap="round"/>
<path d="M88 137C99.2557 118.134 129.814 91.7226 162 137" stroke="#68D23A" stroke-width="6" stroke-linecap="round"/>
<path d="M124.5 137.5C130.071 137.5 134.5 141.575 134.5 146.5C134.5 151.425 130.071 155.5 124.5 155.5C118.929 155.5 114.5 151.425 114.5 146.5C114.5 141.575 118.929 137.5 124.5 137.5Z" fill="#68D23A" stroke="#68D23A"/>
</g>
<defs>
<clipPath id="clip0_93_2">
<rect width="250" height="250" fill="white"/>
</clipPath>
</defs>
</svg>
