<svg width="250" height="250" viewBox="0 0 250 250" fill="none" xmlns="http://www.w3.org/2000/svg">
<g clip-path="url(#clip0_31_1105)">
<path d="M125.366 26.7725C123.579 10.2862 116.144 2.55536 112.649 0.750727C110.072 -0.238916 104.435 -1.03063 102.51 3.71965C100.105 9.65751 106.807 11.9279 110.072 13.8489C112.684 15.3858 111.16 18.5643 110.072 19.9614C107.8 22.8782 113.915 25.7307 116.435 26.7204C119.013 27.7682 116.43 31.8004 116.263 32.3089C115.576 34.4046 115.09 36.7621 117.977 37.6004C120.864 38.4386 121.242 46.2161 121.07 50H124.85C124.892 48.7724 125.156 47.578 125.538 46.4721M125.366 26.7725C128.115 19.2047 135.883 4.31347 144.956 5.29147C156.298 6.51397 152.174 17.1672 144.956 17.6911C139.182 18.1103 140.138 21.788 141.176 24.3275C141.868 26.0218 140.454 28.3793 133.443 30.6147C132.245 30.9966 131.935 31.7151 132.76 35.6271C132.76 36.675 132.245 38.7707 128.803 40.9186C127.924 41.8519 126.417 43.9278 125.538 46.4721M125.366 26.7725C125.887 29.8639 125.996 41.1863 125.538 46.4721" stroke="#7ED957" stroke-width="4"/>
<rect x="25" y="50" width="200" height="200" rx="20" fill="#FFD7E8"/>
<rect x="25" y="50" width="200" height="200" rx="20" stroke="#923A5F"/>
<path d="M25 70C25 58.9543 33.9543 50 45 50H205C216.046 50 225 58.9543 225 70V90H25V70Z" fill="#923A5F"/>
<rect x="50" y="119" width="150" height="4" fill="#923A5F"/>
<rect x="50" y="150" width="150" height="4" fill="#923A5F"/>
<rect x="50" y="181" width="150" height="4" fill="#923A5F"/>
<rect x="50" y="213" width="150" height="4" fill="#923A5F"/>
<rect x="57" y="37" width="10" height="30" rx="5" fill="#FFD7E8"/>
<rect x="82" y="37" width="10" height="30" rx="5" fill="#FFD7E8"/>
<rect x="107" y="37" width="10" height="30" rx="5" fill="#FFD7E8"/>
<rect x="132" y="37" width="10" height="30" rx="5" fill="#FFD7E8"/>
<rect x="157" y="37" width="10" height="30" rx="5" fill="#FFD7E8"/>
<rect x="182" y="37" width="10" height="30" rx="5" fill="#FFD7E8"/>
</g>
<defs>
<clipPath id="clip0_31_1105">
<rect width="250" height="250" fill="white"/>
</clipPath>
</defs>
</svg>
