<svg width="250" height="250" viewBox="0 0 250 250" fill="none" xmlns="http://www.w3.org/2000/svg">
<g clip-path="url(#clip0_88_937)">
<path d="M50.1804 18.2546C52.8118 7.32659 58.4807 2.77435 60.9862 1.86423C62.8049 1.42251 66.6629 1.37915 67.5447 4.7395C68.6471 8.93994 63.9447 9.88492 61.583 10.8932C59.6936 11.6998 60.4423 13.9687 61.0528 15.0023C62.3274 17.1602 57.969 18.5475 56.1889 18.9942C54.3651 19.475 55.7516 22.4097 55.8197 22.766C56.1 24.2345 56.2224 25.8615 54.2089 26.1746C52.1954 26.4878 51.2666 31.6834 51.054 34.2421L48.5124 33.9142C48.5909 33.0854 48.5173 32.2595 48.3563 31.4829M50.1804 18.2546C48.9884 12.9286 45.0583 2.2442 38.8738 2.1147C31.1431 1.95282 32.9917 9.47224 37.7983 10.4505C41.6436 11.233 40.6822 13.6225 39.7642 15.2397C39.1518 16.3187 39.898 18.0261 44.4175 20.137C45.1897 20.4977 45.3353 21.0075 44.4415 23.5659C44.3506 24.2703 44.5154 25.7239 46.643 27.4664C47.1526 28.1699 47.9859 29.6962 48.3563 31.4829M50.1804 18.2546C49.5624 20.2877 48.5067 27.8897 48.3563 31.4829" stroke="#7ED957" stroke-width="2"/>
<path d="M125.289 18.2546C127.921 7.32659 133.59 2.77435 136.095 1.86423C137.914 1.42251 141.772 1.37915 142.654 4.7395C143.756 8.93994 139.054 9.88492 136.692 10.8932C134.803 11.6998 135.551 13.9687 136.162 15.0023C137.436 17.1602 133.078 18.5475 131.298 18.9942C129.474 19.475 130.861 22.4097 130.929 22.766C131.209 24.2345 131.331 25.8615 129.318 26.1746C127.304 26.4878 126.376 31.6834 126.163 34.2421L123.621 33.9142C123.7 33.0854 123.626 32.2595 123.465 31.4829M125.289 18.2546C124.097 12.9286 120.167 2.2442 113.983 2.1147C106.252 1.95282 108.101 9.47224 112.907 10.4505C116.752 11.233 115.791 13.6225 114.873 15.2397C114.261 16.3187 115.007 18.0261 119.526 20.137C120.299 20.4977 120.444 21.0075 119.55 23.5659C119.46 24.2703 119.624 25.7239 121.752 27.4664C122.261 28.1699 123.095 29.6962 123.465 31.4829M125.289 18.2546C124.671 20.2877 123.616 27.8897 123.465 31.4829" stroke="#7ED957" stroke-width="2"/>
<path d="M202.989 20.8443C205.62 9.91631 211.289 5.36407 213.794 4.45395C215.613 4.01223 219.471 3.96888 220.353 7.32922C221.455 11.5297 216.753 12.4746 214.391 13.4829C212.502 14.2895 213.25 16.5584 213.861 17.5921C215.135 19.75 210.777 21.1372 208.997 21.5839C207.173 22.0648 208.56 24.9994 208.628 25.3558C208.908 26.8242 209.03 28.4512 207.017 28.7644C205.003 29.0775 204.075 34.2731 203.862 36.8318L201.321 36.5039C201.399 35.6751 201.325 34.8493 201.164 34.0727M202.989 20.8443C201.797 15.5183 197.866 4.83392 191.682 4.70442C183.951 4.54254 185.8 12.062 190.606 13.0402C194.452 13.8227 193.49 16.2123 192.572 17.8295C191.96 18.9084 192.706 20.6159 197.226 22.7268C197.998 23.0874 198.143 23.5973 197.25 26.1556C197.159 26.86 197.324 28.3136 199.451 30.0561C199.961 30.7597 200.794 32.2859 201.164 34.0727M202.989 20.8443C202.37 22.8774 201.315 30.4795 201.164 34.0727" stroke="#7ED957" stroke-width="2"/>
<path d="M155.448 114.82C159.987 104.537 158.242 97.4786 156.803 95.235C155.625 93.7804 152.584 91.4053 149.845 93.5415C146.42 96.2118 149.585 99.8159 150.85 102.05C151.863 103.838 149.891 105.187 148.779 105.638C146.456 106.581 149.079 110.327 150.223 111.763C151.381 113.251 148.499 114.743 148.228 114.985C147.115 115.982 146.03 117.201 147.441 118.672C148.851 120.142 146.438 124.836 145.054 126.999L147.274 128.28C147.714 127.574 148.274 126.962 148.873 126.442M155.448 114.82C159.627 111.309 169.234 105.201 174.228 108.85C180.472 113.411 174.44 118.267 170.026 116.129C166.495 114.418 165.809 116.901 165.558 118.743C165.39 119.972 163.761 120.877 158.887 119.813C158.055 119.631 157.63 119.948 156.788 122.524C156.433 123.139 155.42 124.195 152.671 124.289C151.84 124.539 150.251 125.247 148.873 126.442M155.448 114.82C154.706 116.811 150.933 123.495 148.873 126.442" stroke="#7ED957" stroke-width="2"/>
<path d="M78.474 182.604C85.119 173.539 84.9342 166.27 84.0113 163.77C83.1741 162.096 80.716 159.122 77.5807 160.619C73.6616 162.489 75.9766 166.69 76.7318 169.144C77.3359 171.108 75.12 172.001 73.9365 172.203C71.4658 172.623 73.221 176.846 74.0294 178.494C74.8399 180.197 71.7038 181.034 71.3878 181.212C70.0855 181.946 68.7642 182.903 69.8253 184.643C70.8864 186.382 67.5189 190.447 65.7025 192.261L67.5941 193.99C68.1763 193.395 68.8543 192.918 69.5513 192.539M78.474 182.604C83.3104 180.075 94.0064 176.177 98.0989 180.815C103.214 186.614 96.2793 190.058 92.4285 187.019C89.348 184.589 88.1442 186.866 87.5022 188.611C87.0738 189.775 85.2882 190.308 80.758 188.22C79.984 187.864 79.5006 188.082 78.1244 190.416C77.6452 190.94 76.4289 191.753 73.7245 191.254C72.8583 191.319 71.1548 191.668 69.5513 192.539M78.474 182.604C77.3207 184.389 72.1978 190.104 69.5513 192.539" stroke="#7ED957" stroke-width="2"/>
<path d="M153.583 187.784C160.228 178.718 160.043 171.45 159.12 168.949C158.283 167.275 155.825 164.302 152.69 165.798C148.771 167.669 151.085 171.87 151.841 174.324C152.445 176.288 150.229 177.181 149.045 177.382C146.575 177.803 148.33 182.026 149.138 183.674C149.949 185.377 146.813 186.213 146.497 186.392C145.194 187.126 143.873 188.083 144.934 189.823C145.995 191.562 142.628 195.626 140.811 197.441L142.703 199.17C143.285 198.575 143.963 198.098 144.66 197.719M153.583 187.784C158.419 185.255 169.115 181.357 173.208 185.995C178.323 191.794 171.388 195.238 167.537 192.199C164.457 189.768 163.253 192.046 162.611 193.791C162.183 194.955 160.397 195.488 155.867 193.4C155.093 193.043 154.61 193.261 153.233 195.596C152.754 196.12 151.538 196.933 148.833 196.434C147.967 196.499 146.264 196.848 144.66 197.719M153.583 187.784C152.43 189.569 147.307 195.284 144.66 197.719" stroke="#7ED957" stroke-width="2"/>
<path d="M218.295 183.086C224.797 173.917 224.498 166.653 223.536 164.167C222.673 162.506 220.168 159.571 217.057 161.117C213.167 163.049 215.548 167.213 216.342 169.655C216.977 171.609 214.775 172.537 213.595 172.757C211.131 173.216 212.952 177.411 213.787 179.046C214.624 180.736 211.501 181.622 211.188 181.805C209.897 182.559 208.591 183.537 209.68 185.26C210.768 186.983 207.465 191.099 205.677 192.942L207.595 194.641C208.168 194.037 208.839 193.549 209.53 193.16M218.295 183.086C223.091 180.481 233.725 176.415 237.89 180.989C243.096 186.706 236.215 190.259 232.317 187.281C229.199 184.899 228.031 187.195 227.417 188.95C227.007 190.121 225.23 190.682 220.667 188.665C219.888 188.321 219.408 188.546 218.068 190.902C217.597 191.434 216.394 192.266 213.682 191.809C212.817 191.888 211.119 192.264 209.53 193.16M218.295 183.086C217.17 184.889 212.138 190.683 209.53 193.16" stroke="#7ED957" stroke-width="2"/>
<circle cx="49.5" cy="65.5" r="32.5" fill="#9D4067"/>
<circle cx="49.5" cy="140.5" r="32.5" fill="#F8CFE0"/>
<ellipse cx="49.5" cy="216" rx="32.5" ry="32" fill="#9D4067"/>
<circle cx="124.5" cy="65.5" r="32.5" fill="#9D4067"/>
<circle cx="124.5" cy="140.5" r="32.5" fill="#9D4067"/>
<ellipse cx="124.5" cy="216" rx="32.5" ry="32" fill="#9D4067"/>
<ellipse cx="200" cy="65.5" rx="32" ry="32.5" fill="#9D4067"/>
<ellipse cx="200" cy="140.5" rx="32" ry="32.5" fill="#F8CFE0"/>
<circle cx="200" cy="216" r="32" fill="#9D4067"/>
<path d="M48 64H202L48 218H202" stroke="#FFACCF" stroke-width="9" stroke-linecap="round" stroke-linejoin="round"/>
</g>
<defs>
<clipPath id="clip0_88_937">
<rect width="250" height="250" fill="white"/>
</clipPath>
</defs>
</svg>
