<svg width="250" height="250" viewBox="0 0 250 250" fill="none" xmlns="http://www.w3.org/2000/svg">
<g clip-path="url(#clip0_89_58)">
<rect x="1.06833" y="0.938647" width="52.799" height="23.938" rx="11.969" transform="matrix(0.998264 -0.0588956 0.0700632 0.997543 22.0875 138.601)" fill="#923A5F" stroke="white" stroke-width="2"/>
<rect x="1.06833" y="0.938647" width="52.799" height="22.9773" rx="11.4887" transform="matrix(0.998264 -0.0588956 0.0700632 0.997543 19.1768 122.414)" fill="#923A5F" stroke="white" stroke-width="2"/>
<rect x="1.06833" y="0.938647" width="57.2183" height="23.938" rx="11.969" transform="matrix(0.998264 -0.0588956 0.0700632 0.997543 15.3174 105.322)" fill="#923A5F" stroke="white" stroke-width="2"/>
<rect x="1.06833" y="0.938647" width="57.2183" height="23.938" rx="11.969" transform="matrix(0.998264 -0.0588956 0.0700632 0.997543 13.9361 90.7199)" fill="#923A5F" stroke="white" stroke-width="2"/>
<path d="M123.17 94.4558C125.933 95.8638 141.138 115.409 143.598 114.297L144.676 129.652C143.131 129.329 134.074 152.152 124.513 156.947C115.214 161.61 109.129 162.714 99.5399 164.549C90.1486 166.346 75.808 162.721 71.4347 160.078C79.674 151.636 75.613 141.876 72.5525 138.051C75.0504 134.588 72.9943 128.08 71.654 125.258C73.6436 117.857 70.2622 106.976 67.8433 101.27C67.5999 100.765 67.3866 100.284 67.2031 99.8297L68.2418 125.459C67.8322 128.66 65.5605 134.982 59.7514 134.662C53.9423 134.342 51.6173 129.065 51.181 126.466C50.0581 115.897 47.6958 94.1849 47.2302 91.8919C46.6482 89.0256 64.7085 69.7276 71.0088 67.2841C76.049 65.3292 81.197 65.9924 83.1409 66.5683C91.7652 70.1168 120.102 92.8928 123.17 94.4558Z" fill="#923A5F"/>
<path d="M67.2031 99.8297L68.2418 125.459C67.8322 128.66 65.5605 134.982 59.7514 134.662C53.9423 134.342 51.6173 129.065 51.181 126.466C50.0581 115.897 47.6958 94.1849 47.2302 91.8919C46.6482 89.0256 64.7085 69.7276 71.0088 67.2841C76.049 65.3292 81.197 65.9924 83.1409 66.5683C91.7652 70.1168 120.102 92.8928 123.17 94.4558C125.933 95.8638 141.138 115.409 143.598 114.297L144.676 129.652C143.131 129.329 134.074 152.152 124.513 156.947C115.214 161.61 109.129 162.714 99.5399 164.549C90.1486 166.346 75.808 162.721 71.4347 160.078C79.674 151.636 75.613 141.876 72.5525 138.051C75.0504 134.588 72.9943 128.08 71.654 125.258C73.8273 117.174 69.5923 104.937 67.2031 99.8297ZM67.2031 99.8297C72.3065 100.219 83.7216 98.6894 88.555 89.4538M67.2031 99.8297C70.5824 108.194 84.0247 125.771 110.76 129.167" stroke="white" stroke-width="2"/>
<path d="M186.395 123.503C214.742 117.394 226.889 98.218 229.419 89.3938C230.692 82.9191 231.089 68.9018 222.498 64.6303C211.759 59.291 208.976 76.094 206.204 84.364C203.986 90.98 198.196 87.5386 195.579 84.9909C190.114 79.6721 186.218 95.0838 184.935 101.417C183.561 107.897 176.104 101.925 175.191 101.565C171.429 100.08 167.246 99.12 166.29 106.344C165.335 113.568 152.146 113.535 145.539 113.498L146.5 130C148.641 129.977 150.193 125.117 152.182 125.948M186.395 123.503C200.027 129.525 227.261 147.202 227.137 169.736C226.981 197.903 207.747 188.799 205.583 171.008C203.852 156.775 197.625 159.515 193.391 162.341C190.566 164.227 186.222 160.972 181.119 143.866C180.247 140.944 178.945 140.253 172.288 142.693C170.466 142.801 166.734 141.741 162.403 133.451C160.628 131.375 156.758 127.861 152.182 125.948M186.395 123.503C181.112 125.107 161.45 126.539 152.182 125.948" stroke="#7ED957" stroke-width="3"/>
<rect x="46" y="176" width="65" height="5" fill="#DF8EB0"/>
<rect x="80" y="182" width="65" height="4" fill="#DF8EB0"/>
<rect x="211" y="190" width="67" height="4" fill="#DF8EB0"/>
<rect x="174" y="80" width="63" height="2" fill="#DF8EB0"/>
<rect width="66" height="4" transform="matrix(1 0 0 -1 52 68)" fill="#DF8EB0"/>
<rect width="65" height="4" transform="matrix(1 0 0 -1 84 59)" fill="#DF8EB0"/>
</g>
<defs>
<clipPath id="clip0_89_58">
<rect width="250" height="250" fill="white"/>
</clipPath>
</defs>
</svg>
