<svg width="250" height="250" viewBox="0 0 250 250" fill="none" xmlns="http://www.w3.org/2000/svg">
<circle cx="143.662" cy="30.4411" r="14.3267" transform="rotate(39.4784 143.662 30.4411)" stroke="#7ED957" stroke-width="6"/>
<path d="M139.794 94.5982L136.795 46.2119L150.098 44.9257L153.203 94.4194C139.985 133.182 103.825 116.153 97.1832 98.4387L95.4131 71.7197L100.649 68.2155L117.408 82.8914C120.759 85.8265 119.221 90.4012 118.032 92.3216L110.174 92.8422L110.486 97.5574C124.101 112.441 135.774 101.442 139.794 94.5982Z" fill="#7ED957"/>
<path d="M150.099 44.9257L136.795 46.2119L139.794 94.5982C137.261 98.9122 131.686 104.878 124.5 104.97L118.033 116.553C130.743 120.465 145.685 116.468 153.204 94.4194L150.099 44.9257Z" fill="#7ED957"/>
<rect x="32" y="99.1918" width="185" height="123" fill="#923A5F"/>
<path d="M217 99.1918L124.5 161.192L32 99.1918H217Z" fill="#DF8EB0"/>
<path d="M118.033 116.552L124.5 104.969C120.286 105.024 115.519 103.058 110.487 97.5567L110.174 92.8416L118.033 92.3209C119.221 90.4005 120.76 85.8259 117.408 82.8907L100.65 68.2149L95.4133 71.719L97.1834 98.438C100.047 106.076 108.399 113.586 118.033 116.552Z" fill="#7ED957"/>
<path d="M129 110.977C129 115.751 118.223 121.192 115.614 121.192C113.005 121.192 119.552 115.751 119.552 110.977C119.552 106.204 118.517 99.1918 121.126 99.1918C123.735 99.1918 129 106.204 129 110.977Z" fill="#FBB5D3"/>
</svg>
