<svg width="250" height="250" viewBox="0 0 250 250" fill="none" xmlns="http://www.w3.org/2000/svg">
<g clip-path="url(#clip0_88_669)">
<path d="M193.528 225.176L200.417 175.859L187.022 165.196C188.17 176.938 190.352 201.984 189.892 208.229C189.433 214.475 157.808 218.067 142.052 219.082C137 225.023 138.034 230.444 139.182 232.411C152.577 232.856 180.439 233.478 184.726 232.411C189.012 231.345 192.38 227.143 193.528 225.176Z" fill="#923A5F"/>
<path d="M30.417 233C65.7215 213.38 150.948 184.911 221.417 231.999" stroke="#A36500" stroke-width="6"/>
<path d="M27.417 213.999C83.5197 202.243 125.466 179.374 221.417 215.5" stroke="#A36500" stroke-width="6"/>
<path d="M31.417 147C66.7215 166.62 154.948 194.089 225.417 147" stroke="#A36500" stroke-width="6"/>
<path d="M29.417 165C85.5197 176.757 127.466 201.126 223.417 165" stroke="#A36500" stroke-width="6"/>
<path d="M33.917 231C67.5837 211.333 151.717 183.8 218.917 231" stroke="#64CD22" stroke-width="10"/>
<path d="M33.417 214.062C86.917 202 126.917 177 218.417 214.062" stroke="#FFC830" stroke-width="10"/>
<path d="M35.917 148C69.5837 167.667 153.717 195.2 220.917 148" stroke="#C20000" stroke-width="10"/>
<path d="M35.417 164.938C88.917 177 128.917 202 220.417 164.938" stroke="#002BFF" stroke-width="10"/>
<path d="M31.417 143L27.417 132.545L22.217 138L17.417 123" stroke="#D9C80D" stroke-width="2"/>
<path d="M24.417 165L20.417 175.455L15.217 170L10.417 185" stroke="#D9C80D" stroke-width="2"/>
<path d="M23.742 215.666L15.3079 208.307L13.2716 215.563L2 204.563" stroke="#D9C80D" stroke-width="2"/>
<path d="M28.9846 236.77L18.8237 241.466L18.906 233.931L5 241.324" stroke="#D9C80D" stroke-width="2"/>
<path d="M226.248 143L230.248 132.545L235.448 138L240.248 123" stroke="#D9C80D" stroke-width="2"/>
<path d="M229 164L233 174.455L238.2 169L243 184" stroke="#D9C80D" stroke-width="2"/>
<path d="M226 212.666L234.434 205.307L236.471 212.563L247.742 201.563" stroke="#D9C80D" stroke-width="2"/>
<path d="M225 234.2L233.807 241.109L235.462 233.757L247.292 244.152" stroke="#D9C80D" stroke-width="2"/>
<path d="M136.028 66.6477C131.774 28.0697 114.079 9.97954 105.763 5.7567C99.6276 3.44094 86.2124 1.58833 81.6317 12.704C75.9058 26.5986 91.8565 31.9112 99.6277 36.4065C105.845 40.0028 102.218 47.4404 99.6277 50.7098C94.2198 57.535 108.774 64.2099 114.772 66.5256C120.907 68.9776 114.76 78.413 114.363 79.6029C112.727 84.5068 111.57 90.0233 118.441 91.9848C125.312 93.9464 126.212 112.146 125.803 121H134.801C134.9 118.128 135.527 115.333 136.437 112.745M136.028 66.6477C142.572 48.9389 161.058 14.0935 182.653 16.382C209.647 19.2427 199.831 44.1712 182.653 45.3972C168.911 46.378 171.185 54.9839 173.655 60.9264C175.303 64.891 171.937 70.4074 155.251 75.6383C152.4 76.5321 151.663 78.2134 153.627 87.3675C153.627 89.8195 152.4 94.7234 144.208 99.7495C142.117 101.933 138.53 106.791 136.437 112.745M136.028 66.6477C137.267 73.8816 137.528 100.376 136.437 112.745" stroke="#7ED957" stroke-width="5"/>
<path d="M160.997 209.562L155.256 158.913L151.62 159.293L156.213 211.276C144.272 216.302 131.846 215.528 127.126 214.513L120.62 162.911L116.601 163.292L122.533 213.37C114.879 218.397 103.652 217.623 98.9959 216.607L90.7674 166.148L86.7488 166.339L93.4464 208.039C88.3945 213.065 79.2219 212.291 75.2671 211.276C71.8865 197.503 64.8572 168.852 63.7856 164.435C62.714 160.017 64.2321 151.677 65.1251 148.059C69.335 144.632 73.3536 144.251 74.8845 142.918C76.1092 141.852 79.7323 142.855 81.3907 143.489L83.6871 143.299C85.9834 144.251 92.2983 132.826 92.4897 132.065C92.681 131.303 106.268 128.828 106.65 129.399C106.957 129.856 110.222 131.113 111.817 131.684C112.583 131.874 114.381 132.141 115.453 131.684C116.792 131.113 121.385 124.639 121.768 123.306C122.151 121.973 137.268 120.83 138.608 121.021C139.947 121.211 146.645 129.78 149.324 130.161C151.467 130.465 155.447 127.495 157.17 125.971C159.466 125.019 169.608 125.21 172.478 125.21C174.775 125.21 179.048 136.254 180.898 141.776L182.226 160.817L185.491 207.658C176.918 211.161 165.589 210.387 160.997 209.562Z" fill="#923A5F"/>
</g>
<defs>
<clipPath id="clip0_88_669">
<rect width="250" height="250" fill="white"/>
</clipPath>
</defs>
</svg>
