<svg width="250" height="250" viewBox="0 0 250 250" fill="none" xmlns="http://www.w3.org/2000/svg">
<g clip-path="url(#clip0_89_40)">
<path d="M123.095 12.8508C121.558 4.93738 115.163 1.22657 112.158 0.360349C109.942 -0.11468 105.094 -0.494702 103.439 1.78543C101.37 4.6356 107.134 5.72538 109.942 6.64749C112.188 7.38518 110.878 8.91086 109.942 9.58149C107.988 10.9815 113.247 12.3507 115.414 12.8258C117.631 13.3287 115.41 15.2642 115.266 15.5083C114.675 16.5142 114.257 17.6458 116.74 18.0482C119.223 18.4505 119.548 22.1837 119.4 24H122.651C122.687 23.4108 122.914 22.8375 123.243 22.3066M123.095 12.8508C125.459 9.21824 132.139 2.07047 139.942 2.53991C149.696 3.12671 146.15 8.24025 139.942 8.49173C134.977 8.69292 135.799 10.4582 136.691 11.6772C137.287 12.4905 136.07 13.622 130.041 14.695C129.011 14.8784 128.745 15.2233 129.454 17.101C129.454 17.604 129.011 18.6099 126.05 19.6409C125.295 20.0889 123.999 21.0853 123.243 22.3066M123.095 12.8508C123.542 14.3347 123.637 19.7694 123.243 22.3066" stroke="#7ED957" stroke-width="2"/>
<rect x="2.5" y="27.5" width="245" height="220" rx="17.5" fill="#FFCEE2" stroke="#DF8EB0" stroke-width="5"/>
<path d="M17 38H232C234.209 38 236 39.7909 236 42V182C236 184.209 234.209 186 232 186H17C14.7909 186 13 184.209 13 182V42C13 39.7909 14.7909 38 17 38Z" fill="#923A5F" stroke="#DF8EB0" stroke-width="2"/>
<rect x="22" y="45" width="16" height="40" rx="2" fill="#7ED957"/>
<rect x="41" y="45" width="16" height="40" rx="2" fill="#7ED957"/>
<rect x="60" y="45" width="16" height="40" rx="2" fill="#7ED957"/>
<rect x="79" y="45" width="16" height="40" rx="2" fill="#7ED957"/>
<rect x="98" y="45" width="16" height="40" rx="2" fill="#7ED957"/>
<rect x="117" y="45" width="16" height="40" rx="2" fill="#7ED957"/>
<rect x="136" y="45" width="16" height="40" rx="2" fill="#7ED957"/>
<rect x="155" y="45" width="16" height="40" rx="2" fill="#7ED957"/>
<rect x="174" y="45" width="16" height="40" rx="2" fill="#7ED957"/>
<rect x="193" y="45" width="16" height="40" rx="2" fill="#7ED957"/>
<rect x="212" y="45" width="16" height="40" rx="2" fill="#7ED957"/>
<path d="M187 188V218C187 220.209 185.209 222 183 222H66C63.7909 222 62 220.209 62 218V188H187Z" fill="#923A5F" stroke="#DF8EB0" stroke-width="2"/>
<path d="M153 224V236C153 238.209 151.209 240 149 240H100C97.7909 240 96 238.209 96 236V224H153Z" fill="#923A5F" stroke="#DF8EB0" stroke-width="2"/>
<rect x="61" y="181" width="111" height="3" fill="#923A5F"/>
<rect x="97" y="181" width="55" height="45" fill="#923A5F"/>
<rect x="63" y="166" width="123" height="45" fill="#923A5F"/>
</g>
<defs>
<clipPath id="clip0_89_40">
<rect width="250" height="250" fill="white"/>
</clipPath>
</defs>
</svg>
