<svg width="250" height="250" viewBox="0 0 250 250" fill="none" xmlns="http://www.w3.org/2000/svg">
<g clip-path="url(#clip0_88_645)">
<path d="M190.33 51.8235C201.211 50.5367 206.313 45.1834 207.505 42.6676C208.158 40.8116 208.68 36.7532 205.545 35.3675C201.626 33.6353 200.128 38.4607 198.86 40.8117C197.845 42.6924 195.748 41.5953 194.825 40.8117C192.9 39.1756 191.018 43.5785 190.365 45.3932C189.673 47.2491 187.012 45.3896 186.676 45.2695C185.293 44.7746 183.737 44.4245 183.184 46.5031C182.63 48.5818 177.497 48.854 175 48.7303V51.4523C175.81 51.4823 176.599 51.672 177.328 51.9472M190.33 51.8235C195.325 53.8031 205.153 59.3957 204.508 65.9286C203.701 74.0947 196.67 71.1252 196.324 65.9286C196.047 61.7713 193.62 62.4593 191.944 63.2065C190.826 63.7051 189.27 62.6869 187.794 57.6387C187.542 56.7763 187.068 56.5536 184.486 57.1475C183.795 57.1475 182.411 56.7763 180.994 54.2981C180.378 53.6656 179.008 52.5803 177.328 51.9472M190.33 51.8235C188.29 52.1983 180.817 52.2772 177.328 51.9472" stroke="#7ED957" stroke-width="4"/>
<path d="M102 133.004V107.615V86H149V107.615V225.297L125.5 250L102 225.297L113.097 213.632V198.204L104.611 182.753L113.097 173.833V153.209L102 133.004Z" fill="#923A5F" stroke="#FFD7E8" stroke-width="5"/>
<circle cx="126" cy="50" r="50" transform="rotate(90 126 50)" fill="#FFD7E8"/>
<circle cx="127" cy="22" r="12" transform="rotate(90 127 22)" fill="#923A5F"/>
</g>
<defs>
<clipPath id="clip0_88_645">
<rect width="250" height="250" fill="white"/>
</clipPath>
</defs>
</svg>
