<svg width="250" height="250" viewBox="0 0 250 250" fill="none" xmlns="http://www.w3.org/2000/svg">
<rect width="250" height="250" stroke="white"/>
<path d="M46.4158 67.6644C39.9337 52.4009 30.5792 47.1527 26.7123 46.4366C23.9585 46.2353 18.334 47.1088 17.8665 52.2129C17.2821 58.5929 24.3543 58.8264 28.0358 59.7203C30.981 60.4354 30.4423 63.9188 29.8049 65.5712C28.474 69.0207 35.153 69.9813 37.8519 70.1992C40.6226 70.4562 35.2919 79.9362 35.441 80.4501C36.0556 82.5684 36.9839 84.7892 39.8406 83.8529C42.6973 82.9166 47.3966 89.1253 49.3891 92.3467L52.5109 90.2141C51.8528 89.177 51.3967 88.0421 51.0884 86.9133M46.4158 67.6644C46.8574 59.6246 49.9826 43.1227 58.9508 41.4329C70.161 39.3206 69.2964 50.7115 62.5395 53.3019C57.1339 55.3741 59.1129 58.618 60.8413 60.7484C61.9945 62.1698 61.3231 64.8356 55.2588 69.0046C54.2227 69.7168 54.1346 70.4941 56.0564 74C56.3596 75.003 52.2823 76.7708 50.6518 80.4859C50.453 81.752 50.3793 84.3164 51.0884 86.9133M46.4158 67.6644C47.8088 70.4728 48.4852 82.2902 51.0884 86.9133" stroke="#7ED957" stroke-width="4"/>
<path d="M183.037 183.512L88.0789 248.382C70.1141 222.085 76.8078 186.245 103.03 168.332C129.251 150.418 165.072 157.215 183.037 183.512Z" fill="#923A5F"/>
<ellipse cx="77.2129" cy="129.654" rx="46" ry="46.5" transform="rotate(-34.3386 77.2129 129.654)" fill="#923A5F"/>
<rect x="0.534164" y="0.469323" width="28.1267" height="12.7865" rx="6.39325" transform="matrix(0.998264 -0.0588956 0.0700632 0.997543 113.973 114.552)" fill="#923A5F" stroke="white"/>
<rect x="0.534164" y="0.469323" width="28.1267" height="12.2759" rx="6.13795" transform="matrix(0.998264 -0.0588956 0.0700632 0.997543 112.427 105.949)" fill="#923A5F" stroke="white"/>
<rect x="0.534164" y="0.469323" width="30.4756" height="12.7865" rx="6.39325" transform="matrix(0.998264 -0.0588956 0.0700632 0.997543 110.375 96.8639)" fill="#923A5F" stroke="white"/>
<rect x="0.534164" y="0.469323" width="30.4756" height="12.7865" rx="6.39325" transform="matrix(0.998264 -0.0588956 0.0700632 0.997543 109.641 89.1027)" fill="#923A5F" stroke="white"/>
<path d="M167.698 91.0904C169.167 91.8388 177.249 102.227 178.556 101.636L179.13 109.798C178.308 109.626 173.494 121.757 168.412 124.305C163.47 126.784 160.236 127.371 155.139 128.346C150.147 129.301 142.525 127.374 140.2 125.97C144.58 121.483 142.421 116.295 140.794 114.262C142.122 112.422 141.029 108.962 140.317 107.462C141.374 103.529 139.577 97.7449 138.291 94.7124C138.162 94.4441 138.049 94.1882 137.951 93.9467L138.503 107.569C138.286 109.271 137.078 112.631 133.99 112.461C130.903 112.291 129.667 109.486 129.435 108.104C128.838 102.487 127.583 90.9464 127.335 89.7276C127.026 88.2042 136.625 77.9469 139.974 76.6481C142.653 75.6091 145.389 75.9616 146.422 76.2677C151.006 78.1538 166.068 90.2596 167.698 91.0904Z" fill="#923A5F"/>
<path d="M137.951 93.9467L138.503 107.569C138.286 109.271 137.078 112.631 133.99 112.461C130.903 112.291 129.667 109.486 129.435 108.104C128.838 102.487 127.583 90.9464 127.335 89.7276C127.026 88.2042 136.625 77.9469 139.974 76.6481C142.653 75.6091 145.389 75.9616 146.422 76.2677C151.006 78.1538 166.068 90.2596 167.698 91.0904C169.167 91.8388 177.249 102.227 178.556 101.636L179.13 109.798C178.308 109.626 173.494 121.757 168.412 124.305C163.47 126.784 160.236 127.371 155.139 128.346C150.147 129.301 142.525 127.374 140.2 125.97C144.58 121.483 142.421 116.295 140.794 114.262C142.122 112.422 141.029 108.962 140.317 107.462C141.472 103.166 139.221 96.6616 137.951 93.9467ZM137.951 93.9467C140.664 94.1538 146.731 93.3406 149.3 88.4318M137.951 93.9467C139.747 98.3925 146.892 107.735 161.102 109.54" stroke="white"/>
<path d="M195.746 107.87C207.797 104.8 212.839 94.6915 213.854 90.0208C214.349 86.59 214.416 79.1481 210.718 76.8265C206.096 73.9245 205.033 82.8311 203.911 87.206C203.013 90.7059 200.517 88.8424 199.381 87.4732C197.01 84.6147 195.461 92.7755 194.961 96.1309C194.422 99.5642 191.196 96.3463 190.804 96.1494C189.187 95.3377 187.396 94.8018 187.041 98.6324C186.686 102.463 181.108 103.639 178.288 103.578L178.563 109.28C179.476 109.281 180.311 108.503 181.165 108.957M195.746 107.87C201.608 111.152 213.358 120.709 213.471 132.675C213.612 147.633 205.338 142.679 204.283 133.217C203.44 125.648 200.803 127.064 199.017 128.539C197.826 129.523 195.948 127.768 193.645 118.652C193.251 117.094 192.69 116.719 189.868 117.974C189.091 118.02 187.491 117.434 185.582 113.005C184.809 111.891 183.132 110.001 181.165 108.957M195.746 107.87C193.504 108.689 185.124 109.328 181.165 108.957" stroke="#7ED957" stroke-width="2"/>
<rect x="78.8379" y="12.3022" width="50" height="30" transform="rotate(34.901 78.8379 12.3022)" fill="#923A5F"/>
<path d="M87.4204 0L91.1401 20.8845L78.838 12.3021L87.4204 0Z" fill="#923A5F"/>
<path d="M128.427 28.6082L107.543 32.3279L119.845 40.9103L128.427 28.6082Z" fill="#923A5F"/>
<path d="M105.083 30.6113L92.7804 22.0289L107.514 14.018L105.083 30.6113Z" fill="#923A5F"/>
<rect x="77.7891" y="22.5444" width="10" height="15" rx="5" transform="rotate(34.901 77.7891 22.5444)" fill="#7ED957"/>
<rect x="102.394" y="39.7092" width="10" height="15" rx="5" transform="rotate(34.901 102.394 39.7092)" fill="#7ED957"/>
<rect x="89.271" y="30.5547" width="11" height="15" rx="5.5" transform="rotate(34.901 89.271 30.5547)" fill="#7ED957"/>
<rect x="126.673" y="134" width="35" height="3" fill="#DF8EB0"/>
<rect x="144.673" y="138" width="35" height="2" fill="#DF8EB0"/>
<rect x="214.673" y="142" width="35" height="2" fill="#DF8EB0"/>
<rect x="88.6729" y="82.4001" width="33.9483" height="2" transform="rotate(-60 88.6729 82.4001)" fill="#DF8EB0"/>
<rect x="82.6729" y="67.877" width="24.1067" height="2" transform="rotate(-60 82.6729 67.877)" fill="#DF8EB0"/>
<rect x="67.6729" y="68.877" width="24.1067" height="2" transform="rotate(-60 67.6729 68.877)" fill="#DF8EB0"/>
<rect x="56.6729" y="51.877" width="24.1067" height="2" transform="rotate(-60 56.6729 51.877)" fill="#DF8EB0"/>
<rect x="194.673" y="83" width="34" height="2" fill="#DF8EB0"/>
<rect width="35" height="2" transform="matrix(1 0 0 -1 129.673 77)" fill="#DF8EB0"/>
<rect width="35" height="2" transform="matrix(1 0 0 -1 146.673 72)" fill="#DF8EB0"/>
</svg>
