<svg width="250" height="250" viewBox="0 0 250 250" fill="none" xmlns="http://www.w3.org/2000/svg">
<g clip-path="url(#clip0_88_643)">
<path d="M58.6699 198.177C47.7889 199.463 42.6865 204.817 41.4955 207.332C40.8423 209.188 40.3198 213.247 43.455 214.633C47.374 216.365 48.8724 211.539 50.1403 209.188C51.1546 207.308 53.2524 208.405 54.1745 209.188C56.0996 210.824 57.9823 206.421 58.6354 204.607C59.327 202.751 61.9883 204.61 62.3239 204.731C63.7071 205.225 65.263 205.576 65.8162 203.497C66.3695 201.418 71.5026 201.146 74 201.27V198.548C73.1898 198.518 72.4015 198.328 71.6716 198.053M58.6699 198.177C53.6751 196.197 43.8469 190.604 44.4924 184.071C45.2992 175.905 52.3303 178.875 52.6761 184.071C52.9528 188.229 55.3801 187.541 57.0562 186.793C58.1744 186.295 59.7303 187.313 61.2057 192.361C61.4578 193.224 61.932 193.446 64.5139 192.853C65.2055 192.853 66.5887 193.224 68.0063 195.702C68.6222 196.334 69.9923 197.42 71.6716 198.053M58.6699 198.177C60.7102 197.802 68.1829 197.723 71.6716 198.053" stroke="#7ED957" stroke-width="4"/>
<path d="M147 116.996V142.385V164H100V142.385V24.7029L123.5 0L147 24.7029L135.903 36.3682V51.7961L144.389 67.2469L135.903 76.1674V96.791L147 116.996Z" fill="#FFD7E8" stroke="#923A5F" stroke-width="5"/>
<circle cx="123" cy="200" r="50" transform="rotate(-90 123 200)" fill="#923A5F"/>
<circle cx="122" cy="228" r="12" transform="rotate(-90 122 228)" fill="#FFD7E8"/>
</g>
<defs>
<clipPath id="clip0_88_643">
<rect width="250" height="250" fill="white"/>
</clipPath>
</defs>
</svg>
