<svg width="250" height="250" viewBox="0 0 250 250" fill="none" xmlns="http://www.w3.org/2000/svg">
<g clip-path="url(#clip0_89_50)">
<rect x="-0.316755" y="0.642808" width="45.8468" height="18.6382" rx="9.31911" transform="matrix(-0.942391 0.334514 0.30888 0.951101 150.018 174.747)" fill="#C9809E" stroke="white"/>
<rect x="-0.316755" y="0.642808" width="45.8468" height="17.9109" rx="8.95544" transform="matrix(-0.942391 0.334514 0.30888 0.951101 147.624 162.483)" fill="#C9809E" stroke="white"/>
<rect x="-0.316755" y="0.642808" width="49.6248" height="18.6382" rx="9.31911" transform="matrix(-0.942391 0.334514 0.30888 0.951101 145.717 149.273)" fill="#C9809E" stroke="white"/>
<rect x="-0.316755" y="0.642808" width="49.6248" height="18.6382" rx="9.31911" transform="matrix(-0.942391 0.334514 0.30888 0.951101 142.576 138.616)" fill="#C9809E" stroke="white"/>
<path d="M58.2553 176.909C56.4805 178.799 50.1362 197.441 47.8707 197.47L51.4704 208.554C52.5976 207.822 66.3686 220.805 75.3115 221.022C84.0091 221.233 89.1357 220.011 97.2425 218.151C105.182 216.33 115.459 209.097 118.147 205.817C109.191 202.617 109.57 194.465 110.878 190.789C107.901 189.188 107.639 183.965 107.879 181.554C104.162 177.034 103.678 168.321 103.935 163.541C103.981 163.109 104.01 162.703 104.023 162.325L110.633 180.577C111.885 182.68 115.512 186.353 120.008 184.226C124.504 182.098 124.81 177.648 124.402 175.689C122.225 167.935 117.796 151.987 117.499 150.232C117.128 148.039 97.2665 140.47 91.5812 140.827C87.0331 141.113 83.1588 143.263 81.7902 144.303C76.0063 149.609 60.2254 174.812 58.2553 176.909Z" fill="#C9809E"/>
<path d="M104.023 162.325L110.633 180.577C111.885 182.68 115.512 186.353 120.008 184.226C124.504 182.098 124.81 177.648 124.402 175.689C122.225 167.935 117.796 151.987 117.499 150.232C117.128 148.039 97.2665 140.47 91.5812 140.827C87.0331 141.113 83.1588 143.263 81.7902 144.303C76.0063 149.609 60.2254 174.812 58.2553 176.909C56.4805 178.799 50.1362 197.441 47.8707 197.47L51.4704 208.554C52.5976 207.822 66.3686 220.805 75.3115 221.022C84.0091 221.233 89.1357 220.011 97.2425 218.151C105.182 216.33 115.459 209.097 118.147 205.817C109.191 202.617 109.57 194.465 110.878 190.789C107.901 189.188 107.639 183.965 107.879 181.554C103.819 176.617 103.617 166.677 104.023 162.325ZM104.023 162.325C100.105 164.269 90.644 166.941 84.1483 162.071M104.023 162.325C103.779 169.278 98.256 185.967 78.1214 197.101" stroke="white"/>
<path d="M25.9499 215.97C6.14771 218.838 17.431 232.913 9.74121 232.809C4.18357 232.342 -5.05254 234.225 -7.35086 227.587C-10.2237 219.29 -2.14652 225.582 5.11849 225.41C10.9305 225.272 15.1849 215.954 13.4504 213.677C9.82933 208.924 23.184 209.455 28.6254 209.887C34.2026 210.288 30.3285 204.064 30.162 203.378C29.4758 200.55 34.5437 203.614 40.677 204.447C46.8104 205.281 44.1384 199.501 48.2916 197.673L52.3568 207.472C51 208.037 49.2805 207.394 48.29 208.595M25.9499 215.97C19.2626 224.462 8.02763 238.786 12.6755 250.389C18.4853 264.893 22.2271 255.409 19.7606 245.734C17.7873 237.993 17.3365 234.978 20.1628 235.473C22.0484 235.804 27.8344 237.785 27.0702 227.794C26.9396 226.087 32.2007 222.073 36.2369 221.817C37.2273 221.458 44.1156 225.094 44.2223 217.334C44.6839 215.203 46.0114 211.36 48.29 208.595M25.9499 215.97C29.7879 215.805 42.6351 211.588 48.29 208.595" stroke="#A36500" stroke-width="2"/>
<path d="M163.607 37.1028C165.985 38.6204 178.036 57.6526 180.361 56.8618L179.989 70.8593C178.618 70.4309 168.414 90.3014 159.336 93.8029C150.506 97.2083 144.9 97.674 136.056 98.4935C127.395 99.2962 114.729 94.7543 111.001 91.9776C119.203 85.0573 116.383 75.8631 113.948 72.131C116.513 69.2154 115.223 63.1416 114.257 60.4692C116.709 53.9426 114.603 43.7932 112.913 38.4149C112.737 37.9364 112.586 37.4818 112.46 37.0544L111.15 60.3519C110.498 63.2142 107.886 68.7389 102.655 67.9389C97.4228 67.1388 95.7811 62.1564 95.6142 59.7652C95.5255 50.0967 95.2931 30.2304 95.0728 28.1133C94.7975 25.467 112.845 9.57955 118.764 7.92025C123.499 6.59282 128.102 7.64529 129.812 8.33746C137.309 12.3077 160.966 35.4183 163.607 37.1028Z" fill="#923A5F"/>
<path d="M112.46 37.0544L111.15 60.3519C110.498 63.2142 107.886 68.7389 102.655 67.9389C97.4228 67.1388 95.7811 62.1564 95.6142 59.7652C95.5255 50.0967 95.2931 30.2304 95.0728 28.1133C94.7975 25.467 112.845 9.57955 118.764 7.92025C123.499 6.59282 128.102 7.64529 129.812 8.33746C137.309 12.3077 160.966 35.4183 163.607 37.1028C165.985 38.6204 178.036 57.6526 180.361 56.8618L179.989 70.8593C178.618 70.4309 168.414 90.3014 159.336 93.8029C150.506 97.2083 144.9 97.674 136.056 98.4935C127.395 99.2962 114.729 94.7543 111.001 91.9776C119.203 85.0573 116.383 75.8631 113.948 72.131C116.513 69.2154 115.223 63.1416 114.257 60.4692C116.935 53.3403 114.175 41.8889 112.46 37.0544ZM112.46 37.0544C117.047 37.8552 127.517 37.4723 132.704 29.5344M112.46 37.0544C114.785 44.9245 125.413 62.0202 149.322 67.4418" stroke="white"/>
<path d="M208.614 70.3192C229.65 67.0814 239.909 50.6939 242.409 42.9049C243.82 37.1424 245.163 24.4761 239.247 19.9103C231.854 14.2032 228.57 29.1999 225.936 36.4672C223.829 42.2811 219.885 38.6943 218.176 36.1742C214.61 30.913 210.622 44.5591 209.215 50.1924C207.731 55.9519 202.766 49.9374 202.131 49.5371C199.512 47.8874 196.548 46.6785 195.311 53.1453C194.074 59.6121 184.381 58.8795 179.588 58.3108L179.735 69.8956C181.291 70.0483 182.215 68.8477 183.596 69.7622M208.614 70.3192C218.057 76.8792 236.496 95.1 234.711 115.504C232.48 141.008 219.203 131.202 218.97 114.909C218.784 101.875 214.058 103.853 210.772 106.07C208.579 107.549 205.671 104.249 203.253 88.3392C202.84 85.6209 201.946 84.8893 196.931 86.5609C195.601 86.5107 192.971 85.2483 190.45 77.3875C189.318 75.363 186.773 71.866 183.596 69.7622M208.614 70.3192C204.659 71.3443 190.279 71.0484 183.596 69.7622" stroke="#7ED957" stroke-width="2"/>
<path d="M92.9233 110.43L98.4907 110.854L95.1684 140.986L93.2596 140.851L92.9233 110.43Z" fill="#702B48"/>
<rect x="100.542" y="10.2178" width="5.58343" height="30.7089" transform="rotate(4.34716 100.542 10.2178)" fill="#734659"/>
<rect x="117.667" y="5.91998" width="5.58343" height="27.9171" transform="rotate(94.3472 117.667 5.91998)" fill="#734659"/>
<rect x="89.4441" y="15.4755" width="26.9171" height="110.669" transform="rotate(4.34716 89.4441 15.4755)" fill="#CD7B9D" stroke="#923A5F"/>
<rect x="89.2275" y="48.5552" width="22.3337" height="75.3763" transform="rotate(4.34716 89.2275 48.5552)" fill="#70C44C"/>
<rect x="89.2275" y="48.5552" width="22.3337" height="75.3763" transform="rotate(4.34716 89.2275 48.5552)" stroke="#923A5F"/>
<rect x="102.267" y="24.3481" width="13.9586" height="2.79171" transform="rotate(4.34716 102.267 24.3481)" fill="#923A5F"/>
<rect x="102.267" y="24.3481" width="13.9586" height="2.79171" transform="rotate(4.34716 102.267 24.3481)" fill="#923A5F"/>
<rect x="104.416" y="32.9113" width="11.1669" height="2.79171" transform="rotate(4.34716 104.416 32.9113)" fill="#923A5F"/>
<rect x="104.416" y="32.9113" width="11.1669" height="2.79171" transform="rotate(4.34716 104.416 32.9113)" fill="#923A5F"/>
<rect x="100.997" y="41.0493" width="13.9586" height="2.79171" transform="rotate(4.34716 100.997 41.0493)" fill="#923A5F"/>
<rect x="100.997" y="41.0493" width="13.9586" height="2.79171" transform="rotate(4.34716 100.997 41.0493)" fill="#923A5F"/>
<rect x="103.146" y="49.6123" width="11.1669" height="2.79171" transform="rotate(4.34716 103.146 49.6123)" fill="#923A5F"/>
<rect x="103.146" y="49.6123" width="11.1669" height="2.79171" transform="rotate(4.34716 103.146 49.6123)" fill="#923A5F"/>
<rect x="99.7275" y="57.7524" width="13.9586" height="2.79171" transform="rotate(4.34716 99.7275 57.7524)" fill="#923A5F"/>
<rect x="99.7275" y="57.7524" width="13.9586" height="2.79171" transform="rotate(4.34716 99.7275 57.7524)" fill="#923A5F"/>
<rect x="101.876" y="66.3149" width="11.1669" height="2.79171" transform="rotate(4.34716 101.876 66.3149)" fill="#923A5F"/>
<rect x="101.876" y="66.3149" width="11.1669" height="2.79171" transform="rotate(4.34716 101.876 66.3149)" fill="#923A5F"/>
<rect x="98.458" y="74.4551" width="13.9586" height="2.79171" transform="rotate(4.34716 98.458 74.4551)" fill="#923A5F"/>
<rect x="98.458" y="74.4551" width="13.9586" height="2.79171" transform="rotate(4.34716 98.458 74.4551)" fill="#923A5F"/>
<rect x="100.607" y="83.0182" width="11.1669" height="2.79171" transform="rotate(4.34716 100.607 83.0182)" fill="#923A5F"/>
<rect x="100.607" y="83.0182" width="11.1669" height="2.79171" transform="rotate(4.34716 100.607 83.0182)" fill="#923A5F"/>
<rect x="97.1885" y="91.157" width="13.9586" height="2.79171" transform="rotate(4.34716 97.1885 91.157)" fill="#923A5F"/>
<rect x="97.1885" y="91.157" width="13.9586" height="2.79171" transform="rotate(4.34716 97.1885 91.157)" fill="#923A5F"/>
<rect x="99.3374" y="99.7211" width="11.1669" height="2.79171" transform="rotate(4.34716 99.3374 99.7211)" fill="#923A5F"/>
<rect x="99.3374" y="99.7211" width="11.1669" height="2.79171" transform="rotate(4.34716 99.3374 99.7211)" fill="#923A5F"/>
<rect x="95.918" y="107.858" width="13.9586" height="2.79171" transform="rotate(4.34716 95.918 107.858)" fill="#923A5F"/>
<rect x="95.918" y="107.858" width="13.9586" height="2.79171" transform="rotate(4.34716 95.918 107.858)" fill="#923A5F"/>
<rect x="98.0664" y="116.421" width="11.1669" height="2.79171" transform="rotate(4.34716 98.0664 116.421)" fill="#923A5F"/>
<rect x="98.0664" y="116.421" width="11.1669" height="2.79171" transform="rotate(4.34716 98.0664 116.421)" fill="#923A5F"/>
<rect x="0.486368" y="0.518692" width="48.8503" height="22.5956" rx="11.2978" transform="matrix(0.999288 0.0377364 -0.0265513 0.999647 68.2851 68.1255)" fill="#923A5F" stroke="white"/>
<rect x="0.486368" y="0.518692" width="48.8503" height="21.7217" rx="10.8608" transform="matrix(0.999288 0.0377364 -0.0265513 0.999647 67.0698 53.2147)" fill="#923A5F" stroke="white"/>
<rect x="0.486368" y="0.518692" width="52.8705" height="22.5956" rx="11.2978" transform="matrix(0.999288 0.0377364 -0.0265513 0.999647 65.0761 37.3998)" fill="#923A5F" stroke="white"/>
<rect x="0.486368" y="0.518692" width="52.8705" height="22.5956" rx="11.2978" transform="matrix(0.999288 0.0377364 -0.0265513 0.999647 65.1079 24.0575)" fill="#923A5F" stroke="white"/>
</g>
<defs>
<clipPath id="clip0_89_50">
<rect width="250" height="250" fill="white"/>
</clipPath>
</defs>
</svg>
