<svg width="250" height="250" viewBox="0 0 250 250" fill="none" xmlns="http://www.w3.org/2000/svg">
<g clip-path="url(#clip0_89_294)">
<path d="M123.423 115.514L149.643 105.151C148.974 102.851 147.49 100.586 144.532 99.697L118.296 91.8102L114.221 98.4007L123.423 115.514Z" fill="#7ED957"/>
<path d="M123.423 115.514L126.65 121.515L141.506 114.521L150.037 109.934C150.19 108.732 150.16 106.931 149.643 105.151L123.423 115.514Z" fill="#7ED957"/>
<path d="M126.65 121.514L129.818 127.405L144.259 119.639L141.506 114.521L126.65 121.514Z" fill="#7ED957"/>
<path d="M87.9239 80.6217C69.8996 56.1422 50.6755 50.8824 43.3165 51.3125C38.2007 52.172 28.2715 56.2293 29.4814 65.5826C30.9937 77.2742 44.0173 74.5592 51.1091 74.5298C56.7826 74.5063 57.2069 80.9872 56.7099 84.2306C55.6722 91.0017 68.271 89.7638 73.2932 88.9583C78.4623 88.1913 77.9397 97.0253 78.1332 97.9896C78.9311 101.964 80.2972 106.163 85.7794 104.772C91.2615 103.381 99.0051 115.367 102.192 121.535L108.365 117.971C107.308 115.983 106.644 113.839 106.255 111.724M87.9239 80.6217C85.4792 66.0192 84.5178 35.0638 100.23 28.0621C119.869 19.3101 122.896 40.1052 111.591 47.7408C102.547 53.8493 107.477 58.7852 111.499 61.8371C114.182 63.8732 114.033 68.9477 104.632 79.1052C103.026 80.8406 103.18 82.2725 108.111 87.7034C109.071 89.3664 110.15 93.1783 106.498 99.832C105.918 102.141 105.359 106.857 106.255 111.724M87.9239 80.6217C91.6065 85.0371 102.16 102.903 106.255 111.724" stroke="#7ED957" stroke-width="5"/>
<circle cx="135.332" cy="174.049" r="59.996" transform="rotate(-30 135.332 174.049)" stroke="#923A5F" stroke-width="8"/>
<circle cx="136.508" cy="173.816" r="59.996" transform="rotate(-30 136.508 173.816)" stroke="#923A5F" stroke-width="8"/>
<rect x="112.223" y="143.467" width="9.81821" height="50.182" rx="4.90911" transform="rotate(-30 112.223 143.467)" fill="#923A5F"/>
<rect x="161.692" y="161.514" width="9.81821" height="33.8183" rx="4.90911" transform="rotate(60 161.692 161.514)" fill="#923A5F"/>
<circle cx="147.58" cy="30.8847" r="16.3089" transform="rotate(15 147.58 30.8847)" stroke="#7ED957" stroke-width="10"/>
<path d="M161.776 40.5437L147.541 48.7626L175.554 101.393C174.543 111.101 167.082 129.361 144.259 119.639L129.818 127.405C146.279 143.847 195.43 144.481 190.472 94.3594L161.776 40.5437Z" fill="#7ED957"/>
</g>
<defs>
<clipPath id="clip0_89_294">
<rect width="250" height="250" fill="white"/>
</clipPath>
</defs>
</svg>
