<svg width="250" height="250" viewBox="0 0 250 250" fill="none" xmlns="http://www.w3.org/2000/svg">
<g clip-path="url(#clip0_31_1103)">
<path d="M123.366 26.7725C121.579 10.2862 114.144 2.55536 110.649 0.750727C108.072 -0.238916 102.435 -1.03063 100.51 3.71965C98.1046 9.65751 104.807 11.9279 108.072 13.8489C110.684 15.3858 109.16 18.5643 108.072 19.9614C105.8 22.8782 111.915 25.7307 114.435 26.7204C117.013 27.7682 114.43 31.8004 114.263 32.3089C113.576 34.4046 113.09 36.7621 115.977 37.6004C118.864 38.4386 119.242 46.2161 119.07 50H122.85C122.892 48.7724 123.156 47.578 123.538 46.4721M123.366 26.7725C126.115 19.2047 133.883 4.31347 142.956 5.29147C154.298 6.51397 150.174 17.1672 142.956 17.6911C137.182 18.1103 138.138 21.788 139.176 24.3275C139.868 26.0218 138.454 28.3793 131.443 30.6147C130.245 30.9966 129.935 31.7151 130.76 35.6271C130.76 36.675 130.245 38.7707 126.803 40.9186C125.924 41.8519 124.417 43.9278 123.538 46.4721M123.366 26.7725C123.887 29.8639 123.996 41.1863 123.538 46.4721" stroke="#7ED957" stroke-width="4"/>
<rect x="35" y="60" width="180" height="180" rx="10" fill="#FFD7E8" stroke="#923A5F" stroke-width="20"/>
<circle cx="170" cy="103" r="19.5" fill="#B25A7F" stroke="#923A5F"/>
<path d="M45.5 188.5L90.5 131.5L125 188.5L167.5 147L205 186.5V230H151.667H45.5V188.5Z" fill="#B25A7F"/>
<path d="M151.667 230L125 188.5M151.667 230H205V186.5L167.5 147L125 188.5M151.667 230H45.5V188.5L90.5 131.5L125 188.5" stroke="#923A5F"/>
</g>
<defs>
<clipPath id="clip0_31_1103">
<rect width="250" height="250" fill="white"/>
</clipPath>
</defs>
</svg>
