<svg width="250" height="250" viewBox="0 0 250 250" fill="none" xmlns="http://www.w3.org/2000/svg">
<g clip-path="url(#clip0_31_1123)">
<path d="M125.366 26.7725C123.579 10.2862 116.144 2.55536 112.649 0.750727C110.072 -0.238916 104.435 -1.03063 102.51 3.71965C100.105 9.65751 106.807 11.9279 110.072 13.8489C112.684 15.3858 111.16 18.5643 110.072 19.9614C107.8 22.8782 113.915 25.7307 116.435 26.7204C119.013 27.7682 116.43 31.8004 116.263 32.3089C115.576 34.4046 115.09 36.7621 117.977 37.6004C120.864 38.4386 121.242 46.2161 121.07 50H124.85C124.892 48.7724 125.156 47.578 125.538 46.4721M125.366 26.7725C128.115 19.2047 135.883 4.31347 144.956 5.29147C156.298 6.51397 152.174 17.1672 144.956 17.6911C139.182 18.1103 140.138 21.788 141.176 24.3275C141.868 26.0218 140.454 28.3793 133.443 30.6147C132.245 30.9966 131.935 31.7151 132.76 35.6271C132.76 36.675 132.245 38.7707 128.803 40.9186C127.924 41.8519 126.417 43.9278 125.538 46.4721M125.366 26.7725C125.887 29.8639 125.996 41.1863 125.538 46.4721" stroke="#7ED957" stroke-width="4"/>
<rect x="25" y="45" width="200" height="200" rx="40" fill="#923A5F"/>
<rect x="25" y="45" width="200" height="200" rx="40" stroke="#923A5F"/>
<path d="M89.2 199H80V189.9H89.2V199ZM115.138 192.7C121.805 192.7 125.138 190.433 125.138 185.9C125.138 183.967 124.538 182.433 123.338 181.3C122.138 180.167 119.938 179.2 116.738 178.4L111.238 177C107.172 176 104.138 174.267 102.138 171.8C100.138 169.267 99.1383 166.267 99.1383 162.8C99.1383 160.267 99.7049 157.933 100.838 155.8C101.972 153.6 103.772 151.833 106.238 150.5C108.705 149.167 111.905 148.5 115.838 148.5C118.372 148.5 120.938 148.8 123.538 149.4C126.205 149.933 128.905 150.867 131.638 152.2L129.038 159.1C124.172 156.9 119.772 155.8 115.838 155.8C110.038 155.8 107.138 157.967 107.138 162.3C107.138 163.967 107.672 165.4 108.738 166.6C109.805 167.8 111.805 168.767 114.738 169.5L120.238 170.9C124.638 171.967 127.872 173.7 129.938 176.1C132.005 178.5 133.038 181.6 133.038 185.4C133.038 188.133 132.438 190.633 131.238 192.9C130.105 195.1 128.238 196.833 125.638 198.1C123.105 199.367 119.672 200 115.338 200C112.472 200 109.605 199.7 106.738 199.1C103.938 198.5 101.038 197.533 98.0383 196.2L100.238 189.4C103.105 190.533 105.705 191.367 108.038 191.9C110.372 192.433 112.738 192.7 115.138 192.7ZM169.905 156.2C168.038 156.2 165.838 156.667 163.305 157.6C160.838 158.533 157.838 160.433 154.305 163.3V199H146.105V125H154.305V156.1C157.771 153.167 160.905 151.167 163.705 150.1C166.505 149.033 169.238 148.5 171.905 148.5C176.505 148.5 180.005 149.967 182.405 152.9C184.871 155.767 186.105 159.867 186.105 165.2V199H177.905V166.4C177.905 159.6 175.238 156.2 169.905 156.2Z" fill="#FFD7E8"/>
</g>
<defs>
<clipPath id="clip0_31_1123">
<rect width="250" height="250" fill="white"/>
</clipPath>
</defs>
</svg>
