<svg width="250" height="250" viewBox="0 0 250 250" fill="none" xmlns="http://www.w3.org/2000/svg">
<g clip-path="url(#clip0_89_44)">
<path d="M51.7526 213.306C50.5484 196.04 55.416 187.09 58.0003 184.773C59.9622 183.417 64.4751 181.87 66.8309 186.529C69.7757 192.354 64.6256 195.567 62.2487 197.974C60.3472 199.9 62.1178 202.987 63.2408 204.29C65.5853 207.01 61.0129 210.748 59.0981 212.097C57.1457 213.513 59.9268 217.345 60.1467 217.849C61.0529 219.926 61.8359 222.299 59.5947 223.539C57.3535 224.778 58.3045 232.863 59.0602 236.751L55.9471 237.24C55.7136 235.977 55.3027 234.777 54.8085 233.684M51.7526 213.306C48.2603 205.842 39.4474 191.459 32.1348 193.644C22.994 196.374 28.1192 206.848 34.1473 206.456C38.9699 206.142 38.78 210.066 38.3375 212.824C38.0424 214.665 39.5895 216.918 45.7256 218.321C46.774 218.56 47.1453 219.263 47.101 223.412C47.2711 224.495 48.0358 226.593 51.2186 228.368C52.0933 229.218 53.6715 231.168 54.8085 233.684M51.7526 213.306C51.8257 216.568 53.5732 228.281 54.8085 233.684" stroke="#7ED957" stroke-width="4"/>
<rect x="130.077" y="173.076" width="36.925" height="15.5157" rx="7.75787" transform="rotate(-54.8591 130.077 173.076)" fill="#923A5F" stroke="white"/>
<rect x="120.87" y="168.093" width="36.925" height="14.904" rx="7.45202" transform="rotate(-54.8591 120.87 168.093)" fill="#923A5F" stroke="white"/>
<rect x="110.809" y="163.257" width="39.9835" height="15.5157" rx="7.75787" transform="rotate(-54.8591 110.809 163.257)" fill="#923A5F" stroke="white"/>
<rect x="75.9188" y="187.319" width="77.9085" height="15.5157" rx="7.75787" transform="rotate(-54.8591 75.9188 187.319)" fill="#923A5F" stroke="white"/>
<path d="M150.941 100.469C152.816 99.5398 168.939 99.2101 169.445 97.4234L177.46 103.065C176.639 103.773 183.99 117.947 182.255 125.083C180.568 132.023 178.507 135.775 175.305 141.726C172.169 147.554 164.247 153.871 161.075 155.174C160.449 147.276 153.909 145.523 150.718 145.634C150.084 142.873 146.002 141.35 144.04 140.934C141.252 136.852 134.451 134.275 130.609 133.275C130.257 133.202 129.929 133.123 129.627 133.038L142.679 142.868C144.078 144.389 146.215 148.186 143.571 151.21C140.927 154.235 137.336 153.357 135.871 152.54C130.191 148.864 118.5 141.341 117.173 140.664C115.513 139.818 113.752 122.185 115.247 117.773C116.443 114.244 118.972 111.717 120.088 110.895C125.525 107.651 148.859 101.501 150.941 100.469Z" fill="#923A5F"/>
<path d="M129.627 133.038L142.679 142.868C144.078 144.389 146.215 148.186 143.571 151.21C140.927 154.235 137.336 153.357 135.871 152.54C130.191 148.864 118.5 141.341 117.173 140.664C115.513 139.818 113.752 122.185 115.247 117.773C116.443 114.244 118.972 111.717 120.088 110.895C125.525 107.651 148.859 101.501 150.941 100.469C152.816 99.5398 168.939 99.2101 169.445 97.4234L177.46 103.065C176.639 103.773 183.99 117.947 182.255 125.083C180.568 132.023 178.507 135.775 175.305 141.726C172.169 147.554 164.247 153.871 161.075 155.174C160.449 147.276 153.909 145.523 150.718 145.634C150.084 142.873 146.002 141.35 144.04 140.934C140.994 136.475 133.162 133.812 129.627 133.038ZM129.627 133.038C132.003 130.425 136.137 123.606 133.663 117.236M129.627 133.038C135.188 134.595 149.588 134.425 162.703 121.284" stroke="white"/>
<path d="M196.07 74.5044C207.432 53.4626 204.246 37.603 201.233 32.3033C198.727 28.7961 192.109 22.7435 185.687 26.5902C177.659 31.3987 184.426 40.1607 187.047 45.3895C189.144 49.5725 184.542 51.9321 181.979 52.5891C176.629 53.9605 182.156 62.8752 184.588 66.3303C187.046 69.906 180.37 72.3092 179.733 72.7567C177.108 74.6007 174.526 76.9357 177.557 80.5456C180.588 84.1554 175.108 93.6999 171.749 98.0006L177.201 102.136C178.273 100.728 178.55 98.819 179.96 97.8635M196.07 74.5044C205.893 68.0883 228.263 57.6045 239.161 66.9986C252.785 78.7411 238.63 87.5425 228.881 81.6034C221.082 76.8521 219.266 82.0519 218.5 85.9859C217.989 88.6104 214.21 90.1025 203.308 86.3666C201.446 85.7283 200.451 86.2937 198.272 91.6507C197.403 92.8849 195 94.885 188.778 94.2883C186.87 94.5896 183.204 95.6654 179.96 97.8635M196.07 74.5044C194.179 78.6185 184.934 92.0539 179.96 97.8635" stroke="#7ED957" stroke-width="4"/>
<rect x="25.6124" y="42.0123" width="17" height="92" rx="8.5" transform="rotate(-15 25.6124 42.0123)" fill="#923A5F" stroke="#D38EAB"/>
<rect x="52.5299" y="142.469" width="17" height="18" rx="8.5" transform="rotate(-15 52.5299 142.469)" fill="#923A5F" stroke="#D38EAB"/>
<path d="M90.2679 245.456C61.4821 226.369 24.7619 240.532 10 250L227 245.456C219.25 245.618 218.143 240.911 199.875 238.639C185.45 236.845 168.321 238.639 140.643 234.662C118.5 231.481 97.8333 240.532 90.2679 245.456Z" fill="#7ED957" stroke="#1D4D09" stroke-width="3" stroke-linecap="round"/>
<path d="M107.379 233.847L106.804 235.233L106.841 235.248L106.878 235.262L107.379 233.847ZM98.4562 222.346L99.7805 223.05L100.228 222.209L99.6573 221.447L98.4562 222.346ZM102.28 215.104L102.352 216.602L103.59 216.543L103.765 215.315L102.28 215.104ZM112.052 209.14L111.161 210.346L112.378 211.245L113.267 210.02L112.052 209.14ZM119.275 209.14L117.777 209.208L117.835 210.494L119.115 210.631L119.275 209.14ZM130.747 215.104L129.253 214.968L129.2 215.549L129.554 216.013L130.747 215.104ZM129.047 222.346L128.375 221.005C127.797 221.295 127.47 221.922 127.563 222.562C127.656 223.202 128.149 223.71 128.786 223.823L129.047 222.346ZM133.296 227.031L134.426 228.017L133.296 227.031ZM121.4 234.273L121.328 235.771L121.364 235.773H121.4V234.273ZM107.379 233.847L107.953 232.462C106.002 231.653 103.281 230.146 101.409 228.305C100.476 227.387 99.8373 226.467 99.551 225.593C99.2818 224.771 99.3043 223.945 99.7805 223.05L98.4562 222.346L97.1319 221.641C96.2484 223.302 96.193 224.979 96.7001 226.527C97.1901 228.022 98.182 229.339 99.3056 230.444C101.548 232.65 104.648 234.338 106.804 235.233L107.379 233.847ZM98.4562 222.346L99.6573 221.447C99.3031 220.974 98.961 220.385 98.7409 219.786C98.5166 219.176 98.4571 218.66 98.5288 218.275C98.5893 217.95 98.7547 217.628 99.2287 217.331C99.7548 217.001 100.707 216.68 102.352 216.602L102.28 215.104L102.209 213.605C100.284 213.697 98.7616 214.083 97.636 214.788C96.4583 215.526 95.7951 216.567 95.5795 217.726C95.375 218.825 95.5916 219.914 95.925 220.821C96.2625 221.739 96.7595 222.582 97.255 223.244L98.4562 222.346ZM102.28 215.104L103.765 215.315C104.032 213.442 104.796 211.143 106.026 209.894C106.597 209.313 107.21 209.014 107.912 208.999C108.647 208.984 109.711 209.275 111.161 210.346L112.052 209.14L112.944 207.933C111.165 206.619 109.463 205.966 107.849 206C106.202 206.035 104.882 206.779 103.888 207.789C101.988 209.72 101.095 212.789 100.795 214.892L102.28 215.104ZM112.052 209.14L113.267 210.02C113.794 209.294 114.451 208.504 115.132 207.846C115.839 207.161 116.459 206.729 116.906 206.564C117.114 206.487 117.196 206.502 117.19 206.501C117.152 206.494 117.145 206.469 117.188 206.52C117.355 206.712 117.695 207.4 117.777 209.208L119.275 209.14L120.774 209.072C120.686 207.131 120.321 205.554 119.456 204.555C118.983 204.01 118.378 203.658 117.686 203.542C117.026 203.431 116.398 203.553 115.866 203.75C114.833 204.131 113.853 204.909 113.046 205.689C112.214 206.495 111.444 207.424 110.838 208.259L112.052 209.14ZM119.275 209.14L119.115 210.631C121.017 210.835 123.823 211.367 126.067 212.268C127.196 212.721 128.075 213.225 128.631 213.746C129.166 214.246 129.283 214.637 129.253 214.968L130.747 215.104L132.241 215.239C132.381 213.696 131.645 212.457 130.68 211.555C129.737 210.672 128.47 210 127.184 209.484C124.598 208.446 121.499 207.87 119.436 207.648L119.275 209.14ZM130.747 215.104L129.554 216.013C130.285 216.971 130.525 217.94 130.385 218.728C130.253 219.472 129.736 220.323 128.375 221.005L129.047 222.346L129.72 223.686C131.758 222.664 133.011 221.101 133.339 219.253C133.659 217.45 133.05 215.65 131.94 214.194L130.747 215.104ZM129.047 222.346L128.786 223.823C129.912 224.022 131.298 224.461 132.079 225.035C132.259 225.167 132.37 225.28 132.434 225.365C132.464 225.406 132.481 225.436 132.49 225.454C132.498 225.472 132.499 225.48 132.5 225.481C132.5 225.482 132.5 225.484 132.5 225.492C132.499 225.5 132.496 225.523 132.482 225.564C132.452 225.648 132.372 225.809 132.166 226.045L133.296 227.031L134.426 228.017C135.207 227.122 135.659 226.068 135.45 224.936C135.252 223.866 134.529 223.112 133.855 222.617C132.518 221.635 130.59 221.095 129.309 220.868L129.047 222.346ZM133.296 227.031L132.166 226.045C129.069 229.594 126.969 232.773 121.4 232.773V234.273V235.773C128.577 235.773 131.575 231.285 134.426 228.017L133.296 227.031ZM121.4 234.273L121.471 232.775C116.815 232.553 114.952 233.12 113.487 233.383C112.848 233.497 112.319 233.546 111.558 233.445C110.754 233.339 109.646 233.059 107.879 232.433L107.379 233.847L106.878 235.262C108.723 235.914 110.058 236.273 111.165 236.42C112.316 236.572 113.169 236.488 114.016 236.336C115.526 236.065 117.062 235.568 121.328 235.771L121.4 234.273Z" fill="#7ED957"/>
<path d="M190.601 232.43L191.381 233.711L191.347 233.732L191.312 233.751L190.601 232.43ZM197.58 219.795L196.373 220.686L195.813 219.927L196.255 219.093L197.58 219.795ZM192.771 213.238L192.925 214.73L191.69 214.857L191.334 213.668L192.771 213.238ZM182.354 208.818L183.421 209.872L182.348 210.958L181.282 209.867L182.354 208.818ZM175.314 209.887L176.805 209.729L176.941 211.008L175.697 211.337L175.314 209.887ZM165.022 217.452L166.479 217.095L166.617 217.657L166.341 218.166L165.022 217.452ZM167.761 224.324L168.229 222.899C168.842 223.1 169.257 223.671 169.261 224.316C169.264 224.962 168.854 225.536 168.243 225.744L167.761 224.324ZM164.319 229.561L163.345 230.702L164.319 229.561ZM176.997 234.924L177.293 236.394L177.258 236.401L177.222 236.407L176.997 234.924ZM190.601 232.43L189.82 231.149C191.599 230.065 194.024 228.183 195.572 226.097C196.344 225.057 196.829 224.058 196.977 223.156C197.117 222.307 196.971 221.496 196.373 220.686L197.58 219.795L198.787 218.905C199.896 220.407 200.2 222.047 199.937 223.643C199.683 225.187 198.913 226.63 197.981 227.885C196.123 230.389 193.352 232.51 191.381 233.711L190.601 232.43ZM197.58 219.795L196.255 219.093C196.529 218.576 196.774 217.946 196.899 217.325C197.027 216.691 197.008 216.174 196.88 215.804C196.772 215.491 196.563 215.202 196.062 214.982C195.506 214.739 194.536 214.564 192.925 214.73L192.771 213.238L192.617 211.746C194.51 211.551 196.058 211.705 197.267 212.235C198.531 212.789 199.333 213.717 199.715 214.823C200.078 215.872 200.03 216.975 199.841 217.916C199.649 218.87 199.29 219.772 198.906 220.498L197.58 219.795ZM192.771 213.238L191.334 213.668C190.794 211.864 189.705 209.717 188.322 208.671C187.68 208.186 187.045 207.987 186.369 208.075C185.661 208.167 184.673 208.605 183.421 209.872L182.354 208.818L181.287 207.764C182.827 206.206 184.393 205.307 185.982 205.1C187.604 204.889 189.009 205.43 190.131 206.278C192.274 207.898 193.602 210.785 194.208 212.808L192.771 213.238ZM182.354 208.818L181.282 209.867C180.659 209.23 179.901 208.551 179.14 208.005C178.348 207.436 177.682 207.105 177.228 207.01C177.017 206.966 176.946 206.993 176.959 206.989C177.003 206.974 177.01 206.944 176.977 206.998C176.844 207.21 176.615 207.937 176.805 209.729L175.314 209.887L173.822 210.046C173.618 208.125 173.737 206.52 174.433 205.408C174.813 204.799 175.355 204.359 176.02 204.14C176.654 203.93 177.291 203.958 177.842 204.074C178.912 204.297 179.987 204.92 180.889 205.568C181.822 206.237 182.712 207.038 183.427 207.77L182.354 208.818ZM175.314 209.887L175.697 211.337C173.876 211.819 171.223 212.757 169.173 213.973C168.143 214.585 167.364 215.209 166.902 215.801C166.457 216.369 166.4 216.771 166.479 217.095L165.022 217.452L163.565 217.809C163.199 216.314 163.73 214.987 164.538 213.953C165.328 212.943 166.464 212.092 167.643 211.393C170.012 209.987 172.95 208.961 174.93 208.437L175.314 209.887ZM165.022 217.452L166.341 218.166C165.773 219.215 165.682 220.205 165.937 220.961C166.178 221.675 166.809 222.431 168.229 222.899L167.761 224.324L167.292 225.748C165.145 225.042 163.689 223.686 163.094 221.919C162.513 220.195 162.837 218.335 163.703 216.737L165.022 217.452ZM167.761 224.324L168.243 225.744C167.177 226.106 165.897 226.741 165.225 227.417C165.071 227.572 164.98 227.699 164.931 227.791C164.908 227.835 164.896 227.867 164.89 227.886C164.885 227.905 164.885 227.913 164.885 227.915C164.885 227.916 164.884 227.919 164.886 227.927C164.888 227.935 164.895 227.958 164.915 227.995C164.957 228.074 165.059 228.22 165.293 228.421L164.319 229.561L163.345 230.702C162.447 229.935 161.851 228.965 161.886 227.823C161.919 226.743 162.511 225.892 163.097 225.302C164.257 224.135 166.061 223.317 167.278 222.903L167.761 224.324ZM164.319 229.561L165.293 228.421C168.847 231.457 171.36 234.263 176.772 233.441L176.997 234.924L177.222 236.407C170.209 237.472 166.607 233.49 163.345 230.702L164.319 229.561ZM176.997 234.924L176.701 233.453C181.211 232.545 183.116 232.828 184.582 232.869C185.22 232.887 185.739 232.857 186.461 232.646C187.226 232.424 188.262 231.985 189.89 231.109L190.601 232.43L191.312 233.751C189.611 234.666 188.361 235.218 187.3 235.527C186.196 235.848 185.349 235.892 184.497 235.868C182.985 235.825 181.417 235.563 177.293 236.394L176.997 234.924Z" fill="#7ED957"/>
</g>
<defs>
<clipPath id="clip0_89_44">
<rect width="250" height="250" fill="white"/>
</clipPath>
</defs>
</svg>
