<svg width="250" height="250" viewBox="0 0 250 250" fill="none" xmlns="http://www.w3.org/2000/svg">
<g clip-path="url(#clip0_89_59)">
<path d="M123.335 44.0721C117.236 18.742 104.096 8.19036 98.2881 6.0808C94.0724 5.05694 85.1301 4.95644 83.0861 12.7454C80.531 22.4816 91.4306 24.672 96.9048 27.009C101.284 28.8786 99.5487 34.1378 98.1336 36.5337C95.1793 41.5355 105.282 44.7509 109.408 45.7863C113.635 46.9009 110.421 53.7032 110.264 54.5291C109.614 57.9329 109.33 61.7041 113.997 62.4299C118.664 63.1558 120.817 75.1988 121.31 81.1296L127.201 80.3695C127.019 78.4483 127.19 76.5342 127.563 74.7341M123.335 44.0721C126.098 31.7269 135.207 6.96153 149.543 6.66136C167.461 6.28615 163.177 23.7154 152.035 25.9828C143.122 27.7967 145.351 33.3354 147.478 37.0839C148.898 39.5847 147.168 43.5425 136.693 48.4354C134.903 49.2713 134.565 50.4531 136.637 56.3831C136.848 58.0159 136.466 61.3851 131.534 65.424C130.353 67.0548 128.422 70.5926 127.563 74.7341M123.335 44.0721C124.767 48.7846 127.214 66.4054 127.563 74.7341" stroke="#7ED957" stroke-width="4"/>
<path d="M120.67 87.5C122.594 84.1667 127.406 84.1667 129.33 87.5L213.335 233C215.259 236.333 212.854 240.5 209.005 240.5H40.9951C37.1464 240.5 34.7408 236.333 36.665 233L120.67 87.5Z" stroke="#923A5F" stroke-width="10"/>
<rect x="120" y="116" width="11" height="81" rx="5.5" fill="#923A5F"/>
<rect x="117" y="208" width="18" height="17" rx="8.5" fill="#923A5F"/>
</g>
<defs>
<clipPath id="clip0_89_59">
<rect width="250" height="250" fill="white"/>
</clipPath>
</defs>
</svg>
