<svg width="250" height="250" viewBox="0 0 250 250" fill="none" xmlns="http://www.w3.org/2000/svg">
<g clip-path="url(#clip0_88_933)">
<path d="M33.037 59.9867C28.6841 57.1231 29.3587 38.6204 28.3959 38.3972L31.8987 32.1374C35.6498 24.784 32.9627 26.9421 36.3696 28.2284C36.3696 28.2284 50.0795 31.7305 53.9244 31.36C57.7694 30.9895 56.6973 30.8635 63.5363 29.5985C70.3752 28.3336 67.9036 29.2362 69.9296 27.8455C73.3979 25.465 75.2094 23.8002 78.0958 20.5926C81.6312 16.664 81.0491 16.6699 82.5426 14.9559C84.2239 13.0264 86.3969 11.0418 87.5097 10.681C88.6226 10.3201 90.4727 10.3354 91.4554 10.8365C92.4382 11.3377 94.1503 12.0515 94.5091 14.561C94.868 17.0706 93.6101 19.358 92.355 21.8183C89.9747 26.4843 84.3713 33.22 84.3713 33.22C84.2144 33.4436 78.5634 41.2108 78.3847 41.4859C76.4484 44.4677 71.0532 52.1593 70.5543 56.6152C69.1543 57.7768 66.5217 60.7215 67.1917 63.2071C64.5769 64.4636 60.0654 68.6293 62.9377 75.2397C59.829 75.5297 52.674 75.3099 48.9231 72.1102C44.2346 68.1107 38.4782 63.5663 33.037 59.9867Z" fill="#923A5F"/>
<path d="M78.3847 41.4859C76.4484 44.4677 71.0532 52.1593 70.5543 56.6152C69.1543 57.7768 66.5217 60.7215 67.1917 63.2071C64.5769 64.4636 60.0654 68.6293 62.9377 75.2397C59.829 75.5297 52.674 75.3099 48.9231 72.1102C44.2346 68.1107 38.4782 63.5663 33.037 59.9867C28.6841 57.1231 29.3587 38.6204 28.3959 38.3972L31.8987 32.1374C35.6498 24.784 32.9627 26.9421 36.3696 28.2284C36.3696 28.2284 50.0795 31.7305 53.9244 31.36C57.7694 30.9895 56.6973 30.8635 63.5363 29.5985C70.3752 28.3336 67.9036 29.2362 69.9296 27.8455C73.3979 25.465 75.2094 23.8002 78.0958 20.5926C81.6312 16.664 81.0491 16.6699 82.5426 14.9559C84.2239 13.0264 86.3969 11.0418 87.5097 10.681C88.6226 10.3201 90.4727 10.3354 91.4554 10.8365C92.4382 11.3377 94.1503 12.0515 94.5091 14.561C94.868 17.0706 93.6101 19.358 92.355 21.8183C89.9747 26.4843 84.3713 33.22 84.3713 33.22C84.2144 33.4436 78.5634 41.2108 78.3847 41.4859ZM78.3847 41.4859C75.1179 46.0259 62.3299 52.9019 47.0311 48.1639" stroke="white"/>
<path d="M17.3023 25.1465C6.65889 21.1287 0.083121 22.4301 -2.13654 24.0577C-3.56529 25.3649 -5.85111 28.6509 -3.56437 31.3376C-0.705943 34.696 2.82384 31.2031 5.04143 29.7553C6.8155 28.5971 8.27017 30.5427 8.77574 31.6602C9.83121 33.9934 13.529 31.0497 14.9394 29.7784C16.4037 28.4894 18.0414 31.3648 18.2987 31.6278C19.3593 32.7117 20.6441 33.7512 22.0792 32.203C23.5144 30.6548 26.6434 36.9848 28.9002 38.2717L34.3456 28.8257C33.609 28.4171 30.9046 29.2529 30.3511 28.6687M17.3023 25.1465C13.5579 21.0647 7.46825 10.6064 10.9667 5.22434C15.3397 -1.50318 20.5295 4.40178 18.542 9.08866C16.952 12.8382 19.5044 13.3854 21.3877 13.5264C22.6441 13.6204 23.6322 15.2415 22.7563 20.3325C22.6066 21.2023 22.9467 21.6201 25.6004 22.3223C26.2405 22.6488 27.5405 22.9491 27.7522 25.7758C28.0416 26.6171 29.0778 27.3246 30.3511 28.6687M17.3023 25.1465C19.3574 25.7837 27.2684 26.7341 30.3511 28.6687" stroke="#7ED957" stroke-width="3"/>
<rect x="-0.672602" y="0.218191" width="30.3763" height="12.3112" rx="6.15559" transform="matrix(-0.890792 -0.454411 -0.454411 0.890792 88.9832 76.0658)" fill="#923A5F" stroke="white"/>
<rect x="-0.672602" y="0.218191" width="30.3763" height="12.3112" rx="6.15559" transform="matrix(-0.890792 -0.454411 -0.454411 0.890792 93.304 67.5959)" fill="#923A5F" stroke="white"/>
<rect x="-0.672602" y="0.218191" width="30.3763" height="12.3112" rx="6.15559" transform="matrix(-0.890792 -0.454411 -0.454411 0.890792 98.0403 60.4053)" fill="#923A5F" stroke="white"/>
<rect x="-0.672602" y="0.218191" width="30.3763" height="12.3112" rx="6.15559" transform="matrix(-0.890792 -0.454411 -0.454411 0.890792 103.224 50.2416)" fill="#923A5F" stroke="white"/>
<path d="M208.77 68.2288C215.02 45.8048 209.446 31.9066 205.878 27.7605C203.068 25.1476 196.212 21.2242 191.266 26.4343C185.083 32.947 192.545 39.3456 195.758 43.5262C198.328 46.8706 194.714 50.2358 192.586 51.5004C188.143 54.1403 194.547 60.9974 197.283 63.5809C200.062 66.2698 194.64 70.2056 194.161 70.7835C192.188 73.165 190.338 75.9911 193.625 78.5652C196.912 81.1392 190.603 83.9151 188.418 88.7634L188.548 105.995L196.053 98.2663C196.743 96.6862 197.703 95.2632 198.769 94.0164M208.77 68.2288C216.242 59.766 233.983 44.3225 245.173 50.2513C259.161 57.6622 248.316 69.4451 238.739 66.4275C231.077 64.0133 230.401 69.3012 230.421 73.1465C230.435 75.7118 227.388 78.0621 217.189 77.3829C215.447 77.2669 214.675 78.0457 213.709 83.5721C213.165 84.9391 211.413 87.4088 205.861 88.4458C204.244 89.2129 201.223 91.1481 198.769 94.0164M208.77 68.2288C207.837 72.5287 202.103 87.3557 198.769 94.0164" stroke="#7ED957" stroke-width="4"/>
<path d="M139.346 195.901C139.346 195.901 162.635 201.291 165.919 208.219C166.117 208.637 169.207 221.629 157.627 217.87C157.627 217.87 140.871 214.084 129.651 209.637C116.528 204.435 123.188 171.305 123.188 171.305C113.894 188.084 95.0422 223.076 89.5502 224.122C85.7364 224.849 77.4467 222.507 79.7424 216.32C82.0381 210.133 109.703 171.705 108.425 147.463C107.146 123.174 163.16 75.0644 189.002 83.9651L188.771 112.698L172.834 118.068C173.624 124.16 171.508 136.667 168.963 151.07C168.963 151.07 170.164 168.204 166.246 174.229C162.329 180.253 145.401 190.996 142.905 190.86C141.635 190.791 140.613 189.712 140.275 187.98L139.346 195.901Z" fill="#923A5F"/>
<path d="M123.188 171.305C113.894 188.084 95.0422 223.076 89.5502 224.122C85.7364 224.849 77.4467 222.507 79.7424 216.32C82.0381 210.133 109.703 171.705 108.425 147.463C107.146 123.174 163.16 75.0644 189.002 83.9651L188.771 112.698L172.834 118.068C173.624 124.16 171.508 136.667 168.963 151.07C168.963 151.07 170.164 168.204 166.246 174.229C162.329 180.253 145.401 190.996 142.905 190.86C141.635 190.791 140.613 189.713 140.275 187.98M123.188 171.305C132.575 157.222 140.086 158.611 145.771 161.408M123.188 171.305C123.188 171.305 116.528 204.435 129.651 209.637C140.871 214.084 157.627 217.87 157.627 217.87C169.207 221.629 166.117 208.637 165.919 208.219C162.635 201.291 139.346 195.901 139.346 195.901L140.275 187.98M145.771 161.408C147.653 162.304 149.194 163.525 150.288 164.727C151.238 165.593 149.55 171.683 144.49 177.351C140.74 181.55 139.783 185.458 140.275 187.98M145.771 161.408C143.992 159.846 136.618 148.03 140.94 141.298" stroke="white" stroke-width="2"/>
<path d="M179 235.318L175.03 250.028H18.2792C18.2792 250.028 17.651 241.029 18.2792 235.318C19.1611 227.302 23.6623 215.374 23.6623 215.374L29.0455 195.429L49.9363 118.028L60.0742 128.093L52.2757 157.899L73.7213 166.415L70.9919 180.351L46.622 172.802L33.1697 217.512L179 235.318Z" fill="#45DB04"/>
<path d="M23.6623 215.374L29.0455 195.429L49.9363 118.028L60.0742 128.093L52.2757 157.899L73.7213 166.415L70.9919 180.351L46.622 172.802L33.1697 217.512M23.6623 215.374C23.6623 215.374 19.1611 227.302 18.2792 235.318C17.651 241.029 18.2792 250.028 18.2792 250.028H175.03L179 235.318L33.1697 217.512M23.6623 215.374L33.1697 217.512" stroke="#68D23A" stroke-width="5" stroke-linecap="round"/>
</g>
<defs>
<clipPath id="clip0_88_933">
<rect width="250" height="250" fill="white"/>
</clipPath>
</defs>
</svg>
