<svg width="250" height="250" viewBox="0 0 250 250" fill="none" xmlns="http://www.w3.org/2000/svg">
<g clip-path="url(#clip0_46_149)">
<path d="M72.366 30.9143C70.5788 13.1091 63.1436 4.75979 59.6494 2.81079C57.0717 1.74197 51.4351 0.88692 49.5104 6.01723C47.1046 12.4301 53.8065 14.8821 57.0717 16.9569C59.6839 18.6167 58.1601 22.0494 57.0717 23.5584C54.7995 26.7085 60.9146 29.7892 63.435 30.858C66.0127 31.9897 63.43 36.3444 63.2632 36.8936C62.5758 39.157 62.0896 41.703 64.9766 42.6084C67.8636 43.5137 68.2416 51.9134 68.0698 56H71.8504C71.8921 54.6742 72.1556 53.3843 72.5378 52.1899M72.366 30.9143C75.1155 22.741 82.8829 6.65855 91.9563 7.71479C103.298 9.03509 99.1739 20.5406 91.9563 21.1064C86.1823 21.5591 87.1379 25.5311 88.1757 28.2737C88.8682 30.1035 87.454 32.6496 80.4427 35.0639C79.2448 35.4763 78.9355 36.2523 79.7603 40.4773C79.7603 41.609 79.2448 43.8724 75.8029 46.1921C74.9245 47.2 73.4171 49.442 72.5378 52.1899M72.366 30.9143C72.8865 34.253 72.9961 46.4812 72.5378 52.1899" stroke="#7ED957" stroke-width="4"/>
<path d="M127 250H12C12 199.19 37.7436 158 69.5 158C101.256 158 127 199.19 127 250Z" fill="#923A5F"/>
<ellipse cx="70" cy="106.5" rx="48" ry="48.5" fill="#923A5F"/>
<ellipse cx="70.5" cy="107" rx="40.5" ry="40" fill="#DF8EB0"/>
<ellipse cx="70.5" cy="107" rx="32.5" ry="33" fill="#923A5F"/>
<circle cx="70.5" cy="106.5" r="24.5" fill="#DF8EB0"/>
<rect x="0.468053" y="0.535278" width="28.1267" height="12.7865" rx="6.39325" transform="matrix(0.997373 0.0724336 -0.0612678 0.998121 125.128 108.9)" fill="#923A5F" stroke="white"/>
<rect x="0.468053" y="0.535278" width="28.1267" height="12.2759" rx="6.13795" transform="matrix(0.997373 0.0724336 -0.0612678 0.998121 124.722 100.168)" fill="#923A5F" stroke="white"/>
<rect x="0.468053" y="0.535278" width="30.4756" height="12.7865" rx="6.39325" transform="matrix(0.997373 0.0724336 -0.0612678 0.998121 123.879 90.8924)" fill="#923A5F" stroke="white"/>
<rect x="0.468053" y="0.535278" width="30.4756" height="12.7865" rx="6.39325" transform="matrix(0.997373 0.0724336 -0.0612678 0.998121 124.168 83.1019)" fill="#923A5F" stroke="white"/>
<path d="M181.394 92.7417C182.752 93.6761 189.403 105.034 190.776 104.62L190.275 112.786C189.483 112.508 183.121 123.904 177.749 125.764C172.524 127.573 169.241 127.731 164.06 128.03C158.987 128.323 151.683 125.414 149.562 123.717C154.492 119.842 153.032 114.416 151.686 112.188C153.243 110.537 152.613 106.964 152.103 105.384C153.667 101.623 152.643 95.6535 151.766 92.4787C151.673 92.1957 151.594 91.9272 151.529 91.6751L150.291 105.253C149.852 106.911 148.215 110.084 145.176 109.51C142.138 108.937 141.28 105.994 141.231 104.595C141.376 98.9471 141.643 87.3419 141.558 86.1012C141.451 84.5503 152.311 75.6395 155.801 74.7908C158.593 74.1118 161.26 74.8198 162.244 75.2586C166.541 77.7292 179.887 91.7044 181.394 92.7417Z" fill="#923A5F"/>
<path d="M151.529 91.6751L150.291 105.253C149.852 106.911 148.215 110.084 145.176 109.51C142.138 108.937 141.28 105.994 141.231 104.595C141.376 98.9471 141.643 87.3419 141.558 86.1012C141.451 84.5503 152.311 75.6395 155.801 74.7908C158.593 74.1118 161.26 74.8198 162.244 75.2586C166.541 77.7292 179.887 91.7044 181.394 92.7417C182.752 93.6761 189.403 105.034 190.776 104.62L190.275 112.786C189.483 112.508 183.121 123.904 177.749 125.764C172.524 127.573 169.241 127.731 164.06 128.03C158.987 128.323 151.683 125.414 149.562 123.717C154.492 119.842 153.032 114.416 151.686 112.188C153.243 110.537 152.613 106.964 152.103 105.384C153.812 101.276 152.432 94.5329 151.529 91.6751ZM151.529 91.6751C154.191 92.2358 160.313 92.2248 163.503 87.6949M151.529 91.6751C152.727 96.3179 158.586 106.516 172.437 110.168" stroke="white"/>
<path d="M207.001 113.052C219.35 111.589 225.674 102.228 227.292 97.7301C228.232 94.3939 229.273 87.0249 225.912 84.2387C221.71 80.756 219.489 89.4464 217.803 93.6366C216.454 96.9887 214.224 94.8142 213.278 93.3079C211.302 90.1633 208.697 98.0508 207.761 101.312C206.777 104.645 204 101.032 203.637 100.785C202.141 99.7687 200.435 99.0026 199.582 102.754C198.728 106.505 193.044 106.939 190.256 106.51L189.781 112.199C190.687 112.319 191.616 111.657 192.403 112.219M207.001 113.052C212.382 117.074 222.779 128.088 221.323 139.966C219.502 154.814 211.948 148.818 212.143 139.3C212.299 131.685 209.499 132.744 207.535 133.972C206.225 134.791 204.594 132.805 203.505 123.466C203.319 121.87 202.812 121.425 199.849 122.299C199.073 122.243 197.564 121.452 196.251 116.811C195.631 115.606 194.216 113.512 192.403 112.219M207.001 113.052C204.67 113.57 196.28 113.106 192.403 112.219" stroke="#7ED957" stroke-width="2"/>
<rect x="139" y="130" width="35" height="3" fill="#DF8EB0"/>
<rect x="157" y="134" width="35" height="2" fill="#DF8EB0"/>
<rect x="227" y="138" width="35" height="2" fill="#DF8EB0"/>
<rect x="207" y="79" width="34" height="2" fill="#DF8EB0"/>
<rect width="35" height="2" transform="matrix(1 0 0 -1 142 73)" fill="#DF8EB0"/>
<rect width="35" height="2" transform="matrix(1 0 0 -1 159 68)" fill="#DF8EB0"/>
<ellipse cx="71" cy="107.5" rx="14" ry="13.5" fill="#923A5F"/>
</g>
<defs>
<clipPath id="clip0_46_149">
<rect width="250" height="250" fill="white"/>
</clipPath>
</defs>
</svg>
