<svg width="250" height="250" viewBox="0 0 250 250" fill="none" xmlns="http://www.w3.org/2000/svg">
<rect width="250" height="250" stroke="white"/>
<path d="M138.562 58.5598C136.989 44.0519 130.446 37.2487 127.371 35.6606C125.103 34.7898 120.143 34.093 118.449 38.2733C116.332 43.4986 122.23 45.4965 125.103 47.1871C127.402 48.5395 126.061 51.3366 125.103 52.5661C123.104 55.1328 128.485 57.643 130.703 58.5139C132.971 59.436 130.698 62.9844 130.552 63.4318C129.947 65.2761 129.519 67.3506 132.059 68.0883C134.6 68.826 134.933 75.6701 134.781 79H138.108C138.145 77.9198 138.377 76.8687 138.713 75.8955M138.562 58.5598C140.982 51.9001 147.817 38.7959 155.802 39.6565C165.782 40.7323 162.153 50.1071 155.802 50.5682C150.72 50.937 151.561 54.1734 152.475 56.4082C153.084 57.8992 151.84 59.9737 145.67 61.9409C144.615 62.277 144.343 62.9093 145.069 66.3519C145.069 67.274 144.615 69.1182 141.587 71.0084C140.814 71.8296 139.487 73.6564 138.713 75.8955M138.562 58.5598C139.02 61.2803 139.117 71.2439 138.713 75.8955" stroke="#7ED957" stroke-width="4"/>
<rect x="35" y="79" width="197" height="114" fill="#923A5F"/>
<path d="M250 115.393C250 115.393 233.812 115.389 233.812 136.438C233.813 158.793 249.99 159.238 250 159.238V193H215V79H250V115.393Z" fill="#923A5F"/>
<path d="M250 115.393C250 115.393 233.812 115.389 233.812 136.438C233.813 158.793 249.99 159.238 250 159.238V193H215V79H250V115.393Z" stroke="black"/>
<path d="M35 79H0V115.392C0 115.392 16.1875 115.389 16.1875 136.438C16.1875 158.8 0 159.238 0 159.238V193H35V79Z" fill="#D38EAB"/>
<rect x="58" y="92" width="153" height="88" rx="5" fill="#D38EAB"/>
<path d="M62.468 128.472V125.52H79.856V128.472H72.728V150H69.596V128.472H62.468ZM94.4644 150H91.3324V125.52H94.4644V150ZM111.449 140.46C111.449 142.716 111.893 144.456 112.781 145.68C113.693 146.88 115.085 147.48 116.957 147.48C117.773 147.48 118.577 147.384 119.369 147.192C120.161 147 121.109 146.664 122.213 146.184L123.257 148.848C122.081 149.376 120.965 149.76 119.909 150C118.853 150.24 117.833 150.36 116.849 150.36C114.017 150.36 111.869 149.472 110.405 147.696C108.941 145.92 108.209 143.508 108.209 140.46V135.06C108.209 132.012 108.941 129.6 110.405 127.824C111.869 126.048 114.017 125.16 116.849 125.16C117.833 125.16 118.853 125.28 119.909 125.52C120.989 125.76 122.081 126.144 123.185 126.672L122.177 129.372C120.233 128.508 118.493 128.076 116.957 128.076C115.085 128.076 113.693 128.676 112.781 129.876C111.893 131.076 111.449 132.804 111.449 135.06V140.46ZM148.936 150L141.952 138.444C141.448 138.972 140.92 139.512 140.368 140.064C139.84 140.616 139.288 141.168 138.712 141.72V150H135.58V125.52H138.712V138.228C140.968 135.948 142.852 133.788 144.364 131.748C145.876 129.708 147.16 127.632 148.216 125.52H151.6C150.52 127.632 149.392 129.552 148.216 131.28C147.064 132.984 145.744 134.688 144.256 136.392L152.752 150H148.936ZM177.905 147.084V150H164.225V125.52H177.545V128.472H167.357V136.14H176.465V139.092H167.357V147.084H177.905ZM187.202 128.472V125.52H204.59V128.472H197.462V150H194.33V128.472H187.202Z" fill="white"/>
<path d="M35 193V79" stroke="black" stroke-width="2" stroke-dasharray="6 6"/>
</svg>
