<svg width="250" height="250" viewBox="0 0 250 250" fill="none" xmlns="http://www.w3.org/2000/svg">
<g clip-path="url(#clip0_89_43)">
<path d="M127.895 -2V86M127.895 86L153 66.3404M127.895 86L100 66.3404" stroke="#883F5E" stroke-width="5"/>
<path d="M48.1045 156.985C46.0314 138.521 37.4066 129.862 33.3533 127.841C30.3631 126.732 23.8247 125.846 21.5921 131.166C18.8013 137.816 26.5756 140.359 30.3632 142.511C33.3933 144.232 31.6258 147.792 30.3632 149.357C27.7274 152.624 34.821 155.818 37.7446 156.927C40.7347 158.1 37.7388 162.616 37.5453 163.186C36.7479 165.533 36.1839 168.174 39.5328 169.112C42.8818 170.051 43.3203 178.762 43.121 183L47.5065 183C47.5548 181.625 47.8605 180.287 48.3038 179.049M48.1045 156.985C51.294 148.509 60.3042 131.831 70.8294 132.926C83.9859 134.296 79.2017 146.227 70.8294 146.814C64.1315 147.283 65.2399 151.403 66.4439 154.247C67.2471 156.144 65.6066 158.785 57.4735 161.288C56.084 161.716 55.7252 162.521 56.682 166.902C56.682 168.076 56.084 170.423 52.0913 172.829C51.0724 173.874 49.3238 176.199 48.3038 179.049M48.1045 156.985C48.7084 160.448 48.8354 173.129 48.3038 179.049" stroke="#7ED957" stroke-width="3"/>
<path d="M65.7445 184.992C66.834 184.992 68.8616 190.218 69.7393 192.831L70.3691 201.842C70.5189 201.986 71.9485 203.284 72.6446 203.914L79 208.96L75.7315 232.297C75.1868 233.228 73.5888 235.217 71.5551 235.721C69.5214 236.226 56.3021 235.932 49.9467 235.721C49.402 234.79 48.9117 232.225 51.3086 229.414C58.7837 228.933 73.7886 227.233 74.0065 224.278C74.2244 221.323 73.1893 209.471 72.6446 203.914C71.9485 203.284 70.5189 201.986 70.3691 201.842L71.9183 224.008C67.8508 225.666 62.476 225.299 60.2969 224.909L57.5732 200.941L55.8482 201.121L58.0272 225.72C52.3618 228.098 46.4664 227.732 44.2268 227.252L41.1399 202.833L39.2333 203.013L42.0478 226.711C38.4162 229.09 33.0897 228.723 30.8805 228.243L26.9765 204.365L25.0698 204.455L28.2475 224.188C25.8506 226.567 21.4987 226.2 19.6223 225.72C18.0184 219.202 14.6833 205.644 14.1749 203.554C13.6664 201.463 14.3867 197.517 14.8104 195.805C16.8078 194.183 18.7144 194.003 19.4408 193.372C20.0218 192.867 21.7408 193.342 22.5277 193.642L23.6172 193.552C24.7067 194.003 27.7028 188.596 27.7936 188.236C27.8844 187.876 34.3306 186.704 34.5122 186.974C34.6574 187.191 36.207 187.785 36.9635 188.056C37.3267 188.146 38.1802 188.272 38.6886 188.056C39.3241 187.785 41.5031 184.722 41.6847 184.091C41.8663 183.46 49.0388 182.92 49.6744 183.01C50.3099 183.1 53.4876 187.155 54.7587 187.335C55.7756 187.479 57.664 186.073 58.4811 185.353C59.5706 184.902 64.3826 184.992 65.7445 184.992Z" fill="#FF0000"/>
<path d="M130.712 137.946C128.21 115.195 117.801 104.526 112.909 102.036C109.3 100.67 101.409 99.5777 98.7145 106.133C95.3464 114.327 104.729 117.46 109.3 120.112C112.957 122.232 110.824 126.619 109.3 128.547C106.119 132.572 114.681 136.508 118.209 137.874C121.818 139.32 118.202 144.885 117.968 145.586C117.006 148.478 116.325 151.732 120.367 152.888C124.409 154.045 124.938 164.778 124.698 170L129.991 170C130.049 168.306 130.418 166.658 130.953 165.132M130.712 137.946C134.562 127.502 145.436 106.953 158.139 108.302C174.017 109.989 168.243 124.691 158.139 125.414C150.055 125.992 151.393 131.067 152.846 134.572C153.815 136.91 151.836 140.163 142.02 143.248C140.343 143.775 139.91 144.767 141.064 150.165C141.064 151.611 140.343 154.504 135.524 157.468C134.294 158.756 132.184 161.62 130.953 165.132M130.712 137.946C131.441 142.212 131.594 157.837 130.953 165.132" stroke="#7ED957" stroke-width="3"/>
<path d="M152.685 172.443C154.026 172.443 156.522 178.853 157.602 182.057L158.377 193.108C158.562 193.285 160.321 194.876 161.178 195.65L169 201.838L164.977 230.459C164.307 231.601 162.34 234.039 159.837 234.658C157.334 235.277 141.064 234.916 133.242 234.658C132.572 233.516 131.968 230.371 134.918 226.923C144.118 226.333 162.586 224.249 162.854 220.624C163.122 216.999 161.848 202.464 161.178 195.65C160.321 194.876 158.562 193.285 158.377 193.108L160.284 220.292C155.278 222.326 148.663 221.876 145.981 221.398L142.629 192.003L140.505 192.224L143.187 222.392C136.214 225.309 128.959 224.86 126.202 224.271L122.403 194.323L120.056 194.544L123.52 223.608C119.051 226.525 112.495 226.076 109.776 225.486L104.971 196.202L102.624 196.313L106.535 220.513C103.585 223.431 98.2292 222.981 95.9198 222.392C93.9457 214.399 89.841 197.771 89.2152 195.208C88.5895 192.644 89.476 187.804 89.9974 185.704C92.4558 183.715 94.8024 183.494 95.6963 182.72C96.4115 182.101 98.5272 182.683 99.4956 183.052L100.837 182.941C102.177 183.494 105.865 176.863 105.977 176.421C106.088 175.979 114.022 174.543 114.246 174.874C114.425 175.14 116.332 175.869 117.263 176.2C117.71 176.311 118.76 176.466 119.386 176.2C120.168 175.869 122.85 172.112 123.073 171.338C123.297 170.565 132.125 169.902 132.907 170.012C133.689 170.123 137.6 175.095 139.165 175.316C140.416 175.493 142.74 173.769 143.746 172.885C145.087 172.333 151.009 172.443 152.685 172.443Z" fill="#923A5F"/>
<path d="M213.095 178.024C211.558 163.846 205.163 157.198 202.158 155.646C199.942 154.795 195.094 154.114 193.439 158.199C191.37 163.305 197.134 165.258 199.942 166.91C202.188 168.232 200.878 170.965 199.942 172.167C197.988 174.675 203.247 177.128 205.414 177.98C207.631 178.881 205.41 182.348 205.266 182.786C204.675 184.588 204.257 186.615 206.74 187.336C209.223 188.057 209.548 194.746 209.4 198L212.651 198C212.687 196.944 212.914 195.917 213.243 194.966M213.095 178.024C215.459 171.516 222.139 158.71 229.942 159.551C239.696 160.602 236.15 169.764 229.942 170.214C224.977 170.575 225.799 173.738 226.691 175.922C227.287 177.379 226.07 179.406 220.041 181.329C219.011 181.657 218.745 182.275 219.454 185.639C219.454 186.54 219.011 188.343 216.05 190.19C215.295 190.993 213.999 192.778 213.243 194.966M213.095 178.024C213.542 180.683 213.637 190.42 213.243 194.966" stroke="#7ED957" stroke-width="3"/>
<path d="M226.211 199.466C227.016 199.466 228.513 203.312 229.161 205.234L229.626 211.865C229.737 211.971 230.793 212.926 231.307 213.39L236 217.103L233.586 234.275C233.184 234.961 232.004 236.424 230.502 236.795C229 237.166 219.238 236.95 214.545 236.795C214.143 236.11 213.781 234.222 215.551 232.154C221.071 231.8 232.152 230.549 232.312 228.374C232.473 226.2 231.709 217.478 231.307 213.39C230.793 212.926 229.737 211.971 229.626 211.865L230.77 228.175C227.767 229.395 223.798 229.126 222.189 228.839L220.177 211.202L218.903 211.334L220.512 229.435C216.329 231.186 211.975 230.916 210.321 230.562L208.042 212.594L206.634 212.727L208.712 230.165C206.03 231.915 202.097 231.645 200.466 231.292L197.583 213.721L196.175 213.788L198.521 228.308C196.751 230.059 193.537 229.789 192.152 229.435C190.967 224.639 188.505 214.663 188.129 213.125C187.754 211.586 188.286 208.682 188.598 207.422C190.073 206.229 191.481 206.096 192.018 205.632C192.447 205.261 193.716 205.61 194.297 205.831L195.102 205.765C195.906 206.096 198.119 202.118 198.186 201.853C198.253 201.588 203.013 200.726 203.147 200.925C203.255 201.084 204.399 201.521 204.958 201.72C205.226 201.787 205.856 201.879 206.232 201.72C206.701 201.521 208.31 199.267 208.444 198.803C208.578 198.339 213.875 197.941 214.344 198.007C214.813 198.074 217.16 201.057 218.099 201.19C218.85 201.296 220.244 200.262 220.848 199.731C221.652 199.4 225.206 199.466 226.211 199.466Z" fill="#002BFF"/>
</g>
<defs>
<clipPath id="clip0_89_43">
<rect width="250" height="250" fill="white"/>
</clipPath>
</defs>
</svg>
