<svg width="250" height="250" viewBox="0 0 250 250" fill="none" xmlns="http://www.w3.org/2000/svg">
<path d="M110.523 57.303C109.346 40.1998 114.079 31.2756 117.391 28.7791C119.898 27.2848 125.632 25.4129 128.516 29.8791C132.122 35.462 125.549 39.0392 122.497 41.6108C120.055 43.6681 122.231 46.6119 123.624 47.8266C126.533 50.3626 120.68 54.4208 118.233 55.9042C115.737 57.4577 119.176 61.0692 119.443 61.5547C120.547 63.5557 121.489 65.861 118.632 67.2599C115.775 68.6588 123.551 75.9221 124.428 79.7375L108.433 83.4948C108.163 82.2543 110.544 78.7146 109.941 77.6623M110.523 57.303C106.258 50.1277 93.8102 36.7996 84.5248 39.5116C72.9182 42.9015 79.1863 52.9541 86.8126 52.1208C92.9136 51.4541 92.5953 55.3749 91.981 58.1538C91.5713 60.0077 93.4815 62.1374 101.208 63.0835C102.529 63.2452 102.984 63.9173 102.845 68.0515C103.038 69.1171 102.907 71.1234 106.894 72.6561C107.983 73.4388 108.554 75.2414 109.941 77.6623M110.523 57.303C110.55 60.5452 108.487 72.3739 109.941 77.6623" stroke="#7ED957" stroke-width="3"/>
<path d="M223.5 86V197M223.5 197L205 177.272M223.5 197L242 177.272" stroke="#7ED957" stroke-width="8"/>
<path d="M227 89H166" stroke="#7ED957" stroke-width="8"/>
<path d="M25.5 197V86M25.5 86L44 105.728M25.5 86L7 105.728" stroke="#7ED957" stroke-width="8"/>
<path d="M22 193H83" stroke="#7ED957" stroke-width="8"/>
<path d="M158.034 153.834V170H106.348V162.217C102.57 162.217 97.8236 158.624 96.0527 156.828C96.525 145.811 93.4948 135.473 91.9206 131.682C85.3092 87.1363 115.926 76 132.061 76V87.3758C134.422 87.3758 138.161 88.9724 139.735 89.7707C147.291 98.3924 153.706 102.344 156.854 104.14C177.514 110.726 167.282 123.898 159.215 129.287C157.247 127.69 150.951 123.299 146.228 123.299C138.554 123.299 136.98 125.495 134.422 126.892C137.374 132.28 151.738 146.849 158.034 153.834Z" fill="#923A5F"/>
<path d="M134.422 126.892C137.374 132.28 151.738 146.849 158.034 153.834V170H106.348V162.217M134.422 126.892C128.716 125.894 118.012 122.82 116.123 113.72M134.422 126.892C136.98 125.495 138.554 123.299 146.228 123.299C150.951 123.299 157.247 127.69 159.215 129.287C167.282 123.898 177.514 110.726 156.854 104.14C153.706 102.344 147.291 98.3924 139.735 89.7707C138.161 88.9724 134.422 87.3758 132.061 87.3758V76C115.926 76 85.3092 87.1363 91.9206 131.682C93.4948 135.473 96.525 145.811 96.0527 156.828C97.8236 158.624 102.57 162.217 106.348 162.217M106.348 162.217V156.828" stroke="white"/>
<path d="M103 169.5H160C161.933 169.5 163.5 171.067 163.5 173V198.5H99.5V173C99.5 171.067 101.067 169.5 103 169.5Z" fill="#923A5F" stroke="white"/>
</svg>
