<svg width="250" height="250" viewBox="0 0 250 250" fill="none" xmlns="http://www.w3.org/2000/svg">
<rect width="250" height="250" stroke="white"/>
<path d="M128.199 63.545C124.589 30.5724 109.57 15.1107 102.512 11.5015C97.3048 9.52217 85.9188 7.93874 82.031 17.4393C77.1712 29.315 90.7092 33.8557 97.3049 37.6979C102.582 40.7716 99.5035 47.1286 97.3049 49.9229C92.715 55.7564 105.068 61.4614 110.159 63.4407C115.366 65.5364 110.149 73.6008 109.812 74.6178C108.423 78.8093 107.441 83.5242 113.273 85.2007C119.104 86.8773 119.868 102.432 119.521 110L127.158 110C127.242 107.545 127.774 105.156 128.546 102.944M128.199 63.545C133.753 48.4093 149.443 18.6269 167.772 20.5829C190.682 23.0279 182.351 44.3344 167.772 45.3822C156.108 46.2205 158.038 53.576 160.135 58.6551C161.534 62.0436 158.677 66.7585 144.514 71.2294C142.095 71.9932 141.47 73.4303 143.136 81.2543C143.136 83.35 142.095 87.5414 135.142 91.8372C133.367 93.7037 130.323 97.8555 128.546 102.944M128.199 63.545C129.251 69.7278 129.472 92.3726 128.546 102.944" stroke="#7ED957" stroke-width="3"/>
<path d="M108.1 226.8V237.6H94.75C85.15 237.6 78.55 234.95 74.95 229.65C71.35 224.45 70.45 217.45 72.25 208.65L75.25 193.95C76.35 188.85 76.25 184.7 74.95 181.5C73.75 178.3 70.35 176.7 64.75 176.7H55V165.9H64.75C70.35 165.9 73.75 164.3 74.95 161.1C76.25 157.9 76.35 153.75 75.25 148.65L72.25 133.95C70.45 125.15 71.35 118.15 74.95 112.95C78.55 107.65 85.15 105 94.75 105H108.1V115.8H95.2C90.3 115.8 87.05 117.3 85.45 120.3C83.85 123.2 83.5 126.8 84.4 131.1L87.4 145.8C88.8 152.7 88.6 158.3 86.8 162.6C85.1 166.9 82.05 169.8 77.65 171.3C82.05 172.8 85.1 175.7 86.8 180C88.6 184.3 88.8 189.9 87.4 196.8L84.4 211.5C83.5 215.8 83.85 219.4 85.45 222.3C87.05 225.3 90.3 226.8 95.2 226.8H108.1ZM177.359 208.65C179.259 217.45 178.409 224.45 174.809 229.65C171.209 234.95 164.559 237.6 154.859 237.6H141.509V226.8H154.559C159.559 226.8 162.809 225.3 164.309 222.3C165.909 219.4 166.259 215.8 165.359 211.5L162.359 196.8C160.959 189.9 161.109 184.3 162.809 180C164.609 175.7 167.659 172.8 171.959 171.3C167.659 169.8 164.609 166.95 162.809 162.75C161.109 158.45 160.959 152.8 162.359 145.8L165.359 131.1C166.259 126.8 165.909 123.2 164.309 120.3C162.809 117.3 159.559 115.8 154.559 115.8H141.509V105H154.859C164.559 105 171.209 107.65 174.809 112.95C178.409 118.15 179.259 125.15 177.359 133.95L174.359 148.65C173.359 153.85 173.459 158.05 174.659 161.25C175.859 164.45 179.259 166.05 184.859 166.05H194.609V176.85H184.859C179.259 176.85 175.859 178.45 174.659 181.65C173.459 184.85 173.359 188.95 174.359 193.95L177.359 208.65Z" fill="#923A5F"/>
</svg>
