<svg xmlns="http://www.w3.org/2000/svg" xmlns:xlink="http://www.w3.org/1999/xlink" width="500" zoomAndPan="magnify" viewBox="0 0 375 374.999991" height="500" preserveAspectRatio="xMidYMid meet" version="1.0"><defs><g/><clipPath id="19b83ef9cf"><path d="M 35.179688 137.378906 L 80.648438 137.378906 L 80.648438 174.878906 L 35.179688 174.878906 Z M 35.179688 137.378906 " clip-rule="nonzero"/></clipPath><clipPath id="e5b79535da"><path d="M 38 172 L 77 172 L 77 204 L 38 204 Z M 38 172 " clip-rule="nonzero"/></clipPath><clipPath id="46340785fc"><path d="M 39.136719 169.804688 L 77.929688 173.804688 L 74.699219 205.140625 L 35.902344 201.136719 Z M 39.136719 169.804688 " clip-rule="nonzero"/></clipPath><clipPath id="6c8d1d3fe5"><path d="M 39.136719 169.804688 L 77.929688 173.804688 L 74.699219 205.140625 L 35.902344 201.136719 Z M 39.136719 169.804688 " clip-rule="nonzero"/></clipPath><clipPath id="41564c8be3"><rect x="0" width="251" y="0" height="37"/></clipPath></defs><rect x="-37.5" width="450" fill="#ffffff" y="-37.499999" height="449.999989" fill-opacity="1"/><rect x="-37.5" width="450" fill="#ffffff" y="-37.499999" height="449.999989" fill-opacity="1"/><g clip-path="url(#19b83ef9cf)"><path fill="#7ed957" d="M 80.160156 190.832031 C 79.832031 188.351562 78.992188 186.03125 77.660156 183.929688 C 76.355469 181.871094 74.621094 180.082031 72.496094 178.621094 C 70.367188 177.152344 67.910156 176.050781 65.195312 175.347656 C 62.652344 174.691406 59.933594 174.398438 57.101562 174.476562 C 58.039062 170.421875 58.839844 168.425781 60.570312 167.644531 C 60.703125 167.585938 60.84375 167.53125 60.992188 167.472656 C 61.445312 167.300781 61.957031 167.101562 62.390625 166.695312 C 63.480469 165.667969 63.277344 164.265625 63.097656 163.023438 C 62.976562 162.195312 62.863281 161.414062 63.117188 160.839844 C 63.480469 160.011719 64.617188 159.644531 65.714844 159.289062 C 65.84375 159.246094 65.96875 159.207031 66.09375 159.164062 C 67.730469 158.621094 69.539062 157.3125 69.238281 155.417969 C 69.175781 155.015625 69.023438 154.675781 68.886719 154.371094 C 68.800781 154.183594 68.722656 154.003906 68.679688 153.84375 C 68.332031 152.527344 70.109375 151.367188 71.484375 150.960938 C 71.734375 150.886719 71.988281 150.816406 72.253906 150.746094 C 73.972656 150.273438 75.917969 149.738281 76.875 148.007812 C 77.421875 147.007812 77.464844 145.816406 76.988281 144.652344 C 76.421875 143.265625 75.207031 142.144531 73.824219 141.726562 C 71.769531 141.113281 69.332031 141.65625 66.960938 143.257812 C 62.46875 146.300781 59.96875 151.386719 58.292969 155.476562 C 58.007812 156.175781 57.738281 156.867188 57.480469 157.558594 C 57.324219 156.445312 57.132812 155.3125 56.914062 154.167969 C 56.078125 149.828125 54.632812 144.347656 50.828125 140.476562 C 48.824219 138.4375 46.539062 137.421875 44.40625 137.625 C 42.964844 137.757812 41.558594 138.617188 40.726562 139.863281 C 40.03125 140.914062 39.835938 142.089844 40.175781 143.175781 C 40.769531 145.0625 42.570312 145.972656 44.164062 146.773438 C 44.414062 146.898438 44.648438 147.015625 44.875 147.136719 C 46.144531 147.804688 47.65625 149.296875 47.058594 150.515625 C 46.984375 150.667969 46.867188 150.824219 46.75 150.996094 C 46.558594 151.261719 46.339844 151.566406 46.195312 151.949219 C 45.53125 153.746094 47.042969 155.386719 48.539062 156.242188 C 48.652344 156.308594 48.769531 156.375 48.886719 156.4375 C 49.890625 157.003906 50.933594 157.589844 51.125 158.472656 C 51.261719 159.089844 50.996094 159.832031 50.714844 160.621094 C 50.292969 161.800781 49.816406 163.136719 50.683594 164.359375 C 51.023438 164.84375 51.488281 165.136719 51.898438 165.398438 C 52.035156 165.484375 52.160156 165.5625 52.277344 165.648438 C 53.515625 166.535156 54.050781 168.023438 54.25 171.144531 C 54.316406 172.132812 54.34375 173.253906 54.363281 174.667969 C 52.414062 174.894531 50.511719 175.296875 48.703125 175.878906 C 46.5 176.585938 44.496094 177.535156 42.746094 178.703125 C 40.773438 180.019531 39.128906 181.605469 37.863281 183.421875 C 36.453125 185.441406 35.496094 187.757812 35.019531 190.3125 C 34.46875 193.246094 34.144531 197.726562 35.730469 202.417969 C 37.378906 207.292969 40.6875 211.226562 45.570312 214.109375 C 48.539062 215.863281 50.292969 217.398438 51.617188 219.414062 C 53.085938 221.640625 54.082031 224.589844 54.851562 228.972656 C 54.980469 229.699219 55.574219 230.195312 56.308594 230.195312 C 56.320312 230.195312 56.335938 230.195312 56.347656 230.195312 C 57.097656 230.175781 57.6875 229.644531 57.78125 228.902344 C 59 219.128906 63.871094 217 65.332031 216.582031 C 70.605469 215.070312 74.78125 211.886719 77.398438 207.378906 C 80.03125 202.839844 80.984375 197.121094 80.160156 190.832031 Z M 59.808594 156.101562 C 61.398438 152.222656 63.75 147.410156 67.878906 144.617188 C 70.519531 142.832031 72.441406 143.023438 73.351562 143.296875 C 74.261719 143.570312 75.09375 144.347656 75.472656 145.273438 C 75.636719 145.675781 75.851562 146.46875 75.441406 147.21875 C 74.820312 148.34375 73.363281 148.742188 71.824219 149.164062 C 71.558594 149.238281 71.285156 149.3125 71.019531 149.390625 C 69.90625 149.71875 68.855469 150.324219 68.128906 151.046875 C 67.167969 152.003906 66.800781 153.144531 67.097656 154.261719 C 67.171875 154.554688 67.289062 154.816406 67.394531 155.046875 C 67.496094 155.273438 67.59375 155.488281 67.621094 155.671875 C 67.75 156.492188 66.652344 157.253906 65.578125 157.613281 C 65.457031 157.652344 65.335938 157.691406 65.210938 157.730469 C 63.90625 158.15625 62.28125 158.683594 61.621094 160.179688 C 61.175781 161.183594 61.335938 162.289062 61.476562 163.261719 C 61.640625 164.378906 61.714844 165.082031 61.269531 165.503906 C 61.070312 165.691406 60.746094 165.816406 60.40625 165.945312 C 60.242188 166.007812 60.074219 166.074219 59.902344 166.152344 C 59.140625 166.496094 58.523438 166.984375 58.007812 167.609375 C 58.105469 165.601562 58.070312 163.519531 57.902344 161.367188 C 58.4375 159.65625 59.078125 157.882812 59.808594 156.101562 Z M 53.230469 164.3125 C 53.078125 164.203125 52.921875 164.105469 52.773438 164.011719 C 52.464844 163.816406 52.175781 163.632812 52.019531 163.410156 C 51.660156 162.910156 51.875 162.230469 52.257812 161.167969 C 52.585938 160.246094 52.960938 159.195312 52.726562 158.121094 C 52.371094 156.523438 50.882812 155.683594 49.6875 155.011719 C 49.574219 154.949219 49.460938 154.886719 49.351562 154.824219 C 48.367188 154.257812 47.441406 153.296875 47.730469 152.519531 C 47.796875 152.34375 47.933594 152.152344 48.078125 151.949219 C 48.226562 151.742188 48.390625 151.511719 48.523438 151.238281 C 49.035156 150.203125 48.898438 149.011719 48.148438 147.886719 C 47.582031 147.03125 46.667969 146.230469 45.640625 145.691406 C 45.394531 145.5625 45.144531 145.433594 44.898438 145.3125 C 43.472656 144.589844 42.125 143.914062 41.738281 142.6875 C 41.480469 141.867188 41.847656 141.136719 42.089844 140.773438 C 42.644531 139.9375 43.613281 139.34375 44.558594 139.253906 C 44.667969 139.242188 44.789062 139.238281 44.925781 139.238281 C 45.953125 139.238281 47.683594 139.621094 49.660156 141.628906 C 53.15625 145.183594 54.511719 150.363281 55.304688 154.480469 C 55.761719 156.847656 56.082031 159.15625 56.257812 161.339844 C 56.558594 165.085938 56.449219 168.613281 55.929688 171.867188 C 55.917969 171.582031 55.902344 171.304688 55.882812 171.035156 C 55.6875 168.003906 55.160156 165.699219 53.230469 164.3125 Z M 78.21875 200.722656 L 72.703125 200.722656 C 72.25 200.722656 71.882812 201.085938 71.882812 201.539062 C 71.882812 201.992188 72.25 202.359375 72.703125 202.359375 L 77.789062 202.359375 C 77.542969 203.167969 77.253906 203.953125 76.917969 204.703125 L 76.917969 204.394531 L 65.730469 204.394531 C 65.277344 204.394531 64.910156 204.761719 64.910156 205.214844 C 64.910156 205.667969 65.277344 206.03125 65.730469 206.03125 L 76.269531 206.03125 C 76.175781 206.207031 76.078125 206.382812 75.976562 206.554688 C 73.574219 210.695312 69.738281 213.617188 64.878906 215.007812 C 63.808594 215.316406 61.726562 216.199219 59.820312 218.664062 C 58.058594 220.9375 56.871094 223.988281 56.285156 227.734375 C 55.496094 223.636719 54.464844 220.765625 52.984375 218.515625 C 52.09375 217.160156 51.046875 216.011719 49.652344 214.898438 L 54.21875 214.898438 C 54.671875 214.898438 55.039062 214.53125 55.039062 214.078125 C 55.039062 213.625 54.671875 213.261719 54.21875 213.261719 L 47.324219 213.261719 C 47.027344 213.074219 46.722656 212.886719 46.402344 212.699219 C 41.867188 210.023438 38.796875 206.386719 37.28125 201.890625 C 36.609375 199.910156 36.308594 197.964844 36.226562 196.171875 L 41.117188 196.171875 C 41.570312 196.171875 41.9375 195.804688 41.9375 195.355469 C 41.9375 194.902344 41.570312 194.535156 41.117188 194.535156 L 36.210938 194.535156 C 36.246094 193.050781 36.417969 191.714844 36.625 190.609375 C 37.460938 186.164062 39.824219 182.617188 43.652344 180.0625 C 46.71875 178.019531 50.75 176.664062 55.011719 176.242188 C 55.097656 176.234375 55.183594 176.226562 55.269531 176.21875 C 55.53125 176.195312 55.804688 176.175781 56.085938 176.15625 C 56.09375 176.15625 56.101562 176.15625 56.109375 176.15625 C 56.109375 176.15625 56.113281 176.15625 56.113281 176.15625 C 56.117188 176.15625 56.117188 176.15625 56.121094 176.15625 C 56.195312 176.152344 56.269531 176.148438 56.34375 176.144531 L 56.351562 176.144531 C 59.316406 175.988281 62.15625 176.253906 64.785156 176.933594 C 67.3125 177.585938 69.597656 178.605469 71.566406 179.96875 C 72.792969 180.8125 73.878906 181.777344 74.8125 182.84375 L 66.035156 182.84375 C 65.582031 182.84375 65.214844 183.207031 65.214844 183.660156 C 65.214844 184.113281 65.582031 184.480469 66.035156 184.480469 L 76.066406 184.480469 C 76.140625 184.585938 76.210938 184.695312 76.28125 184.804688 C 77.484375 186.703125 78.242188 188.804688 78.535156 191.046875 C 78.988281 194.5 78.875 197.765625 78.21875 200.722656 Z M 78.21875 200.722656 " fill-opacity="1" fill-rule="nonzero"/></g><g clip-path="url(#e5b79535da)"><g clip-path="url(#46340785fc)"><g clip-path="url(#6c8d1d3fe5)"><path fill="#923a5f" d="M 72.511719 184.433594 L 73.359375 196.011719 C 73.441406 197.113281 72.582031 197.878906 70.136719 198.234375 L 59.984375 199.671875 C 59.046875 200.523438 58.519531 203.023438 59.222656 203.265625 C 59.222656 203.265625 67.347656 203.351562 71.574219 203.421875 C 72.570312 203.425781 74.234375 202.164062 74.390625 201.132812 L 76.339844 187.433594 Z M 64.019531 197.359375 L 62.648438 182.832031 L 63.730469 182.703125 L 65.363281 196.839844 C 65.46875 197.703125 72.226562 197.085938 72.152344 196.15625 L 70.835938 178.007812 C 70.765625 177.050781 69.15625 173.28125 68.449219 173.304688 L 64.65625 173.5 C 63.726562 173.546875 63.378906 174.558594 62.078125 174.667969 C 60.921875 174.769531 59.707031 171.941406 58.671875 172.054688 L 54.851562 172.511719 C 53.792969 172.644531 53.503906 174.953125 52.339844 175.148438 C 51.148438 175.367188 50.503906 174.328125 49.660156 174.484375 L 46.65625 175.023438 C 45.441406 175.242188 45.136719 177.960938 43.957031 178.324219 C 42.875 178.652344 42.0625 177.8125 41.238281 178.238281 L 38.691406 179.558594 C 38.105469 179.839844 37.992188 183.746094 38.203125 184.523438 L 41.378906 197.410156 C 41.546875 198.109375 46.632812 197.441406 46.53125 196.773438 L 44.617188 184.890625 L 45.699219 184.761719 L 48.015625 198.875 C 48.132812 199.640625 54.65625 198.949219 54.5625 198.1875 C 54.007812 193.429688 52.917969 183.945312 52.917969 183.945312 L 54 183.816406 L 55.84375 198.292969 C 55.953125 199.082031 64.121094 198.269531 64.019531 197.359375 Z M 64.019531 197.359375 " fill-opacity="1" fill-rule="nonzero"/></g></g></g><g transform="matrix(1, 0, 0, 1, 90, 169)"><g clip-path="url(#41564c8be3)"><g fill="#8c52ff" fill-opacity="0.4"><g transform="translate(2.733454, 30.789177)"><g><path d="M 17.4375 -22.546875 C 18.570312 -22.546875 19.613281 -22.3125 20.5625 -21.84375 C 21.507812 -21.375 22.257812 -20.710938 22.8125 -19.859375 C 23.375 -19.003906 23.65625 -18.050781 23.65625 -17 C 23.65625 -14.226562 22.398438 -12.484375 19.890625 -11.765625 L 19.890625 -11.625 C 22.753906 -10.976562 24.1875 -9.101562 24.1875 -6 C 24.1875 -4.820312 23.894531 -3.773438 23.3125 -2.859375 C 22.726562 -1.953125 21.9375 -1.25 20.9375 -0.75 C 19.9375 -0.25 18.832031 0 17.625 0 L 2.421875 0 L 2.421875 -22.546875 Z M 9.671875 -13.765625 L 14.640625 -13.765625 C 15.117188 -13.765625 15.515625 -13.929688 15.828125 -14.265625 C 16.148438 -14.609375 16.3125 -15.03125 16.3125 -15.53125 L 16.3125 -15.859375 C 16.3125 -16.335938 16.144531 -16.742188 15.8125 -17.078125 C 15.488281 -17.421875 15.097656 -17.59375 14.640625 -17.59375 L 9.671875 -17.59375 Z M 9.671875 -5.25 L 15.171875 -5.25 C 15.648438 -5.25 16.046875 -5.414062 16.359375 -5.75 C 16.679688 -6.09375 16.84375 -6.515625 16.84375 -7.015625 L 16.84375 -7.34375 C 16.84375 -7.84375 16.679688 -8.257812 16.359375 -8.59375 C 16.046875 -8.9375 15.648438 -9.109375 15.171875 -9.109375 L 9.671875 -9.109375 Z M 9.671875 -5.25 "/></g></g></g><g fill="#8c52ff" fill-opacity="0.4"><g transform="translate(28.215804, 30.789177)"><g><path d="M 2.421875 -22.546875 L 21.921875 -22.546875 L 21.921875 -17.140625 L 9.671875 -17.140625 L 9.671875 -14.03125 L 20.15625 -14.03125 L 20.15625 -8.84375 L 9.671875 -8.84375 L 9.671875 -5.40625 L 22.15625 -5.40625 L 22.15625 0 L 2.421875 0 Z M 2.421875 -22.546875 "/></g></g></g><g fill="#8c52ff" fill-opacity="0.4"><g transform="translate(51.863958, 30.789177)"><g><path d="M 17.53125 0 L 16.578125 -3.171875 L 8.6875 -3.171875 L 7.734375 0 L 0.328125 0 L 8.546875 -22.546875 L 16.96875 -22.546875 L 25.203125 0 Z M 10.1875 -8.21875 L 15.078125 -8.21875 L 12.71875 -16.25 L 12.578125 -16.25 Z M 10.1875 -8.21875 "/></g></g></g><g fill="#8c52ff" fill-opacity="0.4"><g transform="translate(75.08598, 30.789177)"><g><path d="M 15.40625 -16.78125 L 15.40625 0 L 8.15625 0 L 8.15625 -16.78125 L 0.75 -16.78125 L 0.75 -22.546875 L 22.765625 -22.546875 L 22.765625 -16.78125 Z M 15.40625 -16.78125 "/></g></g></g><g fill="#8c52ff" fill-opacity="0.4"><g transform="translate(98.748532, 30.789177)"><g><path d="M 23.828125 -15.625 C 23.828125 -14.25 23.453125 -13.003906 22.703125 -11.890625 C 21.960938 -10.773438 20.882812 -9.957031 19.46875 -9.4375 L 24.46875 0 L 16.34375 0 L 12.359375 -8.21875 L 9.671875 -8.21875 L 9.671875 0 L 2.421875 0 L 2.421875 -22.546875 L 16.21875 -22.546875 C 17.832031 -22.546875 19.210938 -22.234375 20.359375 -21.609375 C 21.503906 -20.984375 22.367188 -20.140625 22.953125 -19.078125 C 23.535156 -18.023438 23.828125 -16.875 23.828125 -15.625 Z M 16.453125 -15.328125 C 16.453125 -15.921875 16.253906 -16.414062 15.859375 -16.8125 C 15.460938 -17.207031 14.984375 -17.40625 14.421875 -17.40625 L 9.671875 -17.40625 L 9.671875 -13.234375 L 14.421875 -13.234375 C 14.984375 -13.234375 15.460938 -13.4375 15.859375 -13.84375 C 16.253906 -14.25 16.453125 -14.742188 16.453125 -15.328125 Z M 16.453125 -15.328125 "/></g></g></g><g fill="#8c52ff" fill-opacity="0.4"><g transform="translate(123.673992, 30.789177)"><g><path d="M 13.625 -22.9375 C 17.519531 -22.9375 20.523438 -21.941406 22.640625 -19.953125 C 24.753906 -17.960938 25.8125 -15.066406 25.8125 -11.265625 C 25.8125 -7.460938 24.753906 -4.566406 22.640625 -2.578125 C 20.523438 -0.597656 17.519531 0.390625 13.625 0.390625 C 9.738281 0.390625 6.738281 -0.59375 4.625 -2.5625 C 2.519531 -4.539062 1.46875 -7.441406 1.46875 -11.265625 C 1.46875 -15.085938 2.519531 -17.988281 4.625 -19.96875 C 6.738281 -21.945312 9.738281 -22.9375 13.625 -22.9375 Z M 13.625 -17.53125 C 12.070312 -17.53125 10.890625 -17.0625 10.078125 -16.125 C 9.273438 -15.1875 8.875 -13.914062 8.875 -12.3125 L 8.875 -10.21875 C 8.875 -8.625 9.273438 -7.359375 10.078125 -6.421875 C 10.890625 -5.484375 12.070312 -5.015625 13.625 -5.015625 C 15.175781 -5.015625 16.363281 -5.484375 17.1875 -6.421875 C 18.007812 -7.359375 18.421875 -8.625 18.421875 -10.21875 L 18.421875 -12.3125 C 18.421875 -13.914062 18.007812 -15.1875 17.1875 -16.125 C 16.363281 -17.0625 15.175781 -17.53125 13.625 -17.53125 Z M 13.625 -17.53125 "/></g></g></g><g fill="#8c52ff" fill-opacity="0.4"><g transform="translate(150.957803, 30.789177)"><g><path d="M 13.625 -22.9375 C 17.519531 -22.9375 20.523438 -21.941406 22.640625 -19.953125 C 24.753906 -17.960938 25.8125 -15.066406 25.8125 -11.265625 C 25.8125 -7.460938 24.753906 -4.566406 22.640625 -2.578125 C 20.523438 -0.597656 17.519531 0.390625 13.625 0.390625 C 9.738281 0.390625 6.738281 -0.59375 4.625 -2.5625 C 2.519531 -4.539062 1.46875 -7.441406 1.46875 -11.265625 C 1.46875 -15.085938 2.519531 -17.988281 4.625 -19.96875 C 6.738281 -21.945312 9.738281 -22.9375 13.625 -22.9375 Z M 13.625 -17.53125 C 12.070312 -17.53125 10.890625 -17.0625 10.078125 -16.125 C 9.273438 -15.1875 8.875 -13.914062 8.875 -12.3125 L 8.875 -10.21875 C 8.875 -8.625 9.273438 -7.359375 10.078125 -6.421875 C 10.890625 -5.484375 12.070312 -5.015625 13.625 -5.015625 C 15.175781 -5.015625 16.363281 -5.484375 17.1875 -6.421875 C 18.007812 -7.359375 18.421875 -8.625 18.421875 -10.21875 L 18.421875 -12.3125 C 18.421875 -13.914062 18.007812 -15.1875 17.1875 -16.125 C 16.363281 -17.0625 15.175781 -17.53125 13.625 -17.53125 Z M 13.625 -17.53125 "/></g></g></g><g fill="#8c52ff" fill-opacity="0.4"><g transform="translate(177.389893, 30.789177)"><g><path d="M 15.40625 -16.78125 L 15.40625 0 L 8.15625 0 L 8.15625 -16.78125 L 0.75 -16.78125 L 0.75 -22.546875 L 22.765625 -22.546875 L 22.765625 -16.78125 Z M 15.40625 -16.78125 "/></g></g></g><g fill="#8c52ff" fill-opacity="0.4"><g transform="translate(201.038047, 30.789177)"><g><path d="M 2.421875 -22.546875 L 21.921875 -22.546875 L 21.921875 -17.140625 L 9.671875 -17.140625 L 9.671875 -14.03125 L 20.15625 -14.03125 L 20.15625 -8.84375 L 9.671875 -8.84375 L 9.671875 -5.40625 L 22.15625 -5.40625 L 22.15625 0 L 2.421875 0 Z M 2.421875 -22.546875 "/></g></g></g><g fill="#8c52ff" fill-opacity="0.4"><g transform="translate(224.6862, 30.789177)"><g><path d="M 23.828125 -15.625 C 23.828125 -14.25 23.453125 -13.003906 22.703125 -11.890625 C 21.960938 -10.773438 20.882812 -9.957031 19.46875 -9.4375 L 24.46875 0 L 16.34375 0 L 12.359375 -8.21875 L 9.671875 -8.21875 L 9.671875 0 L 2.421875 0 L 2.421875 -22.546875 L 16.21875 -22.546875 C 17.832031 -22.546875 19.210938 -22.234375 20.359375 -21.609375 C 21.503906 -20.984375 22.367188 -20.140625 22.953125 -19.078125 C 23.535156 -18.023438 23.828125 -16.875 23.828125 -15.625 Z M 16.453125 -15.328125 C 16.453125 -15.921875 16.253906 -16.414062 15.859375 -16.8125 C 15.460938 -17.207031 14.984375 -17.40625 14.421875 -17.40625 L 9.671875 -17.40625 L 9.671875 -13.234375 L 14.421875 -13.234375 C 14.984375 -13.234375 15.460938 -13.4375 15.859375 -13.84375 C 16.253906 -14.25 16.453125 -14.742188 16.453125 -15.328125 Z M 16.453125 -15.328125 "/></g></g></g><g fill="#923a5f" fill-opacity="1"><g transform="translate(0.735063, 28.790779)"><g><path d="M 17.4375 -22.546875 C 18.570312 -22.546875 19.613281 -22.3125 20.5625 -21.84375 C 21.507812 -21.375 22.257812 -20.710938 22.8125 -19.859375 C 23.375 -19.003906 23.65625 -18.050781 23.65625 -17 C 23.65625 -14.226562 22.398438 -12.484375 19.890625 -11.765625 L 19.890625 -11.625 C 22.753906 -10.976562 24.1875 -9.101562 24.1875 -6 C 24.1875 -4.820312 23.894531 -3.773438 23.3125 -2.859375 C 22.726562 -1.953125 21.9375 -1.25 20.9375 -0.75 C 19.9375 -0.25 18.832031 0 17.625 0 L 2.421875 0 L 2.421875 -22.546875 Z M 9.671875 -13.765625 L 14.640625 -13.765625 C 15.117188 -13.765625 15.515625 -13.929688 15.828125 -14.265625 C 16.148438 -14.609375 16.3125 -15.03125 16.3125 -15.53125 L 16.3125 -15.859375 C 16.3125 -16.335938 16.144531 -16.742188 15.8125 -17.078125 C 15.488281 -17.421875 15.097656 -17.59375 14.640625 -17.59375 L 9.671875 -17.59375 Z M 9.671875 -5.25 L 15.171875 -5.25 C 15.648438 -5.25 16.046875 -5.414062 16.359375 -5.75 C 16.679688 -6.09375 16.84375 -6.515625 16.84375 -7.015625 L 16.84375 -7.34375 C 16.84375 -7.84375 16.679688 -8.257812 16.359375 -8.59375 C 16.046875 -8.9375 15.648438 -9.109375 15.171875 -9.109375 L 9.671875 -9.109375 Z M 9.671875 -5.25 "/></g></g></g><g fill="#923a5f" fill-opacity="1"><g transform="translate(26.217413, 28.790779)"><g><path d="M 2.421875 -22.546875 L 21.921875 -22.546875 L 21.921875 -17.140625 L 9.671875 -17.140625 L 9.671875 -14.03125 L 20.15625 -14.03125 L 20.15625 -8.84375 L 9.671875 -8.84375 L 9.671875 -5.40625 L 22.15625 -5.40625 L 22.15625 0 L 2.421875 0 Z M 2.421875 -22.546875 "/></g></g></g><g fill="#923a5f" fill-opacity="1"><g transform="translate(49.865567, 28.790779)"><g><path d="M 17.53125 0 L 16.578125 -3.171875 L 8.6875 -3.171875 L 7.734375 0 L 0.328125 0 L 8.546875 -22.546875 L 16.96875 -22.546875 L 25.203125 0 Z M 10.1875 -8.21875 L 15.078125 -8.21875 L 12.71875 -16.25 L 12.578125 -16.25 Z M 10.1875 -8.21875 "/></g></g></g><g fill="#923a5f" fill-opacity="1"><g transform="translate(73.087588, 28.790779)"><g><path d="M 15.40625 -16.78125 L 15.40625 0 L 8.15625 0 L 8.15625 -16.78125 L 0.75 -16.78125 L 0.75 -22.546875 L 22.765625 -22.546875 L 22.765625 -16.78125 Z M 15.40625 -16.78125 "/></g></g></g><g fill="#000000" fill-opacity="1"><g transform="translate(96.75014, 28.790779)"><g><path d="M 23.828125 -15.625 C 23.828125 -14.25 23.453125 -13.003906 22.703125 -11.890625 C 21.960938 -10.773438 20.882812 -9.957031 19.46875 -9.4375 L 24.46875 0 L 16.34375 0 L 12.359375 -8.21875 L 9.671875 -8.21875 L 9.671875 0 L 2.421875 0 L 2.421875 -22.546875 L 16.21875 -22.546875 C 17.832031 -22.546875 19.210938 -22.234375 20.359375 -21.609375 C 21.503906 -20.984375 22.367188 -20.140625 22.953125 -19.078125 C 23.535156 -18.023438 23.828125 -16.875 23.828125 -15.625 Z M 16.453125 -15.328125 C 16.453125 -15.921875 16.253906 -16.414062 15.859375 -16.8125 C 15.460938 -17.207031 14.984375 -17.40625 14.421875 -17.40625 L 9.671875 -17.40625 L 9.671875 -13.234375 L 14.421875 -13.234375 C 14.984375 -13.234375 15.460938 -13.4375 15.859375 -13.84375 C 16.253906 -14.25 16.453125 -14.742188 16.453125 -15.328125 Z M 16.453125 -15.328125 "/></g></g></g><g fill="#000000" fill-opacity="1"><g transform="translate(121.675601, 28.790779)"><g><path d="M 13.625 -22.9375 C 17.519531 -22.9375 20.523438 -21.941406 22.640625 -19.953125 C 24.753906 -17.960938 25.8125 -15.066406 25.8125 -11.265625 C 25.8125 -7.460938 24.753906 -4.566406 22.640625 -2.578125 C 20.523438 -0.597656 17.519531 0.390625 13.625 0.390625 C 9.738281 0.390625 6.738281 -0.59375 4.625 -2.5625 C 2.519531 -4.539062 1.46875 -7.441406 1.46875 -11.265625 C 1.46875 -15.085938 2.519531 -17.988281 4.625 -19.96875 C 6.738281 -21.945312 9.738281 -22.9375 13.625 -22.9375 Z M 13.625 -17.53125 C 12.070312 -17.53125 10.890625 -17.0625 10.078125 -16.125 C 9.273438 -15.1875 8.875 -13.914062 8.875 -12.3125 L 8.875 -10.21875 C 8.875 -8.625 9.273438 -7.359375 10.078125 -6.421875 C 10.890625 -5.484375 12.070312 -5.015625 13.625 -5.015625 C 15.175781 -5.015625 16.363281 -5.484375 17.1875 -6.421875 C 18.007812 -7.359375 18.421875 -8.625 18.421875 -10.21875 L 18.421875 -12.3125 C 18.421875 -13.914062 18.007812 -15.1875 17.1875 -16.125 C 16.363281 -17.0625 15.175781 -17.53125 13.625 -17.53125 Z M 13.625 -17.53125 "/></g></g></g><g fill="#000000" fill-opacity="1"><g transform="translate(148.959412, 28.790779)"><g><path d="M 13.625 -22.9375 C 17.519531 -22.9375 20.523438 -21.941406 22.640625 -19.953125 C 24.753906 -17.960938 25.8125 -15.066406 25.8125 -11.265625 C 25.8125 -7.460938 24.753906 -4.566406 22.640625 -2.578125 C 20.523438 -0.597656 17.519531 0.390625 13.625 0.390625 C 9.738281 0.390625 6.738281 -0.59375 4.625 -2.5625 C 2.519531 -4.539062 1.46875 -7.441406 1.46875 -11.265625 C 1.46875 -15.085938 2.519531 -17.988281 4.625 -19.96875 C 6.738281 -21.945312 9.738281 -22.9375 13.625 -22.9375 Z M 13.625 -17.53125 C 12.070312 -17.53125 10.890625 -17.0625 10.078125 -16.125 C 9.273438 -15.1875 8.875 -13.914062 8.875 -12.3125 L 8.875 -10.21875 C 8.875 -8.625 9.273438 -7.359375 10.078125 -6.421875 C 10.890625 -5.484375 12.070312 -5.015625 13.625 -5.015625 C 15.175781 -5.015625 16.363281 -5.484375 17.1875 -6.421875 C 18.007812 -7.359375 18.421875 -8.625 18.421875 -10.21875 L 18.421875 -12.3125 C 18.421875 -13.914062 18.007812 -15.1875 17.1875 -16.125 C 16.363281 -17.0625 15.175781 -17.53125 13.625 -17.53125 Z M 13.625 -17.53125 "/></g></g></g><g fill="#000000" fill-opacity="1"><g transform="translate(175.391502, 28.790779)"><g><path d="M 15.40625 -16.78125 L 15.40625 0 L 8.15625 0 L 8.15625 -16.78125 L 0.75 -16.78125 L 0.75 -22.546875 L 22.765625 -22.546875 L 22.765625 -16.78125 Z M 15.40625 -16.78125 "/></g></g></g><g fill="#000000" fill-opacity="1"><g transform="translate(199.039656, 28.790779)"><g><path d="M 2.421875 -22.546875 L 21.921875 -22.546875 L 21.921875 -17.140625 L 9.671875 -17.140625 L 9.671875 -14.03125 L 20.15625 -14.03125 L 20.15625 -8.84375 L 9.671875 -8.84375 L 9.671875 -5.40625 L 22.15625 -5.40625 L 22.15625 0 L 2.421875 0 Z M 2.421875 -22.546875 "/></g></g></g><g fill="#000000" fill-opacity="1"><g transform="translate(222.687809, 28.790779)"><g><path d="M 23.828125 -15.625 C 23.828125 -14.25 23.453125 -13.003906 22.703125 -11.890625 C 21.960938 -10.773438 20.882812 -9.957031 19.46875 -9.4375 L 24.46875 0 L 16.34375 0 L 12.359375 -8.21875 L 9.671875 -8.21875 L 9.671875 0 L 2.421875 0 L 2.421875 -22.546875 L 16.21875 -22.546875 C 17.832031 -22.546875 19.210938 -22.234375 20.359375 -21.609375 C 21.503906 -20.984375 22.367188 -20.140625 22.953125 -19.078125 C 23.535156 -18.023438 23.828125 -16.875 23.828125 -15.625 Z M 16.453125 -15.328125 C 16.453125 -15.921875 16.253906 -16.414062 15.859375 -16.8125 C 15.460938 -17.207031 14.984375 -17.40625 14.421875 -17.40625 L 9.671875 -17.40625 L 9.671875 -13.234375 L 14.421875 -13.234375 C 14.984375 -13.234375 15.460938 -13.4375 15.859375 -13.84375 C 16.253906 -14.25 16.453125 -14.742188 16.453125 -15.328125 Z M 16.453125 -15.328125 "/></g></g></g></g></g><path stroke-linecap="butt" transform="matrix(0.0105104, -0.749926, 0.749926, 0.0105104, 81.003494, 206.777214)" fill="none" stroke-linejoin="miter" d="M 0.00182289 2.000721 L 49.334818 2.002083 " stroke="#923a5f" stroke-width="4" stroke-opacity="1" stroke-miterlimit="4"/></svg>