<svg xmlns="http://www.w3.org/2000/svg" xmlns:xlink="http://www.w3.org/1999/xlink" width="500" zoomAndPan="magnify" viewBox="0 0 375 374.999991" height="500" preserveAspectRatio="xMidYMid meet" version="1.0"><defs><g/><clipPath id="72522c5fb4"><path d="M 131.269531 69 L 243 69 L 243 160.089844 L 131.269531 160.089844 Z M 131.269531 69 " clip-rule="nonzero"/></clipPath><clipPath id="6bf1ed6fbd"><path d="M 132 152 L 239 152 L 239 240 L 132 240 Z M 132 152 " clip-rule="nonzero"/></clipPath><clipPath id="74c691c6bb"><path d="M 135.5625 146.636719 L 242.246094 157.644531 L 233.394531 243.4375 L 126.710938 232.433594 Z M 135.5625 146.636719 " clip-rule="nonzero"/></clipPath><clipPath id="f8c41f0a7f"><path d="M 135.5625 146.636719 L 242.246094 157.644531 L 233.394531 243.4375 L 126.710938 232.433594 Z M 135.5625 146.636719 " clip-rule="nonzero"/></clipPath><clipPath id="615907b183"><rect x="0" width="252" y="0" height="37"/></clipPath></defs><g clip-path="url(#72522c5fb4)"><path fill="#7ed957" d="M 241.691406 199.796875 C 240.890625 193.710938 238.828125 188.003906 235.558594 182.847656 C 232.355469 177.792969 228.089844 173.410156 222.878906 169.816406 C 217.652344 166.210938 211.621094 163.507812 204.960938 161.785156 C 198.714844 160.167969 192.039062 159.453125 185.085938 159.640625 C 187.386719 149.6875 189.351562 144.789062 193.605469 142.871094 C 193.925781 142.726562 194.273438 142.597656 194.636719 142.453125 C 195.75 142.027344 197.007812 141.542969 198.066406 140.542969 C 200.746094 138.023438 200.246094 134.574219 199.804688 131.53125 C 199.507812 129.496094 199.230469 127.578125 199.851562 126.167969 C 200.75 124.136719 203.539062 123.230469 206.234375 122.355469 C 206.546875 122.253906 206.859375 122.15625 207.160156 122.054688 C 211.179688 120.714844 215.617188 117.503906 214.882812 112.855469 C 214.730469 111.871094 214.351562 111.03125 214.019531 110.292969 C 213.808594 109.828125 213.613281 109.390625 213.507812 108.992188 C 212.660156 105.765625 217.023438 102.910156 220.394531 101.917969 C 221.003906 101.738281 221.628906 101.566406 222.285156 101.386719 C 226.503906 100.230469 231.28125 98.917969 233.625 94.664062 C 234.972656 92.214844 235.074219 89.289062 233.902344 86.429688 C 232.511719 83.023438 229.535156 80.273438 226.136719 79.25 C 221.09375 77.738281 215.113281 79.074219 209.292969 83.011719 C 198.261719 90.476562 192.128906 102.960938 188.015625 113.003906 C 187.316406 114.714844 186.648438 116.417969 186.015625 118.113281 C 185.628906 115.382812 185.167969 112.601562 184.625 109.792969 C 182.578125 99.132812 179.027344 85.679688 169.691406 76.183594 C 164.761719 71.175781 159.160156 68.683594 153.921875 69.175781 C 150.386719 69.503906 146.925781 71.613281 144.890625 74.675781 C 143.179688 77.25 142.699219 80.136719 143.539062 82.804688 C 144.992188 87.4375 149.417969 89.667969 153.328125 91.632812 C 153.9375 91.941406 154.511719 92.230469 155.078125 92.527344 C 158.183594 94.171875 161.898438 97.832031 160.429688 100.828125 C 160.25 101.195312 159.96875 101.582031 159.671875 102 C 159.199219 102.65625 158.664062 103.40625 158.316406 104.339844 C 156.679688 108.757812 160.394531 112.78125 164.070312 114.886719 C 164.347656 115.042969 164.628906 115.203125 164.917969 115.363281 C 167.386719 116.753906 169.941406 118.191406 170.417969 120.359375 C 170.75 121.867188 170.097656 123.695312 169.40625 125.628906 C 168.371094 128.523438 167.203125 131.804688 169.328125 134.804688 C 170.171875 135.992188 171.308594 136.714844 172.3125 137.355469 C 172.644531 137.566406 172.960938 137.765625 173.242188 137.96875 C 176.28125 140.144531 177.59375 143.800781 178.089844 151.460938 C 178.246094 153.890625 178.320312 156.640625 178.371094 160.113281 C 173.582031 160.664062 168.910156 161.660156 164.472656 163.085938 C 159.0625 164.824219 154.140625 167.15625 149.84375 170.019531 C 145.003906 173.246094 140.96875 177.144531 137.855469 181.605469 C 134.398438 186.558594 132.050781 192.246094 130.875 198.515625 C 129.523438 205.71875 128.730469 216.71875 132.621094 228.230469 C 136.667969 240.207031 144.796875 249.863281 156.78125 256.9375 C 164.066406 261.238281 168.371094 265.011719 171.625 269.957031 C 175.222656 275.425781 177.671875 282.664062 179.5625 293.421875 C 179.878906 295.203125 181.339844 296.425781 183.136719 296.425781 C 183.167969 296.425781 183.203125 296.425781 183.238281 296.421875 C 185.078125 296.378906 186.523438 295.074219 186.75 293.246094 C 189.75 269.261719 201.703125 264.035156 205.296875 263.007812 C 218.238281 259.296875 228.484375 251.484375 234.910156 240.410156 C 241.375 229.273438 243.71875 215.230469 241.691406 199.796875 Z M 191.734375 114.53125 C 195.632812 105.011719 201.410156 93.203125 211.546875 86.34375 C 218.023438 81.960938 222.742188 82.433594 224.980469 83.105469 C 227.210938 83.773438 229.253906 85.675781 230.183594 87.953125 C 230.589844 88.945312 231.121094 90.882812 230.105469 92.726562 C 228.582031 95.492188 225.007812 96.472656 221.222656 97.511719 C 220.574219 97.6875 219.90625 97.871094 219.257812 98.0625 C 216.523438 98.867188 213.9375 100.351562 212.152344 102.128906 C 209.796875 104.476562 208.898438 107.28125 209.621094 110.019531 C 209.808594 110.738281 210.097656 111.378906 210.351562 111.945312 C 210.605469 112.503906 210.84375 113.03125 210.914062 113.484375 C 211.230469 115.5 208.535156 117.367188 205.894531 118.246094 C 205.597656 118.339844 205.300781 118.441406 204.996094 118.539062 C 201.789062 119.578125 197.800781 120.871094 196.175781 124.546875 C 195.085938 127.015625 195.480469 129.722656 195.828125 132.113281 C 196.226562 134.851562 196.414062 136.585938 195.3125 137.621094 C 194.828125 138.078125 194.039062 138.378906 193.195312 138.703125 C 192.796875 138.855469 192.378906 139.019531 191.957031 139.207031 C 190.09375 140.050781 188.578125 141.25 187.3125 142.789062 C 187.550781 137.859375 187.464844 132.742188 187.054688 127.460938 C 188.363281 123.261719 189.9375 118.914062 191.734375 114.53125 Z M 175.582031 134.695312 C 175.207031 134.425781 174.832031 134.1875 174.464844 133.957031 C 173.707031 133.472656 172.988281 133.019531 172.605469 132.476562 C 171.734375 131.246094 172.257812 129.582031 173.191406 126.976562 C 174.003906 124.707031 174.921875 122.125 174.34375 119.496094 C 173.476562 115.570312 169.820312 113.511719 166.882812 111.859375 C 166.605469 111.703125 166.332031 111.550781 166.0625 111.394531 C 163.648438 110.015625 161.371094 107.652344 162.082031 105.738281 C 162.242188 105.3125 162.578125 104.839844 162.9375 104.339844 C 163.296875 103.835938 163.707031 103.265625 164.03125 102.601562 C 165.28125 100.058594 164.953125 97.132812 163.109375 94.367188 C 161.714844 92.269531 159.46875 90.308594 156.949219 88.976562 C 156.351562 88.660156 155.730469 88.347656 155.132812 88.046875 C 151.625 86.28125 148.316406 84.613281 147.371094 81.601562 C 146.738281 79.59375 147.640625 77.796875 148.234375 76.90625 C 149.597656 74.859375 151.972656 73.398438 154.292969 73.179688 C 154.5625 73.152344 154.863281 73.136719 155.195312 73.136719 C 157.722656 73.136719 161.972656 74.074219 166.820312 79.003906 C 175.40625 87.734375 178.734375 100.449219 180.675781 110.550781 C 181.796875 116.371094 182.582031 122.039062 183.015625 127.394531 C 183.757812 136.59375 183.484375 145.25 182.207031 153.238281 C 182.175781 152.535156 182.140625 151.859375 182.097656 151.199219 C 181.613281 143.75 180.320312 138.09375 175.582031 134.695312 Z M 236.925781 224.070312 L 223.386719 224.070312 C 222.277344 224.070312 221.375 224.96875 221.375 226.078125 C 221.375 227.191406 222.277344 228.089844 223.386719 228.089844 L 235.871094 228.089844 C 235.269531 230.078125 234.554688 232 233.734375 233.847656 L 233.734375 233.089844 L 206.265625 233.089844 C 205.15625 233.089844 204.253906 233.988281 204.253906 235.097656 C 204.253906 236.207031 205.15625 237.109375 206.265625 237.109375 L 232.140625 237.109375 C 231.90625 237.542969 231.671875 237.972656 231.425781 238.394531 C 225.527344 248.550781 216.105469 255.726562 204.179688 259.144531 C 201.550781 259.898438 196.441406 262.0625 191.757812 268.113281 C 187.433594 273.699219 184.519531 281.183594 183.085938 290.386719 C 181.144531 280.324219 178.617188 273.277344 174.976562 267.75 C 172.792969 264.429688 170.21875 261.605469 166.796875 258.871094 L 178.011719 258.871094 C 179.121094 258.871094 180.019531 257.96875 180.019531 256.859375 C 180.019531 255.75 179.121094 254.851562 178.011719 254.851562 L 161.082031 254.851562 C 160.355469 254.394531 159.605469 253.9375 158.820312 253.472656 C 147.691406 246.902344 140.152344 237.976562 136.425781 226.941406 C 134.78125 222.078125 134.042969 217.300781 133.84375 212.90625 L 145.847656 212.90625 C 146.960938 212.90625 147.859375 212.003906 147.859375 210.894531 C 147.859375 209.785156 146.957031 208.882812 145.847656 208.882812 L 133.800781 208.882812 C 133.894531 205.238281 134.316406 201.957031 134.824219 199.25 C 136.867188 188.335938 142.671875 179.625 152.074219 173.359375 C 159.59375 168.34375 169.496094 165.015625 179.960938 163.980469 C 180.167969 163.960938 180.375 163.9375 180.585938 163.921875 C 181.230469 163.859375 181.90625 163.808594 182.59375 163.769531 C 182.613281 163.765625 182.632812 163.765625 182.648438 163.765625 C 182.65625 163.765625 182.660156 163.765625 182.660156 163.765625 C 182.667969 163.765625 182.675781 163.765625 182.679688 163.765625 C 182.863281 163.753906 183.046875 163.746094 183.230469 163.734375 L 183.242188 163.734375 C 190.523438 163.351562 197.492188 164.003906 203.953125 165.671875 C 210.15625 167.277344 215.757812 169.785156 220.597656 173.121094 C 223.609375 175.199219 226.273438 177.5625 228.5625 180.179688 L 207.015625 180.179688 C 205.90625 180.179688 205.003906 181.082031 205.003906 182.191406 C 205.003906 183.300781 205.90625 184.199219 207.015625 184.199219 L 231.644531 184.199219 C 231.820312 184.464844 231.996094 184.730469 232.164062 185 C 235.121094 189.660156 236.984375 194.8125 237.707031 200.320312 C 238.816406 208.800781 238.539062 216.8125 236.925781 224.070312 Z M 236.925781 224.070312 " fill-opacity="1" fill-rule="nonzero"/></g><g clip-path="url(#6bf1ed6fbd)"><g clip-path="url(#74c691c6bb)"><g clip-path="url(#f8c41f0a7f)"><path fill="#923a5f" d="M 228.003906 187.160156 L 230.359375 219.226562 C 230.582031 222.285156 228.207031 224.398438 221.429688 225.386719 L 193.308594 229.359375 C 190.707031 231.722656 189.25 238.652344 191.203125 239.324219 C 191.203125 239.324219 213.699219 239.554688 225.410156 239.753906 C 228.171875 239.765625 232.78125 236.265625 233.210938 233.410156 L 238.609375 195.46875 Z M 204.488281 222.964844 L 200.683594 182.722656 L 203.6875 182.359375 L 208.210938 221.527344 C 208.503906 223.917969 227.21875 222.207031 227.015625 219.625 L 223.367188 169.355469 C 223.167969 166.703125 218.71875 156.265625 216.753906 156.335938 L 206.25 156.867188 C 203.671875 157.007812 202.710938 159.808594 199.105469 160.109375 C 195.910156 160.386719 192.535156 152.554688 189.671875 152.867188 L 179.089844 154.132812 C 176.152344 154.503906 175.359375 160.894531 172.132812 161.441406 C 168.835938 162.042969 167.042969 159.160156 164.707031 159.59375 L 156.394531 161.097656 C 153.027344 161.695312 152.183594 169.226562 148.910156 170.234375 C 145.917969 171.140625 143.664062 168.816406 141.382812 170 L 134.332031 173.652344 C 132.699219 174.429688 132.394531 185.253906 132.980469 187.402344 L 141.765625 223.101562 C 142.242188 225.035156 156.320312 223.1875 156.039062 221.335938 L 150.738281 188.425781 L 153.742188 188.0625 L 160.160156 227.15625 C 160.480469 229.277344 178.542969 227.367188 178.289062 225.25 C 176.75 212.078125 173.730469 185.808594 173.730469 185.808594 L 176.734375 185.445312 L 181.832031 225.546875 C 182.148438 227.738281 204.761719 225.484375 204.484375 222.960938 Z M 204.488281 222.964844 " fill-opacity="1" fill-rule="nonzero"/></g></g></g><g transform="matrix(1, 0, 0, 1, 62, 245)"><g clip-path="url(#615907b183)"><g fill="#8c52ff" fill-opacity="0.4"><g transform="translate(3.768724, 30.705871)"><g><path d="M 17.4375 -22.546875 C 18.570312 -22.546875 19.613281 -22.3125 20.5625 -21.84375 C 21.507812 -21.375 22.257812 -20.710938 22.8125 -19.859375 C 23.375 -19.003906 23.65625 -18.050781 23.65625 -17 C 23.65625 -14.226562 22.398438 -12.484375 19.890625 -11.765625 L 19.890625 -11.625 C 22.753906 -10.976562 24.1875 -9.101562 24.1875 -6 C 24.1875 -4.820312 23.894531 -3.773438 23.3125 -2.859375 C 22.726562 -1.953125 21.9375 -1.25 20.9375 -0.75 C 19.9375 -0.25 18.832031 0 17.625 0 L 2.421875 0 L 2.421875 -22.546875 Z M 9.671875 -13.765625 L 14.640625 -13.765625 C 15.117188 -13.765625 15.515625 -13.929688 15.828125 -14.265625 C 16.148438 -14.609375 16.3125 -15.03125 16.3125 -15.53125 L 16.3125 -15.859375 C 16.3125 -16.335938 16.144531 -16.742188 15.8125 -17.078125 C 15.488281 -17.421875 15.097656 -17.59375 14.640625 -17.59375 L 9.671875 -17.59375 Z M 9.671875 -5.25 L 15.171875 -5.25 C 15.648438 -5.25 16.046875 -5.414062 16.359375 -5.75 C 16.679688 -6.09375 16.84375 -6.515625 16.84375 -7.015625 L 16.84375 -7.34375 C 16.84375 -7.84375 16.679688 -8.257812 16.359375 -8.59375 C 16.046875 -8.9375 15.648438 -9.109375 15.171875 -9.109375 L 9.671875 -9.109375 Z M 9.671875 -5.25 "/></g></g></g><g fill="#8c52ff" fill-opacity="0.4"><g transform="translate(29.251074, 30.705871)"><g><path d="M 2.421875 -22.546875 L 21.921875 -22.546875 L 21.921875 -17.140625 L 9.671875 -17.140625 L 9.671875 -14.03125 L 20.15625 -14.03125 L 20.15625 -8.84375 L 9.671875 -8.84375 L 9.671875 -5.40625 L 22.15625 -5.40625 L 22.15625 0 L 2.421875 0 Z M 2.421875 -22.546875 "/></g></g></g><g fill="#8c52ff" fill-opacity="0.4"><g transform="translate(52.899228, 30.705871)"><g><path d="M 17.53125 0 L 16.578125 -3.171875 L 8.6875 -3.171875 L 7.734375 0 L 0.328125 0 L 8.546875 -22.546875 L 16.96875 -22.546875 L 25.203125 0 Z M 10.1875 -8.21875 L 15.078125 -8.21875 L 12.71875 -16.25 L 12.578125 -16.25 Z M 10.1875 -8.21875 "/></g></g></g><g fill="#8c52ff" fill-opacity="0.4"><g transform="translate(76.121249, 30.705871)"><g><path d="M 15.40625 -16.78125 L 15.40625 0 L 8.15625 0 L 8.15625 -16.78125 L 0.75 -16.78125 L 0.75 -22.546875 L 22.765625 -22.546875 L 22.765625 -16.78125 Z M 15.40625 -16.78125 "/></g></g></g><g fill="#8c52ff" fill-opacity="0.4"><g transform="translate(99.783801, 30.705871)"><g><path d="M 23.828125 -15.625 C 23.828125 -14.25 23.453125 -13.003906 22.703125 -11.890625 C 21.960938 -10.773438 20.882812 -9.957031 19.46875 -9.4375 L 24.46875 0 L 16.34375 0 L 12.359375 -8.21875 L 9.671875 -8.21875 L 9.671875 0 L 2.421875 0 L 2.421875 -22.546875 L 16.21875 -22.546875 C 17.832031 -22.546875 19.210938 -22.234375 20.359375 -21.609375 C 21.503906 -20.984375 22.367188 -20.140625 22.953125 -19.078125 C 23.535156 -18.023438 23.828125 -16.875 23.828125 -15.625 Z M 16.453125 -15.328125 C 16.453125 -15.921875 16.253906 -16.414062 15.859375 -16.8125 C 15.460938 -17.207031 14.984375 -17.40625 14.421875 -17.40625 L 9.671875 -17.40625 L 9.671875 -13.234375 L 14.421875 -13.234375 C 14.984375 -13.234375 15.460938 -13.4375 15.859375 -13.84375 C 16.253906 -14.25 16.453125 -14.742188 16.453125 -15.328125 Z M 16.453125 -15.328125 "/></g></g></g><g fill="#8c52ff" fill-opacity="0.4"><g transform="translate(124.709262, 30.705871)"><g><path d="M 13.625 -22.9375 C 17.519531 -22.9375 20.523438 -21.941406 22.640625 -19.953125 C 24.753906 -17.960938 25.8125 -15.066406 25.8125 -11.265625 C 25.8125 -7.460938 24.753906 -4.566406 22.640625 -2.578125 C 20.523438 -0.597656 17.519531 0.390625 13.625 0.390625 C 9.738281 0.390625 6.738281 -0.59375 4.625 -2.5625 C 2.519531 -4.539062 1.46875 -7.441406 1.46875 -11.265625 C 1.46875 -15.085938 2.519531 -17.988281 4.625 -19.96875 C 6.738281 -21.945312 9.738281 -22.9375 13.625 -22.9375 Z M 13.625 -17.53125 C 12.070312 -17.53125 10.890625 -17.0625 10.078125 -16.125 C 9.273438 -15.1875 8.875 -13.914062 8.875 -12.3125 L 8.875 -10.21875 C 8.875 -8.625 9.273438 -7.359375 10.078125 -6.421875 C 10.890625 -5.484375 12.070312 -5.015625 13.625 -5.015625 C 15.175781 -5.015625 16.363281 -5.484375 17.1875 -6.421875 C 18.007812 -7.359375 18.421875 -8.625 18.421875 -10.21875 L 18.421875 -12.3125 C 18.421875 -13.914062 18.007812 -15.1875 17.1875 -16.125 C 16.363281 -17.0625 15.175781 -17.53125 13.625 -17.53125 Z M 13.625 -17.53125 "/></g></g></g><g fill="#8c52ff" fill-opacity="0.4"><g transform="translate(151.993072, 30.705871)"><g><path d="M 13.625 -22.9375 C 17.519531 -22.9375 20.523438 -21.941406 22.640625 -19.953125 C 24.753906 -17.960938 25.8125 -15.066406 25.8125 -11.265625 C 25.8125 -7.460938 24.753906 -4.566406 22.640625 -2.578125 C 20.523438 -0.597656 17.519531 0.390625 13.625 0.390625 C 9.738281 0.390625 6.738281 -0.59375 4.625 -2.5625 C 2.519531 -4.539062 1.46875 -7.441406 1.46875 -11.265625 C 1.46875 -15.085938 2.519531 -17.988281 4.625 -19.96875 C 6.738281 -21.945312 9.738281 -22.9375 13.625 -22.9375 Z M 13.625 -17.53125 C 12.070312 -17.53125 10.890625 -17.0625 10.078125 -16.125 C 9.273438 -15.1875 8.875 -13.914062 8.875 -12.3125 L 8.875 -10.21875 C 8.875 -8.625 9.273438 -7.359375 10.078125 -6.421875 C 10.890625 -5.484375 12.070312 -5.015625 13.625 -5.015625 C 15.175781 -5.015625 16.363281 -5.484375 17.1875 -6.421875 C 18.007812 -7.359375 18.421875 -8.625 18.421875 -10.21875 L 18.421875 -12.3125 C 18.421875 -13.914062 18.007812 -15.1875 17.1875 -16.125 C 16.363281 -17.0625 15.175781 -17.53125 13.625 -17.53125 Z M 13.625 -17.53125 "/></g></g></g><g fill="#8c52ff" fill-opacity="0.4"><g transform="translate(178.425163, 30.705871)"><g><path d="M 15.40625 -16.78125 L 15.40625 0 L 8.15625 0 L 8.15625 -16.78125 L 0.75 -16.78125 L 0.75 -22.546875 L 22.765625 -22.546875 L 22.765625 -16.78125 Z M 15.40625 -16.78125 "/></g></g></g><g fill="#8c52ff" fill-opacity="0.4"><g transform="translate(202.073317, 30.705871)"><g><path d="M 2.421875 -22.546875 L 21.921875 -22.546875 L 21.921875 -17.140625 L 9.671875 -17.140625 L 9.671875 -14.03125 L 20.15625 -14.03125 L 20.15625 -8.84375 L 9.671875 -8.84375 L 9.671875 -5.40625 L 22.15625 -5.40625 L 22.15625 0 L 2.421875 0 Z M 2.421875 -22.546875 "/></g></g></g><g fill="#8c52ff" fill-opacity="0.4"><g transform="translate(225.72147, 30.705871)"><g><path d="M 23.828125 -15.625 C 23.828125 -14.25 23.453125 -13.003906 22.703125 -11.890625 C 21.960938 -10.773438 20.882812 -9.957031 19.46875 -9.4375 L 24.46875 0 L 16.34375 0 L 12.359375 -8.21875 L 9.671875 -8.21875 L 9.671875 0 L 2.421875 0 L 2.421875 -22.546875 L 16.21875 -22.546875 C 17.832031 -22.546875 19.210938 -22.234375 20.359375 -21.609375 C 21.503906 -20.984375 22.367188 -20.140625 22.953125 -19.078125 C 23.535156 -18.023438 23.828125 -16.875 23.828125 -15.625 Z M 16.453125 -15.328125 C 16.453125 -15.921875 16.253906 -16.414062 15.859375 -16.8125 C 15.460938 -17.207031 14.984375 -17.40625 14.421875 -17.40625 L 9.671875 -17.40625 L 9.671875 -13.234375 L 14.421875 -13.234375 C 14.984375 -13.234375 15.460938 -13.4375 15.859375 -13.84375 C 16.253906 -14.25 16.453125 -14.742188 16.453125 -15.328125 Z M 16.453125 -15.328125 "/></g></g></g><g fill="#923a5f" fill-opacity="1"><g transform="translate(1.770326, 28.707473)"><g><path d="M 17.4375 -22.546875 C 18.570312 -22.546875 19.613281 -22.3125 20.5625 -21.84375 C 21.507812 -21.375 22.257812 -20.710938 22.8125 -19.859375 C 23.375 -19.003906 23.65625 -18.050781 23.65625 -17 C 23.65625 -14.226562 22.398438 -12.484375 19.890625 -11.765625 L 19.890625 -11.625 C 22.753906 -10.976562 24.1875 -9.101562 24.1875 -6 C 24.1875 -4.820312 23.894531 -3.773438 23.3125 -2.859375 C 22.726562 -1.953125 21.9375 -1.25 20.9375 -0.75 C 19.9375 -0.25 18.832031 0 17.625 0 L 2.421875 0 L 2.421875 -22.546875 Z M 9.671875 -13.765625 L 14.640625 -13.765625 C 15.117188 -13.765625 15.515625 -13.929688 15.828125 -14.265625 C 16.148438 -14.609375 16.3125 -15.03125 16.3125 -15.53125 L 16.3125 -15.859375 C 16.3125 -16.335938 16.144531 -16.742188 15.8125 -17.078125 C 15.488281 -17.421875 15.097656 -17.59375 14.640625 -17.59375 L 9.671875 -17.59375 Z M 9.671875 -5.25 L 15.171875 -5.25 C 15.648438 -5.25 16.046875 -5.414062 16.359375 -5.75 C 16.679688 -6.09375 16.84375 -6.515625 16.84375 -7.015625 L 16.84375 -7.34375 C 16.84375 -7.84375 16.679688 -8.257812 16.359375 -8.59375 C 16.046875 -8.9375 15.648438 -9.109375 15.171875 -9.109375 L 9.671875 -9.109375 Z M 9.671875 -5.25 "/></g></g></g><g fill="#923a5f" fill-opacity="1"><g transform="translate(27.252676, 28.707473)"><g><path d="M 2.421875 -22.546875 L 21.921875 -22.546875 L 21.921875 -17.140625 L 9.671875 -17.140625 L 9.671875 -14.03125 L 20.15625 -14.03125 L 20.15625 -8.84375 L 9.671875 -8.84375 L 9.671875 -5.40625 L 22.15625 -5.40625 L 22.15625 0 L 2.421875 0 Z M 2.421875 -22.546875 "/></g></g></g><g fill="#923a5f" fill-opacity="1"><g transform="translate(50.900829, 28.707473)"><g><path d="M 17.53125 0 L 16.578125 -3.171875 L 8.6875 -3.171875 L 7.734375 0 L 0.328125 0 L 8.546875 -22.546875 L 16.96875 -22.546875 L 25.203125 0 Z M 10.1875 -8.21875 L 15.078125 -8.21875 L 12.71875 -16.25 L 12.578125 -16.25 Z M 10.1875 -8.21875 "/></g></g></g><g fill="#923a5f" fill-opacity="1"><g transform="translate(74.122851, 28.707473)"><g><path d="M 15.40625 -16.78125 L 15.40625 0 L 8.15625 0 L 8.15625 -16.78125 L 0.75 -16.78125 L 0.75 -22.546875 L 22.765625 -22.546875 L 22.765625 -16.78125 Z M 15.40625 -16.78125 "/></g></g></g><g fill="#000000" fill-opacity="1"><g transform="translate(97.785403, 28.707473)"><g><path d="M 23.828125 -15.625 C 23.828125 -14.25 23.453125 -13.003906 22.703125 -11.890625 C 21.960938 -10.773438 20.882812 -9.957031 19.46875 -9.4375 L 24.46875 0 L 16.34375 0 L 12.359375 -8.21875 L 9.671875 -8.21875 L 9.671875 0 L 2.421875 0 L 2.421875 -22.546875 L 16.21875 -22.546875 C 17.832031 -22.546875 19.210938 -22.234375 20.359375 -21.609375 C 21.503906 -20.984375 22.367188 -20.140625 22.953125 -19.078125 C 23.535156 -18.023438 23.828125 -16.875 23.828125 -15.625 Z M 16.453125 -15.328125 C 16.453125 -15.921875 16.253906 -16.414062 15.859375 -16.8125 C 15.460938 -17.207031 14.984375 -17.40625 14.421875 -17.40625 L 9.671875 -17.40625 L 9.671875 -13.234375 L 14.421875 -13.234375 C 14.984375 -13.234375 15.460938 -13.4375 15.859375 -13.84375 C 16.253906 -14.25 16.453125 -14.742188 16.453125 -15.328125 Z M 16.453125 -15.328125 "/></g></g></g><g fill="#000000" fill-opacity="1"><g transform="translate(122.710864, 28.707473)"><g><path d="M 13.625 -22.9375 C 17.519531 -22.9375 20.523438 -21.941406 22.640625 -19.953125 C 24.753906 -17.960938 25.8125 -15.066406 25.8125 -11.265625 C 25.8125 -7.460938 24.753906 -4.566406 22.640625 -2.578125 C 20.523438 -0.597656 17.519531 0.390625 13.625 0.390625 C 9.738281 0.390625 6.738281 -0.59375 4.625 -2.5625 C 2.519531 -4.539062 1.46875 -7.441406 1.46875 -11.265625 C 1.46875 -15.085938 2.519531 -17.988281 4.625 -19.96875 C 6.738281 -21.945312 9.738281 -22.9375 13.625 -22.9375 Z M 13.625 -17.53125 C 12.070312 -17.53125 10.890625 -17.0625 10.078125 -16.125 C 9.273438 -15.1875 8.875 -13.914062 8.875 -12.3125 L 8.875 -10.21875 C 8.875 -8.625 9.273438 -7.359375 10.078125 -6.421875 C 10.890625 -5.484375 12.070312 -5.015625 13.625 -5.015625 C 15.175781 -5.015625 16.363281 -5.484375 17.1875 -6.421875 C 18.007812 -7.359375 18.421875 -8.625 18.421875 -10.21875 L 18.421875 -12.3125 C 18.421875 -13.914062 18.007812 -15.1875 17.1875 -16.125 C 16.363281 -17.0625 15.175781 -17.53125 13.625 -17.53125 Z M 13.625 -17.53125 "/></g></g></g><g fill="#000000" fill-opacity="1"><g transform="translate(149.994674, 28.707473)"><g><path d="M 13.625 -22.9375 C 17.519531 -22.9375 20.523438 -21.941406 22.640625 -19.953125 C 24.753906 -17.960938 25.8125 -15.066406 25.8125 -11.265625 C 25.8125 -7.460938 24.753906 -4.566406 22.640625 -2.578125 C 20.523438 -0.597656 17.519531 0.390625 13.625 0.390625 C 9.738281 0.390625 6.738281 -0.59375 4.625 -2.5625 C 2.519531 -4.539062 1.46875 -7.441406 1.46875 -11.265625 C 1.46875 -15.085938 2.519531 -17.988281 4.625 -19.96875 C 6.738281 -21.945312 9.738281 -22.9375 13.625 -22.9375 Z M 13.625 -17.53125 C 12.070312 -17.53125 10.890625 -17.0625 10.078125 -16.125 C 9.273438 -15.1875 8.875 -13.914062 8.875 -12.3125 L 8.875 -10.21875 C 8.875 -8.625 9.273438 -7.359375 10.078125 -6.421875 C 10.890625 -5.484375 12.070312 -5.015625 13.625 -5.015625 C 15.175781 -5.015625 16.363281 -5.484375 17.1875 -6.421875 C 18.007812 -7.359375 18.421875 -8.625 18.421875 -10.21875 L 18.421875 -12.3125 C 18.421875 -13.914062 18.007812 -15.1875 17.1875 -16.125 C 16.363281 -17.0625 15.175781 -17.53125 13.625 -17.53125 Z M 13.625 -17.53125 "/></g></g></g><g fill="#000000" fill-opacity="1"><g transform="translate(176.426765, 28.707473)"><g><path d="M 15.40625 -16.78125 L 15.40625 0 L 8.15625 0 L 8.15625 -16.78125 L 0.75 -16.78125 L 0.75 -22.546875 L 22.765625 -22.546875 L 22.765625 -16.78125 Z M 15.40625 -16.78125 "/></g></g></g><g fill="#000000" fill-opacity="1"><g transform="translate(200.074918, 28.707473)"><g><path d="M 2.421875 -22.546875 L 21.921875 -22.546875 L 21.921875 -17.140625 L 9.671875 -17.140625 L 9.671875 -14.03125 L 20.15625 -14.03125 L 20.15625 -8.84375 L 9.671875 -8.84375 L 9.671875 -5.40625 L 22.15625 -5.40625 L 22.15625 0 L 2.421875 0 Z M 2.421875 -22.546875 "/></g></g></g><g fill="#000000" fill-opacity="1"><g transform="translate(223.723072, 28.707473)"><g><path d="M 23.828125 -15.625 C 23.828125 -14.25 23.453125 -13.003906 22.703125 -11.890625 C 21.960938 -10.773438 20.882812 -9.957031 19.46875 -9.4375 L 24.46875 0 L 16.34375 0 L 12.359375 -8.21875 L 9.671875 -8.21875 L 9.671875 0 L 2.421875 0 L 2.421875 -22.546875 L 16.21875 -22.546875 C 17.832031 -22.546875 19.210938 -22.234375 20.359375 -21.609375 C 21.503906 -20.984375 22.367188 -20.140625 22.953125 -19.078125 C 23.535156 -18.023438 23.828125 -16.875 23.828125 -15.625 Z M 16.453125 -15.328125 C 16.453125 -15.921875 16.253906 -16.414062 15.859375 -16.8125 C 15.460938 -17.207031 14.984375 -17.40625 14.421875 -17.40625 L 9.671875 -17.40625 L 9.671875 -13.234375 L 14.421875 -13.234375 C 14.984375 -13.234375 15.460938 -13.4375 15.859375 -13.84375 C 16.253906 -14.25 16.453125 -14.742188 16.453125 -15.328125 Z M 16.453125 -15.328125 "/></g></g></g></g></g></svg>